G04 #@! TF.FileFunction,Soldermask,Top*
%FSLAX46Y46*%
G04 Gerber Fmt 4.6, Leading zero omitted, Abs format (unit mm)*
G04 Created by KiCad (PCBNEW 4.0.4+dfsg1-stable) date Tue Oct 11 00:50:57 2016*
%MOMM*%
%LPD*%
G01*
G04 APERTURE LIST*
%ADD10C,0.150000*%
%ADD11C,1.506220*%
%ADD12C,2.700000*%
%ADD13R,2.200000X0.300000*%
%ADD14R,0.300000X1.600000*%
%ADD15R,1.600000X0.300000*%
%ADD16R,6.700000X6.700000*%
%ADD17C,0.690000*%
%ADD18C,2.200000*%
%ADD19R,1.143000X0.635000*%
%ADD20R,0.635000X1.143000*%
%ADD21R,1.700000X0.400000*%
%ADD22R,3.000000X1.500000*%
G04 APERTURE END LIST*
D10*
D11*
X111592000Y-29500000D03*
X111592000Y-32040000D03*
X109052000Y-29500000D03*
X109052000Y-32040000D03*
X106512000Y-29500000D03*
X106512000Y-32040000D03*
X103972000Y-29500000D03*
X103972000Y-32040000D03*
X101432000Y-29500000D03*
X101432000Y-32040000D03*
D12*
X124400000Y-44150000D03*
X124400000Y-58650000D03*
X129350000Y-59250000D03*
X129350000Y-43550000D03*
D13*
X123300000Y-46650000D03*
X123300000Y-47150000D03*
X123300000Y-47650000D03*
X123300000Y-48150000D03*
X123300000Y-48650000D03*
X123300000Y-49150000D03*
X123300000Y-49650000D03*
X123300000Y-50150000D03*
X123300000Y-50650000D03*
X123300000Y-51150000D03*
X123300000Y-51650000D03*
X123300000Y-52150000D03*
X123300000Y-52650000D03*
X123300000Y-53150000D03*
X123300000Y-53650000D03*
X123300000Y-54150000D03*
X123300000Y-54650000D03*
X123300000Y-55150000D03*
X123300000Y-55650000D03*
D14*
X86050000Y-33900000D03*
X85550000Y-33900000D03*
X85050000Y-33900000D03*
X84550000Y-33900000D03*
X84050000Y-33900000D03*
X83550000Y-33900000D03*
X83050000Y-33900000D03*
X82550000Y-33900000D03*
X82050000Y-33900000D03*
X81550000Y-33900000D03*
X81050000Y-33900000D03*
X80550000Y-33900000D03*
X80050000Y-33900000D03*
X79550000Y-33900000D03*
X79050000Y-33900000D03*
X78550000Y-33900000D03*
X78050000Y-33900000D03*
X77550000Y-33900000D03*
X77050000Y-33900000D03*
X76550000Y-33900000D03*
X76050000Y-33900000D03*
X75550000Y-33900000D03*
X75050000Y-33900000D03*
X74550000Y-33900000D03*
X74050000Y-33900000D03*
X73550000Y-33900000D03*
X73050000Y-33900000D03*
X72550000Y-33900000D03*
X72050000Y-33900000D03*
X71550000Y-33900000D03*
X71050000Y-33900000D03*
X70550000Y-33900000D03*
X70050000Y-33900000D03*
X69550000Y-33900000D03*
X69050000Y-33900000D03*
X68550000Y-33900000D03*
D15*
X66500000Y-35950000D03*
X66500000Y-36450000D03*
X66500000Y-36950000D03*
X66500000Y-37450000D03*
X66500000Y-37950000D03*
X66500000Y-38450000D03*
X66500000Y-38950000D03*
X66500000Y-39450000D03*
X66500000Y-39950000D03*
X66500000Y-40450000D03*
X66500000Y-40950000D03*
X66500000Y-41450000D03*
X66500000Y-41950000D03*
X66500000Y-42450000D03*
X66500000Y-42950000D03*
X66500000Y-43450000D03*
X66500000Y-43950000D03*
X66500000Y-44450000D03*
X66500000Y-44950000D03*
X66500000Y-45450000D03*
X66500000Y-45950000D03*
X66500000Y-46450000D03*
X66500000Y-46950000D03*
X66500000Y-47450000D03*
X66500000Y-47950000D03*
X66500000Y-48450000D03*
X66500000Y-48950000D03*
X66500000Y-49450000D03*
X66500000Y-49950000D03*
X66500000Y-50450000D03*
X66500000Y-50950000D03*
X66500000Y-51450000D03*
X66500000Y-51950000D03*
X66500000Y-52450000D03*
X66500000Y-52950000D03*
X66500000Y-53450000D03*
D14*
X68550000Y-55500000D03*
X69050000Y-55500000D03*
X69550000Y-55500000D03*
X70050000Y-55500000D03*
X70550000Y-55500000D03*
X71050000Y-55500000D03*
X71550000Y-55500000D03*
X72050000Y-55500000D03*
X72550000Y-55500000D03*
X73050000Y-55500000D03*
X73550000Y-55500000D03*
X74050000Y-55500000D03*
X74550000Y-55500000D03*
X75050000Y-55500000D03*
X75550000Y-55500000D03*
X76050000Y-55500000D03*
X76550000Y-55500000D03*
X77050000Y-55500000D03*
X77550000Y-55500000D03*
X78050000Y-55500000D03*
X78550000Y-55500000D03*
X79050000Y-55500000D03*
X79550000Y-55500000D03*
X80050000Y-55500000D03*
X80550000Y-55500000D03*
X81050000Y-55500000D03*
X81550000Y-55500000D03*
X82050000Y-55500000D03*
X82550000Y-55500000D03*
X83050000Y-55500000D03*
X83550000Y-55500000D03*
X84050000Y-55500000D03*
X84550000Y-55500000D03*
X85050000Y-55500000D03*
X85550000Y-55500000D03*
X86050000Y-55500000D03*
D15*
X88100000Y-53450000D03*
X88100000Y-52950000D03*
X88100000Y-52450000D03*
X88100000Y-51950000D03*
X88100000Y-51450000D03*
X88100000Y-50950000D03*
X88100000Y-50450000D03*
X88100000Y-49950000D03*
X88100000Y-49450000D03*
X88100000Y-48950000D03*
X88100000Y-48450000D03*
X88100000Y-47950000D03*
X88100000Y-47450000D03*
X88100000Y-46950000D03*
X88100000Y-46450000D03*
X88100000Y-45950000D03*
X88100000Y-45450000D03*
X88100000Y-44950000D03*
X88100000Y-44450000D03*
X88100000Y-43950000D03*
X88100000Y-43450000D03*
X88100000Y-42950000D03*
X88100000Y-42450000D03*
X88100000Y-41950000D03*
X88100000Y-41450000D03*
X88100000Y-40950000D03*
X88100000Y-40450000D03*
X88100000Y-39950000D03*
X88100000Y-39450000D03*
X88100000Y-38950000D03*
X88100000Y-38450000D03*
X88100000Y-37950000D03*
X88100000Y-37450000D03*
X88100000Y-36950000D03*
X88100000Y-36450000D03*
X88100000Y-35950000D03*
D16*
X77300000Y-44700000D03*
D17*
X79850000Y-42150000D03*
X79850000Y-43000000D03*
X79850000Y-43850000D03*
X79850000Y-44700000D03*
X79850000Y-45550000D03*
X79850000Y-46400000D03*
X79850000Y-47250000D03*
X79000000Y-42150000D03*
X79000000Y-43000000D03*
X79000000Y-43850000D03*
X79000000Y-44700000D03*
X79000000Y-45550000D03*
X79000000Y-46400000D03*
X79000000Y-47250000D03*
X78150000Y-42150000D03*
X78150000Y-43000000D03*
X78150000Y-46400000D03*
X78150000Y-47250000D03*
X77300000Y-42150000D03*
X77300000Y-43000000D03*
X77300000Y-46400000D03*
X77300000Y-47250000D03*
X76450000Y-42150000D03*
X76450000Y-43000000D03*
X76450000Y-46400000D03*
X76450000Y-47250000D03*
X75600000Y-42150000D03*
X75600000Y-43000000D03*
X75600000Y-43850000D03*
X75600000Y-44700000D03*
X75600000Y-45550000D03*
X75600000Y-46400000D03*
X75600000Y-47250000D03*
X74750000Y-42150000D03*
X74750000Y-43000000D03*
X74750000Y-43850000D03*
X74750000Y-44700000D03*
X74750000Y-45550000D03*
X74750000Y-46400000D03*
X74750000Y-47250000D03*
D18*
X77300000Y-44700000D03*
D14*
X101300000Y-55700000D03*
X101800000Y-55700000D03*
X102300000Y-55700000D03*
X102800000Y-55700000D03*
X103300000Y-55700000D03*
X103800000Y-55700000D03*
X104300000Y-55700000D03*
X104800000Y-55700000D03*
X105300000Y-55700000D03*
X105800000Y-55700000D03*
X106300000Y-55700000D03*
X106800000Y-55700000D03*
X107300000Y-55700000D03*
X107800000Y-55700000D03*
X108300000Y-55700000D03*
X108800000Y-55700000D03*
X109300000Y-55700000D03*
X109800000Y-55700000D03*
X110300000Y-55700000D03*
X110800000Y-55700000D03*
X111300000Y-55700000D03*
X111800000Y-55700000D03*
X112300000Y-55700000D03*
X112800000Y-55700000D03*
X113300000Y-55700000D03*
D15*
X115100000Y-53900000D03*
X115100000Y-53400000D03*
X115100000Y-52900000D03*
X115100000Y-52400000D03*
X115100000Y-51900000D03*
X115100000Y-51400000D03*
X115100000Y-50900000D03*
X115100000Y-50400000D03*
X115100000Y-49900000D03*
X115100000Y-49400000D03*
X115100000Y-48900000D03*
X115100000Y-48400000D03*
X115100000Y-47900000D03*
X115100000Y-47400000D03*
X115100000Y-46900000D03*
X115100000Y-46400000D03*
X115100000Y-45900000D03*
X115100000Y-45400000D03*
X115100000Y-44900000D03*
X115100000Y-44400000D03*
X115100000Y-43900000D03*
X115100000Y-43400000D03*
X115100000Y-42900000D03*
X115100000Y-42400000D03*
X115100000Y-41900000D03*
D14*
X113300000Y-40100000D03*
X112800000Y-40100000D03*
X112300000Y-40100000D03*
X111800000Y-40100000D03*
X111300000Y-40100000D03*
X110800000Y-40100000D03*
X110300000Y-40100000D03*
X109800000Y-40100000D03*
X109300000Y-40100000D03*
X108800000Y-40100000D03*
X108300000Y-40100000D03*
X107800000Y-40100000D03*
X107300000Y-40100000D03*
X106800000Y-40100000D03*
X106300000Y-40100000D03*
X105800000Y-40100000D03*
X105300000Y-40100000D03*
X104800000Y-40100000D03*
X104300000Y-40100000D03*
X103800000Y-40100000D03*
X103300000Y-40100000D03*
X102800000Y-40100000D03*
X102300000Y-40100000D03*
X101800000Y-40100000D03*
X101300000Y-40100000D03*
D15*
X99500000Y-41900000D03*
X99500000Y-42400000D03*
X99500000Y-42900000D03*
X99500000Y-43400000D03*
X99500000Y-43900000D03*
X99500000Y-44400000D03*
X99500000Y-44900000D03*
X99500000Y-45400000D03*
X99500000Y-45900000D03*
X99500000Y-46400000D03*
X99500000Y-46900000D03*
X99500000Y-47400000D03*
X99500000Y-47900000D03*
X99500000Y-48400000D03*
X99500000Y-48900000D03*
X99500000Y-49400000D03*
X99500000Y-49900000D03*
X99500000Y-50400000D03*
X99500000Y-50900000D03*
X99500000Y-51400000D03*
X99500000Y-51900000D03*
X99500000Y-52400000D03*
X99500000Y-52900000D03*
X99500000Y-53400000D03*
X99500000Y-53900000D03*
D19*
X118925000Y-55931000D03*
X118925000Y-54407000D03*
X120548000Y-55931000D03*
X120548000Y-54407000D03*
X118750000Y-59604000D03*
X118750000Y-58080000D03*
X120632000Y-58080000D03*
X120632000Y-59604000D03*
X117108000Y-53626000D03*
X117108000Y-55150000D03*
D20*
X91455000Y-29916000D03*
X92979000Y-29916000D03*
D19*
X118040000Y-44248000D03*
X118040000Y-45772000D03*
X88500000Y-54538000D03*
X88500000Y-56062000D03*
D20*
X87259000Y-33498000D03*
X88783000Y-33498000D03*
X92972000Y-28194000D03*
X91448000Y-28194000D03*
X67362000Y-55900000D03*
X65838000Y-55900000D03*
X68762000Y-31800000D03*
X67238000Y-31800000D03*
D19*
X66000000Y-34762000D03*
X66000000Y-33238000D03*
X57592000Y-32179000D03*
X57592000Y-30655000D03*
D20*
X52883000Y-53355000D03*
X54407000Y-53355000D03*
X68778000Y-29444000D03*
X70302000Y-29444000D03*
X71716000Y-27546000D03*
X73240000Y-27546000D03*
D21*
X48512000Y-55218000D03*
X48512000Y-55868000D03*
X48512000Y-56518000D03*
X48512000Y-57168000D03*
X48512000Y-57818000D03*
X48512000Y-58468000D03*
X48512000Y-59118000D03*
X48512000Y-59768000D03*
X48512000Y-60418000D03*
X48512000Y-61068000D03*
X54952000Y-61068000D03*
X54952000Y-60418000D03*
X54952000Y-59768000D03*
X54952000Y-59118000D03*
X54952000Y-58468000D03*
X54952000Y-57818000D03*
X54952000Y-57168000D03*
X54952000Y-56518000D03*
X54952000Y-55868000D03*
X54952000Y-55218000D03*
X48520000Y-31937000D03*
X48520000Y-32587000D03*
X48520000Y-33237000D03*
X48520000Y-33887000D03*
X48520000Y-34537000D03*
X48520000Y-35187000D03*
X48520000Y-35837000D03*
X48520000Y-36487000D03*
X48520000Y-37137000D03*
X48520000Y-37787000D03*
X54960000Y-37787000D03*
X54960000Y-37137000D03*
X54960000Y-36487000D03*
X54960000Y-35837000D03*
X54960000Y-35187000D03*
X54960000Y-34537000D03*
X54960000Y-33887000D03*
X54960000Y-33237000D03*
X54960000Y-32587000D03*
X54960000Y-31937000D03*
D22*
X40000000Y-68200000D03*
X40000000Y-45700000D03*
X40000000Y-65700000D03*
X40000000Y-63200000D03*
X40000000Y-60700000D03*
X40000000Y-58200000D03*
X40000000Y-55700000D03*
X40000000Y-53200000D03*
X40000000Y-50700000D03*
X40000000Y-48200000D03*
X40000000Y-43200000D03*
X40000000Y-40700000D03*
X40000000Y-38200000D03*
X40000000Y-35700000D03*
X40000000Y-33200000D03*
X40000000Y-30700000D03*
X40000000Y-28200000D03*
X40000000Y-25700000D03*
M02*
