G04 #@! TF.FileFunction,Soldermask,Bot*
%FSLAX46Y46*%
G04 Gerber Fmt 4.6, Leading zero omitted, Abs format (unit mm)*
G04 Created by KiCad (PCBNEW 4.0.4+dfsg1-stable) date Tue Oct 11 00:50:57 2016*
%MOMM*%
%LPD*%
G01*
G04 APERTURE LIST*
%ADD10C,0.150000*%
%ADD11C,1.506220*%
%ADD12R,0.650000X1.560000*%
%ADD13C,2.700000*%
%ADD14C,0.690000*%
%ADD15C,2.200000*%
%ADD16R,0.635000X1.143000*%
%ADD17R,1.143000X0.635000*%
%ADD18R,2.350000X0.600000*%
%ADD19R,2.400000X1.200000*%
%ADD20R,2.400000X3.300000*%
%ADD21R,1.700000X0.400000*%
%ADD22R,0.450000X1.400000*%
%ADD23R,1.500000X0.400000*%
%ADD24R,3.000000X1.500000*%
G04 APERTURE END LIST*
D10*
D11*
X111592000Y-29500000D03*
X111592000Y-32040000D03*
X109052000Y-29500000D03*
X109052000Y-32040000D03*
X106512000Y-29500000D03*
X106512000Y-32040000D03*
X103972000Y-29500000D03*
X103972000Y-32040000D03*
X101432000Y-29500000D03*
X101432000Y-32040000D03*
D12*
X103743800Y-60603400D03*
X102793800Y-60603400D03*
X101843800Y-60603400D03*
X101843800Y-57303400D03*
X103743800Y-57303400D03*
X113340000Y-60603400D03*
X112390000Y-60603400D03*
X111440000Y-60603400D03*
X111440000Y-57303400D03*
X113340000Y-57303400D03*
X74650000Y-60674600D03*
X73700000Y-60674600D03*
X72750000Y-60674600D03*
X72750000Y-57374600D03*
X74650000Y-57374600D03*
X79256000Y-60652600D03*
X78306000Y-60652600D03*
X77356000Y-60652600D03*
X77356000Y-57352600D03*
X79256000Y-57352600D03*
X92984000Y-59928000D03*
X92034000Y-59928000D03*
X91084000Y-59928000D03*
X91084000Y-56628000D03*
X92984000Y-56628000D03*
D13*
X124400000Y-44150000D03*
X124400000Y-58650000D03*
X129350000Y-59250000D03*
X129350000Y-43550000D03*
D14*
X79850000Y-42150000D03*
X79850000Y-43000000D03*
X79850000Y-43850000D03*
X79850000Y-44700000D03*
X79850000Y-45550000D03*
X79850000Y-46400000D03*
X79850000Y-47250000D03*
X79000000Y-42150000D03*
X79000000Y-43000000D03*
X79000000Y-43850000D03*
X79000000Y-44700000D03*
X79000000Y-45550000D03*
X79000000Y-46400000D03*
X79000000Y-47250000D03*
X78150000Y-42150000D03*
X78150000Y-43000000D03*
X78150000Y-46400000D03*
X78150000Y-47250000D03*
X77300000Y-42150000D03*
X77300000Y-43000000D03*
X77300000Y-46400000D03*
X77300000Y-47250000D03*
X76450000Y-42150000D03*
X76450000Y-43000000D03*
X76450000Y-46400000D03*
X76450000Y-47250000D03*
X75600000Y-42150000D03*
X75600000Y-43000000D03*
X75600000Y-43850000D03*
X75600000Y-44700000D03*
X75600000Y-45550000D03*
X75600000Y-46400000D03*
X75600000Y-47250000D03*
X74750000Y-42150000D03*
X74750000Y-43000000D03*
X74750000Y-43850000D03*
X74750000Y-44700000D03*
X74750000Y-45550000D03*
X74750000Y-46400000D03*
X74750000Y-47250000D03*
D15*
X77300000Y-44700000D03*
D16*
X112235000Y-45811000D03*
X113759000Y-45811000D03*
X112227000Y-51407000D03*
X113751000Y-51407000D03*
X112230000Y-53221000D03*
X113754000Y-53221000D03*
X113438000Y-40200000D03*
X114962000Y-40200000D03*
D17*
X97686200Y-30618800D03*
X97686200Y-29094800D03*
X79116000Y-33111000D03*
X79116000Y-31587000D03*
X77567000Y-33111000D03*
X77567000Y-31587000D03*
X113873000Y-31547000D03*
X113873000Y-30023000D03*
X87043600Y-29628200D03*
X87043600Y-28104200D03*
X77089000Y-51790600D03*
X77089000Y-53314600D03*
X79806800Y-36728400D03*
X79806800Y-38252400D03*
X81788000Y-38252400D03*
X81788000Y-36728400D03*
X101150000Y-52642000D03*
X101150000Y-54166000D03*
D16*
X66553000Y-47859000D03*
X65029000Y-47859000D03*
D17*
X67807000Y-51694000D03*
X67807000Y-50170000D03*
X85800000Y-43462000D03*
X85800000Y-41938000D03*
X68935600Y-36931600D03*
X68935600Y-38455600D03*
D16*
X92862400Y-54914800D03*
X91338400Y-54914800D03*
X79522000Y-55625000D03*
X77998000Y-55625000D03*
X74447400Y-55630000D03*
X72923400Y-55630000D03*
X75230000Y-62390600D03*
X73706000Y-62390600D03*
X92964000Y-61696600D03*
X91440000Y-61696600D03*
X79859000Y-62395600D03*
X78335000Y-62395600D03*
X113320600Y-55600600D03*
X111796600Y-55600600D03*
X103762000Y-55600000D03*
X102238000Y-55600000D03*
X113929000Y-62311000D03*
X112405000Y-62311000D03*
X104323000Y-62316000D03*
X102799000Y-62316000D03*
X112862000Y-38500000D03*
X111338000Y-38500000D03*
X110738000Y-40200000D03*
X112262000Y-40200000D03*
X107262000Y-40200000D03*
X105738000Y-40200000D03*
X105738000Y-38500000D03*
X107262000Y-38500000D03*
D17*
X99600000Y-41838000D03*
X99600000Y-43362000D03*
X115000000Y-45362000D03*
X115000000Y-43838000D03*
X99500000Y-48462000D03*
X99500000Y-46938000D03*
X115000000Y-48062000D03*
X115000000Y-46538000D03*
X115000000Y-50962000D03*
X115000000Y-49438000D03*
X99600000Y-52838000D03*
X99600000Y-54362000D03*
X115000000Y-52938000D03*
X115000000Y-54462000D03*
D16*
X108362000Y-57300000D03*
X106838000Y-57300000D03*
X107262000Y-55600000D03*
X105738000Y-55600000D03*
X70238000Y-55630000D03*
X71762000Y-55630000D03*
X75457000Y-55625000D03*
X76981000Y-55625000D03*
X82850000Y-55621000D03*
X81326000Y-55621000D03*
X69162000Y-55700000D03*
X67638000Y-55700000D03*
X72038000Y-53100000D03*
X73562000Y-53100000D03*
X78538000Y-53100000D03*
X80062000Y-53100000D03*
X85338000Y-55700000D03*
X86862000Y-55700000D03*
D17*
X66300000Y-51862000D03*
X66300000Y-50338000D03*
X88300000Y-49762000D03*
X88300000Y-48238000D03*
X85800000Y-49662000D03*
X85800000Y-48138000D03*
X88300000Y-45762000D03*
X88300000Y-44238000D03*
X68524000Y-45796000D03*
X68524000Y-47320000D03*
X66300000Y-39962000D03*
X66300000Y-38438000D03*
X88300000Y-39162000D03*
X88300000Y-37638000D03*
X66300000Y-35838000D03*
X66300000Y-37362000D03*
D16*
X74062000Y-36100000D03*
X72538000Y-36100000D03*
D17*
X85786000Y-34768000D03*
X85786000Y-33244000D03*
D16*
X69863000Y-34064000D03*
X68339000Y-34064000D03*
X71838000Y-34061000D03*
X73362000Y-34061000D03*
X77262000Y-36100000D03*
X75738000Y-36100000D03*
D17*
X84115000Y-34773000D03*
X84115000Y-33249000D03*
D18*
X95490300Y-28104200D03*
X95490300Y-29374200D03*
X95490300Y-30644200D03*
X95490300Y-31914200D03*
X89290300Y-31914200D03*
X89290300Y-30644200D03*
X89290300Y-29374200D03*
X89290300Y-28104200D03*
D17*
X46406000Y-68298000D03*
X46406000Y-66774000D03*
D16*
X105613000Y-67467000D03*
X107137000Y-67467000D03*
D17*
X46372000Y-62480000D03*
X46372000Y-64004000D03*
D16*
X108113000Y-60430000D03*
X106589000Y-60430000D03*
D17*
X68524000Y-44679000D03*
X68524000Y-43155000D03*
D19*
X49067000Y-65100000D03*
X49067000Y-67400000D03*
X49067000Y-62800000D03*
D20*
X56267000Y-65100000D03*
D12*
X108095000Y-65567000D03*
X107145000Y-65567000D03*
X106195000Y-65567000D03*
X106195000Y-62267000D03*
X108095000Y-62267000D03*
D16*
X50357000Y-55710000D03*
X48833000Y-55710000D03*
X55138000Y-46248000D03*
X56662000Y-46248000D03*
D21*
X48512000Y-53636000D03*
X48512000Y-52986000D03*
X48512000Y-52336000D03*
X48512000Y-51686000D03*
X48512000Y-51036000D03*
X48512000Y-50386000D03*
X48512000Y-49736000D03*
X48512000Y-49086000D03*
X48512000Y-48436000D03*
X48512000Y-47786000D03*
X54952000Y-47786000D03*
X54952000Y-48436000D03*
X54952000Y-49086000D03*
X54952000Y-49736000D03*
X54952000Y-50386000D03*
X54952000Y-51036000D03*
X54952000Y-51686000D03*
X54952000Y-52336000D03*
X54952000Y-52986000D03*
X54952000Y-53636000D03*
D17*
X44752000Y-68298000D03*
X44752000Y-66774000D03*
D22*
X42893000Y-68266000D03*
X42893000Y-65466000D03*
D23*
X49932000Y-44866000D03*
X49932000Y-44216000D03*
X49932000Y-43566000D03*
X49932000Y-42916000D03*
X53532000Y-42916000D03*
X53532000Y-43566000D03*
X53532000Y-44216000D03*
X53532000Y-44866000D03*
D24*
X40000000Y-65700000D03*
X39982000Y-48224000D03*
X40000000Y-35700000D03*
X40000000Y-45700000D03*
X40000000Y-55700000D03*
X40000000Y-43200000D03*
X40000000Y-60700000D03*
X40000000Y-53200000D03*
X40000000Y-38200000D03*
X39990000Y-50698000D03*
X40000000Y-58200000D03*
X40000000Y-40700000D03*
X40000000Y-68200000D03*
M02*
