M48
INCH,TZ
T1C0.013
T2C0.014
T3C0.039
T4C0.039
T5C0.055
%
G90
G05
T1
X18532Y-21494
X20268Y-17262
X22614Y-21144
X23151Y-18711
X23238Y-17430
X23436Y-16944
X23494Y-20191
X23504Y-19741
X23619Y-18741
X23628Y-19179
X24816Y-13035
X27981Y-11745
X28972Y-12065
X29429Y-16594
X29429Y-16929
X29429Y-17264
X29429Y-17598
X29429Y-17933
X29429Y-18268
X29429Y-18602
X29764Y-16594
X29764Y-16929
X29764Y-17264
X29764Y-17598
X29764Y-17933
X29764Y-18268
X29764Y-18602
X30098Y-16594
X30098Y-16929
X30098Y-18268
X30098Y-18602
X30430Y-21320
X30433Y-16594
X30433Y-16929
X30433Y-18268
X30433Y-18602
X30528Y-12246
X30768Y-16594
X30768Y-16929
X30768Y-18268
X30768Y-18602
X31102Y-16594
X31102Y-16929
X31102Y-17264
X31102Y-17598
X31102Y-17933
X31102Y-18268
X31102Y-18602
X31364Y-11908
X31398Y-11318
X31400Y-14020
X31437Y-16594
X31437Y-16929
X31437Y-17264
X31437Y-17598
X31437Y-17933
X31437Y-18268
X31437Y-18602
X32200Y-13999
X32487Y-12810
X33198Y-12712
X33359Y-11735
X35250Y-21400
X36535Y-12415
X36994Y-11650
X38939Y-11498
X44561Y-17809
X44590Y-20790
X44606Y-16417
X44742Y-18869
X44780Y-19910
X45180Y-15144
X45423Y-11183
X46098Y-24666
X49509Y-21927
T2
X16620Y-15615
X16626Y-13578
X16652Y-21616
X16654Y-25268
X16656Y-16563
X16659Y-20367
X16678Y-24430
X16704Y-22434
X16707Y-10728
X16707Y-11736
X16713Y-23397
X16719Y-12624
X16734Y-9774
X16734Y-14517
X16926Y-20990
X16950Y-17472
X17139Y-15237
X17172Y-19944
X17244Y-14214
X17256Y-22752
X17581Y-25641
X17595Y-23430
X17883Y-20696
X18468Y-20241
X19170Y-27228
X19770Y-27132
X20319Y-21948
X20376Y-26688
X20800Y-20512
X21018Y-26676
X21642Y-26682
X21872Y-24640
X22266Y-26682
X22584Y-24624
X22866Y-26646
X23088Y-25144
X23120Y-25704
X23128Y-26296
X23326Y-20776
X23576Y-24504
X23632Y-25152
X23632Y-25752
X23648Y-26288
X25520Y-25928
X25570Y-17970
X25570Y-19170
X25591Y-13386
X25912Y-27016
X26457Y-13780
X26496Y-13425
X26710Y-14600
X26710Y-15120
X26710Y-17890
X26710Y-20550
X26721Y-18555
X26732Y-22402
X26766Y-19392
X26770Y-14110
X26770Y-16100
X26780Y-15560
X26832Y-16582
X26890Y-21330
X26920Y-19014
X26928Y-25912
X27050Y-15830
X27200Y-27024
X27239Y-12507
X27350Y-20542
X27380Y-20104
X27400Y-21320
X27520Y-13900
X27790Y-21330
X27835Y-20591
X27874Y-15157
X28020Y-22380
X28187Y-13928
X28386Y-16102
X28386Y-16811
X28386Y-17638
X28386Y-18386
X28386Y-19134
X28386Y-20000
X28390Y-21330
X28496Y-27008
X28572Y-13909
X28672Y-25936
X28898Y-15669
X28917Y-20000
X28950Y-21330
X28979Y-13876
X29291Y-19252
X29330Y-21320
X29449Y-20669
X29508Y-20000
X29685Y-15669
X29760Y-21310
X29803Y-14764
X29803Y-20669
X29817Y-13952
X29944Y-26016
X29960Y-27008
X30079Y-19252
X30118Y-20000
X30384Y-24681
X30472Y-15669
X30533Y-13939
X30728Y-20000
X30837Y-22434
X30866Y-19252
X30940Y-21330
X31030Y-15670
X31061Y-13873
X31280Y-20000
X31304Y-26008
X31520Y-22540
X31614Y-19252
X31680Y-27030
X31768Y-13914
X31791Y-20000
X31890Y-15669
X31909Y-20669
X32120Y-21300
X32264Y-20020
X32283Y-20669
X32441Y-16220
X32441Y-16890
X32441Y-17638
X32441Y-18425
X32441Y-19134
X32600Y-21300
X32638Y-20669
X33031Y-20669
X33060Y-26040
X33105Y-13867
X33150Y-20197
X33336Y-16226
X33345Y-17645
X33360Y-27075
X33633Y-13908
X33660Y-21330
X33661Y-14488
X33688Y-12848
X33795Y-18540
X33994Y-18235
X34017Y-15512
X34019Y-19493
X34047Y-19039
X34055Y-20276
X34062Y-19900
X34077Y-17870
X34078Y-17130
X34081Y-16520
X34091Y-14726
X34104Y-15148
X34126Y-17505
X34213Y-22323
X34270Y-13684
X34665Y-26010
X34819Y-12902
X34950Y-27060
X35400Y-22420
X35744Y-11065
X36270Y-25995
X36340Y-20490
X36350Y-19330
X36350Y-20010
X36419Y-18220
X36444Y-15168
X36585Y-27030
X38370Y-27030
X38461Y-12636
X38535Y-26040
X38567Y-17677
X38574Y-21248
X39530Y-21730
X39751Y-20939
X39762Y-19452
X39764Y-16496
X39764Y-18504
X39764Y-19016
X39766Y-19970
X39990Y-27030
X40200Y-26040
X40787Y-16457
X40787Y-18110
X40787Y-19449
X41064Y-14805
X41220Y-16457
X41299Y-15118
X41339Y-21063
X41654Y-16378
X41654Y-21378
X41693Y-17244
X41890Y-21063
X42183Y-23355
X42205Y-16378
X42205Y-21378
X42597Y-26874
X42624Y-16365
X42638Y-23071
X42880Y-26600
X43189Y-17323
X43191Y-26285
X43494Y-24746
X43583Y-16417
X43746Y-21361
X43830Y-24458
X44134Y-14685
X44134Y-17323
X44173Y-16811
X44213Y-16417
X44540Y-18470
X44835Y-19449
X45269Y-16175
X45274Y-21780
X45709Y-21873
X48083Y-16668
X49213Y-21575
X49252Y-20551
T3
X39934Y-11614
X39934Y-12614
X40934Y-11614
X40934Y-12614
X41934Y-11614
X41934Y-12614
X42934Y-11614
X42934Y-12614
X43934Y-11614
X43934Y-12614
T4
X30433Y-17598
T5
X48976Y-17382
X48976Y-23091
X50925Y-17146
X50925Y-23327
T0
M30
