G04 #@! TF.FileFunction,Legend,Bot*
%FSLAX46Y46*%
G04 Gerber Fmt 4.6, Leading zero omitted, Abs format (unit mm)*
G04 Created by KiCad (PCBNEW 4.0.4+dfsg1-stable) date Tue Oct 11 00:50:57 2016*
%MOMM*%
%LPD*%
G01*
G04 APERTURE LIST*
%ADD10C,0.150000*%
%ADD11C,0.119380*%
%ADD12C,0.127000*%
%ADD13C,0.114300*%
G04 APERTURE END LIST*
D10*
X104593800Y-59253400D02*
G75*
G03X104593800Y-59253400I-100000J0D01*
G01*
X104243800Y-58703400D02*
X104243800Y-59203400D01*
X101343800Y-58703400D02*
X104243800Y-58703400D01*
X101343800Y-59203400D02*
X101343800Y-58703400D01*
X104243800Y-59203400D02*
X101343800Y-59203400D01*
X114190000Y-59253400D02*
G75*
G03X114190000Y-59253400I-100000J0D01*
G01*
X113840000Y-58703400D02*
X113840000Y-59203400D01*
X110940000Y-58703400D02*
X113840000Y-58703400D01*
X110940000Y-59203400D02*
X110940000Y-58703400D01*
X113840000Y-59203400D02*
X110940000Y-59203400D01*
X75500000Y-59324600D02*
G75*
G03X75500000Y-59324600I-100000J0D01*
G01*
X75150000Y-58774600D02*
X75150000Y-59274600D01*
X72250000Y-58774600D02*
X75150000Y-58774600D01*
X72250000Y-59274600D02*
X72250000Y-58774600D01*
X75150000Y-59274600D02*
X72250000Y-59274600D01*
X80106000Y-59302600D02*
G75*
G03X80106000Y-59302600I-100000J0D01*
G01*
X79756000Y-58752600D02*
X79756000Y-59252600D01*
X76856000Y-58752600D02*
X79756000Y-58752600D01*
X76856000Y-59252600D02*
X76856000Y-58752600D01*
X79756000Y-59252600D02*
X76856000Y-59252600D01*
X93834000Y-58578000D02*
G75*
G03X93834000Y-58578000I-100000J0D01*
G01*
X93484000Y-58028000D02*
X93484000Y-58528000D01*
X90584000Y-58028000D02*
X93484000Y-58028000D01*
X90584000Y-58528000D02*
X90584000Y-58028000D01*
X93484000Y-58528000D02*
X90584000Y-58528000D01*
D11*
X113497380Y-45076940D02*
X114195880Y-45076940D01*
X112496620Y-45076940D02*
X111798120Y-45076940D01*
X113497380Y-46545060D02*
X114195880Y-46545060D01*
X111798120Y-46545060D02*
X112496620Y-46545060D01*
X114236520Y-46547600D02*
X114236520Y-45074400D01*
X111757480Y-45074400D02*
X111757480Y-46547600D01*
X113489380Y-50672940D02*
X114187880Y-50672940D01*
X112488620Y-50672940D02*
X111790120Y-50672940D01*
X113489380Y-52141060D02*
X114187880Y-52141060D01*
X111790120Y-52141060D02*
X112488620Y-52141060D01*
X114228520Y-52143600D02*
X114228520Y-50670400D01*
X111749480Y-50670400D02*
X111749480Y-52143600D01*
X113492380Y-52486940D02*
X114190880Y-52486940D01*
X112491620Y-52486940D02*
X111793120Y-52486940D01*
X113492380Y-53955060D02*
X114190880Y-53955060D01*
X111793120Y-53955060D02*
X112491620Y-53955060D01*
X114231520Y-53957600D02*
X114231520Y-52484400D01*
X111752480Y-52484400D02*
X111752480Y-53957600D01*
X114700380Y-39465940D02*
X115398880Y-39465940D01*
X113699620Y-39465940D02*
X113001120Y-39465940D01*
X114700380Y-40934060D02*
X115398880Y-40934060D01*
X113001120Y-40934060D02*
X113699620Y-40934060D01*
X115439520Y-40936600D02*
X115439520Y-39463400D01*
X112960480Y-39463400D02*
X112960480Y-40936600D01*
X96952140Y-29356420D02*
X96952140Y-28657920D01*
X96952140Y-30357180D02*
X96952140Y-31055680D01*
X98420260Y-29356420D02*
X98420260Y-28657920D01*
X98420260Y-31055680D02*
X98420260Y-30357180D01*
X98422800Y-28617280D02*
X96949600Y-28617280D01*
X96949600Y-31096320D02*
X98422800Y-31096320D01*
X78381940Y-31848620D02*
X78381940Y-31150120D01*
X78381940Y-32849380D02*
X78381940Y-33547880D01*
X79850060Y-31848620D02*
X79850060Y-31150120D01*
X79850060Y-33547880D02*
X79850060Y-32849380D01*
X79852600Y-31109480D02*
X78379400Y-31109480D01*
X78379400Y-33588520D02*
X79852600Y-33588520D01*
X76832940Y-31848620D02*
X76832940Y-31150120D01*
X76832940Y-32849380D02*
X76832940Y-33547880D01*
X78301060Y-31848620D02*
X78301060Y-31150120D01*
X78301060Y-33547880D02*
X78301060Y-32849380D01*
X78303600Y-31109480D02*
X76830400Y-31109480D01*
X76830400Y-33588520D02*
X78303600Y-33588520D01*
X113138940Y-30284620D02*
X113138940Y-29586120D01*
X113138940Y-31285380D02*
X113138940Y-31983880D01*
X114607060Y-30284620D02*
X114607060Y-29586120D01*
X114607060Y-31983880D02*
X114607060Y-31285380D01*
X114609600Y-29545480D02*
X113136400Y-29545480D01*
X113136400Y-32024520D02*
X114609600Y-32024520D01*
X86309540Y-28365820D02*
X86309540Y-27667320D01*
X86309540Y-29366580D02*
X86309540Y-30065080D01*
X87777660Y-28365820D02*
X87777660Y-27667320D01*
X87777660Y-30065080D02*
X87777660Y-29366580D01*
X87780200Y-27626680D02*
X86307000Y-27626680D01*
X86307000Y-30105720D02*
X87780200Y-30105720D01*
X77823060Y-53052980D02*
X77823060Y-53751480D01*
X77823060Y-52052220D02*
X77823060Y-51353720D01*
X76354940Y-53052980D02*
X76354940Y-53751480D01*
X76354940Y-51353720D02*
X76354940Y-52052220D01*
X76352400Y-53792120D02*
X77825600Y-53792120D01*
X77825600Y-51313080D02*
X76352400Y-51313080D01*
X80540860Y-37990780D02*
X80540860Y-38689280D01*
X80540860Y-36990020D02*
X80540860Y-36291520D01*
X79072740Y-37990780D02*
X79072740Y-38689280D01*
X79072740Y-36291520D02*
X79072740Y-36990020D01*
X79070200Y-38729920D02*
X80543400Y-38729920D01*
X80543400Y-36250880D02*
X79070200Y-36250880D01*
X81053940Y-36990020D02*
X81053940Y-36291520D01*
X81053940Y-37990780D02*
X81053940Y-38689280D01*
X82522060Y-36990020D02*
X82522060Y-36291520D01*
X82522060Y-38689280D02*
X82522060Y-37990780D01*
X82524600Y-36250880D02*
X81051400Y-36250880D01*
X81051400Y-38729920D02*
X82524600Y-38729920D01*
X101884060Y-53904380D02*
X101884060Y-54602880D01*
X101884060Y-52903620D02*
X101884060Y-52205120D01*
X100415940Y-53904380D02*
X100415940Y-54602880D01*
X100415940Y-52205120D02*
X100415940Y-52903620D01*
X100413400Y-54643520D02*
X101886600Y-54643520D01*
X101886600Y-52164480D02*
X100413400Y-52164480D01*
X65290620Y-48593060D02*
X64592120Y-48593060D01*
X66291380Y-48593060D02*
X66989880Y-48593060D01*
X65290620Y-47124940D02*
X64592120Y-47124940D01*
X66989880Y-47124940D02*
X66291380Y-47124940D01*
X64551480Y-47122400D02*
X64551480Y-48595600D01*
X67030520Y-48595600D02*
X67030520Y-47122400D01*
X67072940Y-50431620D02*
X67072940Y-49733120D01*
X67072940Y-51432380D02*
X67072940Y-52130880D01*
X68541060Y-50431620D02*
X68541060Y-49733120D01*
X68541060Y-52130880D02*
X68541060Y-51432380D01*
X68543600Y-49692480D02*
X67070400Y-49692480D01*
X67070400Y-52171520D02*
X68543600Y-52171520D01*
X85065940Y-42199620D02*
X85065940Y-41501120D01*
X85065940Y-43200380D02*
X85065940Y-43898880D01*
X86534060Y-42199620D02*
X86534060Y-41501120D01*
X86534060Y-43898880D02*
X86534060Y-43200380D01*
X86536600Y-41460480D02*
X85063400Y-41460480D01*
X85063400Y-43939520D02*
X86536600Y-43939520D01*
X69669660Y-38193980D02*
X69669660Y-38892480D01*
X69669660Y-37193220D02*
X69669660Y-36494720D01*
X68201540Y-38193980D02*
X68201540Y-38892480D01*
X68201540Y-36494720D02*
X68201540Y-37193220D01*
X68199000Y-38933120D02*
X69672200Y-38933120D01*
X69672200Y-36454080D02*
X68199000Y-36454080D01*
X91600020Y-55648860D02*
X90901520Y-55648860D01*
X92600780Y-55648860D02*
X93299280Y-55648860D01*
X91600020Y-54180740D02*
X90901520Y-54180740D01*
X93299280Y-54180740D02*
X92600780Y-54180740D01*
X90860880Y-54178200D02*
X90860880Y-55651400D01*
X93339920Y-55651400D02*
X93339920Y-54178200D01*
X78259620Y-56359060D02*
X77561120Y-56359060D01*
X79260380Y-56359060D02*
X79958880Y-56359060D01*
X78259620Y-54890940D02*
X77561120Y-54890940D01*
X79958880Y-54890940D02*
X79260380Y-54890940D01*
X77520480Y-54888400D02*
X77520480Y-56361600D01*
X79999520Y-56361600D02*
X79999520Y-54888400D01*
X73185020Y-56364060D02*
X72486520Y-56364060D01*
X74185780Y-56364060D02*
X74884280Y-56364060D01*
X73185020Y-54895940D02*
X72486520Y-54895940D01*
X74884280Y-54895940D02*
X74185780Y-54895940D01*
X72445880Y-54893400D02*
X72445880Y-56366600D01*
X74924920Y-56366600D02*
X74924920Y-54893400D01*
X73967620Y-63124660D02*
X73269120Y-63124660D01*
X74968380Y-63124660D02*
X75666880Y-63124660D01*
X73967620Y-61656540D02*
X73269120Y-61656540D01*
X75666880Y-61656540D02*
X74968380Y-61656540D01*
X73228480Y-61654000D02*
X73228480Y-63127200D01*
X75707520Y-63127200D02*
X75707520Y-61654000D01*
X91701620Y-62430660D02*
X91003120Y-62430660D01*
X92702380Y-62430660D02*
X93400880Y-62430660D01*
X91701620Y-60962540D02*
X91003120Y-60962540D01*
X93400880Y-60962540D02*
X92702380Y-60962540D01*
X90962480Y-60960000D02*
X90962480Y-62433200D01*
X93441520Y-62433200D02*
X93441520Y-60960000D01*
X78596620Y-63129660D02*
X77898120Y-63129660D01*
X79597380Y-63129660D02*
X80295880Y-63129660D01*
X78596620Y-61661540D02*
X77898120Y-61661540D01*
X80295880Y-61661540D02*
X79597380Y-61661540D01*
X77857480Y-61659000D02*
X77857480Y-63132200D01*
X80336520Y-63132200D02*
X80336520Y-61659000D01*
X112058220Y-56334660D02*
X111359720Y-56334660D01*
X113058980Y-56334660D02*
X113757480Y-56334660D01*
X112058220Y-54866540D02*
X111359720Y-54866540D01*
X113757480Y-54866540D02*
X113058980Y-54866540D01*
X111319080Y-54864000D02*
X111319080Y-56337200D01*
X113798120Y-56337200D02*
X113798120Y-54864000D01*
X102499620Y-56334060D02*
X101801120Y-56334060D01*
X103500380Y-56334060D02*
X104198880Y-56334060D01*
X102499620Y-54865940D02*
X101801120Y-54865940D01*
X104198880Y-54865940D02*
X103500380Y-54865940D01*
X101760480Y-54863400D02*
X101760480Y-56336600D01*
X104239520Y-56336600D02*
X104239520Y-54863400D01*
X112666620Y-63045060D02*
X111968120Y-63045060D01*
X113667380Y-63045060D02*
X114365880Y-63045060D01*
X112666620Y-61576940D02*
X111968120Y-61576940D01*
X114365880Y-61576940D02*
X113667380Y-61576940D01*
X111927480Y-61574400D02*
X111927480Y-63047600D01*
X114406520Y-63047600D02*
X114406520Y-61574400D01*
X103060620Y-63050060D02*
X102362120Y-63050060D01*
X104061380Y-63050060D02*
X104759880Y-63050060D01*
X103060620Y-61581940D02*
X102362120Y-61581940D01*
X104759880Y-61581940D02*
X104061380Y-61581940D01*
X102321480Y-61579400D02*
X102321480Y-63052600D01*
X104800520Y-63052600D02*
X104800520Y-61579400D01*
X111599620Y-39234060D02*
X110901120Y-39234060D01*
X112600380Y-39234060D02*
X113298880Y-39234060D01*
X111599620Y-37765940D02*
X110901120Y-37765940D01*
X113298880Y-37765940D02*
X112600380Y-37765940D01*
X110860480Y-37763400D02*
X110860480Y-39236600D01*
X113339520Y-39236600D02*
X113339520Y-37763400D01*
X112000380Y-39465940D02*
X112698880Y-39465940D01*
X110999620Y-39465940D02*
X110301120Y-39465940D01*
X112000380Y-40934060D02*
X112698880Y-40934060D01*
X110301120Y-40934060D02*
X110999620Y-40934060D01*
X112739520Y-40936600D02*
X112739520Y-39463400D01*
X110260480Y-39463400D02*
X110260480Y-40936600D01*
X105999620Y-40934060D02*
X105301120Y-40934060D01*
X107000380Y-40934060D02*
X107698880Y-40934060D01*
X105999620Y-39465940D02*
X105301120Y-39465940D01*
X107698880Y-39465940D02*
X107000380Y-39465940D01*
X105260480Y-39463400D02*
X105260480Y-40936600D01*
X107739520Y-40936600D02*
X107739520Y-39463400D01*
X107000380Y-37765940D02*
X107698880Y-37765940D01*
X105999620Y-37765940D02*
X105301120Y-37765940D01*
X107000380Y-39234060D02*
X107698880Y-39234060D01*
X105301120Y-39234060D02*
X105999620Y-39234060D01*
X107739520Y-39236600D02*
X107739520Y-37763400D01*
X105260480Y-37763400D02*
X105260480Y-39236600D01*
X100334060Y-43100380D02*
X100334060Y-43798880D01*
X100334060Y-42099620D02*
X100334060Y-41401120D01*
X98865940Y-43100380D02*
X98865940Y-43798880D01*
X98865940Y-41401120D02*
X98865940Y-42099620D01*
X98863400Y-43839520D02*
X100336600Y-43839520D01*
X100336600Y-41360480D02*
X98863400Y-41360480D01*
X114265940Y-44099620D02*
X114265940Y-43401120D01*
X114265940Y-45100380D02*
X114265940Y-45798880D01*
X115734060Y-44099620D02*
X115734060Y-43401120D01*
X115734060Y-45798880D02*
X115734060Y-45100380D01*
X115736600Y-43360480D02*
X114263400Y-43360480D01*
X114263400Y-45839520D02*
X115736600Y-45839520D01*
X98765940Y-47199620D02*
X98765940Y-46501120D01*
X98765940Y-48200380D02*
X98765940Y-48898880D01*
X100234060Y-47199620D02*
X100234060Y-46501120D01*
X100234060Y-48898880D02*
X100234060Y-48200380D01*
X100236600Y-46460480D02*
X98763400Y-46460480D01*
X98763400Y-48939520D02*
X100236600Y-48939520D01*
X114265940Y-46799620D02*
X114265940Y-46101120D01*
X114265940Y-47800380D02*
X114265940Y-48498880D01*
X115734060Y-46799620D02*
X115734060Y-46101120D01*
X115734060Y-48498880D02*
X115734060Y-47800380D01*
X115736600Y-46060480D02*
X114263400Y-46060480D01*
X114263400Y-48539520D02*
X115736600Y-48539520D01*
X114265940Y-49699620D02*
X114265940Y-49001120D01*
X114265940Y-50700380D02*
X114265940Y-51398880D01*
X115734060Y-49699620D02*
X115734060Y-49001120D01*
X115734060Y-51398880D02*
X115734060Y-50700380D01*
X115736600Y-48960480D02*
X114263400Y-48960480D01*
X114263400Y-51439520D02*
X115736600Y-51439520D01*
X100334060Y-54100380D02*
X100334060Y-54798880D01*
X100334060Y-53099620D02*
X100334060Y-52401120D01*
X98865940Y-54100380D02*
X98865940Y-54798880D01*
X98865940Y-52401120D02*
X98865940Y-53099620D01*
X98863400Y-54839520D02*
X100336600Y-54839520D01*
X100336600Y-52360480D02*
X98863400Y-52360480D01*
X115734060Y-54200380D02*
X115734060Y-54898880D01*
X115734060Y-53199620D02*
X115734060Y-52501120D01*
X114265940Y-54200380D02*
X114265940Y-54898880D01*
X114265940Y-52501120D02*
X114265940Y-53199620D01*
X114263400Y-54939520D02*
X115736600Y-54939520D01*
X115736600Y-52460480D02*
X114263400Y-52460480D01*
X107099620Y-58034060D02*
X106401120Y-58034060D01*
X108100380Y-58034060D02*
X108798880Y-58034060D01*
X107099620Y-56565940D02*
X106401120Y-56565940D01*
X108798880Y-56565940D02*
X108100380Y-56565940D01*
X106360480Y-56563400D02*
X106360480Y-58036600D01*
X108839520Y-58036600D02*
X108839520Y-56563400D01*
X105999620Y-56334060D02*
X105301120Y-56334060D01*
X107000380Y-56334060D02*
X107698880Y-56334060D01*
X105999620Y-54865940D02*
X105301120Y-54865940D01*
X107698880Y-54865940D02*
X107000380Y-54865940D01*
X105260480Y-54863400D02*
X105260480Y-56336600D01*
X107739520Y-56336600D02*
X107739520Y-54863400D01*
X71500380Y-54895940D02*
X72198880Y-54895940D01*
X70499620Y-54895940D02*
X69801120Y-54895940D01*
X71500380Y-56364060D02*
X72198880Y-56364060D01*
X69801120Y-56364060D02*
X70499620Y-56364060D01*
X72239520Y-56366600D02*
X72239520Y-54893400D01*
X69760480Y-54893400D02*
X69760480Y-56366600D01*
X76719380Y-54890940D02*
X77417880Y-54890940D01*
X75718620Y-54890940D02*
X75020120Y-54890940D01*
X76719380Y-56359060D02*
X77417880Y-56359060D01*
X75020120Y-56359060D02*
X75718620Y-56359060D01*
X77458520Y-56361600D02*
X77458520Y-54888400D01*
X74979480Y-54888400D02*
X74979480Y-56361600D01*
X81587620Y-56355060D02*
X80889120Y-56355060D01*
X82588380Y-56355060D02*
X83286880Y-56355060D01*
X81587620Y-54886940D02*
X80889120Y-54886940D01*
X83286880Y-54886940D02*
X82588380Y-54886940D01*
X80848480Y-54884400D02*
X80848480Y-56357600D01*
X83327520Y-56357600D02*
X83327520Y-54884400D01*
X67899620Y-56434060D02*
X67201120Y-56434060D01*
X68900380Y-56434060D02*
X69598880Y-56434060D01*
X67899620Y-54965940D02*
X67201120Y-54965940D01*
X69598880Y-54965940D02*
X68900380Y-54965940D01*
X67160480Y-54963400D02*
X67160480Y-56436600D01*
X69639520Y-56436600D02*
X69639520Y-54963400D01*
X73300380Y-52365940D02*
X73998880Y-52365940D01*
X72299620Y-52365940D02*
X71601120Y-52365940D01*
X73300380Y-53834060D02*
X73998880Y-53834060D01*
X71601120Y-53834060D02*
X72299620Y-53834060D01*
X74039520Y-53836600D02*
X74039520Y-52363400D01*
X71560480Y-52363400D02*
X71560480Y-53836600D01*
X79800380Y-52365940D02*
X80498880Y-52365940D01*
X78799620Y-52365940D02*
X78101120Y-52365940D01*
X79800380Y-53834060D02*
X80498880Y-53834060D01*
X78101120Y-53834060D02*
X78799620Y-53834060D01*
X80539520Y-53836600D02*
X80539520Y-52363400D01*
X78060480Y-52363400D02*
X78060480Y-53836600D01*
X86600380Y-54965940D02*
X87298880Y-54965940D01*
X85599620Y-54965940D02*
X84901120Y-54965940D01*
X86600380Y-56434060D02*
X87298880Y-56434060D01*
X84901120Y-56434060D02*
X85599620Y-56434060D01*
X87339520Y-56436600D02*
X87339520Y-54963400D01*
X84860480Y-54963400D02*
X84860480Y-56436600D01*
X65565940Y-50599620D02*
X65565940Y-49901120D01*
X65565940Y-51600380D02*
X65565940Y-52298880D01*
X67034060Y-50599620D02*
X67034060Y-49901120D01*
X67034060Y-52298880D02*
X67034060Y-51600380D01*
X67036600Y-49860480D02*
X65563400Y-49860480D01*
X65563400Y-52339520D02*
X67036600Y-52339520D01*
X87565940Y-48499620D02*
X87565940Y-47801120D01*
X87565940Y-49500380D02*
X87565940Y-50198880D01*
X89034060Y-48499620D02*
X89034060Y-47801120D01*
X89034060Y-50198880D02*
X89034060Y-49500380D01*
X89036600Y-47760480D02*
X87563400Y-47760480D01*
X87563400Y-50239520D02*
X89036600Y-50239520D01*
X85065940Y-48399620D02*
X85065940Y-47701120D01*
X85065940Y-49400380D02*
X85065940Y-50098880D01*
X86534060Y-48399620D02*
X86534060Y-47701120D01*
X86534060Y-50098880D02*
X86534060Y-49400380D01*
X86536600Y-47660480D02*
X85063400Y-47660480D01*
X85063400Y-50139520D02*
X86536600Y-50139520D01*
X87565940Y-44499620D02*
X87565940Y-43801120D01*
X87565940Y-45500380D02*
X87565940Y-46198880D01*
X89034060Y-44499620D02*
X89034060Y-43801120D01*
X89034060Y-46198880D02*
X89034060Y-45500380D01*
X89036600Y-43760480D02*
X87563400Y-43760480D01*
X87563400Y-46239520D02*
X89036600Y-46239520D01*
X69258060Y-47058380D02*
X69258060Y-47756880D01*
X69258060Y-46057620D02*
X69258060Y-45359120D01*
X67789940Y-47058380D02*
X67789940Y-47756880D01*
X67789940Y-45359120D02*
X67789940Y-46057620D01*
X67787400Y-47797520D02*
X69260600Y-47797520D01*
X69260600Y-45318480D02*
X67787400Y-45318480D01*
X65565940Y-38699620D02*
X65565940Y-38001120D01*
X65565940Y-39700380D02*
X65565940Y-40398880D01*
X67034060Y-38699620D02*
X67034060Y-38001120D01*
X67034060Y-40398880D02*
X67034060Y-39700380D01*
X67036600Y-37960480D02*
X65563400Y-37960480D01*
X65563400Y-40439520D02*
X67036600Y-40439520D01*
X87565940Y-37899620D02*
X87565940Y-37201120D01*
X87565940Y-38900380D02*
X87565940Y-39598880D01*
X89034060Y-37899620D02*
X89034060Y-37201120D01*
X89034060Y-39598880D02*
X89034060Y-38900380D01*
X89036600Y-37160480D02*
X87563400Y-37160480D01*
X87563400Y-39639520D02*
X89036600Y-39639520D01*
X67034060Y-37100380D02*
X67034060Y-37798880D01*
X67034060Y-36099620D02*
X67034060Y-35401120D01*
X65565940Y-37100380D02*
X65565940Y-37798880D01*
X65565940Y-35401120D02*
X65565940Y-36099620D01*
X65563400Y-37839520D02*
X67036600Y-37839520D01*
X67036600Y-35360480D02*
X65563400Y-35360480D01*
X72799620Y-36834060D02*
X72101120Y-36834060D01*
X73800380Y-36834060D02*
X74498880Y-36834060D01*
X72799620Y-35365940D02*
X72101120Y-35365940D01*
X74498880Y-35365940D02*
X73800380Y-35365940D01*
X72060480Y-35363400D02*
X72060480Y-36836600D01*
X74539520Y-36836600D02*
X74539520Y-35363400D01*
X85051940Y-33505620D02*
X85051940Y-32807120D01*
X85051940Y-34506380D02*
X85051940Y-35204880D01*
X86520060Y-33505620D02*
X86520060Y-32807120D01*
X86520060Y-35204880D02*
X86520060Y-34506380D01*
X86522600Y-32766480D02*
X85049400Y-32766480D01*
X85049400Y-35245520D02*
X86522600Y-35245520D01*
X68600620Y-34798060D02*
X67902120Y-34798060D01*
X69601380Y-34798060D02*
X70299880Y-34798060D01*
X68600620Y-33329940D02*
X67902120Y-33329940D01*
X70299880Y-33329940D02*
X69601380Y-33329940D01*
X67861480Y-33327400D02*
X67861480Y-34800600D01*
X70340520Y-34800600D02*
X70340520Y-33327400D01*
X73100380Y-33326940D02*
X73798880Y-33326940D01*
X72099620Y-33326940D02*
X71401120Y-33326940D01*
X73100380Y-34795060D02*
X73798880Y-34795060D01*
X71401120Y-34795060D02*
X72099620Y-34795060D01*
X73839520Y-34797600D02*
X73839520Y-33324400D01*
X71360480Y-33324400D02*
X71360480Y-34797600D01*
X75999620Y-36834060D02*
X75301120Y-36834060D01*
X77000380Y-36834060D02*
X77698880Y-36834060D01*
X75999620Y-35365940D02*
X75301120Y-35365940D01*
X77698880Y-35365940D02*
X77000380Y-35365940D01*
X75260480Y-35363400D02*
X75260480Y-36836600D01*
X77739520Y-36836600D02*
X77739520Y-35363400D01*
X83380940Y-33510620D02*
X83380940Y-32812120D01*
X83380940Y-34511380D02*
X83380940Y-35209880D01*
X84849060Y-33510620D02*
X84849060Y-32812120D01*
X84849060Y-35209880D02*
X84849060Y-34511380D01*
X84851600Y-32771480D02*
X83378400Y-32771480D01*
X83378400Y-35250520D02*
X84851600Y-35250520D01*
D10*
X94000754Y-28139760D02*
G75*
G03X94000754Y-28139760I-378554J0D01*
G01*
X94465300Y-27434200D02*
X94465300Y-27579200D01*
X90315300Y-27434200D02*
X90315300Y-27579200D01*
X90315300Y-32584200D02*
X90315300Y-32439200D01*
X94465300Y-32584200D02*
X94465300Y-32439200D01*
X94465300Y-27434200D02*
X90315300Y-27434200D01*
X94465300Y-32584200D02*
X90315300Y-32584200D01*
X94465300Y-27579200D02*
X95865300Y-27579200D01*
D11*
X45671940Y-67035620D02*
X45671940Y-66337120D01*
X45671940Y-68036380D02*
X45671940Y-68734880D01*
X47140060Y-67035620D02*
X47140060Y-66337120D01*
X47140060Y-68734880D02*
X47140060Y-68036380D01*
X47142600Y-66296480D02*
X45669400Y-66296480D01*
X45669400Y-68775520D02*
X47142600Y-68775520D01*
X106875380Y-66732940D02*
X107573880Y-66732940D01*
X105874620Y-66732940D02*
X105176120Y-66732940D01*
X106875380Y-68201060D02*
X107573880Y-68201060D01*
X105176120Y-68201060D02*
X105874620Y-68201060D01*
X107614520Y-68203600D02*
X107614520Y-66730400D01*
X105135480Y-66730400D02*
X105135480Y-68203600D01*
X47106060Y-63742380D02*
X47106060Y-64440880D01*
X47106060Y-62741620D02*
X47106060Y-62043120D01*
X45637940Y-63742380D02*
X45637940Y-64440880D01*
X45637940Y-62043120D02*
X45637940Y-62741620D01*
X45635400Y-64481520D02*
X47108600Y-64481520D01*
X47108600Y-62002480D02*
X45635400Y-62002480D01*
X106850620Y-61164060D02*
X106152120Y-61164060D01*
X107851380Y-61164060D02*
X108549880Y-61164060D01*
X106850620Y-59695940D02*
X106152120Y-59695940D01*
X108549880Y-59695940D02*
X107851380Y-59695940D01*
X106111480Y-59693400D02*
X106111480Y-61166600D01*
X108590520Y-61166600D02*
X108590520Y-59693400D01*
X67789940Y-43416620D02*
X67789940Y-42718120D01*
X67789940Y-44417380D02*
X67789940Y-45115880D01*
X69258060Y-43416620D02*
X69258060Y-42718120D01*
X69258060Y-45115880D02*
X69258060Y-44417380D01*
X69260600Y-42677480D02*
X67787400Y-42677480D01*
X67787400Y-45156520D02*
X69260600Y-45156520D01*
D10*
X54488180Y-61984740D02*
X54488180Y-62033000D01*
X53797300Y-68421000D02*
X54498340Y-68421000D01*
X54498340Y-68421000D02*
X54498340Y-68172080D01*
X54488180Y-61984740D02*
X54488180Y-61784080D01*
X54488180Y-61784080D02*
X53787140Y-61784080D01*
X108945000Y-64217000D02*
G75*
G03X108945000Y-64217000I-100000J0D01*
G01*
X108595000Y-63667000D02*
X108595000Y-64167000D01*
X105695000Y-63667000D02*
X108595000Y-63667000D01*
X105695000Y-64167000D02*
X105695000Y-63667000D01*
X108595000Y-64167000D02*
X105695000Y-64167000D01*
D11*
X49094620Y-56444060D02*
X48396120Y-56444060D01*
X50095380Y-56444060D02*
X50793880Y-56444060D01*
X49094620Y-54975940D02*
X48396120Y-54975940D01*
X50793880Y-54975940D02*
X50095380Y-54975940D01*
X48355480Y-54973400D02*
X48355480Y-56446600D01*
X50834520Y-56446600D02*
X50834520Y-54973400D01*
X56400380Y-45513940D02*
X57098880Y-45513940D01*
X55399620Y-45513940D02*
X54701120Y-45513940D01*
X56400380Y-46982060D02*
X57098880Y-46982060D01*
X54701120Y-46982060D02*
X55399620Y-46982060D01*
X57139520Y-46984600D02*
X57139520Y-45511400D01*
X54660480Y-45511400D02*
X54660480Y-46984600D01*
D10*
X50433538Y-53383080D02*
G75*
G03X50433538Y-53383080I-339838J0D01*
G01*
X49507000Y-47336000D02*
X53957000Y-47336000D01*
X47982000Y-54086000D02*
X53957000Y-54086000D01*
D11*
X44017940Y-67035620D02*
X44017940Y-66337120D01*
X44017940Y-68036380D02*
X44017940Y-68734880D01*
X45486060Y-67035620D02*
X45486060Y-66337120D01*
X45486060Y-68734880D02*
X45486060Y-68036380D01*
X45488600Y-66296480D02*
X44015400Y-66296480D01*
X44015400Y-68775520D02*
X45488600Y-68775520D01*
D10*
X42893000Y-66616000D02*
X42893000Y-66366000D01*
X42893000Y-67116000D02*
X42893000Y-67366000D01*
X42893000Y-67116000D02*
X43243000Y-66616000D01*
X43243000Y-66616000D02*
X42543000Y-66616000D01*
X42543000Y-66616000D02*
X42893000Y-67116000D01*
X43243000Y-67116000D02*
X42543000Y-67116000D01*
X42093000Y-68166000D02*
X42093000Y-65766000D01*
X43693000Y-68166000D02*
X43693000Y-65766000D01*
X50107000Y-45516000D02*
X50107000Y-45391000D01*
X53357000Y-45516000D02*
X53357000Y-45291000D01*
X53357000Y-42266000D02*
X53357000Y-42491000D01*
X50107000Y-42266000D02*
X50107000Y-42491000D01*
X50107000Y-45516000D02*
X53357000Y-45516000D01*
X50107000Y-42266000D02*
X53357000Y-42266000D01*
X50107000Y-45391000D02*
X49532000Y-45391000D01*
X104796181Y-57765305D02*
X105605705Y-57765305D01*
X105700943Y-57812924D01*
X105748562Y-57860543D01*
X105796181Y-57955781D01*
X105796181Y-58146258D01*
X105748562Y-58241496D01*
X105700943Y-58289115D01*
X105605705Y-58336734D01*
X104796181Y-58336734D01*
X105796181Y-59336734D02*
X105796181Y-58765305D01*
X105796181Y-59051019D02*
X104796181Y-59051019D01*
X104939038Y-58955781D01*
X105034276Y-58860543D01*
X105081895Y-58765305D01*
X104796181Y-60241496D02*
X104796181Y-59765305D01*
X105272371Y-59717686D01*
X105224752Y-59765305D01*
X105177133Y-59860543D01*
X105177133Y-60098639D01*
X105224752Y-60193877D01*
X105272371Y-60241496D01*
X105367610Y-60289115D01*
X105605705Y-60289115D01*
X105700943Y-60241496D01*
X105748562Y-60193877D01*
X105796181Y-60098639D01*
X105796181Y-59860543D01*
X105748562Y-59765305D01*
X105700943Y-59717686D01*
X114392381Y-57765305D02*
X115201905Y-57765305D01*
X115297143Y-57812924D01*
X115344762Y-57860543D01*
X115392381Y-57955781D01*
X115392381Y-58146258D01*
X115344762Y-58241496D01*
X115297143Y-58289115D01*
X115201905Y-58336734D01*
X114392381Y-58336734D01*
X115392381Y-59336734D02*
X115392381Y-58765305D01*
X115392381Y-59051019D02*
X114392381Y-59051019D01*
X114535238Y-58955781D01*
X114630476Y-58860543D01*
X114678095Y-58765305D01*
X114392381Y-60193877D02*
X114392381Y-60003400D01*
X114440000Y-59908162D01*
X114487619Y-59860543D01*
X114630476Y-59765305D01*
X114820952Y-59717686D01*
X115201905Y-59717686D01*
X115297143Y-59765305D01*
X115344762Y-59812924D01*
X115392381Y-59908162D01*
X115392381Y-60098639D01*
X115344762Y-60193877D01*
X115297143Y-60241496D01*
X115201905Y-60289115D01*
X114963810Y-60289115D01*
X114868571Y-60241496D01*
X114820952Y-60193877D01*
X114773333Y-60098639D01*
X114773333Y-59908162D01*
X114820952Y-59812924D01*
X114868571Y-59765305D01*
X114963810Y-59717686D01*
X70638381Y-57751505D02*
X71447905Y-57751505D01*
X71543143Y-57799124D01*
X71590762Y-57846743D01*
X71638381Y-57941981D01*
X71638381Y-58132458D01*
X71590762Y-58227696D01*
X71543143Y-58275315D01*
X71447905Y-58322934D01*
X70638381Y-58322934D01*
X71638381Y-59322934D02*
X71638381Y-58751505D01*
X71638381Y-59037219D02*
X70638381Y-59037219D01*
X70781238Y-58941981D01*
X70876476Y-58846743D01*
X70924095Y-58751505D01*
X70733619Y-59703886D02*
X70686000Y-59751505D01*
X70638381Y-59846743D01*
X70638381Y-60084839D01*
X70686000Y-60180077D01*
X70733619Y-60227696D01*
X70828857Y-60275315D01*
X70924095Y-60275315D01*
X71066952Y-60227696D01*
X71638381Y-59656267D01*
X71638381Y-60275315D01*
X80308381Y-58464905D02*
X81117905Y-58464905D01*
X81213143Y-58512524D01*
X81260762Y-58560143D01*
X81308381Y-58655381D01*
X81308381Y-58845858D01*
X81260762Y-58941096D01*
X81213143Y-58988715D01*
X81117905Y-59036334D01*
X80308381Y-59036334D01*
X81308381Y-60036334D02*
X81308381Y-59464905D01*
X81308381Y-59750619D02*
X80308381Y-59750619D01*
X80451238Y-59655381D01*
X80546476Y-59560143D01*
X80594095Y-59464905D01*
X80308381Y-60369667D02*
X80308381Y-60988715D01*
X80689333Y-60655381D01*
X80689333Y-60798239D01*
X80736952Y-60893477D01*
X80784571Y-60941096D01*
X80879810Y-60988715D01*
X81117905Y-60988715D01*
X81213143Y-60941096D01*
X81260762Y-60893477D01*
X81308381Y-60798239D01*
X81308381Y-60512524D01*
X81260762Y-60417286D01*
X81213143Y-60369667D01*
X94036381Y-57089905D02*
X94845905Y-57089905D01*
X94941143Y-57137524D01*
X94988762Y-57185143D01*
X95036381Y-57280381D01*
X95036381Y-57470858D01*
X94988762Y-57566096D01*
X94941143Y-57613715D01*
X94845905Y-57661334D01*
X94036381Y-57661334D01*
X95036381Y-58661334D02*
X95036381Y-58089905D01*
X95036381Y-58375619D02*
X94036381Y-58375619D01*
X94179238Y-58280381D01*
X94274476Y-58185143D01*
X94322095Y-58089905D01*
X94369714Y-59518477D02*
X95036381Y-59518477D01*
X93988762Y-59280381D02*
X94703048Y-59042286D01*
X94703048Y-59661334D01*
D12*
X111177271Y-45387667D02*
X111177271Y-45218333D01*
X111483281Y-45218333D02*
X110899081Y-45218333D01*
X110899081Y-45460238D01*
X111177271Y-45823096D02*
X111205090Y-45895667D01*
X111232910Y-45919858D01*
X111288548Y-45944048D01*
X111372005Y-45944048D01*
X111427643Y-45919858D01*
X111455462Y-45895667D01*
X111483281Y-45847286D01*
X111483281Y-45653762D01*
X110899081Y-45653762D01*
X110899081Y-45823096D01*
X110926900Y-45871477D01*
X110954719Y-45895667D01*
X111010357Y-45919858D01*
X111065995Y-45919858D01*
X111121633Y-45895667D01*
X111149452Y-45871477D01*
X111177271Y-45823096D01*
X111177271Y-45653762D01*
X111093814Y-46379477D02*
X111483281Y-46379477D01*
X110871262Y-46258524D02*
X111288548Y-46137572D01*
X111288548Y-46452048D01*
X111169271Y-50983667D02*
X111169271Y-50814333D01*
X111475281Y-50814333D02*
X110891081Y-50814333D01*
X110891081Y-51056238D01*
X111169271Y-51419096D02*
X111197090Y-51491667D01*
X111224910Y-51515858D01*
X111280548Y-51540048D01*
X111364005Y-51540048D01*
X111419643Y-51515858D01*
X111447462Y-51491667D01*
X111475281Y-51443286D01*
X111475281Y-51249762D01*
X110891081Y-51249762D01*
X110891081Y-51419096D01*
X110918900Y-51467477D01*
X110946719Y-51491667D01*
X111002357Y-51515858D01*
X111057995Y-51515858D01*
X111113633Y-51491667D01*
X111141452Y-51467477D01*
X111169271Y-51419096D01*
X111169271Y-51249762D01*
X110946719Y-51733572D02*
X110918900Y-51757762D01*
X110891081Y-51806143D01*
X110891081Y-51927096D01*
X110918900Y-51975477D01*
X110946719Y-51999667D01*
X111002357Y-52023858D01*
X111057995Y-52023858D01*
X111141452Y-51999667D01*
X111475281Y-51709381D01*
X111475281Y-52023858D01*
X111172271Y-52797667D02*
X111172271Y-52628333D01*
X111478281Y-52628333D02*
X110894081Y-52628333D01*
X110894081Y-52870238D01*
X111172271Y-53233096D02*
X111200090Y-53305667D01*
X111227910Y-53329858D01*
X111283548Y-53354048D01*
X111367005Y-53354048D01*
X111422643Y-53329858D01*
X111450462Y-53305667D01*
X111478281Y-53257286D01*
X111478281Y-53063762D01*
X110894081Y-53063762D01*
X110894081Y-53233096D01*
X110921900Y-53281477D01*
X110949719Y-53305667D01*
X111005357Y-53329858D01*
X111060995Y-53329858D01*
X111116633Y-53305667D01*
X111144452Y-53281477D01*
X111172271Y-53233096D01*
X111172271Y-53063762D01*
X111478281Y-53837858D02*
X111478281Y-53547572D01*
X111478281Y-53692715D02*
X110894081Y-53692715D01*
X110977538Y-53644334D01*
X111033176Y-53595953D01*
X111060995Y-53547572D01*
X116281281Y-39856428D02*
X116003090Y-39687095D01*
X116281281Y-39566142D02*
X115697081Y-39566142D01*
X115697081Y-39759666D01*
X115724900Y-39808047D01*
X115752719Y-39832238D01*
X115808357Y-39856428D01*
X115891814Y-39856428D01*
X115947452Y-39832238D01*
X115975271Y-39808047D01*
X116003090Y-39759666D01*
X116003090Y-39566142D01*
X115752719Y-40049952D02*
X115724900Y-40074142D01*
X115697081Y-40122523D01*
X115697081Y-40243476D01*
X115724900Y-40291857D01*
X115752719Y-40316047D01*
X115808357Y-40340238D01*
X115863995Y-40340238D01*
X115947452Y-40316047D01*
X116281281Y-40025761D01*
X116281281Y-40340238D01*
X115697081Y-40775667D02*
X115697081Y-40678905D01*
X115724900Y-40630524D01*
X115752719Y-40606333D01*
X115836176Y-40557952D01*
X115947452Y-40533762D01*
X116170005Y-40533762D01*
X116225643Y-40557952D01*
X116253462Y-40582143D01*
X116281281Y-40630524D01*
X116281281Y-40727286D01*
X116253462Y-40775667D01*
X116225643Y-40799857D01*
X116170005Y-40824048D01*
X116030910Y-40824048D01*
X115975271Y-40799857D01*
X115947452Y-40775667D01*
X115919633Y-40727286D01*
X115919633Y-40630524D01*
X115947452Y-40582143D01*
X115975271Y-40557952D01*
X116030910Y-40533762D01*
D13*
X114429810Y-40145572D02*
X114429810Y-39884315D01*
X114429810Y-40014943D02*
X113921810Y-40014943D01*
X113994381Y-39971400D01*
X114042762Y-39927858D01*
X114066952Y-39884315D01*
X114429810Y-40341515D02*
X113921810Y-40341515D01*
X114236286Y-40385058D02*
X114429810Y-40515687D01*
X114091143Y-40515687D02*
X114284667Y-40341515D01*
D12*
X98012772Y-31899081D02*
X98182105Y-31620890D01*
X98303058Y-31899081D02*
X98303058Y-31314881D01*
X98109534Y-31314881D01*
X98061153Y-31342700D01*
X98036962Y-31370519D01*
X98012772Y-31426157D01*
X98012772Y-31509614D01*
X98036962Y-31565252D01*
X98061153Y-31593071D01*
X98109534Y-31620890D01*
X98303058Y-31620890D01*
X97819248Y-31370519D02*
X97795058Y-31342700D01*
X97746677Y-31314881D01*
X97625724Y-31314881D01*
X97577343Y-31342700D01*
X97553153Y-31370519D01*
X97528962Y-31426157D01*
X97528962Y-31481795D01*
X97553153Y-31565252D01*
X97843439Y-31899081D01*
X97528962Y-31899081D01*
X97093533Y-31509614D02*
X97093533Y-31899081D01*
X97214486Y-31287062D02*
X97335438Y-31704348D01*
X97020962Y-31704348D01*
D13*
X98110743Y-29747943D02*
X98110743Y-30086610D01*
X98219600Y-29554419D02*
X98328457Y-29917276D01*
X98045429Y-29917276D01*
X97871257Y-30038229D02*
X97849485Y-30062419D01*
X97871257Y-30086610D01*
X97893028Y-30062419D01*
X97871257Y-30038229D01*
X97871257Y-30086610D01*
X97697086Y-29578610D02*
X97392286Y-29578610D01*
X97588229Y-30086610D01*
X97218114Y-30086610D02*
X97218114Y-29578610D01*
X97174571Y-29893086D02*
X97043942Y-30086610D01*
X97043942Y-29747943D02*
X97218114Y-29941467D01*
D12*
X79442572Y-34391281D02*
X79611905Y-34113090D01*
X79732858Y-34391281D02*
X79732858Y-33807081D01*
X79539334Y-33807081D01*
X79490953Y-33834900D01*
X79466762Y-33862719D01*
X79442572Y-33918357D01*
X79442572Y-34001814D01*
X79466762Y-34057452D01*
X79490953Y-34085271D01*
X79539334Y-34113090D01*
X79732858Y-34113090D01*
X79249048Y-33862719D02*
X79224858Y-33834900D01*
X79176477Y-33807081D01*
X79055524Y-33807081D01*
X79007143Y-33834900D01*
X78982953Y-33862719D01*
X78958762Y-33918357D01*
X78958762Y-33973995D01*
X78982953Y-34057452D01*
X79273239Y-34391281D01*
X78958762Y-34391281D01*
X78765238Y-33862719D02*
X78741048Y-33834900D01*
X78692667Y-33807081D01*
X78571714Y-33807081D01*
X78523333Y-33834900D01*
X78499143Y-33862719D01*
X78474952Y-33918357D01*
X78474952Y-33973995D01*
X78499143Y-34057452D01*
X78789429Y-34391281D01*
X78474952Y-34391281D01*
D13*
X79388143Y-32578810D02*
X79649400Y-32578810D01*
X79518772Y-32578810D02*
X79518772Y-32070810D01*
X79562315Y-32143381D01*
X79605857Y-32191762D01*
X79649400Y-32215952D01*
X79105114Y-32070810D02*
X79061571Y-32070810D01*
X79018028Y-32095000D01*
X78996257Y-32119190D01*
X78974486Y-32167571D01*
X78952714Y-32264333D01*
X78952714Y-32385286D01*
X78974486Y-32482048D01*
X78996257Y-32530429D01*
X79018028Y-32554619D01*
X79061571Y-32578810D01*
X79105114Y-32578810D01*
X79148657Y-32554619D01*
X79170428Y-32530429D01*
X79192200Y-32482048D01*
X79213971Y-32385286D01*
X79213971Y-32264333D01*
X79192200Y-32167571D01*
X79170428Y-32119190D01*
X79148657Y-32095000D01*
X79105114Y-32070810D01*
X78756771Y-32578810D02*
X78756771Y-32070810D01*
X78713228Y-32385286D02*
X78582599Y-32578810D01*
X78582599Y-32240143D02*
X78756771Y-32433667D01*
D12*
X77893572Y-34391281D02*
X78062905Y-34113090D01*
X78183858Y-34391281D02*
X78183858Y-33807081D01*
X77990334Y-33807081D01*
X77941953Y-33834900D01*
X77917762Y-33862719D01*
X77893572Y-33918357D01*
X77893572Y-34001814D01*
X77917762Y-34057452D01*
X77941953Y-34085271D01*
X77990334Y-34113090D01*
X78183858Y-34113090D01*
X77700048Y-33862719D02*
X77675858Y-33834900D01*
X77627477Y-33807081D01*
X77506524Y-33807081D01*
X77458143Y-33834900D01*
X77433953Y-33862719D01*
X77409762Y-33918357D01*
X77409762Y-33973995D01*
X77433953Y-34057452D01*
X77724239Y-34391281D01*
X77409762Y-34391281D01*
X76925952Y-34391281D02*
X77216238Y-34391281D01*
X77071095Y-34391281D02*
X77071095Y-33807081D01*
X77119476Y-33890538D01*
X77167857Y-33946176D01*
X77216238Y-33973995D01*
D13*
X77839143Y-32578810D02*
X78100400Y-32578810D01*
X77969772Y-32578810D02*
X77969772Y-32070810D01*
X78013315Y-32143381D01*
X78056857Y-32191762D01*
X78100400Y-32215952D01*
X77556114Y-32070810D02*
X77512571Y-32070810D01*
X77469028Y-32095000D01*
X77447257Y-32119190D01*
X77425486Y-32167571D01*
X77403714Y-32264333D01*
X77403714Y-32385286D01*
X77425486Y-32482048D01*
X77447257Y-32530429D01*
X77469028Y-32554619D01*
X77512571Y-32578810D01*
X77556114Y-32578810D01*
X77599657Y-32554619D01*
X77621428Y-32530429D01*
X77643200Y-32482048D01*
X77664971Y-32385286D01*
X77664971Y-32264333D01*
X77643200Y-32167571D01*
X77621428Y-32119190D01*
X77599657Y-32095000D01*
X77556114Y-32070810D01*
X77207771Y-32578810D02*
X77207771Y-32070810D01*
X77164228Y-32385286D02*
X77033599Y-32578810D01*
X77033599Y-32240143D02*
X77207771Y-32433667D01*
D12*
X114199572Y-32827281D02*
X114368905Y-32549090D01*
X114489858Y-32827281D02*
X114489858Y-32243081D01*
X114296334Y-32243081D01*
X114247953Y-32270900D01*
X114223762Y-32298719D01*
X114199572Y-32354357D01*
X114199572Y-32437814D01*
X114223762Y-32493452D01*
X114247953Y-32521271D01*
X114296334Y-32549090D01*
X114489858Y-32549090D01*
X114006048Y-32298719D02*
X113981858Y-32270900D01*
X113933477Y-32243081D01*
X113812524Y-32243081D01*
X113764143Y-32270900D01*
X113739953Y-32298719D01*
X113715762Y-32354357D01*
X113715762Y-32409995D01*
X113739953Y-32493452D01*
X114030239Y-32827281D01*
X113715762Y-32827281D01*
X113401286Y-32243081D02*
X113352905Y-32243081D01*
X113304524Y-32270900D01*
X113280333Y-32298719D01*
X113256143Y-32354357D01*
X113231952Y-32465633D01*
X113231952Y-32604729D01*
X113256143Y-32716005D01*
X113280333Y-32771643D01*
X113304524Y-32799462D01*
X113352905Y-32827281D01*
X113401286Y-32827281D01*
X113449667Y-32799462D01*
X113473857Y-32771643D01*
X113498048Y-32716005D01*
X113522238Y-32604729D01*
X113522238Y-32465633D01*
X113498048Y-32354357D01*
X113473857Y-32298719D01*
X113449667Y-32270900D01*
X113401286Y-32243081D01*
D13*
X113927428Y-31014810D02*
X114188685Y-31014810D01*
X114058057Y-31014810D02*
X114058057Y-30506810D01*
X114101600Y-30579381D01*
X114145142Y-30627762D01*
X114188685Y-30651952D01*
X113731485Y-31014810D02*
X113731485Y-30506810D01*
X113687942Y-30821286D02*
X113557313Y-31014810D01*
X113557313Y-30676143D02*
X113731485Y-30869667D01*
D12*
X87370172Y-30908481D02*
X87539505Y-30630290D01*
X87660458Y-30908481D02*
X87660458Y-30324281D01*
X87466934Y-30324281D01*
X87418553Y-30352100D01*
X87394362Y-30379919D01*
X87370172Y-30435557D01*
X87370172Y-30519014D01*
X87394362Y-30574652D01*
X87418553Y-30602471D01*
X87466934Y-30630290D01*
X87660458Y-30630290D01*
X86886362Y-30908481D02*
X87176648Y-30908481D01*
X87031505Y-30908481D02*
X87031505Y-30324281D01*
X87079886Y-30407738D01*
X87128267Y-30463376D01*
X87176648Y-30491195D01*
X86644457Y-30908481D02*
X86547695Y-30908481D01*
X86499314Y-30880662D01*
X86475124Y-30852843D01*
X86426743Y-30769386D01*
X86402552Y-30658110D01*
X86402552Y-30435557D01*
X86426743Y-30379919D01*
X86450933Y-30352100D01*
X86499314Y-30324281D01*
X86596076Y-30324281D01*
X86644457Y-30352100D01*
X86668648Y-30379919D01*
X86692838Y-30435557D01*
X86692838Y-30574652D01*
X86668648Y-30630290D01*
X86644457Y-30658110D01*
X86596076Y-30685929D01*
X86499314Y-30685929D01*
X86450933Y-30658110D01*
X86426743Y-30630290D01*
X86402552Y-30574652D01*
D13*
X87468143Y-28757343D02*
X87468143Y-29096010D01*
X87577000Y-28563819D02*
X87685857Y-28926676D01*
X87402829Y-28926676D01*
X87228657Y-29047629D02*
X87206885Y-29071819D01*
X87228657Y-29096010D01*
X87250428Y-29071819D01*
X87228657Y-29047629D01*
X87228657Y-29096010D01*
X87054486Y-28588010D02*
X86749686Y-28588010D01*
X86945629Y-29096010D01*
X86575514Y-29096010D02*
X86575514Y-28588010D01*
X86531971Y-28902486D02*
X86401342Y-29096010D01*
X86401342Y-28757343D02*
X86575514Y-28950867D01*
D12*
X75794572Y-51836281D02*
X75963905Y-51558090D01*
X76084858Y-51836281D02*
X76084858Y-51252081D01*
X75891334Y-51252081D01*
X75842953Y-51279900D01*
X75818762Y-51307719D01*
X75794572Y-51363357D01*
X75794572Y-51446814D01*
X75818762Y-51502452D01*
X75842953Y-51530271D01*
X75891334Y-51558090D01*
X76084858Y-51558090D01*
X75310762Y-51836281D02*
X75601048Y-51836281D01*
X75455905Y-51836281D02*
X75455905Y-51252081D01*
X75504286Y-51335538D01*
X75552667Y-51391176D01*
X75601048Y-51418995D01*
X75020476Y-51502452D02*
X75068857Y-51474633D01*
X75093048Y-51446814D01*
X75117238Y-51391176D01*
X75117238Y-51363357D01*
X75093048Y-51307719D01*
X75068857Y-51279900D01*
X75020476Y-51252081D01*
X74923714Y-51252081D01*
X74875333Y-51279900D01*
X74851143Y-51307719D01*
X74826952Y-51363357D01*
X74826952Y-51391176D01*
X74851143Y-51446814D01*
X74875333Y-51474633D01*
X74923714Y-51502452D01*
X75020476Y-51502452D01*
X75068857Y-51530271D01*
X75093048Y-51558090D01*
X75117238Y-51613729D01*
X75117238Y-51725005D01*
X75093048Y-51780643D01*
X75068857Y-51808462D01*
X75020476Y-51836281D01*
X74923714Y-51836281D01*
X74875333Y-51808462D01*
X74851143Y-51780643D01*
X74826952Y-51725005D01*
X74826952Y-51613729D01*
X74851143Y-51558090D01*
X74875333Y-51530271D01*
X74923714Y-51502452D01*
D13*
X77361143Y-52782410D02*
X77622400Y-52782410D01*
X77491772Y-52782410D02*
X77491772Y-52274410D01*
X77535315Y-52346981D01*
X77578857Y-52395362D01*
X77622400Y-52419552D01*
X77078114Y-52274410D02*
X77034571Y-52274410D01*
X76991028Y-52298600D01*
X76969257Y-52322790D01*
X76947486Y-52371171D01*
X76925714Y-52467933D01*
X76925714Y-52588886D01*
X76947486Y-52685648D01*
X76969257Y-52734029D01*
X76991028Y-52758219D01*
X77034571Y-52782410D01*
X77078114Y-52782410D01*
X77121657Y-52758219D01*
X77143428Y-52734029D01*
X77165200Y-52685648D01*
X77186971Y-52588886D01*
X77186971Y-52467933D01*
X77165200Y-52371171D01*
X77143428Y-52322790D01*
X77121657Y-52298600D01*
X77078114Y-52274410D01*
X76729771Y-52782410D02*
X76729771Y-52274410D01*
X76686228Y-52588886D02*
X76555599Y-52782410D01*
X76555599Y-52443743D02*
X76729771Y-52637267D01*
D12*
X80153572Y-39526281D02*
X80322905Y-39248090D01*
X80443858Y-39526281D02*
X80443858Y-38942081D01*
X80250334Y-38942081D01*
X80201953Y-38969900D01*
X80177762Y-38997719D01*
X80153572Y-39053357D01*
X80153572Y-39136814D01*
X80177762Y-39192452D01*
X80201953Y-39220271D01*
X80250334Y-39248090D01*
X80443858Y-39248090D01*
X79669762Y-39526281D02*
X79960048Y-39526281D01*
X79814905Y-39526281D02*
X79814905Y-38942081D01*
X79863286Y-39025538D01*
X79911667Y-39081176D01*
X79960048Y-39108995D01*
X79500429Y-38942081D02*
X79161762Y-38942081D01*
X79379476Y-39526281D01*
D13*
X80078943Y-37720210D02*
X80340200Y-37720210D01*
X80209572Y-37720210D02*
X80209572Y-37212210D01*
X80253115Y-37284781D01*
X80296657Y-37333162D01*
X80340200Y-37357352D01*
X79795914Y-37212210D02*
X79752371Y-37212210D01*
X79708828Y-37236400D01*
X79687057Y-37260590D01*
X79665286Y-37308971D01*
X79643514Y-37405733D01*
X79643514Y-37526686D01*
X79665286Y-37623448D01*
X79687057Y-37671829D01*
X79708828Y-37696019D01*
X79752371Y-37720210D01*
X79795914Y-37720210D01*
X79839457Y-37696019D01*
X79861228Y-37671829D01*
X79883000Y-37623448D01*
X79904771Y-37526686D01*
X79904771Y-37405733D01*
X79883000Y-37308971D01*
X79861228Y-37260590D01*
X79839457Y-37236400D01*
X79795914Y-37212210D01*
X79447571Y-37720210D02*
X79447571Y-37212210D01*
X79404028Y-37526686D02*
X79273399Y-37720210D01*
X79273399Y-37381543D02*
X79447571Y-37575067D01*
D12*
X82359572Y-39549281D02*
X82528905Y-39271090D01*
X82649858Y-39549281D02*
X82649858Y-38965081D01*
X82456334Y-38965081D01*
X82407953Y-38992900D01*
X82383762Y-39020719D01*
X82359572Y-39076357D01*
X82359572Y-39159814D01*
X82383762Y-39215452D01*
X82407953Y-39243271D01*
X82456334Y-39271090D01*
X82649858Y-39271090D01*
X81875762Y-39549281D02*
X82166048Y-39549281D01*
X82020905Y-39549281D02*
X82020905Y-38965081D01*
X82069286Y-39048538D01*
X82117667Y-39104176D01*
X82166048Y-39131995D01*
X81440333Y-38965081D02*
X81537095Y-38965081D01*
X81585476Y-38992900D01*
X81609667Y-39020719D01*
X81658048Y-39104176D01*
X81682238Y-39215452D01*
X81682238Y-39438005D01*
X81658048Y-39493643D01*
X81633857Y-39521462D01*
X81585476Y-39549281D01*
X81488714Y-39549281D01*
X81440333Y-39521462D01*
X81416143Y-39493643D01*
X81391952Y-39438005D01*
X81391952Y-39298910D01*
X81416143Y-39243271D01*
X81440333Y-39215452D01*
X81488714Y-39187633D01*
X81585476Y-39187633D01*
X81633857Y-39215452D01*
X81658048Y-39243271D01*
X81682238Y-39298910D01*
D13*
X82060143Y-37720210D02*
X82321400Y-37720210D01*
X82190772Y-37720210D02*
X82190772Y-37212210D01*
X82234315Y-37284781D01*
X82277857Y-37333162D01*
X82321400Y-37357352D01*
X81777114Y-37212210D02*
X81733571Y-37212210D01*
X81690028Y-37236400D01*
X81668257Y-37260590D01*
X81646486Y-37308971D01*
X81624714Y-37405733D01*
X81624714Y-37526686D01*
X81646486Y-37623448D01*
X81668257Y-37671829D01*
X81690028Y-37696019D01*
X81733571Y-37720210D01*
X81777114Y-37720210D01*
X81820657Y-37696019D01*
X81842428Y-37671829D01*
X81864200Y-37623448D01*
X81885971Y-37526686D01*
X81885971Y-37405733D01*
X81864200Y-37308971D01*
X81842428Y-37260590D01*
X81820657Y-37236400D01*
X81777114Y-37212210D01*
X81428771Y-37720210D02*
X81428771Y-37212210D01*
X81385228Y-37526686D02*
X81254599Y-37720210D01*
X81254599Y-37381543D02*
X81428771Y-37575067D01*
D12*
X101845477Y-51834643D02*
X101869667Y-51862462D01*
X101942239Y-51890281D01*
X101990620Y-51890281D01*
X102063191Y-51862462D01*
X102111572Y-51806824D01*
X102135763Y-51751186D01*
X102159953Y-51639910D01*
X102159953Y-51556452D01*
X102135763Y-51445176D01*
X102111572Y-51389538D01*
X102063191Y-51333900D01*
X101990620Y-51306081D01*
X101942239Y-51306081D01*
X101869667Y-51333900D01*
X101845477Y-51361719D01*
X101361667Y-51890281D02*
X101651953Y-51890281D01*
X101506810Y-51890281D02*
X101506810Y-51306081D01*
X101555191Y-51389538D01*
X101603572Y-51445176D01*
X101651953Y-51472995D01*
X100877857Y-51890281D02*
X101168143Y-51890281D01*
X101023000Y-51890281D02*
X101023000Y-51306081D01*
X101071381Y-51389538D01*
X101119762Y-51445176D01*
X101168143Y-51472995D01*
X100563381Y-51306081D02*
X100515000Y-51306081D01*
X100466619Y-51333900D01*
X100442428Y-51361719D01*
X100418238Y-51417357D01*
X100394047Y-51528633D01*
X100394047Y-51667729D01*
X100418238Y-51779005D01*
X100442428Y-51834643D01*
X100466619Y-51862462D01*
X100515000Y-51890281D01*
X100563381Y-51890281D01*
X100611762Y-51862462D01*
X100635952Y-51834643D01*
X100660143Y-51779005D01*
X100684333Y-51667729D01*
X100684333Y-51528633D01*
X100660143Y-51417357D01*
X100635952Y-51361719D01*
X100611762Y-51333900D01*
X100563381Y-51306081D01*
D13*
X101443914Y-53633810D02*
X101705171Y-53633810D01*
X101574543Y-53633810D02*
X101574543Y-53125810D01*
X101618086Y-53198381D01*
X101661628Y-53246762D01*
X101705171Y-53270952D01*
X101160885Y-53125810D02*
X101117342Y-53125810D01*
X101073799Y-53150000D01*
X101052028Y-53174190D01*
X101030257Y-53222571D01*
X101008485Y-53319333D01*
X101008485Y-53440286D01*
X101030257Y-53537048D01*
X101052028Y-53585429D01*
X101073799Y-53609619D01*
X101117342Y-53633810D01*
X101160885Y-53633810D01*
X101204428Y-53609619D01*
X101226199Y-53585429D01*
X101247971Y-53537048D01*
X101269742Y-53440286D01*
X101269742Y-53319333D01*
X101247971Y-53222571D01*
X101226199Y-53174190D01*
X101204428Y-53150000D01*
X101160885Y-53125810D01*
X100616599Y-53295143D02*
X100616599Y-53633810D01*
X100812542Y-53295143D02*
X100812542Y-53561238D01*
X100790770Y-53609619D01*
X100747228Y-53633810D01*
X100681913Y-53633810D01*
X100638370Y-53609619D01*
X100616599Y-53585429D01*
D12*
X64208643Y-47262523D02*
X64236462Y-47238333D01*
X64264281Y-47165761D01*
X64264281Y-47117380D01*
X64236462Y-47044809D01*
X64180824Y-46996428D01*
X64125186Y-46972237D01*
X64013910Y-46948047D01*
X63930452Y-46948047D01*
X63819176Y-46972237D01*
X63763538Y-46996428D01*
X63707900Y-47044809D01*
X63680081Y-47117380D01*
X63680081Y-47165761D01*
X63707900Y-47238333D01*
X63735719Y-47262523D01*
X64264281Y-47746333D02*
X64264281Y-47456047D01*
X64264281Y-47601190D02*
X63680081Y-47601190D01*
X63763538Y-47552809D01*
X63819176Y-47504428D01*
X63846995Y-47456047D01*
X63680081Y-48060809D02*
X63680081Y-48109190D01*
X63707900Y-48157571D01*
X63735719Y-48181762D01*
X63791357Y-48205952D01*
X63902633Y-48230143D01*
X64041729Y-48230143D01*
X64153005Y-48205952D01*
X64208643Y-48181762D01*
X64236462Y-48157571D01*
X64264281Y-48109190D01*
X64264281Y-48060809D01*
X64236462Y-48012428D01*
X64208643Y-47988238D01*
X64153005Y-47964047D01*
X64041729Y-47939857D01*
X63902633Y-47939857D01*
X63791357Y-47964047D01*
X63735719Y-47988238D01*
X63707900Y-48012428D01*
X63680081Y-48060809D01*
X63930452Y-48520429D02*
X63902633Y-48472048D01*
X63874814Y-48447857D01*
X63819176Y-48423667D01*
X63791357Y-48423667D01*
X63735719Y-48447857D01*
X63707900Y-48472048D01*
X63680081Y-48520429D01*
X63680081Y-48617191D01*
X63707900Y-48665572D01*
X63735719Y-48689762D01*
X63791357Y-48713953D01*
X63819176Y-48713953D01*
X63874814Y-48689762D01*
X63902633Y-48665572D01*
X63930452Y-48617191D01*
X63930452Y-48520429D01*
X63958271Y-48472048D01*
X63986090Y-48447857D01*
X64041729Y-48423667D01*
X64153005Y-48423667D01*
X64208643Y-48447857D01*
X64236462Y-48472048D01*
X64264281Y-48520429D01*
X64264281Y-48617191D01*
X64236462Y-48665572D01*
X64208643Y-48689762D01*
X64153005Y-48713953D01*
X64041729Y-48713953D01*
X63986090Y-48689762D01*
X63958271Y-48665572D01*
X63930452Y-48617191D01*
D13*
X66020810Y-47565086D02*
X66020810Y-47303829D01*
X66020810Y-47434457D02*
X65512810Y-47434457D01*
X65585381Y-47390914D01*
X65633762Y-47347372D01*
X65657952Y-47303829D01*
X65512810Y-47848115D02*
X65512810Y-47891658D01*
X65537000Y-47935201D01*
X65561190Y-47956972D01*
X65609571Y-47978743D01*
X65706333Y-48000515D01*
X65827286Y-48000515D01*
X65924048Y-47978743D01*
X65972429Y-47956972D01*
X65996619Y-47935201D01*
X66020810Y-47891658D01*
X66020810Y-47848115D01*
X65996619Y-47804572D01*
X65972429Y-47782801D01*
X65924048Y-47761029D01*
X65827286Y-47739258D01*
X65706333Y-47739258D01*
X65609571Y-47761029D01*
X65561190Y-47782801D01*
X65537000Y-47804572D01*
X65512810Y-47848115D01*
X65682143Y-48392401D02*
X66020810Y-48392401D01*
X65682143Y-48196458D02*
X65948238Y-48196458D01*
X65996619Y-48218230D01*
X66020810Y-48261772D01*
X66020810Y-48327087D01*
X65996619Y-48370630D01*
X65972429Y-48392401D01*
D12*
X68383572Y-53147643D02*
X68407762Y-53175462D01*
X68480334Y-53203281D01*
X68528715Y-53203281D01*
X68601286Y-53175462D01*
X68649667Y-53119824D01*
X68673858Y-53064186D01*
X68698048Y-52952910D01*
X68698048Y-52869452D01*
X68673858Y-52758176D01*
X68649667Y-52702538D01*
X68601286Y-52646900D01*
X68528715Y-52619081D01*
X68480334Y-52619081D01*
X68407762Y-52646900D01*
X68383572Y-52674719D01*
X67948143Y-52813814D02*
X67948143Y-53203281D01*
X68069096Y-52591262D02*
X68190048Y-53008548D01*
X67875572Y-53008548D01*
X67657857Y-53203281D02*
X67561095Y-53203281D01*
X67512714Y-53175462D01*
X67488524Y-53147643D01*
X67440143Y-53064186D01*
X67415952Y-52952910D01*
X67415952Y-52730357D01*
X67440143Y-52674719D01*
X67464333Y-52646900D01*
X67512714Y-52619081D01*
X67609476Y-52619081D01*
X67657857Y-52646900D01*
X67682048Y-52674719D01*
X67706238Y-52730357D01*
X67706238Y-52869452D01*
X67682048Y-52925090D01*
X67657857Y-52952910D01*
X67609476Y-52980729D01*
X67512714Y-52980729D01*
X67464333Y-52952910D01*
X67440143Y-52925090D01*
X67415952Y-52869452D01*
D13*
X68100914Y-51161810D02*
X68362171Y-51161810D01*
X68231543Y-51161810D02*
X68231543Y-50653810D01*
X68275086Y-50726381D01*
X68318628Y-50774762D01*
X68362171Y-50798952D01*
X67817885Y-50653810D02*
X67774342Y-50653810D01*
X67730799Y-50678000D01*
X67709028Y-50702190D01*
X67687257Y-50750571D01*
X67665485Y-50847333D01*
X67665485Y-50968286D01*
X67687257Y-51065048D01*
X67709028Y-51113429D01*
X67730799Y-51137619D01*
X67774342Y-51161810D01*
X67817885Y-51161810D01*
X67861428Y-51137619D01*
X67883199Y-51113429D01*
X67904971Y-51065048D01*
X67926742Y-50968286D01*
X67926742Y-50847333D01*
X67904971Y-50750571D01*
X67883199Y-50702190D01*
X67861428Y-50678000D01*
X67817885Y-50653810D01*
X67273599Y-50823143D02*
X67273599Y-51161810D01*
X67469542Y-50823143D02*
X67469542Y-51089238D01*
X67447770Y-51137619D01*
X67404228Y-51161810D01*
X67338913Y-51161810D01*
X67295370Y-51137619D01*
X67273599Y-51113429D01*
D12*
X86605477Y-41150643D02*
X86629667Y-41178462D01*
X86702239Y-41206281D01*
X86750620Y-41206281D01*
X86823191Y-41178462D01*
X86871572Y-41122824D01*
X86895763Y-41067186D01*
X86919953Y-40955910D01*
X86919953Y-40872452D01*
X86895763Y-40761176D01*
X86871572Y-40705538D01*
X86823191Y-40649900D01*
X86750620Y-40622081D01*
X86702239Y-40622081D01*
X86629667Y-40649900D01*
X86605477Y-40677719D01*
X86121667Y-41206281D02*
X86411953Y-41206281D01*
X86266810Y-41206281D02*
X86266810Y-40622081D01*
X86315191Y-40705538D01*
X86363572Y-40761176D01*
X86411953Y-40788995D01*
X85807191Y-40622081D02*
X85758810Y-40622081D01*
X85710429Y-40649900D01*
X85686238Y-40677719D01*
X85662048Y-40733357D01*
X85637857Y-40844633D01*
X85637857Y-40983729D01*
X85662048Y-41095005D01*
X85686238Y-41150643D01*
X85710429Y-41178462D01*
X85758810Y-41206281D01*
X85807191Y-41206281D01*
X85855572Y-41178462D01*
X85879762Y-41150643D01*
X85903953Y-41095005D01*
X85928143Y-40983729D01*
X85928143Y-40844633D01*
X85903953Y-40733357D01*
X85879762Y-40677719D01*
X85855572Y-40649900D01*
X85807191Y-40622081D01*
X85154047Y-41206281D02*
X85444333Y-41206281D01*
X85299190Y-41206281D02*
X85299190Y-40622081D01*
X85347571Y-40705538D01*
X85395952Y-40761176D01*
X85444333Y-40788995D01*
D13*
X86355171Y-42421810D02*
X86311628Y-42421810D01*
X86268085Y-42446000D01*
X86246314Y-42470190D01*
X86224543Y-42518571D01*
X86202771Y-42615333D01*
X86202771Y-42736286D01*
X86224543Y-42833048D01*
X86246314Y-42881429D01*
X86268085Y-42905619D01*
X86311628Y-42929810D01*
X86355171Y-42929810D01*
X86398714Y-42905619D01*
X86420485Y-42881429D01*
X86442257Y-42833048D01*
X86464028Y-42736286D01*
X86464028Y-42615333D01*
X86442257Y-42518571D01*
X86420485Y-42470190D01*
X86398714Y-42446000D01*
X86355171Y-42421810D01*
X86006828Y-42881429D02*
X85985056Y-42905619D01*
X86006828Y-42929810D01*
X86028599Y-42905619D01*
X86006828Y-42881429D01*
X86006828Y-42929810D01*
X85549628Y-42929810D02*
X85810885Y-42929810D01*
X85680257Y-42929810D02*
X85680257Y-42421810D01*
X85723800Y-42494381D01*
X85767342Y-42542762D01*
X85810885Y-42566952D01*
X85157742Y-42591143D02*
X85157742Y-42929810D01*
X85353685Y-42591143D02*
X85353685Y-42857238D01*
X85331913Y-42905619D01*
X85288371Y-42929810D01*
X85223056Y-42929810D01*
X85179513Y-42905619D01*
X85157742Y-42881429D01*
D12*
X69262172Y-36124243D02*
X69286362Y-36152062D01*
X69358934Y-36179881D01*
X69407315Y-36179881D01*
X69479886Y-36152062D01*
X69528267Y-36096424D01*
X69552458Y-36040786D01*
X69576648Y-35929510D01*
X69576648Y-35846052D01*
X69552458Y-35734776D01*
X69528267Y-35679138D01*
X69479886Y-35623500D01*
X69407315Y-35595681D01*
X69358934Y-35595681D01*
X69286362Y-35623500D01*
X69262172Y-35651319D01*
X69020267Y-36179881D02*
X68923505Y-36179881D01*
X68875124Y-36152062D01*
X68850934Y-36124243D01*
X68802553Y-36040786D01*
X68778362Y-35929510D01*
X68778362Y-35706957D01*
X68802553Y-35651319D01*
X68826743Y-35623500D01*
X68875124Y-35595681D01*
X68971886Y-35595681D01*
X69020267Y-35623500D01*
X69044458Y-35651319D01*
X69068648Y-35706957D01*
X69068648Y-35846052D01*
X69044458Y-35901690D01*
X69020267Y-35929510D01*
X68971886Y-35957329D01*
X68875124Y-35957329D01*
X68826743Y-35929510D01*
X68802553Y-35901690D01*
X68778362Y-35846052D01*
X68536457Y-36179881D02*
X68439695Y-36179881D01*
X68391314Y-36152062D01*
X68367124Y-36124243D01*
X68318743Y-36040786D01*
X68294552Y-35929510D01*
X68294552Y-35706957D01*
X68318743Y-35651319D01*
X68342933Y-35623500D01*
X68391314Y-35595681D01*
X68488076Y-35595681D01*
X68536457Y-35623500D01*
X68560648Y-35651319D01*
X68584838Y-35706957D01*
X68584838Y-35846052D01*
X68560648Y-35901690D01*
X68536457Y-35929510D01*
X68488076Y-35957329D01*
X68391314Y-35957329D01*
X68342933Y-35929510D01*
X68318743Y-35901690D01*
X68294552Y-35846052D01*
D13*
X69490771Y-37415410D02*
X69447228Y-37415410D01*
X69403685Y-37439600D01*
X69381914Y-37463790D01*
X69360143Y-37512171D01*
X69338371Y-37608933D01*
X69338371Y-37729886D01*
X69360143Y-37826648D01*
X69381914Y-37875029D01*
X69403685Y-37899219D01*
X69447228Y-37923410D01*
X69490771Y-37923410D01*
X69534314Y-37899219D01*
X69556085Y-37875029D01*
X69577857Y-37826648D01*
X69599628Y-37729886D01*
X69599628Y-37608933D01*
X69577857Y-37512171D01*
X69556085Y-37463790D01*
X69534314Y-37439600D01*
X69490771Y-37415410D01*
X69142428Y-37875029D02*
X69120656Y-37899219D01*
X69142428Y-37923410D01*
X69164199Y-37899219D01*
X69142428Y-37875029D01*
X69142428Y-37923410D01*
X68685228Y-37923410D02*
X68946485Y-37923410D01*
X68815857Y-37923410D02*
X68815857Y-37415410D01*
X68859400Y-37487981D01*
X68902942Y-37536362D01*
X68946485Y-37560552D01*
X68293342Y-37584743D02*
X68293342Y-37923410D01*
X68489285Y-37584743D02*
X68489285Y-37850838D01*
X68467513Y-37899219D01*
X68423971Y-37923410D01*
X68358656Y-37923410D01*
X68315113Y-37899219D01*
X68293342Y-37875029D01*
D12*
X94087043Y-54588228D02*
X94114862Y-54564038D01*
X94142681Y-54491466D01*
X94142681Y-54443085D01*
X94114862Y-54370514D01*
X94059224Y-54322133D01*
X94003586Y-54297942D01*
X93892310Y-54273752D01*
X93808852Y-54273752D01*
X93697576Y-54297942D01*
X93641938Y-54322133D01*
X93586300Y-54370514D01*
X93558481Y-54443085D01*
X93558481Y-54491466D01*
X93586300Y-54564038D01*
X93614119Y-54588228D01*
X94142681Y-54830133D02*
X94142681Y-54926895D01*
X94114862Y-54975276D01*
X94087043Y-54999466D01*
X94003586Y-55047847D01*
X93892310Y-55072038D01*
X93669757Y-55072038D01*
X93614119Y-55047847D01*
X93586300Y-55023657D01*
X93558481Y-54975276D01*
X93558481Y-54878514D01*
X93586300Y-54830133D01*
X93614119Y-54805942D01*
X93669757Y-54781752D01*
X93808852Y-54781752D01*
X93864490Y-54805942D01*
X93892310Y-54830133D01*
X93920129Y-54878514D01*
X93920129Y-54975276D01*
X93892310Y-55023657D01*
X93864490Y-55047847D01*
X93808852Y-55072038D01*
X93808852Y-55362324D02*
X93781033Y-55313943D01*
X93753214Y-55289752D01*
X93697576Y-55265562D01*
X93669757Y-55265562D01*
X93614119Y-55289752D01*
X93586300Y-55313943D01*
X93558481Y-55362324D01*
X93558481Y-55459086D01*
X93586300Y-55507467D01*
X93614119Y-55531657D01*
X93669757Y-55555848D01*
X93697576Y-55555848D01*
X93753214Y-55531657D01*
X93781033Y-55507467D01*
X93808852Y-55459086D01*
X93808852Y-55362324D01*
X93836671Y-55313943D01*
X93864490Y-55289752D01*
X93920129Y-55265562D01*
X94031405Y-55265562D01*
X94087043Y-55289752D01*
X94114862Y-55313943D01*
X94142681Y-55362324D01*
X94142681Y-55459086D01*
X94114862Y-55507467D01*
X94087043Y-55531657D01*
X94031405Y-55555848D01*
X93920129Y-55555848D01*
X93864490Y-55531657D01*
X93836671Y-55507467D01*
X93808852Y-55459086D01*
D13*
X92330210Y-54838600D02*
X92330210Y-54577343D01*
X92330210Y-54707971D02*
X91822210Y-54707971D01*
X91894781Y-54664428D01*
X91943162Y-54620886D01*
X91967352Y-54577343D01*
X91991543Y-55230486D02*
X92330210Y-55230486D01*
X91991543Y-55034543D02*
X92257638Y-55034543D01*
X92306019Y-55056315D01*
X92330210Y-55099857D01*
X92330210Y-55165172D01*
X92306019Y-55208715D01*
X92281829Y-55230486D01*
D12*
X80454643Y-56800428D02*
X80482462Y-56776238D01*
X80510281Y-56703666D01*
X80510281Y-56655285D01*
X80482462Y-56582714D01*
X80426824Y-56534333D01*
X80371186Y-56510142D01*
X80259910Y-56485952D01*
X80176452Y-56485952D01*
X80065176Y-56510142D01*
X80009538Y-56534333D01*
X79953900Y-56582714D01*
X79926081Y-56655285D01*
X79926081Y-56703666D01*
X79953900Y-56776238D01*
X79981719Y-56800428D01*
X80510281Y-57042333D02*
X80510281Y-57139095D01*
X80482462Y-57187476D01*
X80454643Y-57211666D01*
X80371186Y-57260047D01*
X80259910Y-57284238D01*
X80037357Y-57284238D01*
X79981719Y-57260047D01*
X79953900Y-57235857D01*
X79926081Y-57187476D01*
X79926081Y-57090714D01*
X79953900Y-57042333D01*
X79981719Y-57018142D01*
X80037357Y-56993952D01*
X80176452Y-56993952D01*
X80232090Y-57018142D01*
X80259910Y-57042333D01*
X80287729Y-57090714D01*
X80287729Y-57187476D01*
X80259910Y-57235857D01*
X80232090Y-57260047D01*
X80176452Y-57284238D01*
X79926081Y-57453571D02*
X79926081Y-57792238D01*
X80510281Y-57574524D01*
D13*
X78989810Y-55548800D02*
X78989810Y-55287543D01*
X78989810Y-55418171D02*
X78481810Y-55418171D01*
X78554381Y-55374628D01*
X78602762Y-55331086D01*
X78626952Y-55287543D01*
X78651143Y-55940686D02*
X78989810Y-55940686D01*
X78651143Y-55744743D02*
X78917238Y-55744743D01*
X78965619Y-55766515D01*
X78989810Y-55810057D01*
X78989810Y-55875372D01*
X78965619Y-55918915D01*
X78941429Y-55940686D01*
D12*
X74892643Y-53752428D02*
X74920462Y-53728238D01*
X74948281Y-53655666D01*
X74948281Y-53607285D01*
X74920462Y-53534714D01*
X74864824Y-53486333D01*
X74809186Y-53462142D01*
X74697910Y-53437952D01*
X74614452Y-53437952D01*
X74503176Y-53462142D01*
X74447538Y-53486333D01*
X74391900Y-53534714D01*
X74364081Y-53607285D01*
X74364081Y-53655666D01*
X74391900Y-53728238D01*
X74419719Y-53752428D01*
X74948281Y-53994333D02*
X74948281Y-54091095D01*
X74920462Y-54139476D01*
X74892643Y-54163666D01*
X74809186Y-54212047D01*
X74697910Y-54236238D01*
X74475357Y-54236238D01*
X74419719Y-54212047D01*
X74391900Y-54187857D01*
X74364081Y-54139476D01*
X74364081Y-54042714D01*
X74391900Y-53994333D01*
X74419719Y-53970142D01*
X74475357Y-53945952D01*
X74614452Y-53945952D01*
X74670090Y-53970142D01*
X74697910Y-53994333D01*
X74725729Y-54042714D01*
X74725729Y-54139476D01*
X74697910Y-54187857D01*
X74670090Y-54212047D01*
X74614452Y-54236238D01*
X74364081Y-54671667D02*
X74364081Y-54574905D01*
X74391900Y-54526524D01*
X74419719Y-54502333D01*
X74503176Y-54453952D01*
X74614452Y-54429762D01*
X74837005Y-54429762D01*
X74892643Y-54453952D01*
X74920462Y-54478143D01*
X74948281Y-54526524D01*
X74948281Y-54623286D01*
X74920462Y-54671667D01*
X74892643Y-54695857D01*
X74837005Y-54720048D01*
X74697910Y-54720048D01*
X74642271Y-54695857D01*
X74614452Y-54671667D01*
X74586633Y-54623286D01*
X74586633Y-54526524D01*
X74614452Y-54478143D01*
X74642271Y-54453952D01*
X74697910Y-54429762D01*
D13*
X73915210Y-55553800D02*
X73915210Y-55292543D01*
X73915210Y-55423171D02*
X73407210Y-55423171D01*
X73479781Y-55379628D01*
X73528162Y-55336086D01*
X73552352Y-55292543D01*
X73576543Y-55945686D02*
X73915210Y-55945686D01*
X73576543Y-55749743D02*
X73842638Y-55749743D01*
X73891019Y-55771515D01*
X73915210Y-55815057D01*
X73915210Y-55880372D01*
X73891019Y-55923915D01*
X73866829Y-55945686D01*
D12*
X76454643Y-62064028D02*
X76482462Y-62039838D01*
X76510281Y-61967266D01*
X76510281Y-61918885D01*
X76482462Y-61846314D01*
X76426824Y-61797933D01*
X76371186Y-61773742D01*
X76259910Y-61749552D01*
X76176452Y-61749552D01*
X76065176Y-61773742D01*
X76009538Y-61797933D01*
X75953900Y-61846314D01*
X75926081Y-61918885D01*
X75926081Y-61967266D01*
X75953900Y-62039838D01*
X75981719Y-62064028D01*
X76510281Y-62305933D02*
X76510281Y-62402695D01*
X76482462Y-62451076D01*
X76454643Y-62475266D01*
X76371186Y-62523647D01*
X76259910Y-62547838D01*
X76037357Y-62547838D01*
X75981719Y-62523647D01*
X75953900Y-62499457D01*
X75926081Y-62451076D01*
X75926081Y-62354314D01*
X75953900Y-62305933D01*
X75981719Y-62281742D01*
X76037357Y-62257552D01*
X76176452Y-62257552D01*
X76232090Y-62281742D01*
X76259910Y-62305933D01*
X76287729Y-62354314D01*
X76287729Y-62451076D01*
X76259910Y-62499457D01*
X76232090Y-62523647D01*
X76176452Y-62547838D01*
X76120814Y-62983267D02*
X76510281Y-62983267D01*
X75898262Y-62862314D02*
X76315548Y-62741362D01*
X76315548Y-63055838D01*
D13*
X74697810Y-62314400D02*
X74697810Y-62053143D01*
X74697810Y-62183771D02*
X74189810Y-62183771D01*
X74262381Y-62140228D01*
X74310762Y-62096686D01*
X74334952Y-62053143D01*
X74359143Y-62706286D02*
X74697810Y-62706286D01*
X74359143Y-62510343D02*
X74625238Y-62510343D01*
X74673619Y-62532115D01*
X74697810Y-62575657D01*
X74697810Y-62640972D01*
X74673619Y-62684515D01*
X74649429Y-62706286D01*
D12*
X94188643Y-61370028D02*
X94216462Y-61345838D01*
X94244281Y-61273266D01*
X94244281Y-61224885D01*
X94216462Y-61152314D01*
X94160824Y-61103933D01*
X94105186Y-61079742D01*
X93993910Y-61055552D01*
X93910452Y-61055552D01*
X93799176Y-61079742D01*
X93743538Y-61103933D01*
X93687900Y-61152314D01*
X93660081Y-61224885D01*
X93660081Y-61273266D01*
X93687900Y-61345838D01*
X93715719Y-61370028D01*
X94244281Y-61611933D02*
X94244281Y-61708695D01*
X94216462Y-61757076D01*
X94188643Y-61781266D01*
X94105186Y-61829647D01*
X93993910Y-61853838D01*
X93771357Y-61853838D01*
X93715719Y-61829647D01*
X93687900Y-61805457D01*
X93660081Y-61757076D01*
X93660081Y-61660314D01*
X93687900Y-61611933D01*
X93715719Y-61587742D01*
X93771357Y-61563552D01*
X93910452Y-61563552D01*
X93966090Y-61587742D01*
X93993910Y-61611933D01*
X94021729Y-61660314D01*
X94021729Y-61757076D01*
X93993910Y-61805457D01*
X93966090Y-61829647D01*
X93910452Y-61853838D01*
X93715719Y-62047362D02*
X93687900Y-62071552D01*
X93660081Y-62119933D01*
X93660081Y-62240886D01*
X93687900Y-62289267D01*
X93715719Y-62313457D01*
X93771357Y-62337648D01*
X93826995Y-62337648D01*
X93910452Y-62313457D01*
X94244281Y-62023171D01*
X94244281Y-62337648D01*
D13*
X92431810Y-61620400D02*
X92431810Y-61359143D01*
X92431810Y-61489771D02*
X91923810Y-61489771D01*
X91996381Y-61446228D01*
X92044762Y-61402686D01*
X92068952Y-61359143D01*
X92093143Y-62012286D02*
X92431810Y-62012286D01*
X92093143Y-61816343D02*
X92359238Y-61816343D01*
X92407619Y-61838115D01*
X92431810Y-61881657D01*
X92431810Y-61946972D01*
X92407619Y-61990515D01*
X92383429Y-62012286D01*
D12*
X81083643Y-62069028D02*
X81111462Y-62044838D01*
X81139281Y-61972266D01*
X81139281Y-61923885D01*
X81111462Y-61851314D01*
X81055824Y-61802933D01*
X81000186Y-61778742D01*
X80888910Y-61754552D01*
X80805452Y-61754552D01*
X80694176Y-61778742D01*
X80638538Y-61802933D01*
X80582900Y-61851314D01*
X80555081Y-61923885D01*
X80555081Y-61972266D01*
X80582900Y-62044838D01*
X80610719Y-62069028D01*
X81139281Y-62310933D02*
X81139281Y-62407695D01*
X81111462Y-62456076D01*
X81083643Y-62480266D01*
X81000186Y-62528647D01*
X80888910Y-62552838D01*
X80666357Y-62552838D01*
X80610719Y-62528647D01*
X80582900Y-62504457D01*
X80555081Y-62456076D01*
X80555081Y-62359314D01*
X80582900Y-62310933D01*
X80610719Y-62286742D01*
X80666357Y-62262552D01*
X80805452Y-62262552D01*
X80861090Y-62286742D01*
X80888910Y-62310933D01*
X80916729Y-62359314D01*
X80916729Y-62456076D01*
X80888910Y-62504457D01*
X80861090Y-62528647D01*
X80805452Y-62552838D01*
X81139281Y-63036648D02*
X81139281Y-62746362D01*
X81139281Y-62891505D02*
X80555081Y-62891505D01*
X80638538Y-62843124D01*
X80694176Y-62794743D01*
X80721995Y-62746362D01*
D13*
X79326810Y-62319400D02*
X79326810Y-62058143D01*
X79326810Y-62188771D02*
X78818810Y-62188771D01*
X78891381Y-62145228D01*
X78939762Y-62101686D01*
X78963952Y-62058143D01*
X78988143Y-62711286D02*
X79326810Y-62711286D01*
X78988143Y-62515343D02*
X79254238Y-62515343D01*
X79302619Y-62537115D01*
X79326810Y-62580657D01*
X79326810Y-62645972D01*
X79302619Y-62689515D01*
X79278429Y-62711286D01*
D12*
X114533643Y-55502428D02*
X114561462Y-55478238D01*
X114589281Y-55405666D01*
X114589281Y-55357285D01*
X114561462Y-55284714D01*
X114505824Y-55236333D01*
X114450186Y-55212142D01*
X114338910Y-55187952D01*
X114255452Y-55187952D01*
X114144176Y-55212142D01*
X114088538Y-55236333D01*
X114032900Y-55284714D01*
X114005081Y-55357285D01*
X114005081Y-55405666D01*
X114032900Y-55478238D01*
X114060719Y-55502428D01*
X114589281Y-55744333D02*
X114589281Y-55841095D01*
X114561462Y-55889476D01*
X114533643Y-55913666D01*
X114450186Y-55962047D01*
X114338910Y-55986238D01*
X114116357Y-55986238D01*
X114060719Y-55962047D01*
X114032900Y-55937857D01*
X114005081Y-55889476D01*
X114005081Y-55792714D01*
X114032900Y-55744333D01*
X114060719Y-55720142D01*
X114116357Y-55695952D01*
X114255452Y-55695952D01*
X114311090Y-55720142D01*
X114338910Y-55744333D01*
X114366729Y-55792714D01*
X114366729Y-55889476D01*
X114338910Y-55937857D01*
X114311090Y-55962047D01*
X114255452Y-55986238D01*
X114005081Y-56300714D02*
X114005081Y-56349095D01*
X114032900Y-56397476D01*
X114060719Y-56421667D01*
X114116357Y-56445857D01*
X114227633Y-56470048D01*
X114366729Y-56470048D01*
X114478005Y-56445857D01*
X114533643Y-56421667D01*
X114561462Y-56397476D01*
X114589281Y-56349095D01*
X114589281Y-56300714D01*
X114561462Y-56252333D01*
X114533643Y-56228143D01*
X114478005Y-56203952D01*
X114366729Y-56179762D01*
X114227633Y-56179762D01*
X114116357Y-56203952D01*
X114060719Y-56228143D01*
X114032900Y-56252333D01*
X114005081Y-56300714D01*
D13*
X112788410Y-55524400D02*
X112788410Y-55263143D01*
X112788410Y-55393771D02*
X112280410Y-55393771D01*
X112352981Y-55350228D01*
X112401362Y-55306686D01*
X112425552Y-55263143D01*
X112449743Y-55916286D02*
X112788410Y-55916286D01*
X112449743Y-55720343D02*
X112715838Y-55720343D01*
X112764219Y-55742115D01*
X112788410Y-55785657D01*
X112788410Y-55850972D01*
X112764219Y-55894515D01*
X112740029Y-55916286D01*
D12*
X101447643Y-55261428D02*
X101475462Y-55237238D01*
X101503281Y-55164666D01*
X101503281Y-55116285D01*
X101475462Y-55043714D01*
X101419824Y-54995333D01*
X101364186Y-54971142D01*
X101252910Y-54946952D01*
X101169452Y-54946952D01*
X101058176Y-54971142D01*
X101002538Y-54995333D01*
X100946900Y-55043714D01*
X100919081Y-55116285D01*
X100919081Y-55164666D01*
X100946900Y-55237238D01*
X100974719Y-55261428D01*
X101169452Y-55551714D02*
X101141633Y-55503333D01*
X101113814Y-55479142D01*
X101058176Y-55454952D01*
X101030357Y-55454952D01*
X100974719Y-55479142D01*
X100946900Y-55503333D01*
X100919081Y-55551714D01*
X100919081Y-55648476D01*
X100946900Y-55696857D01*
X100974719Y-55721047D01*
X101030357Y-55745238D01*
X101058176Y-55745238D01*
X101113814Y-55721047D01*
X101141633Y-55696857D01*
X101169452Y-55648476D01*
X101169452Y-55551714D01*
X101197271Y-55503333D01*
X101225090Y-55479142D01*
X101280729Y-55454952D01*
X101392005Y-55454952D01*
X101447643Y-55479142D01*
X101475462Y-55503333D01*
X101503281Y-55551714D01*
X101503281Y-55648476D01*
X101475462Y-55696857D01*
X101447643Y-55721047D01*
X101392005Y-55745238D01*
X101280729Y-55745238D01*
X101225090Y-55721047D01*
X101197271Y-55696857D01*
X101169452Y-55648476D01*
X101503281Y-55987143D02*
X101503281Y-56083905D01*
X101475462Y-56132286D01*
X101447643Y-56156476D01*
X101364186Y-56204857D01*
X101252910Y-56229048D01*
X101030357Y-56229048D01*
X100974719Y-56204857D01*
X100946900Y-56180667D01*
X100919081Y-56132286D01*
X100919081Y-56035524D01*
X100946900Y-55987143D01*
X100974719Y-55962952D01*
X101030357Y-55938762D01*
X101169452Y-55938762D01*
X101225090Y-55962952D01*
X101252910Y-55987143D01*
X101280729Y-56035524D01*
X101280729Y-56132286D01*
X101252910Y-56180667D01*
X101225090Y-56204857D01*
X101169452Y-56229048D01*
D13*
X103229810Y-55523800D02*
X103229810Y-55262543D01*
X103229810Y-55393171D02*
X102721810Y-55393171D01*
X102794381Y-55349628D01*
X102842762Y-55306086D01*
X102866952Y-55262543D01*
X102891143Y-55915686D02*
X103229810Y-55915686D01*
X102891143Y-55719743D02*
X103157238Y-55719743D01*
X103205619Y-55741515D01*
X103229810Y-55785057D01*
X103229810Y-55850372D01*
X103205619Y-55893915D01*
X103181429Y-55915686D01*
D12*
X115153643Y-61984428D02*
X115181462Y-61960238D01*
X115209281Y-61887666D01*
X115209281Y-61839285D01*
X115181462Y-61766714D01*
X115125824Y-61718333D01*
X115070186Y-61694142D01*
X114958910Y-61669952D01*
X114875452Y-61669952D01*
X114764176Y-61694142D01*
X114708538Y-61718333D01*
X114652900Y-61766714D01*
X114625081Y-61839285D01*
X114625081Y-61887666D01*
X114652900Y-61960238D01*
X114680719Y-61984428D01*
X114875452Y-62274714D02*
X114847633Y-62226333D01*
X114819814Y-62202142D01*
X114764176Y-62177952D01*
X114736357Y-62177952D01*
X114680719Y-62202142D01*
X114652900Y-62226333D01*
X114625081Y-62274714D01*
X114625081Y-62371476D01*
X114652900Y-62419857D01*
X114680719Y-62444047D01*
X114736357Y-62468238D01*
X114764176Y-62468238D01*
X114819814Y-62444047D01*
X114847633Y-62419857D01*
X114875452Y-62371476D01*
X114875452Y-62274714D01*
X114903271Y-62226333D01*
X114931090Y-62202142D01*
X114986729Y-62177952D01*
X115098005Y-62177952D01*
X115153643Y-62202142D01*
X115181462Y-62226333D01*
X115209281Y-62274714D01*
X115209281Y-62371476D01*
X115181462Y-62419857D01*
X115153643Y-62444047D01*
X115098005Y-62468238D01*
X114986729Y-62468238D01*
X114931090Y-62444047D01*
X114903271Y-62419857D01*
X114875452Y-62371476D01*
X114875452Y-62758524D02*
X114847633Y-62710143D01*
X114819814Y-62685952D01*
X114764176Y-62661762D01*
X114736357Y-62661762D01*
X114680719Y-62685952D01*
X114652900Y-62710143D01*
X114625081Y-62758524D01*
X114625081Y-62855286D01*
X114652900Y-62903667D01*
X114680719Y-62927857D01*
X114736357Y-62952048D01*
X114764176Y-62952048D01*
X114819814Y-62927857D01*
X114847633Y-62903667D01*
X114875452Y-62855286D01*
X114875452Y-62758524D01*
X114903271Y-62710143D01*
X114931090Y-62685952D01*
X114986729Y-62661762D01*
X115098005Y-62661762D01*
X115153643Y-62685952D01*
X115181462Y-62710143D01*
X115209281Y-62758524D01*
X115209281Y-62855286D01*
X115181462Y-62903667D01*
X115153643Y-62927857D01*
X115098005Y-62952048D01*
X114986729Y-62952048D01*
X114931090Y-62927857D01*
X114903271Y-62903667D01*
X114875452Y-62855286D01*
D13*
X113396810Y-62234800D02*
X113396810Y-61973543D01*
X113396810Y-62104171D02*
X112888810Y-62104171D01*
X112961381Y-62060628D01*
X113009762Y-62017086D01*
X113033952Y-61973543D01*
X113058143Y-62626686D02*
X113396810Y-62626686D01*
X113058143Y-62430743D02*
X113324238Y-62430743D01*
X113372619Y-62452515D01*
X113396810Y-62496057D01*
X113396810Y-62561372D01*
X113372619Y-62604915D01*
X113348429Y-62626686D01*
D12*
X105547643Y-61989428D02*
X105575462Y-61965238D01*
X105603281Y-61892666D01*
X105603281Y-61844285D01*
X105575462Y-61771714D01*
X105519824Y-61723333D01*
X105464186Y-61699142D01*
X105352910Y-61674952D01*
X105269452Y-61674952D01*
X105158176Y-61699142D01*
X105102538Y-61723333D01*
X105046900Y-61771714D01*
X105019081Y-61844285D01*
X105019081Y-61892666D01*
X105046900Y-61965238D01*
X105074719Y-61989428D01*
X105269452Y-62279714D02*
X105241633Y-62231333D01*
X105213814Y-62207142D01*
X105158176Y-62182952D01*
X105130357Y-62182952D01*
X105074719Y-62207142D01*
X105046900Y-62231333D01*
X105019081Y-62279714D01*
X105019081Y-62376476D01*
X105046900Y-62424857D01*
X105074719Y-62449047D01*
X105130357Y-62473238D01*
X105158176Y-62473238D01*
X105213814Y-62449047D01*
X105241633Y-62424857D01*
X105269452Y-62376476D01*
X105269452Y-62279714D01*
X105297271Y-62231333D01*
X105325090Y-62207142D01*
X105380729Y-62182952D01*
X105492005Y-62182952D01*
X105547643Y-62207142D01*
X105575462Y-62231333D01*
X105603281Y-62279714D01*
X105603281Y-62376476D01*
X105575462Y-62424857D01*
X105547643Y-62449047D01*
X105492005Y-62473238D01*
X105380729Y-62473238D01*
X105325090Y-62449047D01*
X105297271Y-62424857D01*
X105269452Y-62376476D01*
X105019081Y-62642571D02*
X105019081Y-62981238D01*
X105603281Y-62763524D01*
D13*
X103790810Y-62239800D02*
X103790810Y-61978543D01*
X103790810Y-62109171D02*
X103282810Y-62109171D01*
X103355381Y-62065628D01*
X103403762Y-62022086D01*
X103427952Y-61978543D01*
X103452143Y-62631686D02*
X103790810Y-62631686D01*
X103452143Y-62435743D02*
X103718238Y-62435743D01*
X103766619Y-62457515D01*
X103790810Y-62501057D01*
X103790810Y-62566372D01*
X103766619Y-62609915D01*
X103742429Y-62631686D01*
D12*
X114086643Y-38173428D02*
X114114462Y-38149238D01*
X114142281Y-38076666D01*
X114142281Y-38028285D01*
X114114462Y-37955714D01*
X114058824Y-37907333D01*
X114003186Y-37883142D01*
X113891910Y-37858952D01*
X113808452Y-37858952D01*
X113697176Y-37883142D01*
X113641538Y-37907333D01*
X113585900Y-37955714D01*
X113558081Y-38028285D01*
X113558081Y-38076666D01*
X113585900Y-38149238D01*
X113613719Y-38173428D01*
X113808452Y-38463714D02*
X113780633Y-38415333D01*
X113752814Y-38391142D01*
X113697176Y-38366952D01*
X113669357Y-38366952D01*
X113613719Y-38391142D01*
X113585900Y-38415333D01*
X113558081Y-38463714D01*
X113558081Y-38560476D01*
X113585900Y-38608857D01*
X113613719Y-38633047D01*
X113669357Y-38657238D01*
X113697176Y-38657238D01*
X113752814Y-38633047D01*
X113780633Y-38608857D01*
X113808452Y-38560476D01*
X113808452Y-38463714D01*
X113836271Y-38415333D01*
X113864090Y-38391142D01*
X113919729Y-38366952D01*
X114031005Y-38366952D01*
X114086643Y-38391142D01*
X114114462Y-38415333D01*
X114142281Y-38463714D01*
X114142281Y-38560476D01*
X114114462Y-38608857D01*
X114086643Y-38633047D01*
X114031005Y-38657238D01*
X113919729Y-38657238D01*
X113864090Y-38633047D01*
X113836271Y-38608857D01*
X113808452Y-38560476D01*
X113558081Y-39092667D02*
X113558081Y-38995905D01*
X113585900Y-38947524D01*
X113613719Y-38923333D01*
X113697176Y-38874952D01*
X113808452Y-38850762D01*
X114031005Y-38850762D01*
X114086643Y-38874952D01*
X114114462Y-38899143D01*
X114142281Y-38947524D01*
X114142281Y-39044286D01*
X114114462Y-39092667D01*
X114086643Y-39116857D01*
X114031005Y-39141048D01*
X113891910Y-39141048D01*
X113836271Y-39116857D01*
X113808452Y-39092667D01*
X113780633Y-39044286D01*
X113780633Y-38947524D01*
X113808452Y-38899143D01*
X113836271Y-38874952D01*
X113891910Y-38850762D01*
D13*
X111821810Y-37944829D02*
X111821810Y-37988372D01*
X111846000Y-38031915D01*
X111870190Y-38053686D01*
X111918571Y-38075457D01*
X112015333Y-38097229D01*
X112136286Y-38097229D01*
X112233048Y-38075457D01*
X112281429Y-38053686D01*
X112305619Y-38031915D01*
X112329810Y-37988372D01*
X112329810Y-37944829D01*
X112305619Y-37901286D01*
X112281429Y-37879515D01*
X112233048Y-37857743D01*
X112136286Y-37835972D01*
X112015333Y-37835972D01*
X111918571Y-37857743D01*
X111870190Y-37879515D01*
X111846000Y-37901286D01*
X111821810Y-37944829D01*
X112281429Y-38293172D02*
X112305619Y-38314944D01*
X112329810Y-38293172D01*
X112305619Y-38271401D01*
X112281429Y-38293172D01*
X112329810Y-38293172D01*
X112329810Y-38750372D02*
X112329810Y-38489115D01*
X112329810Y-38619743D02*
X111821810Y-38619743D01*
X111894381Y-38576200D01*
X111942762Y-38532658D01*
X111966952Y-38489115D01*
X111991143Y-39142258D02*
X112329810Y-39142258D01*
X111991143Y-38946315D02*
X112257238Y-38946315D01*
X112305619Y-38968087D01*
X112329810Y-39011629D01*
X112329810Y-39076944D01*
X112305619Y-39120487D01*
X112281429Y-39142258D01*
D12*
X109930643Y-39873428D02*
X109958462Y-39849238D01*
X109986281Y-39776666D01*
X109986281Y-39728285D01*
X109958462Y-39655714D01*
X109902824Y-39607333D01*
X109847186Y-39583142D01*
X109735910Y-39558952D01*
X109652452Y-39558952D01*
X109541176Y-39583142D01*
X109485538Y-39607333D01*
X109429900Y-39655714D01*
X109402081Y-39728285D01*
X109402081Y-39776666D01*
X109429900Y-39849238D01*
X109457719Y-39873428D01*
X109652452Y-40163714D02*
X109624633Y-40115333D01*
X109596814Y-40091142D01*
X109541176Y-40066952D01*
X109513357Y-40066952D01*
X109457719Y-40091142D01*
X109429900Y-40115333D01*
X109402081Y-40163714D01*
X109402081Y-40260476D01*
X109429900Y-40308857D01*
X109457719Y-40333047D01*
X109513357Y-40357238D01*
X109541176Y-40357238D01*
X109596814Y-40333047D01*
X109624633Y-40308857D01*
X109652452Y-40260476D01*
X109652452Y-40163714D01*
X109680271Y-40115333D01*
X109708090Y-40091142D01*
X109763729Y-40066952D01*
X109875005Y-40066952D01*
X109930643Y-40091142D01*
X109958462Y-40115333D01*
X109986281Y-40163714D01*
X109986281Y-40260476D01*
X109958462Y-40308857D01*
X109930643Y-40333047D01*
X109875005Y-40357238D01*
X109763729Y-40357238D01*
X109708090Y-40333047D01*
X109680271Y-40308857D01*
X109652452Y-40260476D01*
X109402081Y-40816857D02*
X109402081Y-40574952D01*
X109680271Y-40550762D01*
X109652452Y-40574952D01*
X109624633Y-40623333D01*
X109624633Y-40744286D01*
X109652452Y-40792667D01*
X109680271Y-40816857D01*
X109735910Y-40841048D01*
X109875005Y-40841048D01*
X109930643Y-40816857D01*
X109958462Y-40792667D01*
X109986281Y-40744286D01*
X109986281Y-40623333D01*
X109958462Y-40574952D01*
X109930643Y-40550762D01*
D13*
X111221810Y-39644829D02*
X111221810Y-39688372D01*
X111246000Y-39731915D01*
X111270190Y-39753686D01*
X111318571Y-39775457D01*
X111415333Y-39797229D01*
X111536286Y-39797229D01*
X111633048Y-39775457D01*
X111681429Y-39753686D01*
X111705619Y-39731915D01*
X111729810Y-39688372D01*
X111729810Y-39644829D01*
X111705619Y-39601286D01*
X111681429Y-39579515D01*
X111633048Y-39557743D01*
X111536286Y-39535972D01*
X111415333Y-39535972D01*
X111318571Y-39557743D01*
X111270190Y-39579515D01*
X111246000Y-39601286D01*
X111221810Y-39644829D01*
X111681429Y-39993172D02*
X111705619Y-40014944D01*
X111729810Y-39993172D01*
X111705619Y-39971401D01*
X111681429Y-39993172D01*
X111729810Y-39993172D01*
X111729810Y-40450372D02*
X111729810Y-40189115D01*
X111729810Y-40319743D02*
X111221810Y-40319743D01*
X111294381Y-40276200D01*
X111342762Y-40232658D01*
X111366952Y-40189115D01*
X111391143Y-40842258D02*
X111729810Y-40842258D01*
X111391143Y-40646315D02*
X111657238Y-40646315D01*
X111705619Y-40668087D01*
X111729810Y-40711629D01*
X111729810Y-40776944D01*
X111705619Y-40820487D01*
X111681429Y-40842258D01*
D12*
X108486643Y-39873428D02*
X108514462Y-39849238D01*
X108542281Y-39776666D01*
X108542281Y-39728285D01*
X108514462Y-39655714D01*
X108458824Y-39607333D01*
X108403186Y-39583142D01*
X108291910Y-39558952D01*
X108208452Y-39558952D01*
X108097176Y-39583142D01*
X108041538Y-39607333D01*
X107985900Y-39655714D01*
X107958081Y-39728285D01*
X107958081Y-39776666D01*
X107985900Y-39849238D01*
X108013719Y-39873428D01*
X108208452Y-40163714D02*
X108180633Y-40115333D01*
X108152814Y-40091142D01*
X108097176Y-40066952D01*
X108069357Y-40066952D01*
X108013719Y-40091142D01*
X107985900Y-40115333D01*
X107958081Y-40163714D01*
X107958081Y-40260476D01*
X107985900Y-40308857D01*
X108013719Y-40333047D01*
X108069357Y-40357238D01*
X108097176Y-40357238D01*
X108152814Y-40333047D01*
X108180633Y-40308857D01*
X108208452Y-40260476D01*
X108208452Y-40163714D01*
X108236271Y-40115333D01*
X108264090Y-40091142D01*
X108319729Y-40066952D01*
X108431005Y-40066952D01*
X108486643Y-40091142D01*
X108514462Y-40115333D01*
X108542281Y-40163714D01*
X108542281Y-40260476D01*
X108514462Y-40308857D01*
X108486643Y-40333047D01*
X108431005Y-40357238D01*
X108319729Y-40357238D01*
X108264090Y-40333047D01*
X108236271Y-40308857D01*
X108208452Y-40260476D01*
X108152814Y-40792667D02*
X108542281Y-40792667D01*
X107930262Y-40671714D02*
X108347548Y-40550762D01*
X108347548Y-40865238D01*
D13*
X106221810Y-39644829D02*
X106221810Y-39688372D01*
X106246000Y-39731915D01*
X106270190Y-39753686D01*
X106318571Y-39775457D01*
X106415333Y-39797229D01*
X106536286Y-39797229D01*
X106633048Y-39775457D01*
X106681429Y-39753686D01*
X106705619Y-39731915D01*
X106729810Y-39688372D01*
X106729810Y-39644829D01*
X106705619Y-39601286D01*
X106681429Y-39579515D01*
X106633048Y-39557743D01*
X106536286Y-39535972D01*
X106415333Y-39535972D01*
X106318571Y-39557743D01*
X106270190Y-39579515D01*
X106246000Y-39601286D01*
X106221810Y-39644829D01*
X106681429Y-39993172D02*
X106705619Y-40014944D01*
X106729810Y-39993172D01*
X106705619Y-39971401D01*
X106681429Y-39993172D01*
X106729810Y-39993172D01*
X106729810Y-40450372D02*
X106729810Y-40189115D01*
X106729810Y-40319743D02*
X106221810Y-40319743D01*
X106294381Y-40276200D01*
X106342762Y-40232658D01*
X106366952Y-40189115D01*
X106391143Y-40842258D02*
X106729810Y-40842258D01*
X106391143Y-40646315D02*
X106657238Y-40646315D01*
X106705619Y-40668087D01*
X106729810Y-40711629D01*
X106729810Y-40776944D01*
X106705619Y-40820487D01*
X106681429Y-40842258D01*
D12*
X108519643Y-38200428D02*
X108547462Y-38176238D01*
X108575281Y-38103666D01*
X108575281Y-38055285D01*
X108547462Y-37982714D01*
X108491824Y-37934333D01*
X108436186Y-37910142D01*
X108324910Y-37885952D01*
X108241452Y-37885952D01*
X108130176Y-37910142D01*
X108074538Y-37934333D01*
X108018900Y-37982714D01*
X107991081Y-38055285D01*
X107991081Y-38103666D01*
X108018900Y-38176238D01*
X108046719Y-38200428D01*
X108241452Y-38490714D02*
X108213633Y-38442333D01*
X108185814Y-38418142D01*
X108130176Y-38393952D01*
X108102357Y-38393952D01*
X108046719Y-38418142D01*
X108018900Y-38442333D01*
X107991081Y-38490714D01*
X107991081Y-38587476D01*
X108018900Y-38635857D01*
X108046719Y-38660047D01*
X108102357Y-38684238D01*
X108130176Y-38684238D01*
X108185814Y-38660047D01*
X108213633Y-38635857D01*
X108241452Y-38587476D01*
X108241452Y-38490714D01*
X108269271Y-38442333D01*
X108297090Y-38418142D01*
X108352729Y-38393952D01*
X108464005Y-38393952D01*
X108519643Y-38418142D01*
X108547462Y-38442333D01*
X108575281Y-38490714D01*
X108575281Y-38587476D01*
X108547462Y-38635857D01*
X108519643Y-38660047D01*
X108464005Y-38684238D01*
X108352729Y-38684238D01*
X108297090Y-38660047D01*
X108269271Y-38635857D01*
X108241452Y-38587476D01*
X107991081Y-38853571D02*
X107991081Y-39168048D01*
X108213633Y-38998714D01*
X108213633Y-39071286D01*
X108241452Y-39119667D01*
X108269271Y-39143857D01*
X108324910Y-39168048D01*
X108464005Y-39168048D01*
X108519643Y-39143857D01*
X108547462Y-39119667D01*
X108575281Y-39071286D01*
X108575281Y-38926143D01*
X108547462Y-38877762D01*
X108519643Y-38853571D01*
D13*
X106221810Y-37944829D02*
X106221810Y-37988372D01*
X106246000Y-38031915D01*
X106270190Y-38053686D01*
X106318571Y-38075457D01*
X106415333Y-38097229D01*
X106536286Y-38097229D01*
X106633048Y-38075457D01*
X106681429Y-38053686D01*
X106705619Y-38031915D01*
X106729810Y-37988372D01*
X106729810Y-37944829D01*
X106705619Y-37901286D01*
X106681429Y-37879515D01*
X106633048Y-37857743D01*
X106536286Y-37835972D01*
X106415333Y-37835972D01*
X106318571Y-37857743D01*
X106270190Y-37879515D01*
X106246000Y-37901286D01*
X106221810Y-37944829D01*
X106681429Y-38293172D02*
X106705619Y-38314944D01*
X106729810Y-38293172D01*
X106705619Y-38271401D01*
X106681429Y-38293172D01*
X106729810Y-38293172D01*
X106729810Y-38750372D02*
X106729810Y-38489115D01*
X106729810Y-38619743D02*
X106221810Y-38619743D01*
X106294381Y-38576200D01*
X106342762Y-38532658D01*
X106366952Y-38489115D01*
X106391143Y-39142258D02*
X106729810Y-39142258D01*
X106391143Y-38946315D02*
X106657238Y-38946315D01*
X106705619Y-38968087D01*
X106729810Y-39011629D01*
X106729810Y-39076944D01*
X106705619Y-39120487D01*
X106681429Y-39142258D01*
D12*
X99926572Y-41030643D02*
X99950762Y-41058462D01*
X100023334Y-41086281D01*
X100071715Y-41086281D01*
X100144286Y-41058462D01*
X100192667Y-41002824D01*
X100216858Y-40947186D01*
X100241048Y-40835910D01*
X100241048Y-40752452D01*
X100216858Y-40641176D01*
X100192667Y-40585538D01*
X100144286Y-40529900D01*
X100071715Y-40502081D01*
X100023334Y-40502081D01*
X99950762Y-40529900D01*
X99926572Y-40557719D01*
X99636286Y-40752452D02*
X99684667Y-40724633D01*
X99708858Y-40696814D01*
X99733048Y-40641176D01*
X99733048Y-40613357D01*
X99708858Y-40557719D01*
X99684667Y-40529900D01*
X99636286Y-40502081D01*
X99539524Y-40502081D01*
X99491143Y-40529900D01*
X99466953Y-40557719D01*
X99442762Y-40613357D01*
X99442762Y-40641176D01*
X99466953Y-40696814D01*
X99491143Y-40724633D01*
X99539524Y-40752452D01*
X99636286Y-40752452D01*
X99684667Y-40780271D01*
X99708858Y-40808090D01*
X99733048Y-40863729D01*
X99733048Y-40975005D01*
X99708858Y-41030643D01*
X99684667Y-41058462D01*
X99636286Y-41086281D01*
X99539524Y-41086281D01*
X99491143Y-41058462D01*
X99466953Y-41030643D01*
X99442762Y-40975005D01*
X99442762Y-40863729D01*
X99466953Y-40808090D01*
X99491143Y-40780271D01*
X99539524Y-40752452D01*
X99249238Y-40557719D02*
X99225048Y-40529900D01*
X99176667Y-40502081D01*
X99055714Y-40502081D01*
X99007333Y-40529900D01*
X98983143Y-40557719D01*
X98958952Y-40613357D01*
X98958952Y-40668995D01*
X98983143Y-40752452D01*
X99273429Y-41086281D01*
X98958952Y-41086281D01*
D13*
X100155171Y-42321810D02*
X100111628Y-42321810D01*
X100068085Y-42346000D01*
X100046314Y-42370190D01*
X100024543Y-42418571D01*
X100002771Y-42515333D01*
X100002771Y-42636286D01*
X100024543Y-42733048D01*
X100046314Y-42781429D01*
X100068085Y-42805619D01*
X100111628Y-42829810D01*
X100155171Y-42829810D01*
X100198714Y-42805619D01*
X100220485Y-42781429D01*
X100242257Y-42733048D01*
X100264028Y-42636286D01*
X100264028Y-42515333D01*
X100242257Y-42418571D01*
X100220485Y-42370190D01*
X100198714Y-42346000D01*
X100155171Y-42321810D01*
X99806828Y-42781429D02*
X99785056Y-42805619D01*
X99806828Y-42829810D01*
X99828599Y-42805619D01*
X99806828Y-42781429D01*
X99806828Y-42829810D01*
X99349628Y-42829810D02*
X99610885Y-42829810D01*
X99480257Y-42829810D02*
X99480257Y-42321810D01*
X99523800Y-42394381D01*
X99567342Y-42442762D01*
X99610885Y-42466952D01*
X98957742Y-42491143D02*
X98957742Y-42829810D01*
X99153685Y-42491143D02*
X99153685Y-42757238D01*
X99131913Y-42805619D01*
X99088371Y-42829810D01*
X99023056Y-42829810D01*
X98979513Y-42805619D01*
X98957742Y-42781429D01*
D12*
X115342572Y-43048643D02*
X115366762Y-43076462D01*
X115439334Y-43104281D01*
X115487715Y-43104281D01*
X115560286Y-43076462D01*
X115608667Y-43020824D01*
X115632858Y-42965186D01*
X115657048Y-42853910D01*
X115657048Y-42770452D01*
X115632858Y-42659176D01*
X115608667Y-42603538D01*
X115560286Y-42547900D01*
X115487715Y-42520081D01*
X115439334Y-42520081D01*
X115366762Y-42547900D01*
X115342572Y-42575719D01*
X115052286Y-42770452D02*
X115100667Y-42742633D01*
X115124858Y-42714814D01*
X115149048Y-42659176D01*
X115149048Y-42631357D01*
X115124858Y-42575719D01*
X115100667Y-42547900D01*
X115052286Y-42520081D01*
X114955524Y-42520081D01*
X114907143Y-42547900D01*
X114882953Y-42575719D01*
X114858762Y-42631357D01*
X114858762Y-42659176D01*
X114882953Y-42714814D01*
X114907143Y-42742633D01*
X114955524Y-42770452D01*
X115052286Y-42770452D01*
X115100667Y-42798271D01*
X115124858Y-42826090D01*
X115149048Y-42881729D01*
X115149048Y-42993005D01*
X115124858Y-43048643D01*
X115100667Y-43076462D01*
X115052286Y-43104281D01*
X114955524Y-43104281D01*
X114907143Y-43076462D01*
X114882953Y-43048643D01*
X114858762Y-42993005D01*
X114858762Y-42881729D01*
X114882953Y-42826090D01*
X114907143Y-42798271D01*
X114955524Y-42770452D01*
X114544286Y-42520081D02*
X114495905Y-42520081D01*
X114447524Y-42547900D01*
X114423333Y-42575719D01*
X114399143Y-42631357D01*
X114374952Y-42742633D01*
X114374952Y-42881729D01*
X114399143Y-42993005D01*
X114423333Y-43048643D01*
X114447524Y-43076462D01*
X114495905Y-43104281D01*
X114544286Y-43104281D01*
X114592667Y-43076462D01*
X114616857Y-43048643D01*
X114641048Y-42993005D01*
X114665238Y-42881729D01*
X114665238Y-42742633D01*
X114641048Y-42631357D01*
X114616857Y-42575719D01*
X114592667Y-42547900D01*
X114544286Y-42520081D01*
D13*
X115555171Y-44321810D02*
X115511628Y-44321810D01*
X115468085Y-44346000D01*
X115446314Y-44370190D01*
X115424543Y-44418571D01*
X115402771Y-44515333D01*
X115402771Y-44636286D01*
X115424543Y-44733048D01*
X115446314Y-44781429D01*
X115468085Y-44805619D01*
X115511628Y-44829810D01*
X115555171Y-44829810D01*
X115598714Y-44805619D01*
X115620485Y-44781429D01*
X115642257Y-44733048D01*
X115664028Y-44636286D01*
X115664028Y-44515333D01*
X115642257Y-44418571D01*
X115620485Y-44370190D01*
X115598714Y-44346000D01*
X115555171Y-44321810D01*
X115206828Y-44781429D02*
X115185056Y-44805619D01*
X115206828Y-44829810D01*
X115228599Y-44805619D01*
X115206828Y-44781429D01*
X115206828Y-44829810D01*
X114749628Y-44829810D02*
X115010885Y-44829810D01*
X114880257Y-44829810D02*
X114880257Y-44321810D01*
X114923800Y-44394381D01*
X114967342Y-44442762D01*
X115010885Y-44466952D01*
X114357742Y-44491143D02*
X114357742Y-44829810D01*
X114553685Y-44491143D02*
X114553685Y-44757238D01*
X114531913Y-44805619D01*
X114488371Y-44829810D01*
X114423056Y-44829810D01*
X114379513Y-44805619D01*
X114357742Y-44781429D01*
D12*
X99826572Y-49686643D02*
X99850762Y-49714462D01*
X99923334Y-49742281D01*
X99971715Y-49742281D01*
X100044286Y-49714462D01*
X100092667Y-49658824D01*
X100116858Y-49603186D01*
X100141048Y-49491910D01*
X100141048Y-49408452D01*
X100116858Y-49297176D01*
X100092667Y-49241538D01*
X100044286Y-49185900D01*
X99971715Y-49158081D01*
X99923334Y-49158081D01*
X99850762Y-49185900D01*
X99826572Y-49213719D01*
X99657239Y-49158081D02*
X99318572Y-49158081D01*
X99536286Y-49742281D01*
X99100857Y-49742281D02*
X99004095Y-49742281D01*
X98955714Y-49714462D01*
X98931524Y-49686643D01*
X98883143Y-49603186D01*
X98858952Y-49491910D01*
X98858952Y-49269357D01*
X98883143Y-49213719D01*
X98907333Y-49185900D01*
X98955714Y-49158081D01*
X99052476Y-49158081D01*
X99100857Y-49185900D01*
X99125048Y-49213719D01*
X99149238Y-49269357D01*
X99149238Y-49408452D01*
X99125048Y-49464090D01*
X99100857Y-49491910D01*
X99052476Y-49519729D01*
X98955714Y-49519729D01*
X98907333Y-49491910D01*
X98883143Y-49464090D01*
X98858952Y-49408452D01*
D13*
X100055171Y-47421810D02*
X100011628Y-47421810D01*
X99968085Y-47446000D01*
X99946314Y-47470190D01*
X99924543Y-47518571D01*
X99902771Y-47615333D01*
X99902771Y-47736286D01*
X99924543Y-47833048D01*
X99946314Y-47881429D01*
X99968085Y-47905619D01*
X100011628Y-47929810D01*
X100055171Y-47929810D01*
X100098714Y-47905619D01*
X100120485Y-47881429D01*
X100142257Y-47833048D01*
X100164028Y-47736286D01*
X100164028Y-47615333D01*
X100142257Y-47518571D01*
X100120485Y-47470190D01*
X100098714Y-47446000D01*
X100055171Y-47421810D01*
X99706828Y-47881429D02*
X99685056Y-47905619D01*
X99706828Y-47929810D01*
X99728599Y-47905619D01*
X99706828Y-47881429D01*
X99706828Y-47929810D01*
X99249628Y-47929810D02*
X99510885Y-47929810D01*
X99380257Y-47929810D02*
X99380257Y-47421810D01*
X99423800Y-47494381D01*
X99467342Y-47542762D01*
X99510885Y-47566952D01*
X98857742Y-47591143D02*
X98857742Y-47929810D01*
X99053685Y-47591143D02*
X99053685Y-47857238D01*
X99031913Y-47905619D01*
X98988371Y-47929810D01*
X98923056Y-47929810D01*
X98879513Y-47905619D01*
X98857742Y-47881429D01*
D12*
X116920572Y-48389643D02*
X116944762Y-48417462D01*
X117017334Y-48445281D01*
X117065715Y-48445281D01*
X117138286Y-48417462D01*
X117186667Y-48361824D01*
X117210858Y-48306186D01*
X117235048Y-48194910D01*
X117235048Y-48111452D01*
X117210858Y-48000176D01*
X117186667Y-47944538D01*
X117138286Y-47888900D01*
X117065715Y-47861081D01*
X117017334Y-47861081D01*
X116944762Y-47888900D01*
X116920572Y-47916719D01*
X116751239Y-47861081D02*
X116412572Y-47861081D01*
X116630286Y-48445281D01*
X116146476Y-48111452D02*
X116194857Y-48083633D01*
X116219048Y-48055814D01*
X116243238Y-48000176D01*
X116243238Y-47972357D01*
X116219048Y-47916719D01*
X116194857Y-47888900D01*
X116146476Y-47861081D01*
X116049714Y-47861081D01*
X116001333Y-47888900D01*
X115977143Y-47916719D01*
X115952952Y-47972357D01*
X115952952Y-48000176D01*
X115977143Y-48055814D01*
X116001333Y-48083633D01*
X116049714Y-48111452D01*
X116146476Y-48111452D01*
X116194857Y-48139271D01*
X116219048Y-48167090D01*
X116243238Y-48222729D01*
X116243238Y-48334005D01*
X116219048Y-48389643D01*
X116194857Y-48417462D01*
X116146476Y-48445281D01*
X116049714Y-48445281D01*
X116001333Y-48417462D01*
X115977143Y-48389643D01*
X115952952Y-48334005D01*
X115952952Y-48222729D01*
X115977143Y-48167090D01*
X116001333Y-48139271D01*
X116049714Y-48111452D01*
D13*
X115555171Y-47021810D02*
X115511628Y-47021810D01*
X115468085Y-47046000D01*
X115446314Y-47070190D01*
X115424543Y-47118571D01*
X115402771Y-47215333D01*
X115402771Y-47336286D01*
X115424543Y-47433048D01*
X115446314Y-47481429D01*
X115468085Y-47505619D01*
X115511628Y-47529810D01*
X115555171Y-47529810D01*
X115598714Y-47505619D01*
X115620485Y-47481429D01*
X115642257Y-47433048D01*
X115664028Y-47336286D01*
X115664028Y-47215333D01*
X115642257Y-47118571D01*
X115620485Y-47070190D01*
X115598714Y-47046000D01*
X115555171Y-47021810D01*
X115206828Y-47481429D02*
X115185056Y-47505619D01*
X115206828Y-47529810D01*
X115228599Y-47505619D01*
X115206828Y-47481429D01*
X115206828Y-47529810D01*
X114749628Y-47529810D02*
X115010885Y-47529810D01*
X114880257Y-47529810D02*
X114880257Y-47021810D01*
X114923800Y-47094381D01*
X114967342Y-47142762D01*
X115010885Y-47166952D01*
X114357742Y-47191143D02*
X114357742Y-47529810D01*
X114553685Y-47191143D02*
X114553685Y-47457238D01*
X114531913Y-47505619D01*
X114488371Y-47529810D01*
X114423056Y-47529810D01*
X114379513Y-47505619D01*
X114357742Y-47481429D01*
D12*
X116912572Y-51300643D02*
X116936762Y-51328462D01*
X117009334Y-51356281D01*
X117057715Y-51356281D01*
X117130286Y-51328462D01*
X117178667Y-51272824D01*
X117202858Y-51217186D01*
X117227048Y-51105910D01*
X117227048Y-51022452D01*
X117202858Y-50911176D01*
X117178667Y-50855538D01*
X117130286Y-50799900D01*
X117057715Y-50772081D01*
X117009334Y-50772081D01*
X116936762Y-50799900D01*
X116912572Y-50827719D01*
X116743239Y-50772081D02*
X116404572Y-50772081D01*
X116622286Y-51356281D01*
X116259429Y-50772081D02*
X115920762Y-50772081D01*
X116138476Y-51356281D01*
D13*
X115555171Y-49921810D02*
X115511628Y-49921810D01*
X115468085Y-49946000D01*
X115446314Y-49970190D01*
X115424543Y-50018571D01*
X115402771Y-50115333D01*
X115402771Y-50236286D01*
X115424543Y-50333048D01*
X115446314Y-50381429D01*
X115468085Y-50405619D01*
X115511628Y-50429810D01*
X115555171Y-50429810D01*
X115598714Y-50405619D01*
X115620485Y-50381429D01*
X115642257Y-50333048D01*
X115664028Y-50236286D01*
X115664028Y-50115333D01*
X115642257Y-50018571D01*
X115620485Y-49970190D01*
X115598714Y-49946000D01*
X115555171Y-49921810D01*
X115206828Y-50381429D02*
X115185056Y-50405619D01*
X115206828Y-50429810D01*
X115228599Y-50405619D01*
X115206828Y-50381429D01*
X115206828Y-50429810D01*
X114749628Y-50429810D02*
X115010885Y-50429810D01*
X114880257Y-50429810D02*
X114880257Y-49921810D01*
X114923800Y-49994381D01*
X114967342Y-50042762D01*
X115010885Y-50066952D01*
X114357742Y-50091143D02*
X114357742Y-50429810D01*
X114553685Y-50091143D02*
X114553685Y-50357238D01*
X114531913Y-50405619D01*
X114488371Y-50429810D01*
X114423056Y-50429810D01*
X114379513Y-50405619D01*
X114357742Y-50381429D01*
D12*
X99615572Y-52070643D02*
X99639762Y-52098462D01*
X99712334Y-52126281D01*
X99760715Y-52126281D01*
X99833286Y-52098462D01*
X99881667Y-52042824D01*
X99905858Y-51987186D01*
X99930048Y-51875910D01*
X99930048Y-51792452D01*
X99905858Y-51681176D01*
X99881667Y-51625538D01*
X99833286Y-51569900D01*
X99760715Y-51542081D01*
X99712334Y-51542081D01*
X99639762Y-51569900D01*
X99615572Y-51597719D01*
X99446239Y-51542081D02*
X99107572Y-51542081D01*
X99325286Y-52126281D01*
X98672143Y-51542081D02*
X98914048Y-51542081D01*
X98938238Y-51820271D01*
X98914048Y-51792452D01*
X98865667Y-51764633D01*
X98744714Y-51764633D01*
X98696333Y-51792452D01*
X98672143Y-51820271D01*
X98647952Y-51875910D01*
X98647952Y-52015005D01*
X98672143Y-52070643D01*
X98696333Y-52098462D01*
X98744714Y-52126281D01*
X98865667Y-52126281D01*
X98914048Y-52098462D01*
X98938238Y-52070643D01*
D13*
X100155171Y-53321810D02*
X100111628Y-53321810D01*
X100068085Y-53346000D01*
X100046314Y-53370190D01*
X100024543Y-53418571D01*
X100002771Y-53515333D01*
X100002771Y-53636286D01*
X100024543Y-53733048D01*
X100046314Y-53781429D01*
X100068085Y-53805619D01*
X100111628Y-53829810D01*
X100155171Y-53829810D01*
X100198714Y-53805619D01*
X100220485Y-53781429D01*
X100242257Y-53733048D01*
X100264028Y-53636286D01*
X100264028Y-53515333D01*
X100242257Y-53418571D01*
X100220485Y-53370190D01*
X100198714Y-53346000D01*
X100155171Y-53321810D01*
X99806828Y-53781429D02*
X99785056Y-53805619D01*
X99806828Y-53829810D01*
X99828599Y-53805619D01*
X99806828Y-53781429D01*
X99806828Y-53829810D01*
X99349628Y-53829810D02*
X99610885Y-53829810D01*
X99480257Y-53829810D02*
X99480257Y-53321810D01*
X99523800Y-53394381D01*
X99567342Y-53442762D01*
X99610885Y-53466952D01*
X98957742Y-53491143D02*
X98957742Y-53829810D01*
X99153685Y-53491143D02*
X99153685Y-53757238D01*
X99131913Y-53805619D01*
X99088371Y-53829810D01*
X99023056Y-53829810D01*
X98979513Y-53805619D01*
X98957742Y-53781429D01*
D12*
X116992572Y-53060643D02*
X117016762Y-53088462D01*
X117089334Y-53116281D01*
X117137715Y-53116281D01*
X117210286Y-53088462D01*
X117258667Y-53032824D01*
X117282858Y-52977186D01*
X117307048Y-52865910D01*
X117307048Y-52782452D01*
X117282858Y-52671176D01*
X117258667Y-52615538D01*
X117210286Y-52559900D01*
X117137715Y-52532081D01*
X117089334Y-52532081D01*
X117016762Y-52559900D01*
X116992572Y-52587719D01*
X116823239Y-52532081D02*
X116484572Y-52532081D01*
X116702286Y-53116281D01*
X116073333Y-52726814D02*
X116073333Y-53116281D01*
X116194286Y-52504262D02*
X116315238Y-52921548D01*
X116000762Y-52921548D01*
D13*
X115555171Y-53421810D02*
X115511628Y-53421810D01*
X115468085Y-53446000D01*
X115446314Y-53470190D01*
X115424543Y-53518571D01*
X115402771Y-53615333D01*
X115402771Y-53736286D01*
X115424543Y-53833048D01*
X115446314Y-53881429D01*
X115468085Y-53905619D01*
X115511628Y-53929810D01*
X115555171Y-53929810D01*
X115598714Y-53905619D01*
X115620485Y-53881429D01*
X115642257Y-53833048D01*
X115664028Y-53736286D01*
X115664028Y-53615333D01*
X115642257Y-53518571D01*
X115620485Y-53470190D01*
X115598714Y-53446000D01*
X115555171Y-53421810D01*
X115206828Y-53881429D02*
X115185056Y-53905619D01*
X115206828Y-53929810D01*
X115228599Y-53905619D01*
X115206828Y-53881429D01*
X115206828Y-53929810D01*
X114749628Y-53929810D02*
X115010885Y-53929810D01*
X114880257Y-53929810D02*
X114880257Y-53421810D01*
X114923800Y-53494381D01*
X114967342Y-53542762D01*
X115010885Y-53566952D01*
X114357742Y-53591143D02*
X114357742Y-53929810D01*
X114553685Y-53591143D02*
X114553685Y-53857238D01*
X114531913Y-53905619D01*
X114488371Y-53929810D01*
X114423056Y-53929810D01*
X114379513Y-53905619D01*
X114357742Y-53881429D01*
D12*
X109586643Y-56973428D02*
X109614462Y-56949238D01*
X109642281Y-56876666D01*
X109642281Y-56828285D01*
X109614462Y-56755714D01*
X109558824Y-56707333D01*
X109503186Y-56683142D01*
X109391910Y-56658952D01*
X109308452Y-56658952D01*
X109197176Y-56683142D01*
X109141538Y-56707333D01*
X109085900Y-56755714D01*
X109058081Y-56828285D01*
X109058081Y-56876666D01*
X109085900Y-56949238D01*
X109113719Y-56973428D01*
X109058081Y-57142761D02*
X109058081Y-57481428D01*
X109642281Y-57263714D01*
X109058081Y-57626571D02*
X109058081Y-57941048D01*
X109280633Y-57771714D01*
X109280633Y-57844286D01*
X109308452Y-57892667D01*
X109336271Y-57916857D01*
X109391910Y-57941048D01*
X109531005Y-57941048D01*
X109586643Y-57916857D01*
X109614462Y-57892667D01*
X109642281Y-57844286D01*
X109642281Y-57699143D01*
X109614462Y-57650762D01*
X109586643Y-57626571D01*
D13*
X107321810Y-56744829D02*
X107321810Y-56788372D01*
X107346000Y-56831915D01*
X107370190Y-56853686D01*
X107418571Y-56875457D01*
X107515333Y-56897229D01*
X107636286Y-56897229D01*
X107733048Y-56875457D01*
X107781429Y-56853686D01*
X107805619Y-56831915D01*
X107829810Y-56788372D01*
X107829810Y-56744829D01*
X107805619Y-56701286D01*
X107781429Y-56679515D01*
X107733048Y-56657743D01*
X107636286Y-56635972D01*
X107515333Y-56635972D01*
X107418571Y-56657743D01*
X107370190Y-56679515D01*
X107346000Y-56701286D01*
X107321810Y-56744829D01*
X107781429Y-57093172D02*
X107805619Y-57114944D01*
X107829810Y-57093172D01*
X107805619Y-57071401D01*
X107781429Y-57093172D01*
X107829810Y-57093172D01*
X107829810Y-57550372D02*
X107829810Y-57289115D01*
X107829810Y-57419743D02*
X107321810Y-57419743D01*
X107394381Y-57376200D01*
X107442762Y-57332658D01*
X107466952Y-57289115D01*
X107491143Y-57942258D02*
X107829810Y-57942258D01*
X107491143Y-57746315D02*
X107757238Y-57746315D01*
X107805619Y-57768087D01*
X107829810Y-57811629D01*
X107829810Y-57876944D01*
X107805619Y-57920487D01*
X107781429Y-57942258D01*
D12*
X108486643Y-55273428D02*
X108514462Y-55249238D01*
X108542281Y-55176666D01*
X108542281Y-55128285D01*
X108514462Y-55055714D01*
X108458824Y-55007333D01*
X108403186Y-54983142D01*
X108291910Y-54958952D01*
X108208452Y-54958952D01*
X108097176Y-54983142D01*
X108041538Y-55007333D01*
X107985900Y-55055714D01*
X107958081Y-55128285D01*
X107958081Y-55176666D01*
X107985900Y-55249238D01*
X108013719Y-55273428D01*
X107958081Y-55708857D02*
X107958081Y-55612095D01*
X107985900Y-55563714D01*
X108013719Y-55539523D01*
X108097176Y-55491142D01*
X108208452Y-55466952D01*
X108431005Y-55466952D01*
X108486643Y-55491142D01*
X108514462Y-55515333D01*
X108542281Y-55563714D01*
X108542281Y-55660476D01*
X108514462Y-55708857D01*
X108486643Y-55733047D01*
X108431005Y-55757238D01*
X108291910Y-55757238D01*
X108236271Y-55733047D01*
X108208452Y-55708857D01*
X108180633Y-55660476D01*
X108180633Y-55563714D01*
X108208452Y-55515333D01*
X108236271Y-55491142D01*
X108291910Y-55466952D01*
X108542281Y-55999143D02*
X108542281Y-56095905D01*
X108514462Y-56144286D01*
X108486643Y-56168476D01*
X108403186Y-56216857D01*
X108291910Y-56241048D01*
X108069357Y-56241048D01*
X108013719Y-56216857D01*
X107985900Y-56192667D01*
X107958081Y-56144286D01*
X107958081Y-56047524D01*
X107985900Y-55999143D01*
X108013719Y-55974952D01*
X108069357Y-55950762D01*
X108208452Y-55950762D01*
X108264090Y-55974952D01*
X108291910Y-55999143D01*
X108319729Y-56047524D01*
X108319729Y-56144286D01*
X108291910Y-56192667D01*
X108264090Y-56216857D01*
X108208452Y-56241048D01*
D13*
X106221810Y-55044829D02*
X106221810Y-55088372D01*
X106246000Y-55131915D01*
X106270190Y-55153686D01*
X106318571Y-55175457D01*
X106415333Y-55197229D01*
X106536286Y-55197229D01*
X106633048Y-55175457D01*
X106681429Y-55153686D01*
X106705619Y-55131915D01*
X106729810Y-55088372D01*
X106729810Y-55044829D01*
X106705619Y-55001286D01*
X106681429Y-54979515D01*
X106633048Y-54957743D01*
X106536286Y-54935972D01*
X106415333Y-54935972D01*
X106318571Y-54957743D01*
X106270190Y-54979515D01*
X106246000Y-55001286D01*
X106221810Y-55044829D01*
X106681429Y-55393172D02*
X106705619Y-55414944D01*
X106729810Y-55393172D01*
X106705619Y-55371401D01*
X106681429Y-55393172D01*
X106729810Y-55393172D01*
X106729810Y-55850372D02*
X106729810Y-55589115D01*
X106729810Y-55719743D02*
X106221810Y-55719743D01*
X106294381Y-55676200D01*
X106342762Y-55632658D01*
X106366952Y-55589115D01*
X106391143Y-56242258D02*
X106729810Y-56242258D01*
X106391143Y-56046315D02*
X106657238Y-56046315D01*
X106705619Y-56068087D01*
X106729810Y-56111629D01*
X106729810Y-56176944D01*
X106705619Y-56220487D01*
X106681429Y-56242258D01*
D12*
X70378643Y-56904428D02*
X70406462Y-56880238D01*
X70434281Y-56807666D01*
X70434281Y-56759285D01*
X70406462Y-56686714D01*
X70350824Y-56638333D01*
X70295186Y-56614142D01*
X70183910Y-56589952D01*
X70100452Y-56589952D01*
X69989176Y-56614142D01*
X69933538Y-56638333D01*
X69877900Y-56686714D01*
X69850081Y-56759285D01*
X69850081Y-56807666D01*
X69877900Y-56880238D01*
X69905719Y-56904428D01*
X69850081Y-57339857D02*
X69850081Y-57243095D01*
X69877900Y-57194714D01*
X69905719Y-57170523D01*
X69989176Y-57122142D01*
X70100452Y-57097952D01*
X70323005Y-57097952D01*
X70378643Y-57122142D01*
X70406462Y-57146333D01*
X70434281Y-57194714D01*
X70434281Y-57291476D01*
X70406462Y-57339857D01*
X70378643Y-57364047D01*
X70323005Y-57388238D01*
X70183910Y-57388238D01*
X70128271Y-57364047D01*
X70100452Y-57339857D01*
X70072633Y-57291476D01*
X70072633Y-57194714D01*
X70100452Y-57146333D01*
X70128271Y-57122142D01*
X70183910Y-57097952D01*
X70100452Y-57678524D02*
X70072633Y-57630143D01*
X70044814Y-57605952D01*
X69989176Y-57581762D01*
X69961357Y-57581762D01*
X69905719Y-57605952D01*
X69877900Y-57630143D01*
X69850081Y-57678524D01*
X69850081Y-57775286D01*
X69877900Y-57823667D01*
X69905719Y-57847857D01*
X69961357Y-57872048D01*
X69989176Y-57872048D01*
X70044814Y-57847857D01*
X70072633Y-57823667D01*
X70100452Y-57775286D01*
X70100452Y-57678524D01*
X70128271Y-57630143D01*
X70156090Y-57605952D01*
X70211729Y-57581762D01*
X70323005Y-57581762D01*
X70378643Y-57605952D01*
X70406462Y-57630143D01*
X70434281Y-57678524D01*
X70434281Y-57775286D01*
X70406462Y-57823667D01*
X70378643Y-57847857D01*
X70323005Y-57872048D01*
X70211729Y-57872048D01*
X70156090Y-57847857D01*
X70128271Y-57823667D01*
X70100452Y-57775286D01*
D13*
X70721810Y-55074829D02*
X70721810Y-55118372D01*
X70746000Y-55161915D01*
X70770190Y-55183686D01*
X70818571Y-55205457D01*
X70915333Y-55227229D01*
X71036286Y-55227229D01*
X71133048Y-55205457D01*
X71181429Y-55183686D01*
X71205619Y-55161915D01*
X71229810Y-55118372D01*
X71229810Y-55074829D01*
X71205619Y-55031286D01*
X71181429Y-55009515D01*
X71133048Y-54987743D01*
X71036286Y-54965972D01*
X70915333Y-54965972D01*
X70818571Y-54987743D01*
X70770190Y-55009515D01*
X70746000Y-55031286D01*
X70721810Y-55074829D01*
X71181429Y-55423172D02*
X71205619Y-55444944D01*
X71229810Y-55423172D01*
X71205619Y-55401401D01*
X71181429Y-55423172D01*
X71229810Y-55423172D01*
X71229810Y-55880372D02*
X71229810Y-55619115D01*
X71229810Y-55749743D02*
X70721810Y-55749743D01*
X70794381Y-55706200D01*
X70842762Y-55662658D01*
X70866952Y-55619115D01*
X70891143Y-56272258D02*
X71229810Y-56272258D01*
X70891143Y-56076315D02*
X71157238Y-56076315D01*
X71205619Y-56098087D01*
X71229810Y-56141629D01*
X71229810Y-56206944D01*
X71205619Y-56250487D01*
X71181429Y-56272258D01*
D12*
X75875643Y-56869428D02*
X75903462Y-56845238D01*
X75931281Y-56772666D01*
X75931281Y-56724285D01*
X75903462Y-56651714D01*
X75847824Y-56603333D01*
X75792186Y-56579142D01*
X75680910Y-56554952D01*
X75597452Y-56554952D01*
X75486176Y-56579142D01*
X75430538Y-56603333D01*
X75374900Y-56651714D01*
X75347081Y-56724285D01*
X75347081Y-56772666D01*
X75374900Y-56845238D01*
X75402719Y-56869428D01*
X75347081Y-57304857D02*
X75347081Y-57208095D01*
X75374900Y-57159714D01*
X75402719Y-57135523D01*
X75486176Y-57087142D01*
X75597452Y-57062952D01*
X75820005Y-57062952D01*
X75875643Y-57087142D01*
X75903462Y-57111333D01*
X75931281Y-57159714D01*
X75931281Y-57256476D01*
X75903462Y-57304857D01*
X75875643Y-57329047D01*
X75820005Y-57353238D01*
X75680910Y-57353238D01*
X75625271Y-57329047D01*
X75597452Y-57304857D01*
X75569633Y-57256476D01*
X75569633Y-57159714D01*
X75597452Y-57111333D01*
X75625271Y-57087142D01*
X75680910Y-57062952D01*
X75347081Y-57522571D02*
X75347081Y-57861238D01*
X75931281Y-57643524D01*
D13*
X75940810Y-55069829D02*
X75940810Y-55113372D01*
X75965000Y-55156915D01*
X75989190Y-55178686D01*
X76037571Y-55200457D01*
X76134333Y-55222229D01*
X76255286Y-55222229D01*
X76352048Y-55200457D01*
X76400429Y-55178686D01*
X76424619Y-55156915D01*
X76448810Y-55113372D01*
X76448810Y-55069829D01*
X76424619Y-55026286D01*
X76400429Y-55004515D01*
X76352048Y-54982743D01*
X76255286Y-54960972D01*
X76134333Y-54960972D01*
X76037571Y-54982743D01*
X75989190Y-55004515D01*
X75965000Y-55026286D01*
X75940810Y-55069829D01*
X76400429Y-55418172D02*
X76424619Y-55439944D01*
X76448810Y-55418172D01*
X76424619Y-55396401D01*
X76400429Y-55418172D01*
X76448810Y-55418172D01*
X76448810Y-55875372D02*
X76448810Y-55614115D01*
X76448810Y-55744743D02*
X75940810Y-55744743D01*
X76013381Y-55701200D01*
X76061762Y-55657658D01*
X76085952Y-55614115D01*
X76110143Y-56267258D02*
X76448810Y-56267258D01*
X76110143Y-56071315D02*
X76376238Y-56071315D01*
X76424619Y-56093087D01*
X76448810Y-56136629D01*
X76448810Y-56201944D01*
X76424619Y-56245487D01*
X76400429Y-56267258D01*
D12*
X84074643Y-55294428D02*
X84102462Y-55270238D01*
X84130281Y-55197666D01*
X84130281Y-55149285D01*
X84102462Y-55076714D01*
X84046824Y-55028333D01*
X83991186Y-55004142D01*
X83879910Y-54979952D01*
X83796452Y-54979952D01*
X83685176Y-55004142D01*
X83629538Y-55028333D01*
X83573900Y-55076714D01*
X83546081Y-55149285D01*
X83546081Y-55197666D01*
X83573900Y-55270238D01*
X83601719Y-55294428D01*
X83546081Y-55729857D02*
X83546081Y-55633095D01*
X83573900Y-55584714D01*
X83601719Y-55560523D01*
X83685176Y-55512142D01*
X83796452Y-55487952D01*
X84019005Y-55487952D01*
X84074643Y-55512142D01*
X84102462Y-55536333D01*
X84130281Y-55584714D01*
X84130281Y-55681476D01*
X84102462Y-55729857D01*
X84074643Y-55754047D01*
X84019005Y-55778238D01*
X83879910Y-55778238D01*
X83824271Y-55754047D01*
X83796452Y-55729857D01*
X83768633Y-55681476D01*
X83768633Y-55584714D01*
X83796452Y-55536333D01*
X83824271Y-55512142D01*
X83879910Y-55487952D01*
X83546081Y-56213667D02*
X83546081Y-56116905D01*
X83573900Y-56068524D01*
X83601719Y-56044333D01*
X83685176Y-55995952D01*
X83796452Y-55971762D01*
X84019005Y-55971762D01*
X84074643Y-55995952D01*
X84102462Y-56020143D01*
X84130281Y-56068524D01*
X84130281Y-56165286D01*
X84102462Y-56213667D01*
X84074643Y-56237857D01*
X84019005Y-56262048D01*
X83879910Y-56262048D01*
X83824271Y-56237857D01*
X83796452Y-56213667D01*
X83768633Y-56165286D01*
X83768633Y-56068524D01*
X83796452Y-56020143D01*
X83824271Y-55995952D01*
X83879910Y-55971762D01*
D13*
X81809810Y-55065829D02*
X81809810Y-55109372D01*
X81834000Y-55152915D01*
X81858190Y-55174686D01*
X81906571Y-55196457D01*
X82003333Y-55218229D01*
X82124286Y-55218229D01*
X82221048Y-55196457D01*
X82269429Y-55174686D01*
X82293619Y-55152915D01*
X82317810Y-55109372D01*
X82317810Y-55065829D01*
X82293619Y-55022286D01*
X82269429Y-55000515D01*
X82221048Y-54978743D01*
X82124286Y-54956972D01*
X82003333Y-54956972D01*
X81906571Y-54978743D01*
X81858190Y-55000515D01*
X81834000Y-55022286D01*
X81809810Y-55065829D01*
X82269429Y-55414172D02*
X82293619Y-55435944D01*
X82317810Y-55414172D01*
X82293619Y-55392401D01*
X82269429Y-55414172D01*
X82317810Y-55414172D01*
X82317810Y-55871372D02*
X82317810Y-55610115D01*
X82317810Y-55740743D02*
X81809810Y-55740743D01*
X81882381Y-55697200D01*
X81930762Y-55653658D01*
X81954952Y-55610115D01*
X81979143Y-56263258D02*
X82317810Y-56263258D01*
X81979143Y-56067315D02*
X82245238Y-56067315D01*
X82293619Y-56089087D01*
X82317810Y-56132629D01*
X82317810Y-56197944D01*
X82293619Y-56241487D01*
X82269429Y-56263258D01*
D12*
X66863643Y-55355428D02*
X66891462Y-55331238D01*
X66919281Y-55258666D01*
X66919281Y-55210285D01*
X66891462Y-55137714D01*
X66835824Y-55089333D01*
X66780186Y-55065142D01*
X66668910Y-55040952D01*
X66585452Y-55040952D01*
X66474176Y-55065142D01*
X66418538Y-55089333D01*
X66362900Y-55137714D01*
X66335081Y-55210285D01*
X66335081Y-55258666D01*
X66362900Y-55331238D01*
X66390719Y-55355428D01*
X66335081Y-55790857D02*
X66335081Y-55694095D01*
X66362900Y-55645714D01*
X66390719Y-55621523D01*
X66474176Y-55573142D01*
X66585452Y-55548952D01*
X66808005Y-55548952D01*
X66863643Y-55573142D01*
X66891462Y-55597333D01*
X66919281Y-55645714D01*
X66919281Y-55742476D01*
X66891462Y-55790857D01*
X66863643Y-55815047D01*
X66808005Y-55839238D01*
X66668910Y-55839238D01*
X66613271Y-55815047D01*
X66585452Y-55790857D01*
X66557633Y-55742476D01*
X66557633Y-55645714D01*
X66585452Y-55597333D01*
X66613271Y-55573142D01*
X66668910Y-55548952D01*
X66529814Y-56274667D02*
X66919281Y-56274667D01*
X66307262Y-56153714D02*
X66724548Y-56032762D01*
X66724548Y-56347238D01*
D13*
X68121810Y-55144829D02*
X68121810Y-55188372D01*
X68146000Y-55231915D01*
X68170190Y-55253686D01*
X68218571Y-55275457D01*
X68315333Y-55297229D01*
X68436286Y-55297229D01*
X68533048Y-55275457D01*
X68581429Y-55253686D01*
X68605619Y-55231915D01*
X68629810Y-55188372D01*
X68629810Y-55144829D01*
X68605619Y-55101286D01*
X68581429Y-55079515D01*
X68533048Y-55057743D01*
X68436286Y-55035972D01*
X68315333Y-55035972D01*
X68218571Y-55057743D01*
X68170190Y-55079515D01*
X68146000Y-55101286D01*
X68121810Y-55144829D01*
X68581429Y-55493172D02*
X68605619Y-55514944D01*
X68629810Y-55493172D01*
X68605619Y-55471401D01*
X68581429Y-55493172D01*
X68629810Y-55493172D01*
X68629810Y-55950372D02*
X68629810Y-55689115D01*
X68629810Y-55819743D02*
X68121810Y-55819743D01*
X68194381Y-55776200D01*
X68242762Y-55732658D01*
X68266952Y-55689115D01*
X68291143Y-56342258D02*
X68629810Y-56342258D01*
X68291143Y-56146315D02*
X68557238Y-56146315D01*
X68605619Y-56168087D01*
X68629810Y-56211629D01*
X68629810Y-56276944D01*
X68605619Y-56320487D01*
X68581429Y-56342258D01*
D12*
X71668643Y-51205428D02*
X71696462Y-51181238D01*
X71724281Y-51108666D01*
X71724281Y-51060285D01*
X71696462Y-50987714D01*
X71640824Y-50939333D01*
X71585186Y-50915142D01*
X71473910Y-50890952D01*
X71390452Y-50890952D01*
X71279176Y-50915142D01*
X71223538Y-50939333D01*
X71167900Y-50987714D01*
X71140081Y-51060285D01*
X71140081Y-51108666D01*
X71167900Y-51181238D01*
X71195719Y-51205428D01*
X71140081Y-51640857D02*
X71140081Y-51544095D01*
X71167900Y-51495714D01*
X71195719Y-51471523D01*
X71279176Y-51423142D01*
X71390452Y-51398952D01*
X71613005Y-51398952D01*
X71668643Y-51423142D01*
X71696462Y-51447333D01*
X71724281Y-51495714D01*
X71724281Y-51592476D01*
X71696462Y-51640857D01*
X71668643Y-51665047D01*
X71613005Y-51689238D01*
X71473910Y-51689238D01*
X71418271Y-51665047D01*
X71390452Y-51640857D01*
X71362633Y-51592476D01*
X71362633Y-51495714D01*
X71390452Y-51447333D01*
X71418271Y-51423142D01*
X71473910Y-51398952D01*
X71140081Y-51858571D02*
X71140081Y-52173048D01*
X71362633Y-52003714D01*
X71362633Y-52076286D01*
X71390452Y-52124667D01*
X71418271Y-52148857D01*
X71473910Y-52173048D01*
X71613005Y-52173048D01*
X71668643Y-52148857D01*
X71696462Y-52124667D01*
X71724281Y-52076286D01*
X71724281Y-51931143D01*
X71696462Y-51882762D01*
X71668643Y-51858571D01*
D13*
X72521810Y-52544829D02*
X72521810Y-52588372D01*
X72546000Y-52631915D01*
X72570190Y-52653686D01*
X72618571Y-52675457D01*
X72715333Y-52697229D01*
X72836286Y-52697229D01*
X72933048Y-52675457D01*
X72981429Y-52653686D01*
X73005619Y-52631915D01*
X73029810Y-52588372D01*
X73029810Y-52544829D01*
X73005619Y-52501286D01*
X72981429Y-52479515D01*
X72933048Y-52457743D01*
X72836286Y-52435972D01*
X72715333Y-52435972D01*
X72618571Y-52457743D01*
X72570190Y-52479515D01*
X72546000Y-52501286D01*
X72521810Y-52544829D01*
X72981429Y-52893172D02*
X73005619Y-52914944D01*
X73029810Y-52893172D01*
X73005619Y-52871401D01*
X72981429Y-52893172D01*
X73029810Y-52893172D01*
X73029810Y-53350372D02*
X73029810Y-53089115D01*
X73029810Y-53219743D02*
X72521810Y-53219743D01*
X72594381Y-53176200D01*
X72642762Y-53132658D01*
X72666952Y-53089115D01*
X72691143Y-53742258D02*
X73029810Y-53742258D01*
X72691143Y-53546315D02*
X72957238Y-53546315D01*
X73005619Y-53568087D01*
X73029810Y-53611629D01*
X73029810Y-53676944D01*
X73005619Y-53720487D01*
X72981429Y-53742258D01*
D12*
X78999643Y-51177428D02*
X79027462Y-51153238D01*
X79055281Y-51080666D01*
X79055281Y-51032285D01*
X79027462Y-50959714D01*
X78971824Y-50911333D01*
X78916186Y-50887142D01*
X78804910Y-50862952D01*
X78721452Y-50862952D01*
X78610176Y-50887142D01*
X78554538Y-50911333D01*
X78498900Y-50959714D01*
X78471081Y-51032285D01*
X78471081Y-51080666D01*
X78498900Y-51153238D01*
X78526719Y-51177428D01*
X78471081Y-51612857D02*
X78471081Y-51516095D01*
X78498900Y-51467714D01*
X78526719Y-51443523D01*
X78610176Y-51395142D01*
X78721452Y-51370952D01*
X78944005Y-51370952D01*
X78999643Y-51395142D01*
X79027462Y-51419333D01*
X79055281Y-51467714D01*
X79055281Y-51564476D01*
X79027462Y-51612857D01*
X78999643Y-51637047D01*
X78944005Y-51661238D01*
X78804910Y-51661238D01*
X78749271Y-51637047D01*
X78721452Y-51612857D01*
X78693633Y-51564476D01*
X78693633Y-51467714D01*
X78721452Y-51419333D01*
X78749271Y-51395142D01*
X78804910Y-51370952D01*
X78526719Y-51854762D02*
X78498900Y-51878952D01*
X78471081Y-51927333D01*
X78471081Y-52048286D01*
X78498900Y-52096667D01*
X78526719Y-52120857D01*
X78582357Y-52145048D01*
X78637995Y-52145048D01*
X78721452Y-52120857D01*
X79055281Y-51830571D01*
X79055281Y-52145048D01*
D13*
X79021810Y-52544829D02*
X79021810Y-52588372D01*
X79046000Y-52631915D01*
X79070190Y-52653686D01*
X79118571Y-52675457D01*
X79215333Y-52697229D01*
X79336286Y-52697229D01*
X79433048Y-52675457D01*
X79481429Y-52653686D01*
X79505619Y-52631915D01*
X79529810Y-52588372D01*
X79529810Y-52544829D01*
X79505619Y-52501286D01*
X79481429Y-52479515D01*
X79433048Y-52457743D01*
X79336286Y-52435972D01*
X79215333Y-52435972D01*
X79118571Y-52457743D01*
X79070190Y-52479515D01*
X79046000Y-52501286D01*
X79021810Y-52544829D01*
X79481429Y-52893172D02*
X79505619Y-52914944D01*
X79529810Y-52893172D01*
X79505619Y-52871401D01*
X79481429Y-52893172D01*
X79529810Y-52893172D01*
X79529810Y-53350372D02*
X79529810Y-53089115D01*
X79529810Y-53219743D02*
X79021810Y-53219743D01*
X79094381Y-53176200D01*
X79142762Y-53132658D01*
X79166952Y-53089115D01*
X79191143Y-53742258D02*
X79529810Y-53742258D01*
X79191143Y-53546315D02*
X79457238Y-53546315D01*
X79505619Y-53568087D01*
X79529810Y-53611629D01*
X79529810Y-53676944D01*
X79505619Y-53720487D01*
X79481429Y-53742258D01*
D12*
X88128643Y-55398428D02*
X88156462Y-55374238D01*
X88184281Y-55301666D01*
X88184281Y-55253285D01*
X88156462Y-55180714D01*
X88100824Y-55132333D01*
X88045186Y-55108142D01*
X87933910Y-55083952D01*
X87850452Y-55083952D01*
X87739176Y-55108142D01*
X87683538Y-55132333D01*
X87627900Y-55180714D01*
X87600081Y-55253285D01*
X87600081Y-55301666D01*
X87627900Y-55374238D01*
X87655719Y-55398428D01*
X87600081Y-55833857D02*
X87600081Y-55737095D01*
X87627900Y-55688714D01*
X87655719Y-55664523D01*
X87739176Y-55616142D01*
X87850452Y-55591952D01*
X88073005Y-55591952D01*
X88128643Y-55616142D01*
X88156462Y-55640333D01*
X88184281Y-55688714D01*
X88184281Y-55785476D01*
X88156462Y-55833857D01*
X88128643Y-55858047D01*
X88073005Y-55882238D01*
X87933910Y-55882238D01*
X87878271Y-55858047D01*
X87850452Y-55833857D01*
X87822633Y-55785476D01*
X87822633Y-55688714D01*
X87850452Y-55640333D01*
X87878271Y-55616142D01*
X87933910Y-55591952D01*
X88184281Y-56366048D02*
X88184281Y-56075762D01*
X88184281Y-56220905D02*
X87600081Y-56220905D01*
X87683538Y-56172524D01*
X87739176Y-56124143D01*
X87766995Y-56075762D01*
D13*
X85821810Y-55144829D02*
X85821810Y-55188372D01*
X85846000Y-55231915D01*
X85870190Y-55253686D01*
X85918571Y-55275457D01*
X86015333Y-55297229D01*
X86136286Y-55297229D01*
X86233048Y-55275457D01*
X86281429Y-55253686D01*
X86305619Y-55231915D01*
X86329810Y-55188372D01*
X86329810Y-55144829D01*
X86305619Y-55101286D01*
X86281429Y-55079515D01*
X86233048Y-55057743D01*
X86136286Y-55035972D01*
X86015333Y-55035972D01*
X85918571Y-55057743D01*
X85870190Y-55079515D01*
X85846000Y-55101286D01*
X85821810Y-55144829D01*
X86281429Y-55493172D02*
X86305619Y-55514944D01*
X86329810Y-55493172D01*
X86305619Y-55471401D01*
X86281429Y-55493172D01*
X86329810Y-55493172D01*
X86329810Y-55950372D02*
X86329810Y-55689115D01*
X86329810Y-55819743D02*
X85821810Y-55819743D01*
X85894381Y-55776200D01*
X85942762Y-55732658D01*
X85966952Y-55689115D01*
X85991143Y-56342258D02*
X86329810Y-56342258D01*
X85991143Y-56146315D02*
X86257238Y-56146315D01*
X86305619Y-56168087D01*
X86329810Y-56211629D01*
X86329810Y-56276944D01*
X86305619Y-56320487D01*
X86281429Y-56342258D01*
D12*
X66626572Y-53086643D02*
X66650762Y-53114462D01*
X66723334Y-53142281D01*
X66771715Y-53142281D01*
X66844286Y-53114462D01*
X66892667Y-53058824D01*
X66916858Y-53003186D01*
X66941048Y-52891910D01*
X66941048Y-52808452D01*
X66916858Y-52697176D01*
X66892667Y-52641538D01*
X66844286Y-52585900D01*
X66771715Y-52558081D01*
X66723334Y-52558081D01*
X66650762Y-52585900D01*
X66626572Y-52613719D01*
X66166953Y-52558081D02*
X66408858Y-52558081D01*
X66433048Y-52836271D01*
X66408858Y-52808452D01*
X66360477Y-52780633D01*
X66239524Y-52780633D01*
X66191143Y-52808452D01*
X66166953Y-52836271D01*
X66142762Y-52891910D01*
X66142762Y-53031005D01*
X66166953Y-53086643D01*
X66191143Y-53114462D01*
X66239524Y-53142281D01*
X66360477Y-53142281D01*
X66408858Y-53114462D01*
X66433048Y-53086643D01*
X65900857Y-53142281D02*
X65804095Y-53142281D01*
X65755714Y-53114462D01*
X65731524Y-53086643D01*
X65683143Y-53003186D01*
X65658952Y-52891910D01*
X65658952Y-52669357D01*
X65683143Y-52613719D01*
X65707333Y-52585900D01*
X65755714Y-52558081D01*
X65852476Y-52558081D01*
X65900857Y-52585900D01*
X65925048Y-52613719D01*
X65949238Y-52669357D01*
X65949238Y-52808452D01*
X65925048Y-52864090D01*
X65900857Y-52891910D01*
X65852476Y-52919729D01*
X65755714Y-52919729D01*
X65707333Y-52891910D01*
X65683143Y-52864090D01*
X65658952Y-52808452D01*
D13*
X66855171Y-50821810D02*
X66811628Y-50821810D01*
X66768085Y-50846000D01*
X66746314Y-50870190D01*
X66724543Y-50918571D01*
X66702771Y-51015333D01*
X66702771Y-51136286D01*
X66724543Y-51233048D01*
X66746314Y-51281429D01*
X66768085Y-51305619D01*
X66811628Y-51329810D01*
X66855171Y-51329810D01*
X66898714Y-51305619D01*
X66920485Y-51281429D01*
X66942257Y-51233048D01*
X66964028Y-51136286D01*
X66964028Y-51015333D01*
X66942257Y-50918571D01*
X66920485Y-50870190D01*
X66898714Y-50846000D01*
X66855171Y-50821810D01*
X66506828Y-51281429D02*
X66485056Y-51305619D01*
X66506828Y-51329810D01*
X66528599Y-51305619D01*
X66506828Y-51281429D01*
X66506828Y-51329810D01*
X66049628Y-51329810D02*
X66310885Y-51329810D01*
X66180257Y-51329810D02*
X66180257Y-50821810D01*
X66223800Y-50894381D01*
X66267342Y-50942762D01*
X66310885Y-50966952D01*
X65657742Y-50991143D02*
X65657742Y-51329810D01*
X65853685Y-50991143D02*
X65853685Y-51257238D01*
X65831913Y-51305619D01*
X65788371Y-51329810D01*
X65723056Y-51329810D01*
X65679513Y-51305619D01*
X65657742Y-51281429D01*
D12*
X88626572Y-50986643D02*
X88650762Y-51014462D01*
X88723334Y-51042281D01*
X88771715Y-51042281D01*
X88844286Y-51014462D01*
X88892667Y-50958824D01*
X88916858Y-50903186D01*
X88941048Y-50791910D01*
X88941048Y-50708452D01*
X88916858Y-50597176D01*
X88892667Y-50541538D01*
X88844286Y-50485900D01*
X88771715Y-50458081D01*
X88723334Y-50458081D01*
X88650762Y-50485900D01*
X88626572Y-50513719D01*
X88166953Y-50458081D02*
X88408858Y-50458081D01*
X88433048Y-50736271D01*
X88408858Y-50708452D01*
X88360477Y-50680633D01*
X88239524Y-50680633D01*
X88191143Y-50708452D01*
X88166953Y-50736271D01*
X88142762Y-50791910D01*
X88142762Y-50931005D01*
X88166953Y-50986643D01*
X88191143Y-51014462D01*
X88239524Y-51042281D01*
X88360477Y-51042281D01*
X88408858Y-51014462D01*
X88433048Y-50986643D01*
X87852476Y-50708452D02*
X87900857Y-50680633D01*
X87925048Y-50652814D01*
X87949238Y-50597176D01*
X87949238Y-50569357D01*
X87925048Y-50513719D01*
X87900857Y-50485900D01*
X87852476Y-50458081D01*
X87755714Y-50458081D01*
X87707333Y-50485900D01*
X87683143Y-50513719D01*
X87658952Y-50569357D01*
X87658952Y-50597176D01*
X87683143Y-50652814D01*
X87707333Y-50680633D01*
X87755714Y-50708452D01*
X87852476Y-50708452D01*
X87900857Y-50736271D01*
X87925048Y-50764090D01*
X87949238Y-50819729D01*
X87949238Y-50931005D01*
X87925048Y-50986643D01*
X87900857Y-51014462D01*
X87852476Y-51042281D01*
X87755714Y-51042281D01*
X87707333Y-51014462D01*
X87683143Y-50986643D01*
X87658952Y-50931005D01*
X87658952Y-50819729D01*
X87683143Y-50764090D01*
X87707333Y-50736271D01*
X87755714Y-50708452D01*
D13*
X88855171Y-48721810D02*
X88811628Y-48721810D01*
X88768085Y-48746000D01*
X88746314Y-48770190D01*
X88724543Y-48818571D01*
X88702771Y-48915333D01*
X88702771Y-49036286D01*
X88724543Y-49133048D01*
X88746314Y-49181429D01*
X88768085Y-49205619D01*
X88811628Y-49229810D01*
X88855171Y-49229810D01*
X88898714Y-49205619D01*
X88920485Y-49181429D01*
X88942257Y-49133048D01*
X88964028Y-49036286D01*
X88964028Y-48915333D01*
X88942257Y-48818571D01*
X88920485Y-48770190D01*
X88898714Y-48746000D01*
X88855171Y-48721810D01*
X88506828Y-49181429D02*
X88485056Y-49205619D01*
X88506828Y-49229810D01*
X88528599Y-49205619D01*
X88506828Y-49181429D01*
X88506828Y-49229810D01*
X88049628Y-49229810D02*
X88310885Y-49229810D01*
X88180257Y-49229810D02*
X88180257Y-48721810D01*
X88223800Y-48794381D01*
X88267342Y-48842762D01*
X88310885Y-48866952D01*
X87657742Y-48891143D02*
X87657742Y-49229810D01*
X87853685Y-48891143D02*
X87853685Y-49157238D01*
X87831913Y-49205619D01*
X87788371Y-49229810D01*
X87723056Y-49229810D01*
X87679513Y-49205619D01*
X87657742Y-49181429D01*
D12*
X85739572Y-50911643D02*
X85763762Y-50939462D01*
X85836334Y-50967281D01*
X85884715Y-50967281D01*
X85957286Y-50939462D01*
X86005667Y-50883824D01*
X86029858Y-50828186D01*
X86054048Y-50716910D01*
X86054048Y-50633452D01*
X86029858Y-50522176D01*
X86005667Y-50466538D01*
X85957286Y-50410900D01*
X85884715Y-50383081D01*
X85836334Y-50383081D01*
X85763762Y-50410900D01*
X85739572Y-50438719D01*
X85279953Y-50383081D02*
X85521858Y-50383081D01*
X85546048Y-50661271D01*
X85521858Y-50633452D01*
X85473477Y-50605633D01*
X85352524Y-50605633D01*
X85304143Y-50633452D01*
X85279953Y-50661271D01*
X85255762Y-50716910D01*
X85255762Y-50856005D01*
X85279953Y-50911643D01*
X85304143Y-50939462D01*
X85352524Y-50967281D01*
X85473477Y-50967281D01*
X85521858Y-50939462D01*
X85546048Y-50911643D01*
X85086429Y-50383081D02*
X84747762Y-50383081D01*
X84965476Y-50967281D01*
D13*
X86355171Y-48621810D02*
X86311628Y-48621810D01*
X86268085Y-48646000D01*
X86246314Y-48670190D01*
X86224543Y-48718571D01*
X86202771Y-48815333D01*
X86202771Y-48936286D01*
X86224543Y-49033048D01*
X86246314Y-49081429D01*
X86268085Y-49105619D01*
X86311628Y-49129810D01*
X86355171Y-49129810D01*
X86398714Y-49105619D01*
X86420485Y-49081429D01*
X86442257Y-49033048D01*
X86464028Y-48936286D01*
X86464028Y-48815333D01*
X86442257Y-48718571D01*
X86420485Y-48670190D01*
X86398714Y-48646000D01*
X86355171Y-48621810D01*
X86006828Y-49081429D02*
X85985056Y-49105619D01*
X86006828Y-49129810D01*
X86028599Y-49105619D01*
X86006828Y-49081429D01*
X86006828Y-49129810D01*
X85549628Y-49129810D02*
X85810885Y-49129810D01*
X85680257Y-49129810D02*
X85680257Y-48621810D01*
X85723800Y-48694381D01*
X85767342Y-48742762D01*
X85810885Y-48766952D01*
X85157742Y-48791143D02*
X85157742Y-49129810D01*
X85353685Y-48791143D02*
X85353685Y-49057238D01*
X85331913Y-49105619D01*
X85288371Y-49129810D01*
X85223056Y-49129810D01*
X85179513Y-49105619D01*
X85157742Y-49081429D01*
D12*
X88626572Y-46986643D02*
X88650762Y-47014462D01*
X88723334Y-47042281D01*
X88771715Y-47042281D01*
X88844286Y-47014462D01*
X88892667Y-46958824D01*
X88916858Y-46903186D01*
X88941048Y-46791910D01*
X88941048Y-46708452D01*
X88916858Y-46597176D01*
X88892667Y-46541538D01*
X88844286Y-46485900D01*
X88771715Y-46458081D01*
X88723334Y-46458081D01*
X88650762Y-46485900D01*
X88626572Y-46513719D01*
X88166953Y-46458081D02*
X88408858Y-46458081D01*
X88433048Y-46736271D01*
X88408858Y-46708452D01*
X88360477Y-46680633D01*
X88239524Y-46680633D01*
X88191143Y-46708452D01*
X88166953Y-46736271D01*
X88142762Y-46791910D01*
X88142762Y-46931005D01*
X88166953Y-46986643D01*
X88191143Y-47014462D01*
X88239524Y-47042281D01*
X88360477Y-47042281D01*
X88408858Y-47014462D01*
X88433048Y-46986643D01*
X87707333Y-46652814D02*
X87707333Y-47042281D01*
X87828286Y-46430262D02*
X87949238Y-46847548D01*
X87634762Y-46847548D01*
D13*
X88855171Y-44721810D02*
X88811628Y-44721810D01*
X88768085Y-44746000D01*
X88746314Y-44770190D01*
X88724543Y-44818571D01*
X88702771Y-44915333D01*
X88702771Y-45036286D01*
X88724543Y-45133048D01*
X88746314Y-45181429D01*
X88768085Y-45205619D01*
X88811628Y-45229810D01*
X88855171Y-45229810D01*
X88898714Y-45205619D01*
X88920485Y-45181429D01*
X88942257Y-45133048D01*
X88964028Y-45036286D01*
X88964028Y-44915333D01*
X88942257Y-44818571D01*
X88920485Y-44770190D01*
X88898714Y-44746000D01*
X88855171Y-44721810D01*
X88506828Y-45181429D02*
X88485056Y-45205619D01*
X88506828Y-45229810D01*
X88528599Y-45205619D01*
X88506828Y-45181429D01*
X88506828Y-45229810D01*
X88049628Y-45229810D02*
X88310885Y-45229810D01*
X88180257Y-45229810D02*
X88180257Y-44721810D01*
X88223800Y-44794381D01*
X88267342Y-44842762D01*
X88310885Y-44866952D01*
X87657742Y-44891143D02*
X87657742Y-45229810D01*
X87853685Y-44891143D02*
X87853685Y-45157238D01*
X87831913Y-45205619D01*
X87788371Y-45229810D01*
X87723056Y-45229810D01*
X87679513Y-45205619D01*
X87657742Y-45181429D01*
D12*
X68850572Y-44988643D02*
X68874762Y-45016462D01*
X68947334Y-45044281D01*
X68995715Y-45044281D01*
X69068286Y-45016462D01*
X69116667Y-44960824D01*
X69140858Y-44905186D01*
X69165048Y-44793910D01*
X69165048Y-44710452D01*
X69140858Y-44599176D01*
X69116667Y-44543538D01*
X69068286Y-44487900D01*
X68995715Y-44460081D01*
X68947334Y-44460081D01*
X68874762Y-44487900D01*
X68850572Y-44515719D01*
X68390953Y-44460081D02*
X68632858Y-44460081D01*
X68657048Y-44738271D01*
X68632858Y-44710452D01*
X68584477Y-44682633D01*
X68463524Y-44682633D01*
X68415143Y-44710452D01*
X68390953Y-44738271D01*
X68366762Y-44793910D01*
X68366762Y-44933005D01*
X68390953Y-44988643D01*
X68415143Y-45016462D01*
X68463524Y-45044281D01*
X68584477Y-45044281D01*
X68632858Y-45016462D01*
X68657048Y-44988643D01*
X68197429Y-44460081D02*
X67882952Y-44460081D01*
X68052286Y-44682633D01*
X67979714Y-44682633D01*
X67931333Y-44710452D01*
X67907143Y-44738271D01*
X67882952Y-44793910D01*
X67882952Y-44933005D01*
X67907143Y-44988643D01*
X67931333Y-45016462D01*
X67979714Y-45044281D01*
X68124857Y-45044281D01*
X68173238Y-45016462D01*
X68197429Y-44988643D01*
D13*
X69079171Y-46279810D02*
X69035628Y-46279810D01*
X68992085Y-46304000D01*
X68970314Y-46328190D01*
X68948543Y-46376571D01*
X68926771Y-46473333D01*
X68926771Y-46594286D01*
X68948543Y-46691048D01*
X68970314Y-46739429D01*
X68992085Y-46763619D01*
X69035628Y-46787810D01*
X69079171Y-46787810D01*
X69122714Y-46763619D01*
X69144485Y-46739429D01*
X69166257Y-46691048D01*
X69188028Y-46594286D01*
X69188028Y-46473333D01*
X69166257Y-46376571D01*
X69144485Y-46328190D01*
X69122714Y-46304000D01*
X69079171Y-46279810D01*
X68730828Y-46739429D02*
X68709056Y-46763619D01*
X68730828Y-46787810D01*
X68752599Y-46763619D01*
X68730828Y-46739429D01*
X68730828Y-46787810D01*
X68273628Y-46787810D02*
X68534885Y-46787810D01*
X68404257Y-46787810D02*
X68404257Y-46279810D01*
X68447800Y-46352381D01*
X68491342Y-46400762D01*
X68534885Y-46424952D01*
X67881742Y-46449143D02*
X67881742Y-46787810D01*
X68077685Y-46449143D02*
X68077685Y-46715238D01*
X68055913Y-46763619D01*
X68012371Y-46787810D01*
X67947056Y-46787810D01*
X67903513Y-46763619D01*
X67881742Y-46739429D01*
D12*
X66626572Y-41186643D02*
X66650762Y-41214462D01*
X66723334Y-41242281D01*
X66771715Y-41242281D01*
X66844286Y-41214462D01*
X66892667Y-41158824D01*
X66916858Y-41103186D01*
X66941048Y-40991910D01*
X66941048Y-40908452D01*
X66916858Y-40797176D01*
X66892667Y-40741538D01*
X66844286Y-40685900D01*
X66771715Y-40658081D01*
X66723334Y-40658081D01*
X66650762Y-40685900D01*
X66626572Y-40713719D01*
X66166953Y-40658081D02*
X66408858Y-40658081D01*
X66433048Y-40936271D01*
X66408858Y-40908452D01*
X66360477Y-40880633D01*
X66239524Y-40880633D01*
X66191143Y-40908452D01*
X66166953Y-40936271D01*
X66142762Y-40991910D01*
X66142762Y-41131005D01*
X66166953Y-41186643D01*
X66191143Y-41214462D01*
X66239524Y-41242281D01*
X66360477Y-41242281D01*
X66408858Y-41214462D01*
X66433048Y-41186643D01*
X65658952Y-41242281D02*
X65949238Y-41242281D01*
X65804095Y-41242281D02*
X65804095Y-40658081D01*
X65852476Y-40741538D01*
X65900857Y-40797176D01*
X65949238Y-40824995D01*
D13*
X66855171Y-38921810D02*
X66811628Y-38921810D01*
X66768085Y-38946000D01*
X66746314Y-38970190D01*
X66724543Y-39018571D01*
X66702771Y-39115333D01*
X66702771Y-39236286D01*
X66724543Y-39333048D01*
X66746314Y-39381429D01*
X66768085Y-39405619D01*
X66811628Y-39429810D01*
X66855171Y-39429810D01*
X66898714Y-39405619D01*
X66920485Y-39381429D01*
X66942257Y-39333048D01*
X66964028Y-39236286D01*
X66964028Y-39115333D01*
X66942257Y-39018571D01*
X66920485Y-38970190D01*
X66898714Y-38946000D01*
X66855171Y-38921810D01*
X66506828Y-39381429D02*
X66485056Y-39405619D01*
X66506828Y-39429810D01*
X66528599Y-39405619D01*
X66506828Y-39381429D01*
X66506828Y-39429810D01*
X66049628Y-39429810D02*
X66310885Y-39429810D01*
X66180257Y-39429810D02*
X66180257Y-38921810D01*
X66223800Y-38994381D01*
X66267342Y-39042762D01*
X66310885Y-39066952D01*
X65657742Y-39091143D02*
X65657742Y-39429810D01*
X65853685Y-39091143D02*
X65853685Y-39357238D01*
X65831913Y-39405619D01*
X65788371Y-39429810D01*
X65723056Y-39429810D01*
X65679513Y-39405619D01*
X65657742Y-39381429D01*
D12*
X88626572Y-40386643D02*
X88650762Y-40414462D01*
X88723334Y-40442281D01*
X88771715Y-40442281D01*
X88844286Y-40414462D01*
X88892667Y-40358824D01*
X88916858Y-40303186D01*
X88941048Y-40191910D01*
X88941048Y-40108452D01*
X88916858Y-39997176D01*
X88892667Y-39941538D01*
X88844286Y-39885900D01*
X88771715Y-39858081D01*
X88723334Y-39858081D01*
X88650762Y-39885900D01*
X88626572Y-39913719D01*
X88166953Y-39858081D02*
X88408858Y-39858081D01*
X88433048Y-40136271D01*
X88408858Y-40108452D01*
X88360477Y-40080633D01*
X88239524Y-40080633D01*
X88191143Y-40108452D01*
X88166953Y-40136271D01*
X88142762Y-40191910D01*
X88142762Y-40331005D01*
X88166953Y-40386643D01*
X88191143Y-40414462D01*
X88239524Y-40442281D01*
X88360477Y-40442281D01*
X88408858Y-40414462D01*
X88433048Y-40386643D01*
X87828286Y-39858081D02*
X87779905Y-39858081D01*
X87731524Y-39885900D01*
X87707333Y-39913719D01*
X87683143Y-39969357D01*
X87658952Y-40080633D01*
X87658952Y-40219729D01*
X87683143Y-40331005D01*
X87707333Y-40386643D01*
X87731524Y-40414462D01*
X87779905Y-40442281D01*
X87828286Y-40442281D01*
X87876667Y-40414462D01*
X87900857Y-40386643D01*
X87925048Y-40331005D01*
X87949238Y-40219729D01*
X87949238Y-40080633D01*
X87925048Y-39969357D01*
X87900857Y-39913719D01*
X87876667Y-39885900D01*
X87828286Y-39858081D01*
D13*
X88855171Y-38121810D02*
X88811628Y-38121810D01*
X88768085Y-38146000D01*
X88746314Y-38170190D01*
X88724543Y-38218571D01*
X88702771Y-38315333D01*
X88702771Y-38436286D01*
X88724543Y-38533048D01*
X88746314Y-38581429D01*
X88768085Y-38605619D01*
X88811628Y-38629810D01*
X88855171Y-38629810D01*
X88898714Y-38605619D01*
X88920485Y-38581429D01*
X88942257Y-38533048D01*
X88964028Y-38436286D01*
X88964028Y-38315333D01*
X88942257Y-38218571D01*
X88920485Y-38170190D01*
X88898714Y-38146000D01*
X88855171Y-38121810D01*
X88506828Y-38581429D02*
X88485056Y-38605619D01*
X88506828Y-38629810D01*
X88528599Y-38605619D01*
X88506828Y-38581429D01*
X88506828Y-38629810D01*
X88049628Y-38629810D02*
X88310885Y-38629810D01*
X88180257Y-38629810D02*
X88180257Y-38121810D01*
X88223800Y-38194381D01*
X88267342Y-38242762D01*
X88310885Y-38266952D01*
X87657742Y-38291143D02*
X87657742Y-38629810D01*
X87853685Y-38291143D02*
X87853685Y-38557238D01*
X87831913Y-38605619D01*
X87788371Y-38629810D01*
X87723056Y-38629810D01*
X87679513Y-38605619D01*
X87657742Y-38581429D01*
D12*
X66626572Y-35030643D02*
X66650762Y-35058462D01*
X66723334Y-35086281D01*
X66771715Y-35086281D01*
X66844286Y-35058462D01*
X66892667Y-35002824D01*
X66916858Y-34947186D01*
X66941048Y-34835910D01*
X66941048Y-34752452D01*
X66916858Y-34641176D01*
X66892667Y-34585538D01*
X66844286Y-34529900D01*
X66771715Y-34502081D01*
X66723334Y-34502081D01*
X66650762Y-34529900D01*
X66626572Y-34557719D01*
X66191143Y-34696814D02*
X66191143Y-35086281D01*
X66312096Y-34474262D02*
X66433048Y-34891548D01*
X66118572Y-34891548D01*
X65852476Y-34752452D02*
X65900857Y-34724633D01*
X65925048Y-34696814D01*
X65949238Y-34641176D01*
X65949238Y-34613357D01*
X65925048Y-34557719D01*
X65900857Y-34529900D01*
X65852476Y-34502081D01*
X65755714Y-34502081D01*
X65707333Y-34529900D01*
X65683143Y-34557719D01*
X65658952Y-34613357D01*
X65658952Y-34641176D01*
X65683143Y-34696814D01*
X65707333Y-34724633D01*
X65755714Y-34752452D01*
X65852476Y-34752452D01*
X65900857Y-34780271D01*
X65925048Y-34808090D01*
X65949238Y-34863729D01*
X65949238Y-34975005D01*
X65925048Y-35030643D01*
X65900857Y-35058462D01*
X65852476Y-35086281D01*
X65755714Y-35086281D01*
X65707333Y-35058462D01*
X65683143Y-35030643D01*
X65658952Y-34975005D01*
X65658952Y-34863729D01*
X65683143Y-34808090D01*
X65707333Y-34780271D01*
X65755714Y-34752452D01*
D13*
X66855171Y-36321810D02*
X66811628Y-36321810D01*
X66768085Y-36346000D01*
X66746314Y-36370190D01*
X66724543Y-36418571D01*
X66702771Y-36515333D01*
X66702771Y-36636286D01*
X66724543Y-36733048D01*
X66746314Y-36781429D01*
X66768085Y-36805619D01*
X66811628Y-36829810D01*
X66855171Y-36829810D01*
X66898714Y-36805619D01*
X66920485Y-36781429D01*
X66942257Y-36733048D01*
X66964028Y-36636286D01*
X66964028Y-36515333D01*
X66942257Y-36418571D01*
X66920485Y-36370190D01*
X66898714Y-36346000D01*
X66855171Y-36321810D01*
X66506828Y-36781429D02*
X66485056Y-36805619D01*
X66506828Y-36829810D01*
X66528599Y-36805619D01*
X66506828Y-36781429D01*
X66506828Y-36829810D01*
X66049628Y-36829810D02*
X66310885Y-36829810D01*
X66180257Y-36829810D02*
X66180257Y-36321810D01*
X66223800Y-36394381D01*
X66267342Y-36442762D01*
X66310885Y-36466952D01*
X65657742Y-36491143D02*
X65657742Y-36829810D01*
X65853685Y-36491143D02*
X65853685Y-36757238D01*
X65831913Y-36805619D01*
X65788371Y-36829810D01*
X65723056Y-36829810D01*
X65679513Y-36805619D01*
X65657742Y-36781429D01*
D12*
X74419643Y-37346428D02*
X74447462Y-37322238D01*
X74475281Y-37249666D01*
X74475281Y-37201285D01*
X74447462Y-37128714D01*
X74391824Y-37080333D01*
X74336186Y-37056142D01*
X74224910Y-37031952D01*
X74141452Y-37031952D01*
X74030176Y-37056142D01*
X73974538Y-37080333D01*
X73918900Y-37128714D01*
X73891081Y-37201285D01*
X73891081Y-37249666D01*
X73918900Y-37322238D01*
X73946719Y-37346428D01*
X74085814Y-37781857D02*
X74475281Y-37781857D01*
X73863262Y-37660904D02*
X74280548Y-37539952D01*
X74280548Y-37854428D01*
X73891081Y-38289857D02*
X73891081Y-38047952D01*
X74169271Y-38023762D01*
X74141452Y-38047952D01*
X74113633Y-38096333D01*
X74113633Y-38217286D01*
X74141452Y-38265667D01*
X74169271Y-38289857D01*
X74224910Y-38314048D01*
X74364005Y-38314048D01*
X74419643Y-38289857D01*
X74447462Y-38265667D01*
X74475281Y-38217286D01*
X74475281Y-38096333D01*
X74447462Y-38047952D01*
X74419643Y-38023762D01*
D13*
X73021810Y-35544829D02*
X73021810Y-35588372D01*
X73046000Y-35631915D01*
X73070190Y-35653686D01*
X73118571Y-35675457D01*
X73215333Y-35697229D01*
X73336286Y-35697229D01*
X73433048Y-35675457D01*
X73481429Y-35653686D01*
X73505619Y-35631915D01*
X73529810Y-35588372D01*
X73529810Y-35544829D01*
X73505619Y-35501286D01*
X73481429Y-35479515D01*
X73433048Y-35457743D01*
X73336286Y-35435972D01*
X73215333Y-35435972D01*
X73118571Y-35457743D01*
X73070190Y-35479515D01*
X73046000Y-35501286D01*
X73021810Y-35544829D01*
X73481429Y-35893172D02*
X73505619Y-35914944D01*
X73529810Y-35893172D01*
X73505619Y-35871401D01*
X73481429Y-35893172D01*
X73529810Y-35893172D01*
X73529810Y-36350372D02*
X73529810Y-36089115D01*
X73529810Y-36219743D02*
X73021810Y-36219743D01*
X73094381Y-36176200D01*
X73142762Y-36132658D01*
X73166952Y-36089115D01*
X73191143Y-36742258D02*
X73529810Y-36742258D01*
X73191143Y-36546315D02*
X73457238Y-36546315D01*
X73505619Y-36568087D01*
X73529810Y-36611629D01*
X73529810Y-36676944D01*
X73505619Y-36720487D01*
X73481429Y-36742258D01*
D12*
X86965572Y-36014643D02*
X86989762Y-36042462D01*
X87062334Y-36070281D01*
X87110715Y-36070281D01*
X87183286Y-36042462D01*
X87231667Y-35986824D01*
X87255858Y-35931186D01*
X87280048Y-35819910D01*
X87280048Y-35736452D01*
X87255858Y-35625176D01*
X87231667Y-35569538D01*
X87183286Y-35513900D01*
X87110715Y-35486081D01*
X87062334Y-35486081D01*
X86989762Y-35513900D01*
X86965572Y-35541719D01*
X86530143Y-35680814D02*
X86530143Y-36070281D01*
X86651096Y-35458262D02*
X86772048Y-35875548D01*
X86457572Y-35875548D01*
X86046333Y-35680814D02*
X86046333Y-36070281D01*
X86167286Y-35458262D02*
X86288238Y-35875548D01*
X85973762Y-35875548D01*
D13*
X86341171Y-33727810D02*
X86297628Y-33727810D01*
X86254085Y-33752000D01*
X86232314Y-33776190D01*
X86210543Y-33824571D01*
X86188771Y-33921333D01*
X86188771Y-34042286D01*
X86210543Y-34139048D01*
X86232314Y-34187429D01*
X86254085Y-34211619D01*
X86297628Y-34235810D01*
X86341171Y-34235810D01*
X86384714Y-34211619D01*
X86406485Y-34187429D01*
X86428257Y-34139048D01*
X86450028Y-34042286D01*
X86450028Y-33921333D01*
X86428257Y-33824571D01*
X86406485Y-33776190D01*
X86384714Y-33752000D01*
X86341171Y-33727810D01*
X85992828Y-34187429D02*
X85971056Y-34211619D01*
X85992828Y-34235810D01*
X86014599Y-34211619D01*
X85992828Y-34187429D01*
X85992828Y-34235810D01*
X85535628Y-34235810D02*
X85796885Y-34235810D01*
X85666257Y-34235810D02*
X85666257Y-33727810D01*
X85709800Y-33800381D01*
X85753342Y-33848762D01*
X85796885Y-33872952D01*
X85143742Y-33897143D02*
X85143742Y-34235810D01*
X85339685Y-33897143D02*
X85339685Y-34163238D01*
X85317913Y-34211619D01*
X85274371Y-34235810D01*
X85209056Y-34235810D01*
X85165513Y-34211619D01*
X85143742Y-34187429D01*
D12*
X70353643Y-32129428D02*
X70381462Y-32105238D01*
X70409281Y-32032666D01*
X70409281Y-31984285D01*
X70381462Y-31911714D01*
X70325824Y-31863333D01*
X70270186Y-31839142D01*
X70158910Y-31814952D01*
X70075452Y-31814952D01*
X69964176Y-31839142D01*
X69908538Y-31863333D01*
X69852900Y-31911714D01*
X69825081Y-31984285D01*
X69825081Y-32032666D01*
X69852900Y-32105238D01*
X69880719Y-32129428D01*
X70019814Y-32564857D02*
X70409281Y-32564857D01*
X69797262Y-32443904D02*
X70214548Y-32322952D01*
X70214548Y-32637428D01*
X69880719Y-32806762D02*
X69852900Y-32830952D01*
X69825081Y-32879333D01*
X69825081Y-33000286D01*
X69852900Y-33048667D01*
X69880719Y-33072857D01*
X69936357Y-33097048D01*
X69991995Y-33097048D01*
X70075452Y-33072857D01*
X70409281Y-32782571D01*
X70409281Y-33097048D01*
D13*
X68822810Y-33508829D02*
X68822810Y-33552372D01*
X68847000Y-33595915D01*
X68871190Y-33617686D01*
X68919571Y-33639457D01*
X69016333Y-33661229D01*
X69137286Y-33661229D01*
X69234048Y-33639457D01*
X69282429Y-33617686D01*
X69306619Y-33595915D01*
X69330810Y-33552372D01*
X69330810Y-33508829D01*
X69306619Y-33465286D01*
X69282429Y-33443515D01*
X69234048Y-33421743D01*
X69137286Y-33399972D01*
X69016333Y-33399972D01*
X68919571Y-33421743D01*
X68871190Y-33443515D01*
X68847000Y-33465286D01*
X68822810Y-33508829D01*
X69282429Y-33857172D02*
X69306619Y-33878944D01*
X69330810Y-33857172D01*
X69306619Y-33835401D01*
X69282429Y-33857172D01*
X69330810Y-33857172D01*
X69330810Y-34314372D02*
X69330810Y-34053115D01*
X69330810Y-34183743D02*
X68822810Y-34183743D01*
X68895381Y-34140200D01*
X68943762Y-34096658D01*
X68967952Y-34053115D01*
X68992143Y-34706258D02*
X69330810Y-34706258D01*
X68992143Y-34510315D02*
X69258238Y-34510315D01*
X69306619Y-34532087D01*
X69330810Y-34575629D01*
X69330810Y-34640944D01*
X69306619Y-34684487D01*
X69282429Y-34706258D01*
D12*
X74640643Y-33770428D02*
X74668462Y-33746238D01*
X74696281Y-33673666D01*
X74696281Y-33625285D01*
X74668462Y-33552714D01*
X74612824Y-33504333D01*
X74557186Y-33480142D01*
X74445910Y-33455952D01*
X74362452Y-33455952D01*
X74251176Y-33480142D01*
X74195538Y-33504333D01*
X74139900Y-33552714D01*
X74112081Y-33625285D01*
X74112081Y-33673666D01*
X74139900Y-33746238D01*
X74167719Y-33770428D01*
X74306814Y-34205857D02*
X74696281Y-34205857D01*
X74084262Y-34084904D02*
X74501548Y-33963952D01*
X74501548Y-34278428D01*
X74696281Y-34738048D02*
X74696281Y-34447762D01*
X74696281Y-34592905D02*
X74112081Y-34592905D01*
X74195538Y-34544524D01*
X74251176Y-34496143D01*
X74278995Y-34447762D01*
D13*
X72321810Y-33505829D02*
X72321810Y-33549372D01*
X72346000Y-33592915D01*
X72370190Y-33614686D01*
X72418571Y-33636457D01*
X72515333Y-33658229D01*
X72636286Y-33658229D01*
X72733048Y-33636457D01*
X72781429Y-33614686D01*
X72805619Y-33592915D01*
X72829810Y-33549372D01*
X72829810Y-33505829D01*
X72805619Y-33462286D01*
X72781429Y-33440515D01*
X72733048Y-33418743D01*
X72636286Y-33396972D01*
X72515333Y-33396972D01*
X72418571Y-33418743D01*
X72370190Y-33440515D01*
X72346000Y-33462286D01*
X72321810Y-33505829D01*
X72781429Y-33854172D02*
X72805619Y-33875944D01*
X72829810Y-33854172D01*
X72805619Y-33832401D01*
X72781429Y-33854172D01*
X72829810Y-33854172D01*
X72829810Y-34311372D02*
X72829810Y-34050115D01*
X72829810Y-34180743D02*
X72321810Y-34180743D01*
X72394381Y-34137200D01*
X72442762Y-34093658D01*
X72466952Y-34050115D01*
X72491143Y-34703258D02*
X72829810Y-34703258D01*
X72491143Y-34507315D02*
X72757238Y-34507315D01*
X72805619Y-34529087D01*
X72829810Y-34572629D01*
X72829810Y-34637944D01*
X72805619Y-34681487D01*
X72781429Y-34703258D01*
D12*
X78486643Y-35773428D02*
X78514462Y-35749238D01*
X78542281Y-35676666D01*
X78542281Y-35628285D01*
X78514462Y-35555714D01*
X78458824Y-35507333D01*
X78403186Y-35483142D01*
X78291910Y-35458952D01*
X78208452Y-35458952D01*
X78097176Y-35483142D01*
X78041538Y-35507333D01*
X77985900Y-35555714D01*
X77958081Y-35628285D01*
X77958081Y-35676666D01*
X77985900Y-35749238D01*
X78013719Y-35773428D01*
X78152814Y-36208857D02*
X78542281Y-36208857D01*
X77930262Y-36087904D02*
X78347548Y-35966952D01*
X78347548Y-36281428D01*
X77958081Y-36571714D02*
X77958081Y-36620095D01*
X77985900Y-36668476D01*
X78013719Y-36692667D01*
X78069357Y-36716857D01*
X78180633Y-36741048D01*
X78319729Y-36741048D01*
X78431005Y-36716857D01*
X78486643Y-36692667D01*
X78514462Y-36668476D01*
X78542281Y-36620095D01*
X78542281Y-36571714D01*
X78514462Y-36523333D01*
X78486643Y-36499143D01*
X78431005Y-36474952D01*
X78319729Y-36450762D01*
X78180633Y-36450762D01*
X78069357Y-36474952D01*
X78013719Y-36499143D01*
X77985900Y-36523333D01*
X77958081Y-36571714D01*
D13*
X76221810Y-35544829D02*
X76221810Y-35588372D01*
X76246000Y-35631915D01*
X76270190Y-35653686D01*
X76318571Y-35675457D01*
X76415333Y-35697229D01*
X76536286Y-35697229D01*
X76633048Y-35675457D01*
X76681429Y-35653686D01*
X76705619Y-35631915D01*
X76729810Y-35588372D01*
X76729810Y-35544829D01*
X76705619Y-35501286D01*
X76681429Y-35479515D01*
X76633048Y-35457743D01*
X76536286Y-35435972D01*
X76415333Y-35435972D01*
X76318571Y-35457743D01*
X76270190Y-35479515D01*
X76246000Y-35501286D01*
X76221810Y-35544829D01*
X76681429Y-35893172D02*
X76705619Y-35914944D01*
X76729810Y-35893172D01*
X76705619Y-35871401D01*
X76681429Y-35893172D01*
X76729810Y-35893172D01*
X76729810Y-36350372D02*
X76729810Y-36089115D01*
X76729810Y-36219743D02*
X76221810Y-36219743D01*
X76294381Y-36176200D01*
X76342762Y-36132658D01*
X76366952Y-36089115D01*
X76391143Y-36742258D02*
X76729810Y-36742258D01*
X76391143Y-36546315D02*
X76657238Y-36546315D01*
X76705619Y-36568087D01*
X76729810Y-36611629D01*
X76729810Y-36676944D01*
X76705619Y-36720487D01*
X76681429Y-36742258D01*
D12*
X84458572Y-36174643D02*
X84482762Y-36202462D01*
X84555334Y-36230281D01*
X84603715Y-36230281D01*
X84676286Y-36202462D01*
X84724667Y-36146824D01*
X84748858Y-36091186D01*
X84773048Y-35979910D01*
X84773048Y-35896452D01*
X84748858Y-35785176D01*
X84724667Y-35729538D01*
X84676286Y-35673900D01*
X84603715Y-35646081D01*
X84555334Y-35646081D01*
X84482762Y-35673900D01*
X84458572Y-35701719D01*
X84289239Y-35646081D02*
X83974762Y-35646081D01*
X84144096Y-35868633D01*
X84071524Y-35868633D01*
X84023143Y-35896452D01*
X83998953Y-35924271D01*
X83974762Y-35979910D01*
X83974762Y-36119005D01*
X83998953Y-36174643D01*
X84023143Y-36202462D01*
X84071524Y-36230281D01*
X84216667Y-36230281D01*
X84265048Y-36202462D01*
X84289239Y-36174643D01*
X83732857Y-36230281D02*
X83636095Y-36230281D01*
X83587714Y-36202462D01*
X83563524Y-36174643D01*
X83515143Y-36091186D01*
X83490952Y-35979910D01*
X83490952Y-35757357D01*
X83515143Y-35701719D01*
X83539333Y-35673900D01*
X83587714Y-35646081D01*
X83684476Y-35646081D01*
X83732857Y-35673900D01*
X83757048Y-35701719D01*
X83781238Y-35757357D01*
X83781238Y-35896452D01*
X83757048Y-35952090D01*
X83732857Y-35979910D01*
X83684476Y-36007729D01*
X83587714Y-36007729D01*
X83539333Y-35979910D01*
X83515143Y-35952090D01*
X83490952Y-35896452D01*
D13*
X84670171Y-33732810D02*
X84626628Y-33732810D01*
X84583085Y-33757000D01*
X84561314Y-33781190D01*
X84539543Y-33829571D01*
X84517771Y-33926333D01*
X84517771Y-34047286D01*
X84539543Y-34144048D01*
X84561314Y-34192429D01*
X84583085Y-34216619D01*
X84626628Y-34240810D01*
X84670171Y-34240810D01*
X84713714Y-34216619D01*
X84735485Y-34192429D01*
X84757257Y-34144048D01*
X84779028Y-34047286D01*
X84779028Y-33926333D01*
X84757257Y-33829571D01*
X84735485Y-33781190D01*
X84713714Y-33757000D01*
X84670171Y-33732810D01*
X84321828Y-34192429D02*
X84300056Y-34216619D01*
X84321828Y-34240810D01*
X84343599Y-34216619D01*
X84321828Y-34192429D01*
X84321828Y-34240810D01*
X83864628Y-34240810D02*
X84125885Y-34240810D01*
X83995257Y-34240810D02*
X83995257Y-33732810D01*
X84038800Y-33805381D01*
X84082342Y-33853762D01*
X84125885Y-33877952D01*
X83472742Y-33902143D02*
X83472742Y-34240810D01*
X83668685Y-33902143D02*
X83668685Y-34168238D01*
X83646913Y-34216619D01*
X83603371Y-34240810D01*
X83538056Y-34240810D01*
X83494513Y-34216619D01*
X83472742Y-34192429D01*
D10*
X93741095Y-32896381D02*
X93741095Y-33705905D01*
X93693476Y-33801143D01*
X93645857Y-33848762D01*
X93550619Y-33896381D01*
X93360142Y-33896381D01*
X93264904Y-33848762D01*
X93217285Y-33801143D01*
X93169666Y-33705905D01*
X93169666Y-32896381D01*
X92169666Y-33896381D02*
X92741095Y-33896381D01*
X92455381Y-33896381D02*
X92455381Y-32896381D01*
X92550619Y-33039238D01*
X92645857Y-33134476D01*
X92741095Y-33182095D01*
X91550619Y-32896381D02*
X91455380Y-32896381D01*
X91360142Y-32944000D01*
X91312523Y-32991619D01*
X91264904Y-33086857D01*
X91217285Y-33277333D01*
X91217285Y-33515429D01*
X91264904Y-33705905D01*
X91312523Y-33801143D01*
X91360142Y-33848762D01*
X91455380Y-33896381D01*
X91550619Y-33896381D01*
X91645857Y-33848762D01*
X91693476Y-33801143D01*
X91741095Y-33705905D01*
X91788714Y-33515429D01*
X91788714Y-33277333D01*
X91741095Y-33086857D01*
X91693476Y-32991619D01*
X91645857Y-32944000D01*
X91550619Y-32896381D01*
D12*
X46490667Y-69522643D02*
X46514857Y-69550462D01*
X46587429Y-69578281D01*
X46635810Y-69578281D01*
X46708381Y-69550462D01*
X46756762Y-69494824D01*
X46780953Y-69439186D01*
X46805143Y-69327910D01*
X46805143Y-69244452D01*
X46780953Y-69133176D01*
X46756762Y-69077538D01*
X46708381Y-69021900D01*
X46635810Y-68994081D01*
X46587429Y-68994081D01*
X46514857Y-69021900D01*
X46490667Y-69049719D01*
X46006857Y-69578281D02*
X46297143Y-69578281D01*
X46152000Y-69578281D02*
X46152000Y-68994081D01*
X46200381Y-69077538D01*
X46248762Y-69133176D01*
X46297143Y-69160995D01*
D13*
X46699914Y-67765810D02*
X46961171Y-67765810D01*
X46830543Y-67765810D02*
X46830543Y-67257810D01*
X46874086Y-67330381D01*
X46917628Y-67378762D01*
X46961171Y-67402952D01*
X46416885Y-67257810D02*
X46373342Y-67257810D01*
X46329799Y-67282000D01*
X46308028Y-67306190D01*
X46286257Y-67354571D01*
X46264485Y-67451333D01*
X46264485Y-67572286D01*
X46286257Y-67669048D01*
X46308028Y-67717429D01*
X46329799Y-67741619D01*
X46373342Y-67765810D01*
X46416885Y-67765810D01*
X46460428Y-67741619D01*
X46482199Y-67717429D01*
X46503971Y-67669048D01*
X46525742Y-67572286D01*
X46525742Y-67451333D01*
X46503971Y-67354571D01*
X46482199Y-67306190D01*
X46460428Y-67282000D01*
X46416885Y-67257810D01*
X45872599Y-67427143D02*
X45872599Y-67765810D01*
X46068542Y-67427143D02*
X46068542Y-67693238D01*
X46046770Y-67741619D01*
X46003228Y-67765810D01*
X45937913Y-67765810D01*
X45894370Y-67741619D01*
X45872599Y-67717429D01*
D12*
X104805643Y-67382333D02*
X104833462Y-67358143D01*
X104861281Y-67285571D01*
X104861281Y-67237190D01*
X104833462Y-67164619D01*
X104777824Y-67116238D01*
X104722186Y-67092047D01*
X104610910Y-67067857D01*
X104527452Y-67067857D01*
X104416176Y-67092047D01*
X104360538Y-67116238D01*
X104304900Y-67164619D01*
X104277081Y-67237190D01*
X104277081Y-67285571D01*
X104304900Y-67358143D01*
X104332719Y-67382333D01*
X104332719Y-67575857D02*
X104304900Y-67600047D01*
X104277081Y-67648428D01*
X104277081Y-67769381D01*
X104304900Y-67817762D01*
X104332719Y-67841952D01*
X104388357Y-67866143D01*
X104443995Y-67866143D01*
X104527452Y-67841952D01*
X104861281Y-67551666D01*
X104861281Y-67866143D01*
D13*
X106604810Y-67390800D02*
X106604810Y-67129543D01*
X106604810Y-67260171D02*
X106096810Y-67260171D01*
X106169381Y-67216628D01*
X106217762Y-67173086D01*
X106241952Y-67129543D01*
X106266143Y-67782686D02*
X106604810Y-67782686D01*
X106266143Y-67586743D02*
X106532238Y-67586743D01*
X106580619Y-67608515D01*
X106604810Y-67652057D01*
X106604810Y-67717372D01*
X106580619Y-67760915D01*
X106556429Y-67782686D01*
D12*
X45118667Y-62616643D02*
X45142857Y-62644462D01*
X45215429Y-62672281D01*
X45263810Y-62672281D01*
X45336381Y-62644462D01*
X45384762Y-62588824D01*
X45408953Y-62533186D01*
X45433143Y-62421910D01*
X45433143Y-62338452D01*
X45408953Y-62227176D01*
X45384762Y-62171538D01*
X45336381Y-62115900D01*
X45263810Y-62088081D01*
X45215429Y-62088081D01*
X45142857Y-62115900D01*
X45118667Y-62143719D01*
X44949334Y-62088081D02*
X44634857Y-62088081D01*
X44804191Y-62310633D01*
X44731619Y-62310633D01*
X44683238Y-62338452D01*
X44659048Y-62366271D01*
X44634857Y-62421910D01*
X44634857Y-62561005D01*
X44659048Y-62616643D01*
X44683238Y-62644462D01*
X44731619Y-62672281D01*
X44876762Y-62672281D01*
X44925143Y-62644462D01*
X44949334Y-62616643D01*
D13*
X46665914Y-63471810D02*
X46927171Y-63471810D01*
X46796543Y-63471810D02*
X46796543Y-62963810D01*
X46840086Y-63036381D01*
X46883628Y-63084762D01*
X46927171Y-63108952D01*
X46382885Y-62963810D02*
X46339342Y-62963810D01*
X46295799Y-62988000D01*
X46274028Y-63012190D01*
X46252257Y-63060571D01*
X46230485Y-63157333D01*
X46230485Y-63278286D01*
X46252257Y-63375048D01*
X46274028Y-63423429D01*
X46295799Y-63447619D01*
X46339342Y-63471810D01*
X46382885Y-63471810D01*
X46426428Y-63447619D01*
X46448199Y-63423429D01*
X46469971Y-63375048D01*
X46491742Y-63278286D01*
X46491742Y-63157333D01*
X46469971Y-63060571D01*
X46448199Y-63012190D01*
X46426428Y-62988000D01*
X46382885Y-62963810D01*
X45838599Y-63133143D02*
X45838599Y-63471810D01*
X46034542Y-63133143D02*
X46034542Y-63399238D01*
X46012770Y-63447619D01*
X45969228Y-63471810D01*
X45903913Y-63471810D01*
X45860370Y-63447619D01*
X45838599Y-63423429D01*
D12*
X109337643Y-60345333D02*
X109365462Y-60321143D01*
X109393281Y-60248571D01*
X109393281Y-60200190D01*
X109365462Y-60127619D01*
X109309824Y-60079238D01*
X109254186Y-60055047D01*
X109142910Y-60030857D01*
X109059452Y-60030857D01*
X108948176Y-60055047D01*
X108892538Y-60079238D01*
X108836900Y-60127619D01*
X108809081Y-60200190D01*
X108809081Y-60248571D01*
X108836900Y-60321143D01*
X108864719Y-60345333D01*
X109003814Y-60780762D02*
X109393281Y-60780762D01*
X108781262Y-60659809D02*
X109198548Y-60538857D01*
X109198548Y-60853333D01*
D13*
X107580810Y-60353800D02*
X107580810Y-60092543D01*
X107580810Y-60223171D02*
X107072810Y-60223171D01*
X107145381Y-60179628D01*
X107193762Y-60136086D01*
X107217952Y-60092543D01*
X107242143Y-60745686D02*
X107580810Y-60745686D01*
X107242143Y-60549743D02*
X107508238Y-60549743D01*
X107556619Y-60571515D01*
X107580810Y-60615057D01*
X107580810Y-60680372D01*
X107556619Y-60723915D01*
X107532429Y-60745686D01*
D12*
X68850572Y-45903643D02*
X68874762Y-45931462D01*
X68947334Y-45959281D01*
X68995715Y-45959281D01*
X69068286Y-45931462D01*
X69116667Y-45875824D01*
X69140858Y-45820186D01*
X69165048Y-45708910D01*
X69165048Y-45625452D01*
X69140858Y-45514176D01*
X69116667Y-45458538D01*
X69068286Y-45402900D01*
X68995715Y-45375081D01*
X68947334Y-45375081D01*
X68874762Y-45402900D01*
X68850572Y-45430719D01*
X68390953Y-45375081D02*
X68632858Y-45375081D01*
X68657048Y-45653271D01*
X68632858Y-45625452D01*
X68584477Y-45597633D01*
X68463524Y-45597633D01*
X68415143Y-45625452D01*
X68390953Y-45653271D01*
X68366762Y-45708910D01*
X68366762Y-45848005D01*
X68390953Y-45903643D01*
X68415143Y-45931462D01*
X68463524Y-45959281D01*
X68584477Y-45959281D01*
X68632858Y-45931462D01*
X68657048Y-45903643D01*
X68173238Y-45430719D02*
X68149048Y-45402900D01*
X68100667Y-45375081D01*
X67979714Y-45375081D01*
X67931333Y-45402900D01*
X67907143Y-45430719D01*
X67882952Y-45486357D01*
X67882952Y-45541995D01*
X67907143Y-45625452D01*
X68197429Y-45959281D01*
X67882952Y-45959281D01*
D13*
X68600200Y-44146810D02*
X68861457Y-44146810D01*
X68730829Y-44146810D02*
X68730829Y-43638810D01*
X68774372Y-43711381D01*
X68817914Y-43759762D01*
X68861457Y-43783952D01*
X68208314Y-43808143D02*
X68208314Y-44146810D01*
X68404257Y-43808143D02*
X68404257Y-44074238D01*
X68382485Y-44122619D01*
X68338943Y-44146810D01*
X68273628Y-44146810D01*
X68230085Y-44122619D01*
X68208314Y-44098429D01*
D10*
X54745741Y-60248695D02*
X55555265Y-60248695D01*
X55650503Y-60296314D01*
X55698122Y-60343933D01*
X55745741Y-60439171D01*
X55745741Y-60629648D01*
X55698122Y-60724886D01*
X55650503Y-60772505D01*
X55555265Y-60820124D01*
X54745741Y-60820124D01*
X54745741Y-61201076D02*
X54745741Y-61867743D01*
X55745741Y-61439171D01*
X109147381Y-63205095D02*
X109956905Y-63205095D01*
X110052143Y-63252714D01*
X110099762Y-63300333D01*
X110147381Y-63395571D01*
X110147381Y-63586048D01*
X110099762Y-63681286D01*
X110052143Y-63728905D01*
X109956905Y-63776524D01*
X109147381Y-63776524D01*
X109575952Y-64395571D02*
X109528333Y-64300333D01*
X109480714Y-64252714D01*
X109385476Y-64205095D01*
X109337857Y-64205095D01*
X109242619Y-64252714D01*
X109195000Y-64300333D01*
X109147381Y-64395571D01*
X109147381Y-64586048D01*
X109195000Y-64681286D01*
X109242619Y-64728905D01*
X109337857Y-64776524D01*
X109385476Y-64776524D01*
X109480714Y-64728905D01*
X109528333Y-64681286D01*
X109575952Y-64586048D01*
X109575952Y-64395571D01*
X109623571Y-64300333D01*
X109671190Y-64252714D01*
X109766429Y-64205095D01*
X109956905Y-64205095D01*
X110052143Y-64252714D01*
X110099762Y-64300333D01*
X110147381Y-64395571D01*
X110147381Y-64586048D01*
X110099762Y-64681286D01*
X110052143Y-64728905D01*
X109956905Y-64776524D01*
X109766429Y-64776524D01*
X109671190Y-64728905D01*
X109623571Y-64681286D01*
X109575952Y-64586048D01*
D12*
X51673643Y-56562333D02*
X51701462Y-56538143D01*
X51729281Y-56465571D01*
X51729281Y-56417190D01*
X51701462Y-56344619D01*
X51645824Y-56296238D01*
X51590186Y-56272047D01*
X51478910Y-56247857D01*
X51395452Y-56247857D01*
X51284176Y-56272047D01*
X51228538Y-56296238D01*
X51172900Y-56344619D01*
X51145081Y-56417190D01*
X51145081Y-56465571D01*
X51172900Y-56538143D01*
X51200719Y-56562333D01*
X51145081Y-56731666D02*
X51145081Y-57070333D01*
X51729281Y-56852619D01*
D13*
X49316810Y-55154829D02*
X49316810Y-55198372D01*
X49341000Y-55241915D01*
X49365190Y-55263686D01*
X49413571Y-55285457D01*
X49510333Y-55307229D01*
X49631286Y-55307229D01*
X49728048Y-55285457D01*
X49776429Y-55263686D01*
X49800619Y-55241915D01*
X49824810Y-55198372D01*
X49824810Y-55154829D01*
X49800619Y-55111286D01*
X49776429Y-55089515D01*
X49728048Y-55067743D01*
X49631286Y-55045972D01*
X49510333Y-55045972D01*
X49413571Y-55067743D01*
X49365190Y-55089515D01*
X49341000Y-55111286D01*
X49316810Y-55154829D01*
X49776429Y-55503172D02*
X49800619Y-55524944D01*
X49824810Y-55503172D01*
X49800619Y-55481401D01*
X49776429Y-55503172D01*
X49824810Y-55503172D01*
X49824810Y-55960372D02*
X49824810Y-55699115D01*
X49824810Y-55829743D02*
X49316810Y-55829743D01*
X49389381Y-55786200D01*
X49437762Y-55742658D01*
X49461952Y-55699115D01*
X49486143Y-56352258D02*
X49824810Y-56352258D01*
X49486143Y-56156315D02*
X49752238Y-56156315D01*
X49800619Y-56178087D01*
X49824810Y-56221629D01*
X49824810Y-56286944D01*
X49800619Y-56330487D01*
X49776429Y-56352258D01*
D12*
X54330643Y-46163333D02*
X54358462Y-46139143D01*
X54386281Y-46066571D01*
X54386281Y-46018190D01*
X54358462Y-45945619D01*
X54302824Y-45897238D01*
X54247186Y-45873047D01*
X54135910Y-45848857D01*
X54052452Y-45848857D01*
X53941176Y-45873047D01*
X53885538Y-45897238D01*
X53829900Y-45945619D01*
X53802081Y-46018190D01*
X53802081Y-46066571D01*
X53829900Y-46139143D01*
X53857719Y-46163333D01*
X54052452Y-46453619D02*
X54024633Y-46405238D01*
X53996814Y-46381047D01*
X53941176Y-46356857D01*
X53913357Y-46356857D01*
X53857719Y-46381047D01*
X53829900Y-46405238D01*
X53802081Y-46453619D01*
X53802081Y-46550381D01*
X53829900Y-46598762D01*
X53857719Y-46622952D01*
X53913357Y-46647143D01*
X53941176Y-46647143D01*
X53996814Y-46622952D01*
X54024633Y-46598762D01*
X54052452Y-46550381D01*
X54052452Y-46453619D01*
X54080271Y-46405238D01*
X54108090Y-46381047D01*
X54163729Y-46356857D01*
X54275005Y-46356857D01*
X54330643Y-46381047D01*
X54358462Y-46405238D01*
X54386281Y-46453619D01*
X54386281Y-46550381D01*
X54358462Y-46598762D01*
X54330643Y-46622952D01*
X54275005Y-46647143D01*
X54163729Y-46647143D01*
X54108090Y-46622952D01*
X54080271Y-46598762D01*
X54052452Y-46550381D01*
D13*
X55621810Y-45692829D02*
X55621810Y-45736372D01*
X55646000Y-45779915D01*
X55670190Y-45801686D01*
X55718571Y-45823457D01*
X55815333Y-45845229D01*
X55936286Y-45845229D01*
X56033048Y-45823457D01*
X56081429Y-45801686D01*
X56105619Y-45779915D01*
X56129810Y-45736372D01*
X56129810Y-45692829D01*
X56105619Y-45649286D01*
X56081429Y-45627515D01*
X56033048Y-45605743D01*
X55936286Y-45583972D01*
X55815333Y-45583972D01*
X55718571Y-45605743D01*
X55670190Y-45627515D01*
X55646000Y-45649286D01*
X55621810Y-45692829D01*
X56081429Y-46041172D02*
X56105619Y-46062944D01*
X56129810Y-46041172D01*
X56105619Y-46019401D01*
X56081429Y-46041172D01*
X56129810Y-46041172D01*
X56129810Y-46498372D02*
X56129810Y-46237115D01*
X56129810Y-46367743D02*
X55621810Y-46367743D01*
X55694381Y-46324200D01*
X55742762Y-46280658D01*
X55766952Y-46237115D01*
X55791143Y-46890258D02*
X56129810Y-46890258D01*
X55791143Y-46694315D02*
X56057238Y-46694315D01*
X56105619Y-46716087D01*
X56129810Y-46759629D01*
X56129810Y-46824944D01*
X56105619Y-46868487D01*
X56081429Y-46890258D01*
D10*
X54685095Y-54453381D02*
X54685095Y-55262905D01*
X54637476Y-55358143D01*
X54589857Y-55405762D01*
X54494619Y-55453381D01*
X54304142Y-55453381D01*
X54208904Y-55405762D01*
X54161285Y-55358143D01*
X54113666Y-55262905D01*
X54113666Y-54453381D01*
X53732714Y-54453381D02*
X53113666Y-54453381D01*
X53447000Y-54834333D01*
X53304142Y-54834333D01*
X53208904Y-54881952D01*
X53161285Y-54929571D01*
X53113666Y-55024810D01*
X53113666Y-55262905D01*
X53161285Y-55358143D01*
X53208904Y-55405762D01*
X53304142Y-55453381D01*
X53589857Y-55453381D01*
X53685095Y-55405762D01*
X53732714Y-55358143D01*
X52780333Y-54453381D02*
X52161285Y-54453381D01*
X52494619Y-54834333D01*
X52351761Y-54834333D01*
X52256523Y-54881952D01*
X52208904Y-54929571D01*
X52161285Y-55024810D01*
X52161285Y-55262905D01*
X52208904Y-55358143D01*
X52256523Y-55405762D01*
X52351761Y-55453381D01*
X52637476Y-55453381D01*
X52732714Y-55405762D01*
X52780333Y-55358143D01*
D12*
X44836667Y-69522643D02*
X44860857Y-69550462D01*
X44933429Y-69578281D01*
X44981810Y-69578281D01*
X45054381Y-69550462D01*
X45102762Y-69494824D01*
X45126953Y-69439186D01*
X45151143Y-69327910D01*
X45151143Y-69244452D01*
X45126953Y-69133176D01*
X45102762Y-69077538D01*
X45054381Y-69021900D01*
X44981810Y-68994081D01*
X44933429Y-68994081D01*
X44860857Y-69021900D01*
X44836667Y-69049719D01*
X44594762Y-69578281D02*
X44498000Y-69578281D01*
X44449619Y-69550462D01*
X44425429Y-69522643D01*
X44377048Y-69439186D01*
X44352857Y-69327910D01*
X44352857Y-69105357D01*
X44377048Y-69049719D01*
X44401238Y-69021900D01*
X44449619Y-68994081D01*
X44546381Y-68994081D01*
X44594762Y-69021900D01*
X44618953Y-69049719D01*
X44643143Y-69105357D01*
X44643143Y-69244452D01*
X44618953Y-69300090D01*
X44594762Y-69327910D01*
X44546381Y-69355729D01*
X44449619Y-69355729D01*
X44401238Y-69327910D01*
X44377048Y-69300090D01*
X44352857Y-69244452D01*
D13*
X45089457Y-67427143D02*
X45089457Y-67765810D01*
X45198314Y-67233619D02*
X45307171Y-67596476D01*
X45024143Y-67596476D01*
X44893514Y-67257810D02*
X44588714Y-67257810D01*
X44784657Y-67765810D01*
X44218599Y-67427143D02*
X44218599Y-67765810D01*
X44414542Y-67427143D02*
X44414542Y-67693238D01*
X44392770Y-67741619D01*
X44349228Y-67765810D01*
X44283913Y-67765810D01*
X44240370Y-67741619D01*
X44218599Y-67717429D01*
D10*
X43764381Y-63360905D02*
X42764381Y-63360905D01*
X42764381Y-63599000D01*
X42812000Y-63741858D01*
X42907238Y-63837096D01*
X43002476Y-63884715D01*
X43192952Y-63932334D01*
X43335810Y-63932334D01*
X43526286Y-63884715D01*
X43621524Y-63837096D01*
X43716762Y-63741858D01*
X43764381Y-63599000D01*
X43764381Y-63360905D01*
X43764381Y-64884715D02*
X43764381Y-64313286D01*
X43764381Y-64599000D02*
X42764381Y-64599000D01*
X42907238Y-64503762D01*
X43002476Y-64408524D01*
X43050095Y-64313286D01*
X50535095Y-45762381D02*
X50535095Y-46571905D01*
X50487476Y-46667143D01*
X50439857Y-46714762D01*
X50344619Y-46762381D01*
X50154142Y-46762381D01*
X50058904Y-46714762D01*
X50011285Y-46667143D01*
X49963666Y-46571905D01*
X49963666Y-45762381D01*
X49582714Y-45762381D02*
X48963666Y-45762381D01*
X49297000Y-46143333D01*
X49154142Y-46143333D01*
X49058904Y-46190952D01*
X49011285Y-46238571D01*
X48963666Y-46333810D01*
X48963666Y-46571905D01*
X49011285Y-46667143D01*
X49058904Y-46714762D01*
X49154142Y-46762381D01*
X49439857Y-46762381D01*
X49535095Y-46714762D01*
X49582714Y-46667143D01*
X48106523Y-46095714D02*
X48106523Y-46762381D01*
X48344619Y-45714762D02*
X48582714Y-46429048D01*
X47963666Y-46429048D01*
X40949904Y-63676000D02*
X41045142Y-63628381D01*
X41187999Y-63628381D01*
X41330857Y-63676000D01*
X41426095Y-63771238D01*
X41473714Y-63866476D01*
X41521333Y-64056952D01*
X41521333Y-64199810D01*
X41473714Y-64390286D01*
X41426095Y-64485524D01*
X41330857Y-64580762D01*
X41187999Y-64628381D01*
X41092761Y-64628381D01*
X40949904Y-64580762D01*
X40902285Y-64533143D01*
X40902285Y-64199810D01*
X41092761Y-64199810D01*
X40473714Y-64628381D02*
X40473714Y-63628381D01*
X39902285Y-64628381D01*
X39902285Y-63628381D01*
X39426095Y-64628381D02*
X39426095Y-63628381D01*
X39188000Y-63628381D01*
X39045142Y-63676000D01*
X38949904Y-63771238D01*
X38902285Y-63866476D01*
X38854666Y-64056952D01*
X38854666Y-64199810D01*
X38902285Y-64390286D01*
X38949904Y-64485524D01*
X39045142Y-64580762D01*
X39188000Y-64628381D01*
X39426095Y-64628381D01*
X44625024Y-47716380D02*
X44720262Y-47668761D01*
X44863119Y-47668761D01*
X45005977Y-47716380D01*
X45101215Y-47811618D01*
X45148834Y-47906856D01*
X45196453Y-48097332D01*
X45196453Y-48240190D01*
X45148834Y-48430666D01*
X45101215Y-48525904D01*
X45005977Y-48621142D01*
X44863119Y-48668761D01*
X44767881Y-48668761D01*
X44625024Y-48621142D01*
X44577405Y-48573523D01*
X44577405Y-48240190D01*
X44767881Y-48240190D01*
X44148834Y-48668761D02*
X44148834Y-47668761D01*
X43577405Y-48668761D01*
X43577405Y-47668761D01*
X43101215Y-48668761D02*
X43101215Y-47668761D01*
X42863120Y-47668761D01*
X42720262Y-47716380D01*
X42625024Y-47811618D01*
X42577405Y-47906856D01*
X42529786Y-48097332D01*
X42529786Y-48240190D01*
X42577405Y-48430666D01*
X42625024Y-48525904D01*
X42720262Y-48621142D01*
X42863120Y-48668761D01*
X43101215Y-48668761D01*
X44643024Y-35192380D02*
X44738262Y-35144761D01*
X44881119Y-35144761D01*
X45023977Y-35192380D01*
X45119215Y-35287618D01*
X45166834Y-35382856D01*
X45214453Y-35573332D01*
X45214453Y-35716190D01*
X45166834Y-35906666D01*
X45119215Y-36001904D01*
X45023977Y-36097142D01*
X44881119Y-36144761D01*
X44785881Y-36144761D01*
X44643024Y-36097142D01*
X44595405Y-36049523D01*
X44595405Y-35716190D01*
X44785881Y-35716190D01*
X44166834Y-36144761D02*
X44166834Y-35144761D01*
X43595405Y-36144761D01*
X43595405Y-35144761D01*
X43119215Y-36144761D02*
X43119215Y-35144761D01*
X42881120Y-35144761D01*
X42738262Y-35192380D01*
X42643024Y-35287618D01*
X42595405Y-35382856D01*
X42547786Y-35573332D01*
X42547786Y-35716190D01*
X42595405Y-35906666D01*
X42643024Y-36001904D01*
X42738262Y-36097142D01*
X42881120Y-36144761D01*
X43119215Y-36144761D01*
X47111286Y-46111381D02*
X47111286Y-45111381D01*
X47111286Y-45587571D02*
X46539857Y-45587571D01*
X46539857Y-46111381D02*
X46539857Y-45111381D01*
X46111286Y-46063762D02*
X45968429Y-46111381D01*
X45730333Y-46111381D01*
X45635095Y-46063762D01*
X45587476Y-46016143D01*
X45539857Y-45920905D01*
X45539857Y-45825667D01*
X45587476Y-45730429D01*
X45635095Y-45682810D01*
X45730333Y-45635190D01*
X45920810Y-45587571D01*
X46016048Y-45539952D01*
X46063667Y-45492333D01*
X46111286Y-45397095D01*
X46111286Y-45301857D01*
X46063667Y-45206619D01*
X46016048Y-45159000D01*
X45920810Y-45111381D01*
X45682714Y-45111381D01*
X45539857Y-45159000D01*
X44920810Y-45635190D02*
X44920810Y-46111381D01*
X45254143Y-45111381D02*
X44920810Y-45635190D01*
X44587476Y-45111381D01*
X44254143Y-46111381D02*
X44254143Y-45111381D01*
X43682714Y-46111381D01*
X43682714Y-45111381D01*
X42635095Y-46016143D02*
X42682714Y-46063762D01*
X42825571Y-46111381D01*
X42920809Y-46111381D01*
X43063667Y-46063762D01*
X43158905Y-45968524D01*
X43206524Y-45873286D01*
X43254143Y-45682810D01*
X43254143Y-45539952D01*
X43206524Y-45349476D01*
X43158905Y-45254238D01*
X43063667Y-45159000D01*
X42920809Y-45111381D01*
X42825571Y-45111381D01*
X42682714Y-45159000D01*
X42635095Y-45206619D01*
X47800429Y-56169381D02*
X47800429Y-55169381D01*
X47371858Y-55264619D02*
X47324239Y-55217000D01*
X47229001Y-55169381D01*
X46990905Y-55169381D01*
X46895667Y-55217000D01*
X46848048Y-55264619D01*
X46800429Y-55359857D01*
X46800429Y-55455095D01*
X46848048Y-55597952D01*
X47419477Y-56169381D01*
X46800429Y-56169381D01*
X46419477Y-56121762D02*
X46276620Y-56169381D01*
X46038524Y-56169381D01*
X45943286Y-56121762D01*
X45895667Y-56074143D01*
X45848048Y-55978905D01*
X45848048Y-55883667D01*
X45895667Y-55788429D01*
X45943286Y-55740810D01*
X46038524Y-55693190D01*
X46229001Y-55645571D01*
X46324239Y-55597952D01*
X46371858Y-55550333D01*
X46419477Y-55455095D01*
X46419477Y-55359857D01*
X46371858Y-55264619D01*
X46324239Y-55217000D01*
X46229001Y-55169381D01*
X45990905Y-55169381D01*
X45848048Y-55217000D01*
X45657572Y-56264619D02*
X44895667Y-56264619D01*
X44657572Y-56169381D02*
X44657572Y-55169381D01*
X44419477Y-55169381D01*
X44276619Y-55217000D01*
X44181381Y-55312238D01*
X44133762Y-55407476D01*
X44086143Y-55597952D01*
X44086143Y-55740810D01*
X44133762Y-55931286D01*
X44181381Y-56026524D01*
X44276619Y-56121762D01*
X44419477Y-56169381D01*
X44657572Y-56169381D01*
X43705191Y-55883667D02*
X43229000Y-55883667D01*
X43800429Y-56169381D02*
X43467096Y-55169381D01*
X43133762Y-56169381D01*
X42943286Y-55169381D02*
X42371857Y-55169381D01*
X42657572Y-56169381D02*
X42657572Y-55169381D01*
X42086143Y-55883667D02*
X41609952Y-55883667D01*
X42181381Y-56169381D02*
X41848048Y-55169381D01*
X41514714Y-56169381D01*
X47036905Y-42642381D02*
X46703572Y-43642381D01*
X46370238Y-42642381D01*
X46084524Y-43594762D02*
X45941667Y-43642381D01*
X45703571Y-43642381D01*
X45608333Y-43594762D01*
X45560714Y-43547143D01*
X45513095Y-43451905D01*
X45513095Y-43356667D01*
X45560714Y-43261429D01*
X45608333Y-43213810D01*
X45703571Y-43166190D01*
X45894048Y-43118571D01*
X45989286Y-43070952D01*
X46036905Y-43023333D01*
X46084524Y-42928095D01*
X46084524Y-42832857D01*
X46036905Y-42737619D01*
X45989286Y-42690000D01*
X45894048Y-42642381D01*
X45655952Y-42642381D01*
X45513095Y-42690000D01*
X44894048Y-43166190D02*
X44894048Y-43642381D01*
X45227381Y-42642381D02*
X44894048Y-43166190D01*
X44560714Y-42642381D01*
X44227381Y-43642381D02*
X44227381Y-42642381D01*
X43655952Y-43642381D01*
X43655952Y-42642381D01*
X42608333Y-43547143D02*
X42655952Y-43594762D01*
X42798809Y-43642381D01*
X42894047Y-43642381D01*
X43036905Y-43594762D01*
X43132143Y-43499524D01*
X43179762Y-43404286D01*
X43227381Y-43213810D01*
X43227381Y-43070952D01*
X43179762Y-42880476D01*
X43132143Y-42785238D01*
X43036905Y-42690000D01*
X42894047Y-42642381D01*
X42798809Y-42642381D01*
X42655952Y-42690000D01*
X42608333Y-42737619D01*
X48020620Y-61138381D02*
X48020620Y-60138381D01*
X48020620Y-60519333D02*
X47925382Y-60471714D01*
X47734905Y-60471714D01*
X47639667Y-60519333D01*
X47592048Y-60566952D01*
X47544429Y-60662190D01*
X47544429Y-60947905D01*
X47592048Y-61043143D01*
X47639667Y-61090762D01*
X47734905Y-61138381D01*
X47925382Y-61138381D01*
X48020620Y-61090762D01*
X47258715Y-60471714D02*
X46877763Y-60471714D01*
X47115858Y-60138381D02*
X47115858Y-60995524D01*
X47068239Y-61090762D01*
X46973001Y-61138381D01*
X46877763Y-61138381D01*
X46544429Y-60471714D02*
X46544429Y-61138381D01*
X46544429Y-60566952D02*
X46496810Y-60519333D01*
X46401572Y-60471714D01*
X46258714Y-60471714D01*
X46163476Y-60519333D01*
X46115857Y-60614571D01*
X46115857Y-61138381D01*
X45877762Y-61233619D02*
X45115857Y-61233619D01*
X44973000Y-60471714D02*
X44734905Y-61138381D01*
X44496809Y-60471714D01*
X43973000Y-61138381D02*
X44068238Y-61090762D01*
X44115857Y-61043143D01*
X44163476Y-60947905D01*
X44163476Y-60662190D01*
X44115857Y-60566952D01*
X44068238Y-60519333D01*
X43973000Y-60471714D01*
X43830142Y-60471714D01*
X43734904Y-60519333D01*
X43687285Y-60566952D01*
X43639666Y-60662190D01*
X43639666Y-60947905D01*
X43687285Y-61043143D01*
X43734904Y-61090762D01*
X43830142Y-61138381D01*
X43973000Y-61138381D01*
X43068238Y-61138381D02*
X43163476Y-61090762D01*
X43211095Y-60995524D01*
X43211095Y-60138381D01*
X42687285Y-60757429D02*
X41925380Y-60757429D01*
X46805952Y-53685381D02*
X46805952Y-52685381D01*
X46377381Y-52780619D02*
X46329762Y-52733000D01*
X46234524Y-52685381D01*
X45996428Y-52685381D01*
X45901190Y-52733000D01*
X45853571Y-52780619D01*
X45805952Y-52875857D01*
X45805952Y-52971095D01*
X45853571Y-53113952D01*
X46425000Y-53685381D01*
X45805952Y-53685381D01*
X45425000Y-53637762D02*
X45282143Y-53685381D01*
X45044047Y-53685381D01*
X44948809Y-53637762D01*
X44901190Y-53590143D01*
X44853571Y-53494905D01*
X44853571Y-53399667D01*
X44901190Y-53304429D01*
X44948809Y-53256810D01*
X45044047Y-53209190D01*
X45234524Y-53161571D01*
X45329762Y-53113952D01*
X45377381Y-53066333D01*
X45425000Y-52971095D01*
X45425000Y-52875857D01*
X45377381Y-52780619D01*
X45329762Y-52733000D01*
X45234524Y-52685381D01*
X44996428Y-52685381D01*
X44853571Y-52733000D01*
X44663095Y-53780619D02*
X43901190Y-53780619D01*
X43758333Y-52685381D02*
X43520238Y-53685381D01*
X43329761Y-52971095D01*
X43139285Y-53685381D01*
X42901190Y-52685381D01*
X42567857Y-53637762D02*
X42425000Y-53685381D01*
X42186904Y-53685381D01*
X42091666Y-53637762D01*
X42044047Y-53590143D01*
X41996428Y-53494905D01*
X41996428Y-53399667D01*
X42044047Y-53304429D01*
X42091666Y-53256810D01*
X42186904Y-53209190D01*
X42377381Y-53161571D01*
X42472619Y-53113952D01*
X42520238Y-53066333D01*
X42567857Y-52971095D01*
X42567857Y-52875857D01*
X42520238Y-52780619D01*
X42472619Y-52733000D01*
X42377381Y-52685381D01*
X42139285Y-52685381D01*
X41996428Y-52733000D01*
X47551619Y-38628381D02*
X47551619Y-37628381D01*
X47170666Y-37628381D01*
X47075428Y-37676000D01*
X47027809Y-37723619D01*
X46980190Y-37818857D01*
X46980190Y-37961714D01*
X47027809Y-38056952D01*
X47075428Y-38104571D01*
X47170666Y-38152190D01*
X47551619Y-38152190D01*
X45980190Y-38533143D02*
X46027809Y-38580762D01*
X46170666Y-38628381D01*
X46265904Y-38628381D01*
X46408762Y-38580762D01*
X46504000Y-38485524D01*
X46551619Y-38390286D01*
X46599238Y-38199810D01*
X46599238Y-38056952D01*
X46551619Y-37866476D01*
X46504000Y-37771238D01*
X46408762Y-37676000D01*
X46265904Y-37628381D01*
X46170666Y-37628381D01*
X46027809Y-37676000D01*
X45980190Y-37723619D01*
X45075428Y-38628381D02*
X45551619Y-38628381D01*
X45551619Y-37628381D01*
X44742095Y-38628381D02*
X44742095Y-37628381D01*
X44170666Y-38628381D02*
X44599238Y-38056952D01*
X44170666Y-37628381D02*
X44742095Y-38199810D01*
X43837333Y-38628381D02*
X43313523Y-37961714D01*
X43837333Y-37961714D02*
X43313523Y-38628381D01*
X42980190Y-37723619D02*
X42932571Y-37676000D01*
X42837333Y-37628381D01*
X42599237Y-37628381D01*
X42503999Y-37676000D01*
X42456380Y-37723619D01*
X42408761Y-37818857D01*
X42408761Y-37914095D01*
X42456380Y-38056952D01*
X43027809Y-38628381D01*
X42408761Y-38628381D01*
X47273333Y-51140381D02*
X47273333Y-50140381D01*
X46844762Y-50235619D02*
X46797143Y-50188000D01*
X46701905Y-50140381D01*
X46463809Y-50140381D01*
X46368571Y-50188000D01*
X46320952Y-50235619D01*
X46273333Y-50330857D01*
X46273333Y-50426095D01*
X46320952Y-50568952D01*
X46892381Y-51140381D01*
X46273333Y-51140381D01*
X45892381Y-51092762D02*
X45749524Y-51140381D01*
X45511428Y-51140381D01*
X45416190Y-51092762D01*
X45368571Y-51045143D01*
X45320952Y-50949905D01*
X45320952Y-50854667D01*
X45368571Y-50759429D01*
X45416190Y-50711810D01*
X45511428Y-50664190D01*
X45701905Y-50616571D01*
X45797143Y-50568952D01*
X45844762Y-50521333D01*
X45892381Y-50426095D01*
X45892381Y-50330857D01*
X45844762Y-50235619D01*
X45797143Y-50188000D01*
X45701905Y-50140381D01*
X45463809Y-50140381D01*
X45320952Y-50188000D01*
X45130476Y-51235619D02*
X44368571Y-51235619D01*
X43797142Y-50616571D02*
X43654285Y-50664190D01*
X43606666Y-50711810D01*
X43559047Y-50807048D01*
X43559047Y-50949905D01*
X43606666Y-51045143D01*
X43654285Y-51092762D01*
X43749523Y-51140381D01*
X44130476Y-51140381D01*
X44130476Y-50140381D01*
X43797142Y-50140381D01*
X43701904Y-50188000D01*
X43654285Y-50235619D01*
X43606666Y-50330857D01*
X43606666Y-50426095D01*
X43654285Y-50521333D01*
X43701904Y-50568952D01*
X43797142Y-50616571D01*
X44130476Y-50616571D01*
X42559047Y-51045143D02*
X42606666Y-51092762D01*
X42749523Y-51140381D01*
X42844761Y-51140381D01*
X42987619Y-51092762D01*
X43082857Y-50997524D01*
X43130476Y-50902286D01*
X43178095Y-50711810D01*
X43178095Y-50568952D01*
X43130476Y-50378476D01*
X43082857Y-50283238D01*
X42987619Y-50188000D01*
X42844761Y-50140381D01*
X42749523Y-50140381D01*
X42606666Y-50188000D01*
X42559047Y-50235619D01*
X42130476Y-51140381D02*
X42130476Y-50140381D01*
X41559047Y-51140381D02*
X41987619Y-50568952D01*
X41559047Y-50140381D02*
X42130476Y-50711810D01*
X47944620Y-58623381D02*
X47944620Y-57623381D01*
X47944620Y-58004333D02*
X47849382Y-57956714D01*
X47658905Y-57956714D01*
X47563667Y-58004333D01*
X47516048Y-58051952D01*
X47468429Y-58147190D01*
X47468429Y-58432905D01*
X47516048Y-58528143D01*
X47563667Y-58575762D01*
X47658905Y-58623381D01*
X47849382Y-58623381D01*
X47944620Y-58575762D01*
X47182715Y-57956714D02*
X46801763Y-57956714D01*
X47039858Y-57623381D02*
X47039858Y-58480524D01*
X46992239Y-58575762D01*
X46897001Y-58623381D01*
X46801763Y-58623381D01*
X46468429Y-57956714D02*
X46468429Y-58623381D01*
X46468429Y-58051952D02*
X46420810Y-58004333D01*
X46325572Y-57956714D01*
X46182714Y-57956714D01*
X46087476Y-58004333D01*
X46039857Y-58099571D01*
X46039857Y-58623381D01*
X45801762Y-58718619D02*
X45039857Y-58718619D01*
X44897000Y-57956714D02*
X44658905Y-58623381D01*
X44420809Y-57956714D01*
X43897000Y-58623381D02*
X43992238Y-58575762D01*
X44039857Y-58528143D01*
X44087476Y-58432905D01*
X44087476Y-58147190D01*
X44039857Y-58051952D01*
X43992238Y-58004333D01*
X43897000Y-57956714D01*
X43754142Y-57956714D01*
X43658904Y-58004333D01*
X43611285Y-58051952D01*
X43563666Y-58147190D01*
X43563666Y-58432905D01*
X43611285Y-58528143D01*
X43658904Y-58575762D01*
X43754142Y-58623381D01*
X43897000Y-58623381D01*
X42992238Y-58623381D02*
X43087476Y-58575762D01*
X43135095Y-58480524D01*
X43135095Y-57623381D01*
X42611285Y-58242429D02*
X41849380Y-58242429D01*
X42230332Y-58623381D02*
X42230332Y-57861476D01*
X44643024Y-40192380D02*
X44738262Y-40144761D01*
X44881119Y-40144761D01*
X45023977Y-40192380D01*
X45119215Y-40287618D01*
X45166834Y-40382856D01*
X45214453Y-40573332D01*
X45214453Y-40716190D01*
X45166834Y-40906666D01*
X45119215Y-41001904D01*
X45023977Y-41097142D01*
X44881119Y-41144761D01*
X44785881Y-41144761D01*
X44643024Y-41097142D01*
X44595405Y-41049523D01*
X44595405Y-40716190D01*
X44785881Y-40716190D01*
X44166834Y-41144761D02*
X44166834Y-40144761D01*
X43595405Y-41144761D01*
X43595405Y-40144761D01*
X43119215Y-41144761D02*
X43119215Y-40144761D01*
X42881120Y-40144761D01*
X42738262Y-40192380D01*
X42643024Y-40287618D01*
X42595405Y-40382856D01*
X42547786Y-40573332D01*
X42547786Y-40716190D01*
X42595405Y-40906666D01*
X42643024Y-41001904D01*
X42738262Y-41097142D01*
X42881120Y-41144761D01*
X43119215Y-41144761D01*
X42892476Y-68581381D02*
X43368667Y-68581381D01*
X43416286Y-69057571D01*
X43368667Y-69009952D01*
X43273429Y-68962333D01*
X43035333Y-68962333D01*
X42940095Y-69009952D01*
X42892476Y-69057571D01*
X42844857Y-69152810D01*
X42844857Y-69390905D01*
X42892476Y-69486143D01*
X42940095Y-69533762D01*
X43035333Y-69581381D01*
X43273429Y-69581381D01*
X43368667Y-69533762D01*
X43416286Y-69486143D01*
X42559143Y-68581381D02*
X42225810Y-69581381D01*
X41892476Y-68581381D01*
M02*
