M48
; DRILL file {KiCad 6.0.4+dfsg-1+b1} date 2022-05-30T21:13:34 EEST
; FORMAT={-:-/ absolute / inch / decimal}
; #@! TF.CreationDate,2022-05-30T21:13:34+03:00
; #@! TF.GenerationSoftware,Kicad,Pcbnew,6.0.4+dfsg-1+b1
; #@! TF.FileFunction,MixedPlating,1,2
FMAT,2
INCH
; #@! TA.AperFunction,Plated,PTH,ViaDrill
T1C0.0130
; #@! TA.AperFunction,Plated,PTH,ComponentDrill
T2C0.0315
%
G90
G05
T1
X1.6587Y-2.8831
X1.6756Y-3.0984
X1.6916Y-1.3199
X1.6916Y-3.2199
X1.6916Y-3.3199
X1.6916Y-3.4199
X1.6916Y-3.5199
X1.6916Y-3.6199
X1.726Y-2.178
X1.7835Y-2.5201
X1.7835Y-2.7378
X1.7835Y-2.8165
X1.789Y-2.2976
X1.7916Y-1.3199
X1.7916Y-1.4199
X1.7916Y-1.5199
X1.7916Y-2.1199
X1.7916Y-2.2199
X1.7916Y-3.1199
X1.7916Y-3.2199
X1.7916Y-3.3199
X1.7916Y-3.4199
X1.7916Y-3.5199
X1.7916Y-3.6199
X1.8047Y-2.4197
X1.8429Y-2.7646
X1.8689Y-2.3122
X1.8701Y-2.374
X1.8854Y-2.7291
X1.8916Y-1.3199
X1.8916Y-1.4199
X1.8916Y-1.9199
X1.8916Y-2.0199
X1.8916Y-2.1199
X1.8916Y-2.5199
X1.8916Y-3.1199
X1.8916Y-3.2199
X1.8916Y-3.3199
X1.8916Y-3.4199
X1.8916Y-3.5199
X1.8916Y-3.6199
X1.9815Y-2.178
X1.9916Y-1.3199
X1.9916Y-2.0199
X1.9916Y-2.1199
X1.9916Y-3.2199
X1.9916Y-3.3199
X1.9916Y-3.4199
X1.9916Y-3.5199
X1.9916Y-3.6199
X2.0075Y-2.4555
X2.0217Y-2.9185
X2.0394Y-2.1776
X2.0843Y-2.9185
X2.0858Y-2.3425
X2.0862Y-2.2531
X2.089Y-2.6921
X2.0916Y-1.3199
X2.0916Y-1.4199
X2.0916Y-1.5199
X2.0916Y-1.6199
X2.0916Y-1.7199
X2.0916Y-1.8199
X2.0916Y-2.1199
X2.0916Y-3.3199
X2.0916Y-3.4199
X2.0916Y-3.5199
X2.0916Y-3.6199
X2.0996Y-2.178
X2.1102Y-2.4547
X2.1315Y-2.9461
X2.1335Y-2.6736
X2.1732Y-2.1795
X2.1827Y-2.824
X2.1894Y-2.7835
X2.1916Y-1.3199
X2.1916Y-1.4199
X2.1916Y-1.5199
X2.1916Y-1.6199
X2.1916Y-1.7199
X2.1916Y-1.8199
X2.1916Y-1.9199
X2.1916Y-3.2199
X2.1916Y-3.4199
X2.1916Y-3.5199
X2.1916Y-3.6199
X2.2916Y-1.3199
X2.2916Y-1.4199
X2.2916Y-1.5199
X2.2916Y-1.6199
X2.2916Y-1.7199
X2.2916Y-1.8199
X2.2916Y-1.9199
X2.2916Y-3.2199
X2.2916Y-3.3199
X2.2916Y-3.5199
X2.3134Y-2.4543
X2.3441Y-2.8728
X2.3441Y-2.926
X2.3457Y-2.8276
X2.3916Y-1.3199
X2.3916Y-2.0199
X2.3916Y-2.1199
X2.3916Y-2.6199
X2.3916Y-3.6199
X2.3957Y-2.5512
X2.4012Y-3.215
X2.422Y-2.4437
X2.4916Y-1.3199
X2.4916Y-1.4199
X2.4916Y-1.5199
X2.4916Y-2.6199
X2.4916Y-2.7199
X2.4945Y-2.8406
X2.4949Y-2.787
X2.4949Y-2.9075
X2.5441Y-2.6075
X2.5916Y-1.3199
X2.5916Y-1.4199
X2.5916Y-2.7199
X2.5916Y-3.0199
X2.5961Y-3.4945
X2.6016Y-3.111
X2.6453Y-2.9673
X2.6472Y-2.3638
X2.6916Y-1.3199
X2.6916Y-2.7199
X2.6916Y-3.3199
X2.6996Y-3.6146
X2.7441Y-2.2224
X2.787Y-2.5547
X2.7916Y-3.5199
X2.822Y-2.2992
X2.822Y-3.0287
X2.8846Y-3.3091
X2.8916Y-2.1199
X2.8916Y-3.1199
X2.8916Y-3.5199
X2.9016Y-2.6276
X2.9661Y-2.6957
X2.9913Y-2.2236
X2.9916Y-2.1199
X2.9916Y-3.0199
X2.9916Y-3.1199
X2.9916Y-3.2199
X2.9916Y-3.6199
X2.9921Y-2.4626
X3.0445Y-2.7795
X3.0795Y-2.5591
X3.0916Y-2.1199
X3.0916Y-3.1199
X3.0916Y-3.2199
X3.0916Y-3.3199
X3.0916Y-3.4199
X3.0916Y-3.5199
X3.0916Y-3.6199
X3.1169Y-2.2264
X3.1185Y-2.2984
X3.1575Y-2.6343
X3.1916Y-2.1199
X3.1916Y-2.2199
X3.1916Y-3.1199
X3.1916Y-3.2199
X3.1916Y-3.3199
X3.1916Y-3.4199
X3.1916Y-3.6199
X3.2094Y-2.6862
X3.2916Y-2.1199
X3.2916Y-2.2199
X3.2972Y-2.7724
X3.3916Y-2.1199
X3.3916Y-2.6199
X3.3916Y-2.8199
X3.4799Y-2.35
X3.4916Y-2.1199
X3.4916Y-2.6199
X3.4916Y-2.8199
X3.5839Y-2.8043
X3.589Y-2.6287
X3.5916Y-2.1199
X3.5916Y-3.6199
X3.6787Y-2.9024
X3.6916Y-2.1199
X3.6916Y-2.2199
X3.6916Y-2.8199
X3.6916Y-3.3199
X3.6916Y-3.4199
X3.6916Y-3.5199
X3.6916Y-3.6199
X3.7638Y-3.3701
X3.7646Y-3.4815
X3.7681Y-2.9921
X3.7916Y-2.1199
X3.7916Y-2.9199
X3.8142Y-2.1823
X3.8916Y-2.3199
X3.8916Y-2.4199
X3.8916Y-2.5199
X3.8916Y-2.6199
X3.8916Y-2.7199
X3.8916Y-2.9199
X3.8916Y-3.0199
X3.8916Y-3.1199
X3.8916Y-3.6199
X3.9916Y-2.9199
X3.9916Y-3.0199
X4.0916Y-2.9199
X4.0916Y-3.0199
X4.1916Y-3.0199
X4.2916Y-2.7199
X4.2916Y-2.8199
X4.2916Y-3.6199
T2
X1.7104Y-1.3976
X1.7104Y-1.4976
X1.7104Y-1.5976
X1.7104Y-1.6976
X1.7104Y-1.7976
X2.0104Y-1.3976
X2.0104Y-1.4976
X2.0104Y-1.5976
X2.0104Y-1.6976
X2.0104Y-1.7976
X2.4104Y-1.3976
X2.4104Y-1.4976
X2.4104Y-1.5976
X2.4104Y-1.6976
X2.4104Y-1.7976
X2.7104Y-1.3976
X2.7104Y-1.4976
X2.7104Y-1.5976
X2.7104Y-1.6976
X2.7104Y-1.7976
X3.2459Y-3.1496
X3.2459Y-3.2496
X3.2459Y-3.3496
X3.2459Y-3.4496
X3.2459Y-3.5496
X3.5459Y-3.1496
X3.5459Y-3.2496
X3.5459Y-3.3496
X3.5459Y-3.4496
X3.5459Y-3.5496
X3.9459Y-2.2496
X3.9459Y-2.3496
X3.9459Y-2.4496
X3.9459Y-2.5496
X3.9459Y-2.6496
X3.9459Y-3.1496
X3.9459Y-3.2496
X3.9459Y-3.3496
X3.9459Y-3.4496
X3.9459Y-3.5496
X4.2459Y-2.2496
X4.2459Y-2.3496
X4.2459Y-2.4496
X4.2459Y-2.5496
X4.2459Y-2.6496
X4.2459Y-3.1496
X4.2459Y-3.2496
X4.2459Y-3.3496
X4.2459Y-3.4496
X4.2459Y-3.5496
T0
M30
