G04 #@! TF.GenerationSoftware,KiCad,Pcbnew,6.0.4+dfsg-1+b1*
G04 #@! TF.CreationDate,2022-05-30T21:12:58+03:00*
G04 #@! TF.ProjectId,cps1_adapter,63707331-5f61-4646-9170-7465722e6b69,rev?*
G04 #@! TF.SameCoordinates,Original*
G04 #@! TF.FileFunction,Soldermask,Top*
G04 #@! TF.FilePolarity,Negative*
%FSLAX46Y46*%
G04 Gerber Fmt 4.6, Leading zero omitted, Abs format (unit mm)*
G04 Created by KiCad (PCBNEW 6.0.4+dfsg-1+b1) date 2022-05-30 21:12:58*
%MOMM*%
%LPD*%
G01*
G04 APERTURE LIST*
G04 Aperture macros list*
%AMRoundRect*
0 Rectangle with rounded corners*
0 $1 Rounding radius*
0 $2 $3 $4 $5 $6 $7 $8 $9 X,Y pos of 4 corners*
0 Add a 4 corners polygon primitive as box body*
4,1,4,$2,$3,$4,$5,$6,$7,$8,$9,$2,$3,0*
0 Add four circle primitives for the rounded corners*
1,1,$1+$1,$2,$3*
1,1,$1+$1,$4,$5*
1,1,$1+$1,$6,$7*
1,1,$1+$1,$8,$9*
0 Add four rect primitives between the rounded corners*
20,1,$1+$1,$2,$3,$4,$5,0*
20,1,$1+$1,$4,$5,$6,$7,0*
20,1,$1+$1,$6,$7,$8,$9,0*
20,1,$1+$1,$8,$9,$2,$3,0*%
G04 Aperture macros list end*
%ADD10RoundRect,0.050800X-0.750000X1.500000X-0.750000X-1.500000X0.750000X-1.500000X0.750000X1.500000X0*%
%ADD11RoundRect,0.050800X0.571500X-0.317500X0.571500X0.317500X-0.571500X0.317500X-0.571500X-0.317500X0*%
%ADD12RoundRect,0.050800X-0.317500X-0.571500X0.317500X-0.571500X0.317500X0.571500X-0.317500X0.571500X0*%
%ADD13RoundRect,0.050800X-0.571500X0.317500X-0.571500X-0.317500X0.571500X-0.317500X0.571500X0.317500X0*%
%ADD14RoundRect,0.050800X-0.875000X-0.225000X0.875000X-0.225000X0.875000X0.225000X-0.875000X0.225000X0*%
%ADD15C,1.601600*%
%ADD16RoundRect,0.050800X-1.500000X-0.750000X1.500000X-0.750000X1.500000X0.750000X-1.500000X0.750000X0*%
%ADD17RoundRect,0.050800X0.317500X0.571500X-0.317500X0.571500X-0.317500X-0.571500X0.317500X-0.571500X0*%
%ADD18RoundRect,0.050800X-0.750000X-0.225000X0.750000X-0.225000X0.750000X0.225000X-0.750000X0.225000X0*%
%ADD19RoundRect,0.050800X0.750000X-1.500000X0.750000X1.500000X-0.750000X1.500000X-0.750000X-1.500000X0*%
%ADD20RoundRect,0.200800X0.150000X-0.825000X0.150000X0.825000X-0.150000X0.825000X-0.150000X-0.825000X0*%
G04 APERTURE END LIST*
D10*
X91900000Y-58080000D03*
D11*
X47310000Y-68242000D03*
X47310000Y-66718000D03*
D12*
X55938000Y-66530000D03*
X57462000Y-66530000D03*
X53138000Y-66540000D03*
X54662000Y-66540000D03*
D13*
X55780000Y-76748000D03*
X55780000Y-78272000D03*
D14*
X49750000Y-68755000D03*
X49750000Y-69405000D03*
X49750000Y-70055000D03*
X49750000Y-70705000D03*
X49750000Y-71355000D03*
X49750000Y-72005000D03*
X49750000Y-72655000D03*
X49750000Y-73305000D03*
X49750000Y-73955000D03*
X49750000Y-74605000D03*
X56950000Y-74605000D03*
X56950000Y-73955000D03*
X56950000Y-73305000D03*
X56950000Y-72655000D03*
X56950000Y-72005000D03*
X56950000Y-71355000D03*
X56950000Y-70705000D03*
X56950000Y-70055000D03*
X56950000Y-69405000D03*
X56950000Y-68755000D03*
D15*
X82445000Y-80000000D03*
X82445000Y-82540000D03*
X82445000Y-85080000D03*
X82445000Y-87620000D03*
X82445000Y-90160000D03*
X90065000Y-90160000D03*
X90065000Y-87620000D03*
X90065000Y-85080000D03*
X90065000Y-82540000D03*
X90065000Y-80000000D03*
D16*
X42200000Y-66780000D03*
X42200000Y-76310000D03*
D11*
X61400000Y-73622000D03*
X61400000Y-72098000D03*
D16*
X42200000Y-68790000D03*
D15*
X100225000Y-80000000D03*
X100225000Y-82540000D03*
X100225000Y-85080000D03*
X100225000Y-87620000D03*
X100225000Y-90160000D03*
X107845000Y-90160000D03*
X107845000Y-87620000D03*
X107845000Y-85080000D03*
X107845000Y-82540000D03*
X107845000Y-80000000D03*
D17*
X51852000Y-64900000D03*
X50328000Y-64900000D03*
X47112000Y-74610000D03*
X45588000Y-74610000D03*
X47122000Y-72980000D03*
X45598000Y-72980000D03*
D13*
X57410000Y-76748000D03*
X57410000Y-78272000D03*
D12*
X55928000Y-64900000D03*
X57452000Y-64900000D03*
D17*
X51852000Y-66530000D03*
X50328000Y-66530000D03*
D13*
X45690000Y-66718000D03*
X45690000Y-68242000D03*
D15*
X100225000Y-57140000D03*
X100225000Y-59680000D03*
X100225000Y-62220000D03*
X100225000Y-64760000D03*
X100225000Y-67300000D03*
X107845000Y-67300000D03*
X107845000Y-64760000D03*
X107845000Y-62220000D03*
X107845000Y-59680000D03*
X107845000Y-57140000D03*
D18*
X49440000Y-57005000D03*
X49440000Y-57655000D03*
X49440000Y-58305000D03*
X49440000Y-58955000D03*
X49440000Y-59605000D03*
X49440000Y-60255000D03*
X49440000Y-60905000D03*
X49440000Y-61555000D03*
X55340000Y-61555000D03*
X55340000Y-60905000D03*
X55340000Y-60255000D03*
X55340000Y-59605000D03*
X55340000Y-58955000D03*
X55340000Y-58305000D03*
X55340000Y-57655000D03*
X55340000Y-57005000D03*
D16*
X42200000Y-74310000D03*
D19*
X69940000Y-93010000D03*
X74000000Y-93000000D03*
D13*
X58230000Y-57128000D03*
X58230000Y-58652000D03*
D15*
X43445000Y-35500000D03*
X43445000Y-38040000D03*
X43445000Y-40580000D03*
X43445000Y-43120000D03*
X43445000Y-45660000D03*
X51065000Y-45660000D03*
X51065000Y-43120000D03*
X51065000Y-40580000D03*
X51065000Y-38040000D03*
X51065000Y-35500000D03*
X61225000Y-35500000D03*
X61225000Y-38040000D03*
X61225000Y-40580000D03*
X61225000Y-43120000D03*
X61225000Y-45660000D03*
X68845000Y-45660000D03*
X68845000Y-43120000D03*
X68845000Y-40580000D03*
X68845000Y-38040000D03*
X68845000Y-35500000D03*
D10*
X95410000Y-58080000D03*
D19*
X62650000Y-93010000D03*
D10*
X70640000Y-72500000D03*
D12*
X60548000Y-82630000D03*
X62072000Y-82630000D03*
D19*
X66700000Y-93010000D03*
D17*
X62072000Y-84300000D03*
X60548000Y-84300000D03*
D10*
X68630000Y-72500000D03*
D19*
X71960000Y-93000000D03*
X64680000Y-93010000D03*
D17*
X62052000Y-86140000D03*
X60528000Y-86140000D03*
D13*
X62530000Y-79658000D03*
X62530000Y-81182000D03*
D20*
X65255000Y-85895000D03*
X66525000Y-85895000D03*
X67795000Y-85895000D03*
X69065000Y-85895000D03*
X70335000Y-85895000D03*
X71605000Y-85895000D03*
X72875000Y-85895000D03*
X74145000Y-85895000D03*
X74145000Y-80945000D03*
X72875000Y-80945000D03*
X71605000Y-80945000D03*
X70335000Y-80945000D03*
X69065000Y-80945000D03*
X67795000Y-80945000D03*
X66525000Y-80945000D03*
X65255000Y-80945000D03*
D10*
X66620000Y-72510000D03*
D19*
X59130000Y-93010000D03*
G36*
X56041283Y-74214988D02*
G01*
X56056339Y-74225048D01*
X56075199Y-74228800D01*
X57824801Y-74228800D01*
X57843661Y-74225048D01*
X57858567Y-74215089D01*
X57860563Y-74214958D01*
X57861674Y-74216621D01*
X57861587Y-74217350D01*
X57842662Y-74277789D01*
X57861747Y-74342786D01*
X57861275Y-74344729D01*
X57859356Y-74345293D01*
X57858717Y-74345012D01*
X57843661Y-74334952D01*
X57824801Y-74331200D01*
X56075199Y-74331200D01*
X56056339Y-74334952D01*
X56041433Y-74344911D01*
X56039437Y-74345042D01*
X56038326Y-74343379D01*
X56038413Y-74342650D01*
X56057338Y-74282211D01*
X56038253Y-74217214D01*
X56038725Y-74215271D01*
X56040644Y-74214707D01*
X56041283Y-74214988D01*
G37*
G36*
X48841283Y-74214988D02*
G01*
X48856339Y-74225048D01*
X48875199Y-74228800D01*
X50624801Y-74228800D01*
X50643661Y-74225048D01*
X50658567Y-74215089D01*
X50660563Y-74214958D01*
X50661674Y-74216621D01*
X50661587Y-74217350D01*
X50642662Y-74277789D01*
X50661747Y-74342786D01*
X50661275Y-74344729D01*
X50659356Y-74345293D01*
X50658717Y-74345012D01*
X50643661Y-74334952D01*
X50624801Y-74331200D01*
X48875199Y-74331200D01*
X48856339Y-74334952D01*
X48841433Y-74344911D01*
X48839437Y-74345042D01*
X48838326Y-74343379D01*
X48838413Y-74342650D01*
X48857338Y-74282211D01*
X48838253Y-74217214D01*
X48838725Y-74215271D01*
X48840644Y-74214707D01*
X48841283Y-74214988D01*
G37*
G36*
X56041283Y-73564988D02*
G01*
X56056339Y-73575048D01*
X56075199Y-73578800D01*
X57824801Y-73578800D01*
X57843661Y-73575048D01*
X57858567Y-73565089D01*
X57860563Y-73564958D01*
X57861674Y-73566621D01*
X57861587Y-73567350D01*
X57842662Y-73627789D01*
X57861747Y-73692786D01*
X57861275Y-73694729D01*
X57859356Y-73695293D01*
X57858717Y-73695012D01*
X57843661Y-73684952D01*
X57824801Y-73681200D01*
X56075199Y-73681200D01*
X56056339Y-73684952D01*
X56041433Y-73694911D01*
X56039437Y-73695042D01*
X56038326Y-73693379D01*
X56038413Y-73692650D01*
X56057338Y-73632211D01*
X56038253Y-73567214D01*
X56038725Y-73565271D01*
X56040644Y-73564707D01*
X56041283Y-73564988D01*
G37*
G36*
X48841283Y-73564988D02*
G01*
X48856339Y-73575048D01*
X48875199Y-73578800D01*
X50624801Y-73578800D01*
X50643661Y-73575048D01*
X50658567Y-73565089D01*
X50660563Y-73564958D01*
X50661674Y-73566621D01*
X50661587Y-73567350D01*
X50642662Y-73627789D01*
X50661747Y-73692786D01*
X50661275Y-73694729D01*
X50659356Y-73695293D01*
X50658717Y-73695012D01*
X50643661Y-73684952D01*
X50624801Y-73681200D01*
X48875199Y-73681200D01*
X48856339Y-73684952D01*
X48841433Y-73694911D01*
X48839437Y-73695042D01*
X48838326Y-73693379D01*
X48838413Y-73692650D01*
X48857338Y-73632211D01*
X48838253Y-73567214D01*
X48838725Y-73565271D01*
X48840644Y-73564707D01*
X48841283Y-73564988D01*
G37*
G36*
X56041283Y-72914988D02*
G01*
X56056339Y-72925048D01*
X56075199Y-72928800D01*
X57824801Y-72928800D01*
X57843661Y-72925048D01*
X57858567Y-72915089D01*
X57860563Y-72914958D01*
X57861674Y-72916621D01*
X57861587Y-72917350D01*
X57842662Y-72977789D01*
X57861747Y-73042786D01*
X57861275Y-73044729D01*
X57859356Y-73045293D01*
X57858717Y-73045012D01*
X57843661Y-73034952D01*
X57824801Y-73031200D01*
X56075199Y-73031200D01*
X56056339Y-73034952D01*
X56041433Y-73044911D01*
X56039437Y-73045042D01*
X56038326Y-73043379D01*
X56038413Y-73042650D01*
X56057338Y-72982211D01*
X56038253Y-72917214D01*
X56038725Y-72915271D01*
X56040644Y-72914707D01*
X56041283Y-72914988D01*
G37*
G36*
X48841283Y-72914988D02*
G01*
X48856339Y-72925048D01*
X48875199Y-72928800D01*
X50624801Y-72928800D01*
X50643661Y-72925048D01*
X50658567Y-72915089D01*
X50660563Y-72914958D01*
X50661674Y-72916621D01*
X50661587Y-72917350D01*
X50642662Y-72977789D01*
X50661747Y-73042786D01*
X50661275Y-73044729D01*
X50659356Y-73045293D01*
X50658717Y-73045012D01*
X50643661Y-73034952D01*
X50624801Y-73031200D01*
X48875199Y-73031200D01*
X48856339Y-73034952D01*
X48841433Y-73044911D01*
X48839437Y-73045042D01*
X48838326Y-73043379D01*
X48838413Y-73042650D01*
X48857338Y-72982211D01*
X48838253Y-72917214D01*
X48838725Y-72915271D01*
X48840644Y-72914707D01*
X48841283Y-72914988D01*
G37*
G36*
X56041283Y-72264988D02*
G01*
X56056339Y-72275048D01*
X56075199Y-72278800D01*
X57824801Y-72278800D01*
X57843661Y-72275048D01*
X57858567Y-72265089D01*
X57860563Y-72264958D01*
X57861674Y-72266621D01*
X57861587Y-72267350D01*
X57842662Y-72327789D01*
X57861747Y-72392786D01*
X57861275Y-72394729D01*
X57859356Y-72395293D01*
X57858717Y-72395012D01*
X57843661Y-72384952D01*
X57824801Y-72381200D01*
X56075199Y-72381200D01*
X56056339Y-72384952D01*
X56041433Y-72394911D01*
X56039437Y-72395042D01*
X56038326Y-72393379D01*
X56038413Y-72392650D01*
X56057338Y-72332211D01*
X56038253Y-72267214D01*
X56038725Y-72265271D01*
X56040644Y-72264707D01*
X56041283Y-72264988D01*
G37*
G36*
X48841283Y-72264988D02*
G01*
X48856339Y-72275048D01*
X48875199Y-72278800D01*
X50624801Y-72278800D01*
X50643661Y-72275048D01*
X50658567Y-72265089D01*
X50660563Y-72264958D01*
X50661674Y-72266621D01*
X50661587Y-72267350D01*
X50642662Y-72327789D01*
X50661747Y-72392786D01*
X50661275Y-72394729D01*
X50659356Y-72395293D01*
X50658717Y-72395012D01*
X50643661Y-72384952D01*
X50624801Y-72381200D01*
X48875199Y-72381200D01*
X48856339Y-72384952D01*
X48841433Y-72394911D01*
X48839437Y-72395042D01*
X48838326Y-72393379D01*
X48838413Y-72392650D01*
X48857338Y-72332211D01*
X48838253Y-72267214D01*
X48838725Y-72265271D01*
X48840644Y-72264707D01*
X48841283Y-72264988D01*
G37*
G36*
X56041283Y-71614988D02*
G01*
X56056339Y-71625048D01*
X56075199Y-71628800D01*
X57824801Y-71628800D01*
X57843661Y-71625048D01*
X57858567Y-71615089D01*
X57860563Y-71614958D01*
X57861674Y-71616621D01*
X57861587Y-71617350D01*
X57842662Y-71677789D01*
X57861747Y-71742786D01*
X57861275Y-71744729D01*
X57859356Y-71745293D01*
X57858717Y-71745012D01*
X57843661Y-71734952D01*
X57824801Y-71731200D01*
X56075199Y-71731200D01*
X56056339Y-71734952D01*
X56041433Y-71744911D01*
X56039437Y-71745042D01*
X56038326Y-71743379D01*
X56038413Y-71742650D01*
X56057338Y-71682211D01*
X56038253Y-71617214D01*
X56038725Y-71615271D01*
X56040644Y-71614707D01*
X56041283Y-71614988D01*
G37*
G36*
X48841283Y-71614988D02*
G01*
X48856339Y-71625048D01*
X48875199Y-71628800D01*
X50624801Y-71628800D01*
X50643661Y-71625048D01*
X50658567Y-71615089D01*
X50660563Y-71614958D01*
X50661674Y-71616621D01*
X50661587Y-71617350D01*
X50642662Y-71677789D01*
X50661747Y-71742786D01*
X50661275Y-71744729D01*
X50659356Y-71745293D01*
X50658717Y-71745012D01*
X50643661Y-71734952D01*
X50624801Y-71731200D01*
X48875199Y-71731200D01*
X48856339Y-71734952D01*
X48841433Y-71744911D01*
X48839437Y-71745042D01*
X48838326Y-71743379D01*
X48838413Y-71742650D01*
X48857338Y-71682211D01*
X48838253Y-71617214D01*
X48838725Y-71615271D01*
X48840644Y-71614707D01*
X48841283Y-71614988D01*
G37*
G36*
X56041283Y-70964988D02*
G01*
X56056339Y-70975048D01*
X56075199Y-70978800D01*
X57824801Y-70978800D01*
X57843661Y-70975048D01*
X57858567Y-70965089D01*
X57860563Y-70964958D01*
X57861674Y-70966621D01*
X57861587Y-70967350D01*
X57842662Y-71027789D01*
X57861747Y-71092786D01*
X57861275Y-71094729D01*
X57859356Y-71095293D01*
X57858717Y-71095012D01*
X57843661Y-71084952D01*
X57824801Y-71081200D01*
X56075199Y-71081200D01*
X56056339Y-71084952D01*
X56041433Y-71094911D01*
X56039437Y-71095042D01*
X56038326Y-71093379D01*
X56038413Y-71092650D01*
X56057338Y-71032211D01*
X56038253Y-70967214D01*
X56038725Y-70965271D01*
X56040644Y-70964707D01*
X56041283Y-70964988D01*
G37*
G36*
X48841283Y-70964988D02*
G01*
X48856339Y-70975048D01*
X48875199Y-70978800D01*
X50624801Y-70978800D01*
X50643661Y-70975048D01*
X50658567Y-70965089D01*
X50660563Y-70964958D01*
X50661674Y-70966621D01*
X50661587Y-70967350D01*
X50642662Y-71027789D01*
X50661747Y-71092786D01*
X50661275Y-71094729D01*
X50659356Y-71095293D01*
X50658717Y-71095012D01*
X50643661Y-71084952D01*
X50624801Y-71081200D01*
X48875199Y-71081200D01*
X48856339Y-71084952D01*
X48841433Y-71094911D01*
X48839437Y-71095042D01*
X48838326Y-71093379D01*
X48838413Y-71092650D01*
X48857338Y-71032211D01*
X48838253Y-70967214D01*
X48838725Y-70965271D01*
X48840644Y-70964707D01*
X48841283Y-70964988D01*
G37*
G36*
X56041283Y-70314988D02*
G01*
X56056339Y-70325048D01*
X56075199Y-70328800D01*
X57824801Y-70328800D01*
X57843661Y-70325048D01*
X57858567Y-70315089D01*
X57860563Y-70314958D01*
X57861674Y-70316621D01*
X57861587Y-70317350D01*
X57842662Y-70377789D01*
X57861747Y-70442786D01*
X57861275Y-70444729D01*
X57859356Y-70445293D01*
X57858717Y-70445012D01*
X57843661Y-70434952D01*
X57824801Y-70431200D01*
X56075199Y-70431200D01*
X56056339Y-70434952D01*
X56041433Y-70444911D01*
X56039437Y-70445042D01*
X56038326Y-70443379D01*
X56038413Y-70442650D01*
X56057338Y-70382211D01*
X56038253Y-70317214D01*
X56038725Y-70315271D01*
X56040644Y-70314707D01*
X56041283Y-70314988D01*
G37*
G36*
X48841283Y-70314988D02*
G01*
X48856339Y-70325048D01*
X48875199Y-70328800D01*
X50624801Y-70328800D01*
X50643661Y-70325048D01*
X50658567Y-70315089D01*
X50660563Y-70314958D01*
X50661674Y-70316621D01*
X50661587Y-70317350D01*
X50642662Y-70377789D01*
X50661747Y-70442786D01*
X50661275Y-70444729D01*
X50659356Y-70445293D01*
X50658717Y-70445012D01*
X50643661Y-70434952D01*
X50624801Y-70431200D01*
X48875199Y-70431200D01*
X48856339Y-70434952D01*
X48841433Y-70444911D01*
X48839437Y-70445042D01*
X48838326Y-70443379D01*
X48838413Y-70442650D01*
X48857338Y-70382211D01*
X48838253Y-70317214D01*
X48838725Y-70315271D01*
X48840644Y-70314707D01*
X48841283Y-70314988D01*
G37*
G36*
X56041283Y-69664988D02*
G01*
X56056339Y-69675048D01*
X56075199Y-69678800D01*
X57824801Y-69678800D01*
X57843661Y-69675048D01*
X57858567Y-69665089D01*
X57860563Y-69664958D01*
X57861674Y-69666621D01*
X57861587Y-69667350D01*
X57842662Y-69727789D01*
X57861747Y-69792786D01*
X57861275Y-69794729D01*
X57859356Y-69795293D01*
X57858717Y-69795012D01*
X57843661Y-69784952D01*
X57824801Y-69781200D01*
X56075199Y-69781200D01*
X56056339Y-69784952D01*
X56041433Y-69794911D01*
X56039437Y-69795042D01*
X56038326Y-69793379D01*
X56038413Y-69792650D01*
X56057338Y-69732211D01*
X56038253Y-69667214D01*
X56038725Y-69665271D01*
X56040644Y-69664707D01*
X56041283Y-69664988D01*
G37*
G36*
X48841283Y-69664988D02*
G01*
X48856339Y-69675048D01*
X48875199Y-69678800D01*
X50624801Y-69678800D01*
X50643661Y-69675048D01*
X50658567Y-69665089D01*
X50660563Y-69664958D01*
X50661674Y-69666621D01*
X50661587Y-69667350D01*
X50642662Y-69727789D01*
X50661747Y-69792786D01*
X50661275Y-69794729D01*
X50659356Y-69795293D01*
X50658717Y-69795012D01*
X50643661Y-69784952D01*
X50624801Y-69781200D01*
X48875199Y-69781200D01*
X48856339Y-69784952D01*
X48841433Y-69794911D01*
X48839437Y-69795042D01*
X48838326Y-69793379D01*
X48838413Y-69792650D01*
X48857338Y-69732211D01*
X48838253Y-69667214D01*
X48838725Y-69665271D01*
X48840644Y-69664707D01*
X48841283Y-69664988D01*
G37*
G36*
X56041283Y-69014988D02*
G01*
X56056339Y-69025048D01*
X56075199Y-69028800D01*
X57824801Y-69028800D01*
X57843661Y-69025048D01*
X57858567Y-69015089D01*
X57860563Y-69014958D01*
X57861674Y-69016621D01*
X57861587Y-69017350D01*
X57842662Y-69077789D01*
X57861747Y-69142786D01*
X57861275Y-69144729D01*
X57859356Y-69145293D01*
X57858717Y-69145012D01*
X57843661Y-69134952D01*
X57824801Y-69131200D01*
X56075199Y-69131200D01*
X56056339Y-69134952D01*
X56041433Y-69144911D01*
X56039437Y-69145042D01*
X56038326Y-69143379D01*
X56038413Y-69142650D01*
X56057338Y-69082211D01*
X56038253Y-69017214D01*
X56038725Y-69015271D01*
X56040644Y-69014707D01*
X56041283Y-69014988D01*
G37*
G36*
X48841283Y-69014988D02*
G01*
X48856339Y-69025048D01*
X48875199Y-69028800D01*
X50624801Y-69028800D01*
X50643661Y-69025048D01*
X50658567Y-69015089D01*
X50660563Y-69014958D01*
X50661674Y-69016621D01*
X50661587Y-69017350D01*
X50642662Y-69077789D01*
X50661747Y-69142786D01*
X50661275Y-69144729D01*
X50659356Y-69145293D01*
X50658717Y-69145012D01*
X50643661Y-69134952D01*
X50624801Y-69131200D01*
X48875199Y-69131200D01*
X48856339Y-69134952D01*
X48841433Y-69144911D01*
X48839437Y-69145042D01*
X48838326Y-69143379D01*
X48838413Y-69142650D01*
X48857338Y-69082211D01*
X48838253Y-69017214D01*
X48838725Y-69015271D01*
X48840644Y-69014707D01*
X48841283Y-69014988D01*
G37*
G36*
X48656283Y-61164988D02*
G01*
X48671339Y-61175048D01*
X48690199Y-61178800D01*
X50189801Y-61178800D01*
X50208661Y-61175048D01*
X50223567Y-61165089D01*
X50225563Y-61164958D01*
X50226674Y-61166621D01*
X50226587Y-61167350D01*
X50207662Y-61227789D01*
X50226747Y-61292786D01*
X50226275Y-61294729D01*
X50224356Y-61295293D01*
X50223717Y-61295012D01*
X50208661Y-61284952D01*
X50189801Y-61281200D01*
X48690199Y-61281200D01*
X48671339Y-61284952D01*
X48656433Y-61294911D01*
X48654437Y-61295042D01*
X48653326Y-61293379D01*
X48653413Y-61292650D01*
X48672338Y-61232211D01*
X48653253Y-61167214D01*
X48653725Y-61165271D01*
X48655644Y-61164707D01*
X48656283Y-61164988D01*
G37*
G36*
X54556283Y-61164988D02*
G01*
X54571339Y-61175048D01*
X54590199Y-61178800D01*
X56089801Y-61178800D01*
X56108661Y-61175048D01*
X56123567Y-61165089D01*
X56125563Y-61164958D01*
X56126674Y-61166621D01*
X56126587Y-61167350D01*
X56107662Y-61227789D01*
X56126747Y-61292786D01*
X56126275Y-61294729D01*
X56124356Y-61295293D01*
X56123717Y-61295012D01*
X56108661Y-61284952D01*
X56089801Y-61281200D01*
X54590199Y-61281200D01*
X54571339Y-61284952D01*
X54556433Y-61294911D01*
X54554437Y-61295042D01*
X54553326Y-61293379D01*
X54553413Y-61292650D01*
X54572338Y-61232211D01*
X54553253Y-61167214D01*
X54553725Y-61165271D01*
X54555644Y-61164707D01*
X54556283Y-61164988D01*
G37*
G36*
X54556283Y-60514988D02*
G01*
X54571339Y-60525048D01*
X54590199Y-60528800D01*
X56089801Y-60528800D01*
X56108661Y-60525048D01*
X56123567Y-60515089D01*
X56125563Y-60514958D01*
X56126674Y-60516621D01*
X56126587Y-60517350D01*
X56107662Y-60577789D01*
X56126747Y-60642786D01*
X56126275Y-60644729D01*
X56124356Y-60645293D01*
X56123717Y-60645012D01*
X56108661Y-60634952D01*
X56089801Y-60631200D01*
X54590199Y-60631200D01*
X54571339Y-60634952D01*
X54556433Y-60644911D01*
X54554437Y-60645042D01*
X54553326Y-60643379D01*
X54553413Y-60642650D01*
X54572338Y-60582211D01*
X54553253Y-60517214D01*
X54553725Y-60515271D01*
X54555644Y-60514707D01*
X54556283Y-60514988D01*
G37*
G36*
X48656283Y-60514988D02*
G01*
X48671339Y-60525048D01*
X48690199Y-60528800D01*
X50189801Y-60528800D01*
X50208661Y-60525048D01*
X50223567Y-60515089D01*
X50225563Y-60514958D01*
X50226674Y-60516621D01*
X50226587Y-60517350D01*
X50207662Y-60577789D01*
X50226747Y-60642786D01*
X50226275Y-60644729D01*
X50224356Y-60645293D01*
X50223717Y-60645012D01*
X50208661Y-60634952D01*
X50189801Y-60631200D01*
X48690199Y-60631200D01*
X48671339Y-60634952D01*
X48656433Y-60644911D01*
X48654437Y-60645042D01*
X48653326Y-60643379D01*
X48653413Y-60642650D01*
X48672338Y-60582211D01*
X48653253Y-60517214D01*
X48653725Y-60515271D01*
X48655644Y-60514707D01*
X48656283Y-60514988D01*
G37*
G36*
X54556283Y-59864988D02*
G01*
X54571339Y-59875048D01*
X54590199Y-59878800D01*
X56089801Y-59878800D01*
X56108661Y-59875048D01*
X56123567Y-59865089D01*
X56125563Y-59864958D01*
X56126674Y-59866621D01*
X56126587Y-59867350D01*
X56107662Y-59927789D01*
X56126747Y-59992786D01*
X56126275Y-59994729D01*
X56124356Y-59995293D01*
X56123717Y-59995012D01*
X56108661Y-59984952D01*
X56089801Y-59981200D01*
X54590199Y-59981200D01*
X54571339Y-59984952D01*
X54556433Y-59994911D01*
X54554437Y-59995042D01*
X54553326Y-59993379D01*
X54553413Y-59992650D01*
X54572338Y-59932211D01*
X54553253Y-59867214D01*
X54553725Y-59865271D01*
X54555644Y-59864707D01*
X54556283Y-59864988D01*
G37*
G36*
X48656283Y-59864988D02*
G01*
X48671339Y-59875048D01*
X48690199Y-59878800D01*
X50189801Y-59878800D01*
X50208661Y-59875048D01*
X50223567Y-59865089D01*
X50225563Y-59864958D01*
X50226674Y-59866621D01*
X50226587Y-59867350D01*
X50207662Y-59927789D01*
X50226747Y-59992786D01*
X50226275Y-59994729D01*
X50224356Y-59995293D01*
X50223717Y-59995012D01*
X50208661Y-59984952D01*
X50189801Y-59981200D01*
X48690199Y-59981200D01*
X48671339Y-59984952D01*
X48656433Y-59994911D01*
X48654437Y-59995042D01*
X48653326Y-59993379D01*
X48653413Y-59992650D01*
X48672338Y-59932211D01*
X48653253Y-59867214D01*
X48653725Y-59865271D01*
X48655644Y-59864707D01*
X48656283Y-59864988D01*
G37*
G36*
X48656283Y-59214988D02*
G01*
X48671339Y-59225048D01*
X48690199Y-59228800D01*
X50189801Y-59228800D01*
X50208661Y-59225048D01*
X50223567Y-59215089D01*
X50225563Y-59214958D01*
X50226674Y-59216621D01*
X50226587Y-59217350D01*
X50207662Y-59277789D01*
X50226747Y-59342786D01*
X50226275Y-59344729D01*
X50224356Y-59345293D01*
X50223717Y-59345012D01*
X50208661Y-59334952D01*
X50189801Y-59331200D01*
X48690199Y-59331200D01*
X48671339Y-59334952D01*
X48656433Y-59344911D01*
X48654437Y-59345042D01*
X48653326Y-59343379D01*
X48653413Y-59342650D01*
X48672338Y-59282211D01*
X48653253Y-59217214D01*
X48653725Y-59215271D01*
X48655644Y-59214707D01*
X48656283Y-59214988D01*
G37*
G36*
X54556283Y-59214988D02*
G01*
X54571339Y-59225048D01*
X54590199Y-59228800D01*
X56089801Y-59228800D01*
X56108661Y-59225048D01*
X56123567Y-59215089D01*
X56125563Y-59214958D01*
X56126674Y-59216621D01*
X56126587Y-59217350D01*
X56107662Y-59277789D01*
X56126747Y-59342786D01*
X56126275Y-59344729D01*
X56124356Y-59345293D01*
X56123717Y-59345012D01*
X56108661Y-59334952D01*
X56089801Y-59331200D01*
X54590199Y-59331200D01*
X54571339Y-59334952D01*
X54556433Y-59344911D01*
X54554437Y-59345042D01*
X54553326Y-59343379D01*
X54553413Y-59342650D01*
X54572338Y-59282211D01*
X54553253Y-59217214D01*
X54553725Y-59215271D01*
X54555644Y-59214707D01*
X54556283Y-59214988D01*
G37*
G36*
X54556283Y-58564988D02*
G01*
X54571339Y-58575048D01*
X54590199Y-58578800D01*
X56089801Y-58578800D01*
X56108661Y-58575048D01*
X56123567Y-58565089D01*
X56125563Y-58564958D01*
X56126674Y-58566621D01*
X56126587Y-58567350D01*
X56107662Y-58627789D01*
X56126747Y-58692786D01*
X56126275Y-58694729D01*
X56124356Y-58695293D01*
X56123717Y-58695012D01*
X56108661Y-58684952D01*
X56089801Y-58681200D01*
X54590199Y-58681200D01*
X54571339Y-58684952D01*
X54556433Y-58694911D01*
X54554437Y-58695042D01*
X54553326Y-58693379D01*
X54553413Y-58692650D01*
X54572338Y-58632211D01*
X54553253Y-58567214D01*
X54553725Y-58565271D01*
X54555644Y-58564707D01*
X54556283Y-58564988D01*
G37*
G36*
X48656283Y-58564988D02*
G01*
X48671339Y-58575048D01*
X48690199Y-58578800D01*
X50189801Y-58578800D01*
X50208661Y-58575048D01*
X50223567Y-58565089D01*
X50225563Y-58564958D01*
X50226674Y-58566621D01*
X50226587Y-58567350D01*
X50207662Y-58627789D01*
X50226747Y-58692786D01*
X50226275Y-58694729D01*
X50224356Y-58695293D01*
X50223717Y-58695012D01*
X50208661Y-58684952D01*
X50189801Y-58681200D01*
X48690199Y-58681200D01*
X48671339Y-58684952D01*
X48656433Y-58694911D01*
X48654437Y-58695042D01*
X48653326Y-58693379D01*
X48653413Y-58692650D01*
X48672338Y-58632211D01*
X48653253Y-58567214D01*
X48653725Y-58565271D01*
X48655644Y-58564707D01*
X48656283Y-58564988D01*
G37*
G36*
X54556283Y-57914988D02*
G01*
X54571339Y-57925048D01*
X54590199Y-57928800D01*
X56089801Y-57928800D01*
X56108661Y-57925048D01*
X56123567Y-57915089D01*
X56125563Y-57914958D01*
X56126674Y-57916621D01*
X56126587Y-57917350D01*
X56107662Y-57977789D01*
X56126747Y-58042786D01*
X56126275Y-58044729D01*
X56124356Y-58045293D01*
X56123717Y-58045012D01*
X56108661Y-58034952D01*
X56089801Y-58031200D01*
X54590199Y-58031200D01*
X54571339Y-58034952D01*
X54556433Y-58044911D01*
X54554437Y-58045042D01*
X54553326Y-58043379D01*
X54553413Y-58042650D01*
X54572338Y-57982211D01*
X54553253Y-57917214D01*
X54553725Y-57915271D01*
X54555644Y-57914707D01*
X54556283Y-57914988D01*
G37*
G36*
X48656283Y-57914988D02*
G01*
X48671339Y-57925048D01*
X48690199Y-57928800D01*
X50189801Y-57928800D01*
X50208661Y-57925048D01*
X50223567Y-57915089D01*
X50225563Y-57914958D01*
X50226674Y-57916621D01*
X50226587Y-57917350D01*
X50207662Y-57977789D01*
X50226747Y-58042786D01*
X50226275Y-58044729D01*
X50224356Y-58045293D01*
X50223717Y-58045012D01*
X50208661Y-58034952D01*
X50189801Y-58031200D01*
X48690199Y-58031200D01*
X48671339Y-58034952D01*
X48656433Y-58044911D01*
X48654437Y-58045042D01*
X48653326Y-58043379D01*
X48653413Y-58042650D01*
X48672338Y-57982211D01*
X48653253Y-57917214D01*
X48653725Y-57915271D01*
X48655644Y-57914707D01*
X48656283Y-57914988D01*
G37*
G36*
X54556283Y-57264988D02*
G01*
X54571339Y-57275048D01*
X54590199Y-57278800D01*
X56089801Y-57278800D01*
X56108661Y-57275048D01*
X56123567Y-57265089D01*
X56125563Y-57264958D01*
X56126674Y-57266621D01*
X56126587Y-57267350D01*
X56107662Y-57327789D01*
X56126747Y-57392786D01*
X56126275Y-57394729D01*
X56124356Y-57395293D01*
X56123717Y-57395012D01*
X56108661Y-57384952D01*
X56089801Y-57381200D01*
X54590199Y-57381200D01*
X54571339Y-57384952D01*
X54556433Y-57394911D01*
X54554437Y-57395042D01*
X54553326Y-57393379D01*
X54553413Y-57392650D01*
X54572338Y-57332211D01*
X54553253Y-57267214D01*
X54553725Y-57265271D01*
X54555644Y-57264707D01*
X54556283Y-57264988D01*
G37*
G36*
X48656283Y-57264988D02*
G01*
X48671339Y-57275048D01*
X48690199Y-57278800D01*
X50189801Y-57278800D01*
X50208661Y-57275048D01*
X50223567Y-57265089D01*
X50225563Y-57264958D01*
X50226674Y-57266621D01*
X50226587Y-57267350D01*
X50207662Y-57327789D01*
X50226747Y-57392786D01*
X50226275Y-57394729D01*
X50224356Y-57395293D01*
X50223717Y-57395012D01*
X50208661Y-57384952D01*
X50189801Y-57381200D01*
X48690199Y-57381200D01*
X48671339Y-57384952D01*
X48656433Y-57394911D01*
X48654437Y-57395042D01*
X48653326Y-57393379D01*
X48653413Y-57392650D01*
X48672338Y-57332211D01*
X48653253Y-57267214D01*
X48653725Y-57265271D01*
X48655644Y-57264707D01*
X48656283Y-57264988D01*
G37*
M02*
