G04 #@! TF.GenerationSoftware,KiCad,Pcbnew,6.0.4+dfsg-1+b1*
G04 #@! TF.CreationDate,2022-05-30T21:12:58+03:00*
G04 #@! TF.ProjectId,cps1_adapter,63707331-5f61-4646-9170-7465722e6b69,rev?*
G04 #@! TF.SameCoordinates,Original*
G04 #@! TF.FileFunction,Paste,Top*
G04 #@! TF.FilePolarity,Positive*
%FSLAX46Y46*%
G04 Gerber Fmt 4.6, Leading zero omitted, Abs format (unit mm)*
G04 Created by KiCad (PCBNEW 6.0.4+dfsg-1+b1) date 2022-05-30 21:12:58*
%MOMM*%
%LPD*%
G01*
G04 APERTURE LIST*
G04 Aperture macros list*
%AMRoundRect*
0 Rectangle with rounded corners*
0 $1 Rounding radius*
0 $2 $3 $4 $5 $6 $7 $8 $9 X,Y pos of 4 corners*
0 Add a 4 corners polygon primitive as box body*
4,1,4,$2,$3,$4,$5,$6,$7,$8,$9,$2,$3,0*
0 Add four circle primitives for the rounded corners*
1,1,$1+$1,$2,$3*
1,1,$1+$1,$4,$5*
1,1,$1+$1,$6,$7*
1,1,$1+$1,$8,$9*
0 Add four rect primitives between the rounded corners*
20,1,$1+$1,$2,$3,$4,$5,0*
20,1,$1+$1,$4,$5,$6,$7,0*
20,1,$1+$1,$6,$7,$8,$9,0*
20,1,$1+$1,$8,$9,$2,$3,0*%
G04 Aperture macros list end*
%ADD10R,1.143000X0.635000*%
%ADD11R,0.635000X1.143000*%
%ADD12R,1.750000X0.450000*%
%ADD13R,1.500000X0.450000*%
%ADD14RoundRect,0.150000X0.150000X-0.825000X0.150000X0.825000X-0.150000X0.825000X-0.150000X-0.825000X0*%
G04 APERTURE END LIST*
D10*
X47310000Y-68242000D03*
X47310000Y-66718000D03*
D11*
X55938000Y-66530000D03*
X57462000Y-66530000D03*
X53138000Y-66540000D03*
X54662000Y-66540000D03*
D10*
X55780000Y-76748000D03*
X55780000Y-78272000D03*
D12*
X49750000Y-68755000D03*
X49750000Y-69405000D03*
X49750000Y-70055000D03*
X49750000Y-70705000D03*
X49750000Y-71355000D03*
X49750000Y-72005000D03*
X49750000Y-72655000D03*
X49750000Y-73305000D03*
X49750000Y-73955000D03*
X49750000Y-74605000D03*
X56950000Y-74605000D03*
X56950000Y-73955000D03*
X56950000Y-73305000D03*
X56950000Y-72655000D03*
X56950000Y-72005000D03*
X56950000Y-71355000D03*
X56950000Y-70705000D03*
X56950000Y-70055000D03*
X56950000Y-69405000D03*
X56950000Y-68755000D03*
D10*
X61400000Y-73622000D03*
X61400000Y-72098000D03*
D11*
X51852000Y-64900000D03*
X50328000Y-64900000D03*
X47112000Y-74610000D03*
X45588000Y-74610000D03*
X47122000Y-72980000D03*
X45598000Y-72980000D03*
D10*
X57410000Y-76748000D03*
X57410000Y-78272000D03*
D11*
X55928000Y-64900000D03*
X57452000Y-64900000D03*
X51852000Y-66530000D03*
X50328000Y-66530000D03*
D10*
X45690000Y-66718000D03*
X45690000Y-68242000D03*
D13*
X49440000Y-57005000D03*
X49440000Y-57655000D03*
X49440000Y-58305000D03*
X49440000Y-58955000D03*
X49440000Y-59605000D03*
X49440000Y-60255000D03*
X49440000Y-60905000D03*
X49440000Y-61555000D03*
X55340000Y-61555000D03*
X55340000Y-60905000D03*
X55340000Y-60255000D03*
X55340000Y-59605000D03*
X55340000Y-58955000D03*
X55340000Y-58305000D03*
X55340000Y-57655000D03*
X55340000Y-57005000D03*
D10*
X58230000Y-57128000D03*
X58230000Y-58652000D03*
D11*
X60548000Y-82630000D03*
X62072000Y-82630000D03*
X62072000Y-84300000D03*
X60548000Y-84300000D03*
X62052000Y-86140000D03*
X60528000Y-86140000D03*
D10*
X62530000Y-79658000D03*
X62530000Y-81182000D03*
D14*
X65255000Y-85895000D03*
X66525000Y-85895000D03*
X67795000Y-85895000D03*
X69065000Y-85895000D03*
X70335000Y-85895000D03*
X71605000Y-85895000D03*
X72875000Y-85895000D03*
X74145000Y-85895000D03*
X74145000Y-80945000D03*
X72875000Y-80945000D03*
X71605000Y-80945000D03*
X70335000Y-80945000D03*
X69065000Y-80945000D03*
X67795000Y-80945000D03*
X66525000Y-80945000D03*
X65255000Y-80945000D03*
M02*
