G04 #@! TF.GenerationSoftware,KiCad,Pcbnew,6.0.4+dfsg-1+b1*
G04 #@! TF.CreationDate,2022-05-30T21:12:58+03:00*
G04 #@! TF.ProjectId,cps1_adapter,63707331-5f61-4646-9170-7465722e6b69,rev?*
G04 #@! TF.SameCoordinates,Original*
G04 #@! TF.FileFunction,Soldermask,Bot*
G04 #@! TF.FilePolarity,Negative*
%FSLAX46Y46*%
G04 Gerber Fmt 4.6, Leading zero omitted, Abs format (unit mm)*
G04 Created by KiCad (PCBNEW 6.0.4+dfsg-1+b1) date 2022-05-30 21:12:58*
%MOMM*%
%LPD*%
G01*
G04 APERTURE LIST*
%ADD10C,1.601600*%
G04 APERTURE END LIST*
D10*
X82445000Y-80000000D03*
X82445000Y-82540000D03*
X82445000Y-85080000D03*
X82445000Y-87620000D03*
X82445000Y-90160000D03*
X90065000Y-90160000D03*
X90065000Y-87620000D03*
X90065000Y-85080000D03*
X90065000Y-82540000D03*
X90065000Y-80000000D03*
X100225000Y-80000000D03*
X100225000Y-82540000D03*
X100225000Y-85080000D03*
X100225000Y-87620000D03*
X100225000Y-90160000D03*
X107845000Y-90160000D03*
X107845000Y-87620000D03*
X107845000Y-85080000D03*
X107845000Y-82540000D03*
X107845000Y-80000000D03*
X100225000Y-57140000D03*
X100225000Y-59680000D03*
X100225000Y-62220000D03*
X100225000Y-64760000D03*
X100225000Y-67300000D03*
X107845000Y-67300000D03*
X107845000Y-64760000D03*
X107845000Y-62220000D03*
X107845000Y-59680000D03*
X107845000Y-57140000D03*
X43445000Y-35500000D03*
X43445000Y-38040000D03*
X43445000Y-40580000D03*
X43445000Y-43120000D03*
X43445000Y-45660000D03*
X51065000Y-45660000D03*
X51065000Y-43120000D03*
X51065000Y-40580000D03*
X51065000Y-38040000D03*
X51065000Y-35500000D03*
X61225000Y-35500000D03*
X61225000Y-38040000D03*
X61225000Y-40580000D03*
X61225000Y-43120000D03*
X61225000Y-45660000D03*
X68845000Y-45660000D03*
X68845000Y-43120000D03*
X68845000Y-40580000D03*
X68845000Y-38040000D03*
X68845000Y-35500000D03*
M02*
