G04 #@! TF.GenerationSoftware,KiCad,Pcbnew,6.0.4+dfsg-1+b1*
G04 #@! TF.CreationDate,2022-05-30T21:12:58+03:00*
G04 #@! TF.ProjectId,cps1_adapter,63707331-5f61-4646-9170-7465722e6b69,rev?*
G04 #@! TF.SameCoordinates,Original*
G04 #@! TF.FileFunction,Copper,L2,Bot*
G04 #@! TF.FilePolarity,Positive*
%FSLAX46Y46*%
G04 Gerber Fmt 4.6, Leading zero omitted, Abs format (unit mm)*
G04 Created by KiCad (PCBNEW 6.0.4+dfsg-1+b1) date 2022-05-30 21:12:58*
%MOMM*%
%LPD*%
G01*
G04 APERTURE LIST*
G04 #@! TA.AperFunction,ComponentPad*
%ADD10C,1.500000*%
G04 #@! TD*
G04 #@! TA.AperFunction,ViaPad*
%ADD11C,0.660000*%
G04 #@! TD*
G04 #@! TA.AperFunction,Conductor*
%ADD12C,0.500000*%
G04 #@! TD*
G04 #@! TA.AperFunction,Conductor*
%ADD13C,0.200000*%
G04 #@! TD*
G04 #@! TA.AperFunction,Conductor*
%ADD14C,0.300000*%
G04 #@! TD*
G04 #@! TA.AperFunction,Conductor*
%ADD15C,0.400000*%
G04 #@! TD*
G04 #@! TA.AperFunction,Conductor*
%ADD16C,0.700000*%
G04 #@! TD*
G04 APERTURE END LIST*
D10*
X82445000Y-80000000D03*
X82445000Y-82540000D03*
X82445000Y-85080000D03*
X82445000Y-87620000D03*
X82445000Y-90160000D03*
X90065000Y-90160000D03*
X90065000Y-87620000D03*
X90065000Y-85080000D03*
X90065000Y-82540000D03*
X90065000Y-80000000D03*
X100225000Y-80000000D03*
X100225000Y-82540000D03*
X100225000Y-85080000D03*
X100225000Y-87620000D03*
X100225000Y-90160000D03*
X107845000Y-90160000D03*
X107845000Y-87620000D03*
X107845000Y-85080000D03*
X107845000Y-82540000D03*
X107845000Y-80000000D03*
X100225000Y-57140000D03*
X100225000Y-59680000D03*
X100225000Y-62220000D03*
X100225000Y-64760000D03*
X100225000Y-67300000D03*
X107845000Y-67300000D03*
X107845000Y-64760000D03*
X107845000Y-62220000D03*
X107845000Y-59680000D03*
X107845000Y-57140000D03*
X43445000Y-35500000D03*
X43445000Y-38040000D03*
X43445000Y-40580000D03*
X43445000Y-43120000D03*
X43445000Y-45660000D03*
X51065000Y-45660000D03*
X51065000Y-43120000D03*
X51065000Y-40580000D03*
X51065000Y-38040000D03*
X51065000Y-35500000D03*
X61225000Y-35500000D03*
X61225000Y-38040000D03*
X61225000Y-40580000D03*
X61225000Y-43120000D03*
X61225000Y-45660000D03*
X68845000Y-45660000D03*
X68845000Y-43120000D03*
X68845000Y-40580000D03*
X68845000Y-38040000D03*
X68845000Y-35500000D03*
D11*
X53330000Y-55320000D03*
X43840000Y-55320000D03*
X50330000Y-55320000D03*
X51800000Y-55310000D03*
X109006667Y-69085000D03*
X63360000Y-72150000D03*
X60746667Y-91945000D03*
X93766667Y-89405000D03*
X63286667Y-69085000D03*
X42966667Y-84325000D03*
X88686667Y-71625000D03*
X55440000Y-71730000D03*
X73446667Y-53845000D03*
X60746667Y-33525000D03*
X63286667Y-38605000D03*
X81066667Y-79245000D03*
X68366667Y-69085000D03*
X58206667Y-81785000D03*
X48046667Y-79245000D03*
X58206667Y-46225000D03*
X60746667Y-66545000D03*
X70906667Y-89405000D03*
X79170000Y-56550000D03*
X81066667Y-53845000D03*
X60746667Y-51305000D03*
X53126667Y-91945000D03*
X98846667Y-91945000D03*
X75986667Y-81785000D03*
X88686667Y-66545000D03*
X58206667Y-43685000D03*
X101386667Y-74165000D03*
X73700000Y-66740000D03*
X42966667Y-91945000D03*
X77330000Y-70600000D03*
X78526667Y-81785000D03*
X48046667Y-86865000D03*
X58206667Y-84325000D03*
X106466667Y-76705000D03*
X45506667Y-33525000D03*
X48046667Y-91945000D03*
X50586667Y-91945000D03*
X81066667Y-56385000D03*
X48046667Y-84325000D03*
X45506667Y-89405000D03*
X78526667Y-53845000D03*
X75986667Y-76705000D03*
X55666667Y-46225000D03*
X65826667Y-69085000D03*
X45506667Y-81785000D03*
X45506667Y-91945000D03*
X75986667Y-53845000D03*
X98846667Y-61465000D03*
X98846667Y-74165000D03*
X45840000Y-61460000D03*
X81066667Y-84325000D03*
X50586667Y-86865000D03*
X47470000Y-58730000D03*
X42130000Y-73230000D03*
X93766667Y-84325000D03*
X42966667Y-89405000D03*
X63286667Y-33525000D03*
X55666667Y-43685000D03*
X95710000Y-76000000D03*
X93766667Y-86865000D03*
X65826667Y-33525000D03*
X103926667Y-76705000D03*
X81520000Y-68230000D03*
X79210000Y-58380000D03*
X78220000Y-65000000D03*
X42560000Y-78700000D03*
X96306667Y-53845000D03*
X65826667Y-76705000D03*
X58206667Y-89405000D03*
X78526667Y-79245000D03*
X76000000Y-62550000D03*
X75986667Y-91945000D03*
X45506667Y-86865000D03*
X88390000Y-59690000D03*
X55666667Y-48765000D03*
X55666667Y-91945000D03*
X93766667Y-56385000D03*
X91160000Y-66770000D03*
X58206667Y-33525000D03*
X83750000Y-70420000D03*
X91226667Y-91945000D03*
X78526667Y-84325000D03*
X91030000Y-71230000D03*
X45506667Y-84325000D03*
X60746667Y-53845000D03*
X69700000Y-56450000D03*
X75340000Y-68470000D03*
X48046667Y-53845000D03*
X55666667Y-38605000D03*
X55666667Y-36065000D03*
X50586667Y-89405000D03*
X53126667Y-86865000D03*
X45506667Y-79245000D03*
X50586667Y-51305000D03*
X63286667Y-66545000D03*
X55666667Y-33525000D03*
X53126667Y-38605000D03*
X88686667Y-53845000D03*
X53126667Y-89405000D03*
X73446667Y-79245000D03*
X52990000Y-57230000D03*
X59580000Y-71820000D03*
X48046667Y-64005000D03*
X53600000Y-62350000D03*
X45506667Y-53845000D03*
X45300000Y-64010000D03*
X96306667Y-74165000D03*
X53126667Y-33525000D03*
X95600000Y-85600000D03*
X53126667Y-43685000D03*
X95620000Y-88430000D03*
X48046667Y-81785000D03*
X78526667Y-86865000D03*
X93766667Y-71625000D03*
X63286667Y-36065000D03*
X45300000Y-69540000D03*
X58206667Y-48765000D03*
X48046667Y-51305000D03*
X58206667Y-36065000D03*
X98846667Y-76705000D03*
X53126667Y-46225000D03*
X48046667Y-33525000D03*
X55666667Y-81785000D03*
X81066667Y-81785000D03*
X101386667Y-76705000D03*
X86146667Y-53845000D03*
X50586667Y-53845000D03*
X71680000Y-58400000D03*
X50586667Y-81785000D03*
X59540000Y-74320000D03*
X98846667Y-69085000D03*
X59540000Y-72970000D03*
X103926667Y-74165000D03*
X45506667Y-38605000D03*
X80200000Y-66910000D03*
X75980000Y-56480000D03*
X52940000Y-74130000D03*
X58206667Y-41145000D03*
X55666667Y-86865000D03*
X42966667Y-81785000D03*
X81066667Y-86865000D03*
X48046667Y-48765000D03*
X52980000Y-59500000D03*
X45440000Y-58360000D03*
X50586667Y-33525000D03*
X68366667Y-33525000D03*
X93440000Y-73720000D03*
X98846667Y-66545000D03*
X60850000Y-64800000D03*
X83606667Y-53845000D03*
X73270000Y-84050000D03*
X50990000Y-62370000D03*
X48046667Y-89405000D03*
X93766667Y-53845000D03*
X98846667Y-58925000D03*
X55666667Y-89405000D03*
X109006667Y-91945000D03*
X45506667Y-36065000D03*
X53126667Y-41145000D03*
X78526667Y-91945000D03*
X65826667Y-36065000D03*
X50586667Y-84325000D03*
X58760000Y-62340000D03*
X73446667Y-89405000D03*
X53126667Y-84325000D03*
X78526667Y-89405000D03*
X96880000Y-55430000D03*
X86146667Y-66545000D03*
X63370000Y-70790000D03*
X45300000Y-71540000D03*
X86146667Y-71625000D03*
X55666667Y-41145000D03*
X68366667Y-84325000D03*
X91226667Y-53845000D03*
X83606667Y-56385000D03*
X98846667Y-79245000D03*
X53126667Y-36065000D03*
X42966667Y-33525000D03*
X63370000Y-73850000D03*
X81066667Y-91945000D03*
X53126667Y-53845000D03*
X66080000Y-79020000D03*
X42966667Y-86865000D03*
X75986667Y-79245000D03*
X98846667Y-64005000D03*
X93766667Y-91945000D03*
X109006667Y-71625000D03*
X58206667Y-38605000D03*
X45506667Y-56385000D03*
X48046667Y-36065000D03*
X61520000Y-62070000D03*
X64620000Y-66230000D03*
X47890000Y-69320000D03*
X55200000Y-55360000D03*
X53060000Y-68380000D03*
X51350000Y-74130000D03*
X54190000Y-67910000D03*
X55610000Y-70700000D03*
X65940000Y-88760000D03*
X68570000Y-91810000D03*
X47500000Y-60300000D03*
X46810000Y-70220000D03*
X60990000Y-81660000D03*
X54140000Y-74830000D03*
X67240000Y-60040000D03*
X70790000Y-64890000D03*
X71680000Y-76930000D03*
X67190000Y-75370000D03*
D12*
X49350000Y-55320000D02*
X50330000Y-55320000D01*
X50170000Y-55330000D02*
X51780000Y-55330000D01*
X51780000Y-55330000D02*
X51800000Y-55310000D01*
X48420000Y-55320000D02*
X50330000Y-55320000D01*
X58760000Y-62710000D02*
X58760000Y-62340000D01*
D13*
X45110000Y-63353310D02*
X45110000Y-62287598D01*
D12*
X88390000Y-59690000D02*
X80520000Y-59690000D01*
X79210000Y-58380000D02*
X79210000Y-56590000D01*
X80130000Y-66910000D02*
X80200000Y-66910000D01*
X50990000Y-62370000D02*
X53230000Y-62370000D01*
X75340000Y-68470000D02*
X75340000Y-68380000D01*
D14*
X52990000Y-59490000D02*
X52980000Y-59500000D01*
D12*
X79210000Y-56590000D02*
X79170000Y-56550000D01*
D15*
X45300000Y-64010000D02*
X45300000Y-64476690D01*
X53529999Y-62420001D02*
X53600000Y-62350000D01*
D12*
X63370000Y-73850000D02*
X63370000Y-76310000D01*
X95710000Y-76000000D02*
X93440000Y-73730000D01*
X63370000Y-76310000D02*
X66080000Y-79020000D01*
X71650000Y-58400000D02*
X69700000Y-56450000D01*
D14*
X59540000Y-71860000D02*
X59580000Y-71820000D01*
D12*
X92650000Y-55430000D02*
X88390000Y-59690000D01*
X46020000Y-57710000D02*
X46270000Y-57460000D01*
D15*
X45300000Y-64476690D02*
X45300000Y-69540000D01*
D12*
X96880000Y-65230000D02*
X96880000Y-55430000D01*
D15*
X53280001Y-62420001D02*
X53529999Y-62420001D01*
D12*
X46020000Y-60813310D02*
X46020000Y-57710000D01*
X93440000Y-73730000D02*
X93440000Y-73720000D01*
X91160000Y-66770000D02*
X95340000Y-66770000D01*
X60770000Y-64720000D02*
X60850000Y-64800000D01*
X95340000Y-66770000D02*
X96880000Y-65230000D01*
D15*
X52980000Y-59500000D02*
X52980000Y-62120000D01*
X55440000Y-71730000D02*
X55340000Y-71730000D01*
X51830000Y-59500000D02*
X50990000Y-60340000D01*
X52980000Y-59500000D02*
X51830000Y-59500000D01*
D12*
X96880000Y-55430000D02*
X92650000Y-55430000D01*
D14*
X45769999Y-58030001D02*
X45440000Y-58360000D01*
D12*
X75340000Y-68380000D02*
X73700000Y-66740000D01*
D15*
X59540000Y-74320000D02*
X59869999Y-74649999D01*
X62920001Y-74649999D02*
X63450000Y-74120000D01*
D12*
X45840000Y-61460000D02*
X45840000Y-60993310D01*
X45840000Y-60993310D02*
X46020000Y-60813310D01*
D13*
X47100000Y-58360000D02*
X45906690Y-58360000D01*
X45906690Y-58360000D02*
X45440000Y-58360000D01*
D14*
X59540000Y-72970000D02*
X59540000Y-71860000D01*
D12*
X78220000Y-65000000D02*
X80130000Y-66910000D01*
D16*
X68641667Y-84050000D02*
X68366667Y-84325000D01*
D15*
X55340000Y-71730000D02*
X52940000Y-74130000D01*
D16*
X73270000Y-84050000D02*
X68641667Y-84050000D01*
D15*
X52980000Y-62120000D02*
X53280001Y-62420001D01*
D12*
X71680000Y-58400000D02*
X71650000Y-58400000D01*
D13*
X45300000Y-69540000D02*
X45300000Y-71540000D01*
D12*
X80520000Y-59690000D02*
X79210000Y-58380000D01*
D13*
X45300000Y-63543310D02*
X45110000Y-63353310D01*
D15*
X50990000Y-60340000D02*
X50990000Y-62370000D01*
D12*
X53230000Y-62370000D02*
X53280001Y-62420001D01*
X63360000Y-72150000D02*
X63360000Y-73840000D01*
X95620000Y-88430000D02*
X95620000Y-85620000D01*
D13*
X47470000Y-58730000D02*
X47100000Y-58360000D01*
D15*
X59869999Y-74649999D02*
X62920001Y-74649999D01*
D12*
X95620000Y-85620000D02*
X95600000Y-85600000D01*
D14*
X52990000Y-57230000D02*
X52990000Y-59490000D01*
D13*
X45300000Y-64010000D02*
X45300000Y-63543310D01*
D12*
X46290000Y-57450000D02*
X48420000Y-55320000D01*
D13*
X45840000Y-61557598D02*
X45840000Y-61460000D01*
D12*
X63360000Y-73840000D02*
X63370000Y-73850000D01*
X60850000Y-64800000D02*
X58760000Y-62710000D01*
D14*
X45859993Y-57940007D02*
X45769999Y-58030001D01*
D12*
X81560000Y-68230000D02*
X83750000Y-70420000D01*
X42560000Y-78700000D02*
X42130000Y-78270000D01*
X42130000Y-78270000D02*
X42130000Y-73230000D01*
D13*
X45110000Y-62287598D02*
X45840000Y-61557598D01*
D12*
X81520000Y-68230000D02*
X81560000Y-68230000D01*
D16*
X64620000Y-65170000D02*
X64620000Y-66230000D01*
X61520000Y-62070000D02*
X64620000Y-65170000D01*
D13*
X54810000Y-62400000D02*
X55200000Y-62010000D01*
X47890000Y-69320000D02*
X54810000Y-62400000D01*
X55200000Y-62010000D02*
X55200000Y-55360000D01*
D14*
X52620000Y-68820000D02*
X53060000Y-68380000D01*
X51350000Y-74130000D02*
X52620000Y-72860000D01*
X52620000Y-72860000D02*
X52620000Y-68820000D01*
D13*
X54190000Y-69280000D02*
X54190000Y-67910000D01*
X55610000Y-70700000D02*
X54190000Y-69280000D01*
X110270000Y-75340000D02*
X110270000Y-87735000D01*
X106540000Y-71610000D02*
X110270000Y-75340000D01*
X68845000Y-51675000D02*
X85310000Y-68140000D01*
X68845000Y-45660000D02*
X68845000Y-51675000D01*
X95400000Y-68140000D02*
X98870000Y-71610000D01*
X85310000Y-68140000D02*
X95400000Y-68140000D01*
X98870000Y-71610000D02*
X106540000Y-71610000D01*
X110270000Y-87735000D02*
X107845000Y-90160000D01*
X89529980Y-72319980D02*
X99630000Y-82420000D01*
X99630000Y-82420000D02*
X100105000Y-82420000D01*
X61225000Y-38040000D02*
X63360000Y-40175000D01*
X63360000Y-40175000D02*
X63360000Y-51714302D01*
X63360000Y-51714302D02*
X83965678Y-72319980D01*
X83965678Y-72319980D02*
X89529980Y-72319980D01*
X100105000Y-82420000D02*
X100225000Y-82540000D01*
X98704311Y-72010011D02*
X106374311Y-72010011D01*
X108594999Y-86870001D02*
X107845000Y-87620000D01*
X67500000Y-50895700D02*
X85144311Y-68540011D01*
X95234311Y-68540011D02*
X98704311Y-72010011D01*
X85144311Y-68540011D02*
X95234311Y-68540011D01*
X106374311Y-72010011D02*
X109860000Y-75495700D01*
X109860000Y-85605000D02*
X108594999Y-86870001D01*
X68845000Y-43120000D02*
X67500000Y-44465000D01*
X109860000Y-75495700D02*
X109860000Y-85605000D01*
X67500000Y-44465000D02*
X67500000Y-50895700D01*
X89349990Y-72719990D02*
X94300000Y-77670000D01*
X61225000Y-40580000D02*
X62930010Y-42285010D01*
X62930010Y-51850010D02*
X83799990Y-72719990D01*
X83799990Y-72719990D02*
X89349990Y-72719990D01*
X94300000Y-79155000D02*
X100225000Y-85080000D01*
X62930010Y-42285010D02*
X62930010Y-51850010D01*
X94300000Y-77670000D02*
X94300000Y-79155000D01*
X95068622Y-68940022D02*
X84978622Y-68940022D01*
X107845000Y-85080000D02*
X109459989Y-83465011D01*
X109459989Y-83465011D02*
X109459989Y-75661389D01*
X68095001Y-41329999D02*
X68845000Y-40580000D01*
X84978622Y-68940022D02*
X67099990Y-51061390D01*
X67099990Y-51061390D02*
X67099990Y-42325010D01*
X106208622Y-72410022D02*
X98538622Y-72410022D01*
X98538622Y-72410022D02*
X95068622Y-68940022D01*
X67099990Y-42325010D02*
X68095001Y-41329999D01*
X109459989Y-75661389D02*
X106208622Y-72410022D01*
X100225000Y-87620000D02*
X93880000Y-81275000D01*
X93880000Y-77830000D02*
X89170000Y-73120000D01*
X93880000Y-81275000D02*
X93880000Y-77830000D01*
X83630000Y-73120000D02*
X62530000Y-52020000D01*
X89170000Y-73120000D02*
X83630000Y-73120000D01*
X62530000Y-44425000D02*
X61225000Y-43120000D01*
X62530000Y-52020000D02*
X62530000Y-44425000D01*
X109059978Y-75859978D02*
X109059978Y-81325022D01*
X109059978Y-81325022D02*
X108594999Y-81790001D01*
X108594999Y-81790001D02*
X107845000Y-82540000D01*
X106010033Y-72810033D02*
X109059978Y-75859978D01*
X98372933Y-72810033D02*
X106010033Y-72810033D01*
X84812933Y-69340033D02*
X94902933Y-69340033D01*
X66699980Y-51227080D02*
X84812933Y-69340033D01*
X66699980Y-40185020D02*
X66699980Y-51227080D01*
X68845000Y-38040000D02*
X66699980Y-40185020D01*
X94902933Y-69340033D02*
X98372933Y-72810033D01*
X105844344Y-73210044D02*
X98207244Y-73210044D01*
X107845000Y-80000000D02*
X107845000Y-75210700D01*
X94737244Y-69740044D02*
X84647244Y-69740044D01*
X98207244Y-73210044D02*
X94737244Y-69740044D01*
X66299970Y-38045030D02*
X68095001Y-36249999D01*
X107845000Y-75210700D02*
X105844344Y-73210044D01*
X84647244Y-69740044D02*
X66299970Y-51392770D01*
X68095001Y-36249999D02*
X68845000Y-35500000D01*
X66299970Y-51392770D02*
X66299970Y-38045030D01*
X92610020Y-87614980D02*
X92610020Y-78298622D01*
X90065000Y-90160000D02*
X92610020Y-87614980D01*
X78699980Y-74679980D02*
X51070000Y-47050000D01*
X51070000Y-45665000D02*
X51065000Y-45660000D01*
X92610020Y-78298622D02*
X88991378Y-74679980D01*
X88991378Y-74679980D02*
X78699980Y-74679980D01*
X51070000Y-47050000D02*
X51070000Y-45665000D01*
X45450000Y-46810000D02*
X45450000Y-40045000D01*
X42650022Y-70598622D02*
X42650022Y-48519978D01*
X82445000Y-82540000D02*
X54591400Y-82540000D01*
X43440000Y-47730000D02*
X44530000Y-47730000D01*
X45450000Y-40045000D02*
X44194999Y-38789999D01*
X42650022Y-48519978D02*
X43440000Y-47730000D01*
X44194999Y-38789999D02*
X43445000Y-38040000D01*
X54591400Y-82540000D02*
X42650022Y-70598622D01*
X44530000Y-47730000D02*
X45450000Y-46810000D01*
X90814999Y-86870001D02*
X90065000Y-87620000D01*
X88825689Y-75079991D02*
X92210009Y-78464311D01*
X49640033Y-46232933D02*
X78487091Y-75079991D01*
X78487091Y-75079991D02*
X88825689Y-75079991D01*
X92210009Y-85474991D02*
X90814999Y-86870001D01*
X49640033Y-44544967D02*
X49640033Y-46232933D01*
X92210009Y-78464311D02*
X92210009Y-85474991D01*
X51065000Y-43120000D02*
X49640033Y-44544967D01*
X82445000Y-85080000D02*
X56565700Y-85080000D01*
X43170000Y-47310000D02*
X44250000Y-47310000D01*
X45040000Y-46520000D02*
X45040000Y-42175000D01*
X44194999Y-41329999D02*
X43445000Y-40580000D01*
X45040000Y-42175000D02*
X44194999Y-41329999D01*
X56565700Y-85080000D02*
X42250011Y-70764311D01*
X42250011Y-48229989D02*
X43170000Y-47310000D01*
X44250000Y-47310000D02*
X45040000Y-46520000D01*
X42250011Y-70764311D02*
X42250011Y-48229989D01*
X88660000Y-75480002D02*
X91809998Y-78630000D01*
X49240022Y-42404978D02*
X49240022Y-46398622D01*
X49240022Y-46398622D02*
X78321402Y-75480002D01*
X51065000Y-40580000D02*
X49240022Y-42404978D01*
X90814999Y-84330001D02*
X90065000Y-85080000D01*
X78321402Y-75480002D02*
X88660000Y-75480002D01*
X91809998Y-78630000D02*
X91809998Y-83335002D01*
X91809998Y-83335002D02*
X90814999Y-84330001D01*
X58540000Y-87620000D02*
X41850000Y-70930000D01*
X41850000Y-44715000D02*
X42695001Y-43869999D01*
X42695001Y-43869999D02*
X43445000Y-43120000D01*
X41850000Y-70930000D02*
X41850000Y-44715000D01*
X82445000Y-87620000D02*
X58540000Y-87620000D01*
X48840011Y-46564311D02*
X48840011Y-40264989D01*
X90065000Y-82540000D02*
X91390000Y-81215000D01*
X91390000Y-78775702D02*
X88494311Y-75880013D01*
X48840011Y-40264989D02*
X50315001Y-38789999D01*
X78155713Y-75880013D02*
X48840011Y-46564311D01*
X88494311Y-75880013D02*
X78155713Y-75880013D01*
X50315001Y-38789999D02*
X51065000Y-38040000D01*
X91390000Y-81215000D02*
X91390000Y-78775702D01*
X48440000Y-38125000D02*
X50315001Y-36249999D01*
X48440000Y-46730000D02*
X48440000Y-38125000D01*
X50315001Y-36249999D02*
X51065000Y-35500000D01*
X77990024Y-76280024D02*
X48440000Y-46730000D01*
X88328622Y-76280024D02*
X77990024Y-76280024D01*
X90065000Y-80000000D02*
X90065000Y-78016402D01*
X90065000Y-78016402D02*
X88328622Y-76280024D01*
X68570000Y-91390000D02*
X68570000Y-91810000D01*
X65940000Y-88760000D02*
X68570000Y-91390000D01*
X46810000Y-70220000D02*
X46810000Y-60990000D01*
X46810000Y-60990000D02*
X47500000Y-60300000D01*
X60990000Y-81660000D02*
X60970000Y-81660000D01*
X60970000Y-81660000D02*
X54140000Y-74830000D01*
X67240000Y-60040000D02*
X70790000Y-63590000D01*
X70790000Y-63590000D02*
X70790000Y-64890000D01*
X68750000Y-76930000D02*
X67190000Y-75370000D01*
X71680000Y-76930000D02*
X68750000Y-76930000D01*
G04 #@! TA.AperFunction,Conductor*
G36*
X68932121Y-31334502D02*
G01*
X68978614Y-31388158D01*
X68990000Y-31440500D01*
X68990000Y-34365347D01*
X68969998Y-34433468D01*
X68916342Y-34479961D01*
X68863121Y-34491344D01*
X68858180Y-34491310D01*
X68852047Y-34490665D01*
X68845905Y-34491224D01*
X68662004Y-34507960D01*
X68662001Y-34507961D01*
X68655865Y-34508519D01*
X68649959Y-34510257D01*
X68649955Y-34510258D01*
X68509775Y-34551516D01*
X68466887Y-34564138D01*
X68461427Y-34566992D01*
X68461428Y-34566992D01*
X68297772Y-34652549D01*
X68297768Y-34652552D01*
X68292312Y-34655404D01*
X68138788Y-34778840D01*
X68012163Y-34929745D01*
X67917262Y-35102371D01*
X67915398Y-35108246D01*
X67915397Y-35108249D01*
X67911269Y-35121263D01*
X67857697Y-35290142D01*
X67835738Y-35485907D01*
X67852222Y-35682209D01*
X67853919Y-35688128D01*
X67853920Y-35688132D01*
X67900675Y-35851185D01*
X67900224Y-35922180D01*
X67868651Y-35975010D01*
X66085550Y-37758112D01*
X66070068Y-37770617D01*
X66066841Y-37773553D01*
X66058088Y-37779205D01*
X66038961Y-37803468D01*
X66035411Y-37807463D01*
X66035510Y-37807547D01*
X66032152Y-37811510D01*
X66028476Y-37815186D01*
X66025453Y-37819415D01*
X66025453Y-37819416D01*
X66018116Y-37829682D01*
X66014555Y-37834425D01*
X65991473Y-37863705D01*
X65991471Y-37863709D01*
X65985024Y-37871887D01*
X65982191Y-37879955D01*
X65977217Y-37886915D01*
X65974233Y-37896893D01*
X65963550Y-37932616D01*
X65961714Y-37938265D01*
X65945920Y-37983238D01*
X65945470Y-37988434D01*
X65945470Y-37991139D01*
X65945373Y-37993395D01*
X65945230Y-37993871D01*
X65945184Y-37993869D01*
X65945171Y-37994068D01*
X65943402Y-37999985D01*
X65944662Y-38032051D01*
X65945373Y-38050154D01*
X65945470Y-38055100D01*
X65945470Y-51341513D01*
X65943364Y-51361307D01*
X65943159Y-51365660D01*
X65940967Y-51375840D01*
X65942191Y-51386178D01*
X65944597Y-51406507D01*
X65944912Y-51411853D01*
X65945042Y-51411842D01*
X65945470Y-51417022D01*
X65945470Y-51422221D01*
X65946323Y-51427345D01*
X65946324Y-51427358D01*
X65948397Y-51439811D01*
X65949234Y-51445686D01*
X65954839Y-51493040D01*
X65958540Y-51500748D01*
X65959945Y-51509187D01*
X65982599Y-51551171D01*
X65985280Y-51556434D01*
X66005925Y-51599428D01*
X66009281Y-51603420D01*
X66011228Y-51605367D01*
X66012718Y-51606992D01*
X66012951Y-51607424D01*
X66012915Y-51607457D01*
X66013054Y-51607615D01*
X66015987Y-51613050D01*
X66023634Y-51620119D01*
X66052851Y-51647127D01*
X66056417Y-51650556D01*
X84360328Y-69954467D01*
X84372836Y-69969953D01*
X84375770Y-69973178D01*
X84381419Y-69981926D01*
X84389596Y-69988372D01*
X84405674Y-70001047D01*
X84409677Y-70004605D01*
X84409762Y-70004505D01*
X84413719Y-70007858D01*
X84417400Y-70011539D01*
X84421632Y-70014563D01*
X84421634Y-70014565D01*
X84431909Y-70021908D01*
X84436653Y-70025470D01*
X84465919Y-70048541D01*
X84465923Y-70048543D01*
X84474101Y-70054990D01*
X84482169Y-70057823D01*
X84489129Y-70062797D01*
X84499107Y-70065781D01*
X84534830Y-70076464D01*
X84540479Y-70078300D01*
X84585452Y-70094094D01*
X84590648Y-70094544D01*
X84593353Y-70094544D01*
X84595609Y-70094641D01*
X84596085Y-70094784D01*
X84596083Y-70094830D01*
X84596282Y-70094843D01*
X84602199Y-70096612D01*
X84652368Y-70094641D01*
X84657314Y-70094544D01*
X94538215Y-70094544D01*
X94606336Y-70114546D01*
X94627310Y-70131449D01*
X97920326Y-73424464D01*
X97932831Y-73439946D01*
X97935767Y-73443173D01*
X97941419Y-73451926D01*
X97965682Y-73471053D01*
X97969677Y-73474603D01*
X97969761Y-73474504D01*
X97973724Y-73477862D01*
X97977400Y-73481538D01*
X97981629Y-73484561D01*
X97981630Y-73484561D01*
X97991896Y-73491898D01*
X97996639Y-73495459D01*
X98025919Y-73518541D01*
X98025923Y-73518543D01*
X98034101Y-73524990D01*
X98042169Y-73527823D01*
X98049129Y-73532797D01*
X98059107Y-73535781D01*
X98094830Y-73546464D01*
X98100479Y-73548300D01*
X98145452Y-73564094D01*
X98150648Y-73564544D01*
X98153353Y-73564544D01*
X98155609Y-73564641D01*
X98156085Y-73564784D01*
X98156083Y-73564830D01*
X98156282Y-73564843D01*
X98162199Y-73566612D01*
X98212368Y-73564641D01*
X98217314Y-73564544D01*
X105645315Y-73564544D01*
X105713436Y-73584546D01*
X105734410Y-73601449D01*
X107453595Y-75320633D01*
X107487620Y-75382945D01*
X107490500Y-75409728D01*
X107490500Y-78975485D01*
X107470498Y-79043606D01*
X107422876Y-79087146D01*
X107378876Y-79110149D01*
X107309240Y-79123984D01*
X107243180Y-79097974D01*
X107201667Y-79040379D01*
X107194500Y-78998488D01*
X107194500Y-78217476D01*
X107196921Y-78192894D01*
X107197065Y-78192170D01*
X107199486Y-78180000D01*
X107179734Y-78080699D01*
X107123484Y-77996516D01*
X107039301Y-77940266D01*
X106965067Y-77925500D01*
X106952172Y-77922935D01*
X106940000Y-77920514D01*
X106927103Y-77923079D01*
X106902524Y-77925500D01*
X101177476Y-77925500D01*
X101152897Y-77923079D01*
X101140000Y-77920514D01*
X101127828Y-77922935D01*
X101114933Y-77925500D01*
X101040699Y-77940266D01*
X100956516Y-77996516D01*
X100900266Y-78080699D01*
X100880514Y-78180000D01*
X100882935Y-78192170D01*
X100883079Y-78192894D01*
X100885500Y-78217476D01*
X100885500Y-79003782D01*
X100865498Y-79071903D01*
X100811842Y-79118396D01*
X100741568Y-79128500D01*
X100699571Y-79114617D01*
X100621569Y-79072441D01*
X100621562Y-79072438D01*
X100616143Y-79069508D01*
X100427960Y-79011256D01*
X100421835Y-79010612D01*
X100421834Y-79010612D01*
X100238176Y-78991309D01*
X100238174Y-78991309D01*
X100232047Y-78990665D01*
X100150018Y-78998130D01*
X100042004Y-79007960D01*
X100042001Y-79007961D01*
X100035865Y-79008519D01*
X100029959Y-79010257D01*
X100029955Y-79010258D01*
X99916649Y-79043606D01*
X99846887Y-79064138D01*
X99841427Y-79066992D01*
X99841428Y-79066992D01*
X99677772Y-79152549D01*
X99677768Y-79152552D01*
X99672312Y-79155404D01*
X99518788Y-79278840D01*
X99392163Y-79429745D01*
X99389195Y-79435144D01*
X99303602Y-79590839D01*
X99297262Y-79602371D01*
X99295398Y-79608246D01*
X99295397Y-79608249D01*
X99260719Y-79717569D01*
X99237697Y-79790142D01*
X99215738Y-79985907D01*
X99232222Y-80182209D01*
X99286521Y-80371570D01*
X99376566Y-80546779D01*
X99380389Y-80551603D01*
X99380392Y-80551607D01*
X99443212Y-80630865D01*
X99498927Y-80701160D01*
X99503620Y-80705154D01*
X99503621Y-80705155D01*
X99574501Y-80765478D01*
X99648945Y-80828835D01*
X99654323Y-80831841D01*
X99654325Y-80831842D01*
X99815524Y-80921933D01*
X99820904Y-80924940D01*
X100008255Y-80985814D01*
X100203862Y-81009139D01*
X100209997Y-81008667D01*
X100209999Y-81008667D01*
X100269801Y-81004065D01*
X100400274Y-80994026D01*
X100590009Y-80941050D01*
X100604224Y-80933870D01*
X100696264Y-80887377D01*
X100702690Y-80884131D01*
X100772512Y-80871271D01*
X100838203Y-80898200D01*
X100878906Y-80956370D01*
X100885500Y-80996597D01*
X100885500Y-81543782D01*
X100865498Y-81611903D01*
X100811842Y-81658396D01*
X100741568Y-81668500D01*
X100699571Y-81654617D01*
X100621569Y-81612441D01*
X100621562Y-81612438D01*
X100616143Y-81609508D01*
X100427960Y-81551256D01*
X100421835Y-81550612D01*
X100421834Y-81550612D01*
X100238176Y-81531309D01*
X100238174Y-81531309D01*
X100232047Y-81530665D01*
X100150018Y-81538130D01*
X100042004Y-81547960D01*
X100042001Y-81547961D01*
X100035865Y-81548519D01*
X100029959Y-81550257D01*
X100029955Y-81550258D01*
X99927617Y-81580378D01*
X99846887Y-81604138D01*
X99841427Y-81606992D01*
X99841428Y-81606992D01*
X99677772Y-81692549D01*
X99677768Y-81692552D01*
X99672312Y-81695404D01*
X99667511Y-81699264D01*
X99667505Y-81699268D01*
X99613207Y-81742924D01*
X99547585Y-81770020D01*
X99477730Y-81757336D01*
X99445161Y-81733822D01*
X89816898Y-72105560D01*
X89804393Y-72090078D01*
X89801457Y-72086851D01*
X89795805Y-72078098D01*
X89771542Y-72058971D01*
X89767547Y-72055421D01*
X89767463Y-72055520D01*
X89763500Y-72052162D01*
X89759824Y-72048486D01*
X89755594Y-72045463D01*
X89745328Y-72038126D01*
X89740585Y-72034565D01*
X89711305Y-72011483D01*
X89711301Y-72011481D01*
X89703123Y-72005034D01*
X89695055Y-72002201D01*
X89688095Y-71997227D01*
X89642394Y-71983560D01*
X89636745Y-71981724D01*
X89599249Y-71968556D01*
X89599250Y-71968556D01*
X89591772Y-71965930D01*
X89586576Y-71965480D01*
X89583871Y-71965480D01*
X89581615Y-71965383D01*
X89581139Y-71965240D01*
X89581141Y-71965194D01*
X89580942Y-71965181D01*
X89575025Y-71963412D01*
X89525391Y-71965362D01*
X89524856Y-71965383D01*
X89519910Y-71965480D01*
X84164707Y-71965480D01*
X84096586Y-71945478D01*
X84075612Y-71928575D01*
X63751405Y-51604369D01*
X63717379Y-51542057D01*
X63714500Y-51515274D01*
X63714500Y-40226257D01*
X63716606Y-40206463D01*
X63716811Y-40202110D01*
X63719003Y-40191930D01*
X63715373Y-40161260D01*
X63715058Y-40155917D01*
X63714928Y-40155928D01*
X63714500Y-40150748D01*
X63714500Y-40145549D01*
X63713647Y-40140425D01*
X63713646Y-40140412D01*
X63711573Y-40127959D01*
X63710736Y-40122084D01*
X63706355Y-40085071D01*
X63705131Y-40074730D01*
X63701430Y-40067022D01*
X63700025Y-40058583D01*
X63677371Y-40016599D01*
X63674690Y-40011336D01*
X63670750Y-40003130D01*
X63654045Y-39968342D01*
X63650689Y-39964350D01*
X63648742Y-39962403D01*
X63647252Y-39960778D01*
X63647019Y-39960346D01*
X63647055Y-39960313D01*
X63646916Y-39960155D01*
X63643983Y-39954720D01*
X63607119Y-39920643D01*
X63603553Y-39917214D01*
X62199573Y-38513234D01*
X62165547Y-38450922D01*
X62169110Y-38384367D01*
X62189182Y-38324029D01*
X62209277Y-38263622D01*
X62233966Y-38068183D01*
X62234360Y-38040000D01*
X62215137Y-37843948D01*
X62158200Y-37655363D01*
X62065717Y-37481429D01*
X61941212Y-37328770D01*
X61875894Y-37274734D01*
X61794177Y-37207132D01*
X61794174Y-37207130D01*
X61789427Y-37203203D01*
X61616143Y-37109508D01*
X61427960Y-37051256D01*
X61421835Y-37050612D01*
X61421834Y-37050612D01*
X61238176Y-37031309D01*
X61238174Y-37031309D01*
X61232047Y-37030665D01*
X61150018Y-37038130D01*
X61042004Y-37047960D01*
X61042001Y-37047961D01*
X61035865Y-37048519D01*
X61029959Y-37050257D01*
X61029955Y-37050258D01*
X60889775Y-37091516D01*
X60846887Y-37104138D01*
X60841427Y-37106992D01*
X60841428Y-37106992D01*
X60677772Y-37192549D01*
X60677768Y-37192552D01*
X60672312Y-37195404D01*
X60518788Y-37318840D01*
X60392163Y-37469745D01*
X60297262Y-37642371D01*
X60295398Y-37648246D01*
X60295397Y-37648249D01*
X60291269Y-37661263D01*
X60237697Y-37830142D01*
X60215738Y-38025907D01*
X60216254Y-38032051D01*
X60228337Y-38175938D01*
X60232222Y-38222209D01*
X60259372Y-38316890D01*
X60280676Y-38391185D01*
X60286521Y-38411570D01*
X60289336Y-38417047D01*
X60372751Y-38579355D01*
X60376566Y-38586779D01*
X60380389Y-38591603D01*
X60380392Y-38591607D01*
X60408045Y-38626496D01*
X60498927Y-38741160D01*
X60503620Y-38745154D01*
X60503621Y-38745155D01*
X60528447Y-38766283D01*
X60648945Y-38868835D01*
X60654323Y-38871841D01*
X60654325Y-38871842D01*
X60808392Y-38957947D01*
X60820904Y-38964940D01*
X61008255Y-39025814D01*
X61203862Y-39049139D01*
X61209997Y-39048667D01*
X61209999Y-39048667D01*
X61269801Y-39044065D01*
X61400274Y-39034026D01*
X61577491Y-38984545D01*
X61648481Y-38985490D01*
X61700470Y-39016808D01*
X62968595Y-40284933D01*
X63002621Y-40347245D01*
X63005500Y-40374028D01*
X63005500Y-41554971D01*
X62985498Y-41623092D01*
X62931842Y-41669585D01*
X62861568Y-41679689D01*
X62796988Y-41650195D01*
X62790405Y-41644066D01*
X62199573Y-41053234D01*
X62165547Y-40990922D01*
X62169110Y-40924367D01*
X62207331Y-40809471D01*
X62209277Y-40803622D01*
X62233966Y-40608183D01*
X62234360Y-40580000D01*
X62215137Y-40383948D01*
X62158200Y-40195363D01*
X62128982Y-40140412D01*
X62068611Y-40026871D01*
X62068609Y-40026868D01*
X62065717Y-40021429D01*
X61941212Y-39868770D01*
X61842613Y-39787202D01*
X61794177Y-39747132D01*
X61794174Y-39747130D01*
X61789427Y-39743203D01*
X61616143Y-39649508D01*
X61427960Y-39591256D01*
X61421835Y-39590612D01*
X61421834Y-39590612D01*
X61238176Y-39571309D01*
X61238174Y-39571309D01*
X61232047Y-39570665D01*
X61150018Y-39578130D01*
X61042004Y-39587960D01*
X61042001Y-39587961D01*
X61035865Y-39588519D01*
X61029959Y-39590257D01*
X61029955Y-39590258D01*
X60918613Y-39623028D01*
X60846887Y-39644138D01*
X60841427Y-39646992D01*
X60841428Y-39646992D01*
X60677772Y-39732549D01*
X60677768Y-39732552D01*
X60672312Y-39735404D01*
X60667512Y-39739264D01*
X60667511Y-39739264D01*
X60544282Y-39838342D01*
X60518788Y-39858840D01*
X60392163Y-40009745D01*
X60371810Y-40046768D01*
X60312922Y-40153886D01*
X60297262Y-40182371D01*
X60295398Y-40188246D01*
X60295397Y-40188249D01*
X60286199Y-40217246D01*
X60237697Y-40370142D01*
X60215738Y-40565907D01*
X60232222Y-40762209D01*
X60259371Y-40856889D01*
X60278721Y-40924367D01*
X60286521Y-40951570D01*
X60331544Y-41039175D01*
X60372751Y-41119355D01*
X60376566Y-41126779D01*
X60380389Y-41131603D01*
X60380392Y-41131607D01*
X60408045Y-41166496D01*
X60498927Y-41281160D01*
X60503620Y-41285154D01*
X60503621Y-41285155D01*
X60528447Y-41306283D01*
X60648945Y-41408835D01*
X60654323Y-41411841D01*
X60654325Y-41411842D01*
X60808392Y-41497947D01*
X60820904Y-41504940D01*
X61008255Y-41565814D01*
X61203862Y-41589139D01*
X61209997Y-41588667D01*
X61209999Y-41588667D01*
X61269801Y-41584065D01*
X61400274Y-41574026D01*
X61406204Y-41572370D01*
X61406211Y-41572369D01*
X61577491Y-41524546D01*
X61648481Y-41525492D01*
X61700470Y-41556809D01*
X62538605Y-42394944D01*
X62572631Y-42457256D01*
X62575510Y-42484039D01*
X62575510Y-43664981D01*
X62555508Y-43733102D01*
X62501852Y-43779595D01*
X62431578Y-43789699D01*
X62366998Y-43760205D01*
X62360415Y-43754076D01*
X62199573Y-43593234D01*
X62165547Y-43530922D01*
X62169110Y-43464367D01*
X62207331Y-43349471D01*
X62209277Y-43343622D01*
X62233966Y-43148183D01*
X62234360Y-43120000D01*
X62215137Y-42923948D01*
X62158200Y-42735363D01*
X62148418Y-42716966D01*
X62068611Y-42566871D01*
X62068609Y-42566868D01*
X62065717Y-42561429D01*
X61941212Y-42408770D01*
X61836129Y-42321838D01*
X61794177Y-42287132D01*
X61794174Y-42287130D01*
X61789427Y-42283203D01*
X61616143Y-42189508D01*
X61427960Y-42131256D01*
X61421835Y-42130612D01*
X61421834Y-42130612D01*
X61238176Y-42111309D01*
X61238174Y-42111309D01*
X61232047Y-42110665D01*
X61150018Y-42118130D01*
X61042004Y-42127960D01*
X61042001Y-42127961D01*
X61035865Y-42128519D01*
X61029959Y-42130257D01*
X61029955Y-42130258D01*
X60889775Y-42171516D01*
X60846887Y-42184138D01*
X60841427Y-42186992D01*
X60841428Y-42186992D01*
X60677772Y-42272549D01*
X60677768Y-42272552D01*
X60672312Y-42275404D01*
X60667512Y-42279264D01*
X60667511Y-42279264D01*
X60582959Y-42347245D01*
X60518788Y-42398840D01*
X60392163Y-42549745D01*
X60385740Y-42561429D01*
X60362333Y-42604007D01*
X60297262Y-42722371D01*
X60295398Y-42728246D01*
X60295397Y-42728249D01*
X60291269Y-42741263D01*
X60237697Y-42910142D01*
X60215738Y-43105907D01*
X60216254Y-43112051D01*
X60226768Y-43237256D01*
X60232222Y-43302209D01*
X60259371Y-43396889D01*
X60278721Y-43464367D01*
X60286521Y-43491570D01*
X60376566Y-43666779D01*
X60380389Y-43671603D01*
X60380392Y-43671607D01*
X60465983Y-43779595D01*
X60498927Y-43821160D01*
X60503620Y-43825154D01*
X60503621Y-43825155D01*
X60561066Y-43874044D01*
X60648945Y-43948835D01*
X60654323Y-43951841D01*
X60654325Y-43951842D01*
X60808392Y-44037947D01*
X60820904Y-44044940D01*
X61008255Y-44105814D01*
X61203862Y-44129139D01*
X61209997Y-44128667D01*
X61209999Y-44128667D01*
X61269801Y-44124065D01*
X61400274Y-44114026D01*
X61406204Y-44112370D01*
X61406211Y-44112369D01*
X61577491Y-44064546D01*
X61648481Y-44065492D01*
X61700470Y-44096809D01*
X61938792Y-44335131D01*
X61972818Y-44397443D01*
X61967753Y-44468258D01*
X61925206Y-44525094D01*
X61858686Y-44549905D01*
X61796447Y-44538421D01*
X61661887Y-44475674D01*
X61651595Y-44471928D01*
X61449599Y-44417804D01*
X61438804Y-44415901D01*
X61230475Y-44397674D01*
X61219525Y-44397674D01*
X61011196Y-44415901D01*
X61000401Y-44417804D01*
X60798405Y-44471928D01*
X60788113Y-44475674D01*
X60598583Y-44564054D01*
X60589093Y-44569534D01*
X60547851Y-44598411D01*
X60539477Y-44608886D01*
X60546545Y-44622333D01*
X61495116Y-45570905D01*
X61529141Y-45633217D01*
X61524076Y-45704033D01*
X61495115Y-45749095D01*
X61225000Y-46019210D01*
X60545824Y-46698387D01*
X60539394Y-46710162D01*
X60548690Y-46722176D01*
X60589088Y-46750464D01*
X60598584Y-46755947D01*
X60788113Y-46844326D01*
X60798405Y-46848072D01*
X61000401Y-46902196D01*
X61011196Y-46904099D01*
X61219525Y-46922326D01*
X61230475Y-46922326D01*
X61438804Y-46904099D01*
X61449599Y-46902196D01*
X61651595Y-46848072D01*
X61661887Y-46844326D01*
X61851416Y-46755947D01*
X61860917Y-46750461D01*
X61977230Y-46669018D01*
X62044504Y-46646330D01*
X62113364Y-46663615D01*
X62161948Y-46715385D01*
X62175500Y-46772231D01*
X62175500Y-51968743D01*
X62173394Y-51988537D01*
X62173189Y-51992890D01*
X62170997Y-52003070D01*
X62172221Y-52013408D01*
X62174627Y-52033737D01*
X62174942Y-52039083D01*
X62175072Y-52039072D01*
X62175500Y-52044252D01*
X62175500Y-52049451D01*
X62176353Y-52054575D01*
X62176354Y-52054588D01*
X62178427Y-52067041D01*
X62179264Y-52072916D01*
X62184869Y-52120270D01*
X62188570Y-52127978D01*
X62189975Y-52136417D01*
X62212629Y-52178401D01*
X62215310Y-52183664D01*
X62235955Y-52226658D01*
X62239311Y-52230650D01*
X62241258Y-52232597D01*
X62242748Y-52234222D01*
X62242981Y-52234654D01*
X62242945Y-52234687D01*
X62243084Y-52234845D01*
X62246017Y-52240280D01*
X62253664Y-52247349D01*
X62282881Y-52274357D01*
X62286447Y-52277786D01*
X72815158Y-62806496D01*
X83343082Y-73334420D01*
X83355587Y-73349902D01*
X83358523Y-73353129D01*
X83364175Y-73361882D01*
X83388438Y-73381009D01*
X83392433Y-73384559D01*
X83392517Y-73384460D01*
X83396480Y-73387818D01*
X83400156Y-73391494D01*
X83404385Y-73394517D01*
X83404386Y-73394517D01*
X83414652Y-73401854D01*
X83419395Y-73405415D01*
X83448675Y-73428497D01*
X83448679Y-73428499D01*
X83456857Y-73434946D01*
X83464925Y-73437779D01*
X83471885Y-73442753D01*
X83481863Y-73445737D01*
X83517586Y-73456420D01*
X83523235Y-73458256D01*
X83568208Y-73474050D01*
X83573404Y-73474500D01*
X83576109Y-73474500D01*
X83578365Y-73474597D01*
X83578841Y-73474740D01*
X83578839Y-73474786D01*
X83579038Y-73474799D01*
X83584955Y-73476568D01*
X83635124Y-73474597D01*
X83640070Y-73474500D01*
X88970971Y-73474500D01*
X89039092Y-73494502D01*
X89060066Y-73511405D01*
X93488595Y-77939933D01*
X93522621Y-78002245D01*
X93525500Y-78029028D01*
X93525500Y-81223743D01*
X93523394Y-81243537D01*
X93523189Y-81247890D01*
X93520997Y-81258070D01*
X93522221Y-81268408D01*
X93524627Y-81288737D01*
X93524942Y-81294083D01*
X93525072Y-81294072D01*
X93525500Y-81299252D01*
X93525500Y-81304451D01*
X93526353Y-81309575D01*
X93526354Y-81309588D01*
X93528427Y-81322041D01*
X93529264Y-81327916D01*
X93534869Y-81375270D01*
X93538570Y-81382978D01*
X93539975Y-81391417D01*
X93562629Y-81433401D01*
X93565310Y-81438664D01*
X93585955Y-81481658D01*
X93589311Y-81485650D01*
X93591258Y-81487597D01*
X93592748Y-81489222D01*
X93592981Y-81489654D01*
X93592945Y-81489687D01*
X93593084Y-81489845D01*
X93596017Y-81495280D01*
X93603664Y-81502349D01*
X93632881Y-81529357D01*
X93636447Y-81532786D01*
X96467230Y-84363568D01*
X99250019Y-87146357D01*
X99284045Y-87208669D01*
X99281026Y-87273550D01*
X99239560Y-87404269D01*
X99237697Y-87410142D01*
X99215738Y-87605907D01*
X99216254Y-87612051D01*
X99231087Y-87788688D01*
X99232222Y-87802209D01*
X99247804Y-87856549D01*
X99276442Y-87956420D01*
X99286521Y-87991570D01*
X99376566Y-88166779D01*
X99380389Y-88171603D01*
X99380392Y-88171607D01*
X99493766Y-88314648D01*
X99498927Y-88321160D01*
X99503620Y-88325154D01*
X99503621Y-88325155D01*
X99574501Y-88385478D01*
X99648945Y-88448835D01*
X99654323Y-88451841D01*
X99654325Y-88451842D01*
X99815524Y-88541933D01*
X99820904Y-88544940D01*
X100008255Y-88605814D01*
X100203862Y-88629139D01*
X100209997Y-88628667D01*
X100209999Y-88628667D01*
X100269801Y-88624065D01*
X100400274Y-88614026D01*
X100590009Y-88561050D01*
X100604224Y-88553870D01*
X100696264Y-88507377D01*
X100702690Y-88504131D01*
X100772512Y-88491271D01*
X100838203Y-88518200D01*
X100878906Y-88576370D01*
X100885500Y-88616597D01*
X100885500Y-88882166D01*
X100865498Y-88950287D01*
X100811842Y-88996780D01*
X100741568Y-89006884D01*
X100706250Y-88996361D01*
X100661887Y-88975674D01*
X100651595Y-88971928D01*
X100449599Y-88917804D01*
X100438804Y-88915901D01*
X100230475Y-88897674D01*
X100219525Y-88897674D01*
X100011196Y-88915901D01*
X100000401Y-88917804D01*
X99798405Y-88971928D01*
X99788113Y-88975674D01*
X99598583Y-89064054D01*
X99589093Y-89069534D01*
X99547851Y-89098411D01*
X99539477Y-89108886D01*
X99546545Y-89122333D01*
X100495116Y-90070905D01*
X100529141Y-90133217D01*
X100524076Y-90204033D01*
X100495115Y-90249095D01*
X100225000Y-90519210D01*
X99545824Y-91198387D01*
X99539394Y-91210162D01*
X99548690Y-91222176D01*
X99589088Y-91250464D01*
X99598584Y-91255947D01*
X99788113Y-91344326D01*
X99798405Y-91348072D01*
X100000401Y-91402196D01*
X100011196Y-91404099D01*
X100219525Y-91422326D01*
X100230475Y-91422326D01*
X100438804Y-91404099D01*
X100449599Y-91402196D01*
X100651595Y-91348072D01*
X100661887Y-91344326D01*
X100706250Y-91323639D01*
X100776442Y-91312978D01*
X100841254Y-91341958D01*
X100880111Y-91401378D01*
X100885500Y-91437834D01*
X100885500Y-91942524D01*
X100883079Y-91967103D01*
X100880514Y-91980000D01*
X100885500Y-92005067D01*
X100900266Y-92079301D01*
X100956516Y-92163484D01*
X101040699Y-92219734D01*
X101140000Y-92239486D01*
X101152897Y-92236921D01*
X101177476Y-92234500D01*
X106902524Y-92234500D01*
X106927103Y-92236921D01*
X106940000Y-92239486D01*
X107039301Y-92219734D01*
X107123484Y-92163484D01*
X107179734Y-92079301D01*
X107194500Y-92005067D01*
X107199486Y-91980000D01*
X107196921Y-91967103D01*
X107194500Y-91942524D01*
X107194500Y-91161991D01*
X107214502Y-91093870D01*
X107268158Y-91047377D01*
X107338432Y-91037273D01*
X107381971Y-91052003D01*
X107440904Y-91084940D01*
X107628255Y-91145814D01*
X107823862Y-91169139D01*
X107829997Y-91168667D01*
X107829999Y-91168667D01*
X107889801Y-91164065D01*
X108020274Y-91154026D01*
X108210009Y-91101050D01*
X108215513Y-91098270D01*
X108380341Y-91015010D01*
X108380343Y-91015009D01*
X108385842Y-91012231D01*
X108541074Y-90890950D01*
X108545100Y-90886286D01*
X108545103Y-90886283D01*
X108665764Y-90746496D01*
X108665765Y-90746494D01*
X108669793Y-90741828D01*
X108767096Y-90570544D01*
X108829277Y-90383622D01*
X108853966Y-90188183D01*
X108854181Y-90172811D01*
X108854311Y-90163522D01*
X108854311Y-90163518D01*
X108854360Y-90160000D01*
X108835137Y-89963948D01*
X108789044Y-89811280D01*
X108788503Y-89740287D01*
X108820571Y-89685768D01*
X109509978Y-88996361D01*
X110220405Y-88285933D01*
X110282717Y-88251908D01*
X110353532Y-88256972D01*
X110410368Y-88299519D01*
X110435179Y-88366039D01*
X110435500Y-88375028D01*
X110435500Y-94219500D01*
X110415498Y-94287621D01*
X110361842Y-94334114D01*
X110309500Y-94345500D01*
X40996500Y-94345500D01*
X40928379Y-94325498D01*
X40881886Y-94271842D01*
X40870500Y-94219500D01*
X40870500Y-70913070D01*
X41490997Y-70913070D01*
X41492221Y-70923408D01*
X41494627Y-70943737D01*
X41494942Y-70949083D01*
X41495072Y-70949072D01*
X41495500Y-70954252D01*
X41495500Y-70959451D01*
X41496353Y-70964575D01*
X41496354Y-70964588D01*
X41498427Y-70977041D01*
X41499264Y-70982916D01*
X41501443Y-71001326D01*
X41504869Y-71030270D01*
X41508570Y-71037978D01*
X41509975Y-71046417D01*
X41532629Y-71088401D01*
X41535310Y-71093664D01*
X41555955Y-71136658D01*
X41559311Y-71140650D01*
X41561258Y-71142597D01*
X41562748Y-71144222D01*
X41562981Y-71144654D01*
X41562945Y-71144687D01*
X41563084Y-71144845D01*
X41566017Y-71150280D01*
X41573664Y-71157349D01*
X41602881Y-71184357D01*
X41606447Y-71187786D01*
X58253084Y-87834423D01*
X58265592Y-87849909D01*
X58268526Y-87853134D01*
X58274175Y-87861882D01*
X58298179Y-87880805D01*
X58298430Y-87881003D01*
X58302431Y-87884559D01*
X58302516Y-87884459D01*
X58306473Y-87887812D01*
X58310155Y-87891494D01*
X58324691Y-87901882D01*
X58329378Y-87905401D01*
X58366857Y-87934946D01*
X58374925Y-87937779D01*
X58381885Y-87942753D01*
X58391863Y-87945737D01*
X58427586Y-87956420D01*
X58433235Y-87958256D01*
X58478208Y-87974050D01*
X58483404Y-87974500D01*
X58486109Y-87974500D01*
X58488365Y-87974597D01*
X58488841Y-87974740D01*
X58488839Y-87974786D01*
X58489038Y-87974799D01*
X58494955Y-87976568D01*
X58545124Y-87974597D01*
X58550070Y-87974500D01*
X65675546Y-87974500D01*
X65743667Y-87994502D01*
X65790160Y-88048158D01*
X65800264Y-88118432D01*
X65770770Y-88183012D01*
X65723766Y-88216909D01*
X65645228Y-88249440D01*
X65523129Y-88343129D01*
X65429440Y-88465228D01*
X65370544Y-88607415D01*
X65350456Y-88760000D01*
X65370544Y-88912585D01*
X65429440Y-89054772D01*
X65434469Y-89061326D01*
X65503450Y-89151224D01*
X65523129Y-89176871D01*
X65529679Y-89181897D01*
X65609113Y-89242848D01*
X65645228Y-89270560D01*
X65787415Y-89329456D01*
X65940000Y-89349544D01*
X65948189Y-89348466D01*
X65948190Y-89348466D01*
X65956342Y-89347393D01*
X66026491Y-89358333D01*
X66061881Y-89383220D01*
X68041075Y-91362414D01*
X68075101Y-91424726D01*
X68070036Y-91495541D01*
X68062862Y-91510769D01*
X68059440Y-91515228D01*
X68056281Y-91522854D01*
X68056280Y-91522856D01*
X68003704Y-91649786D01*
X68000544Y-91657415D01*
X67980456Y-91810000D01*
X68000544Y-91962585D01*
X68059440Y-92104772D01*
X68153129Y-92226871D01*
X68159679Y-92231897D01*
X68166414Y-92237065D01*
X68275228Y-92320560D01*
X68417415Y-92379456D01*
X68570000Y-92399544D01*
X68578188Y-92398466D01*
X68714397Y-92380534D01*
X68722585Y-92379456D01*
X68864772Y-92320560D01*
X68973586Y-92237065D01*
X68980321Y-92231897D01*
X68986871Y-92226871D01*
X69080560Y-92104772D01*
X69139456Y-91962585D01*
X69159544Y-91810000D01*
X69139456Y-91657415D01*
X69080560Y-91515228D01*
X69009274Y-91422326D01*
X68991897Y-91399679D01*
X68986871Y-91393129D01*
X68963600Y-91375272D01*
X68921733Y-91317937D01*
X68919843Y-91309907D01*
X68919262Y-91310076D01*
X68916355Y-91300071D01*
X68915131Y-91289730D01*
X68911430Y-91282022D01*
X68910025Y-91273583D01*
X68887380Y-91231615D01*
X68884684Y-91226324D01*
X68867474Y-91190483D01*
X68867472Y-91190480D01*
X68864045Y-91183343D01*
X68860689Y-91179350D01*
X68858763Y-91177424D01*
X68857250Y-91175774D01*
X68857014Y-91175338D01*
X68857049Y-91175306D01*
X68856916Y-91175155D01*
X68853983Y-91169720D01*
X68837006Y-91154026D01*
X68817119Y-91135643D01*
X68813553Y-91132214D01*
X67846814Y-90165475D01*
X81182674Y-90165475D01*
X81200901Y-90373804D01*
X81202804Y-90384599D01*
X81256928Y-90586595D01*
X81260674Y-90596887D01*
X81349054Y-90786417D01*
X81354534Y-90795907D01*
X81383411Y-90837149D01*
X81393887Y-90845523D01*
X81407334Y-90838455D01*
X82072979Y-90172811D01*
X82080592Y-90158868D01*
X82080461Y-90157034D01*
X82076210Y-90150420D01*
X81406609Y-89480820D01*
X81394839Y-89474393D01*
X81382824Y-89483689D01*
X81354534Y-89524093D01*
X81349054Y-89533583D01*
X81260674Y-89723113D01*
X81256928Y-89733405D01*
X81202804Y-89935401D01*
X81200901Y-89946196D01*
X81182674Y-90154525D01*
X81182674Y-90165475D01*
X67846814Y-90165475D01*
X66563220Y-88881881D01*
X66529194Y-88819569D01*
X66527393Y-88776342D01*
X66528466Y-88768190D01*
X66528466Y-88768188D01*
X66529544Y-88760000D01*
X66509456Y-88607415D01*
X66450560Y-88465228D01*
X66356871Y-88343129D01*
X66234772Y-88249440D01*
X66156234Y-88216909D01*
X66100955Y-88172360D01*
X66078534Y-88104997D01*
X66096092Y-88036206D01*
X66148055Y-87987827D01*
X66204454Y-87974500D01*
X81420837Y-87974500D01*
X81488958Y-87994502D01*
X81532903Y-88042906D01*
X81593746Y-88161294D01*
X81593751Y-88161302D01*
X81596566Y-88166779D01*
X81600389Y-88171603D01*
X81600392Y-88171607D01*
X81713766Y-88314648D01*
X81718927Y-88321160D01*
X81723620Y-88325154D01*
X81723621Y-88325155D01*
X81794501Y-88385478D01*
X81868945Y-88448835D01*
X81874323Y-88451841D01*
X81874325Y-88451842D01*
X82035524Y-88541933D01*
X82040904Y-88544940D01*
X82228255Y-88605814D01*
X82423862Y-88629139D01*
X82429997Y-88628667D01*
X82429999Y-88628667D01*
X82489801Y-88624065D01*
X82620274Y-88614026D01*
X82810009Y-88561050D01*
X82824224Y-88553870D01*
X82916264Y-88507377D01*
X82922690Y-88504131D01*
X82992512Y-88491271D01*
X83058203Y-88518200D01*
X83098906Y-88576370D01*
X83105500Y-88616597D01*
X83105500Y-88882166D01*
X83085498Y-88950287D01*
X83031842Y-88996780D01*
X82961568Y-89006884D01*
X82926250Y-88996361D01*
X82881887Y-88975674D01*
X82871595Y-88971928D01*
X82669599Y-88917804D01*
X82658804Y-88915901D01*
X82450475Y-88897674D01*
X82439525Y-88897674D01*
X82231196Y-88915901D01*
X82220401Y-88917804D01*
X82018405Y-88971928D01*
X82008113Y-88975674D01*
X81818583Y-89064054D01*
X81809093Y-89069534D01*
X81767851Y-89098411D01*
X81759477Y-89108886D01*
X81766545Y-89122333D01*
X82715116Y-90070905D01*
X82749141Y-90133217D01*
X82744076Y-90204033D01*
X82715115Y-90249095D01*
X82445000Y-90519210D01*
X81765824Y-91198387D01*
X81759394Y-91210162D01*
X81768690Y-91222176D01*
X81809088Y-91250464D01*
X81818584Y-91255947D01*
X82008113Y-91344326D01*
X82018405Y-91348072D01*
X82220401Y-91402196D01*
X82231196Y-91404099D01*
X82439525Y-91422326D01*
X82450475Y-91422326D01*
X82658804Y-91404099D01*
X82669599Y-91402196D01*
X82871595Y-91348072D01*
X82881887Y-91344326D01*
X82926250Y-91323639D01*
X82996442Y-91312978D01*
X83061254Y-91341958D01*
X83100111Y-91401378D01*
X83105500Y-91437834D01*
X83105500Y-91942524D01*
X83103079Y-91967103D01*
X83100514Y-91980000D01*
X83105500Y-92005067D01*
X83120266Y-92079301D01*
X83176516Y-92163484D01*
X83260699Y-92219734D01*
X83360000Y-92239486D01*
X83372897Y-92236921D01*
X83397476Y-92234500D01*
X89112524Y-92234500D01*
X89137103Y-92236921D01*
X89150000Y-92239486D01*
X89249301Y-92219734D01*
X89333484Y-92163484D01*
X89389734Y-92079301D01*
X89404500Y-92005067D01*
X89409486Y-91980000D01*
X89406921Y-91967103D01*
X89404500Y-91942524D01*
X89404500Y-91156402D01*
X89424502Y-91088281D01*
X89478158Y-91041788D01*
X89548432Y-91031684D01*
X89591970Y-91046414D01*
X89660904Y-91084940D01*
X89848255Y-91145814D01*
X90043862Y-91169139D01*
X90049997Y-91168667D01*
X90049999Y-91168667D01*
X90109801Y-91164065D01*
X90240274Y-91154026D01*
X90430009Y-91101050D01*
X90435513Y-91098270D01*
X90600341Y-91015010D01*
X90600343Y-91015009D01*
X90605842Y-91012231D01*
X90761074Y-90890950D01*
X90765100Y-90886286D01*
X90765103Y-90886283D01*
X90885764Y-90746496D01*
X90885765Y-90746494D01*
X90889793Y-90741828D01*
X90987096Y-90570544D01*
X91049277Y-90383622D01*
X91073966Y-90188183D01*
X91074181Y-90172811D01*
X91074284Y-90165475D01*
X98962674Y-90165475D01*
X98980901Y-90373804D01*
X98982804Y-90384599D01*
X99036928Y-90586595D01*
X99040674Y-90596887D01*
X99129054Y-90786417D01*
X99134534Y-90795907D01*
X99163411Y-90837149D01*
X99173887Y-90845523D01*
X99187334Y-90838455D01*
X99852979Y-90172811D01*
X99860592Y-90158868D01*
X99860461Y-90157034D01*
X99856210Y-90150420D01*
X99186609Y-89480820D01*
X99174839Y-89474393D01*
X99162824Y-89483689D01*
X99134534Y-89524093D01*
X99129054Y-89533583D01*
X99040674Y-89723113D01*
X99036928Y-89733405D01*
X98982804Y-89935401D01*
X98980901Y-89946196D01*
X98962674Y-90154525D01*
X98962674Y-90165475D01*
X91074284Y-90165475D01*
X91074311Y-90163522D01*
X91074311Y-90163518D01*
X91074360Y-90160000D01*
X91055137Y-89963948D01*
X91009044Y-89811280D01*
X91008503Y-89740287D01*
X91040571Y-89685768D01*
X92824440Y-87901898D01*
X92839922Y-87889393D01*
X92843149Y-87886457D01*
X92851902Y-87880805D01*
X92871029Y-87856542D01*
X92874579Y-87852547D01*
X92874480Y-87852463D01*
X92877838Y-87848500D01*
X92881514Y-87844824D01*
X92888947Y-87834423D01*
X92891874Y-87830328D01*
X92895435Y-87825585D01*
X92918517Y-87796305D01*
X92918519Y-87796301D01*
X92924966Y-87788123D01*
X92927799Y-87780055D01*
X92932773Y-87773095D01*
X92946440Y-87727394D01*
X92948276Y-87721745D01*
X92961444Y-87684249D01*
X92964070Y-87676772D01*
X92964520Y-87671576D01*
X92964520Y-87668871D01*
X92964617Y-87666615D01*
X92964760Y-87666139D01*
X92964806Y-87666141D01*
X92964819Y-87665942D01*
X92966588Y-87660025D01*
X92964617Y-87609856D01*
X92964520Y-87604910D01*
X92964520Y-78349880D01*
X92966626Y-78330086D01*
X92966831Y-78325733D01*
X92969023Y-78315553D01*
X92965393Y-78284884D01*
X92965078Y-78279539D01*
X92964948Y-78279550D01*
X92964520Y-78274372D01*
X92964520Y-78269171D01*
X92961593Y-78251585D01*
X92960756Y-78245708D01*
X92956375Y-78208693D01*
X92955151Y-78198352D01*
X92951450Y-78190644D01*
X92950045Y-78182205D01*
X92927400Y-78140237D01*
X92924704Y-78134946D01*
X92907494Y-78099105D01*
X92907492Y-78099102D01*
X92904065Y-78091965D01*
X92900709Y-78087972D01*
X92898783Y-78086046D01*
X92897270Y-78084396D01*
X92897034Y-78083960D01*
X92897069Y-78083928D01*
X92896936Y-78083777D01*
X92894003Y-78078342D01*
X92862675Y-78049382D01*
X92857139Y-78044265D01*
X92853573Y-78040836D01*
X89278296Y-74465560D01*
X89265791Y-74450078D01*
X89262855Y-74446851D01*
X89257203Y-74438098D01*
X89232940Y-74418971D01*
X89228945Y-74415421D01*
X89228861Y-74415520D01*
X89224898Y-74412162D01*
X89221222Y-74408486D01*
X89216992Y-74405463D01*
X89206726Y-74398126D01*
X89201983Y-74394565D01*
X89172703Y-74371483D01*
X89172699Y-74371481D01*
X89164521Y-74365034D01*
X89156453Y-74362201D01*
X89149493Y-74357227D01*
X89103792Y-74343560D01*
X89098143Y-74341724D01*
X89060647Y-74328556D01*
X89060648Y-74328556D01*
X89053170Y-74325930D01*
X89047974Y-74325480D01*
X89045269Y-74325480D01*
X89043013Y-74325383D01*
X89042537Y-74325240D01*
X89042539Y-74325194D01*
X89042340Y-74325181D01*
X89036423Y-74323412D01*
X88986789Y-74325362D01*
X88986254Y-74325383D01*
X88981308Y-74325480D01*
X78899008Y-74325480D01*
X78830887Y-74305478D01*
X78809913Y-74288575D01*
X64561338Y-60040000D01*
X66650456Y-60040000D01*
X66670544Y-60192585D01*
X66729440Y-60334772D01*
X66734469Y-60341326D01*
X66761328Y-60376329D01*
X66823129Y-60456871D01*
X66945228Y-60550560D01*
X66983503Y-60566414D01*
X67067788Y-60601326D01*
X67087415Y-60609456D01*
X67240000Y-60629544D01*
X67248189Y-60628466D01*
X67248190Y-60628466D01*
X67256342Y-60627393D01*
X67326491Y-60638333D01*
X67361881Y-60663220D01*
X70398595Y-63699933D01*
X70432621Y-63762245D01*
X70435500Y-63789028D01*
X70435500Y-64363134D01*
X70415498Y-64431255D01*
X70386207Y-64463094D01*
X70373129Y-64473129D01*
X70279440Y-64595228D01*
X70220544Y-64737415D01*
X70200456Y-64890000D01*
X70220544Y-65042585D01*
X70279440Y-65184772D01*
X70373129Y-65306871D01*
X70495228Y-65400560D01*
X70637415Y-65459456D01*
X70645603Y-65460534D01*
X70713707Y-65469500D01*
X70790000Y-65479544D01*
X70798188Y-65478466D01*
X70934397Y-65460534D01*
X70942585Y-65459456D01*
X71084772Y-65400560D01*
X71206871Y-65306871D01*
X71300560Y-65184772D01*
X71359456Y-65042585D01*
X71379544Y-64890000D01*
X71359456Y-64737415D01*
X71300560Y-64595228D01*
X71206871Y-64473129D01*
X71193794Y-64463095D01*
X71151928Y-64405757D01*
X71144500Y-64363134D01*
X71144500Y-63641257D01*
X71146606Y-63621463D01*
X71146811Y-63617110D01*
X71149003Y-63606930D01*
X71145373Y-63576260D01*
X71145058Y-63570917D01*
X71144928Y-63570928D01*
X71144500Y-63565748D01*
X71144500Y-63560549D01*
X71143647Y-63555425D01*
X71143646Y-63555412D01*
X71141573Y-63542959D01*
X71140736Y-63537084D01*
X71136355Y-63500071D01*
X71135131Y-63489730D01*
X71131430Y-63482022D01*
X71130025Y-63473583D01*
X71107371Y-63431599D01*
X71104690Y-63426336D01*
X71087475Y-63390486D01*
X71084045Y-63383342D01*
X71080689Y-63379350D01*
X71078742Y-63377403D01*
X71077252Y-63375778D01*
X71077019Y-63375346D01*
X71077055Y-63375313D01*
X71076916Y-63375155D01*
X71073983Y-63369720D01*
X71037119Y-63335643D01*
X71033553Y-63332214D01*
X67863220Y-60161881D01*
X67829194Y-60099569D01*
X67827393Y-60056342D01*
X67828466Y-60048190D01*
X67828466Y-60048188D01*
X67829544Y-60040000D01*
X67809456Y-59887415D01*
X67750560Y-59745228D01*
X67656871Y-59623129D01*
X67534772Y-59529440D01*
X67392585Y-59470544D01*
X67240000Y-59450456D01*
X67087415Y-59470544D01*
X66945228Y-59529440D01*
X66823129Y-59623129D01*
X66729440Y-59745228D01*
X66670544Y-59887415D01*
X66650456Y-60040000D01*
X64561338Y-60040000D01*
X51461405Y-46940067D01*
X51427379Y-46877755D01*
X51424500Y-46850972D01*
X51424500Y-46681349D01*
X51444502Y-46613228D01*
X51493689Y-46568883D01*
X51605842Y-46512231D01*
X51761074Y-46390950D01*
X51765100Y-46386286D01*
X51765103Y-46386283D01*
X51885764Y-46246496D01*
X51885765Y-46246494D01*
X51889793Y-46241828D01*
X51987096Y-46070544D01*
X52049277Y-45883622D01*
X52073966Y-45688183D01*
X52074181Y-45672811D01*
X52074284Y-45665475D01*
X59962674Y-45665475D01*
X59980901Y-45873804D01*
X59982804Y-45884599D01*
X60036928Y-46086595D01*
X60040674Y-46096887D01*
X60129054Y-46286417D01*
X60134534Y-46295907D01*
X60163411Y-46337149D01*
X60173887Y-46345523D01*
X60187334Y-46338455D01*
X60852979Y-45672811D01*
X60860592Y-45658868D01*
X60860461Y-45657034D01*
X60856210Y-45650420D01*
X60186609Y-44980820D01*
X60174839Y-44974393D01*
X60162824Y-44983689D01*
X60134534Y-45024093D01*
X60129054Y-45033583D01*
X60040674Y-45223113D01*
X60036928Y-45233405D01*
X59982804Y-45435401D01*
X59980901Y-45446196D01*
X59962674Y-45654525D01*
X59962674Y-45665475D01*
X52074284Y-45665475D01*
X52074311Y-45663522D01*
X52074311Y-45663518D01*
X52074360Y-45660000D01*
X52055137Y-45463948D01*
X51998200Y-45275363D01*
X51991292Y-45262371D01*
X51908611Y-45106871D01*
X51908609Y-45106868D01*
X51905717Y-45101429D01*
X51781212Y-44948770D01*
X51715894Y-44894734D01*
X51634177Y-44827132D01*
X51634174Y-44827130D01*
X51629427Y-44823203D01*
X51456143Y-44729508D01*
X51267960Y-44671256D01*
X51261835Y-44670612D01*
X51261834Y-44670612D01*
X51078176Y-44651309D01*
X51078174Y-44651309D01*
X51072047Y-44650665D01*
X50990018Y-44658130D01*
X50882004Y-44667960D01*
X50882001Y-44667961D01*
X50875865Y-44668519D01*
X50869959Y-44670257D01*
X50869955Y-44670258D01*
X50796742Y-44691806D01*
X50686887Y-44724138D01*
X50681427Y-44726992D01*
X50681428Y-44726992D01*
X50517772Y-44812549D01*
X50517768Y-44812552D01*
X50512312Y-44815404D01*
X50358788Y-44938840D01*
X50232163Y-45089745D01*
X50229194Y-45095146D01*
X50225711Y-45100232D01*
X50223884Y-45098981D01*
X50180601Y-45142015D01*
X50111184Y-45156908D01*
X50044735Y-45131906D01*
X50002351Y-45074948D01*
X49994533Y-45031255D01*
X49994533Y-44743996D01*
X50014535Y-44675875D01*
X50031438Y-44654901D01*
X50591584Y-44094755D01*
X50653896Y-44060729D01*
X50719615Y-44064017D01*
X50820540Y-44096809D01*
X50848255Y-44105814D01*
X51043862Y-44129139D01*
X51049997Y-44128667D01*
X51049999Y-44128667D01*
X51109801Y-44124065D01*
X51240274Y-44114026D01*
X51430009Y-44061050D01*
X51435513Y-44058270D01*
X51600341Y-43975010D01*
X51600343Y-43975009D01*
X51605842Y-43972231D01*
X51761074Y-43850950D01*
X51765100Y-43846286D01*
X51765103Y-43846283D01*
X51885764Y-43706496D01*
X51885765Y-43706494D01*
X51889793Y-43701828D01*
X51987096Y-43530544D01*
X52049277Y-43343622D01*
X52073966Y-43148183D01*
X52074360Y-43120000D01*
X52055137Y-42923948D01*
X51998200Y-42735363D01*
X51988418Y-42716966D01*
X51908611Y-42566871D01*
X51908609Y-42566868D01*
X51905717Y-42561429D01*
X51781212Y-42408770D01*
X51676129Y-42321838D01*
X51634177Y-42287132D01*
X51634174Y-42287130D01*
X51629427Y-42283203D01*
X51456143Y-42189508D01*
X51267960Y-42131256D01*
X51261835Y-42130612D01*
X51261834Y-42130612D01*
X51078176Y-42111309D01*
X51078174Y-42111309D01*
X51072047Y-42110665D01*
X50990018Y-42118130D01*
X50882004Y-42127960D01*
X50882001Y-42127961D01*
X50875865Y-42128519D01*
X50869959Y-42130257D01*
X50869955Y-42130258D01*
X50729775Y-42171516D01*
X50686887Y-42184138D01*
X50681427Y-42186992D01*
X50681428Y-42186992D01*
X50517772Y-42272549D01*
X50517768Y-42272552D01*
X50512312Y-42275404D01*
X50507512Y-42279264D01*
X50507511Y-42279264D01*
X50422959Y-42347245D01*
X50358788Y-42398840D01*
X50232163Y-42549745D01*
X50225740Y-42561429D01*
X50202333Y-42604007D01*
X50137262Y-42722371D01*
X50135398Y-42728246D01*
X50135397Y-42728249D01*
X50131269Y-42741263D01*
X50077697Y-42910142D01*
X50055738Y-43105907D01*
X50056254Y-43112051D01*
X50066768Y-43237256D01*
X50072222Y-43302209D01*
X50115445Y-43452943D01*
X50120675Y-43471183D01*
X50120224Y-43542179D01*
X50088652Y-43595009D01*
X49889586Y-43794076D01*
X49809618Y-43874044D01*
X49747305Y-43908069D01*
X49676490Y-43903005D01*
X49619654Y-43860458D01*
X49594843Y-43793938D01*
X49594522Y-43784949D01*
X49594522Y-42604007D01*
X49614524Y-42535886D01*
X49631427Y-42514912D01*
X50591584Y-41554755D01*
X50653896Y-41520729D01*
X50719615Y-41524017D01*
X50820537Y-41556808D01*
X50848255Y-41565814D01*
X51043862Y-41589139D01*
X51049997Y-41588667D01*
X51049999Y-41588667D01*
X51109801Y-41584065D01*
X51240274Y-41574026D01*
X51430009Y-41521050D01*
X51435513Y-41518270D01*
X51600341Y-41435010D01*
X51600343Y-41435009D01*
X51605842Y-41432231D01*
X51761074Y-41310950D01*
X51765100Y-41306286D01*
X51765103Y-41306283D01*
X51885764Y-41166496D01*
X51885765Y-41166494D01*
X51889793Y-41161828D01*
X51987096Y-40990544D01*
X52049277Y-40803622D01*
X52073966Y-40608183D01*
X52074360Y-40580000D01*
X52055137Y-40383948D01*
X51998200Y-40195363D01*
X51968982Y-40140412D01*
X51908611Y-40026871D01*
X51908609Y-40026868D01*
X51905717Y-40021429D01*
X51781212Y-39868770D01*
X51682613Y-39787202D01*
X51634177Y-39747132D01*
X51634174Y-39747130D01*
X51629427Y-39743203D01*
X51456143Y-39649508D01*
X51267960Y-39591256D01*
X51261835Y-39590612D01*
X51261834Y-39590612D01*
X51078176Y-39571309D01*
X51078174Y-39571309D01*
X51072047Y-39570665D01*
X50990018Y-39578130D01*
X50882004Y-39587960D01*
X50882001Y-39587961D01*
X50875865Y-39588519D01*
X50869959Y-39590257D01*
X50869955Y-39590258D01*
X50758613Y-39623028D01*
X50686887Y-39644138D01*
X50681427Y-39646992D01*
X50681428Y-39646992D01*
X50517772Y-39732549D01*
X50517768Y-39732552D01*
X50512312Y-39735404D01*
X50507512Y-39739264D01*
X50507511Y-39739264D01*
X50384282Y-39838342D01*
X50358788Y-39858840D01*
X50232163Y-40009745D01*
X50211810Y-40046768D01*
X50152922Y-40153886D01*
X50137262Y-40182371D01*
X50135398Y-40188246D01*
X50135397Y-40188249D01*
X50126199Y-40217246D01*
X50077697Y-40370142D01*
X50055738Y-40565907D01*
X50072222Y-40762209D01*
X50115445Y-40912943D01*
X50120675Y-40931183D01*
X50120224Y-41002179D01*
X50088652Y-41055009D01*
X49708652Y-41435010D01*
X49409607Y-41734055D01*
X49347294Y-41768080D01*
X49276479Y-41763016D01*
X49219643Y-41720469D01*
X49194832Y-41653949D01*
X49194511Y-41644960D01*
X49194511Y-40464018D01*
X49214513Y-40395897D01*
X49231416Y-40374923D01*
X50525639Y-39080699D01*
X50525647Y-39080691D01*
X50525651Y-39080688D01*
X50591584Y-39014755D01*
X50653896Y-38980729D01*
X50719615Y-38984017D01*
X50820537Y-39016808D01*
X50848255Y-39025814D01*
X51043862Y-39049139D01*
X51049997Y-39048667D01*
X51049999Y-39048667D01*
X51109801Y-39044065D01*
X51240274Y-39034026D01*
X51430009Y-38981050D01*
X51435513Y-38978270D01*
X51600341Y-38895010D01*
X51600343Y-38895009D01*
X51605842Y-38892231D01*
X51761074Y-38770950D01*
X51765100Y-38766286D01*
X51765103Y-38766283D01*
X51885764Y-38626496D01*
X51885765Y-38626494D01*
X51889793Y-38621828D01*
X51987096Y-38450544D01*
X52049277Y-38263622D01*
X52073966Y-38068183D01*
X52074360Y-38040000D01*
X52055137Y-37843948D01*
X51998200Y-37655363D01*
X51905717Y-37481429D01*
X51781212Y-37328770D01*
X51715894Y-37274734D01*
X51634177Y-37207132D01*
X51634174Y-37207130D01*
X51629427Y-37203203D01*
X51456143Y-37109508D01*
X51267960Y-37051256D01*
X51261835Y-37050612D01*
X51261834Y-37050612D01*
X51078176Y-37031309D01*
X51078174Y-37031309D01*
X51072047Y-37030665D01*
X50990018Y-37038130D01*
X50882004Y-37047960D01*
X50882001Y-37047961D01*
X50875865Y-37048519D01*
X50869959Y-37050257D01*
X50869955Y-37050258D01*
X50729775Y-37091516D01*
X50686887Y-37104138D01*
X50681427Y-37106992D01*
X50681428Y-37106992D01*
X50517772Y-37192549D01*
X50517768Y-37192552D01*
X50512312Y-37195404D01*
X50358788Y-37318840D01*
X50232163Y-37469745D01*
X50137262Y-37642371D01*
X50135398Y-37648246D01*
X50135397Y-37648249D01*
X50131269Y-37661263D01*
X50077697Y-37830142D01*
X50055738Y-38025907D01*
X50056254Y-38032051D01*
X50068337Y-38175938D01*
X50072222Y-38222209D01*
X50073919Y-38228128D01*
X50073920Y-38228132D01*
X50120675Y-38391185D01*
X50120224Y-38462180D01*
X50088651Y-38515010D01*
X49492221Y-39111441D01*
X49009595Y-39594067D01*
X48947283Y-39628092D01*
X48876468Y-39623028D01*
X48819632Y-39580481D01*
X48794821Y-39513961D01*
X48794500Y-39504972D01*
X48794500Y-38324029D01*
X48814502Y-38255908D01*
X48831405Y-38234934D01*
X50525639Y-36540699D01*
X50525647Y-36540691D01*
X50525651Y-36540688D01*
X50591584Y-36474755D01*
X50653896Y-36440729D01*
X50719615Y-36444017D01*
X50842395Y-36483910D01*
X50848255Y-36485814D01*
X51043862Y-36509139D01*
X51049997Y-36508667D01*
X51049999Y-36508667D01*
X51109801Y-36504065D01*
X51240274Y-36494026D01*
X51430009Y-36441050D01*
X51435513Y-36438270D01*
X51600341Y-36355010D01*
X51600343Y-36355009D01*
X51605842Y-36352231D01*
X51761074Y-36230950D01*
X51765100Y-36226286D01*
X51765103Y-36226283D01*
X51885764Y-36086496D01*
X51885765Y-36086494D01*
X51889793Y-36081828D01*
X51987096Y-35910544D01*
X52049277Y-35723622D01*
X52073966Y-35528183D01*
X52074360Y-35500000D01*
X52072978Y-35485907D01*
X60215738Y-35485907D01*
X60232222Y-35682209D01*
X60259372Y-35776890D01*
X60280676Y-35851185D01*
X60286521Y-35871570D01*
X60376566Y-36046779D01*
X60380389Y-36051603D01*
X60380392Y-36051607D01*
X60408045Y-36086496D01*
X60498927Y-36201160D01*
X60503620Y-36205154D01*
X60503621Y-36205155D01*
X60528447Y-36226283D01*
X60648945Y-36328835D01*
X60654323Y-36331841D01*
X60654325Y-36331842D01*
X60808392Y-36417947D01*
X60820904Y-36424940D01*
X61008255Y-36485814D01*
X61203862Y-36509139D01*
X61209997Y-36508667D01*
X61209999Y-36508667D01*
X61269801Y-36504065D01*
X61400274Y-36494026D01*
X61590009Y-36441050D01*
X61595513Y-36438270D01*
X61760341Y-36355010D01*
X61760343Y-36355009D01*
X61765842Y-36352231D01*
X61921074Y-36230950D01*
X61925100Y-36226286D01*
X61925103Y-36226283D01*
X62045764Y-36086496D01*
X62045765Y-36086494D01*
X62049793Y-36081828D01*
X62147096Y-35910544D01*
X62209277Y-35723622D01*
X62233966Y-35528183D01*
X62234360Y-35500000D01*
X62215137Y-35303948D01*
X62158200Y-35115363D01*
X62065717Y-34941429D01*
X61941212Y-34788770D01*
X61875894Y-34734734D01*
X61794177Y-34667132D01*
X61794174Y-34667130D01*
X61789427Y-34663203D01*
X61616143Y-34569508D01*
X61427960Y-34511256D01*
X61421835Y-34510612D01*
X61421834Y-34510612D01*
X61238176Y-34491309D01*
X61238174Y-34491309D01*
X61232047Y-34490665D01*
X61150018Y-34498130D01*
X61042004Y-34507960D01*
X61042001Y-34507961D01*
X61035865Y-34508519D01*
X61029959Y-34510257D01*
X61029955Y-34510258D01*
X60889775Y-34551516D01*
X60846887Y-34564138D01*
X60841427Y-34566992D01*
X60841428Y-34566992D01*
X60677772Y-34652549D01*
X60677768Y-34652552D01*
X60672312Y-34655404D01*
X60518788Y-34778840D01*
X60392163Y-34929745D01*
X60297262Y-35102371D01*
X60295398Y-35108246D01*
X60295397Y-35108249D01*
X60291269Y-35121263D01*
X60237697Y-35290142D01*
X60215738Y-35485907D01*
X52072978Y-35485907D01*
X52055137Y-35303948D01*
X51998200Y-35115363D01*
X51905717Y-34941429D01*
X51781212Y-34788770D01*
X51715894Y-34734734D01*
X51634177Y-34667132D01*
X51634174Y-34667130D01*
X51629427Y-34663203D01*
X51456143Y-34569508D01*
X51267960Y-34511256D01*
X51261835Y-34510612D01*
X51261834Y-34510612D01*
X51078176Y-34491309D01*
X51078174Y-34491309D01*
X51072047Y-34490665D01*
X50990018Y-34498130D01*
X50882004Y-34507960D01*
X50882001Y-34507961D01*
X50875865Y-34508519D01*
X50869959Y-34510257D01*
X50869955Y-34510258D01*
X50729775Y-34551516D01*
X50686887Y-34564138D01*
X50681427Y-34566992D01*
X50681428Y-34566992D01*
X50517772Y-34652549D01*
X50517768Y-34652552D01*
X50512312Y-34655404D01*
X50358788Y-34778840D01*
X50232163Y-34929745D01*
X50137262Y-35102371D01*
X50135398Y-35108246D01*
X50135397Y-35108249D01*
X50131269Y-35121263D01*
X50077697Y-35290142D01*
X50055738Y-35485907D01*
X50072222Y-35682209D01*
X50073919Y-35688128D01*
X50073920Y-35688132D01*
X50120675Y-35851185D01*
X50120224Y-35922180D01*
X50088651Y-35975010D01*
X48225580Y-37838082D01*
X48210098Y-37850587D01*
X48206871Y-37853523D01*
X48198118Y-37859175D01*
X48178991Y-37883438D01*
X48175441Y-37887433D01*
X48175540Y-37887517D01*
X48172182Y-37891480D01*
X48168506Y-37895156D01*
X48165483Y-37899385D01*
X48165483Y-37899386D01*
X48158146Y-37909652D01*
X48154585Y-37914395D01*
X48131503Y-37943675D01*
X48131501Y-37943679D01*
X48125054Y-37951857D01*
X48122221Y-37959925D01*
X48117247Y-37966885D01*
X48114263Y-37976863D01*
X48103580Y-38012586D01*
X48101744Y-38018235D01*
X48085950Y-38063208D01*
X48085500Y-38068404D01*
X48085500Y-38071109D01*
X48085403Y-38073365D01*
X48085260Y-38073841D01*
X48085214Y-38073839D01*
X48085201Y-38074038D01*
X48083432Y-38079955D01*
X48083841Y-38090359D01*
X48085403Y-38130124D01*
X48085500Y-38135070D01*
X48085500Y-46678743D01*
X48083394Y-46698537D01*
X48083189Y-46702890D01*
X48080997Y-46713070D01*
X48082221Y-46723408D01*
X48084627Y-46743737D01*
X48084942Y-46749083D01*
X48085072Y-46749072D01*
X48085500Y-46754252D01*
X48085500Y-46759451D01*
X48086353Y-46764575D01*
X48086354Y-46764588D01*
X48088427Y-46777041D01*
X48089264Y-46782916D01*
X48094869Y-46830270D01*
X48098570Y-46837978D01*
X48099975Y-46846417D01*
X48122629Y-46888401D01*
X48125310Y-46893664D01*
X48145955Y-46936658D01*
X48149311Y-46940650D01*
X48151258Y-46942597D01*
X48152748Y-46944222D01*
X48152981Y-46944654D01*
X48152945Y-46944687D01*
X48153084Y-46944845D01*
X48156017Y-46950280D01*
X48163664Y-46957349D01*
X48192881Y-46984357D01*
X48196447Y-46987786D01*
X77703108Y-76494447D01*
X77715616Y-76509933D01*
X77718550Y-76513158D01*
X77724199Y-76521906D01*
X77732376Y-76528352D01*
X77748454Y-76541027D01*
X77752457Y-76544585D01*
X77752542Y-76544485D01*
X77756499Y-76547838D01*
X77760180Y-76551519D01*
X77764412Y-76554543D01*
X77764414Y-76554545D01*
X77774689Y-76561888D01*
X77779433Y-76565450D01*
X77808699Y-76588521D01*
X77808703Y-76588523D01*
X77816881Y-76594970D01*
X77824949Y-76597803D01*
X77831909Y-76602777D01*
X77841887Y-76605761D01*
X77877610Y-76616444D01*
X77883259Y-76618280D01*
X77928232Y-76634074D01*
X77933428Y-76634524D01*
X77936133Y-76634524D01*
X77938389Y-76634621D01*
X77938865Y-76634764D01*
X77938863Y-76634810D01*
X77939062Y-76634823D01*
X77944979Y-76636592D01*
X77995148Y-76634621D01*
X78000094Y-76634524D01*
X88129593Y-76634524D01*
X88197714Y-76654526D01*
X88218688Y-76671429D01*
X89255099Y-77707840D01*
X89289125Y-77770152D01*
X89284060Y-77840967D01*
X89241513Y-77897803D01*
X89174993Y-77922614D01*
X89166004Y-77922935D01*
X89162172Y-77922935D01*
X89150000Y-77920514D01*
X89137103Y-77923079D01*
X89112524Y-77925500D01*
X83397476Y-77925500D01*
X83372897Y-77923079D01*
X83360000Y-77920514D01*
X83347828Y-77922935D01*
X83334933Y-77925500D01*
X83260699Y-77940266D01*
X83176516Y-77996516D01*
X83120266Y-78080699D01*
X83100514Y-78180000D01*
X83102935Y-78192170D01*
X83103079Y-78192894D01*
X83105500Y-78217476D01*
X83105500Y-79003782D01*
X83085498Y-79071903D01*
X83031842Y-79118396D01*
X82961568Y-79128500D01*
X82919571Y-79114617D01*
X82841569Y-79072441D01*
X82841562Y-79072438D01*
X82836143Y-79069508D01*
X82647960Y-79011256D01*
X82641835Y-79010612D01*
X82641834Y-79010612D01*
X82458176Y-78991309D01*
X82458174Y-78991309D01*
X82452047Y-78990665D01*
X82370018Y-78998130D01*
X82262004Y-79007960D01*
X82262001Y-79007961D01*
X82255865Y-79008519D01*
X82249959Y-79010257D01*
X82249955Y-79010258D01*
X82136649Y-79043606D01*
X82066887Y-79064138D01*
X82061427Y-79066992D01*
X82061428Y-79066992D01*
X81897772Y-79152549D01*
X81897768Y-79152552D01*
X81892312Y-79155404D01*
X81738788Y-79278840D01*
X81612163Y-79429745D01*
X81609195Y-79435144D01*
X81523602Y-79590839D01*
X81517262Y-79602371D01*
X81515398Y-79608246D01*
X81515397Y-79608249D01*
X81480719Y-79717569D01*
X81457697Y-79790142D01*
X81435738Y-79985907D01*
X81452222Y-80182209D01*
X81506521Y-80371570D01*
X81596566Y-80546779D01*
X81600389Y-80551603D01*
X81600392Y-80551607D01*
X81663212Y-80630865D01*
X81718927Y-80701160D01*
X81723620Y-80705154D01*
X81723621Y-80705155D01*
X81794501Y-80765478D01*
X81868945Y-80828835D01*
X81874323Y-80831841D01*
X81874325Y-80831842D01*
X82035524Y-80921933D01*
X82040904Y-80924940D01*
X82228255Y-80985814D01*
X82423862Y-81009139D01*
X82429997Y-81008667D01*
X82429999Y-81008667D01*
X82489801Y-81004065D01*
X82620274Y-80994026D01*
X82810009Y-80941050D01*
X82824224Y-80933870D01*
X82916264Y-80887377D01*
X82922690Y-80884131D01*
X82992512Y-80871271D01*
X83058203Y-80898200D01*
X83098906Y-80956370D01*
X83105500Y-80996597D01*
X83105500Y-81543782D01*
X83085498Y-81611903D01*
X83031842Y-81658396D01*
X82961568Y-81668500D01*
X82919571Y-81654617D01*
X82841569Y-81612441D01*
X82841562Y-81612438D01*
X82836143Y-81609508D01*
X82647960Y-81551256D01*
X82641835Y-81550612D01*
X82641834Y-81550612D01*
X82458176Y-81531309D01*
X82458174Y-81531309D01*
X82452047Y-81530665D01*
X82370018Y-81538130D01*
X82262004Y-81547960D01*
X82262001Y-81547961D01*
X82255865Y-81548519D01*
X82249959Y-81550257D01*
X82249955Y-81550258D01*
X82147617Y-81580378D01*
X82066887Y-81604138D01*
X82061427Y-81606992D01*
X82061428Y-81606992D01*
X81897772Y-81692549D01*
X81897768Y-81692552D01*
X81892312Y-81695404D01*
X81887512Y-81699264D01*
X81887511Y-81699264D01*
X81743595Y-81814975D01*
X81738788Y-81818840D01*
X81612163Y-81969745D01*
X81609198Y-81975139D01*
X81609197Y-81975140D01*
X81529450Y-82120201D01*
X81479104Y-82170259D01*
X81419035Y-82185500D01*
X61579019Y-82185500D01*
X61510898Y-82165498D01*
X61464405Y-82111842D01*
X61454301Y-82041568D01*
X61479056Y-81982797D01*
X61495531Y-81961326D01*
X61500560Y-81954772D01*
X61559456Y-81812585D01*
X61579544Y-81660000D01*
X61562602Y-81531309D01*
X61560534Y-81515603D01*
X61559456Y-81507415D01*
X61554430Y-81495280D01*
X61515204Y-81400582D01*
X61500560Y-81365228D01*
X61406871Y-81243129D01*
X61381607Y-81223743D01*
X61291326Y-81154469D01*
X61284772Y-81149440D01*
X61142585Y-81090544D01*
X60990000Y-81070456D01*
X60955987Y-81074934D01*
X60885839Y-81063995D01*
X60850446Y-81039107D01*
X55181339Y-75370000D01*
X66600456Y-75370000D01*
X66620544Y-75522585D01*
X66679440Y-75664772D01*
X66773129Y-75786871D01*
X66895228Y-75880560D01*
X67037415Y-75939456D01*
X67190000Y-75959544D01*
X67198189Y-75958466D01*
X67198190Y-75958466D01*
X67206342Y-75957393D01*
X67276491Y-75968333D01*
X67311881Y-75993220D01*
X68463082Y-77144420D01*
X68475587Y-77159902D01*
X68478523Y-77163129D01*
X68484175Y-77171882D01*
X68508438Y-77191009D01*
X68512433Y-77194559D01*
X68512517Y-77194460D01*
X68516480Y-77197818D01*
X68520156Y-77201494D01*
X68524385Y-77204517D01*
X68524386Y-77204517D01*
X68534652Y-77211854D01*
X68539395Y-77215415D01*
X68568675Y-77238497D01*
X68568679Y-77238499D01*
X68576857Y-77244946D01*
X68584925Y-77247779D01*
X68591885Y-77252753D01*
X68601863Y-77255737D01*
X68637586Y-77266420D01*
X68643235Y-77268256D01*
X68688208Y-77284050D01*
X68693404Y-77284500D01*
X68696109Y-77284500D01*
X68698365Y-77284597D01*
X68698841Y-77284740D01*
X68698839Y-77284786D01*
X68699038Y-77284799D01*
X68704955Y-77286568D01*
X68755124Y-77284597D01*
X68760070Y-77284500D01*
X71153134Y-77284500D01*
X71221255Y-77304502D01*
X71253094Y-77333793D01*
X71263129Y-77346871D01*
X71385228Y-77440560D01*
X71527415Y-77499456D01*
X71680000Y-77519544D01*
X71688188Y-77518466D01*
X71824397Y-77500534D01*
X71832585Y-77499456D01*
X71974772Y-77440560D01*
X72096871Y-77346871D01*
X72106905Y-77333795D01*
X72185531Y-77231326D01*
X72190560Y-77224772D01*
X72249456Y-77082585D01*
X72269544Y-76930000D01*
X72249456Y-76777415D01*
X72190560Y-76635228D01*
X72108552Y-76528352D01*
X72101897Y-76519679D01*
X72096871Y-76513129D01*
X71974772Y-76419440D01*
X71832585Y-76360544D01*
X71680000Y-76340456D01*
X71527415Y-76360544D01*
X71385228Y-76419440D01*
X71263129Y-76513129D01*
X71253095Y-76526206D01*
X71195757Y-76568072D01*
X71153134Y-76575500D01*
X68949029Y-76575500D01*
X68880908Y-76555498D01*
X68859934Y-76538595D01*
X67813220Y-75491881D01*
X67779194Y-75429569D01*
X67777393Y-75386342D01*
X67778466Y-75378190D01*
X67778466Y-75378188D01*
X67779544Y-75370000D01*
X67759456Y-75217415D01*
X67700560Y-75075228D01*
X67606871Y-74953129D01*
X67484772Y-74859440D01*
X67342585Y-74800544D01*
X67190000Y-74780456D01*
X67037415Y-74800544D01*
X66895228Y-74859440D01*
X66773129Y-74953129D01*
X66679440Y-75075228D01*
X66620544Y-75217415D01*
X66600456Y-75370000D01*
X55181339Y-75370000D01*
X54763220Y-74951881D01*
X54729194Y-74889569D01*
X54727393Y-74846342D01*
X54728466Y-74838190D01*
X54728466Y-74838188D01*
X54729544Y-74830000D01*
X54709456Y-74677415D01*
X54650560Y-74535228D01*
X54556871Y-74413129D01*
X54434772Y-74319440D01*
X54292585Y-74260544D01*
X54140000Y-74240456D01*
X53987415Y-74260544D01*
X53845228Y-74319440D01*
X53723129Y-74413129D01*
X53629440Y-74535228D01*
X53570544Y-74677415D01*
X53550456Y-74830000D01*
X53570544Y-74982585D01*
X53629440Y-75124772D01*
X53723129Y-75246871D01*
X53845228Y-75340560D01*
X53987415Y-75399456D01*
X54140000Y-75419544D01*
X54148189Y-75418466D01*
X54148190Y-75418466D01*
X54156342Y-75417393D01*
X54226491Y-75428333D01*
X54261881Y-75453220D01*
X60364629Y-81555968D01*
X60398655Y-81618280D01*
X60401534Y-81645063D01*
X60401534Y-81651812D01*
X60400456Y-81660000D01*
X60420544Y-81812585D01*
X60479440Y-81954772D01*
X60484469Y-81961326D01*
X60500944Y-81982797D01*
X60526544Y-82049017D01*
X60512279Y-82118566D01*
X60462677Y-82169362D01*
X60400981Y-82185500D01*
X54790429Y-82185500D01*
X54722308Y-82165498D01*
X54701334Y-82148595D01*
X46682738Y-74130000D01*
X50760456Y-74130000D01*
X50780544Y-74282585D01*
X50839440Y-74424772D01*
X50933129Y-74546871D01*
X51055228Y-74640560D01*
X51197415Y-74699456D01*
X51350000Y-74719544D01*
X51358188Y-74718466D01*
X51494397Y-74700534D01*
X51502585Y-74699456D01*
X51644772Y-74640560D01*
X51766871Y-74546871D01*
X51860560Y-74424772D01*
X51919456Y-74282585D01*
X51936614Y-74152258D01*
X51965336Y-74087330D01*
X51972441Y-74079609D01*
X52928535Y-73123515D01*
X52928538Y-73123511D01*
X52951326Y-73100723D01*
X52961457Y-73080840D01*
X52971787Y-73063983D01*
X52979076Y-73053950D01*
X52984904Y-73045929D01*
X52987969Y-73036497D01*
X52991801Y-73024705D01*
X52999365Y-73006443D01*
X53004995Y-72995394D01*
X53004996Y-72995390D01*
X53009498Y-72986555D01*
X53012988Y-72964517D01*
X53017605Y-72945286D01*
X53021435Y-72933499D01*
X53024500Y-72924066D01*
X53024500Y-69084717D01*
X53044502Y-69016596D01*
X53098158Y-68970103D01*
X53134053Y-68959795D01*
X53204397Y-68950534D01*
X53212585Y-68949456D01*
X53354772Y-68890560D01*
X53476871Y-68796871D01*
X53570560Y-68674772D01*
X53593091Y-68620376D01*
X53637640Y-68565097D01*
X53705003Y-68542676D01*
X53773794Y-68560234D01*
X53822173Y-68612197D01*
X53835500Y-68668596D01*
X53835500Y-69228743D01*
X53833394Y-69248537D01*
X53833189Y-69252890D01*
X53830997Y-69263070D01*
X53834627Y-69293737D01*
X53834942Y-69299083D01*
X53835072Y-69299072D01*
X53835500Y-69304252D01*
X53835500Y-69309451D01*
X53836353Y-69314575D01*
X53836354Y-69314588D01*
X53838427Y-69327041D01*
X53839264Y-69332916D01*
X53844869Y-69380270D01*
X53848570Y-69387978D01*
X53849975Y-69396417D01*
X53872629Y-69438401D01*
X53875310Y-69443664D01*
X53895955Y-69486658D01*
X53899311Y-69490650D01*
X53901258Y-69492597D01*
X53902748Y-69494222D01*
X53902981Y-69494654D01*
X53902945Y-69494687D01*
X53903084Y-69494845D01*
X53906017Y-69500280D01*
X53913664Y-69507349D01*
X53942881Y-69534357D01*
X53946447Y-69537786D01*
X54986780Y-70578119D01*
X55020806Y-70640431D01*
X55022607Y-70683658D01*
X55020456Y-70700000D01*
X55040544Y-70852585D01*
X55099440Y-70994772D01*
X55104469Y-71001326D01*
X55125148Y-71028275D01*
X55193129Y-71116871D01*
X55315228Y-71210560D01*
X55457415Y-71269456D01*
X55610000Y-71289544D01*
X55618188Y-71288466D01*
X55621037Y-71288091D01*
X55762585Y-71269456D01*
X55904772Y-71210560D01*
X56026871Y-71116871D01*
X56094853Y-71028275D01*
X56115531Y-71001326D01*
X56120560Y-70994772D01*
X56179456Y-70852585D01*
X56199544Y-70700000D01*
X56179456Y-70547415D01*
X56120560Y-70405228D01*
X56026871Y-70283129D01*
X55904772Y-70189440D01*
X55762585Y-70130544D01*
X55610000Y-70110456D01*
X55601811Y-70111534D01*
X55601810Y-70111534D01*
X55593658Y-70112607D01*
X55523509Y-70101667D01*
X55488122Y-70076783D01*
X54581404Y-69170066D01*
X54547380Y-69107755D01*
X54544500Y-69080972D01*
X54544500Y-68436866D01*
X54564502Y-68368745D01*
X54593793Y-68336906D01*
X54606871Y-68326871D01*
X54621037Y-68308410D01*
X54695531Y-68211326D01*
X54700560Y-68204772D01*
X54759456Y-68062585D01*
X54779544Y-67910000D01*
X54766867Y-67813704D01*
X54760534Y-67765603D01*
X54759456Y-67757415D01*
X54700560Y-67615228D01*
X54606871Y-67493129D01*
X54484772Y-67399440D01*
X54342585Y-67340544D01*
X54190000Y-67320456D01*
X54037415Y-67340544D01*
X53895228Y-67399440D01*
X53773129Y-67493129D01*
X53679440Y-67615228D01*
X53620544Y-67757415D01*
X53611342Y-67827316D01*
X53611250Y-67828013D01*
X53582528Y-67892940D01*
X53523263Y-67932032D01*
X53452272Y-67932877D01*
X53409628Y-67911532D01*
X53354772Y-67869440D01*
X53228767Y-67817247D01*
X53220214Y-67813704D01*
X53212585Y-67810544D01*
X53060000Y-67790456D01*
X52907415Y-67810544D01*
X52899786Y-67813704D01*
X52891233Y-67817247D01*
X52765228Y-67869440D01*
X52758677Y-67874467D01*
X52758674Y-67874469D01*
X52682555Y-67932877D01*
X52643129Y-67963129D01*
X52549440Y-68085228D01*
X52490544Y-68227415D01*
X52489466Y-68235604D01*
X52473386Y-68357742D01*
X52444664Y-68422670D01*
X52437559Y-68430391D01*
X52311465Y-68556485D01*
X52311462Y-68556489D01*
X52288674Y-68579277D01*
X52284171Y-68588115D01*
X52278546Y-68599154D01*
X52268216Y-68616011D01*
X52255095Y-68634071D01*
X52252030Y-68643504D01*
X52248199Y-68655295D01*
X52240634Y-68673561D01*
X52230502Y-68693445D01*
X52228951Y-68703238D01*
X52227011Y-68715487D01*
X52222395Y-68734713D01*
X52215500Y-68755934D01*
X52215500Y-72640260D01*
X52195498Y-72708381D01*
X52178595Y-72729355D01*
X51400391Y-73507559D01*
X51338079Y-73541585D01*
X51327742Y-73543386D01*
X51234760Y-73555627D01*
X51197415Y-73560544D01*
X51189786Y-73563704D01*
X51187901Y-73564485D01*
X51055228Y-73619440D01*
X50933129Y-73713129D01*
X50839440Y-73835228D01*
X50780544Y-73977415D01*
X50760456Y-74130000D01*
X46682738Y-74130000D01*
X43041427Y-70488689D01*
X43007401Y-70426377D01*
X43004522Y-70399594D01*
X43004522Y-70220000D01*
X46220456Y-70220000D01*
X46240544Y-70372585D01*
X46299440Y-70514772D01*
X46393129Y-70636871D01*
X46515228Y-70730560D01*
X46657415Y-70789456D01*
X46810000Y-70809544D01*
X46818188Y-70808466D01*
X46954397Y-70790534D01*
X46962585Y-70789456D01*
X47104772Y-70730560D01*
X47226871Y-70636871D01*
X47320560Y-70514772D01*
X47379456Y-70372585D01*
X47399544Y-70220000D01*
X47379456Y-70067415D01*
X47362082Y-70025470D01*
X47323721Y-69932858D01*
X47323719Y-69932855D01*
X47320560Y-69925228D01*
X47318007Y-69921901D01*
X47301714Y-69854736D01*
X47324935Y-69787644D01*
X47380742Y-69743757D01*
X47451417Y-69737009D01*
X47504272Y-69760768D01*
X47595228Y-69830560D01*
X47737415Y-69889456D01*
X47890000Y-69909544D01*
X47898188Y-69908466D01*
X48034397Y-69890534D01*
X48042585Y-69889456D01*
X48184772Y-69830560D01*
X48227067Y-69798106D01*
X48300321Y-69741897D01*
X48306871Y-69736871D01*
X48400560Y-69614772D01*
X48459456Y-69472585D01*
X48463264Y-69443664D01*
X48478466Y-69328188D01*
X48479544Y-69320000D01*
X48477393Y-69303658D01*
X48488333Y-69233509D01*
X48513220Y-69198119D01*
X55020638Y-62690700D01*
X55020646Y-62690692D01*
X55020650Y-62690689D01*
X55414423Y-62296916D01*
X55429909Y-62284408D01*
X55433134Y-62281474D01*
X55441882Y-62275825D01*
X55461003Y-62251570D01*
X55464559Y-62247569D01*
X55464459Y-62247484D01*
X55467812Y-62243527D01*
X55471494Y-62239845D01*
X55481882Y-62225309D01*
X55485401Y-62220622D01*
X55514946Y-62183143D01*
X55517779Y-62175075D01*
X55522753Y-62168115D01*
X55536420Y-62122414D01*
X55538256Y-62116765D01*
X55551424Y-62079269D01*
X55554050Y-62071792D01*
X55554205Y-62070000D01*
X60910284Y-62070000D01*
X60911362Y-62078188D01*
X60929570Y-62216494D01*
X60931059Y-62227806D01*
X60991971Y-62374858D01*
X61064539Y-62469431D01*
X63978595Y-65383487D01*
X64012621Y-65445799D01*
X64015500Y-65472582D01*
X64015500Y-66269619D01*
X64016038Y-66273705D01*
X64029982Y-66379622D01*
X64029983Y-66379626D01*
X64031060Y-66387806D01*
X64034218Y-66395430D01*
X64034219Y-66395434D01*
X64060658Y-66459264D01*
X64091970Y-66534858D01*
X64096997Y-66541409D01*
X64096998Y-66541411D01*
X64137002Y-66593544D01*
X64188866Y-66661134D01*
X64195416Y-66666160D01*
X64287281Y-66736651D01*
X64315142Y-66758030D01*
X64322772Y-66761190D01*
X64322773Y-66761191D01*
X64454566Y-66815781D01*
X64454570Y-66815782D01*
X64462194Y-66818940D01*
X64620000Y-66839716D01*
X64777806Y-66818940D01*
X64785430Y-66815782D01*
X64785434Y-66815781D01*
X64917227Y-66761191D01*
X64917228Y-66761190D01*
X64924858Y-66758030D01*
X64952720Y-66736651D01*
X65044584Y-66666160D01*
X65051134Y-66661134D01*
X65102998Y-66593544D01*
X65143002Y-66541411D01*
X65143003Y-66541409D01*
X65148030Y-66534858D01*
X65179342Y-66459264D01*
X65205781Y-66395434D01*
X65205782Y-66395430D01*
X65208940Y-66387806D01*
X65210017Y-66379626D01*
X65210018Y-66379622D01*
X65223962Y-66273705D01*
X65224500Y-66269619D01*
X65224500Y-65217878D01*
X65225578Y-65201432D01*
X65228638Y-65178188D01*
X65229716Y-65170000D01*
X65223877Y-65125650D01*
X65210019Y-65020380D01*
X65210018Y-65020378D01*
X65208941Y-65012194D01*
X65170525Y-64919451D01*
X65148030Y-64865142D01*
X65051134Y-64738866D01*
X65025982Y-64719566D01*
X65013591Y-64708699D01*
X61919431Y-61614539D01*
X61824858Y-61541971D01*
X61677806Y-61481059D01*
X61669622Y-61479982D01*
X61669620Y-61479981D01*
X61549840Y-61464212D01*
X61520000Y-61460284D01*
X61490160Y-61464212D01*
X61370380Y-61479981D01*
X61370378Y-61479982D01*
X61362194Y-61481059D01*
X61215142Y-61541971D01*
X61088866Y-61638866D01*
X60991971Y-61765142D01*
X60931059Y-61912194D01*
X60929982Y-61920378D01*
X60929981Y-61920380D01*
X60918164Y-62010142D01*
X60910284Y-62070000D01*
X55554205Y-62070000D01*
X55554500Y-62066596D01*
X55554500Y-62063891D01*
X55554597Y-62061635D01*
X55554740Y-62061159D01*
X55554786Y-62061161D01*
X55554799Y-62060962D01*
X55556568Y-62055045D01*
X55554597Y-62004876D01*
X55554500Y-61999930D01*
X55554500Y-55886866D01*
X55574502Y-55818745D01*
X55603793Y-55786906D01*
X55616871Y-55776871D01*
X55710560Y-55654772D01*
X55769456Y-55512585D01*
X55789544Y-55360000D01*
X55769456Y-55207415D01*
X55710560Y-55065228D01*
X55616871Y-54943129D01*
X55494772Y-54849440D01*
X55352585Y-54790544D01*
X55200000Y-54770456D01*
X55047415Y-54790544D01*
X54905228Y-54849440D01*
X54783129Y-54943129D01*
X54689440Y-55065228D01*
X54630544Y-55207415D01*
X54610456Y-55360000D01*
X54630544Y-55512585D01*
X54689440Y-55654772D01*
X54783129Y-55776871D01*
X54796206Y-55786905D01*
X54838072Y-55844243D01*
X54845500Y-55886866D01*
X54845500Y-61810971D01*
X54825498Y-61879092D01*
X54808595Y-61900066D01*
X48011881Y-68696780D01*
X47949569Y-68730806D01*
X47906342Y-68732607D01*
X47898190Y-68731534D01*
X47898189Y-68731534D01*
X47890000Y-68730456D01*
X47857665Y-68734713D01*
X47768133Y-68746500D01*
X47737415Y-68750544D01*
X47595228Y-68809440D01*
X47588674Y-68814469D01*
X47522169Y-68865500D01*
X47473129Y-68903129D01*
X47390463Y-69010863D01*
X47333125Y-69052730D01*
X47262254Y-69056952D01*
X47200351Y-69022188D01*
X47167070Y-68959476D01*
X47164500Y-68934159D01*
X47164500Y-61189029D01*
X47184502Y-61120908D01*
X47201405Y-61099934D01*
X47378119Y-60923220D01*
X47440431Y-60889194D01*
X47483658Y-60887393D01*
X47491810Y-60888466D01*
X47491811Y-60888466D01*
X47500000Y-60889544D01*
X47508188Y-60888466D01*
X47516339Y-60887393D01*
X47652585Y-60869456D01*
X47794772Y-60810560D01*
X47916871Y-60716871D01*
X47938513Y-60688667D01*
X48005531Y-60601326D01*
X48010560Y-60594772D01*
X48069456Y-60452585D01*
X48089544Y-60300000D01*
X48074325Y-60184397D01*
X48070534Y-60155603D01*
X48069456Y-60147415D01*
X48010560Y-60005228D01*
X47916871Y-59883129D01*
X47897323Y-59868129D01*
X47801326Y-59794469D01*
X47794772Y-59789440D01*
X47677899Y-59741029D01*
X47660214Y-59733704D01*
X47652585Y-59730544D01*
X47500000Y-59710456D01*
X47347415Y-59730544D01*
X47339786Y-59733704D01*
X47322101Y-59741029D01*
X47205228Y-59789440D01*
X47198674Y-59794469D01*
X47102678Y-59868129D01*
X47083129Y-59883129D01*
X46989440Y-60005228D01*
X46930544Y-60147415D01*
X46929466Y-60155603D01*
X46925675Y-60184397D01*
X46910456Y-60300000D01*
X46911534Y-60308188D01*
X46911534Y-60308189D01*
X46912607Y-60316340D01*
X46901667Y-60386489D01*
X46876781Y-60421880D01*
X46595578Y-60703084D01*
X46580098Y-60715586D01*
X46576868Y-60718525D01*
X46568118Y-60724175D01*
X46548991Y-60748438D01*
X46545441Y-60752433D01*
X46545540Y-60752517D01*
X46542182Y-60756480D01*
X46538506Y-60760156D01*
X46535483Y-60764385D01*
X46535483Y-60764386D01*
X46528146Y-60774652D01*
X46524585Y-60779395D01*
X46501503Y-60808675D01*
X46501501Y-60808679D01*
X46495054Y-60816857D01*
X46492221Y-60824925D01*
X46487247Y-60831885D01*
X46484263Y-60841863D01*
X46473580Y-60877586D01*
X46471744Y-60883235D01*
X46455950Y-60928208D01*
X46455500Y-60933404D01*
X46455500Y-60936109D01*
X46455403Y-60938365D01*
X46455260Y-60938841D01*
X46455214Y-60938839D01*
X46455201Y-60939038D01*
X46453432Y-60944955D01*
X46453841Y-60955359D01*
X46455403Y-60995124D01*
X46455500Y-61000070D01*
X46455500Y-69693134D01*
X46435498Y-69761255D01*
X46406207Y-69793094D01*
X46393129Y-69803129D01*
X46299440Y-69925228D01*
X46240544Y-70067415D01*
X46220456Y-70220000D01*
X43004522Y-70220000D01*
X43004522Y-52000000D01*
X43530514Y-52000000D01*
X43535500Y-52025067D01*
X43550266Y-52099301D01*
X43606516Y-52183484D01*
X43690699Y-52239734D01*
X43790000Y-52259486D01*
X43802897Y-52256921D01*
X43827476Y-52254500D01*
X47552524Y-52254500D01*
X47577103Y-52256921D01*
X47590000Y-52259486D01*
X47689301Y-52239734D01*
X47773484Y-52183484D01*
X47829734Y-52099301D01*
X47844500Y-52025067D01*
X47849486Y-52000000D01*
X47846921Y-51987103D01*
X47844500Y-51962524D01*
X47844500Y-49077476D01*
X47846921Y-49052894D01*
X47847065Y-49052170D01*
X47849486Y-49040000D01*
X47829734Y-48940699D01*
X47773484Y-48856516D01*
X47689301Y-48800266D01*
X47615067Y-48785500D01*
X47602172Y-48782935D01*
X47590000Y-48780514D01*
X47577103Y-48783079D01*
X47552524Y-48785500D01*
X43827476Y-48785500D01*
X43802897Y-48783079D01*
X43790000Y-48780514D01*
X43777828Y-48782935D01*
X43764933Y-48785500D01*
X43690699Y-48800266D01*
X43606516Y-48856516D01*
X43550266Y-48940699D01*
X43530514Y-49040000D01*
X43532935Y-49052170D01*
X43533079Y-49052894D01*
X43535500Y-49077476D01*
X43535500Y-51962524D01*
X43533079Y-51987103D01*
X43530514Y-52000000D01*
X43004522Y-52000000D01*
X43004522Y-48719007D01*
X43024524Y-48650886D01*
X43041427Y-48629912D01*
X43549934Y-48121405D01*
X43612246Y-48087379D01*
X43639029Y-48084500D01*
X44478743Y-48084500D01*
X44498537Y-48086606D01*
X44502890Y-48086811D01*
X44513070Y-48089003D01*
X44543740Y-48085373D01*
X44549083Y-48085058D01*
X44549072Y-48084928D01*
X44554252Y-48084500D01*
X44559451Y-48084500D01*
X44564575Y-48083647D01*
X44564588Y-48083646D01*
X44577041Y-48081573D01*
X44582916Y-48080736D01*
X44619929Y-48076355D01*
X44630270Y-48075131D01*
X44637978Y-48071430D01*
X44646417Y-48070025D01*
X44688401Y-48047371D01*
X44693664Y-48044690D01*
X44701870Y-48040750D01*
X44736658Y-48024045D01*
X44740650Y-48020689D01*
X44742597Y-48018742D01*
X44744222Y-48017252D01*
X44744654Y-48017019D01*
X44744687Y-48017055D01*
X44744845Y-48016916D01*
X44750280Y-48013983D01*
X44784357Y-47977119D01*
X44787786Y-47973553D01*
X45664423Y-47096916D01*
X45679909Y-47084408D01*
X45683134Y-47081474D01*
X45691882Y-47075825D01*
X45711003Y-47051570D01*
X45714559Y-47047569D01*
X45714459Y-47047484D01*
X45717812Y-47043527D01*
X45721494Y-47039845D01*
X45731882Y-47025309D01*
X45735401Y-47020622D01*
X45764946Y-46983143D01*
X45767779Y-46975075D01*
X45772753Y-46968115D01*
X45778087Y-46950280D01*
X45786413Y-46922440D01*
X45788247Y-46916797D01*
X45801422Y-46879277D01*
X45801423Y-46879273D01*
X45804050Y-46871792D01*
X45804500Y-46866596D01*
X45804500Y-46863889D01*
X45804597Y-46861631D01*
X45804739Y-46861159D01*
X45804785Y-46861161D01*
X45804798Y-46860962D01*
X45806567Y-46855045D01*
X45804597Y-46804901D01*
X45804500Y-46799955D01*
X45804500Y-40096257D01*
X45806606Y-40076463D01*
X45806811Y-40072110D01*
X45809003Y-40061930D01*
X45805373Y-40031260D01*
X45805058Y-40025917D01*
X45804928Y-40025928D01*
X45804500Y-40020748D01*
X45804500Y-40015549D01*
X45803647Y-40010425D01*
X45803646Y-40010412D01*
X45801573Y-39997959D01*
X45800736Y-39992084D01*
X45796355Y-39955071D01*
X45795131Y-39944730D01*
X45791430Y-39937022D01*
X45790025Y-39928583D01*
X45767382Y-39886619D01*
X45764686Y-39881328D01*
X45747477Y-39845489D01*
X45747473Y-39845482D01*
X45744044Y-39838342D01*
X45740688Y-39834350D01*
X45738741Y-39832403D01*
X45737253Y-39830781D01*
X45737018Y-39830345D01*
X45737054Y-39830313D01*
X45736917Y-39830158D01*
X45733983Y-39824720D01*
X45697106Y-39790631D01*
X45693540Y-39787202D01*
X44485693Y-38579355D01*
X44485688Y-38579349D01*
X44419573Y-38513234D01*
X44385547Y-38450922D01*
X44389110Y-38384367D01*
X44409182Y-38324029D01*
X44429277Y-38263622D01*
X44453966Y-38068183D01*
X44454360Y-38040000D01*
X44435137Y-37843948D01*
X44378200Y-37655363D01*
X44285717Y-37481429D01*
X44161212Y-37328770D01*
X44095894Y-37274734D01*
X44014177Y-37207132D01*
X44014174Y-37207130D01*
X44009427Y-37203203D01*
X43836143Y-37109508D01*
X43647960Y-37051256D01*
X43641835Y-37050612D01*
X43641834Y-37050612D01*
X43458176Y-37031309D01*
X43458174Y-37031309D01*
X43452047Y-37030665D01*
X43370018Y-37038130D01*
X43262004Y-37047960D01*
X43262001Y-37047961D01*
X43255865Y-37048519D01*
X43249959Y-37050257D01*
X43249955Y-37050258D01*
X43109775Y-37091516D01*
X43066887Y-37104138D01*
X43061427Y-37106992D01*
X43061428Y-37106992D01*
X42897772Y-37192549D01*
X42897768Y-37192552D01*
X42892312Y-37195404D01*
X42738788Y-37318840D01*
X42612163Y-37469745D01*
X42517262Y-37642371D01*
X42515398Y-37648246D01*
X42515397Y-37648249D01*
X42511269Y-37661263D01*
X42457697Y-37830142D01*
X42435738Y-38025907D01*
X42436254Y-38032051D01*
X42448337Y-38175938D01*
X42452222Y-38222209D01*
X42479372Y-38316890D01*
X42500676Y-38391185D01*
X42506521Y-38411570D01*
X42509336Y-38417047D01*
X42592751Y-38579355D01*
X42596566Y-38586779D01*
X42600389Y-38591603D01*
X42600392Y-38591607D01*
X42628045Y-38626496D01*
X42718927Y-38741160D01*
X42723620Y-38745154D01*
X42723621Y-38745155D01*
X42748447Y-38766283D01*
X42868945Y-38868835D01*
X42874323Y-38871841D01*
X42874325Y-38871842D01*
X43028392Y-38957947D01*
X43040904Y-38964940D01*
X43228255Y-39025814D01*
X43423862Y-39049139D01*
X43429997Y-39048667D01*
X43429999Y-39048667D01*
X43489801Y-39044065D01*
X43620274Y-39034026D01*
X43626204Y-39032370D01*
X43626211Y-39032369D01*
X43797491Y-38984546D01*
X43868481Y-38985492D01*
X43920470Y-39016809D01*
X45058595Y-40154934D01*
X45092621Y-40217246D01*
X45095500Y-40244029D01*
X45095500Y-41424970D01*
X45075498Y-41493091D01*
X45021842Y-41539584D01*
X44951568Y-41549688D01*
X44886988Y-41520194D01*
X44880405Y-41514066D01*
X44485693Y-41119355D01*
X44485688Y-41119349D01*
X44419572Y-41053233D01*
X44385548Y-40990922D01*
X44389110Y-40924367D01*
X44427331Y-40809471D01*
X44429277Y-40803622D01*
X44453966Y-40608183D01*
X44454360Y-40580000D01*
X44435137Y-40383948D01*
X44378200Y-40195363D01*
X44348982Y-40140412D01*
X44288611Y-40026871D01*
X44288609Y-40026868D01*
X44285717Y-40021429D01*
X44161212Y-39868770D01*
X44062613Y-39787202D01*
X44014177Y-39747132D01*
X44014174Y-39747130D01*
X44009427Y-39743203D01*
X43836143Y-39649508D01*
X43647960Y-39591256D01*
X43641835Y-39590612D01*
X43641834Y-39590612D01*
X43458176Y-39571309D01*
X43458174Y-39571309D01*
X43452047Y-39570665D01*
X43370018Y-39578130D01*
X43262004Y-39587960D01*
X43262001Y-39587961D01*
X43255865Y-39588519D01*
X43249959Y-39590257D01*
X43249955Y-39590258D01*
X43138613Y-39623028D01*
X43066887Y-39644138D01*
X43061427Y-39646992D01*
X43061428Y-39646992D01*
X42897772Y-39732549D01*
X42897768Y-39732552D01*
X42892312Y-39735404D01*
X42887512Y-39739264D01*
X42887511Y-39739264D01*
X42764282Y-39838342D01*
X42738788Y-39858840D01*
X42612163Y-40009745D01*
X42591810Y-40046768D01*
X42532922Y-40153886D01*
X42517262Y-40182371D01*
X42515398Y-40188246D01*
X42515397Y-40188249D01*
X42506199Y-40217246D01*
X42457697Y-40370142D01*
X42435738Y-40565907D01*
X42452222Y-40762209D01*
X42479371Y-40856889D01*
X42498721Y-40924367D01*
X42506521Y-40951570D01*
X42551544Y-41039175D01*
X42592751Y-41119355D01*
X42596566Y-41126779D01*
X42600389Y-41131603D01*
X42600392Y-41131607D01*
X42628045Y-41166496D01*
X42718927Y-41281160D01*
X42723620Y-41285154D01*
X42723621Y-41285155D01*
X42748447Y-41306283D01*
X42868945Y-41408835D01*
X42874323Y-41411841D01*
X42874325Y-41411842D01*
X43028392Y-41497947D01*
X43040904Y-41504940D01*
X43228255Y-41565814D01*
X43423862Y-41589139D01*
X43429997Y-41588667D01*
X43429999Y-41588667D01*
X43489801Y-41584065D01*
X43620274Y-41574026D01*
X43626204Y-41572370D01*
X43626211Y-41572369D01*
X43797491Y-41524546D01*
X43868481Y-41525492D01*
X43920468Y-41556807D01*
X44648596Y-42284934D01*
X44682620Y-42347245D01*
X44685500Y-42374028D01*
X44685500Y-42906421D01*
X44665498Y-42974542D01*
X44611842Y-43021035D01*
X44541568Y-43031139D01*
X44476988Y-43001645D01*
X44438604Y-42941919D01*
X44435900Y-42930898D01*
X44435738Y-42930081D01*
X44435137Y-42923948D01*
X44433355Y-42918046D01*
X44433355Y-42918044D01*
X44379981Y-42741263D01*
X44378200Y-42735363D01*
X44368418Y-42716966D01*
X44288611Y-42566871D01*
X44288609Y-42566868D01*
X44285717Y-42561429D01*
X44161212Y-42408770D01*
X44056129Y-42321838D01*
X44014177Y-42287132D01*
X44014174Y-42287130D01*
X44009427Y-42283203D01*
X43836143Y-42189508D01*
X43647960Y-42131256D01*
X43641835Y-42130612D01*
X43641834Y-42130612D01*
X43458176Y-42111309D01*
X43458174Y-42111309D01*
X43452047Y-42110665D01*
X43370018Y-42118130D01*
X43262004Y-42127960D01*
X43262001Y-42127961D01*
X43255865Y-42128519D01*
X43249959Y-42130257D01*
X43249955Y-42130258D01*
X43109775Y-42171516D01*
X43066887Y-42184138D01*
X43061427Y-42186992D01*
X43061428Y-42186992D01*
X42897772Y-42272549D01*
X42897768Y-42272552D01*
X42892312Y-42275404D01*
X42887512Y-42279264D01*
X42887511Y-42279264D01*
X42802959Y-42347245D01*
X42738788Y-42398840D01*
X42612163Y-42549745D01*
X42605740Y-42561429D01*
X42582333Y-42604007D01*
X42517262Y-42722371D01*
X42515398Y-42728246D01*
X42515397Y-42728249D01*
X42511269Y-42741263D01*
X42457697Y-42910142D01*
X42435738Y-43105907D01*
X42436254Y-43112051D01*
X42446768Y-43237256D01*
X42452222Y-43302209D01*
X42495445Y-43452943D01*
X42500675Y-43471183D01*
X42500224Y-43542179D01*
X42468652Y-43595009D01*
X41635578Y-44428084D01*
X41620098Y-44440586D01*
X41616868Y-44443525D01*
X41608118Y-44449175D01*
X41588991Y-44473438D01*
X41585441Y-44477433D01*
X41585540Y-44477517D01*
X41582182Y-44481480D01*
X41578506Y-44485156D01*
X41575483Y-44489385D01*
X41575483Y-44489386D01*
X41568146Y-44499652D01*
X41564585Y-44504395D01*
X41541503Y-44533675D01*
X41541501Y-44533679D01*
X41535054Y-44541857D01*
X41532221Y-44549925D01*
X41527247Y-44556885D01*
X41524263Y-44566863D01*
X41513580Y-44602586D01*
X41511744Y-44608235D01*
X41495950Y-44653208D01*
X41495500Y-44658404D01*
X41495500Y-44661109D01*
X41495403Y-44663365D01*
X41495260Y-44663841D01*
X41495214Y-44663839D01*
X41495201Y-44664038D01*
X41493432Y-44669955D01*
X41495403Y-44720124D01*
X41495500Y-44725070D01*
X41495500Y-70878743D01*
X41493394Y-70898537D01*
X41493189Y-70902890D01*
X41490997Y-70913070D01*
X40870500Y-70913070D01*
X40870500Y-35485907D01*
X42435738Y-35485907D01*
X42452222Y-35682209D01*
X42479371Y-35776889D01*
X42500676Y-35851185D01*
X42506521Y-35871570D01*
X42596566Y-36046779D01*
X42600389Y-36051603D01*
X42600392Y-36051607D01*
X42628045Y-36086496D01*
X42718927Y-36201160D01*
X42723620Y-36205154D01*
X42723621Y-36205155D01*
X42748447Y-36226283D01*
X42868945Y-36328835D01*
X42874323Y-36331841D01*
X42874325Y-36331842D01*
X43028392Y-36417947D01*
X43040904Y-36424940D01*
X43228255Y-36485814D01*
X43423862Y-36509139D01*
X43429997Y-36508667D01*
X43429999Y-36508667D01*
X43489801Y-36504065D01*
X43620274Y-36494026D01*
X43810009Y-36441050D01*
X43815513Y-36438270D01*
X43980341Y-36355010D01*
X43980343Y-36355009D01*
X43985842Y-36352231D01*
X44141074Y-36230950D01*
X44145100Y-36226286D01*
X44145103Y-36226283D01*
X44265764Y-36086496D01*
X44265765Y-36086494D01*
X44269793Y-36081828D01*
X44367096Y-35910544D01*
X44429277Y-35723622D01*
X44453966Y-35528183D01*
X44454360Y-35500000D01*
X44435137Y-35303948D01*
X44378200Y-35115363D01*
X44285717Y-34941429D01*
X44161212Y-34788770D01*
X44095894Y-34734734D01*
X44014177Y-34667132D01*
X44014174Y-34667130D01*
X44009427Y-34663203D01*
X43836143Y-34569508D01*
X43647960Y-34511256D01*
X43641835Y-34510612D01*
X43641834Y-34510612D01*
X43458176Y-34491309D01*
X43458174Y-34491309D01*
X43452047Y-34490665D01*
X43370018Y-34498130D01*
X43262004Y-34507960D01*
X43262001Y-34507961D01*
X43255865Y-34508519D01*
X43249959Y-34510257D01*
X43249955Y-34510258D01*
X43109775Y-34551516D01*
X43066887Y-34564138D01*
X43061427Y-34566992D01*
X43061428Y-34566992D01*
X42897772Y-34652549D01*
X42897768Y-34652552D01*
X42892312Y-34655404D01*
X42738788Y-34778840D01*
X42612163Y-34929745D01*
X42517262Y-35102371D01*
X42515398Y-35108246D01*
X42515397Y-35108249D01*
X42511269Y-35121263D01*
X42457697Y-35290142D01*
X42435738Y-35485907D01*
X40870500Y-35485907D01*
X40870500Y-31440500D01*
X40890502Y-31372379D01*
X40944158Y-31325886D01*
X40996500Y-31314500D01*
X68864000Y-31314500D01*
X68932121Y-31334502D01*
G37*
G04 #@! TD.AperFunction*
G04 #@! TA.AperFunction,Conductor*
G36*
X81488958Y-85454502D02*
G01*
X81532903Y-85502906D01*
X81593746Y-85621294D01*
X81593751Y-85621302D01*
X81596566Y-85626779D01*
X81600389Y-85631603D01*
X81600392Y-85631607D01*
X81628045Y-85666496D01*
X81718927Y-85781160D01*
X81723620Y-85785154D01*
X81723621Y-85785155D01*
X81794501Y-85845478D01*
X81868945Y-85908835D01*
X81874323Y-85911841D01*
X81874325Y-85911842D01*
X82035524Y-86001933D01*
X82040904Y-86004940D01*
X82228255Y-86065814D01*
X82423862Y-86089139D01*
X82429997Y-86088667D01*
X82429999Y-86088667D01*
X82489801Y-86084065D01*
X82620274Y-86074026D01*
X82810009Y-86021050D01*
X82824224Y-86013870D01*
X82916264Y-85967377D01*
X82922690Y-85964131D01*
X82992512Y-85951271D01*
X83058203Y-85978200D01*
X83098906Y-86036370D01*
X83105500Y-86076597D01*
X83105500Y-86623782D01*
X83085498Y-86691903D01*
X83031842Y-86738396D01*
X82961568Y-86748500D01*
X82919571Y-86734617D01*
X82841569Y-86692441D01*
X82841562Y-86692438D01*
X82836143Y-86689508D01*
X82647960Y-86631256D01*
X82641835Y-86630612D01*
X82641834Y-86630612D01*
X82458176Y-86611309D01*
X82458174Y-86611309D01*
X82452047Y-86610665D01*
X82370018Y-86618130D01*
X82262004Y-86627960D01*
X82262001Y-86627961D01*
X82255865Y-86628519D01*
X82249959Y-86630257D01*
X82249955Y-86630258D01*
X82147617Y-86660378D01*
X82066887Y-86684138D01*
X82061427Y-86686992D01*
X82061428Y-86686992D01*
X81897772Y-86772549D01*
X81897768Y-86772552D01*
X81892312Y-86775404D01*
X81738788Y-86898840D01*
X81612163Y-87049745D01*
X81609198Y-87055139D01*
X81609197Y-87055140D01*
X81529450Y-87200201D01*
X81479104Y-87250259D01*
X81419035Y-87265500D01*
X58739029Y-87265500D01*
X58670908Y-87245498D01*
X58649934Y-87228595D01*
X57070934Y-85649595D01*
X57036908Y-85587283D01*
X57041973Y-85516468D01*
X57084520Y-85459632D01*
X57151040Y-85434821D01*
X57160029Y-85434500D01*
X81420837Y-85434500D01*
X81488958Y-85454502D01*
G37*
G04 #@! TD.AperFunction*
G04 #@! TA.AperFunction,Conductor*
G36*
X81488958Y-82914502D02*
G01*
X81532903Y-82962906D01*
X81593746Y-83081294D01*
X81593751Y-83081302D01*
X81596566Y-83086779D01*
X81600389Y-83091603D01*
X81600392Y-83091607D01*
X81676922Y-83188163D01*
X81718927Y-83241160D01*
X81723620Y-83245154D01*
X81723621Y-83245155D01*
X81794501Y-83305478D01*
X81868945Y-83368835D01*
X81874323Y-83371841D01*
X81874325Y-83371842D01*
X82035524Y-83461933D01*
X82040904Y-83464940D01*
X82228255Y-83525814D01*
X82423862Y-83549139D01*
X82429997Y-83548667D01*
X82429999Y-83548667D01*
X82489801Y-83544065D01*
X82620274Y-83534026D01*
X82810009Y-83481050D01*
X82824224Y-83473870D01*
X82916264Y-83427377D01*
X82922690Y-83424131D01*
X82992512Y-83411271D01*
X83058203Y-83438200D01*
X83098906Y-83496370D01*
X83105500Y-83536597D01*
X83105500Y-84083782D01*
X83085498Y-84151903D01*
X83031842Y-84198396D01*
X82961568Y-84208500D01*
X82919571Y-84194617D01*
X82841569Y-84152441D01*
X82841562Y-84152438D01*
X82836143Y-84149508D01*
X82647960Y-84091256D01*
X82641835Y-84090612D01*
X82641834Y-84090612D01*
X82458176Y-84071309D01*
X82458174Y-84071309D01*
X82452047Y-84070665D01*
X82370018Y-84078130D01*
X82262004Y-84087960D01*
X82262001Y-84087961D01*
X82255865Y-84088519D01*
X82249959Y-84090257D01*
X82249955Y-84090258D01*
X82193163Y-84106973D01*
X82066887Y-84144138D01*
X82061427Y-84146992D01*
X82061428Y-84146992D01*
X81897772Y-84232549D01*
X81897768Y-84232552D01*
X81892312Y-84235404D01*
X81738788Y-84358840D01*
X81612163Y-84509745D01*
X81609198Y-84515139D01*
X81609197Y-84515140D01*
X81529450Y-84660201D01*
X81479104Y-84710259D01*
X81419035Y-84725500D01*
X56764729Y-84725500D01*
X56696608Y-84705498D01*
X56675634Y-84688595D01*
X55096634Y-83109595D01*
X55062608Y-83047283D01*
X55067673Y-82976468D01*
X55110220Y-82919632D01*
X55176740Y-82894821D01*
X55185729Y-82894500D01*
X81420837Y-82894500D01*
X81488958Y-82914502D01*
G37*
G04 #@! TD.AperFunction*
G04 #@! TA.AperFunction,Conductor*
G36*
X44653296Y-43233992D02*
G01*
X44683892Y-43298057D01*
X44685500Y-43318124D01*
X44685500Y-44863838D01*
X44665498Y-44931959D01*
X44611842Y-44978452D01*
X44541568Y-44988556D01*
X44509039Y-44974473D01*
X44498247Y-44973356D01*
X44482665Y-44981546D01*
X43445000Y-46019210D01*
X42765822Y-46698389D01*
X42759394Y-46710161D01*
X42768690Y-46722176D01*
X42809088Y-46750464D01*
X42818584Y-46755947D01*
X42931565Y-46808631D01*
X42984850Y-46855549D01*
X43004311Y-46923826D01*
X42983769Y-46991786D01*
X42963030Y-47015271D01*
X42963441Y-47015719D01*
X42961446Y-47017549D01*
X42959350Y-47019311D01*
X42957409Y-47021252D01*
X42955778Y-47022748D01*
X42955346Y-47022981D01*
X42955313Y-47022945D01*
X42955155Y-47023084D01*
X42949720Y-47026017D01*
X42942651Y-47033664D01*
X42915655Y-47062868D01*
X42912227Y-47066434D01*
X42419596Y-47559066D01*
X42357283Y-47593091D01*
X42286468Y-47588027D01*
X42229632Y-47545480D01*
X42204821Y-47478960D01*
X42204500Y-47469971D01*
X42204500Y-46456162D01*
X42224502Y-46388041D01*
X42278158Y-46341548D01*
X42348432Y-46331444D01*
X42380961Y-46345527D01*
X42391753Y-46346644D01*
X42407335Y-46338454D01*
X43445000Y-45300790D01*
X44124178Y-44621611D01*
X44130606Y-44609839D01*
X44121310Y-44597824D01*
X44080912Y-44569536D01*
X44071416Y-44564053D01*
X43881887Y-44475674D01*
X43871595Y-44471928D01*
X43669599Y-44417804D01*
X43658804Y-44415901D01*
X43450475Y-44397674D01*
X43439525Y-44397674D01*
X43231196Y-44415901D01*
X43220401Y-44417804D01*
X43018405Y-44471928D01*
X43008113Y-44475674D01*
X42873553Y-44538421D01*
X42803362Y-44549082D01*
X42738549Y-44520102D01*
X42699692Y-44460683D01*
X42699129Y-44389688D01*
X42731208Y-44335131D01*
X42971584Y-44094755D01*
X43033896Y-44060729D01*
X43099615Y-44064017D01*
X43200540Y-44096809D01*
X43228255Y-44105814D01*
X43423862Y-44129139D01*
X43429997Y-44128667D01*
X43429999Y-44128667D01*
X43489801Y-44124065D01*
X43620274Y-44114026D01*
X43810009Y-44061050D01*
X43815513Y-44058270D01*
X43980341Y-43975010D01*
X43980343Y-43975009D01*
X43985842Y-43972231D01*
X44141074Y-43850950D01*
X44145100Y-43846286D01*
X44145103Y-43846283D01*
X44265764Y-43706496D01*
X44265765Y-43706494D01*
X44269793Y-43701828D01*
X44367096Y-43530544D01*
X44429277Y-43343622D01*
X44434493Y-43302332D01*
X44462875Y-43237256D01*
X44521935Y-43197854D01*
X44592921Y-43196637D01*
X44653296Y-43233992D01*
G37*
G04 #@! TD.AperFunction*
G04 #@! TA.AperFunction,Conductor*
G36*
X69787784Y-51300383D02*
G01*
X69855895Y-51320418D01*
X69904132Y-51378165D01*
X69907845Y-51387128D01*
X69910266Y-51399301D01*
X69917161Y-51409620D01*
X69929013Y-51427358D01*
X69966516Y-51483484D01*
X70050699Y-51539734D01*
X70150000Y-51559486D01*
X70162897Y-51556921D01*
X70187476Y-51554500D01*
X110309500Y-51554500D01*
X110377621Y-51574502D01*
X110424114Y-51628158D01*
X110435500Y-51680500D01*
X110435500Y-74699971D01*
X110415498Y-74768092D01*
X110361842Y-74814585D01*
X110291568Y-74824689D01*
X110226988Y-74795195D01*
X110220405Y-74789066D01*
X106826918Y-71395580D01*
X106814413Y-71380098D01*
X106811477Y-71376871D01*
X106805825Y-71368118D01*
X106781562Y-71348991D01*
X106777567Y-71345441D01*
X106777483Y-71345540D01*
X106773520Y-71342182D01*
X106769844Y-71338506D01*
X106765614Y-71335483D01*
X106755348Y-71328146D01*
X106750605Y-71324585D01*
X106721325Y-71301503D01*
X106721321Y-71301501D01*
X106713143Y-71295054D01*
X106705075Y-71292221D01*
X106698115Y-71287247D01*
X106652414Y-71273580D01*
X106646765Y-71271744D01*
X106609269Y-71258576D01*
X106609270Y-71258576D01*
X106601792Y-71255950D01*
X106596596Y-71255500D01*
X106593891Y-71255500D01*
X106591635Y-71255403D01*
X106591159Y-71255260D01*
X106591161Y-71255214D01*
X106590962Y-71255201D01*
X106585045Y-71253432D01*
X106535411Y-71255382D01*
X106534876Y-71255403D01*
X106529930Y-71255500D01*
X99069029Y-71255500D01*
X99000908Y-71235498D01*
X98979934Y-71218595D01*
X95686918Y-67925580D01*
X95674413Y-67910098D01*
X95671477Y-67906871D01*
X95665825Y-67898118D01*
X95641562Y-67878991D01*
X95637567Y-67875441D01*
X95637483Y-67875540D01*
X95633520Y-67872182D01*
X95629844Y-67868506D01*
X95625614Y-67865483D01*
X95615348Y-67858146D01*
X95610605Y-67854585D01*
X95581325Y-67831503D01*
X95581321Y-67831501D01*
X95573143Y-67825054D01*
X95565075Y-67822221D01*
X95558115Y-67817247D01*
X95548137Y-67814263D01*
X95512414Y-67803580D01*
X95506765Y-67801744D01*
X95477692Y-67791534D01*
X95461792Y-67785950D01*
X95456596Y-67785500D01*
X95453891Y-67785500D01*
X95451635Y-67785403D01*
X95451159Y-67785260D01*
X95451161Y-67785214D01*
X95450962Y-67785201D01*
X95445045Y-67783432D01*
X95395411Y-67785382D01*
X95394876Y-67785403D01*
X95389930Y-67785500D01*
X85509029Y-67785500D01*
X85440908Y-67765498D01*
X85419934Y-67748595D01*
X84957246Y-67285907D01*
X99215738Y-67285907D01*
X99216254Y-67292051D01*
X99225272Y-67399440D01*
X99232222Y-67482209D01*
X99286521Y-67671570D01*
X99330639Y-67757415D01*
X99366922Y-67828013D01*
X99376566Y-67846779D01*
X99380389Y-67851603D01*
X99380392Y-67851607D01*
X99464800Y-67958103D01*
X99498927Y-68001160D01*
X99503620Y-68005154D01*
X99503621Y-68005155D01*
X99528447Y-68026283D01*
X99648945Y-68128835D01*
X99654323Y-68131841D01*
X99654325Y-68131842D01*
X99815524Y-68221933D01*
X99820904Y-68224940D01*
X100008255Y-68285814D01*
X100203862Y-68309139D01*
X100209997Y-68308667D01*
X100209999Y-68308667D01*
X100269801Y-68304065D01*
X100400274Y-68294026D01*
X100590009Y-68241050D01*
X100600791Y-68235604D01*
X100676937Y-68197140D01*
X100702690Y-68184131D01*
X100772512Y-68171271D01*
X100838203Y-68198200D01*
X100878906Y-68256370D01*
X100885500Y-68296597D01*
X100885500Y-69082524D01*
X100883079Y-69107103D01*
X100880514Y-69120000D01*
X100900266Y-69219301D01*
X100956516Y-69303484D01*
X101040699Y-69359734D01*
X101083417Y-69368231D01*
X101140000Y-69379486D01*
X101152897Y-69376921D01*
X101177476Y-69374500D01*
X106892524Y-69374500D01*
X106917103Y-69376921D01*
X106930000Y-69379486D01*
X106942171Y-69377065D01*
X106986584Y-69368231D01*
X107029301Y-69359734D01*
X107113484Y-69303484D01*
X107169734Y-69219301D01*
X107189486Y-69120000D01*
X107186921Y-69107103D01*
X107184500Y-69082524D01*
X107184500Y-68296402D01*
X107204502Y-68228281D01*
X107258158Y-68181788D01*
X107328432Y-68171684D01*
X107371970Y-68186414D01*
X107440904Y-68224940D01*
X107628255Y-68285814D01*
X107823862Y-68309139D01*
X107829997Y-68308667D01*
X107829999Y-68308667D01*
X107889801Y-68304065D01*
X108020274Y-68294026D01*
X108210009Y-68241050D01*
X108215513Y-68238270D01*
X108380341Y-68155010D01*
X108380343Y-68155009D01*
X108385842Y-68152231D01*
X108541074Y-68030950D01*
X108545100Y-68026286D01*
X108545103Y-68026283D01*
X108665764Y-67886496D01*
X108665765Y-67886494D01*
X108669793Y-67881828D01*
X108767096Y-67710544D01*
X108829277Y-67523622D01*
X108853966Y-67328183D01*
X108854360Y-67300000D01*
X108835137Y-67103948D01*
X108778200Y-66915363D01*
X108768418Y-66896966D01*
X108688611Y-66746871D01*
X108688609Y-66746868D01*
X108685717Y-66741429D01*
X108561212Y-66588770D01*
X108486819Y-66527227D01*
X108414177Y-66467132D01*
X108414174Y-66467130D01*
X108409427Y-66463203D01*
X108236143Y-66369508D01*
X108047960Y-66311256D01*
X108041835Y-66310612D01*
X108041834Y-66310612D01*
X107858176Y-66291309D01*
X107858174Y-66291309D01*
X107852047Y-66290665D01*
X107770018Y-66298130D01*
X107662004Y-66307960D01*
X107662001Y-66307961D01*
X107655865Y-66308519D01*
X107649959Y-66310257D01*
X107649955Y-66310258D01*
X107529850Y-66345607D01*
X107466887Y-66364138D01*
X107461424Y-66366994D01*
X107368876Y-66415377D01*
X107299240Y-66429212D01*
X107233179Y-66403202D01*
X107191667Y-66345607D01*
X107184500Y-66303716D01*
X107184500Y-65756402D01*
X107204502Y-65688281D01*
X107258158Y-65641788D01*
X107328432Y-65631684D01*
X107371970Y-65646414D01*
X107440904Y-65684940D01*
X107628255Y-65745814D01*
X107823862Y-65769139D01*
X107829997Y-65768667D01*
X107829999Y-65768667D01*
X107889801Y-65764065D01*
X108020274Y-65754026D01*
X108210009Y-65701050D01*
X108235288Y-65688281D01*
X108380341Y-65615010D01*
X108380343Y-65615009D01*
X108385842Y-65612231D01*
X108541074Y-65490950D01*
X108545100Y-65486286D01*
X108545103Y-65486283D01*
X108665764Y-65346496D01*
X108665765Y-65346494D01*
X108669793Y-65341828D01*
X108767096Y-65170544D01*
X108829277Y-64983622D01*
X108853966Y-64788183D01*
X108854360Y-64760000D01*
X108835137Y-64563948D01*
X108778200Y-64375363D01*
X108685717Y-64201429D01*
X108561212Y-64048770D01*
X108495894Y-63994734D01*
X108414177Y-63927132D01*
X108414174Y-63927130D01*
X108409427Y-63923203D01*
X108236143Y-63829508D01*
X108047960Y-63771256D01*
X108041835Y-63770612D01*
X108041834Y-63770612D01*
X107858176Y-63751309D01*
X107858174Y-63751309D01*
X107852047Y-63750665D01*
X107770018Y-63758130D01*
X107662004Y-63767960D01*
X107662001Y-63767961D01*
X107655865Y-63768519D01*
X107649959Y-63770257D01*
X107649955Y-63770258D01*
X107529850Y-63805607D01*
X107466887Y-63824138D01*
X107461424Y-63826994D01*
X107368876Y-63875377D01*
X107299240Y-63889212D01*
X107233179Y-63863202D01*
X107191667Y-63805607D01*
X107184500Y-63763716D01*
X107184500Y-63216402D01*
X107204502Y-63148281D01*
X107258158Y-63101788D01*
X107328432Y-63091684D01*
X107371970Y-63106414D01*
X107440904Y-63144940D01*
X107628255Y-63205814D01*
X107823862Y-63229139D01*
X107829997Y-63228667D01*
X107829999Y-63228667D01*
X107889801Y-63224065D01*
X108020274Y-63214026D01*
X108210009Y-63161050D01*
X108235288Y-63148281D01*
X108380341Y-63075010D01*
X108380343Y-63075009D01*
X108385842Y-63072231D01*
X108541074Y-62950950D01*
X108545100Y-62946286D01*
X108545103Y-62946283D01*
X108665764Y-62806496D01*
X108665765Y-62806494D01*
X108669793Y-62801828D01*
X108767096Y-62630544D01*
X108829277Y-62443622D01*
X108853966Y-62248183D01*
X108854251Y-62227806D01*
X108854311Y-62223522D01*
X108854311Y-62223518D01*
X108854360Y-62220000D01*
X108835137Y-62023948D01*
X108778200Y-61835363D01*
X108768418Y-61816966D01*
X108688611Y-61666871D01*
X108688609Y-61666868D01*
X108685717Y-61661429D01*
X108561212Y-61508770D01*
X108495893Y-61454734D01*
X108414177Y-61387132D01*
X108414174Y-61387130D01*
X108409427Y-61383203D01*
X108236143Y-61289508D01*
X108047960Y-61231256D01*
X108041835Y-61230612D01*
X108041834Y-61230612D01*
X107858176Y-61211309D01*
X107858174Y-61211309D01*
X107852047Y-61210665D01*
X107770018Y-61218130D01*
X107662004Y-61227960D01*
X107662001Y-61227961D01*
X107655865Y-61228519D01*
X107649959Y-61230257D01*
X107649955Y-61230258D01*
X107529850Y-61265607D01*
X107466887Y-61284138D01*
X107461424Y-61286994D01*
X107368876Y-61335377D01*
X107299240Y-61349212D01*
X107233179Y-61323202D01*
X107191667Y-61265607D01*
X107184500Y-61223716D01*
X107184500Y-60676402D01*
X107204502Y-60608281D01*
X107258158Y-60561788D01*
X107328432Y-60551684D01*
X107371970Y-60566414D01*
X107440904Y-60604940D01*
X107628255Y-60665814D01*
X107823862Y-60689139D01*
X107829997Y-60688667D01*
X107829999Y-60688667D01*
X107889801Y-60684065D01*
X108020274Y-60674026D01*
X108210009Y-60621050D01*
X108215513Y-60618270D01*
X108380341Y-60535010D01*
X108380343Y-60535009D01*
X108385842Y-60532231D01*
X108541074Y-60410950D01*
X108545100Y-60406286D01*
X108545103Y-60406283D01*
X108665764Y-60266496D01*
X108665765Y-60266494D01*
X108669793Y-60261828D01*
X108767096Y-60090544D01*
X108829277Y-59903622D01*
X108853966Y-59708183D01*
X108854360Y-59680000D01*
X108835137Y-59483948D01*
X108778200Y-59295363D01*
X108685717Y-59121429D01*
X108561212Y-58968770D01*
X108495894Y-58914734D01*
X108414177Y-58847132D01*
X108414174Y-58847130D01*
X108409427Y-58843203D01*
X108236143Y-58749508D01*
X108047960Y-58691256D01*
X108041835Y-58690612D01*
X108041834Y-58690612D01*
X107858176Y-58671309D01*
X107858174Y-58671309D01*
X107852047Y-58670665D01*
X107770018Y-58678130D01*
X107662004Y-58687960D01*
X107662001Y-58687961D01*
X107655865Y-58688519D01*
X107649959Y-58690257D01*
X107649955Y-58690258D01*
X107529850Y-58725607D01*
X107466887Y-58744138D01*
X107461424Y-58746994D01*
X107368876Y-58795377D01*
X107299240Y-58809212D01*
X107233179Y-58783202D01*
X107191667Y-58725607D01*
X107184500Y-58683716D01*
X107184500Y-58136402D01*
X107204502Y-58068281D01*
X107258158Y-58021788D01*
X107328432Y-58011684D01*
X107371970Y-58026414D01*
X107440904Y-58064940D01*
X107628255Y-58125814D01*
X107823862Y-58149139D01*
X107829997Y-58148667D01*
X107829999Y-58148667D01*
X107889801Y-58144065D01*
X108020274Y-58134026D01*
X108210009Y-58081050D01*
X108235288Y-58068281D01*
X108380341Y-57995010D01*
X108380343Y-57995009D01*
X108385842Y-57992231D01*
X108541074Y-57870950D01*
X108545100Y-57866286D01*
X108545103Y-57866283D01*
X108665764Y-57726496D01*
X108665765Y-57726494D01*
X108669793Y-57721828D01*
X108767096Y-57550544D01*
X108829277Y-57363622D01*
X108853966Y-57168183D01*
X108854360Y-57140000D01*
X108835137Y-56943948D01*
X108778200Y-56755363D01*
X108685717Y-56581429D01*
X108561212Y-56428770D01*
X108495894Y-56374734D01*
X108414177Y-56307132D01*
X108414174Y-56307130D01*
X108409427Y-56303203D01*
X108236143Y-56209508D01*
X108047960Y-56151256D01*
X108041835Y-56150612D01*
X108041834Y-56150612D01*
X107858176Y-56131309D01*
X107858174Y-56131309D01*
X107852047Y-56130665D01*
X107770018Y-56138130D01*
X107662004Y-56147960D01*
X107662001Y-56147961D01*
X107655865Y-56148519D01*
X107649959Y-56150257D01*
X107649955Y-56150258D01*
X107529850Y-56185607D01*
X107466887Y-56204138D01*
X107461424Y-56206994D01*
X107368876Y-56255377D01*
X107299240Y-56269212D01*
X107233179Y-56243202D01*
X107191667Y-56185607D01*
X107184500Y-56143716D01*
X107184500Y-55357476D01*
X107186921Y-55332894D01*
X107187065Y-55332170D01*
X107189486Y-55320000D01*
X107169734Y-55220699D01*
X107113484Y-55136516D01*
X107029301Y-55080266D01*
X106955067Y-55065500D01*
X106953700Y-55065228D01*
X106942172Y-55062935D01*
X106930000Y-55060514D01*
X106917103Y-55063079D01*
X106892524Y-55065500D01*
X101177476Y-55065500D01*
X101152897Y-55063079D01*
X101140000Y-55060514D01*
X101127828Y-55062935D01*
X101116300Y-55065228D01*
X101114933Y-55065500D01*
X101040699Y-55080266D01*
X100956516Y-55136516D01*
X100900266Y-55220699D01*
X100880514Y-55320000D01*
X100882935Y-55332170D01*
X100883079Y-55332894D01*
X100885500Y-55357476D01*
X100885500Y-56143782D01*
X100865498Y-56211903D01*
X100811842Y-56258396D01*
X100741568Y-56268500D01*
X100699571Y-56254617D01*
X100621569Y-56212441D01*
X100621562Y-56212438D01*
X100616143Y-56209508D01*
X100427960Y-56151256D01*
X100421835Y-56150612D01*
X100421834Y-56150612D01*
X100238176Y-56131309D01*
X100238174Y-56131309D01*
X100232047Y-56130665D01*
X100150018Y-56138130D01*
X100042004Y-56147960D01*
X100042001Y-56147961D01*
X100035865Y-56148519D01*
X100029959Y-56150257D01*
X100029955Y-56150258D01*
X99909850Y-56185607D01*
X99846887Y-56204138D01*
X99841427Y-56206992D01*
X99841428Y-56206992D01*
X99677772Y-56292549D01*
X99677768Y-56292552D01*
X99672312Y-56295404D01*
X99518788Y-56418840D01*
X99392163Y-56569745D01*
X99297262Y-56742371D01*
X99295398Y-56748246D01*
X99295397Y-56748249D01*
X99291269Y-56761263D01*
X99237697Y-56930142D01*
X99215738Y-57125907D01*
X99232222Y-57322209D01*
X99286521Y-57511570D01*
X99376566Y-57686779D01*
X99380389Y-57691603D01*
X99380392Y-57691607D01*
X99408045Y-57726496D01*
X99498927Y-57841160D01*
X99503620Y-57845154D01*
X99503621Y-57845155D01*
X99528447Y-57866283D01*
X99648945Y-57968835D01*
X99654323Y-57971841D01*
X99654325Y-57971842D01*
X99815524Y-58061933D01*
X99820904Y-58064940D01*
X100008255Y-58125814D01*
X100203862Y-58149139D01*
X100209997Y-58148667D01*
X100209999Y-58148667D01*
X100269801Y-58144065D01*
X100400274Y-58134026D01*
X100590009Y-58081050D01*
X100618133Y-58066844D01*
X100674838Y-58038200D01*
X100702690Y-58024131D01*
X100772512Y-58011271D01*
X100838203Y-58038200D01*
X100878906Y-58096370D01*
X100885500Y-58136597D01*
X100885500Y-58683782D01*
X100865498Y-58751903D01*
X100811842Y-58798396D01*
X100741568Y-58808500D01*
X100699571Y-58794617D01*
X100621569Y-58752441D01*
X100621562Y-58752438D01*
X100616143Y-58749508D01*
X100427960Y-58691256D01*
X100421835Y-58690612D01*
X100421834Y-58690612D01*
X100238176Y-58671309D01*
X100238174Y-58671309D01*
X100232047Y-58670665D01*
X100150018Y-58678130D01*
X100042004Y-58687960D01*
X100042001Y-58687961D01*
X100035865Y-58688519D01*
X100029959Y-58690257D01*
X100029955Y-58690258D01*
X99909850Y-58725607D01*
X99846887Y-58744138D01*
X99841427Y-58746992D01*
X99841428Y-58746992D01*
X99677772Y-58832549D01*
X99677768Y-58832552D01*
X99672312Y-58835404D01*
X99518788Y-58958840D01*
X99392163Y-59109745D01*
X99297262Y-59282371D01*
X99295398Y-59288246D01*
X99295397Y-59288249D01*
X99291269Y-59301263D01*
X99237697Y-59470142D01*
X99215738Y-59665907D01*
X99216254Y-59672051D01*
X99226534Y-59794469D01*
X99232222Y-59862209D01*
X99286521Y-60051570D01*
X99376566Y-60226779D01*
X99380389Y-60231603D01*
X99380392Y-60231607D01*
X99434600Y-60300000D01*
X99498927Y-60381160D01*
X99503620Y-60385154D01*
X99503621Y-60385155D01*
X99528447Y-60406283D01*
X99648945Y-60508835D01*
X99654323Y-60511841D01*
X99654325Y-60511842D01*
X99815524Y-60601933D01*
X99820904Y-60604940D01*
X100008255Y-60665814D01*
X100203862Y-60689139D01*
X100209997Y-60688667D01*
X100209999Y-60688667D01*
X100269801Y-60684065D01*
X100400274Y-60674026D01*
X100590009Y-60621050D01*
X100610828Y-60610534D01*
X100674838Y-60578200D01*
X100702690Y-60564131D01*
X100772512Y-60551271D01*
X100838203Y-60578200D01*
X100878906Y-60636370D01*
X100885500Y-60676597D01*
X100885500Y-61223782D01*
X100865498Y-61291903D01*
X100811842Y-61338396D01*
X100741568Y-61348500D01*
X100699571Y-61334617D01*
X100621569Y-61292441D01*
X100621562Y-61292438D01*
X100616143Y-61289508D01*
X100427960Y-61231256D01*
X100421835Y-61230612D01*
X100421834Y-61230612D01*
X100238176Y-61211309D01*
X100238174Y-61211309D01*
X100232047Y-61210665D01*
X100150018Y-61218130D01*
X100042004Y-61227960D01*
X100042001Y-61227961D01*
X100035865Y-61228519D01*
X100029959Y-61230257D01*
X100029955Y-61230258D01*
X99909850Y-61265607D01*
X99846887Y-61284138D01*
X99841427Y-61286992D01*
X99841428Y-61286992D01*
X99677772Y-61372549D01*
X99677768Y-61372552D01*
X99672312Y-61375404D01*
X99518788Y-61498840D01*
X99392163Y-61649745D01*
X99385740Y-61661429D01*
X99324530Y-61772771D01*
X99297262Y-61822371D01*
X99295398Y-61828246D01*
X99295397Y-61828249D01*
X99279269Y-61879092D01*
X99237697Y-62010142D01*
X99215738Y-62205907D01*
X99216254Y-62212051D01*
X99229285Y-62367229D01*
X99232222Y-62402209D01*
X99286521Y-62591570D01*
X99376566Y-62766779D01*
X99380389Y-62771603D01*
X99380392Y-62771607D01*
X99408045Y-62806496D01*
X99498927Y-62921160D01*
X99503620Y-62925154D01*
X99503621Y-62925155D01*
X99528447Y-62946283D01*
X99648945Y-63048835D01*
X99654323Y-63051841D01*
X99654325Y-63051842D01*
X99815524Y-63141933D01*
X99820904Y-63144940D01*
X100008255Y-63205814D01*
X100203862Y-63229139D01*
X100209997Y-63228667D01*
X100209999Y-63228667D01*
X100269801Y-63224065D01*
X100400274Y-63214026D01*
X100590009Y-63161050D01*
X100618133Y-63146844D01*
X100674838Y-63118200D01*
X100702690Y-63104131D01*
X100772512Y-63091271D01*
X100838203Y-63118200D01*
X100878906Y-63176370D01*
X100885500Y-63216597D01*
X100885500Y-63763782D01*
X100865498Y-63831903D01*
X100811842Y-63878396D01*
X100741568Y-63888500D01*
X100699571Y-63874617D01*
X100621569Y-63832441D01*
X100621562Y-63832438D01*
X100616143Y-63829508D01*
X100427960Y-63771256D01*
X100421835Y-63770612D01*
X100421834Y-63770612D01*
X100238176Y-63751309D01*
X100238174Y-63751309D01*
X100232047Y-63750665D01*
X100150018Y-63758130D01*
X100042004Y-63767960D01*
X100042001Y-63767961D01*
X100035865Y-63768519D01*
X100029959Y-63770257D01*
X100029955Y-63770258D01*
X99909850Y-63805607D01*
X99846887Y-63824138D01*
X99841427Y-63826992D01*
X99841428Y-63826992D01*
X99677772Y-63912549D01*
X99677768Y-63912552D01*
X99672312Y-63915404D01*
X99518788Y-64038840D01*
X99392163Y-64189745D01*
X99297262Y-64362371D01*
X99295398Y-64368246D01*
X99295397Y-64368249D01*
X99265310Y-64463096D01*
X99237697Y-64550142D01*
X99215738Y-64745907D01*
X99216254Y-64752051D01*
X99230311Y-64919449D01*
X99232222Y-64942209D01*
X99286521Y-65131570D01*
X99376566Y-65306779D01*
X99380389Y-65311603D01*
X99380392Y-65311607D01*
X99486752Y-65445799D01*
X99498927Y-65461160D01*
X99503620Y-65465154D01*
X99503621Y-65465155D01*
X99528447Y-65486283D01*
X99648945Y-65588835D01*
X99654323Y-65591841D01*
X99654325Y-65591842D01*
X99815524Y-65681933D01*
X99820904Y-65684940D01*
X100008255Y-65745814D01*
X100203862Y-65769139D01*
X100209997Y-65768667D01*
X100209999Y-65768667D01*
X100269801Y-65764065D01*
X100400274Y-65754026D01*
X100590009Y-65701050D01*
X100618133Y-65686844D01*
X100674838Y-65658200D01*
X100702690Y-65644131D01*
X100772512Y-65631271D01*
X100838203Y-65658200D01*
X100878906Y-65716370D01*
X100885500Y-65756597D01*
X100885500Y-66303782D01*
X100865498Y-66371903D01*
X100811842Y-66418396D01*
X100741568Y-66428500D01*
X100699571Y-66414617D01*
X100621569Y-66372441D01*
X100621562Y-66372438D01*
X100616143Y-66369508D01*
X100427960Y-66311256D01*
X100421835Y-66310612D01*
X100421834Y-66310612D01*
X100238176Y-66291309D01*
X100238174Y-66291309D01*
X100232047Y-66290665D01*
X100150018Y-66298130D01*
X100042004Y-66307960D01*
X100042001Y-66307961D01*
X100035865Y-66308519D01*
X100029959Y-66310257D01*
X100029955Y-66310258D01*
X99909850Y-66345607D01*
X99846887Y-66364138D01*
X99841427Y-66366992D01*
X99841428Y-66366992D01*
X99677772Y-66452549D01*
X99677768Y-66452552D01*
X99672312Y-66455404D01*
X99518788Y-66578840D01*
X99392163Y-66729745D01*
X99376613Y-66758030D01*
X99331707Y-66839716D01*
X99297262Y-66902371D01*
X99295398Y-66908246D01*
X99295397Y-66908249D01*
X99291269Y-66921263D01*
X99237697Y-67090142D01*
X99215738Y-67285907D01*
X84957246Y-67285907D01*
X69236405Y-51565067D01*
X69202379Y-51502755D01*
X69199500Y-51475972D01*
X69199500Y-51426161D01*
X69219502Y-51358040D01*
X69273158Y-51311547D01*
X69325561Y-51300161D01*
X69787784Y-51300383D01*
G37*
G04 #@! TD.AperFunction*
M02*
