G04 #@! TF.GenerationSoftware,KiCad,Pcbnew,5.1.2+dfsg1-1*
G04 #@! TF.CreationDate,2019-07-31T23:39:42+03:00*
G04 #@! TF.ProjectId,cps1_adapter,63707331-5f61-4646-9170-7465722e6b69,rev?*
G04 #@! TF.SameCoordinates,Original*
G04 #@! TF.FileFunction,Copper,L1,Top*
G04 #@! TF.FilePolarity,Positive*
%FSLAX46Y46*%
G04 Gerber Fmt 4.6, Leading zero omitted, Abs format (unit mm)*
G04 Created by KiCad (PCBNEW 5.1.2+dfsg1-1) date 2019-07-31 23:39:42*
%MOMM*%
%LPD*%
G04 APERTURE LIST*
%ADD10R,1.750000X0.450000*%
%ADD11R,1.500000X0.450000*%
%ADD12C,1.500000*%
%ADD13R,0.635000X1.143000*%
%ADD14R,1.143000X0.635000*%
%ADD15R,3.000000X1.500000*%
%ADD16R,1.500000X3.000000*%
%ADD17C,0.660000*%
%ADD18C,0.500000*%
%ADD19C,0.200000*%
%ADD20C,0.400000*%
%ADD21C,0.300000*%
%ADD22C,0.700000*%
%ADD23C,0.254000*%
G04 APERTURE END LIST*
D10*
X49750000Y-68755000D03*
X49750000Y-69405000D03*
X49750000Y-70055000D03*
X49750000Y-70705000D03*
X49750000Y-71355000D03*
X49750000Y-72005000D03*
X49750000Y-72655000D03*
X49750000Y-73305000D03*
X49750000Y-73955000D03*
X49750000Y-74605000D03*
X56950000Y-74605000D03*
X56950000Y-73955000D03*
X56950000Y-73305000D03*
X56950000Y-72655000D03*
X56950000Y-72005000D03*
X56950000Y-71355000D03*
X56950000Y-70705000D03*
X56950000Y-70055000D03*
X56950000Y-69405000D03*
X56950000Y-68755000D03*
D11*
X49440000Y-57005000D03*
X49440000Y-57655000D03*
X49440000Y-58305000D03*
X49440000Y-58955000D03*
X49440000Y-59605000D03*
X49440000Y-60255000D03*
X49440000Y-60905000D03*
X49440000Y-61555000D03*
X55340000Y-61555000D03*
X55340000Y-60905000D03*
X55340000Y-60255000D03*
X55340000Y-59605000D03*
X55340000Y-58955000D03*
X55340000Y-58305000D03*
X55340000Y-57655000D03*
X55340000Y-57005000D03*
D12*
X43445000Y-35500000D03*
X51065000Y-45660000D03*
X43445000Y-38040000D03*
X51065000Y-43120000D03*
X43445000Y-40580000D03*
X51065000Y-40580000D03*
X43445000Y-43120000D03*
X51065000Y-38040000D03*
X43445000Y-45660000D03*
X51065000Y-35500000D03*
X107845000Y-57140000D03*
X100225000Y-67300000D03*
X107845000Y-59680000D03*
X100225000Y-64760000D03*
X107845000Y-62220000D03*
X100225000Y-62220000D03*
X107845000Y-64760000D03*
X100225000Y-59680000D03*
X107845000Y-67300000D03*
X100225000Y-57140000D03*
X82445000Y-80000000D03*
X90065000Y-90160000D03*
X82445000Y-82540000D03*
X90065000Y-87620000D03*
X82445000Y-85080000D03*
X90065000Y-85080000D03*
X82445000Y-87620000D03*
X90065000Y-82540000D03*
X82445000Y-90160000D03*
X90065000Y-80000000D03*
X107845000Y-80000000D03*
X100225000Y-90160000D03*
X107845000Y-82540000D03*
X100225000Y-87620000D03*
X107845000Y-85080000D03*
X100225000Y-85080000D03*
X107845000Y-87620000D03*
X100225000Y-82540000D03*
X107845000Y-90160000D03*
X100225000Y-80000000D03*
X61225000Y-35500000D03*
X68845000Y-45660000D03*
X61225000Y-38040000D03*
X68845000Y-43120000D03*
X61225000Y-40580000D03*
X68845000Y-40580000D03*
X61225000Y-43120000D03*
X68845000Y-38040000D03*
X61225000Y-45660000D03*
X68845000Y-35500000D03*
D13*
X51852000Y-64900000D03*
X50328000Y-64900000D03*
X45588000Y-74610000D03*
X47112000Y-74610000D03*
X47122000Y-72980000D03*
X45598000Y-72980000D03*
D14*
X57410000Y-76748000D03*
X57410000Y-78272000D03*
D13*
X55938000Y-66530000D03*
X57462000Y-66530000D03*
X57452000Y-64900000D03*
X55928000Y-64900000D03*
D14*
X61400000Y-72098000D03*
X61400000Y-73622000D03*
X55780000Y-76748000D03*
X55780000Y-78272000D03*
X58230000Y-58652000D03*
X58230000Y-57128000D03*
D13*
X51852000Y-66530000D03*
X50328000Y-66530000D03*
X53138000Y-66540000D03*
X54662000Y-66540000D03*
D14*
X47310000Y-68242000D03*
X47310000Y-66718000D03*
X45690000Y-68242000D03*
X45690000Y-66718000D03*
D15*
X42200000Y-66780000D03*
X42200000Y-68790000D03*
X83180000Y-57330000D03*
X83180000Y-59390000D03*
D16*
X91900000Y-58080000D03*
X95410000Y-58080000D03*
D15*
X42200000Y-76310000D03*
X42200000Y-74310000D03*
D17*
X45300000Y-69540000D03*
X45300000Y-71540000D03*
X45300000Y-64010000D03*
X45840000Y-61460000D03*
X55440000Y-71730000D03*
X52940000Y-74130000D03*
X50990000Y-62370000D03*
X52980000Y-59500000D03*
X53330000Y-55320000D03*
X59540000Y-74320000D03*
X59540000Y-72970000D03*
X59580000Y-71820000D03*
X51800000Y-55310000D03*
X50330000Y-55320000D03*
X52990000Y-57230000D03*
X47470000Y-58730000D03*
X45440000Y-58360000D03*
X63370000Y-70790000D03*
X63360000Y-72150000D03*
X63370000Y-73850000D03*
X43840000Y-55320000D03*
X42560000Y-78700000D03*
X42130000Y-73230000D03*
X44320000Y-80510000D03*
X45950000Y-82040000D03*
X47410000Y-83560000D03*
X49050000Y-85140000D03*
X50660000Y-86630000D03*
X53510000Y-86630000D03*
X60330000Y-86630000D03*
X63110000Y-86630000D03*
X60310000Y-83830000D03*
X63090000Y-83910000D03*
X63080000Y-80020000D03*
X66280000Y-80060000D03*
X68970000Y-80120000D03*
X68970000Y-83800000D03*
X71660000Y-83820000D03*
X68950000Y-86490000D03*
X71690000Y-86490000D03*
X68850000Y-89160000D03*
X71660000Y-89220000D03*
X60850000Y-64800000D03*
X62740000Y-66710000D03*
X64640000Y-68740000D03*
X66450000Y-70600000D03*
X77330000Y-70600000D03*
X75340000Y-68470000D03*
X73700000Y-66740000D03*
X95620000Y-88430000D03*
X95600000Y-85600000D03*
X95710000Y-76000000D03*
X93440000Y-73720000D03*
X91030000Y-71230000D03*
X53600000Y-62350000D03*
X78220000Y-65000000D03*
X80200000Y-66910000D03*
X71995000Y-65015000D03*
X58760000Y-62340000D03*
X81520000Y-68230000D03*
X83750000Y-70420000D03*
X91160000Y-66770000D03*
X96880000Y-55430000D03*
X88390000Y-59690000D03*
X79210000Y-58380000D03*
X71680000Y-58400000D03*
X66370000Y-57750000D03*
X64300000Y-57750000D03*
X69700000Y-56450000D03*
X66870000Y-60340000D03*
X68740000Y-60340000D03*
X69730000Y-62550000D03*
X76000000Y-62550000D03*
X73610000Y-60340000D03*
X79170000Y-56550000D03*
X75980000Y-56480000D03*
X47890000Y-69320000D03*
X55200000Y-55360000D03*
X54140000Y-74830000D03*
X60610000Y-60590000D03*
X51350000Y-74130000D03*
X53060000Y-68380000D03*
X55610000Y-70700000D03*
X54190000Y-67910000D03*
X46810000Y-70220000D03*
X47500000Y-60300000D03*
D18*
X45288000Y-74310000D02*
X45588000Y-74610000D01*
X42200000Y-74310000D02*
X45288000Y-74310000D01*
X45588000Y-72990000D02*
X45598000Y-72980000D01*
X45588000Y-74610000D02*
X45588000Y-72990000D01*
X45588000Y-74864000D02*
X45590000Y-74866000D01*
X45588000Y-74610000D02*
X45588000Y-74864000D01*
D19*
X42200000Y-68790000D02*
X44550000Y-68790000D01*
X44550000Y-68790000D02*
X45300000Y-69540000D01*
X45300000Y-72682000D02*
X45598000Y-72980000D01*
X45300000Y-71540000D02*
X45300000Y-72682000D01*
X45857611Y-70870025D02*
X46830025Y-70870025D01*
X45300000Y-71540000D02*
X45300000Y-71427636D01*
X45300000Y-71427636D02*
X45857611Y-70870025D01*
X46830025Y-70870025D02*
X47100000Y-71140000D01*
X47100000Y-71140000D02*
X48190000Y-71140000D01*
X48625000Y-70705000D02*
X49750000Y-70705000D01*
X48190000Y-71140000D02*
X48625000Y-70705000D01*
D20*
X51025000Y-70705000D02*
X51410000Y-70320000D01*
X49750000Y-70705000D02*
X51025000Y-70705000D01*
X51410000Y-70320000D02*
X51410000Y-68440000D01*
X49688000Y-66718000D02*
X47310000Y-66718000D01*
X51410000Y-68440000D02*
X49688000Y-66718000D01*
X57141500Y-58305000D02*
X55340000Y-58305000D01*
X58460000Y-58652000D02*
X57488500Y-58652000D01*
X57488500Y-58652000D02*
X57141500Y-58305000D01*
X58157000Y-58955000D02*
X58460000Y-58652000D01*
X57160000Y-59605000D02*
X57810000Y-58955000D01*
X55340000Y-59605000D02*
X57160000Y-59605000D01*
X55340000Y-58955000D02*
X57810000Y-58955000D01*
X57810000Y-58955000D02*
X58157000Y-58955000D01*
X55340000Y-60255000D02*
X57165000Y-60255000D01*
X58206000Y-58652000D02*
X58460000Y-58652000D01*
X57165000Y-59693000D02*
X58206000Y-58652000D01*
X57165000Y-60255000D02*
X57165000Y-59693000D01*
X51645000Y-73305000D02*
X49750000Y-73305000D01*
X45588000Y-75581500D02*
X46076500Y-76070000D01*
X46076500Y-76070000D02*
X51630000Y-76070000D01*
X51630000Y-76070000D02*
X52160000Y-75540000D01*
X45588000Y-74610000D02*
X45588000Y-75581500D01*
X52160000Y-73820000D02*
X51645000Y-73305000D01*
X49876000Y-66530000D02*
X49688000Y-66718000D01*
X50328000Y-66530000D02*
X49876000Y-66530000D01*
X50328000Y-66530000D02*
X50328000Y-64900000D01*
X45300000Y-64010000D02*
X47380000Y-66090000D01*
X47380000Y-66648000D02*
X47310000Y-66718000D01*
X47380000Y-66090000D02*
X47380000Y-66648000D01*
D19*
X45840000Y-61460000D02*
X47360000Y-61460000D01*
X47455000Y-61555000D02*
X49440000Y-61555000D01*
X47360000Y-61460000D02*
X47455000Y-61555000D01*
D20*
X55675000Y-72655000D02*
X54880000Y-71860000D01*
X56950000Y-72655000D02*
X55675000Y-72655000D01*
X54880000Y-71860000D02*
X54880000Y-69370000D01*
X55495000Y-68755000D02*
X56950000Y-68755000D01*
X54880000Y-69370000D02*
X55495000Y-68755000D01*
X56950000Y-68130000D02*
X57480000Y-67600000D01*
X56950000Y-68755000D02*
X56950000Y-68130000D01*
X57462000Y-67582000D02*
X57462000Y-66530000D01*
X57480000Y-67600000D02*
X57462000Y-67582000D01*
X54880000Y-71860000D02*
X55310000Y-71860000D01*
X55310000Y-71860000D02*
X55440000Y-71730000D01*
X52160000Y-74150000D02*
X52160000Y-73820000D01*
X52180000Y-74130000D02*
X52940000Y-74130000D01*
X52160000Y-74150000D02*
X52180000Y-74130000D01*
X55780000Y-78272000D02*
X57410000Y-78272000D01*
X57600000Y-74605000D02*
X56950000Y-74605000D01*
X58660000Y-75665000D02*
X57600000Y-74605000D01*
X57410000Y-78272000D02*
X58381500Y-78272000D01*
X58381500Y-78272000D02*
X58660000Y-77993500D01*
D18*
X54708500Y-78272000D02*
X52160000Y-75723500D01*
X55780000Y-78272000D02*
X54708500Y-78272000D01*
X52160000Y-75723500D02*
X52160000Y-75310000D01*
D20*
X52160000Y-75540000D02*
X52160000Y-75310000D01*
X52160000Y-75310000D02*
X52160000Y-74150000D01*
X58660000Y-76860000D02*
X59210000Y-76860000D01*
X58660000Y-76860000D02*
X58660000Y-75665000D01*
X58660000Y-77993500D02*
X58660000Y-76860000D01*
D18*
X57462000Y-64910000D02*
X57452000Y-64900000D01*
X57462000Y-66530000D02*
X57462000Y-64910000D01*
X57452000Y-64900000D02*
X57452000Y-64738000D01*
X58330000Y-58752000D02*
X58230000Y-58652000D01*
X58330000Y-60110000D02*
X58330000Y-58752000D01*
X46169999Y-61789999D02*
X45840000Y-61460000D01*
X50990000Y-62370000D02*
X50660001Y-62040001D01*
X49925001Y-62040001D02*
X49465001Y-61580001D01*
X50660001Y-62040001D02*
X49925001Y-62040001D01*
X49465001Y-61580001D02*
X49414999Y-61580001D01*
X49414999Y-61580001D02*
X49205001Y-61789999D01*
X49205001Y-61789999D02*
X46169999Y-61789999D01*
D20*
X54190000Y-58955000D02*
X53625000Y-59520000D01*
X55340000Y-58955000D02*
X54190000Y-58955000D01*
X53625000Y-59520000D02*
X53000000Y-59520000D01*
X53000000Y-59520000D02*
X52980000Y-59500000D01*
D21*
X59330000Y-76980000D02*
X59330000Y-75780000D01*
X59330000Y-75780000D02*
X59570000Y-75540000D01*
X59570000Y-75540000D02*
X59570000Y-75490000D01*
X59540000Y-74320000D02*
X59540000Y-72970000D01*
D18*
X51810000Y-55320000D02*
X51800000Y-55310000D01*
X53330000Y-55320000D02*
X51810000Y-55320000D01*
D20*
X59570000Y-74816690D02*
X59570000Y-75540000D01*
X59540000Y-74786690D02*
X59570000Y-74816690D01*
X59540000Y-74320000D02*
X59540000Y-74786690D01*
X61470000Y-69810000D02*
X58190000Y-66530000D01*
X58190000Y-66530000D02*
X57462000Y-66530000D01*
X63370000Y-70790000D02*
X62390000Y-69810000D01*
X62390000Y-69810000D02*
X61470000Y-69810000D01*
D18*
X63370000Y-70790000D02*
X63370000Y-72140000D01*
X63370000Y-72140000D02*
X63360000Y-72150000D01*
X42695001Y-46409999D02*
X42695001Y-52745001D01*
X43445000Y-45660000D02*
X42695001Y-46409999D01*
X100225000Y-90160000D02*
X97850000Y-90160000D01*
X94850000Y-93160000D02*
X82660000Y-93160000D01*
X82445000Y-92945000D02*
X82445000Y-90160000D01*
X82660000Y-93160000D02*
X82445000Y-92945000D01*
X66135000Y-73850000D02*
X82445000Y-90160000D01*
X63370000Y-73850000D02*
X66135000Y-73850000D01*
X42695001Y-52745001D02*
X45270000Y-55320000D01*
X45600000Y-55320000D02*
X43840000Y-55320000D01*
X45600000Y-55320000D02*
X50330000Y-55320000D01*
X45270000Y-55320000D02*
X45600000Y-55320000D01*
X63370000Y-73850000D02*
X63370000Y-76430000D01*
X58970000Y-80830000D02*
X54400000Y-80830000D01*
X54400000Y-80830000D02*
X51320000Y-77750000D01*
X51320000Y-77750000D02*
X43510000Y-77750000D01*
X43510000Y-77750000D02*
X42560000Y-78700000D01*
X42130000Y-74240000D02*
X42200000Y-74310000D01*
X42130000Y-73230000D02*
X42130000Y-74240000D01*
X42560000Y-78700000D02*
X42560000Y-78750000D01*
X42560000Y-78750000D02*
X44320000Y-80510000D01*
X45950000Y-82040000D02*
X45950000Y-82100000D01*
X45950000Y-82100000D02*
X47410000Y-83560000D01*
X49050000Y-85140000D02*
X49170000Y-85140000D01*
X49170000Y-85140000D02*
X50660000Y-86630000D01*
X53510000Y-86630000D02*
X60330000Y-86630000D01*
X63110000Y-86630000D02*
X60310000Y-83830000D01*
X59735000Y-80555000D02*
X59735000Y-80065000D01*
X63090000Y-83910000D02*
X59735000Y-80555000D01*
X63370000Y-76430000D02*
X59735000Y-80065000D01*
X59735000Y-80065000D02*
X58970000Y-80830000D01*
X59735000Y-80065000D02*
X63035000Y-80065000D01*
X63035000Y-80065000D02*
X63080000Y-80020000D01*
X66280000Y-80060000D02*
X68910000Y-80060000D01*
X68910000Y-80060000D02*
X68970000Y-80120000D01*
X68970000Y-80120000D02*
X68970000Y-83800000D01*
X71660000Y-83820000D02*
X71620000Y-83820000D01*
X71620000Y-83820000D02*
X68950000Y-86490000D01*
X71360001Y-86819999D02*
X71190001Y-86819999D01*
X71690000Y-86490000D02*
X71360001Y-86819999D01*
X71190001Y-86819999D02*
X68850000Y-89160000D01*
X72600000Y-90160000D02*
X82445000Y-90160000D01*
X71660000Y-89220000D02*
X72600000Y-90160000D01*
X62740000Y-66710000D02*
X62740000Y-66840000D01*
X62740000Y-66840000D02*
X64640000Y-68740000D01*
X66450000Y-70600000D02*
X77330000Y-70600000D01*
X77330000Y-70600000D02*
X77330000Y-70460000D01*
X77330000Y-70460000D02*
X75340000Y-68470000D01*
X97485000Y-90295000D02*
X95620000Y-88430000D01*
X97485000Y-90525000D02*
X97485000Y-90295000D01*
X97485000Y-90525000D02*
X94850000Y-93160000D01*
X97850000Y-90160000D02*
X97485000Y-90525000D01*
X95600000Y-85600000D02*
X95600000Y-76110000D01*
X95600000Y-76110000D02*
X95710000Y-76000000D01*
X93440000Y-73720000D02*
X91030000Y-71310000D01*
X91030000Y-71310000D02*
X91030000Y-71230000D01*
X54066690Y-62350000D02*
X53600000Y-62350000D01*
X56556690Y-62350000D02*
X54066690Y-62350000D01*
X58330000Y-60576690D02*
X56556690Y-62350000D01*
X58330000Y-60110000D02*
X58330000Y-60576690D01*
X71995000Y-65035000D02*
X71995000Y-65015000D01*
X73700000Y-66740000D02*
X71995000Y-65035000D01*
D22*
X60750000Y-64900000D02*
X60850000Y-64800000D01*
X57452000Y-64900000D02*
X60750000Y-64900000D01*
D18*
X58330000Y-60576690D02*
X58330000Y-60780000D01*
X61225000Y-47425000D02*
X61225000Y-45660000D01*
X53330000Y-55320000D02*
X61225000Y-47425000D01*
X56566690Y-62340000D02*
X56556690Y-62350000D01*
X58760000Y-62340000D02*
X56566690Y-62340000D01*
X80030000Y-66740000D02*
X80200000Y-66910000D01*
X73700000Y-66740000D02*
X80030000Y-66740000D01*
X80200000Y-66910000D02*
X81520000Y-68230000D01*
X91030000Y-71230000D02*
X91030000Y-66900000D01*
X91030000Y-66900000D02*
X91160000Y-66770000D01*
X79210000Y-58380000D02*
X71700000Y-58380000D01*
X71700000Y-58380000D02*
X71680000Y-58400000D01*
X71680000Y-58400000D02*
X67020000Y-58400000D01*
X67020000Y-58400000D02*
X66370000Y-57750000D01*
X66870000Y-60340000D02*
X68740000Y-60340000D01*
X69730000Y-62550000D02*
X76000000Y-62550000D01*
X68740000Y-60340000D02*
X73610000Y-60340000D01*
X79170000Y-56550000D02*
X76050000Y-56550000D01*
X76050000Y-56550000D02*
X75980000Y-56480000D01*
X42200000Y-76310000D02*
X44200000Y-76310000D01*
X58540000Y-79590000D02*
X61400000Y-76730000D01*
X54790000Y-79590000D02*
X58540000Y-79590000D01*
X51930000Y-76730000D02*
X54790000Y-79590000D01*
X44620000Y-76730000D02*
X51930000Y-76730000D01*
X44200000Y-76310000D02*
X44620000Y-76730000D01*
X61400000Y-76730000D02*
X61400000Y-73622000D01*
D20*
X58337000Y-57005000D02*
X58460000Y-57128000D01*
X55340000Y-57655000D02*
X56720000Y-57655000D01*
X55340000Y-57005000D02*
X57370000Y-57005000D01*
X56720000Y-57655000D02*
X57370000Y-57005000D01*
X57370000Y-57005000D02*
X58337000Y-57005000D01*
X54190000Y-57655000D02*
X53860000Y-57985000D01*
X55340000Y-57655000D02*
X54190000Y-57655000D01*
X50590000Y-57655000D02*
X50920000Y-57985000D01*
X49440000Y-57655000D02*
X50590000Y-57655000D01*
X50590000Y-58305000D02*
X50910000Y-57985000D01*
X49440000Y-58305000D02*
X50590000Y-58305000D01*
X50920000Y-57985000D02*
X51530000Y-57985000D01*
X50910000Y-57985000D02*
X51530000Y-57985000D01*
X50910000Y-58635000D02*
X50910000Y-57985000D01*
X50590000Y-58955000D02*
X50910000Y-58635000D01*
X49440000Y-58955000D02*
X50590000Y-58955000D01*
X51852000Y-66530000D02*
X51852000Y-64900000D01*
X52010010Y-70568532D02*
X52010010Y-62829990D01*
X49750000Y-71355000D02*
X51223542Y-71355000D01*
X51223542Y-71355000D02*
X52010010Y-70568532D01*
X52010010Y-62829990D02*
X52010010Y-58404990D01*
X52010010Y-58404990D02*
X52430000Y-57985000D01*
X51530000Y-57985000D02*
X52430000Y-57985000D01*
X52430000Y-57985000D02*
X53860000Y-57985000D01*
D18*
X57388500Y-57128000D02*
X58460000Y-57128000D01*
D20*
X52010010Y-62829990D02*
X52010010Y-62669586D01*
X54190000Y-60905000D02*
X55340000Y-60905000D01*
X52010010Y-62669586D02*
X53774596Y-60905000D01*
X53774596Y-60905000D02*
X54190000Y-60905000D01*
D22*
X58252000Y-57150000D02*
X58230000Y-57128000D01*
X95410000Y-60280000D02*
X95410000Y-58080000D01*
X59198000Y-57128000D02*
X59590000Y-57520000D01*
X58230000Y-57128000D02*
X59198000Y-57128000D01*
X59590000Y-57520000D02*
X59590000Y-61360000D01*
X94080000Y-61610000D02*
X95410000Y-60280000D01*
X59590000Y-61360000D02*
X59840000Y-61610000D01*
X59840000Y-61610000D02*
X94080000Y-61610000D01*
D19*
X49750000Y-69405000D02*
X47975000Y-69405000D01*
X47975000Y-69405000D02*
X47890000Y-69320000D01*
X55200000Y-55360000D02*
X86480000Y-55360000D01*
X89200000Y-58080000D02*
X91900000Y-58080000D01*
X86480000Y-55360000D02*
X89200000Y-58080000D01*
X49750000Y-72005000D02*
X52325000Y-72005000D01*
X52325000Y-72005000D02*
X54140000Y-73820000D01*
X54140000Y-73820000D02*
X54140000Y-74830000D01*
X61810000Y-59390000D02*
X83180000Y-59390000D01*
X60610000Y-60590000D02*
X61810000Y-59390000D01*
X67210000Y-57330000D02*
X83180000Y-57330000D01*
X66050000Y-56170000D02*
X67210000Y-57330000D01*
X49440000Y-57005000D02*
X51835000Y-57005000D01*
X52670000Y-56170000D02*
X66050000Y-56170000D01*
X51835000Y-57005000D02*
X52670000Y-56170000D01*
X42262000Y-66718000D02*
X42200000Y-66780000D01*
X45690000Y-66718000D02*
X42262000Y-66718000D01*
X45690000Y-68242000D02*
X47310000Y-68242000D01*
X47548000Y-68480000D02*
X47310000Y-68242000D01*
X49750000Y-68330000D02*
X49750000Y-68755000D01*
X49662000Y-68242000D02*
X49750000Y-68330000D01*
X47310000Y-68242000D02*
X49662000Y-68242000D01*
D20*
X47112000Y-72990000D02*
X47122000Y-72980000D01*
X47112000Y-74610000D02*
X47112000Y-72990000D01*
X47117000Y-74605000D02*
X47112000Y-74610000D01*
X49750000Y-74605000D02*
X47117000Y-74605000D01*
D21*
X49750000Y-74605000D02*
X50875000Y-74605000D01*
X50875000Y-74605000D02*
X51350000Y-74130000D01*
X53060000Y-66618000D02*
X53138000Y-66540000D01*
X53060000Y-68380000D02*
X53060000Y-66618000D01*
D19*
X56950000Y-70705000D02*
X55615000Y-70705000D01*
X55615000Y-70705000D02*
X55610000Y-70700000D01*
X54662000Y-67342000D02*
X54662000Y-66540000D01*
X54190000Y-67910000D02*
X54662000Y-67438000D01*
X54662000Y-67438000D02*
X54662000Y-67342000D01*
D21*
X61400000Y-71480500D02*
X61400000Y-72098000D01*
X60624500Y-70705000D02*
X61400000Y-71480500D01*
X56950000Y-70705000D02*
X60624500Y-70705000D01*
D20*
X57410000Y-76748000D02*
X55780000Y-76748000D01*
X55675000Y-73955000D02*
X55370000Y-74260000D01*
X56950000Y-73955000D02*
X55675000Y-73955000D01*
X55370000Y-74260000D02*
X55370000Y-76180000D01*
X55780000Y-76590000D02*
X55780000Y-76748000D01*
X55370000Y-76180000D02*
X55780000Y-76590000D01*
D18*
X55938000Y-64910000D02*
X55928000Y-64900000D01*
X55938000Y-66530000D02*
X55938000Y-64910000D01*
D20*
X55938000Y-66530000D02*
X55938000Y-67372000D01*
X55938000Y-67372000D02*
X54220000Y-69090000D01*
X55675000Y-73305000D02*
X56950000Y-73305000D01*
X55476458Y-73305000D02*
X55675000Y-73305000D01*
X54220000Y-72048542D02*
X55476458Y-73305000D01*
X54220000Y-69090000D02*
X54220000Y-72048542D01*
D22*
X108594999Y-56390001D02*
X107845000Y-57140000D01*
X108594999Y-54905001D02*
X108594999Y-56390001D01*
X107899998Y-54210000D02*
X108594999Y-54905001D01*
X55928000Y-64152000D02*
X56560000Y-63520000D01*
X95460000Y-63520000D02*
X97880000Y-61100000D01*
X100030000Y-54210000D02*
X107899998Y-54210000D01*
X55928000Y-64900000D02*
X55928000Y-64152000D01*
X56560000Y-63520000D02*
X95460000Y-63520000D01*
X97880000Y-61100000D02*
X97880000Y-56360000D01*
X97880000Y-56360000D02*
X100030000Y-54210000D01*
D19*
X49750000Y-70055000D02*
X46975000Y-70055000D01*
X46975000Y-70055000D02*
X46810000Y-70220000D01*
X48195000Y-59605000D02*
X49440000Y-59605000D01*
X47500000Y-60300000D02*
X48195000Y-59605000D01*
D20*
X58225000Y-71355000D02*
X58460000Y-71590000D01*
X56950000Y-71355000D02*
X58225000Y-71355000D01*
X58460000Y-71590000D02*
X58460000Y-71890000D01*
X58345000Y-72005000D02*
X56950000Y-72005000D01*
X58460000Y-71890000D02*
X58345000Y-72005000D01*
X56950000Y-69405000D02*
X58295000Y-69405000D01*
X58295000Y-69405000D02*
X58520000Y-69630000D01*
X58520000Y-69630000D02*
X58520000Y-69920000D01*
X58385000Y-70055000D02*
X56950000Y-70055000D01*
X58520000Y-69920000D02*
X58385000Y-70055000D01*
D23*
G36*
X68844631Y-34369000D02*
G01*
X68733606Y-34369000D01*
X68515100Y-34412464D01*
X68309271Y-34497721D01*
X68124030Y-34621495D01*
X67966495Y-34779030D01*
X67842721Y-34964271D01*
X67757464Y-35170100D01*
X67714000Y-35388606D01*
X67714000Y-35611394D01*
X67757464Y-35829900D01*
X67842721Y-36035729D01*
X67966495Y-36220970D01*
X68124030Y-36378505D01*
X68309271Y-36502279D01*
X68515100Y-36587536D01*
X68733606Y-36631000D01*
X68845749Y-36631000D01*
X68845886Y-36909000D01*
X68733606Y-36909000D01*
X68515100Y-36952464D01*
X68309271Y-37037721D01*
X68124030Y-37161495D01*
X67966495Y-37319030D01*
X67842721Y-37504271D01*
X67757464Y-37710100D01*
X67714000Y-37928606D01*
X67714000Y-38151394D01*
X67757464Y-38369900D01*
X67842721Y-38575729D01*
X67966495Y-38760970D01*
X68124030Y-38918505D01*
X68309271Y-39042279D01*
X68515100Y-39127536D01*
X68733606Y-39171000D01*
X68847005Y-39171000D01*
X68847142Y-39449000D01*
X68733606Y-39449000D01*
X68515100Y-39492464D01*
X68309271Y-39577721D01*
X68124030Y-39701495D01*
X67966495Y-39859030D01*
X67842721Y-40044271D01*
X67757464Y-40250100D01*
X67714000Y-40468606D01*
X67714000Y-40691394D01*
X67757464Y-40909900D01*
X67842721Y-41115729D01*
X67966495Y-41300970D01*
X68124030Y-41458505D01*
X68309271Y-41582279D01*
X68515100Y-41667536D01*
X68733606Y-41711000D01*
X68848260Y-41711000D01*
X68848398Y-41989000D01*
X68733606Y-41989000D01*
X68515100Y-42032464D01*
X68309271Y-42117721D01*
X68124030Y-42241495D01*
X67966495Y-42399030D01*
X67842721Y-42584271D01*
X67757464Y-42790100D01*
X67714000Y-43008606D01*
X67714000Y-43231394D01*
X67757464Y-43449900D01*
X67842721Y-43655729D01*
X67966495Y-43840970D01*
X68124030Y-43998505D01*
X68309271Y-44122279D01*
X68515100Y-44207536D01*
X68733606Y-44251000D01*
X68849516Y-44251000D01*
X68849653Y-44529000D01*
X68733606Y-44529000D01*
X68515100Y-44572464D01*
X68309271Y-44657721D01*
X68124030Y-44781495D01*
X67966495Y-44939030D01*
X67842721Y-45124271D01*
X67757464Y-45330100D01*
X67714000Y-45548606D01*
X67714000Y-45771394D01*
X67757464Y-45989900D01*
X67842721Y-46195729D01*
X67966495Y-46380970D01*
X68124030Y-46538505D01*
X68309271Y-46662279D01*
X68515100Y-46747536D01*
X68733606Y-46791000D01*
X68850771Y-46791000D01*
X68853000Y-51300063D01*
X68855453Y-51324838D01*
X68862691Y-51348659D01*
X68874438Y-51370610D01*
X68890242Y-51389847D01*
X68909495Y-51405632D01*
X68931457Y-51417357D01*
X68955285Y-51424572D01*
X68980000Y-51427000D01*
X69712006Y-51427000D01*
X69726673Y-51475348D01*
X69769016Y-51554566D01*
X69825999Y-51624001D01*
X69895434Y-51680984D01*
X69974652Y-51723327D01*
X70060608Y-51749402D01*
X70127601Y-51756000D01*
X70150000Y-51758206D01*
X70172399Y-51756000D01*
X110234000Y-51756000D01*
X110234001Y-94144000D01*
X41072000Y-94144000D01*
X41072000Y-90232492D01*
X81055188Y-90232492D01*
X81096035Y-90502238D01*
X81188723Y-90758832D01*
X81249140Y-90871863D01*
X81488007Y-90937388D01*
X82265395Y-90160000D01*
X81488007Y-89382612D01*
X81249140Y-89448137D01*
X81133240Y-89695116D01*
X81067750Y-89959960D01*
X81055188Y-90232492D01*
X41072000Y-90232492D01*
X41072000Y-77442843D01*
X43700000Y-77442843D01*
X43774689Y-77435487D01*
X43846508Y-77413701D01*
X43912696Y-77378322D01*
X43970711Y-77330711D01*
X44018322Y-77272696D01*
X44053701Y-77206508D01*
X44075487Y-77134689D01*
X44080583Y-77082951D01*
X44151895Y-77154263D01*
X44171657Y-77178343D01*
X44267739Y-77257196D01*
X44377358Y-77315789D01*
X44496302Y-77351870D01*
X44589002Y-77361000D01*
X44589009Y-77361000D01*
X44620000Y-77364052D01*
X44650990Y-77361000D01*
X51668632Y-77361000D01*
X54321899Y-80014268D01*
X54341657Y-80038343D01*
X54437739Y-80117196D01*
X54547358Y-80175789D01*
X54666302Y-80211870D01*
X54759002Y-80221000D01*
X54759009Y-80221000D01*
X54790000Y-80224052D01*
X54820990Y-80221000D01*
X58509010Y-80221000D01*
X58540000Y-80224052D01*
X58570990Y-80221000D01*
X58570998Y-80221000D01*
X58663698Y-80211870D01*
X58782642Y-80175789D01*
X58892261Y-80117196D01*
X58988343Y-80038343D01*
X59008105Y-80014263D01*
X59133762Y-79888606D01*
X81314000Y-79888606D01*
X81314000Y-80111394D01*
X81357464Y-80329900D01*
X81442721Y-80535729D01*
X81566495Y-80720970D01*
X81724030Y-80878505D01*
X81909271Y-81002279D01*
X82115100Y-81087536D01*
X82333606Y-81131000D01*
X82556394Y-81131000D01*
X82774900Y-81087536D01*
X82929001Y-81023705D01*
X82929001Y-81516295D01*
X82774900Y-81452464D01*
X82556394Y-81409000D01*
X82333606Y-81409000D01*
X82115100Y-81452464D01*
X81909271Y-81537721D01*
X81724030Y-81661495D01*
X81566495Y-81819030D01*
X81442721Y-82004271D01*
X81357464Y-82210100D01*
X81314000Y-82428606D01*
X81314000Y-82651394D01*
X81357464Y-82869900D01*
X81442721Y-83075729D01*
X81566495Y-83260970D01*
X81724030Y-83418505D01*
X81909271Y-83542279D01*
X82115100Y-83627536D01*
X82333606Y-83671000D01*
X82556394Y-83671000D01*
X82774900Y-83627536D01*
X82929001Y-83563706D01*
X82929001Y-84056294D01*
X82774900Y-83992464D01*
X82556394Y-83949000D01*
X82333606Y-83949000D01*
X82115100Y-83992464D01*
X81909271Y-84077721D01*
X81724030Y-84201495D01*
X81566495Y-84359030D01*
X81442721Y-84544271D01*
X81357464Y-84750100D01*
X81314000Y-84968606D01*
X81314000Y-85191394D01*
X81357464Y-85409900D01*
X81442721Y-85615729D01*
X81566495Y-85800970D01*
X81724030Y-85958505D01*
X81909271Y-86082279D01*
X82115100Y-86167536D01*
X82333606Y-86211000D01*
X82556394Y-86211000D01*
X82774900Y-86167536D01*
X82929000Y-86103706D01*
X82929000Y-86596294D01*
X82774900Y-86532464D01*
X82556394Y-86489000D01*
X82333606Y-86489000D01*
X82115100Y-86532464D01*
X81909271Y-86617721D01*
X81724030Y-86741495D01*
X81566495Y-86899030D01*
X81442721Y-87084271D01*
X81357464Y-87290100D01*
X81314000Y-87508606D01*
X81314000Y-87731394D01*
X81357464Y-87949900D01*
X81442721Y-88155729D01*
X81566495Y-88340970D01*
X81724030Y-88498505D01*
X81909271Y-88622279D01*
X82115100Y-88707536D01*
X82333606Y-88751000D01*
X82556394Y-88751000D01*
X82774900Y-88707536D01*
X82929000Y-88643706D01*
X82929000Y-88857211D01*
X82909884Y-88848240D01*
X82645040Y-88782750D01*
X82372508Y-88770188D01*
X82102762Y-88811035D01*
X81846168Y-88903723D01*
X81733137Y-88964140D01*
X81667612Y-89203007D01*
X82445000Y-89980395D01*
X82459143Y-89966253D01*
X82638748Y-90145858D01*
X82624605Y-90160000D01*
X82638748Y-90174143D01*
X82459143Y-90353748D01*
X82445000Y-90339605D01*
X81667612Y-91116993D01*
X81733137Y-91355860D01*
X81980116Y-91471760D01*
X82244960Y-91537250D01*
X82517492Y-91549812D01*
X82787238Y-91508965D01*
X82929000Y-91457757D01*
X82929000Y-91958832D01*
X82926915Y-91980000D01*
X82935237Y-92064491D01*
X82959882Y-92145734D01*
X82999903Y-92220609D01*
X83053763Y-92286237D01*
X83119391Y-92340097D01*
X83194266Y-92380118D01*
X83275509Y-92404763D01*
X83360000Y-92413085D01*
X83381168Y-92411000D01*
X89128832Y-92411000D01*
X89150000Y-92413085D01*
X89171168Y-92411000D01*
X89234491Y-92404763D01*
X89315734Y-92380118D01*
X89390609Y-92340097D01*
X89456237Y-92286237D01*
X89510097Y-92220609D01*
X89550118Y-92145734D01*
X89574763Y-92064491D01*
X89583085Y-91980000D01*
X89581000Y-91958832D01*
X89581000Y-91183706D01*
X89735100Y-91247536D01*
X89953606Y-91291000D01*
X90176394Y-91291000D01*
X90394900Y-91247536D01*
X90600729Y-91162279D01*
X90785970Y-91038505D01*
X90943505Y-90880970D01*
X91067279Y-90695729D01*
X91152536Y-90489900D01*
X91196000Y-90271394D01*
X91196000Y-90232492D01*
X98835188Y-90232492D01*
X98876035Y-90502238D01*
X98968723Y-90758832D01*
X99029140Y-90871863D01*
X99268007Y-90937388D01*
X100045395Y-90160000D01*
X99268007Y-89382612D01*
X99029140Y-89448137D01*
X98913240Y-89695116D01*
X98847750Y-89959960D01*
X98835188Y-90232492D01*
X91196000Y-90232492D01*
X91196000Y-90048606D01*
X91152536Y-89830100D01*
X91067279Y-89624271D01*
X90943505Y-89439030D01*
X90785970Y-89281495D01*
X90600729Y-89157721D01*
X90394900Y-89072464D01*
X90176394Y-89029000D01*
X89953606Y-89029000D01*
X89735100Y-89072464D01*
X89581000Y-89136294D01*
X89581000Y-88643706D01*
X89735100Y-88707536D01*
X89953606Y-88751000D01*
X90176394Y-88751000D01*
X90394900Y-88707536D01*
X90600729Y-88622279D01*
X90785970Y-88498505D01*
X90943505Y-88340970D01*
X91067279Y-88155729D01*
X91152536Y-87949900D01*
X91196000Y-87731394D01*
X91196000Y-87508606D01*
X91152536Y-87290100D01*
X91067279Y-87084271D01*
X90943505Y-86899030D01*
X90785970Y-86741495D01*
X90600729Y-86617721D01*
X90394900Y-86532464D01*
X90176394Y-86489000D01*
X89953606Y-86489000D01*
X89735100Y-86532464D01*
X89581000Y-86596294D01*
X89581000Y-86103706D01*
X89735100Y-86167536D01*
X89953606Y-86211000D01*
X90176394Y-86211000D01*
X90394900Y-86167536D01*
X90600729Y-86082279D01*
X90785970Y-85958505D01*
X90943505Y-85800970D01*
X91067279Y-85615729D01*
X91152536Y-85409900D01*
X91196000Y-85191394D01*
X91196000Y-84968606D01*
X91152536Y-84750100D01*
X91067279Y-84544271D01*
X90943505Y-84359030D01*
X90785970Y-84201495D01*
X90600729Y-84077721D01*
X90394900Y-83992464D01*
X90176394Y-83949000D01*
X89953606Y-83949000D01*
X89735100Y-83992464D01*
X89581000Y-84056294D01*
X89581000Y-83563706D01*
X89735100Y-83627536D01*
X89953606Y-83671000D01*
X90176394Y-83671000D01*
X90394900Y-83627536D01*
X90600729Y-83542279D01*
X90785970Y-83418505D01*
X90943505Y-83260970D01*
X91067279Y-83075729D01*
X91152536Y-82869900D01*
X91196000Y-82651394D01*
X91196000Y-82428606D01*
X91152536Y-82210100D01*
X91067279Y-82004271D01*
X90943505Y-81819030D01*
X90785970Y-81661495D01*
X90600729Y-81537721D01*
X90394900Y-81452464D01*
X90176394Y-81409000D01*
X89953606Y-81409000D01*
X89735100Y-81452464D01*
X89581000Y-81516294D01*
X89581000Y-81023706D01*
X89735100Y-81087536D01*
X89953606Y-81131000D01*
X90176394Y-81131000D01*
X90394900Y-81087536D01*
X90600729Y-81002279D01*
X90785970Y-80878505D01*
X90943505Y-80720970D01*
X91067279Y-80535729D01*
X91152536Y-80329900D01*
X91196000Y-80111394D01*
X91196000Y-79888606D01*
X99094000Y-79888606D01*
X99094000Y-80111394D01*
X99137464Y-80329900D01*
X99222721Y-80535729D01*
X99346495Y-80720970D01*
X99504030Y-80878505D01*
X99689271Y-81002279D01*
X99895100Y-81087536D01*
X100113606Y-81131000D01*
X100336394Y-81131000D01*
X100554900Y-81087536D01*
X100709001Y-81023705D01*
X100709001Y-81516295D01*
X100554900Y-81452464D01*
X100336394Y-81409000D01*
X100113606Y-81409000D01*
X99895100Y-81452464D01*
X99689271Y-81537721D01*
X99504030Y-81661495D01*
X99346495Y-81819030D01*
X99222721Y-82004271D01*
X99137464Y-82210100D01*
X99094000Y-82428606D01*
X99094000Y-82651394D01*
X99137464Y-82869900D01*
X99222721Y-83075729D01*
X99346495Y-83260970D01*
X99504030Y-83418505D01*
X99689271Y-83542279D01*
X99895100Y-83627536D01*
X100113606Y-83671000D01*
X100336394Y-83671000D01*
X100554900Y-83627536D01*
X100709001Y-83563706D01*
X100709001Y-84056294D01*
X100554900Y-83992464D01*
X100336394Y-83949000D01*
X100113606Y-83949000D01*
X99895100Y-83992464D01*
X99689271Y-84077721D01*
X99504030Y-84201495D01*
X99346495Y-84359030D01*
X99222721Y-84544271D01*
X99137464Y-84750100D01*
X99094000Y-84968606D01*
X99094000Y-85191394D01*
X99137464Y-85409900D01*
X99222721Y-85615729D01*
X99346495Y-85800970D01*
X99504030Y-85958505D01*
X99689271Y-86082279D01*
X99895100Y-86167536D01*
X100113606Y-86211000D01*
X100336394Y-86211000D01*
X100554900Y-86167536D01*
X100709000Y-86103706D01*
X100709000Y-86596294D01*
X100554900Y-86532464D01*
X100336394Y-86489000D01*
X100113606Y-86489000D01*
X99895100Y-86532464D01*
X99689271Y-86617721D01*
X99504030Y-86741495D01*
X99346495Y-86899030D01*
X99222721Y-87084271D01*
X99137464Y-87290100D01*
X99094000Y-87508606D01*
X99094000Y-87731394D01*
X99137464Y-87949900D01*
X99222721Y-88155729D01*
X99346495Y-88340970D01*
X99504030Y-88498505D01*
X99689271Y-88622279D01*
X99895100Y-88707536D01*
X100113606Y-88751000D01*
X100336394Y-88751000D01*
X100554900Y-88707536D01*
X100709000Y-88643706D01*
X100709000Y-88857211D01*
X100689884Y-88848240D01*
X100425040Y-88782750D01*
X100152508Y-88770188D01*
X99882762Y-88811035D01*
X99626168Y-88903723D01*
X99513137Y-88964140D01*
X99447612Y-89203007D01*
X100225000Y-89980395D01*
X100239143Y-89966253D01*
X100418748Y-90145858D01*
X100404605Y-90160000D01*
X100418748Y-90174143D01*
X100239143Y-90353748D01*
X100225000Y-90339605D01*
X99447612Y-91116993D01*
X99513137Y-91355860D01*
X99760116Y-91471760D01*
X100024960Y-91537250D01*
X100297492Y-91549812D01*
X100567238Y-91508965D01*
X100709000Y-91457757D01*
X100709000Y-91958832D01*
X100706915Y-91980000D01*
X100715237Y-92064491D01*
X100739882Y-92145734D01*
X100779903Y-92220609D01*
X100833763Y-92286237D01*
X100899391Y-92340097D01*
X100974266Y-92380118D01*
X101055509Y-92404763D01*
X101140000Y-92413085D01*
X101161168Y-92411000D01*
X106918832Y-92411000D01*
X106940000Y-92413085D01*
X106961168Y-92411000D01*
X107024491Y-92404763D01*
X107105734Y-92380118D01*
X107180609Y-92340097D01*
X107246237Y-92286237D01*
X107300097Y-92220609D01*
X107340118Y-92145734D01*
X107364763Y-92064491D01*
X107373085Y-91980000D01*
X107371000Y-91958832D01*
X107371000Y-91187848D01*
X107515100Y-91247536D01*
X107733606Y-91291000D01*
X107956394Y-91291000D01*
X108174900Y-91247536D01*
X108380729Y-91162279D01*
X108565970Y-91038505D01*
X108723505Y-90880970D01*
X108847279Y-90695729D01*
X108932536Y-90489900D01*
X108976000Y-90271394D01*
X108976000Y-90048606D01*
X108932536Y-89830100D01*
X108847279Y-89624271D01*
X108723505Y-89439030D01*
X108565970Y-89281495D01*
X108380729Y-89157721D01*
X108174900Y-89072464D01*
X107956394Y-89029000D01*
X107733606Y-89029000D01*
X107515100Y-89072464D01*
X107371000Y-89132152D01*
X107371000Y-88647848D01*
X107515100Y-88707536D01*
X107733606Y-88751000D01*
X107956394Y-88751000D01*
X108174900Y-88707536D01*
X108380729Y-88622279D01*
X108565970Y-88498505D01*
X108723505Y-88340970D01*
X108847279Y-88155729D01*
X108932536Y-87949900D01*
X108976000Y-87731394D01*
X108976000Y-87508606D01*
X108932536Y-87290100D01*
X108847279Y-87084271D01*
X108723505Y-86899030D01*
X108565970Y-86741495D01*
X108380729Y-86617721D01*
X108174900Y-86532464D01*
X107956394Y-86489000D01*
X107733606Y-86489000D01*
X107515100Y-86532464D01*
X107371000Y-86592152D01*
X107371000Y-86107848D01*
X107515100Y-86167536D01*
X107733606Y-86211000D01*
X107956394Y-86211000D01*
X108174900Y-86167536D01*
X108380729Y-86082279D01*
X108565970Y-85958505D01*
X108723505Y-85800970D01*
X108847279Y-85615729D01*
X108932536Y-85409900D01*
X108976000Y-85191394D01*
X108976000Y-84968606D01*
X108932536Y-84750100D01*
X108847279Y-84544271D01*
X108723505Y-84359030D01*
X108565970Y-84201495D01*
X108380729Y-84077721D01*
X108174900Y-83992464D01*
X107956394Y-83949000D01*
X107733606Y-83949000D01*
X107515100Y-83992464D01*
X107371000Y-84052152D01*
X107371000Y-83567848D01*
X107515100Y-83627536D01*
X107733606Y-83671000D01*
X107956394Y-83671000D01*
X108174900Y-83627536D01*
X108380729Y-83542279D01*
X108565970Y-83418505D01*
X108723505Y-83260970D01*
X108847279Y-83075729D01*
X108932536Y-82869900D01*
X108976000Y-82651394D01*
X108976000Y-82428606D01*
X108932536Y-82210100D01*
X108847279Y-82004271D01*
X108723505Y-81819030D01*
X108565970Y-81661495D01*
X108380729Y-81537721D01*
X108174900Y-81452464D01*
X107956394Y-81409000D01*
X107733606Y-81409000D01*
X107515100Y-81452464D01*
X107371000Y-81512152D01*
X107371000Y-81027848D01*
X107515100Y-81087536D01*
X107733606Y-81131000D01*
X107956394Y-81131000D01*
X108174900Y-81087536D01*
X108380729Y-81002279D01*
X108565970Y-80878505D01*
X108723505Y-80720970D01*
X108847279Y-80535729D01*
X108932536Y-80329900D01*
X108976000Y-80111394D01*
X108976000Y-79888606D01*
X108932536Y-79670100D01*
X108847279Y-79464271D01*
X108723505Y-79279030D01*
X108565970Y-79121495D01*
X108380729Y-78997721D01*
X108174900Y-78912464D01*
X107956394Y-78869000D01*
X107733606Y-78869000D01*
X107515100Y-78912464D01*
X107371000Y-78972152D01*
X107371000Y-78201168D01*
X107373085Y-78180000D01*
X107364763Y-78095509D01*
X107340118Y-78014266D01*
X107300097Y-77939391D01*
X107246237Y-77873763D01*
X107180609Y-77819903D01*
X107105734Y-77779882D01*
X107024491Y-77755237D01*
X106961168Y-77749000D01*
X106940000Y-77746915D01*
X106918832Y-77749000D01*
X101161168Y-77749000D01*
X101140000Y-77746915D01*
X101118832Y-77749000D01*
X101055509Y-77755237D01*
X100974266Y-77779882D01*
X100899391Y-77819903D01*
X100833763Y-77873763D01*
X100779903Y-77939391D01*
X100739882Y-78014266D01*
X100715237Y-78095509D01*
X100706915Y-78180000D01*
X100709001Y-78201179D01*
X100709001Y-78976295D01*
X100554900Y-78912464D01*
X100336394Y-78869000D01*
X100113606Y-78869000D01*
X99895100Y-78912464D01*
X99689271Y-78997721D01*
X99504030Y-79121495D01*
X99346495Y-79279030D01*
X99222721Y-79464271D01*
X99137464Y-79670100D01*
X99094000Y-79888606D01*
X91196000Y-79888606D01*
X91152536Y-79670100D01*
X91067279Y-79464271D01*
X90943505Y-79279030D01*
X90785970Y-79121495D01*
X90600729Y-78997721D01*
X90394900Y-78912464D01*
X90176394Y-78869000D01*
X89953606Y-78869000D01*
X89735100Y-78912464D01*
X89581000Y-78976294D01*
X89581000Y-78201168D01*
X89583085Y-78180000D01*
X89574763Y-78095509D01*
X89550118Y-78014266D01*
X89510097Y-77939391D01*
X89456237Y-77873763D01*
X89390609Y-77819903D01*
X89315734Y-77779882D01*
X89234491Y-77755237D01*
X89171168Y-77749000D01*
X89150000Y-77746915D01*
X89128832Y-77749000D01*
X83381168Y-77749000D01*
X83360000Y-77746915D01*
X83338832Y-77749000D01*
X83275509Y-77755237D01*
X83194266Y-77779882D01*
X83119391Y-77819903D01*
X83053763Y-77873763D01*
X82999903Y-77939391D01*
X82959882Y-78014266D01*
X82935237Y-78095509D01*
X82926915Y-78180000D01*
X82929001Y-78201179D01*
X82929001Y-78976295D01*
X82774900Y-78912464D01*
X82556394Y-78869000D01*
X82333606Y-78869000D01*
X82115100Y-78912464D01*
X81909271Y-78997721D01*
X81724030Y-79121495D01*
X81566495Y-79279030D01*
X81442721Y-79464271D01*
X81357464Y-79670100D01*
X81314000Y-79888606D01*
X59133762Y-79888606D01*
X61824269Y-77198100D01*
X61848343Y-77178343D01*
X61868104Y-77154265D01*
X61927196Y-77082261D01*
X61985789Y-76972642D01*
X62021870Y-76853698D01*
X62023495Y-76837196D01*
X62031000Y-76760998D01*
X62031000Y-76760991D01*
X62034052Y-76730000D01*
X62031000Y-76699010D01*
X62031000Y-74316483D01*
X62046189Y-74314987D01*
X62118008Y-74293201D01*
X62184196Y-74257822D01*
X62242211Y-74210211D01*
X62289822Y-74152196D01*
X62325201Y-74086008D01*
X62346987Y-74014189D01*
X62354343Y-73939500D01*
X62354343Y-73304500D01*
X62346987Y-73229811D01*
X62325201Y-73157992D01*
X62289822Y-73091804D01*
X62242211Y-73033789D01*
X62184196Y-72986178D01*
X62118008Y-72950799D01*
X62046189Y-72929013D01*
X61971500Y-72921657D01*
X60828500Y-72921657D01*
X60753811Y-72929013D01*
X60681992Y-72950799D01*
X60615804Y-72986178D01*
X60557789Y-73033789D01*
X60510178Y-73091804D01*
X60474799Y-73157992D01*
X60453013Y-73229811D01*
X60445657Y-73304500D01*
X60445657Y-73939500D01*
X60453013Y-74014189D01*
X60474799Y-74086008D01*
X60510178Y-74152196D01*
X60557789Y-74210211D01*
X60615804Y-74257822D01*
X60681992Y-74293201D01*
X60753811Y-74314987D01*
X60769001Y-74316483D01*
X60769000Y-76468631D01*
X58616452Y-78621180D01*
X58619572Y-78589500D01*
X58616500Y-78557750D01*
X58457750Y-78399000D01*
X57537000Y-78399000D01*
X57537000Y-78419000D01*
X57283000Y-78419000D01*
X57283000Y-78399000D01*
X55907000Y-78399000D01*
X55907000Y-78419000D01*
X55653000Y-78419000D01*
X55653000Y-78399000D01*
X54732250Y-78399000D01*
X54611809Y-78519441D01*
X52398103Y-76305735D01*
X52378343Y-76281657D01*
X52282261Y-76202804D01*
X52172642Y-76144211D01*
X52053698Y-76108130D01*
X51960998Y-76099000D01*
X51960990Y-76099000D01*
X51930000Y-76095948D01*
X51899010Y-76099000D01*
X44881368Y-76099000D01*
X44668105Y-75885737D01*
X44648343Y-75861657D01*
X44552261Y-75782804D01*
X44442642Y-75724211D01*
X44323698Y-75688130D01*
X44230998Y-75679000D01*
X44230990Y-75679000D01*
X44200000Y-75675948D01*
X44169010Y-75679000D01*
X44082843Y-75679000D01*
X44082843Y-75567272D01*
X44151185Y-75511185D01*
X44230537Y-75414494D01*
X44289502Y-75304180D01*
X44325812Y-75184482D01*
X44326105Y-75181500D01*
X44632428Y-75181500D01*
X44644688Y-75305982D01*
X44680998Y-75425680D01*
X44739963Y-75535994D01*
X44819315Y-75632685D01*
X44916006Y-75712037D01*
X45026320Y-75771002D01*
X45146018Y-75807312D01*
X45270500Y-75819572D01*
X45302250Y-75816500D01*
X45461000Y-75657750D01*
X45461000Y-74737000D01*
X44794250Y-74737000D01*
X44635500Y-74895750D01*
X44632428Y-75181500D01*
X44326105Y-75181500D01*
X44338072Y-75060000D01*
X44335000Y-74595750D01*
X44176250Y-74437000D01*
X42327000Y-74437000D01*
X42327000Y-74457000D01*
X42073000Y-74457000D01*
X42073000Y-74437000D01*
X42053000Y-74437000D01*
X42053000Y-74183000D01*
X42073000Y-74183000D01*
X42073000Y-73083750D01*
X42327000Y-73083750D01*
X42327000Y-74183000D01*
X44176250Y-74183000D01*
X44320750Y-74038500D01*
X44632428Y-74038500D01*
X44635500Y-74324250D01*
X44794250Y-74483000D01*
X45461000Y-74483000D01*
X45461000Y-74037750D01*
X45471000Y-74027750D01*
X45471000Y-73562250D01*
X45715000Y-73562250D01*
X45715000Y-74483000D01*
X45735000Y-74483000D01*
X45735000Y-74737000D01*
X45715000Y-74737000D01*
X45715000Y-75657750D01*
X45873750Y-75816500D01*
X45905500Y-75819572D01*
X46029982Y-75807312D01*
X46149680Y-75771002D01*
X46259994Y-75712037D01*
X46356685Y-75632685D01*
X46436037Y-75535994D01*
X46495002Y-75425680D01*
X46496895Y-75419440D01*
X46523789Y-75452211D01*
X46581804Y-75499822D01*
X46647992Y-75535201D01*
X46719811Y-75556987D01*
X46794500Y-75564343D01*
X47429500Y-75564343D01*
X47504189Y-75556987D01*
X47576008Y-75535201D01*
X47642196Y-75499822D01*
X47700211Y-75452211D01*
X47747822Y-75394196D01*
X47783201Y-75328008D01*
X47804987Y-75256189D01*
X47811900Y-75186000D01*
X48736071Y-75186000D01*
X48800311Y-75205487D01*
X48875000Y-75212843D01*
X50625000Y-75212843D01*
X50699689Y-75205487D01*
X50771508Y-75183701D01*
X50837696Y-75148322D01*
X50852305Y-75136333D01*
X50875000Y-75138568D01*
X50901074Y-75136000D01*
X50901084Y-75136000D01*
X50979094Y-75128317D01*
X51079188Y-75097953D01*
X51171435Y-75048646D01*
X51252290Y-74982290D01*
X51268921Y-74962025D01*
X51389946Y-74841000D01*
X51420027Y-74841000D01*
X51557391Y-74813676D01*
X51686785Y-74760080D01*
X51803236Y-74682270D01*
X51902270Y-74583236D01*
X51980080Y-74466785D01*
X52033676Y-74337391D01*
X52061000Y-74200027D01*
X52061000Y-74059973D01*
X52033676Y-73922609D01*
X51980080Y-73793215D01*
X51902270Y-73676764D01*
X51803236Y-73577730D01*
X51686785Y-73499920D01*
X51557391Y-73446324D01*
X51420027Y-73419000D01*
X51279973Y-73419000D01*
X51144248Y-73445998D01*
X51101250Y-73403000D01*
X50821461Y-73403000D01*
X50771508Y-73376299D01*
X50699689Y-73354513D01*
X50625000Y-73347157D01*
X48875000Y-73347157D01*
X48800311Y-73354513D01*
X48728492Y-73376299D01*
X48678539Y-73403000D01*
X48398750Y-73403000D01*
X48240000Y-73561750D01*
X48250901Y-73662801D01*
X48288801Y-73782005D01*
X48349228Y-73891524D01*
X48429861Y-73987151D01*
X48476001Y-74024000D01*
X47810915Y-74024000D01*
X47804987Y-73963811D01*
X47783201Y-73891992D01*
X47747822Y-73825804D01*
X47727542Y-73801093D01*
X47757822Y-73764196D01*
X47793201Y-73698008D01*
X47814987Y-73626189D01*
X47822343Y-73551500D01*
X47822343Y-72408500D01*
X47814987Y-72333811D01*
X47793201Y-72261992D01*
X47757822Y-72195804D01*
X47710211Y-72137789D01*
X47652196Y-72090178D01*
X47586008Y-72054799D01*
X47514189Y-72033013D01*
X47439500Y-72025657D01*
X46804500Y-72025657D01*
X46729811Y-72033013D01*
X46657992Y-72054799D01*
X46591804Y-72090178D01*
X46533789Y-72137789D01*
X46506895Y-72170560D01*
X46505002Y-72164320D01*
X46446037Y-72054006D01*
X46366685Y-71957315D01*
X46269994Y-71877963D01*
X46159680Y-71818998D01*
X46039982Y-71782688D01*
X45915500Y-71770428D01*
X45883750Y-71773500D01*
X45725000Y-71932250D01*
X45725000Y-72853000D01*
X45745000Y-72853000D01*
X45745000Y-73107000D01*
X45725000Y-73107000D01*
X45725000Y-73552250D01*
X45715000Y-73562250D01*
X45471000Y-73562250D01*
X45471000Y-73107000D01*
X44804250Y-73107000D01*
X44645500Y-73265750D01*
X44642428Y-73551500D01*
X44654688Y-73675982D01*
X44687114Y-73782877D01*
X44680998Y-73794320D01*
X44644688Y-73914018D01*
X44632428Y-74038500D01*
X44320750Y-74038500D01*
X44335000Y-74024250D01*
X44338072Y-73560000D01*
X44325812Y-73435518D01*
X44289502Y-73315820D01*
X44230537Y-73205506D01*
X44151185Y-73108815D01*
X44054494Y-73029463D01*
X43944180Y-72970498D01*
X43824482Y-72934188D01*
X43700000Y-72921928D01*
X42485750Y-72925000D01*
X42327000Y-73083750D01*
X42073000Y-73083750D01*
X41914250Y-72925000D01*
X41072000Y-72922869D01*
X41072000Y-72408500D01*
X44642428Y-72408500D01*
X44645500Y-72694250D01*
X44804250Y-72853000D01*
X45471000Y-72853000D01*
X45471000Y-71932250D01*
X45312250Y-71773500D01*
X45280500Y-71770428D01*
X45156018Y-71782688D01*
X45036320Y-71818998D01*
X44926006Y-71877963D01*
X44829315Y-71957315D01*
X44749963Y-72054006D01*
X44690998Y-72164320D01*
X44654688Y-72284018D01*
X44642428Y-72408500D01*
X41072000Y-72408500D01*
X41072000Y-70177131D01*
X41914250Y-70175000D01*
X42073000Y-70016250D01*
X42073000Y-68917000D01*
X42327000Y-68917000D01*
X42327000Y-70016250D01*
X42485750Y-70175000D01*
X43700000Y-70178072D01*
X43824482Y-70165812D01*
X43944180Y-70129502D01*
X44054494Y-70070537D01*
X44151185Y-69991185D01*
X44230537Y-69894494D01*
X44289502Y-69784180D01*
X44325812Y-69664482D01*
X44338072Y-69540000D01*
X44335000Y-69075750D01*
X44176250Y-68917000D01*
X42327000Y-68917000D01*
X42073000Y-68917000D01*
X42053000Y-68917000D01*
X42053000Y-68663000D01*
X42073000Y-68663000D01*
X42073000Y-68643000D01*
X42327000Y-68643000D01*
X42327000Y-68663000D01*
X44176250Y-68663000D01*
X44335000Y-68504250D01*
X44338072Y-68040000D01*
X44325812Y-67915518D01*
X44289502Y-67795820D01*
X44230537Y-67685506D01*
X44151185Y-67588815D01*
X44082594Y-67532524D01*
X44082843Y-67530000D01*
X44082843Y-67199000D01*
X44773882Y-67199000D01*
X44800178Y-67248196D01*
X44847789Y-67306211D01*
X44905804Y-67353822D01*
X44971992Y-67389201D01*
X45043811Y-67410987D01*
X45118500Y-67418343D01*
X46231228Y-67418343D01*
X46287315Y-67486685D01*
X46379137Y-67562041D01*
X46336189Y-67549013D01*
X46261500Y-67541657D01*
X45118500Y-67541657D01*
X45043811Y-67549013D01*
X44971992Y-67570799D01*
X44905804Y-67606178D01*
X44847789Y-67653789D01*
X44800178Y-67711804D01*
X44764799Y-67777992D01*
X44743013Y-67849811D01*
X44735657Y-67924500D01*
X44735657Y-68559500D01*
X44743013Y-68634189D01*
X44764799Y-68706008D01*
X44800178Y-68772196D01*
X44847789Y-68830211D01*
X44905804Y-68877822D01*
X44971992Y-68913201D01*
X45043811Y-68934987D01*
X45118500Y-68942343D01*
X46261500Y-68942343D01*
X46336189Y-68934987D01*
X46408008Y-68913201D01*
X46474196Y-68877822D01*
X46500000Y-68856646D01*
X46525804Y-68877822D01*
X46591992Y-68913201D01*
X46663811Y-68934987D01*
X46738500Y-68942343D01*
X47287230Y-68942343D01*
X47259920Y-68983215D01*
X47206324Y-69112609D01*
X47179000Y-69249973D01*
X47179000Y-69390027D01*
X47206324Y-69527391D01*
X47225630Y-69574000D01*
X47108350Y-69574000D01*
X47017391Y-69536324D01*
X46880027Y-69509000D01*
X46739973Y-69509000D01*
X46602609Y-69536324D01*
X46473215Y-69589920D01*
X46356764Y-69667730D01*
X46257730Y-69766764D01*
X46179920Y-69883215D01*
X46126324Y-70012609D01*
X46099000Y-70149973D01*
X46099000Y-70290027D01*
X46126324Y-70427391D01*
X46179920Y-70556785D01*
X46257730Y-70673236D01*
X46356764Y-70772270D01*
X46473215Y-70850080D01*
X46602609Y-70903676D01*
X46739973Y-70931000D01*
X46880027Y-70931000D01*
X47017391Y-70903676D01*
X47146785Y-70850080D01*
X47263236Y-70772270D01*
X47362270Y-70673236D01*
X47440080Y-70556785D01*
X47448689Y-70536000D01*
X48327750Y-70536000D01*
X48398750Y-70607000D01*
X48678539Y-70607000D01*
X48728492Y-70633701D01*
X48800311Y-70655487D01*
X48875000Y-70662843D01*
X49897000Y-70662843D01*
X49897000Y-70747157D01*
X48875000Y-70747157D01*
X48800311Y-70754513D01*
X48728492Y-70776299D01*
X48678539Y-70803000D01*
X48398750Y-70803000D01*
X48240000Y-70961750D01*
X48250901Y-71062801D01*
X48288801Y-71182005D01*
X48349228Y-71291524D01*
X48429861Y-71387151D01*
X48492157Y-71436903D01*
X48492157Y-71580000D01*
X48499513Y-71654689D01*
X48507191Y-71680000D01*
X48499513Y-71705311D01*
X48492157Y-71780000D01*
X48492157Y-72230000D01*
X48499513Y-72304689D01*
X48507191Y-72330000D01*
X48499513Y-72355311D01*
X48492157Y-72430000D01*
X48492157Y-72573097D01*
X48429861Y-72622849D01*
X48349228Y-72718476D01*
X48288801Y-72827995D01*
X48250901Y-72947199D01*
X48240000Y-73048250D01*
X48398750Y-73207000D01*
X48678539Y-73207000D01*
X48728492Y-73233701D01*
X48800311Y-73255487D01*
X48875000Y-73262843D01*
X50625000Y-73262843D01*
X50699689Y-73255487D01*
X50771508Y-73233701D01*
X50821461Y-73207000D01*
X51101250Y-73207000D01*
X51260000Y-73048250D01*
X51249099Y-72947199D01*
X51211199Y-72827995D01*
X51150772Y-72718476D01*
X51070139Y-72622849D01*
X51007843Y-72573097D01*
X51007843Y-72486000D01*
X52125764Y-72486000D01*
X53659000Y-74019236D01*
X53659000Y-74305494D01*
X53587730Y-74376764D01*
X53509920Y-74493215D01*
X53456324Y-74622609D01*
X53429000Y-74759973D01*
X53429000Y-74900027D01*
X53456324Y-75037391D01*
X53509920Y-75166785D01*
X53587730Y-75283236D01*
X53686764Y-75382270D01*
X53803215Y-75460080D01*
X53932609Y-75513676D01*
X54069973Y-75541000D01*
X54210027Y-75541000D01*
X54347391Y-75513676D01*
X54476785Y-75460080D01*
X54593236Y-75382270D01*
X54692270Y-75283236D01*
X54770080Y-75166785D01*
X54789000Y-75121106D01*
X54789001Y-76151450D01*
X54786189Y-76180000D01*
X54797407Y-76293895D01*
X54828889Y-76397679D01*
X54825657Y-76430500D01*
X54825657Y-77065500D01*
X54833013Y-77140189D01*
X54854799Y-77212008D01*
X54890178Y-77278196D01*
X54937789Y-77336211D01*
X54970560Y-77363105D01*
X54964320Y-77364998D01*
X54854006Y-77423963D01*
X54757315Y-77503315D01*
X54677963Y-77600006D01*
X54618998Y-77710320D01*
X54582688Y-77830018D01*
X54570428Y-77954500D01*
X54573500Y-77986250D01*
X54732250Y-78145000D01*
X55653000Y-78145000D01*
X55653000Y-78125000D01*
X55907000Y-78125000D01*
X55907000Y-78145000D01*
X57283000Y-78145000D01*
X57283000Y-78125000D01*
X57537000Y-78125000D01*
X57537000Y-78145000D01*
X58457750Y-78145000D01*
X58616500Y-77986250D01*
X58619572Y-77954500D01*
X58607312Y-77830018D01*
X58571002Y-77710320D01*
X58512037Y-77600006D01*
X58432685Y-77503315D01*
X58335994Y-77423963D01*
X58225680Y-77364998D01*
X58219440Y-77363105D01*
X58252211Y-77336211D01*
X58299822Y-77278196D01*
X58335201Y-77212008D01*
X58356987Y-77140189D01*
X58364343Y-77065500D01*
X58364343Y-76430500D01*
X58356987Y-76355811D01*
X58335201Y-76283992D01*
X58299822Y-76217804D01*
X58252211Y-76159789D01*
X58194196Y-76112178D01*
X58128008Y-76076799D01*
X58056189Y-76055013D01*
X57981500Y-76047657D01*
X56838500Y-76047657D01*
X56763811Y-76055013D01*
X56691992Y-76076799D01*
X56625804Y-76112178D01*
X56595000Y-76137458D01*
X56564196Y-76112178D01*
X56498008Y-76076799D01*
X56426189Y-76055013D01*
X56351500Y-76047657D01*
X56059315Y-76047657D01*
X55951000Y-75939343D01*
X55951000Y-75455143D01*
X55958860Y-75457413D01*
X56083493Y-75468015D01*
X56664250Y-75465000D01*
X56823000Y-75306250D01*
X56823000Y-74703000D01*
X57077000Y-74703000D01*
X57077000Y-75306250D01*
X57235750Y-75465000D01*
X57816507Y-75468015D01*
X57941140Y-75457413D01*
X58061311Y-75422700D01*
X58172400Y-75365209D01*
X58270139Y-75287151D01*
X58350772Y-75191524D01*
X58411199Y-75082005D01*
X58449099Y-74962801D01*
X58460000Y-74861750D01*
X58301250Y-74703000D01*
X57077000Y-74703000D01*
X56823000Y-74703000D01*
X56803000Y-74703000D01*
X56803000Y-74562843D01*
X57825000Y-74562843D01*
X57899689Y-74555487D01*
X57971508Y-74533701D01*
X58021461Y-74507000D01*
X58301250Y-74507000D01*
X58460000Y-74348250D01*
X58449099Y-74247199D01*
X58411199Y-74127995D01*
X58350772Y-74018476D01*
X58270139Y-73922849D01*
X58207843Y-73873097D01*
X58207843Y-73730000D01*
X58200487Y-73655311D01*
X58192809Y-73630000D01*
X58200487Y-73604689D01*
X58207843Y-73530000D01*
X58207843Y-73386903D01*
X58270139Y-73337151D01*
X58350772Y-73241524D01*
X58411199Y-73132005D01*
X58449099Y-73012801D01*
X58460000Y-72911750D01*
X58301250Y-72753000D01*
X58021461Y-72753000D01*
X57971508Y-72726299D01*
X57899689Y-72704513D01*
X57825000Y-72697157D01*
X56803000Y-72697157D01*
X56803000Y-72612843D01*
X57825000Y-72612843D01*
X57899689Y-72605487D01*
X57963929Y-72586000D01*
X58316460Y-72586000D01*
X58345000Y-72588811D01*
X58373540Y-72586000D01*
X58458896Y-72577593D01*
X58568415Y-72544371D01*
X58669348Y-72490421D01*
X58757817Y-72417817D01*
X58776017Y-72395640D01*
X58850640Y-72321017D01*
X58872817Y-72302817D01*
X58945421Y-72214348D01*
X58999371Y-72113414D01*
X59032593Y-72003895D01*
X59039414Y-71934647D01*
X59043811Y-71890000D01*
X59041000Y-71861460D01*
X59041000Y-71618539D01*
X59043811Y-71589999D01*
X59032593Y-71476104D01*
X58999371Y-71366585D01*
X58945421Y-71265652D01*
X58921086Y-71236000D01*
X60404554Y-71236000D01*
X60625531Y-71456978D01*
X60615804Y-71462178D01*
X60557789Y-71509789D01*
X60510178Y-71567804D01*
X60474799Y-71633992D01*
X60453013Y-71705811D01*
X60445657Y-71780500D01*
X60445657Y-72415500D01*
X60453013Y-72490189D01*
X60474799Y-72562008D01*
X60510178Y-72628196D01*
X60557789Y-72686211D01*
X60615804Y-72733822D01*
X60681992Y-72769201D01*
X60753811Y-72790987D01*
X60828500Y-72798343D01*
X61971500Y-72798343D01*
X62046189Y-72790987D01*
X62118008Y-72769201D01*
X62184196Y-72733822D01*
X62242211Y-72686211D01*
X62289822Y-72628196D01*
X62325201Y-72562008D01*
X62346987Y-72490189D01*
X62354343Y-72415500D01*
X62354343Y-71780500D01*
X62346987Y-71705811D01*
X62325201Y-71633992D01*
X62289822Y-71567804D01*
X62242211Y-71509789D01*
X62184196Y-71462178D01*
X62118008Y-71426799D01*
X62046189Y-71405013D01*
X61971500Y-71397657D01*
X61925410Y-71397657D01*
X61923317Y-71376406D01*
X61892953Y-71276312D01*
X61877992Y-71248322D01*
X61843646Y-71184064D01*
X61793918Y-71123470D01*
X61793912Y-71123464D01*
X61777290Y-71103210D01*
X61757035Y-71086587D01*
X61018421Y-70347975D01*
X61001790Y-70327710D01*
X60920935Y-70261354D01*
X60828688Y-70212047D01*
X60728594Y-70181683D01*
X60650584Y-70174000D01*
X60650574Y-70174000D01*
X60624500Y-70171432D01*
X60598426Y-70174000D01*
X59043023Y-70174000D01*
X59059371Y-70143414D01*
X59067863Y-70115420D01*
X59092593Y-70033896D01*
X59103811Y-69920000D01*
X59101000Y-69891460D01*
X59101000Y-69658539D01*
X59103811Y-69629999D01*
X59092593Y-69516104D01*
X59059371Y-69406585D01*
X59058523Y-69404999D01*
X59005421Y-69305652D01*
X58932817Y-69217183D01*
X58910641Y-69198984D01*
X58726017Y-69014360D01*
X58707817Y-68992183D01*
X58619348Y-68919579D01*
X58518415Y-68865629D01*
X58408896Y-68832407D01*
X58323540Y-68824000D01*
X58295000Y-68821189D01*
X58266460Y-68824000D01*
X57963929Y-68824000D01*
X57899689Y-68804513D01*
X57825000Y-68797157D01*
X56075000Y-68797157D01*
X56000311Y-68804513D01*
X55928492Y-68826299D01*
X55878539Y-68853000D01*
X55598750Y-68853000D01*
X55440000Y-69011750D01*
X55450901Y-69112801D01*
X55488801Y-69232005D01*
X55549228Y-69341524D01*
X55629861Y-69437151D01*
X55692157Y-69486903D01*
X55692157Y-69630000D01*
X55699513Y-69704689D01*
X55707191Y-69730000D01*
X55699513Y-69755311D01*
X55692157Y-69830000D01*
X55692157Y-69991413D01*
X55680027Y-69989000D01*
X55539973Y-69989000D01*
X55402609Y-70016324D01*
X55273215Y-70069920D01*
X55156764Y-70147730D01*
X55057730Y-70246764D01*
X54979920Y-70363215D01*
X54926324Y-70492609D01*
X54899000Y-70629973D01*
X54899000Y-70770027D01*
X54926324Y-70907391D01*
X54979920Y-71036785D01*
X55057730Y-71153236D01*
X55156764Y-71252270D01*
X55273215Y-71330080D01*
X55402609Y-71383676D01*
X55539973Y-71411000D01*
X55680027Y-71411000D01*
X55692157Y-71408587D01*
X55692157Y-71580000D01*
X55699513Y-71654689D01*
X55707191Y-71680000D01*
X55699513Y-71705311D01*
X55692157Y-71780000D01*
X55692157Y-71923097D01*
X55629861Y-71972849D01*
X55549228Y-72068476D01*
X55488801Y-72177995D01*
X55450901Y-72297199D01*
X55440000Y-72398250D01*
X55569748Y-72527998D01*
X55521114Y-72527998D01*
X54801000Y-71807885D01*
X54801000Y-69330657D01*
X55536704Y-68594954D01*
X55598750Y-68657000D01*
X56823000Y-68657000D01*
X56823000Y-68053750D01*
X57077000Y-68053750D01*
X57077000Y-68657000D01*
X58301250Y-68657000D01*
X58460000Y-68498250D01*
X58449099Y-68397199D01*
X58411199Y-68277995D01*
X58350772Y-68168476D01*
X58270139Y-68072849D01*
X58172400Y-67994791D01*
X58061311Y-67937300D01*
X57941140Y-67902587D01*
X57816507Y-67891985D01*
X57235750Y-67895000D01*
X57077000Y-68053750D01*
X56823000Y-68053750D01*
X56664250Y-67895000D01*
X56238866Y-67892792D01*
X56328645Y-67803013D01*
X56350817Y-67784817D01*
X56423421Y-67696348D01*
X56477371Y-67595415D01*
X56510593Y-67485896D01*
X56519000Y-67400540D01*
X56521401Y-67376158D01*
X56526211Y-67372211D01*
X56553105Y-67339440D01*
X56554998Y-67345680D01*
X56613963Y-67455994D01*
X56693315Y-67552685D01*
X56790006Y-67632037D01*
X56900320Y-67691002D01*
X57020018Y-67727312D01*
X57144500Y-67739572D01*
X57176250Y-67736500D01*
X57335000Y-67577750D01*
X57335000Y-66657000D01*
X57589000Y-66657000D01*
X57589000Y-67577750D01*
X57747750Y-67736500D01*
X57779500Y-67739572D01*
X57903982Y-67727312D01*
X58023680Y-67691002D01*
X58133994Y-67632037D01*
X58230685Y-67552685D01*
X58310037Y-67455994D01*
X58369002Y-67345680D01*
X58405312Y-67225982D01*
X58417572Y-67101500D01*
X58414500Y-66815750D01*
X58255750Y-66657000D01*
X57589000Y-66657000D01*
X57335000Y-66657000D01*
X57315000Y-66657000D01*
X57315000Y-66403000D01*
X57335000Y-66403000D01*
X57335000Y-65482250D01*
X57325000Y-65472250D01*
X57325000Y-65027000D01*
X57579000Y-65027000D01*
X57579000Y-65947750D01*
X57589000Y-65957750D01*
X57589000Y-66403000D01*
X58255750Y-66403000D01*
X58414500Y-66244250D01*
X58417572Y-65958500D01*
X58405312Y-65834018D01*
X58369002Y-65714320D01*
X58362886Y-65702877D01*
X58395312Y-65595982D01*
X58407572Y-65471500D01*
X58404500Y-65185750D01*
X58245750Y-65027000D01*
X57579000Y-65027000D01*
X57325000Y-65027000D01*
X57305000Y-65027000D01*
X57305000Y-64773000D01*
X57325000Y-64773000D01*
X57325000Y-64753000D01*
X57579000Y-64753000D01*
X57579000Y-64773000D01*
X58245750Y-64773000D01*
X58404500Y-64614250D01*
X58407572Y-64328500D01*
X58399939Y-64251000D01*
X95424109Y-64251000D01*
X95460000Y-64254535D01*
X95495891Y-64251000D01*
X95495901Y-64251000D01*
X95603301Y-64240422D01*
X95741095Y-64198623D01*
X95868086Y-64130744D01*
X95979395Y-64039395D01*
X96002282Y-64011507D01*
X98371522Y-61642269D01*
X98399394Y-61619395D01*
X98422269Y-61591522D01*
X98422281Y-61591510D01*
X98490744Y-61508087D01*
X98558623Y-61381095D01*
X98574454Y-61328906D01*
X98600422Y-61243301D01*
X98611000Y-61135901D01*
X98611000Y-61135891D01*
X98614535Y-61100000D01*
X98611000Y-61064109D01*
X98611000Y-56662789D01*
X100332790Y-54941000D01*
X100934756Y-54941000D01*
X100899391Y-54959903D01*
X100833763Y-55013763D01*
X100779903Y-55079391D01*
X100739882Y-55154266D01*
X100715237Y-55235509D01*
X100706915Y-55320000D01*
X100709001Y-55341179D01*
X100709001Y-56116295D01*
X100554900Y-56052464D01*
X100336394Y-56009000D01*
X100113606Y-56009000D01*
X99895100Y-56052464D01*
X99689271Y-56137721D01*
X99504030Y-56261495D01*
X99346495Y-56419030D01*
X99222721Y-56604271D01*
X99137464Y-56810100D01*
X99094000Y-57028606D01*
X99094000Y-57251394D01*
X99137464Y-57469900D01*
X99222721Y-57675729D01*
X99346495Y-57860970D01*
X99504030Y-58018505D01*
X99689271Y-58142279D01*
X99895100Y-58227536D01*
X100113606Y-58271000D01*
X100336394Y-58271000D01*
X100554900Y-58227536D01*
X100709001Y-58163705D01*
X100709001Y-58656295D01*
X100554900Y-58592464D01*
X100336394Y-58549000D01*
X100113606Y-58549000D01*
X99895100Y-58592464D01*
X99689271Y-58677721D01*
X99504030Y-58801495D01*
X99346495Y-58959030D01*
X99222721Y-59144271D01*
X99137464Y-59350100D01*
X99094000Y-59568606D01*
X99094000Y-59791394D01*
X99137464Y-60009900D01*
X99222721Y-60215729D01*
X99346495Y-60400970D01*
X99504030Y-60558505D01*
X99689271Y-60682279D01*
X99895100Y-60767536D01*
X100113606Y-60811000D01*
X100336394Y-60811000D01*
X100554900Y-60767536D01*
X100709001Y-60703706D01*
X100709001Y-61196294D01*
X100554900Y-61132464D01*
X100336394Y-61089000D01*
X100113606Y-61089000D01*
X99895100Y-61132464D01*
X99689271Y-61217721D01*
X99504030Y-61341495D01*
X99346495Y-61499030D01*
X99222721Y-61684271D01*
X99137464Y-61890100D01*
X99094000Y-62108606D01*
X99094000Y-62331394D01*
X99137464Y-62549900D01*
X99222721Y-62755729D01*
X99346495Y-62940970D01*
X99504030Y-63098505D01*
X99689271Y-63222279D01*
X99895100Y-63307536D01*
X100113606Y-63351000D01*
X100336394Y-63351000D01*
X100554900Y-63307536D01*
X100709000Y-63243706D01*
X100709000Y-63736294D01*
X100554900Y-63672464D01*
X100336394Y-63629000D01*
X100113606Y-63629000D01*
X99895100Y-63672464D01*
X99689271Y-63757721D01*
X99504030Y-63881495D01*
X99346495Y-64039030D01*
X99222721Y-64224271D01*
X99137464Y-64430100D01*
X99094000Y-64648606D01*
X99094000Y-64871394D01*
X99137464Y-65089900D01*
X99222721Y-65295729D01*
X99346495Y-65480970D01*
X99504030Y-65638505D01*
X99689271Y-65762279D01*
X99895100Y-65847536D01*
X100113606Y-65891000D01*
X100336394Y-65891000D01*
X100554900Y-65847536D01*
X100709000Y-65783706D01*
X100709000Y-66276294D01*
X100554900Y-66212464D01*
X100336394Y-66169000D01*
X100113606Y-66169000D01*
X99895100Y-66212464D01*
X99689271Y-66297721D01*
X99504030Y-66421495D01*
X99346495Y-66579030D01*
X99222721Y-66764271D01*
X99137464Y-66970100D01*
X99094000Y-67188606D01*
X99094000Y-67411394D01*
X99137464Y-67629900D01*
X99222721Y-67835729D01*
X99346495Y-68020970D01*
X99504030Y-68178505D01*
X99689271Y-68302279D01*
X99895100Y-68387536D01*
X100113606Y-68431000D01*
X100336394Y-68431000D01*
X100554900Y-68387536D01*
X100709000Y-68323706D01*
X100709000Y-69098832D01*
X100706915Y-69120000D01*
X100715237Y-69204491D01*
X100739882Y-69285734D01*
X100779903Y-69360609D01*
X100816334Y-69405000D01*
X100833763Y-69426237D01*
X100899391Y-69480097D01*
X100974266Y-69520118D01*
X101055509Y-69544763D01*
X101140000Y-69553085D01*
X101161168Y-69551000D01*
X106908832Y-69551000D01*
X106930000Y-69553085D01*
X106951168Y-69551000D01*
X107014491Y-69544763D01*
X107095734Y-69520118D01*
X107170609Y-69480097D01*
X107236237Y-69426237D01*
X107290097Y-69360609D01*
X107330118Y-69285734D01*
X107354763Y-69204491D01*
X107363085Y-69120000D01*
X107361000Y-69098832D01*
X107361000Y-68323706D01*
X107515100Y-68387536D01*
X107733606Y-68431000D01*
X107956394Y-68431000D01*
X108174900Y-68387536D01*
X108380729Y-68302279D01*
X108565970Y-68178505D01*
X108723505Y-68020970D01*
X108847279Y-67835729D01*
X108932536Y-67629900D01*
X108976000Y-67411394D01*
X108976000Y-67188606D01*
X108932536Y-66970100D01*
X108847279Y-66764271D01*
X108723505Y-66579030D01*
X108565970Y-66421495D01*
X108380729Y-66297721D01*
X108174900Y-66212464D01*
X107956394Y-66169000D01*
X107733606Y-66169000D01*
X107515100Y-66212464D01*
X107361000Y-66276294D01*
X107361000Y-65783706D01*
X107515100Y-65847536D01*
X107733606Y-65891000D01*
X107956394Y-65891000D01*
X108174900Y-65847536D01*
X108380729Y-65762279D01*
X108565970Y-65638505D01*
X108723505Y-65480970D01*
X108847279Y-65295729D01*
X108932536Y-65089900D01*
X108976000Y-64871394D01*
X108976000Y-64648606D01*
X108932536Y-64430100D01*
X108847279Y-64224271D01*
X108723505Y-64039030D01*
X108565970Y-63881495D01*
X108380729Y-63757721D01*
X108174900Y-63672464D01*
X107956394Y-63629000D01*
X107733606Y-63629000D01*
X107515100Y-63672464D01*
X107361000Y-63736294D01*
X107361000Y-63243706D01*
X107515100Y-63307536D01*
X107733606Y-63351000D01*
X107956394Y-63351000D01*
X108174900Y-63307536D01*
X108380729Y-63222279D01*
X108565970Y-63098505D01*
X108723505Y-62940970D01*
X108847279Y-62755729D01*
X108932536Y-62549900D01*
X108976000Y-62331394D01*
X108976000Y-62108606D01*
X108932536Y-61890100D01*
X108847279Y-61684271D01*
X108723505Y-61499030D01*
X108565970Y-61341495D01*
X108380729Y-61217721D01*
X108174900Y-61132464D01*
X107956394Y-61089000D01*
X107733606Y-61089000D01*
X107515100Y-61132464D01*
X107361000Y-61196294D01*
X107361000Y-60703706D01*
X107515100Y-60767536D01*
X107733606Y-60811000D01*
X107956394Y-60811000D01*
X108174900Y-60767536D01*
X108380729Y-60682279D01*
X108565970Y-60558505D01*
X108723505Y-60400970D01*
X108847279Y-60215729D01*
X108932536Y-60009900D01*
X108976000Y-59791394D01*
X108976000Y-59568606D01*
X108932536Y-59350100D01*
X108847279Y-59144271D01*
X108723505Y-58959030D01*
X108565970Y-58801495D01*
X108380729Y-58677721D01*
X108174900Y-58592464D01*
X107956394Y-58549000D01*
X107733606Y-58549000D01*
X107515100Y-58592464D01*
X107361000Y-58656294D01*
X107361000Y-58163706D01*
X107515100Y-58227536D01*
X107733606Y-58271000D01*
X107956394Y-58271000D01*
X108174900Y-58227536D01*
X108380729Y-58142279D01*
X108565970Y-58018505D01*
X108723505Y-57860970D01*
X108847279Y-57675729D01*
X108932536Y-57469900D01*
X108976000Y-57251394D01*
X108976000Y-57042791D01*
X109086516Y-56932275D01*
X109114394Y-56909396D01*
X109137272Y-56881519D01*
X109137280Y-56881511D01*
X109205743Y-56798088D01*
X109273622Y-56671096D01*
X109292578Y-56608605D01*
X109315421Y-56533302D01*
X109325999Y-56425902D01*
X109325999Y-56425892D01*
X109329534Y-56390001D01*
X109325999Y-56354110D01*
X109325999Y-54940892D01*
X109329534Y-54905001D01*
X109325999Y-54869110D01*
X109325999Y-54869100D01*
X109315421Y-54761700D01*
X109273622Y-54623906D01*
X109205744Y-54496916D01*
X109205743Y-54496914D01*
X109137280Y-54413491D01*
X109137268Y-54413479D01*
X109114393Y-54385606D01*
X109086520Y-54362732D01*
X108442280Y-53718493D01*
X108419393Y-53690605D01*
X108308084Y-53599256D01*
X108181093Y-53531377D01*
X108043299Y-53489578D01*
X107935899Y-53479000D01*
X107935889Y-53479000D01*
X107899998Y-53475465D01*
X107864107Y-53479000D01*
X100065890Y-53479000D01*
X100029999Y-53475465D01*
X99994108Y-53479000D01*
X99994099Y-53479000D01*
X99886699Y-53489578D01*
X99748905Y-53531377D01*
X99666148Y-53575612D01*
X99621913Y-53599256D01*
X99538490Y-53667720D01*
X99510605Y-53690605D01*
X99487722Y-53718488D01*
X97388489Y-55817722D01*
X97360606Y-55840605D01*
X97337723Y-55868488D01*
X97337720Y-55868491D01*
X97269256Y-55951914D01*
X97201377Y-56078906D01*
X97173745Y-56170000D01*
X97159579Y-56216699D01*
X97154891Y-56264293D01*
X97145465Y-56360000D01*
X97149001Y-56395901D01*
X97149000Y-60797209D01*
X95157211Y-62789000D01*
X56595891Y-62789000D01*
X56560000Y-62785465D01*
X56524109Y-62789000D01*
X56524099Y-62789000D01*
X56416699Y-62799578D01*
X56278905Y-62841377D01*
X56151913Y-62909256D01*
X56113270Y-62940970D01*
X56040605Y-63000605D01*
X56017722Y-63028488D01*
X55436489Y-63609722D01*
X55408606Y-63632605D01*
X55385723Y-63660488D01*
X55385720Y-63660491D01*
X55317256Y-63743914D01*
X55249377Y-63870906D01*
X55234818Y-63918903D01*
X55207578Y-64008699D01*
X55197000Y-64116099D01*
X55197000Y-64116109D01*
X55193465Y-64152000D01*
X55197000Y-64187891D01*
X55197000Y-64935900D01*
X55207578Y-65043300D01*
X55227657Y-65109492D01*
X55227657Y-65471500D01*
X55235013Y-65546189D01*
X55256799Y-65618008D01*
X55292178Y-65684196D01*
X55307001Y-65702258D01*
X55307000Y-65739928D01*
X55302178Y-65745804D01*
X55297223Y-65755074D01*
X55250211Y-65697789D01*
X55192196Y-65650178D01*
X55126008Y-65614799D01*
X55054189Y-65593013D01*
X54979500Y-65585657D01*
X54344500Y-65585657D01*
X54269811Y-65593013D01*
X54197992Y-65614799D01*
X54131804Y-65650178D01*
X54073789Y-65697789D01*
X54026178Y-65755804D01*
X53990799Y-65821992D01*
X53969013Y-65893811D01*
X53961657Y-65968500D01*
X53961657Y-67111500D01*
X53969013Y-67186189D01*
X53981346Y-67226847D01*
X53853215Y-67279920D01*
X53757882Y-67343620D01*
X53773822Y-67324196D01*
X53809201Y-67258008D01*
X53830987Y-67186189D01*
X53838343Y-67111500D01*
X53838343Y-65968500D01*
X53830987Y-65893811D01*
X53809201Y-65821992D01*
X53773822Y-65755804D01*
X53726211Y-65697789D01*
X53668196Y-65650178D01*
X53602008Y-65614799D01*
X53530189Y-65593013D01*
X53455500Y-65585657D01*
X52820500Y-65585657D01*
X52745811Y-65593013D01*
X52673992Y-65614799D01*
X52607804Y-65650178D01*
X52591010Y-65663960D01*
X52591010Y-62910243D01*
X54015254Y-61486000D01*
X54207157Y-61486000D01*
X54207157Y-61780000D01*
X54214513Y-61854689D01*
X54236299Y-61926508D01*
X54271678Y-61992696D01*
X54319289Y-62050711D01*
X54377304Y-62098322D01*
X54443492Y-62133701D01*
X54515311Y-62155487D01*
X54590000Y-62162843D01*
X56090000Y-62162843D01*
X56164689Y-62155487D01*
X56236508Y-62133701D01*
X56302696Y-62098322D01*
X56360711Y-62050711D01*
X56408322Y-61992696D01*
X56443701Y-61926508D01*
X56465487Y-61854689D01*
X56472843Y-61780000D01*
X56472843Y-61330000D01*
X56465487Y-61255311D01*
X56457809Y-61230000D01*
X56465487Y-61204689D01*
X56472843Y-61130000D01*
X56472843Y-60986870D01*
X56534426Y-60937844D01*
X56615208Y-60842343D01*
X56675806Y-60732918D01*
X56713891Y-60613773D01*
X56725000Y-60511750D01*
X56566250Y-60353000D01*
X56452582Y-60353000D01*
X56534426Y-60287844D01*
X56615208Y-60192343D01*
X56675806Y-60082918D01*
X56692473Y-60030777D01*
X56725000Y-59998250D01*
X56717568Y-59930000D01*
X56725000Y-59861750D01*
X56692473Y-59829223D01*
X56675806Y-59777082D01*
X56615208Y-59667657D01*
X56562208Y-59605000D01*
X56615208Y-59542343D01*
X56675806Y-59432918D01*
X56692473Y-59380777D01*
X56725000Y-59348250D01*
X56717568Y-59280000D01*
X56725000Y-59211750D01*
X56692473Y-59179223D01*
X56675806Y-59127082D01*
X56615208Y-59017657D01*
X56574474Y-58969500D01*
X57020428Y-58969500D01*
X57032688Y-59093982D01*
X57068998Y-59213680D01*
X57127963Y-59323994D01*
X57207315Y-59420685D01*
X57304006Y-59500037D01*
X57414320Y-59559002D01*
X57534018Y-59595312D01*
X57658500Y-59607572D01*
X57944250Y-59604500D01*
X58103000Y-59445750D01*
X58103000Y-58779000D01*
X57182250Y-58779000D01*
X57023500Y-58937750D01*
X57020428Y-58969500D01*
X56574474Y-58969500D01*
X56562208Y-58955000D01*
X56615208Y-58892343D01*
X56675806Y-58782918D01*
X56692473Y-58730777D01*
X56725000Y-58698250D01*
X56717568Y-58630000D01*
X56725000Y-58561750D01*
X56692473Y-58529223D01*
X56675806Y-58477082D01*
X56615208Y-58367657D01*
X56534426Y-58272156D01*
X56489009Y-58236000D01*
X56691460Y-58236000D01*
X56720000Y-58238811D01*
X56748540Y-58236000D01*
X56833896Y-58227593D01*
X56943415Y-58194371D01*
X57044348Y-58140421D01*
X57056933Y-58130093D01*
X57032688Y-58210018D01*
X57020428Y-58334500D01*
X57023500Y-58366250D01*
X57182250Y-58525000D01*
X58103000Y-58525000D01*
X58103000Y-58505000D01*
X58357000Y-58505000D01*
X58357000Y-58525000D01*
X58377000Y-58525000D01*
X58377000Y-58779000D01*
X58357000Y-58779000D01*
X58357000Y-59445750D01*
X58515750Y-59604500D01*
X58801500Y-59607572D01*
X58859001Y-59601909D01*
X58859001Y-61324099D01*
X58855465Y-61360000D01*
X58869579Y-61503300D01*
X58911377Y-61641094D01*
X58979256Y-61768086D01*
X59047720Y-61851509D01*
X59047723Y-61851512D01*
X59070606Y-61879395D01*
X59098489Y-61902278D01*
X59297717Y-62101506D01*
X59320605Y-62129395D01*
X59431914Y-62220744D01*
X59558905Y-62288623D01*
X59696699Y-62330422D01*
X59804099Y-62341000D01*
X59804108Y-62341000D01*
X59839999Y-62344535D01*
X59875890Y-62341000D01*
X94044109Y-62341000D01*
X94080000Y-62344535D01*
X94115891Y-62341000D01*
X94115901Y-62341000D01*
X94223301Y-62330422D01*
X94361095Y-62288623D01*
X94488086Y-62220744D01*
X94599395Y-62129395D01*
X94622282Y-62101507D01*
X95901516Y-60822274D01*
X95929394Y-60799395D01*
X95952274Y-60771516D01*
X95952280Y-60771510D01*
X96020744Y-60688087D01*
X96088623Y-60561095D01*
X96096996Y-60533492D01*
X96130422Y-60423301D01*
X96141000Y-60315901D01*
X96141000Y-60315892D01*
X96144535Y-60280001D01*
X96141000Y-60244110D01*
X96141000Y-59962843D01*
X96160000Y-59962843D01*
X96234689Y-59955487D01*
X96306508Y-59933701D01*
X96372696Y-59898322D01*
X96430711Y-59850711D01*
X96478322Y-59792696D01*
X96513701Y-59726508D01*
X96535487Y-59654689D01*
X96542843Y-59580000D01*
X96542843Y-56580000D01*
X96535487Y-56505311D01*
X96513701Y-56433492D01*
X96478322Y-56367304D01*
X96430711Y-56309289D01*
X96372696Y-56261678D01*
X96306508Y-56226299D01*
X96234689Y-56204513D01*
X96160000Y-56197157D01*
X94660000Y-56197157D01*
X94585311Y-56204513D01*
X94513492Y-56226299D01*
X94447304Y-56261678D01*
X94389289Y-56309289D01*
X94341678Y-56367304D01*
X94306299Y-56433492D01*
X94284513Y-56505311D01*
X94277157Y-56580000D01*
X94277157Y-59580000D01*
X94284513Y-59654689D01*
X94306299Y-59726508D01*
X94341678Y-59792696D01*
X94389289Y-59850711D01*
X94447304Y-59898322D01*
X94513492Y-59933701D01*
X94585311Y-59955487D01*
X94660000Y-59962843D01*
X94679000Y-59962843D01*
X94679000Y-59977210D01*
X93777211Y-60879000D01*
X61259873Y-60879000D01*
X61293676Y-60797391D01*
X61321000Y-60660027D01*
X61321000Y-60559236D01*
X62009237Y-59871000D01*
X81297157Y-59871000D01*
X81297157Y-60140000D01*
X81304513Y-60214689D01*
X81326299Y-60286508D01*
X81361678Y-60352696D01*
X81409289Y-60410711D01*
X81467304Y-60458322D01*
X81533492Y-60493701D01*
X81605311Y-60515487D01*
X81680000Y-60522843D01*
X84680000Y-60522843D01*
X84754689Y-60515487D01*
X84826508Y-60493701D01*
X84892696Y-60458322D01*
X84950711Y-60410711D01*
X84998322Y-60352696D01*
X85033701Y-60286508D01*
X85055487Y-60214689D01*
X85062843Y-60140000D01*
X85062843Y-58640000D01*
X85055487Y-58565311D01*
X85033701Y-58493492D01*
X84998322Y-58427304D01*
X84950711Y-58369289D01*
X84939392Y-58360000D01*
X84950711Y-58350711D01*
X84998322Y-58292696D01*
X85033701Y-58226508D01*
X85055487Y-58154689D01*
X85062843Y-58080000D01*
X85062843Y-56580000D01*
X85055487Y-56505311D01*
X85033701Y-56433492D01*
X84998322Y-56367304D01*
X84950711Y-56309289D01*
X84892696Y-56261678D01*
X84826508Y-56226299D01*
X84754689Y-56204513D01*
X84680000Y-56197157D01*
X81680000Y-56197157D01*
X81605311Y-56204513D01*
X81533492Y-56226299D01*
X81467304Y-56261678D01*
X81409289Y-56309289D01*
X81361678Y-56367304D01*
X81326299Y-56433492D01*
X81304513Y-56505311D01*
X81297157Y-56580000D01*
X81297157Y-56849000D01*
X67409237Y-56849000D01*
X66406830Y-55846594D01*
X66402239Y-55841000D01*
X86280764Y-55841000D01*
X88843175Y-58403412D01*
X88858236Y-58421764D01*
X88931478Y-58481872D01*
X89015039Y-58526536D01*
X89066621Y-58542183D01*
X89105707Y-58554040D01*
X89200000Y-58563327D01*
X89223626Y-58561000D01*
X90767157Y-58561000D01*
X90767157Y-59580000D01*
X90774513Y-59654689D01*
X90796299Y-59726508D01*
X90831678Y-59792696D01*
X90879289Y-59850711D01*
X90937304Y-59898322D01*
X91003492Y-59933701D01*
X91075311Y-59955487D01*
X91150000Y-59962843D01*
X92650000Y-59962843D01*
X92724689Y-59955487D01*
X92796508Y-59933701D01*
X92862696Y-59898322D01*
X92920711Y-59850711D01*
X92968322Y-59792696D01*
X93003701Y-59726508D01*
X93025487Y-59654689D01*
X93032843Y-59580000D01*
X93032843Y-56580000D01*
X93025487Y-56505311D01*
X93003701Y-56433492D01*
X92968322Y-56367304D01*
X92920711Y-56309289D01*
X92862696Y-56261678D01*
X92796508Y-56226299D01*
X92724689Y-56204513D01*
X92650000Y-56197157D01*
X91150000Y-56197157D01*
X91075311Y-56204513D01*
X91003492Y-56226299D01*
X90937304Y-56261678D01*
X90879289Y-56309289D01*
X90831678Y-56367304D01*
X90796299Y-56433492D01*
X90774513Y-56505311D01*
X90767157Y-56580000D01*
X90767157Y-57599000D01*
X89399237Y-57599000D01*
X86836830Y-55036594D01*
X86821764Y-55018236D01*
X86748522Y-54958128D01*
X86664961Y-54913464D01*
X86574292Y-54885960D01*
X86503626Y-54879000D01*
X86480000Y-54876673D01*
X86456374Y-54879000D01*
X55724506Y-54879000D01*
X55653236Y-54807730D01*
X55536785Y-54729920D01*
X55407391Y-54676324D01*
X55270027Y-54649000D01*
X55129973Y-54649000D01*
X54992609Y-54676324D01*
X54863215Y-54729920D01*
X54746764Y-54807730D01*
X54647730Y-54906764D01*
X54569920Y-55023215D01*
X54516324Y-55152609D01*
X54489000Y-55289973D01*
X54489000Y-55430027D01*
X54516324Y-55567391D01*
X54566695Y-55689000D01*
X52693623Y-55689000D01*
X52669999Y-55686673D01*
X52646375Y-55689000D01*
X52646374Y-55689000D01*
X52575708Y-55695960D01*
X52485039Y-55723464D01*
X52401478Y-55768128D01*
X52328236Y-55828236D01*
X52313175Y-55846589D01*
X51635764Y-56524000D01*
X50472784Y-56524000D01*
X50460711Y-56509289D01*
X50402696Y-56461678D01*
X50336508Y-56426299D01*
X50264689Y-56404513D01*
X50190000Y-56397157D01*
X48690000Y-56397157D01*
X48615311Y-56404513D01*
X48543492Y-56426299D01*
X48477304Y-56461678D01*
X48419289Y-56509289D01*
X48371678Y-56567304D01*
X48336299Y-56633492D01*
X48314513Y-56705311D01*
X48307157Y-56780000D01*
X48307157Y-57230000D01*
X48314513Y-57304689D01*
X48322191Y-57330000D01*
X48314513Y-57355311D01*
X48307157Y-57430000D01*
X48307157Y-57880000D01*
X48314513Y-57954689D01*
X48322191Y-57980000D01*
X48314513Y-58005311D01*
X48307157Y-58080000D01*
X48307157Y-58530000D01*
X48314513Y-58604689D01*
X48322191Y-58630000D01*
X48314513Y-58655311D01*
X48307157Y-58730000D01*
X48307157Y-59124000D01*
X48218615Y-59124000D01*
X48194999Y-59121674D01*
X48171383Y-59124000D01*
X48171374Y-59124000D01*
X48100708Y-59130960D01*
X48010039Y-59158464D01*
X47926478Y-59203128D01*
X47853236Y-59263236D01*
X47838174Y-59281589D01*
X47530763Y-59589000D01*
X47429973Y-59589000D01*
X47292609Y-59616324D01*
X47163215Y-59669920D01*
X47046764Y-59747730D01*
X46947730Y-59846764D01*
X46869920Y-59963215D01*
X46816324Y-60092609D01*
X46789000Y-60229973D01*
X46789000Y-60370027D01*
X46816324Y-60507391D01*
X46869920Y-60636785D01*
X46947730Y-60753236D01*
X47046764Y-60852270D01*
X47163215Y-60930080D01*
X47292609Y-60983676D01*
X47429973Y-61011000D01*
X47570027Y-61011000D01*
X47707391Y-60983676D01*
X47836785Y-60930080D01*
X47953236Y-60852270D01*
X48052270Y-60753236D01*
X48130080Y-60636785D01*
X48183676Y-60507391D01*
X48211000Y-60370027D01*
X48211000Y-60269237D01*
X48307157Y-60173080D01*
X48307157Y-60480000D01*
X48314513Y-60554689D01*
X48322191Y-60580000D01*
X48314513Y-60605311D01*
X48307157Y-60680000D01*
X48307157Y-60823130D01*
X48245574Y-60872156D01*
X48164792Y-60967657D01*
X48104194Y-61077082D01*
X48066109Y-61196227D01*
X48055000Y-61298250D01*
X48213750Y-61457000D01*
X48493539Y-61457000D01*
X48543492Y-61483701D01*
X48615311Y-61505487D01*
X48690000Y-61512843D01*
X50190000Y-61512843D01*
X50264689Y-61505487D01*
X50336508Y-61483701D01*
X50386461Y-61457000D01*
X50666250Y-61457000D01*
X50825000Y-61298250D01*
X50813891Y-61196227D01*
X50775806Y-61077082D01*
X50715208Y-60967657D01*
X50634426Y-60872156D01*
X50572843Y-60823130D01*
X50572843Y-60680000D01*
X50565487Y-60605311D01*
X50557809Y-60580000D01*
X50565487Y-60554689D01*
X50572843Y-60480000D01*
X50572843Y-60030000D01*
X50565487Y-59955311D01*
X50557809Y-59930000D01*
X50565487Y-59904689D01*
X50572843Y-59830000D01*
X50572843Y-59537121D01*
X50590000Y-59538811D01*
X50618540Y-59536000D01*
X50703896Y-59527593D01*
X50813415Y-59494371D01*
X50914348Y-59440421D01*
X51002817Y-59367817D01*
X51021017Y-59345640D01*
X51300641Y-59066016D01*
X51322817Y-59047817D01*
X51395421Y-58959348D01*
X51429011Y-58896506D01*
X51429010Y-62641046D01*
X51426199Y-62669586D01*
X51429010Y-62698126D01*
X51429010Y-62858529D01*
X51429011Y-62858539D01*
X51429011Y-63962356D01*
X51387992Y-63974799D01*
X51321804Y-64010178D01*
X51263789Y-64057789D01*
X51236895Y-64090560D01*
X51235002Y-64084320D01*
X51176037Y-63974006D01*
X51096685Y-63877315D01*
X50999994Y-63797963D01*
X50889680Y-63738998D01*
X50769982Y-63702688D01*
X50645500Y-63690428D01*
X50613750Y-63693500D01*
X50455000Y-63852250D01*
X50455000Y-64773000D01*
X50475000Y-64773000D01*
X50475000Y-65027000D01*
X50455000Y-65027000D01*
X50455000Y-66403000D01*
X50475000Y-66403000D01*
X50475000Y-66657000D01*
X50455000Y-66657000D01*
X50455000Y-67577750D01*
X50613750Y-67736500D01*
X50645500Y-67739572D01*
X50769982Y-67727312D01*
X50889680Y-67691002D01*
X50999994Y-67632037D01*
X51096685Y-67552685D01*
X51176037Y-67455994D01*
X51235002Y-67345680D01*
X51236895Y-67339440D01*
X51263789Y-67372211D01*
X51321804Y-67419822D01*
X51387992Y-67455201D01*
X51429010Y-67467644D01*
X51429010Y-70327873D01*
X51178886Y-70577998D01*
X51130252Y-70577998D01*
X51260000Y-70448250D01*
X51249099Y-70347199D01*
X51211199Y-70227995D01*
X51150772Y-70118476D01*
X51070139Y-70022849D01*
X51007843Y-69973097D01*
X51007843Y-69830000D01*
X51000487Y-69755311D01*
X50992809Y-69730000D01*
X51000487Y-69704689D01*
X51007843Y-69630000D01*
X51007843Y-69180000D01*
X51000487Y-69105311D01*
X50992809Y-69080000D01*
X51000487Y-69054689D01*
X51007843Y-68980000D01*
X51007843Y-68530000D01*
X51000487Y-68455311D01*
X50978701Y-68383492D01*
X50943322Y-68317304D01*
X50895711Y-68259289D01*
X50837696Y-68211678D01*
X50771508Y-68176299D01*
X50699689Y-68154513D01*
X50625000Y-68147157D01*
X50197178Y-68147157D01*
X50196536Y-68145039D01*
X50151872Y-68061478D01*
X50091764Y-67988236D01*
X50073406Y-67973170D01*
X50018830Y-67918594D01*
X50003764Y-67900236D01*
X49930522Y-67840128D01*
X49846961Y-67795464D01*
X49756292Y-67767960D01*
X49702369Y-67762649D01*
X49662000Y-67758673D01*
X49638374Y-67761000D01*
X48226118Y-67761000D01*
X48199822Y-67711804D01*
X48152211Y-67653789D01*
X48119440Y-67626895D01*
X48125680Y-67625002D01*
X48235994Y-67566037D01*
X48332685Y-67486685D01*
X48412037Y-67389994D01*
X48471002Y-67279680D01*
X48507312Y-67159982D01*
X48513071Y-67101500D01*
X49372428Y-67101500D01*
X49384688Y-67225982D01*
X49420998Y-67345680D01*
X49479963Y-67455994D01*
X49559315Y-67552685D01*
X49656006Y-67632037D01*
X49766320Y-67691002D01*
X49886018Y-67727312D01*
X50010500Y-67739572D01*
X50042250Y-67736500D01*
X50201000Y-67577750D01*
X50201000Y-66657000D01*
X49534250Y-66657000D01*
X49375500Y-66815750D01*
X49372428Y-67101500D01*
X48513071Y-67101500D01*
X48519572Y-67035500D01*
X48516500Y-67003750D01*
X48357750Y-66845000D01*
X47437000Y-66845000D01*
X47437000Y-66865000D01*
X47183000Y-66865000D01*
X47183000Y-66845000D01*
X47163000Y-66845000D01*
X47163000Y-66591000D01*
X47183000Y-66591000D01*
X47183000Y-65924250D01*
X47437000Y-65924250D01*
X47437000Y-66591000D01*
X48357750Y-66591000D01*
X48516500Y-66432250D01*
X48519572Y-66400500D01*
X48507312Y-66276018D01*
X48471002Y-66156320D01*
X48412037Y-66046006D01*
X48332685Y-65949315D01*
X48235994Y-65869963D01*
X48125680Y-65810998D01*
X48005982Y-65774688D01*
X47881500Y-65762428D01*
X47595750Y-65765500D01*
X47437000Y-65924250D01*
X47183000Y-65924250D01*
X47024250Y-65765500D01*
X46738500Y-65762428D01*
X46614018Y-65774688D01*
X46494320Y-65810998D01*
X46384006Y-65869963D01*
X46287315Y-65949315D01*
X46231228Y-66017657D01*
X45118500Y-66017657D01*
X45043811Y-66025013D01*
X44971992Y-66046799D01*
X44905804Y-66082178D01*
X44847789Y-66129789D01*
X44800178Y-66187804D01*
X44773882Y-66237000D01*
X44082843Y-66237000D01*
X44082843Y-66030000D01*
X44075487Y-65955311D01*
X44053701Y-65883492D01*
X44018322Y-65817304D01*
X43970711Y-65759289D01*
X43912696Y-65711678D01*
X43846508Y-65676299D01*
X43774689Y-65654513D01*
X43700000Y-65647157D01*
X41072000Y-65647157D01*
X41072000Y-65471500D01*
X49372428Y-65471500D01*
X49384688Y-65595982D01*
X49420792Y-65715000D01*
X49384688Y-65834018D01*
X49372428Y-65958500D01*
X49375500Y-66244250D01*
X49534250Y-66403000D01*
X50201000Y-66403000D01*
X50201000Y-65027000D01*
X49534250Y-65027000D01*
X49375500Y-65185750D01*
X49372428Y-65471500D01*
X41072000Y-65471500D01*
X41072000Y-64328500D01*
X49372428Y-64328500D01*
X49375500Y-64614250D01*
X49534250Y-64773000D01*
X50201000Y-64773000D01*
X50201000Y-63852250D01*
X50042250Y-63693500D01*
X50010500Y-63690428D01*
X49886018Y-63702688D01*
X49766320Y-63738998D01*
X49656006Y-63797963D01*
X49559315Y-63877315D01*
X49479963Y-63974006D01*
X49420998Y-64084320D01*
X49384688Y-64204018D01*
X49372428Y-64328500D01*
X41072000Y-64328500D01*
X41072000Y-61811750D01*
X48055000Y-61811750D01*
X48066109Y-61913773D01*
X48104194Y-62032918D01*
X48164792Y-62142343D01*
X48245574Y-62237844D01*
X48343434Y-62315750D01*
X48454613Y-62373067D01*
X48574838Y-62407593D01*
X48699488Y-62418001D01*
X49154250Y-62415000D01*
X49313000Y-62256250D01*
X49313000Y-61653000D01*
X49567000Y-61653000D01*
X49567000Y-62256250D01*
X49725750Y-62415000D01*
X50180512Y-62418001D01*
X50305162Y-62407593D01*
X50425387Y-62373067D01*
X50536566Y-62315750D01*
X50634426Y-62237844D01*
X50715208Y-62142343D01*
X50775806Y-62032918D01*
X50813891Y-61913773D01*
X50825000Y-61811750D01*
X50666250Y-61653000D01*
X49567000Y-61653000D01*
X49313000Y-61653000D01*
X48213750Y-61653000D01*
X48055000Y-61811750D01*
X41072000Y-61811750D01*
X41072000Y-49040000D01*
X43331794Y-49040000D01*
X43334001Y-49062409D01*
X43334000Y-51977601D01*
X43331794Y-52000000D01*
X43340598Y-52089392D01*
X43366673Y-52175348D01*
X43409016Y-52254566D01*
X43465999Y-52324001D01*
X43535434Y-52380984D01*
X43614652Y-52423327D01*
X43700608Y-52449402D01*
X43790000Y-52458206D01*
X43812399Y-52456000D01*
X47567601Y-52456000D01*
X47590000Y-52458206D01*
X47679392Y-52449402D01*
X47765348Y-52423327D01*
X47844566Y-52380984D01*
X47914001Y-52324001D01*
X47970984Y-52254566D01*
X48013327Y-52175348D01*
X48039402Y-52089392D01*
X48046000Y-52022399D01*
X48046000Y-52022398D01*
X48048206Y-52000000D01*
X48046000Y-51977601D01*
X48046000Y-49062399D01*
X48048206Y-49040000D01*
X48039402Y-48950608D01*
X48013327Y-48864652D01*
X47970984Y-48785434D01*
X47914001Y-48715999D01*
X47844566Y-48659016D01*
X47765348Y-48616673D01*
X47679392Y-48590598D01*
X47612399Y-48584000D01*
X47590000Y-48581794D01*
X47567601Y-48584000D01*
X43812399Y-48584000D01*
X43790000Y-48581794D01*
X43767601Y-48584000D01*
X43700608Y-48590598D01*
X43614652Y-48616673D01*
X43535434Y-48659016D01*
X43465999Y-48715999D01*
X43409016Y-48785434D01*
X43366673Y-48864652D01*
X43340598Y-48950608D01*
X43331794Y-49040000D01*
X41072000Y-49040000D01*
X41072000Y-46616993D01*
X42667612Y-46616993D01*
X42733137Y-46855860D01*
X42980116Y-46971760D01*
X43244960Y-47037250D01*
X43517492Y-47049812D01*
X43787238Y-47008965D01*
X44043832Y-46916277D01*
X44156863Y-46855860D01*
X44222388Y-46616993D01*
X43445000Y-45839605D01*
X42667612Y-46616993D01*
X41072000Y-46616993D01*
X41072000Y-45732492D01*
X42055188Y-45732492D01*
X42096035Y-46002238D01*
X42188723Y-46258832D01*
X42249140Y-46371863D01*
X42488007Y-46437388D01*
X43265395Y-45660000D01*
X43624605Y-45660000D01*
X44401993Y-46437388D01*
X44640860Y-46371863D01*
X44756760Y-46124884D01*
X44822250Y-45860040D01*
X44834812Y-45587508D01*
X44828922Y-45548606D01*
X49934000Y-45548606D01*
X49934000Y-45771394D01*
X49977464Y-45989900D01*
X50062721Y-46195729D01*
X50186495Y-46380970D01*
X50344030Y-46538505D01*
X50529271Y-46662279D01*
X50735100Y-46747536D01*
X50953606Y-46791000D01*
X51176394Y-46791000D01*
X51394900Y-46747536D01*
X51600729Y-46662279D01*
X51668504Y-46616993D01*
X60447612Y-46616993D01*
X60513137Y-46855860D01*
X60760116Y-46971760D01*
X61024960Y-47037250D01*
X61297492Y-47049812D01*
X61567238Y-47008965D01*
X61823832Y-46916277D01*
X61936863Y-46855860D01*
X62002388Y-46616993D01*
X61225000Y-45839605D01*
X60447612Y-46616993D01*
X51668504Y-46616993D01*
X51785970Y-46538505D01*
X51943505Y-46380970D01*
X52067279Y-46195729D01*
X52152536Y-45989900D01*
X52196000Y-45771394D01*
X52196000Y-45732492D01*
X59835188Y-45732492D01*
X59876035Y-46002238D01*
X59968723Y-46258832D01*
X60029140Y-46371863D01*
X60268007Y-46437388D01*
X61045395Y-45660000D01*
X61404605Y-45660000D01*
X62181993Y-46437388D01*
X62420860Y-46371863D01*
X62536760Y-46124884D01*
X62602250Y-45860040D01*
X62614812Y-45587508D01*
X62573965Y-45317762D01*
X62481277Y-45061168D01*
X62420860Y-44948137D01*
X62181993Y-44882612D01*
X61404605Y-45660000D01*
X61045395Y-45660000D01*
X60268007Y-44882612D01*
X60029140Y-44948137D01*
X59913240Y-45195116D01*
X59847750Y-45459960D01*
X59835188Y-45732492D01*
X52196000Y-45732492D01*
X52196000Y-45548606D01*
X52152536Y-45330100D01*
X52067279Y-45124271D01*
X51943505Y-44939030D01*
X51785970Y-44781495D01*
X51668505Y-44703007D01*
X60447612Y-44703007D01*
X61225000Y-45480395D01*
X62002388Y-44703007D01*
X61936863Y-44464140D01*
X61689884Y-44348240D01*
X61425040Y-44282750D01*
X61152508Y-44270188D01*
X60882762Y-44311035D01*
X60626168Y-44403723D01*
X60513137Y-44464140D01*
X60447612Y-44703007D01*
X51668505Y-44703007D01*
X51600729Y-44657721D01*
X51394900Y-44572464D01*
X51176394Y-44529000D01*
X50953606Y-44529000D01*
X50735100Y-44572464D01*
X50529271Y-44657721D01*
X50344030Y-44781495D01*
X50186495Y-44939030D01*
X50062721Y-45124271D01*
X49977464Y-45330100D01*
X49934000Y-45548606D01*
X44828922Y-45548606D01*
X44793965Y-45317762D01*
X44701277Y-45061168D01*
X44640860Y-44948137D01*
X44401993Y-44882612D01*
X43624605Y-45660000D01*
X43265395Y-45660000D01*
X42488007Y-44882612D01*
X42249140Y-44948137D01*
X42133240Y-45195116D01*
X42067750Y-45459960D01*
X42055188Y-45732492D01*
X41072000Y-45732492D01*
X41072000Y-44703007D01*
X42667612Y-44703007D01*
X43445000Y-45480395D01*
X44222388Y-44703007D01*
X44156863Y-44464140D01*
X43909884Y-44348240D01*
X43645040Y-44282750D01*
X43372508Y-44270188D01*
X43102762Y-44311035D01*
X42846168Y-44403723D01*
X42733137Y-44464140D01*
X42667612Y-44703007D01*
X41072000Y-44703007D01*
X41072000Y-43008606D01*
X42314000Y-43008606D01*
X42314000Y-43231394D01*
X42357464Y-43449900D01*
X42442721Y-43655729D01*
X42566495Y-43840970D01*
X42724030Y-43998505D01*
X42909271Y-44122279D01*
X43115100Y-44207536D01*
X43333606Y-44251000D01*
X43556394Y-44251000D01*
X43774900Y-44207536D01*
X43980729Y-44122279D01*
X44165970Y-43998505D01*
X44323505Y-43840970D01*
X44447279Y-43655729D01*
X44532536Y-43449900D01*
X44576000Y-43231394D01*
X44576000Y-43008606D01*
X49934000Y-43008606D01*
X49934000Y-43231394D01*
X49977464Y-43449900D01*
X50062721Y-43655729D01*
X50186495Y-43840970D01*
X50344030Y-43998505D01*
X50529271Y-44122279D01*
X50735100Y-44207536D01*
X50953606Y-44251000D01*
X51176394Y-44251000D01*
X51394900Y-44207536D01*
X51600729Y-44122279D01*
X51785970Y-43998505D01*
X51943505Y-43840970D01*
X52067279Y-43655729D01*
X52152536Y-43449900D01*
X52196000Y-43231394D01*
X52196000Y-43008606D01*
X60094000Y-43008606D01*
X60094000Y-43231394D01*
X60137464Y-43449900D01*
X60222721Y-43655729D01*
X60346495Y-43840970D01*
X60504030Y-43998505D01*
X60689271Y-44122279D01*
X60895100Y-44207536D01*
X61113606Y-44251000D01*
X61336394Y-44251000D01*
X61554900Y-44207536D01*
X61760729Y-44122279D01*
X61945970Y-43998505D01*
X62103505Y-43840970D01*
X62227279Y-43655729D01*
X62312536Y-43449900D01*
X62356000Y-43231394D01*
X62356000Y-43008606D01*
X62312536Y-42790100D01*
X62227279Y-42584271D01*
X62103505Y-42399030D01*
X61945970Y-42241495D01*
X61760729Y-42117721D01*
X61554900Y-42032464D01*
X61336394Y-41989000D01*
X61113606Y-41989000D01*
X60895100Y-42032464D01*
X60689271Y-42117721D01*
X60504030Y-42241495D01*
X60346495Y-42399030D01*
X60222721Y-42584271D01*
X60137464Y-42790100D01*
X60094000Y-43008606D01*
X52196000Y-43008606D01*
X52152536Y-42790100D01*
X52067279Y-42584271D01*
X51943505Y-42399030D01*
X51785970Y-42241495D01*
X51600729Y-42117721D01*
X51394900Y-42032464D01*
X51176394Y-41989000D01*
X50953606Y-41989000D01*
X50735100Y-42032464D01*
X50529271Y-42117721D01*
X50344030Y-42241495D01*
X50186495Y-42399030D01*
X50062721Y-42584271D01*
X49977464Y-42790100D01*
X49934000Y-43008606D01*
X44576000Y-43008606D01*
X44532536Y-42790100D01*
X44447279Y-42584271D01*
X44323505Y-42399030D01*
X44165970Y-42241495D01*
X43980729Y-42117721D01*
X43774900Y-42032464D01*
X43556394Y-41989000D01*
X43333606Y-41989000D01*
X43115100Y-42032464D01*
X42909271Y-42117721D01*
X42724030Y-42241495D01*
X42566495Y-42399030D01*
X42442721Y-42584271D01*
X42357464Y-42790100D01*
X42314000Y-43008606D01*
X41072000Y-43008606D01*
X41072000Y-40468606D01*
X42314000Y-40468606D01*
X42314000Y-40691394D01*
X42357464Y-40909900D01*
X42442721Y-41115729D01*
X42566495Y-41300970D01*
X42724030Y-41458505D01*
X42909271Y-41582279D01*
X43115100Y-41667536D01*
X43333606Y-41711000D01*
X43556394Y-41711000D01*
X43774900Y-41667536D01*
X43980729Y-41582279D01*
X44165970Y-41458505D01*
X44323505Y-41300970D01*
X44447279Y-41115729D01*
X44532536Y-40909900D01*
X44576000Y-40691394D01*
X44576000Y-40468606D01*
X49934000Y-40468606D01*
X49934000Y-40691394D01*
X49977464Y-40909900D01*
X50062721Y-41115729D01*
X50186495Y-41300970D01*
X50344030Y-41458505D01*
X50529271Y-41582279D01*
X50735100Y-41667536D01*
X50953606Y-41711000D01*
X51176394Y-41711000D01*
X51394900Y-41667536D01*
X51600729Y-41582279D01*
X51785970Y-41458505D01*
X51943505Y-41300970D01*
X52067279Y-41115729D01*
X52152536Y-40909900D01*
X52196000Y-40691394D01*
X52196000Y-40468606D01*
X60094000Y-40468606D01*
X60094000Y-40691394D01*
X60137464Y-40909900D01*
X60222721Y-41115729D01*
X60346495Y-41300970D01*
X60504030Y-41458505D01*
X60689271Y-41582279D01*
X60895100Y-41667536D01*
X61113606Y-41711000D01*
X61336394Y-41711000D01*
X61554900Y-41667536D01*
X61760729Y-41582279D01*
X61945970Y-41458505D01*
X62103505Y-41300970D01*
X62227279Y-41115729D01*
X62312536Y-40909900D01*
X62356000Y-40691394D01*
X62356000Y-40468606D01*
X62312536Y-40250100D01*
X62227279Y-40044271D01*
X62103505Y-39859030D01*
X61945970Y-39701495D01*
X61760729Y-39577721D01*
X61554900Y-39492464D01*
X61336394Y-39449000D01*
X61113606Y-39449000D01*
X60895100Y-39492464D01*
X60689271Y-39577721D01*
X60504030Y-39701495D01*
X60346495Y-39859030D01*
X60222721Y-40044271D01*
X60137464Y-40250100D01*
X60094000Y-40468606D01*
X52196000Y-40468606D01*
X52152536Y-40250100D01*
X52067279Y-40044271D01*
X51943505Y-39859030D01*
X51785970Y-39701495D01*
X51600729Y-39577721D01*
X51394900Y-39492464D01*
X51176394Y-39449000D01*
X50953606Y-39449000D01*
X50735100Y-39492464D01*
X50529271Y-39577721D01*
X50344030Y-39701495D01*
X50186495Y-39859030D01*
X50062721Y-40044271D01*
X49977464Y-40250100D01*
X49934000Y-40468606D01*
X44576000Y-40468606D01*
X44532536Y-40250100D01*
X44447279Y-40044271D01*
X44323505Y-39859030D01*
X44165970Y-39701495D01*
X43980729Y-39577721D01*
X43774900Y-39492464D01*
X43556394Y-39449000D01*
X43333606Y-39449000D01*
X43115100Y-39492464D01*
X42909271Y-39577721D01*
X42724030Y-39701495D01*
X42566495Y-39859030D01*
X42442721Y-40044271D01*
X42357464Y-40250100D01*
X42314000Y-40468606D01*
X41072000Y-40468606D01*
X41072000Y-37928606D01*
X42314000Y-37928606D01*
X42314000Y-38151394D01*
X42357464Y-38369900D01*
X42442721Y-38575729D01*
X42566495Y-38760970D01*
X42724030Y-38918505D01*
X42909271Y-39042279D01*
X43115100Y-39127536D01*
X43333606Y-39171000D01*
X43556394Y-39171000D01*
X43774900Y-39127536D01*
X43980729Y-39042279D01*
X44165970Y-38918505D01*
X44323505Y-38760970D01*
X44447279Y-38575729D01*
X44532536Y-38369900D01*
X44576000Y-38151394D01*
X44576000Y-37928606D01*
X49934000Y-37928606D01*
X49934000Y-38151394D01*
X49977464Y-38369900D01*
X50062721Y-38575729D01*
X50186495Y-38760970D01*
X50344030Y-38918505D01*
X50529271Y-39042279D01*
X50735100Y-39127536D01*
X50953606Y-39171000D01*
X51176394Y-39171000D01*
X51394900Y-39127536D01*
X51600729Y-39042279D01*
X51785970Y-38918505D01*
X51943505Y-38760970D01*
X52067279Y-38575729D01*
X52152536Y-38369900D01*
X52196000Y-38151394D01*
X52196000Y-37928606D01*
X60094000Y-37928606D01*
X60094000Y-38151394D01*
X60137464Y-38369900D01*
X60222721Y-38575729D01*
X60346495Y-38760970D01*
X60504030Y-38918505D01*
X60689271Y-39042279D01*
X60895100Y-39127536D01*
X61113606Y-39171000D01*
X61336394Y-39171000D01*
X61554900Y-39127536D01*
X61760729Y-39042279D01*
X61945970Y-38918505D01*
X62103505Y-38760970D01*
X62227279Y-38575729D01*
X62312536Y-38369900D01*
X62356000Y-38151394D01*
X62356000Y-37928606D01*
X62312536Y-37710100D01*
X62227279Y-37504271D01*
X62103505Y-37319030D01*
X61945970Y-37161495D01*
X61760729Y-37037721D01*
X61554900Y-36952464D01*
X61336394Y-36909000D01*
X61113606Y-36909000D01*
X60895100Y-36952464D01*
X60689271Y-37037721D01*
X60504030Y-37161495D01*
X60346495Y-37319030D01*
X60222721Y-37504271D01*
X60137464Y-37710100D01*
X60094000Y-37928606D01*
X52196000Y-37928606D01*
X52152536Y-37710100D01*
X52067279Y-37504271D01*
X51943505Y-37319030D01*
X51785970Y-37161495D01*
X51600729Y-37037721D01*
X51394900Y-36952464D01*
X51176394Y-36909000D01*
X50953606Y-36909000D01*
X50735100Y-36952464D01*
X50529271Y-37037721D01*
X50344030Y-37161495D01*
X50186495Y-37319030D01*
X50062721Y-37504271D01*
X49977464Y-37710100D01*
X49934000Y-37928606D01*
X44576000Y-37928606D01*
X44532536Y-37710100D01*
X44447279Y-37504271D01*
X44323505Y-37319030D01*
X44165970Y-37161495D01*
X43980729Y-37037721D01*
X43774900Y-36952464D01*
X43556394Y-36909000D01*
X43333606Y-36909000D01*
X43115100Y-36952464D01*
X42909271Y-37037721D01*
X42724030Y-37161495D01*
X42566495Y-37319030D01*
X42442721Y-37504271D01*
X42357464Y-37710100D01*
X42314000Y-37928606D01*
X41072000Y-37928606D01*
X41072000Y-35388606D01*
X42314000Y-35388606D01*
X42314000Y-35611394D01*
X42357464Y-35829900D01*
X42442721Y-36035729D01*
X42566495Y-36220970D01*
X42724030Y-36378505D01*
X42909271Y-36502279D01*
X43115100Y-36587536D01*
X43333606Y-36631000D01*
X43556394Y-36631000D01*
X43774900Y-36587536D01*
X43980729Y-36502279D01*
X44165970Y-36378505D01*
X44323505Y-36220970D01*
X44447279Y-36035729D01*
X44532536Y-35829900D01*
X44576000Y-35611394D01*
X44576000Y-35388606D01*
X49934000Y-35388606D01*
X49934000Y-35611394D01*
X49977464Y-35829900D01*
X50062721Y-36035729D01*
X50186495Y-36220970D01*
X50344030Y-36378505D01*
X50529271Y-36502279D01*
X50735100Y-36587536D01*
X50953606Y-36631000D01*
X51176394Y-36631000D01*
X51394900Y-36587536D01*
X51600729Y-36502279D01*
X51785970Y-36378505D01*
X51943505Y-36220970D01*
X52067279Y-36035729D01*
X52152536Y-35829900D01*
X52196000Y-35611394D01*
X52196000Y-35388606D01*
X60094000Y-35388606D01*
X60094000Y-35611394D01*
X60137464Y-35829900D01*
X60222721Y-36035729D01*
X60346495Y-36220970D01*
X60504030Y-36378505D01*
X60689271Y-36502279D01*
X60895100Y-36587536D01*
X61113606Y-36631000D01*
X61336394Y-36631000D01*
X61554900Y-36587536D01*
X61760729Y-36502279D01*
X61945970Y-36378505D01*
X62103505Y-36220970D01*
X62227279Y-36035729D01*
X62312536Y-35829900D01*
X62356000Y-35611394D01*
X62356000Y-35388606D01*
X62312536Y-35170100D01*
X62227279Y-34964271D01*
X62103505Y-34779030D01*
X61945970Y-34621495D01*
X61760729Y-34497721D01*
X61554900Y-34412464D01*
X61336394Y-34369000D01*
X61113606Y-34369000D01*
X60895100Y-34412464D01*
X60689271Y-34497721D01*
X60504030Y-34621495D01*
X60346495Y-34779030D01*
X60222721Y-34964271D01*
X60137464Y-35170100D01*
X60094000Y-35388606D01*
X52196000Y-35388606D01*
X52152536Y-35170100D01*
X52067279Y-34964271D01*
X51943505Y-34779030D01*
X51785970Y-34621495D01*
X51600729Y-34497721D01*
X51394900Y-34412464D01*
X51176394Y-34369000D01*
X50953606Y-34369000D01*
X50735100Y-34412464D01*
X50529271Y-34497721D01*
X50344030Y-34621495D01*
X50186495Y-34779030D01*
X50062721Y-34964271D01*
X49977464Y-35170100D01*
X49934000Y-35388606D01*
X44576000Y-35388606D01*
X44532536Y-35170100D01*
X44447279Y-34964271D01*
X44323505Y-34779030D01*
X44165970Y-34621495D01*
X43980729Y-34497721D01*
X43774900Y-34412464D01*
X43556394Y-34369000D01*
X43333606Y-34369000D01*
X43115100Y-34412464D01*
X42909271Y-34497721D01*
X42724030Y-34621495D01*
X42566495Y-34779030D01*
X42442721Y-34964271D01*
X42357464Y-35170100D01*
X42314000Y-35388606D01*
X41072000Y-35388606D01*
X41072000Y-31516000D01*
X68843221Y-31516000D01*
X68844631Y-34369000D01*
X68844631Y-34369000D01*
G37*
X68844631Y-34369000D02*
X68733606Y-34369000D01*
X68515100Y-34412464D01*
X68309271Y-34497721D01*
X68124030Y-34621495D01*
X67966495Y-34779030D01*
X67842721Y-34964271D01*
X67757464Y-35170100D01*
X67714000Y-35388606D01*
X67714000Y-35611394D01*
X67757464Y-35829900D01*
X67842721Y-36035729D01*
X67966495Y-36220970D01*
X68124030Y-36378505D01*
X68309271Y-36502279D01*
X68515100Y-36587536D01*
X68733606Y-36631000D01*
X68845749Y-36631000D01*
X68845886Y-36909000D01*
X68733606Y-36909000D01*
X68515100Y-36952464D01*
X68309271Y-37037721D01*
X68124030Y-37161495D01*
X67966495Y-37319030D01*
X67842721Y-37504271D01*
X67757464Y-37710100D01*
X67714000Y-37928606D01*
X67714000Y-38151394D01*
X67757464Y-38369900D01*
X67842721Y-38575729D01*
X67966495Y-38760970D01*
X68124030Y-38918505D01*
X68309271Y-39042279D01*
X68515100Y-39127536D01*
X68733606Y-39171000D01*
X68847005Y-39171000D01*
X68847142Y-39449000D01*
X68733606Y-39449000D01*
X68515100Y-39492464D01*
X68309271Y-39577721D01*
X68124030Y-39701495D01*
X67966495Y-39859030D01*
X67842721Y-40044271D01*
X67757464Y-40250100D01*
X67714000Y-40468606D01*
X67714000Y-40691394D01*
X67757464Y-40909900D01*
X67842721Y-41115729D01*
X67966495Y-41300970D01*
X68124030Y-41458505D01*
X68309271Y-41582279D01*
X68515100Y-41667536D01*
X68733606Y-41711000D01*
X68848260Y-41711000D01*
X68848398Y-41989000D01*
X68733606Y-41989000D01*
X68515100Y-42032464D01*
X68309271Y-42117721D01*
X68124030Y-42241495D01*
X67966495Y-42399030D01*
X67842721Y-42584271D01*
X67757464Y-42790100D01*
X67714000Y-43008606D01*
X67714000Y-43231394D01*
X67757464Y-43449900D01*
X67842721Y-43655729D01*
X67966495Y-43840970D01*
X68124030Y-43998505D01*
X68309271Y-44122279D01*
X68515100Y-44207536D01*
X68733606Y-44251000D01*
X68849516Y-44251000D01*
X68849653Y-44529000D01*
X68733606Y-44529000D01*
X68515100Y-44572464D01*
X68309271Y-44657721D01*
X68124030Y-44781495D01*
X67966495Y-44939030D01*
X67842721Y-45124271D01*
X67757464Y-45330100D01*
X67714000Y-45548606D01*
X67714000Y-45771394D01*
X67757464Y-45989900D01*
X67842721Y-46195729D01*
X67966495Y-46380970D01*
X68124030Y-46538505D01*
X68309271Y-46662279D01*
X68515100Y-46747536D01*
X68733606Y-46791000D01*
X68850771Y-46791000D01*
X68853000Y-51300063D01*
X68855453Y-51324838D01*
X68862691Y-51348659D01*
X68874438Y-51370610D01*
X68890242Y-51389847D01*
X68909495Y-51405632D01*
X68931457Y-51417357D01*
X68955285Y-51424572D01*
X68980000Y-51427000D01*
X69712006Y-51427000D01*
X69726673Y-51475348D01*
X69769016Y-51554566D01*
X69825999Y-51624001D01*
X69895434Y-51680984D01*
X69974652Y-51723327D01*
X70060608Y-51749402D01*
X70127601Y-51756000D01*
X70150000Y-51758206D01*
X70172399Y-51756000D01*
X110234000Y-51756000D01*
X110234001Y-94144000D01*
X41072000Y-94144000D01*
X41072000Y-90232492D01*
X81055188Y-90232492D01*
X81096035Y-90502238D01*
X81188723Y-90758832D01*
X81249140Y-90871863D01*
X81488007Y-90937388D01*
X82265395Y-90160000D01*
X81488007Y-89382612D01*
X81249140Y-89448137D01*
X81133240Y-89695116D01*
X81067750Y-89959960D01*
X81055188Y-90232492D01*
X41072000Y-90232492D01*
X41072000Y-77442843D01*
X43700000Y-77442843D01*
X43774689Y-77435487D01*
X43846508Y-77413701D01*
X43912696Y-77378322D01*
X43970711Y-77330711D01*
X44018322Y-77272696D01*
X44053701Y-77206508D01*
X44075487Y-77134689D01*
X44080583Y-77082951D01*
X44151895Y-77154263D01*
X44171657Y-77178343D01*
X44267739Y-77257196D01*
X44377358Y-77315789D01*
X44496302Y-77351870D01*
X44589002Y-77361000D01*
X44589009Y-77361000D01*
X44620000Y-77364052D01*
X44650990Y-77361000D01*
X51668632Y-77361000D01*
X54321899Y-80014268D01*
X54341657Y-80038343D01*
X54437739Y-80117196D01*
X54547358Y-80175789D01*
X54666302Y-80211870D01*
X54759002Y-80221000D01*
X54759009Y-80221000D01*
X54790000Y-80224052D01*
X54820990Y-80221000D01*
X58509010Y-80221000D01*
X58540000Y-80224052D01*
X58570990Y-80221000D01*
X58570998Y-80221000D01*
X58663698Y-80211870D01*
X58782642Y-80175789D01*
X58892261Y-80117196D01*
X58988343Y-80038343D01*
X59008105Y-80014263D01*
X59133762Y-79888606D01*
X81314000Y-79888606D01*
X81314000Y-80111394D01*
X81357464Y-80329900D01*
X81442721Y-80535729D01*
X81566495Y-80720970D01*
X81724030Y-80878505D01*
X81909271Y-81002279D01*
X82115100Y-81087536D01*
X82333606Y-81131000D01*
X82556394Y-81131000D01*
X82774900Y-81087536D01*
X82929001Y-81023705D01*
X82929001Y-81516295D01*
X82774900Y-81452464D01*
X82556394Y-81409000D01*
X82333606Y-81409000D01*
X82115100Y-81452464D01*
X81909271Y-81537721D01*
X81724030Y-81661495D01*
X81566495Y-81819030D01*
X81442721Y-82004271D01*
X81357464Y-82210100D01*
X81314000Y-82428606D01*
X81314000Y-82651394D01*
X81357464Y-82869900D01*
X81442721Y-83075729D01*
X81566495Y-83260970D01*
X81724030Y-83418505D01*
X81909271Y-83542279D01*
X82115100Y-83627536D01*
X82333606Y-83671000D01*
X82556394Y-83671000D01*
X82774900Y-83627536D01*
X82929001Y-83563706D01*
X82929001Y-84056294D01*
X82774900Y-83992464D01*
X82556394Y-83949000D01*
X82333606Y-83949000D01*
X82115100Y-83992464D01*
X81909271Y-84077721D01*
X81724030Y-84201495D01*
X81566495Y-84359030D01*
X81442721Y-84544271D01*
X81357464Y-84750100D01*
X81314000Y-84968606D01*
X81314000Y-85191394D01*
X81357464Y-85409900D01*
X81442721Y-85615729D01*
X81566495Y-85800970D01*
X81724030Y-85958505D01*
X81909271Y-86082279D01*
X82115100Y-86167536D01*
X82333606Y-86211000D01*
X82556394Y-86211000D01*
X82774900Y-86167536D01*
X82929000Y-86103706D01*
X82929000Y-86596294D01*
X82774900Y-86532464D01*
X82556394Y-86489000D01*
X82333606Y-86489000D01*
X82115100Y-86532464D01*
X81909271Y-86617721D01*
X81724030Y-86741495D01*
X81566495Y-86899030D01*
X81442721Y-87084271D01*
X81357464Y-87290100D01*
X81314000Y-87508606D01*
X81314000Y-87731394D01*
X81357464Y-87949900D01*
X81442721Y-88155729D01*
X81566495Y-88340970D01*
X81724030Y-88498505D01*
X81909271Y-88622279D01*
X82115100Y-88707536D01*
X82333606Y-88751000D01*
X82556394Y-88751000D01*
X82774900Y-88707536D01*
X82929000Y-88643706D01*
X82929000Y-88857211D01*
X82909884Y-88848240D01*
X82645040Y-88782750D01*
X82372508Y-88770188D01*
X82102762Y-88811035D01*
X81846168Y-88903723D01*
X81733137Y-88964140D01*
X81667612Y-89203007D01*
X82445000Y-89980395D01*
X82459143Y-89966253D01*
X82638748Y-90145858D01*
X82624605Y-90160000D01*
X82638748Y-90174143D01*
X82459143Y-90353748D01*
X82445000Y-90339605D01*
X81667612Y-91116993D01*
X81733137Y-91355860D01*
X81980116Y-91471760D01*
X82244960Y-91537250D01*
X82517492Y-91549812D01*
X82787238Y-91508965D01*
X82929000Y-91457757D01*
X82929000Y-91958832D01*
X82926915Y-91980000D01*
X82935237Y-92064491D01*
X82959882Y-92145734D01*
X82999903Y-92220609D01*
X83053763Y-92286237D01*
X83119391Y-92340097D01*
X83194266Y-92380118D01*
X83275509Y-92404763D01*
X83360000Y-92413085D01*
X83381168Y-92411000D01*
X89128832Y-92411000D01*
X89150000Y-92413085D01*
X89171168Y-92411000D01*
X89234491Y-92404763D01*
X89315734Y-92380118D01*
X89390609Y-92340097D01*
X89456237Y-92286237D01*
X89510097Y-92220609D01*
X89550118Y-92145734D01*
X89574763Y-92064491D01*
X89583085Y-91980000D01*
X89581000Y-91958832D01*
X89581000Y-91183706D01*
X89735100Y-91247536D01*
X89953606Y-91291000D01*
X90176394Y-91291000D01*
X90394900Y-91247536D01*
X90600729Y-91162279D01*
X90785970Y-91038505D01*
X90943505Y-90880970D01*
X91067279Y-90695729D01*
X91152536Y-90489900D01*
X91196000Y-90271394D01*
X91196000Y-90232492D01*
X98835188Y-90232492D01*
X98876035Y-90502238D01*
X98968723Y-90758832D01*
X99029140Y-90871863D01*
X99268007Y-90937388D01*
X100045395Y-90160000D01*
X99268007Y-89382612D01*
X99029140Y-89448137D01*
X98913240Y-89695116D01*
X98847750Y-89959960D01*
X98835188Y-90232492D01*
X91196000Y-90232492D01*
X91196000Y-90048606D01*
X91152536Y-89830100D01*
X91067279Y-89624271D01*
X90943505Y-89439030D01*
X90785970Y-89281495D01*
X90600729Y-89157721D01*
X90394900Y-89072464D01*
X90176394Y-89029000D01*
X89953606Y-89029000D01*
X89735100Y-89072464D01*
X89581000Y-89136294D01*
X89581000Y-88643706D01*
X89735100Y-88707536D01*
X89953606Y-88751000D01*
X90176394Y-88751000D01*
X90394900Y-88707536D01*
X90600729Y-88622279D01*
X90785970Y-88498505D01*
X90943505Y-88340970D01*
X91067279Y-88155729D01*
X91152536Y-87949900D01*
X91196000Y-87731394D01*
X91196000Y-87508606D01*
X91152536Y-87290100D01*
X91067279Y-87084271D01*
X90943505Y-86899030D01*
X90785970Y-86741495D01*
X90600729Y-86617721D01*
X90394900Y-86532464D01*
X90176394Y-86489000D01*
X89953606Y-86489000D01*
X89735100Y-86532464D01*
X89581000Y-86596294D01*
X89581000Y-86103706D01*
X89735100Y-86167536D01*
X89953606Y-86211000D01*
X90176394Y-86211000D01*
X90394900Y-86167536D01*
X90600729Y-86082279D01*
X90785970Y-85958505D01*
X90943505Y-85800970D01*
X91067279Y-85615729D01*
X91152536Y-85409900D01*
X91196000Y-85191394D01*
X91196000Y-84968606D01*
X91152536Y-84750100D01*
X91067279Y-84544271D01*
X90943505Y-84359030D01*
X90785970Y-84201495D01*
X90600729Y-84077721D01*
X90394900Y-83992464D01*
X90176394Y-83949000D01*
X89953606Y-83949000D01*
X89735100Y-83992464D01*
X89581000Y-84056294D01*
X89581000Y-83563706D01*
X89735100Y-83627536D01*
X89953606Y-83671000D01*
X90176394Y-83671000D01*
X90394900Y-83627536D01*
X90600729Y-83542279D01*
X90785970Y-83418505D01*
X90943505Y-83260970D01*
X91067279Y-83075729D01*
X91152536Y-82869900D01*
X91196000Y-82651394D01*
X91196000Y-82428606D01*
X91152536Y-82210100D01*
X91067279Y-82004271D01*
X90943505Y-81819030D01*
X90785970Y-81661495D01*
X90600729Y-81537721D01*
X90394900Y-81452464D01*
X90176394Y-81409000D01*
X89953606Y-81409000D01*
X89735100Y-81452464D01*
X89581000Y-81516294D01*
X89581000Y-81023706D01*
X89735100Y-81087536D01*
X89953606Y-81131000D01*
X90176394Y-81131000D01*
X90394900Y-81087536D01*
X90600729Y-81002279D01*
X90785970Y-80878505D01*
X90943505Y-80720970D01*
X91067279Y-80535729D01*
X91152536Y-80329900D01*
X91196000Y-80111394D01*
X91196000Y-79888606D01*
X99094000Y-79888606D01*
X99094000Y-80111394D01*
X99137464Y-80329900D01*
X99222721Y-80535729D01*
X99346495Y-80720970D01*
X99504030Y-80878505D01*
X99689271Y-81002279D01*
X99895100Y-81087536D01*
X100113606Y-81131000D01*
X100336394Y-81131000D01*
X100554900Y-81087536D01*
X100709001Y-81023705D01*
X100709001Y-81516295D01*
X100554900Y-81452464D01*
X100336394Y-81409000D01*
X100113606Y-81409000D01*
X99895100Y-81452464D01*
X99689271Y-81537721D01*
X99504030Y-81661495D01*
X99346495Y-81819030D01*
X99222721Y-82004271D01*
X99137464Y-82210100D01*
X99094000Y-82428606D01*
X99094000Y-82651394D01*
X99137464Y-82869900D01*
X99222721Y-83075729D01*
X99346495Y-83260970D01*
X99504030Y-83418505D01*
X99689271Y-83542279D01*
X99895100Y-83627536D01*
X100113606Y-83671000D01*
X100336394Y-83671000D01*
X100554900Y-83627536D01*
X100709001Y-83563706D01*
X100709001Y-84056294D01*
X100554900Y-83992464D01*
X100336394Y-83949000D01*
X100113606Y-83949000D01*
X99895100Y-83992464D01*
X99689271Y-84077721D01*
X99504030Y-84201495D01*
X99346495Y-84359030D01*
X99222721Y-84544271D01*
X99137464Y-84750100D01*
X99094000Y-84968606D01*
X99094000Y-85191394D01*
X99137464Y-85409900D01*
X99222721Y-85615729D01*
X99346495Y-85800970D01*
X99504030Y-85958505D01*
X99689271Y-86082279D01*
X99895100Y-86167536D01*
X100113606Y-86211000D01*
X100336394Y-86211000D01*
X100554900Y-86167536D01*
X100709000Y-86103706D01*
X100709000Y-86596294D01*
X100554900Y-86532464D01*
X100336394Y-86489000D01*
X100113606Y-86489000D01*
X99895100Y-86532464D01*
X99689271Y-86617721D01*
X99504030Y-86741495D01*
X99346495Y-86899030D01*
X99222721Y-87084271D01*
X99137464Y-87290100D01*
X99094000Y-87508606D01*
X99094000Y-87731394D01*
X99137464Y-87949900D01*
X99222721Y-88155729D01*
X99346495Y-88340970D01*
X99504030Y-88498505D01*
X99689271Y-88622279D01*
X99895100Y-88707536D01*
X100113606Y-88751000D01*
X100336394Y-88751000D01*
X100554900Y-88707536D01*
X100709000Y-88643706D01*
X100709000Y-88857211D01*
X100689884Y-88848240D01*
X100425040Y-88782750D01*
X100152508Y-88770188D01*
X99882762Y-88811035D01*
X99626168Y-88903723D01*
X99513137Y-88964140D01*
X99447612Y-89203007D01*
X100225000Y-89980395D01*
X100239143Y-89966253D01*
X100418748Y-90145858D01*
X100404605Y-90160000D01*
X100418748Y-90174143D01*
X100239143Y-90353748D01*
X100225000Y-90339605D01*
X99447612Y-91116993D01*
X99513137Y-91355860D01*
X99760116Y-91471760D01*
X100024960Y-91537250D01*
X100297492Y-91549812D01*
X100567238Y-91508965D01*
X100709000Y-91457757D01*
X100709000Y-91958832D01*
X100706915Y-91980000D01*
X100715237Y-92064491D01*
X100739882Y-92145734D01*
X100779903Y-92220609D01*
X100833763Y-92286237D01*
X100899391Y-92340097D01*
X100974266Y-92380118D01*
X101055509Y-92404763D01*
X101140000Y-92413085D01*
X101161168Y-92411000D01*
X106918832Y-92411000D01*
X106940000Y-92413085D01*
X106961168Y-92411000D01*
X107024491Y-92404763D01*
X107105734Y-92380118D01*
X107180609Y-92340097D01*
X107246237Y-92286237D01*
X107300097Y-92220609D01*
X107340118Y-92145734D01*
X107364763Y-92064491D01*
X107373085Y-91980000D01*
X107371000Y-91958832D01*
X107371000Y-91187848D01*
X107515100Y-91247536D01*
X107733606Y-91291000D01*
X107956394Y-91291000D01*
X108174900Y-91247536D01*
X108380729Y-91162279D01*
X108565970Y-91038505D01*
X108723505Y-90880970D01*
X108847279Y-90695729D01*
X108932536Y-90489900D01*
X108976000Y-90271394D01*
X108976000Y-90048606D01*
X108932536Y-89830100D01*
X108847279Y-89624271D01*
X108723505Y-89439030D01*
X108565970Y-89281495D01*
X108380729Y-89157721D01*
X108174900Y-89072464D01*
X107956394Y-89029000D01*
X107733606Y-89029000D01*
X107515100Y-89072464D01*
X107371000Y-89132152D01*
X107371000Y-88647848D01*
X107515100Y-88707536D01*
X107733606Y-88751000D01*
X107956394Y-88751000D01*
X108174900Y-88707536D01*
X108380729Y-88622279D01*
X108565970Y-88498505D01*
X108723505Y-88340970D01*
X108847279Y-88155729D01*
X108932536Y-87949900D01*
X108976000Y-87731394D01*
X108976000Y-87508606D01*
X108932536Y-87290100D01*
X108847279Y-87084271D01*
X108723505Y-86899030D01*
X108565970Y-86741495D01*
X108380729Y-86617721D01*
X108174900Y-86532464D01*
X107956394Y-86489000D01*
X107733606Y-86489000D01*
X107515100Y-86532464D01*
X107371000Y-86592152D01*
X107371000Y-86107848D01*
X107515100Y-86167536D01*
X107733606Y-86211000D01*
X107956394Y-86211000D01*
X108174900Y-86167536D01*
X108380729Y-86082279D01*
X108565970Y-85958505D01*
X108723505Y-85800970D01*
X108847279Y-85615729D01*
X108932536Y-85409900D01*
X108976000Y-85191394D01*
X108976000Y-84968606D01*
X108932536Y-84750100D01*
X108847279Y-84544271D01*
X108723505Y-84359030D01*
X108565970Y-84201495D01*
X108380729Y-84077721D01*
X108174900Y-83992464D01*
X107956394Y-83949000D01*
X107733606Y-83949000D01*
X107515100Y-83992464D01*
X107371000Y-84052152D01*
X107371000Y-83567848D01*
X107515100Y-83627536D01*
X107733606Y-83671000D01*
X107956394Y-83671000D01*
X108174900Y-83627536D01*
X108380729Y-83542279D01*
X108565970Y-83418505D01*
X108723505Y-83260970D01*
X108847279Y-83075729D01*
X108932536Y-82869900D01*
X108976000Y-82651394D01*
X108976000Y-82428606D01*
X108932536Y-82210100D01*
X108847279Y-82004271D01*
X108723505Y-81819030D01*
X108565970Y-81661495D01*
X108380729Y-81537721D01*
X108174900Y-81452464D01*
X107956394Y-81409000D01*
X107733606Y-81409000D01*
X107515100Y-81452464D01*
X107371000Y-81512152D01*
X107371000Y-81027848D01*
X107515100Y-81087536D01*
X107733606Y-81131000D01*
X107956394Y-81131000D01*
X108174900Y-81087536D01*
X108380729Y-81002279D01*
X108565970Y-80878505D01*
X108723505Y-80720970D01*
X108847279Y-80535729D01*
X108932536Y-80329900D01*
X108976000Y-80111394D01*
X108976000Y-79888606D01*
X108932536Y-79670100D01*
X108847279Y-79464271D01*
X108723505Y-79279030D01*
X108565970Y-79121495D01*
X108380729Y-78997721D01*
X108174900Y-78912464D01*
X107956394Y-78869000D01*
X107733606Y-78869000D01*
X107515100Y-78912464D01*
X107371000Y-78972152D01*
X107371000Y-78201168D01*
X107373085Y-78180000D01*
X107364763Y-78095509D01*
X107340118Y-78014266D01*
X107300097Y-77939391D01*
X107246237Y-77873763D01*
X107180609Y-77819903D01*
X107105734Y-77779882D01*
X107024491Y-77755237D01*
X106961168Y-77749000D01*
X106940000Y-77746915D01*
X106918832Y-77749000D01*
X101161168Y-77749000D01*
X101140000Y-77746915D01*
X101118832Y-77749000D01*
X101055509Y-77755237D01*
X100974266Y-77779882D01*
X100899391Y-77819903D01*
X100833763Y-77873763D01*
X100779903Y-77939391D01*
X100739882Y-78014266D01*
X100715237Y-78095509D01*
X100706915Y-78180000D01*
X100709001Y-78201179D01*
X100709001Y-78976295D01*
X100554900Y-78912464D01*
X100336394Y-78869000D01*
X100113606Y-78869000D01*
X99895100Y-78912464D01*
X99689271Y-78997721D01*
X99504030Y-79121495D01*
X99346495Y-79279030D01*
X99222721Y-79464271D01*
X99137464Y-79670100D01*
X99094000Y-79888606D01*
X91196000Y-79888606D01*
X91152536Y-79670100D01*
X91067279Y-79464271D01*
X90943505Y-79279030D01*
X90785970Y-79121495D01*
X90600729Y-78997721D01*
X90394900Y-78912464D01*
X90176394Y-78869000D01*
X89953606Y-78869000D01*
X89735100Y-78912464D01*
X89581000Y-78976294D01*
X89581000Y-78201168D01*
X89583085Y-78180000D01*
X89574763Y-78095509D01*
X89550118Y-78014266D01*
X89510097Y-77939391D01*
X89456237Y-77873763D01*
X89390609Y-77819903D01*
X89315734Y-77779882D01*
X89234491Y-77755237D01*
X89171168Y-77749000D01*
X89150000Y-77746915D01*
X89128832Y-77749000D01*
X83381168Y-77749000D01*
X83360000Y-77746915D01*
X83338832Y-77749000D01*
X83275509Y-77755237D01*
X83194266Y-77779882D01*
X83119391Y-77819903D01*
X83053763Y-77873763D01*
X82999903Y-77939391D01*
X82959882Y-78014266D01*
X82935237Y-78095509D01*
X82926915Y-78180000D01*
X82929001Y-78201179D01*
X82929001Y-78976295D01*
X82774900Y-78912464D01*
X82556394Y-78869000D01*
X82333606Y-78869000D01*
X82115100Y-78912464D01*
X81909271Y-78997721D01*
X81724030Y-79121495D01*
X81566495Y-79279030D01*
X81442721Y-79464271D01*
X81357464Y-79670100D01*
X81314000Y-79888606D01*
X59133762Y-79888606D01*
X61824269Y-77198100D01*
X61848343Y-77178343D01*
X61868104Y-77154265D01*
X61927196Y-77082261D01*
X61985789Y-76972642D01*
X62021870Y-76853698D01*
X62023495Y-76837196D01*
X62031000Y-76760998D01*
X62031000Y-76760991D01*
X62034052Y-76730000D01*
X62031000Y-76699010D01*
X62031000Y-74316483D01*
X62046189Y-74314987D01*
X62118008Y-74293201D01*
X62184196Y-74257822D01*
X62242211Y-74210211D01*
X62289822Y-74152196D01*
X62325201Y-74086008D01*
X62346987Y-74014189D01*
X62354343Y-73939500D01*
X62354343Y-73304500D01*
X62346987Y-73229811D01*
X62325201Y-73157992D01*
X62289822Y-73091804D01*
X62242211Y-73033789D01*
X62184196Y-72986178D01*
X62118008Y-72950799D01*
X62046189Y-72929013D01*
X61971500Y-72921657D01*
X60828500Y-72921657D01*
X60753811Y-72929013D01*
X60681992Y-72950799D01*
X60615804Y-72986178D01*
X60557789Y-73033789D01*
X60510178Y-73091804D01*
X60474799Y-73157992D01*
X60453013Y-73229811D01*
X60445657Y-73304500D01*
X60445657Y-73939500D01*
X60453013Y-74014189D01*
X60474799Y-74086008D01*
X60510178Y-74152196D01*
X60557789Y-74210211D01*
X60615804Y-74257822D01*
X60681992Y-74293201D01*
X60753811Y-74314987D01*
X60769001Y-74316483D01*
X60769000Y-76468631D01*
X58616452Y-78621180D01*
X58619572Y-78589500D01*
X58616500Y-78557750D01*
X58457750Y-78399000D01*
X57537000Y-78399000D01*
X57537000Y-78419000D01*
X57283000Y-78419000D01*
X57283000Y-78399000D01*
X55907000Y-78399000D01*
X55907000Y-78419000D01*
X55653000Y-78419000D01*
X55653000Y-78399000D01*
X54732250Y-78399000D01*
X54611809Y-78519441D01*
X52398103Y-76305735D01*
X52378343Y-76281657D01*
X52282261Y-76202804D01*
X52172642Y-76144211D01*
X52053698Y-76108130D01*
X51960998Y-76099000D01*
X51960990Y-76099000D01*
X51930000Y-76095948D01*
X51899010Y-76099000D01*
X44881368Y-76099000D01*
X44668105Y-75885737D01*
X44648343Y-75861657D01*
X44552261Y-75782804D01*
X44442642Y-75724211D01*
X44323698Y-75688130D01*
X44230998Y-75679000D01*
X44230990Y-75679000D01*
X44200000Y-75675948D01*
X44169010Y-75679000D01*
X44082843Y-75679000D01*
X44082843Y-75567272D01*
X44151185Y-75511185D01*
X44230537Y-75414494D01*
X44289502Y-75304180D01*
X44325812Y-75184482D01*
X44326105Y-75181500D01*
X44632428Y-75181500D01*
X44644688Y-75305982D01*
X44680998Y-75425680D01*
X44739963Y-75535994D01*
X44819315Y-75632685D01*
X44916006Y-75712037D01*
X45026320Y-75771002D01*
X45146018Y-75807312D01*
X45270500Y-75819572D01*
X45302250Y-75816500D01*
X45461000Y-75657750D01*
X45461000Y-74737000D01*
X44794250Y-74737000D01*
X44635500Y-74895750D01*
X44632428Y-75181500D01*
X44326105Y-75181500D01*
X44338072Y-75060000D01*
X44335000Y-74595750D01*
X44176250Y-74437000D01*
X42327000Y-74437000D01*
X42327000Y-74457000D01*
X42073000Y-74457000D01*
X42073000Y-74437000D01*
X42053000Y-74437000D01*
X42053000Y-74183000D01*
X42073000Y-74183000D01*
X42073000Y-73083750D01*
X42327000Y-73083750D01*
X42327000Y-74183000D01*
X44176250Y-74183000D01*
X44320750Y-74038500D01*
X44632428Y-74038500D01*
X44635500Y-74324250D01*
X44794250Y-74483000D01*
X45461000Y-74483000D01*
X45461000Y-74037750D01*
X45471000Y-74027750D01*
X45471000Y-73562250D01*
X45715000Y-73562250D01*
X45715000Y-74483000D01*
X45735000Y-74483000D01*
X45735000Y-74737000D01*
X45715000Y-74737000D01*
X45715000Y-75657750D01*
X45873750Y-75816500D01*
X45905500Y-75819572D01*
X46029982Y-75807312D01*
X46149680Y-75771002D01*
X46259994Y-75712037D01*
X46356685Y-75632685D01*
X46436037Y-75535994D01*
X46495002Y-75425680D01*
X46496895Y-75419440D01*
X46523789Y-75452211D01*
X46581804Y-75499822D01*
X46647992Y-75535201D01*
X46719811Y-75556987D01*
X46794500Y-75564343D01*
X47429500Y-75564343D01*
X47504189Y-75556987D01*
X47576008Y-75535201D01*
X47642196Y-75499822D01*
X47700211Y-75452211D01*
X47747822Y-75394196D01*
X47783201Y-75328008D01*
X47804987Y-75256189D01*
X47811900Y-75186000D01*
X48736071Y-75186000D01*
X48800311Y-75205487D01*
X48875000Y-75212843D01*
X50625000Y-75212843D01*
X50699689Y-75205487D01*
X50771508Y-75183701D01*
X50837696Y-75148322D01*
X50852305Y-75136333D01*
X50875000Y-75138568D01*
X50901074Y-75136000D01*
X50901084Y-75136000D01*
X50979094Y-75128317D01*
X51079188Y-75097953D01*
X51171435Y-75048646D01*
X51252290Y-74982290D01*
X51268921Y-74962025D01*
X51389946Y-74841000D01*
X51420027Y-74841000D01*
X51557391Y-74813676D01*
X51686785Y-74760080D01*
X51803236Y-74682270D01*
X51902270Y-74583236D01*
X51980080Y-74466785D01*
X52033676Y-74337391D01*
X52061000Y-74200027D01*
X52061000Y-74059973D01*
X52033676Y-73922609D01*
X51980080Y-73793215D01*
X51902270Y-73676764D01*
X51803236Y-73577730D01*
X51686785Y-73499920D01*
X51557391Y-73446324D01*
X51420027Y-73419000D01*
X51279973Y-73419000D01*
X51144248Y-73445998D01*
X51101250Y-73403000D01*
X50821461Y-73403000D01*
X50771508Y-73376299D01*
X50699689Y-73354513D01*
X50625000Y-73347157D01*
X48875000Y-73347157D01*
X48800311Y-73354513D01*
X48728492Y-73376299D01*
X48678539Y-73403000D01*
X48398750Y-73403000D01*
X48240000Y-73561750D01*
X48250901Y-73662801D01*
X48288801Y-73782005D01*
X48349228Y-73891524D01*
X48429861Y-73987151D01*
X48476001Y-74024000D01*
X47810915Y-74024000D01*
X47804987Y-73963811D01*
X47783201Y-73891992D01*
X47747822Y-73825804D01*
X47727542Y-73801093D01*
X47757822Y-73764196D01*
X47793201Y-73698008D01*
X47814987Y-73626189D01*
X47822343Y-73551500D01*
X47822343Y-72408500D01*
X47814987Y-72333811D01*
X47793201Y-72261992D01*
X47757822Y-72195804D01*
X47710211Y-72137789D01*
X47652196Y-72090178D01*
X47586008Y-72054799D01*
X47514189Y-72033013D01*
X47439500Y-72025657D01*
X46804500Y-72025657D01*
X46729811Y-72033013D01*
X46657992Y-72054799D01*
X46591804Y-72090178D01*
X46533789Y-72137789D01*
X46506895Y-72170560D01*
X46505002Y-72164320D01*
X46446037Y-72054006D01*
X46366685Y-71957315D01*
X46269994Y-71877963D01*
X46159680Y-71818998D01*
X46039982Y-71782688D01*
X45915500Y-71770428D01*
X45883750Y-71773500D01*
X45725000Y-71932250D01*
X45725000Y-72853000D01*
X45745000Y-72853000D01*
X45745000Y-73107000D01*
X45725000Y-73107000D01*
X45725000Y-73552250D01*
X45715000Y-73562250D01*
X45471000Y-73562250D01*
X45471000Y-73107000D01*
X44804250Y-73107000D01*
X44645500Y-73265750D01*
X44642428Y-73551500D01*
X44654688Y-73675982D01*
X44687114Y-73782877D01*
X44680998Y-73794320D01*
X44644688Y-73914018D01*
X44632428Y-74038500D01*
X44320750Y-74038500D01*
X44335000Y-74024250D01*
X44338072Y-73560000D01*
X44325812Y-73435518D01*
X44289502Y-73315820D01*
X44230537Y-73205506D01*
X44151185Y-73108815D01*
X44054494Y-73029463D01*
X43944180Y-72970498D01*
X43824482Y-72934188D01*
X43700000Y-72921928D01*
X42485750Y-72925000D01*
X42327000Y-73083750D01*
X42073000Y-73083750D01*
X41914250Y-72925000D01*
X41072000Y-72922869D01*
X41072000Y-72408500D01*
X44642428Y-72408500D01*
X44645500Y-72694250D01*
X44804250Y-72853000D01*
X45471000Y-72853000D01*
X45471000Y-71932250D01*
X45312250Y-71773500D01*
X45280500Y-71770428D01*
X45156018Y-71782688D01*
X45036320Y-71818998D01*
X44926006Y-71877963D01*
X44829315Y-71957315D01*
X44749963Y-72054006D01*
X44690998Y-72164320D01*
X44654688Y-72284018D01*
X44642428Y-72408500D01*
X41072000Y-72408500D01*
X41072000Y-70177131D01*
X41914250Y-70175000D01*
X42073000Y-70016250D01*
X42073000Y-68917000D01*
X42327000Y-68917000D01*
X42327000Y-70016250D01*
X42485750Y-70175000D01*
X43700000Y-70178072D01*
X43824482Y-70165812D01*
X43944180Y-70129502D01*
X44054494Y-70070537D01*
X44151185Y-69991185D01*
X44230537Y-69894494D01*
X44289502Y-69784180D01*
X44325812Y-69664482D01*
X44338072Y-69540000D01*
X44335000Y-69075750D01*
X44176250Y-68917000D01*
X42327000Y-68917000D01*
X42073000Y-68917000D01*
X42053000Y-68917000D01*
X42053000Y-68663000D01*
X42073000Y-68663000D01*
X42073000Y-68643000D01*
X42327000Y-68643000D01*
X42327000Y-68663000D01*
X44176250Y-68663000D01*
X44335000Y-68504250D01*
X44338072Y-68040000D01*
X44325812Y-67915518D01*
X44289502Y-67795820D01*
X44230537Y-67685506D01*
X44151185Y-67588815D01*
X44082594Y-67532524D01*
X44082843Y-67530000D01*
X44082843Y-67199000D01*
X44773882Y-67199000D01*
X44800178Y-67248196D01*
X44847789Y-67306211D01*
X44905804Y-67353822D01*
X44971992Y-67389201D01*
X45043811Y-67410987D01*
X45118500Y-67418343D01*
X46231228Y-67418343D01*
X46287315Y-67486685D01*
X46379137Y-67562041D01*
X46336189Y-67549013D01*
X46261500Y-67541657D01*
X45118500Y-67541657D01*
X45043811Y-67549013D01*
X44971992Y-67570799D01*
X44905804Y-67606178D01*
X44847789Y-67653789D01*
X44800178Y-67711804D01*
X44764799Y-67777992D01*
X44743013Y-67849811D01*
X44735657Y-67924500D01*
X44735657Y-68559500D01*
X44743013Y-68634189D01*
X44764799Y-68706008D01*
X44800178Y-68772196D01*
X44847789Y-68830211D01*
X44905804Y-68877822D01*
X44971992Y-68913201D01*
X45043811Y-68934987D01*
X45118500Y-68942343D01*
X46261500Y-68942343D01*
X46336189Y-68934987D01*
X46408008Y-68913201D01*
X46474196Y-68877822D01*
X46500000Y-68856646D01*
X46525804Y-68877822D01*
X46591992Y-68913201D01*
X46663811Y-68934987D01*
X46738500Y-68942343D01*
X47287230Y-68942343D01*
X47259920Y-68983215D01*
X47206324Y-69112609D01*
X47179000Y-69249973D01*
X47179000Y-69390027D01*
X47206324Y-69527391D01*
X47225630Y-69574000D01*
X47108350Y-69574000D01*
X47017391Y-69536324D01*
X46880027Y-69509000D01*
X46739973Y-69509000D01*
X46602609Y-69536324D01*
X46473215Y-69589920D01*
X46356764Y-69667730D01*
X46257730Y-69766764D01*
X46179920Y-69883215D01*
X46126324Y-70012609D01*
X46099000Y-70149973D01*
X46099000Y-70290027D01*
X46126324Y-70427391D01*
X46179920Y-70556785D01*
X46257730Y-70673236D01*
X46356764Y-70772270D01*
X46473215Y-70850080D01*
X46602609Y-70903676D01*
X46739973Y-70931000D01*
X46880027Y-70931000D01*
X47017391Y-70903676D01*
X47146785Y-70850080D01*
X47263236Y-70772270D01*
X47362270Y-70673236D01*
X47440080Y-70556785D01*
X47448689Y-70536000D01*
X48327750Y-70536000D01*
X48398750Y-70607000D01*
X48678539Y-70607000D01*
X48728492Y-70633701D01*
X48800311Y-70655487D01*
X48875000Y-70662843D01*
X49897000Y-70662843D01*
X49897000Y-70747157D01*
X48875000Y-70747157D01*
X48800311Y-70754513D01*
X48728492Y-70776299D01*
X48678539Y-70803000D01*
X48398750Y-70803000D01*
X48240000Y-70961750D01*
X48250901Y-71062801D01*
X48288801Y-71182005D01*
X48349228Y-71291524D01*
X48429861Y-71387151D01*
X48492157Y-71436903D01*
X48492157Y-71580000D01*
X48499513Y-71654689D01*
X48507191Y-71680000D01*
X48499513Y-71705311D01*
X48492157Y-71780000D01*
X48492157Y-72230000D01*
X48499513Y-72304689D01*
X48507191Y-72330000D01*
X48499513Y-72355311D01*
X48492157Y-72430000D01*
X48492157Y-72573097D01*
X48429861Y-72622849D01*
X48349228Y-72718476D01*
X48288801Y-72827995D01*
X48250901Y-72947199D01*
X48240000Y-73048250D01*
X48398750Y-73207000D01*
X48678539Y-73207000D01*
X48728492Y-73233701D01*
X48800311Y-73255487D01*
X48875000Y-73262843D01*
X50625000Y-73262843D01*
X50699689Y-73255487D01*
X50771508Y-73233701D01*
X50821461Y-73207000D01*
X51101250Y-73207000D01*
X51260000Y-73048250D01*
X51249099Y-72947199D01*
X51211199Y-72827995D01*
X51150772Y-72718476D01*
X51070139Y-72622849D01*
X51007843Y-72573097D01*
X51007843Y-72486000D01*
X52125764Y-72486000D01*
X53659000Y-74019236D01*
X53659000Y-74305494D01*
X53587730Y-74376764D01*
X53509920Y-74493215D01*
X53456324Y-74622609D01*
X53429000Y-74759973D01*
X53429000Y-74900027D01*
X53456324Y-75037391D01*
X53509920Y-75166785D01*
X53587730Y-75283236D01*
X53686764Y-75382270D01*
X53803215Y-75460080D01*
X53932609Y-75513676D01*
X54069973Y-75541000D01*
X54210027Y-75541000D01*
X54347391Y-75513676D01*
X54476785Y-75460080D01*
X54593236Y-75382270D01*
X54692270Y-75283236D01*
X54770080Y-75166785D01*
X54789000Y-75121106D01*
X54789001Y-76151450D01*
X54786189Y-76180000D01*
X54797407Y-76293895D01*
X54828889Y-76397679D01*
X54825657Y-76430500D01*
X54825657Y-77065500D01*
X54833013Y-77140189D01*
X54854799Y-77212008D01*
X54890178Y-77278196D01*
X54937789Y-77336211D01*
X54970560Y-77363105D01*
X54964320Y-77364998D01*
X54854006Y-77423963D01*
X54757315Y-77503315D01*
X54677963Y-77600006D01*
X54618998Y-77710320D01*
X54582688Y-77830018D01*
X54570428Y-77954500D01*
X54573500Y-77986250D01*
X54732250Y-78145000D01*
X55653000Y-78145000D01*
X55653000Y-78125000D01*
X55907000Y-78125000D01*
X55907000Y-78145000D01*
X57283000Y-78145000D01*
X57283000Y-78125000D01*
X57537000Y-78125000D01*
X57537000Y-78145000D01*
X58457750Y-78145000D01*
X58616500Y-77986250D01*
X58619572Y-77954500D01*
X58607312Y-77830018D01*
X58571002Y-77710320D01*
X58512037Y-77600006D01*
X58432685Y-77503315D01*
X58335994Y-77423963D01*
X58225680Y-77364998D01*
X58219440Y-77363105D01*
X58252211Y-77336211D01*
X58299822Y-77278196D01*
X58335201Y-77212008D01*
X58356987Y-77140189D01*
X58364343Y-77065500D01*
X58364343Y-76430500D01*
X58356987Y-76355811D01*
X58335201Y-76283992D01*
X58299822Y-76217804D01*
X58252211Y-76159789D01*
X58194196Y-76112178D01*
X58128008Y-76076799D01*
X58056189Y-76055013D01*
X57981500Y-76047657D01*
X56838500Y-76047657D01*
X56763811Y-76055013D01*
X56691992Y-76076799D01*
X56625804Y-76112178D01*
X56595000Y-76137458D01*
X56564196Y-76112178D01*
X56498008Y-76076799D01*
X56426189Y-76055013D01*
X56351500Y-76047657D01*
X56059315Y-76047657D01*
X55951000Y-75939343D01*
X55951000Y-75455143D01*
X55958860Y-75457413D01*
X56083493Y-75468015D01*
X56664250Y-75465000D01*
X56823000Y-75306250D01*
X56823000Y-74703000D01*
X57077000Y-74703000D01*
X57077000Y-75306250D01*
X57235750Y-75465000D01*
X57816507Y-75468015D01*
X57941140Y-75457413D01*
X58061311Y-75422700D01*
X58172400Y-75365209D01*
X58270139Y-75287151D01*
X58350772Y-75191524D01*
X58411199Y-75082005D01*
X58449099Y-74962801D01*
X58460000Y-74861750D01*
X58301250Y-74703000D01*
X57077000Y-74703000D01*
X56823000Y-74703000D01*
X56803000Y-74703000D01*
X56803000Y-74562843D01*
X57825000Y-74562843D01*
X57899689Y-74555487D01*
X57971508Y-74533701D01*
X58021461Y-74507000D01*
X58301250Y-74507000D01*
X58460000Y-74348250D01*
X58449099Y-74247199D01*
X58411199Y-74127995D01*
X58350772Y-74018476D01*
X58270139Y-73922849D01*
X58207843Y-73873097D01*
X58207843Y-73730000D01*
X58200487Y-73655311D01*
X58192809Y-73630000D01*
X58200487Y-73604689D01*
X58207843Y-73530000D01*
X58207843Y-73386903D01*
X58270139Y-73337151D01*
X58350772Y-73241524D01*
X58411199Y-73132005D01*
X58449099Y-73012801D01*
X58460000Y-72911750D01*
X58301250Y-72753000D01*
X58021461Y-72753000D01*
X57971508Y-72726299D01*
X57899689Y-72704513D01*
X57825000Y-72697157D01*
X56803000Y-72697157D01*
X56803000Y-72612843D01*
X57825000Y-72612843D01*
X57899689Y-72605487D01*
X57963929Y-72586000D01*
X58316460Y-72586000D01*
X58345000Y-72588811D01*
X58373540Y-72586000D01*
X58458896Y-72577593D01*
X58568415Y-72544371D01*
X58669348Y-72490421D01*
X58757817Y-72417817D01*
X58776017Y-72395640D01*
X58850640Y-72321017D01*
X58872817Y-72302817D01*
X58945421Y-72214348D01*
X58999371Y-72113414D01*
X59032593Y-72003895D01*
X59039414Y-71934647D01*
X59043811Y-71890000D01*
X59041000Y-71861460D01*
X59041000Y-71618539D01*
X59043811Y-71589999D01*
X59032593Y-71476104D01*
X58999371Y-71366585D01*
X58945421Y-71265652D01*
X58921086Y-71236000D01*
X60404554Y-71236000D01*
X60625531Y-71456978D01*
X60615804Y-71462178D01*
X60557789Y-71509789D01*
X60510178Y-71567804D01*
X60474799Y-71633992D01*
X60453013Y-71705811D01*
X60445657Y-71780500D01*
X60445657Y-72415500D01*
X60453013Y-72490189D01*
X60474799Y-72562008D01*
X60510178Y-72628196D01*
X60557789Y-72686211D01*
X60615804Y-72733822D01*
X60681992Y-72769201D01*
X60753811Y-72790987D01*
X60828500Y-72798343D01*
X61971500Y-72798343D01*
X62046189Y-72790987D01*
X62118008Y-72769201D01*
X62184196Y-72733822D01*
X62242211Y-72686211D01*
X62289822Y-72628196D01*
X62325201Y-72562008D01*
X62346987Y-72490189D01*
X62354343Y-72415500D01*
X62354343Y-71780500D01*
X62346987Y-71705811D01*
X62325201Y-71633992D01*
X62289822Y-71567804D01*
X62242211Y-71509789D01*
X62184196Y-71462178D01*
X62118008Y-71426799D01*
X62046189Y-71405013D01*
X61971500Y-71397657D01*
X61925410Y-71397657D01*
X61923317Y-71376406D01*
X61892953Y-71276312D01*
X61877992Y-71248322D01*
X61843646Y-71184064D01*
X61793918Y-71123470D01*
X61793912Y-71123464D01*
X61777290Y-71103210D01*
X61757035Y-71086587D01*
X61018421Y-70347975D01*
X61001790Y-70327710D01*
X60920935Y-70261354D01*
X60828688Y-70212047D01*
X60728594Y-70181683D01*
X60650584Y-70174000D01*
X60650574Y-70174000D01*
X60624500Y-70171432D01*
X60598426Y-70174000D01*
X59043023Y-70174000D01*
X59059371Y-70143414D01*
X59067863Y-70115420D01*
X59092593Y-70033896D01*
X59103811Y-69920000D01*
X59101000Y-69891460D01*
X59101000Y-69658539D01*
X59103811Y-69629999D01*
X59092593Y-69516104D01*
X59059371Y-69406585D01*
X59058523Y-69404999D01*
X59005421Y-69305652D01*
X58932817Y-69217183D01*
X58910641Y-69198984D01*
X58726017Y-69014360D01*
X58707817Y-68992183D01*
X58619348Y-68919579D01*
X58518415Y-68865629D01*
X58408896Y-68832407D01*
X58323540Y-68824000D01*
X58295000Y-68821189D01*
X58266460Y-68824000D01*
X57963929Y-68824000D01*
X57899689Y-68804513D01*
X57825000Y-68797157D01*
X56075000Y-68797157D01*
X56000311Y-68804513D01*
X55928492Y-68826299D01*
X55878539Y-68853000D01*
X55598750Y-68853000D01*
X55440000Y-69011750D01*
X55450901Y-69112801D01*
X55488801Y-69232005D01*
X55549228Y-69341524D01*
X55629861Y-69437151D01*
X55692157Y-69486903D01*
X55692157Y-69630000D01*
X55699513Y-69704689D01*
X55707191Y-69730000D01*
X55699513Y-69755311D01*
X55692157Y-69830000D01*
X55692157Y-69991413D01*
X55680027Y-69989000D01*
X55539973Y-69989000D01*
X55402609Y-70016324D01*
X55273215Y-70069920D01*
X55156764Y-70147730D01*
X55057730Y-70246764D01*
X54979920Y-70363215D01*
X54926324Y-70492609D01*
X54899000Y-70629973D01*
X54899000Y-70770027D01*
X54926324Y-70907391D01*
X54979920Y-71036785D01*
X55057730Y-71153236D01*
X55156764Y-71252270D01*
X55273215Y-71330080D01*
X55402609Y-71383676D01*
X55539973Y-71411000D01*
X55680027Y-71411000D01*
X55692157Y-71408587D01*
X55692157Y-71580000D01*
X55699513Y-71654689D01*
X55707191Y-71680000D01*
X55699513Y-71705311D01*
X55692157Y-71780000D01*
X55692157Y-71923097D01*
X55629861Y-71972849D01*
X55549228Y-72068476D01*
X55488801Y-72177995D01*
X55450901Y-72297199D01*
X55440000Y-72398250D01*
X55569748Y-72527998D01*
X55521114Y-72527998D01*
X54801000Y-71807885D01*
X54801000Y-69330657D01*
X55536704Y-68594954D01*
X55598750Y-68657000D01*
X56823000Y-68657000D01*
X56823000Y-68053750D01*
X57077000Y-68053750D01*
X57077000Y-68657000D01*
X58301250Y-68657000D01*
X58460000Y-68498250D01*
X58449099Y-68397199D01*
X58411199Y-68277995D01*
X58350772Y-68168476D01*
X58270139Y-68072849D01*
X58172400Y-67994791D01*
X58061311Y-67937300D01*
X57941140Y-67902587D01*
X57816507Y-67891985D01*
X57235750Y-67895000D01*
X57077000Y-68053750D01*
X56823000Y-68053750D01*
X56664250Y-67895000D01*
X56238866Y-67892792D01*
X56328645Y-67803013D01*
X56350817Y-67784817D01*
X56423421Y-67696348D01*
X56477371Y-67595415D01*
X56510593Y-67485896D01*
X56519000Y-67400540D01*
X56521401Y-67376158D01*
X56526211Y-67372211D01*
X56553105Y-67339440D01*
X56554998Y-67345680D01*
X56613963Y-67455994D01*
X56693315Y-67552685D01*
X56790006Y-67632037D01*
X56900320Y-67691002D01*
X57020018Y-67727312D01*
X57144500Y-67739572D01*
X57176250Y-67736500D01*
X57335000Y-67577750D01*
X57335000Y-66657000D01*
X57589000Y-66657000D01*
X57589000Y-67577750D01*
X57747750Y-67736500D01*
X57779500Y-67739572D01*
X57903982Y-67727312D01*
X58023680Y-67691002D01*
X58133994Y-67632037D01*
X58230685Y-67552685D01*
X58310037Y-67455994D01*
X58369002Y-67345680D01*
X58405312Y-67225982D01*
X58417572Y-67101500D01*
X58414500Y-66815750D01*
X58255750Y-66657000D01*
X57589000Y-66657000D01*
X57335000Y-66657000D01*
X57315000Y-66657000D01*
X57315000Y-66403000D01*
X57335000Y-66403000D01*
X57335000Y-65482250D01*
X57325000Y-65472250D01*
X57325000Y-65027000D01*
X57579000Y-65027000D01*
X57579000Y-65947750D01*
X57589000Y-65957750D01*
X57589000Y-66403000D01*
X58255750Y-66403000D01*
X58414500Y-66244250D01*
X58417572Y-65958500D01*
X58405312Y-65834018D01*
X58369002Y-65714320D01*
X58362886Y-65702877D01*
X58395312Y-65595982D01*
X58407572Y-65471500D01*
X58404500Y-65185750D01*
X58245750Y-65027000D01*
X57579000Y-65027000D01*
X57325000Y-65027000D01*
X57305000Y-65027000D01*
X57305000Y-64773000D01*
X57325000Y-64773000D01*
X57325000Y-64753000D01*
X57579000Y-64753000D01*
X57579000Y-64773000D01*
X58245750Y-64773000D01*
X58404500Y-64614250D01*
X58407572Y-64328500D01*
X58399939Y-64251000D01*
X95424109Y-64251000D01*
X95460000Y-64254535D01*
X95495891Y-64251000D01*
X95495901Y-64251000D01*
X95603301Y-64240422D01*
X95741095Y-64198623D01*
X95868086Y-64130744D01*
X95979395Y-64039395D01*
X96002282Y-64011507D01*
X98371522Y-61642269D01*
X98399394Y-61619395D01*
X98422269Y-61591522D01*
X98422281Y-61591510D01*
X98490744Y-61508087D01*
X98558623Y-61381095D01*
X98574454Y-61328906D01*
X98600422Y-61243301D01*
X98611000Y-61135901D01*
X98611000Y-61135891D01*
X98614535Y-61100000D01*
X98611000Y-61064109D01*
X98611000Y-56662789D01*
X100332790Y-54941000D01*
X100934756Y-54941000D01*
X100899391Y-54959903D01*
X100833763Y-55013763D01*
X100779903Y-55079391D01*
X100739882Y-55154266D01*
X100715237Y-55235509D01*
X100706915Y-55320000D01*
X100709001Y-55341179D01*
X100709001Y-56116295D01*
X100554900Y-56052464D01*
X100336394Y-56009000D01*
X100113606Y-56009000D01*
X99895100Y-56052464D01*
X99689271Y-56137721D01*
X99504030Y-56261495D01*
X99346495Y-56419030D01*
X99222721Y-56604271D01*
X99137464Y-56810100D01*
X99094000Y-57028606D01*
X99094000Y-57251394D01*
X99137464Y-57469900D01*
X99222721Y-57675729D01*
X99346495Y-57860970D01*
X99504030Y-58018505D01*
X99689271Y-58142279D01*
X99895100Y-58227536D01*
X100113606Y-58271000D01*
X100336394Y-58271000D01*
X100554900Y-58227536D01*
X100709001Y-58163705D01*
X100709001Y-58656295D01*
X100554900Y-58592464D01*
X100336394Y-58549000D01*
X100113606Y-58549000D01*
X99895100Y-58592464D01*
X99689271Y-58677721D01*
X99504030Y-58801495D01*
X99346495Y-58959030D01*
X99222721Y-59144271D01*
X99137464Y-59350100D01*
X99094000Y-59568606D01*
X99094000Y-59791394D01*
X99137464Y-60009900D01*
X99222721Y-60215729D01*
X99346495Y-60400970D01*
X99504030Y-60558505D01*
X99689271Y-60682279D01*
X99895100Y-60767536D01*
X100113606Y-60811000D01*
X100336394Y-60811000D01*
X100554900Y-60767536D01*
X100709001Y-60703706D01*
X100709001Y-61196294D01*
X100554900Y-61132464D01*
X100336394Y-61089000D01*
X100113606Y-61089000D01*
X99895100Y-61132464D01*
X99689271Y-61217721D01*
X99504030Y-61341495D01*
X99346495Y-61499030D01*
X99222721Y-61684271D01*
X99137464Y-61890100D01*
X99094000Y-62108606D01*
X99094000Y-62331394D01*
X99137464Y-62549900D01*
X99222721Y-62755729D01*
X99346495Y-62940970D01*
X99504030Y-63098505D01*
X99689271Y-63222279D01*
X99895100Y-63307536D01*
X100113606Y-63351000D01*
X100336394Y-63351000D01*
X100554900Y-63307536D01*
X100709000Y-63243706D01*
X100709000Y-63736294D01*
X100554900Y-63672464D01*
X100336394Y-63629000D01*
X100113606Y-63629000D01*
X99895100Y-63672464D01*
X99689271Y-63757721D01*
X99504030Y-63881495D01*
X99346495Y-64039030D01*
X99222721Y-64224271D01*
X99137464Y-64430100D01*
X99094000Y-64648606D01*
X99094000Y-64871394D01*
X99137464Y-65089900D01*
X99222721Y-65295729D01*
X99346495Y-65480970D01*
X99504030Y-65638505D01*
X99689271Y-65762279D01*
X99895100Y-65847536D01*
X100113606Y-65891000D01*
X100336394Y-65891000D01*
X100554900Y-65847536D01*
X100709000Y-65783706D01*
X100709000Y-66276294D01*
X100554900Y-66212464D01*
X100336394Y-66169000D01*
X100113606Y-66169000D01*
X99895100Y-66212464D01*
X99689271Y-66297721D01*
X99504030Y-66421495D01*
X99346495Y-66579030D01*
X99222721Y-66764271D01*
X99137464Y-66970100D01*
X99094000Y-67188606D01*
X99094000Y-67411394D01*
X99137464Y-67629900D01*
X99222721Y-67835729D01*
X99346495Y-68020970D01*
X99504030Y-68178505D01*
X99689271Y-68302279D01*
X99895100Y-68387536D01*
X100113606Y-68431000D01*
X100336394Y-68431000D01*
X100554900Y-68387536D01*
X100709000Y-68323706D01*
X100709000Y-69098832D01*
X100706915Y-69120000D01*
X100715237Y-69204491D01*
X100739882Y-69285734D01*
X100779903Y-69360609D01*
X100816334Y-69405000D01*
X100833763Y-69426237D01*
X100899391Y-69480097D01*
X100974266Y-69520118D01*
X101055509Y-69544763D01*
X101140000Y-69553085D01*
X101161168Y-69551000D01*
X106908832Y-69551000D01*
X106930000Y-69553085D01*
X106951168Y-69551000D01*
X107014491Y-69544763D01*
X107095734Y-69520118D01*
X107170609Y-69480097D01*
X107236237Y-69426237D01*
X107290097Y-69360609D01*
X107330118Y-69285734D01*
X107354763Y-69204491D01*
X107363085Y-69120000D01*
X107361000Y-69098832D01*
X107361000Y-68323706D01*
X107515100Y-68387536D01*
X107733606Y-68431000D01*
X107956394Y-68431000D01*
X108174900Y-68387536D01*
X108380729Y-68302279D01*
X108565970Y-68178505D01*
X108723505Y-68020970D01*
X108847279Y-67835729D01*
X108932536Y-67629900D01*
X108976000Y-67411394D01*
X108976000Y-67188606D01*
X108932536Y-66970100D01*
X108847279Y-66764271D01*
X108723505Y-66579030D01*
X108565970Y-66421495D01*
X108380729Y-66297721D01*
X108174900Y-66212464D01*
X107956394Y-66169000D01*
X107733606Y-66169000D01*
X107515100Y-66212464D01*
X107361000Y-66276294D01*
X107361000Y-65783706D01*
X107515100Y-65847536D01*
X107733606Y-65891000D01*
X107956394Y-65891000D01*
X108174900Y-65847536D01*
X108380729Y-65762279D01*
X108565970Y-65638505D01*
X108723505Y-65480970D01*
X108847279Y-65295729D01*
X108932536Y-65089900D01*
X108976000Y-64871394D01*
X108976000Y-64648606D01*
X108932536Y-64430100D01*
X108847279Y-64224271D01*
X108723505Y-64039030D01*
X108565970Y-63881495D01*
X108380729Y-63757721D01*
X108174900Y-63672464D01*
X107956394Y-63629000D01*
X107733606Y-63629000D01*
X107515100Y-63672464D01*
X107361000Y-63736294D01*
X107361000Y-63243706D01*
X107515100Y-63307536D01*
X107733606Y-63351000D01*
X107956394Y-63351000D01*
X108174900Y-63307536D01*
X108380729Y-63222279D01*
X108565970Y-63098505D01*
X108723505Y-62940970D01*
X108847279Y-62755729D01*
X108932536Y-62549900D01*
X108976000Y-62331394D01*
X108976000Y-62108606D01*
X108932536Y-61890100D01*
X108847279Y-61684271D01*
X108723505Y-61499030D01*
X108565970Y-61341495D01*
X108380729Y-61217721D01*
X108174900Y-61132464D01*
X107956394Y-61089000D01*
X107733606Y-61089000D01*
X107515100Y-61132464D01*
X107361000Y-61196294D01*
X107361000Y-60703706D01*
X107515100Y-60767536D01*
X107733606Y-60811000D01*
X107956394Y-60811000D01*
X108174900Y-60767536D01*
X108380729Y-60682279D01*
X108565970Y-60558505D01*
X108723505Y-60400970D01*
X108847279Y-60215729D01*
X108932536Y-60009900D01*
X108976000Y-59791394D01*
X108976000Y-59568606D01*
X108932536Y-59350100D01*
X108847279Y-59144271D01*
X108723505Y-58959030D01*
X108565970Y-58801495D01*
X108380729Y-58677721D01*
X108174900Y-58592464D01*
X107956394Y-58549000D01*
X107733606Y-58549000D01*
X107515100Y-58592464D01*
X107361000Y-58656294D01*
X107361000Y-58163706D01*
X107515100Y-58227536D01*
X107733606Y-58271000D01*
X107956394Y-58271000D01*
X108174900Y-58227536D01*
X108380729Y-58142279D01*
X108565970Y-58018505D01*
X108723505Y-57860970D01*
X108847279Y-57675729D01*
X108932536Y-57469900D01*
X108976000Y-57251394D01*
X108976000Y-57042791D01*
X109086516Y-56932275D01*
X109114394Y-56909396D01*
X109137272Y-56881519D01*
X109137280Y-56881511D01*
X109205743Y-56798088D01*
X109273622Y-56671096D01*
X109292578Y-56608605D01*
X109315421Y-56533302D01*
X109325999Y-56425902D01*
X109325999Y-56425892D01*
X109329534Y-56390001D01*
X109325999Y-56354110D01*
X109325999Y-54940892D01*
X109329534Y-54905001D01*
X109325999Y-54869110D01*
X109325999Y-54869100D01*
X109315421Y-54761700D01*
X109273622Y-54623906D01*
X109205744Y-54496916D01*
X109205743Y-54496914D01*
X109137280Y-54413491D01*
X109137268Y-54413479D01*
X109114393Y-54385606D01*
X109086520Y-54362732D01*
X108442280Y-53718493D01*
X108419393Y-53690605D01*
X108308084Y-53599256D01*
X108181093Y-53531377D01*
X108043299Y-53489578D01*
X107935899Y-53479000D01*
X107935889Y-53479000D01*
X107899998Y-53475465D01*
X107864107Y-53479000D01*
X100065890Y-53479000D01*
X100029999Y-53475465D01*
X99994108Y-53479000D01*
X99994099Y-53479000D01*
X99886699Y-53489578D01*
X99748905Y-53531377D01*
X99666148Y-53575612D01*
X99621913Y-53599256D01*
X99538490Y-53667720D01*
X99510605Y-53690605D01*
X99487722Y-53718488D01*
X97388489Y-55817722D01*
X97360606Y-55840605D01*
X97337723Y-55868488D01*
X97337720Y-55868491D01*
X97269256Y-55951914D01*
X97201377Y-56078906D01*
X97173745Y-56170000D01*
X97159579Y-56216699D01*
X97154891Y-56264293D01*
X97145465Y-56360000D01*
X97149001Y-56395901D01*
X97149000Y-60797209D01*
X95157211Y-62789000D01*
X56595891Y-62789000D01*
X56560000Y-62785465D01*
X56524109Y-62789000D01*
X56524099Y-62789000D01*
X56416699Y-62799578D01*
X56278905Y-62841377D01*
X56151913Y-62909256D01*
X56113270Y-62940970D01*
X56040605Y-63000605D01*
X56017722Y-63028488D01*
X55436489Y-63609722D01*
X55408606Y-63632605D01*
X55385723Y-63660488D01*
X55385720Y-63660491D01*
X55317256Y-63743914D01*
X55249377Y-63870906D01*
X55234818Y-63918903D01*
X55207578Y-64008699D01*
X55197000Y-64116099D01*
X55197000Y-64116109D01*
X55193465Y-64152000D01*
X55197000Y-64187891D01*
X55197000Y-64935900D01*
X55207578Y-65043300D01*
X55227657Y-65109492D01*
X55227657Y-65471500D01*
X55235013Y-65546189D01*
X55256799Y-65618008D01*
X55292178Y-65684196D01*
X55307001Y-65702258D01*
X55307000Y-65739928D01*
X55302178Y-65745804D01*
X55297223Y-65755074D01*
X55250211Y-65697789D01*
X55192196Y-65650178D01*
X55126008Y-65614799D01*
X55054189Y-65593013D01*
X54979500Y-65585657D01*
X54344500Y-65585657D01*
X54269811Y-65593013D01*
X54197992Y-65614799D01*
X54131804Y-65650178D01*
X54073789Y-65697789D01*
X54026178Y-65755804D01*
X53990799Y-65821992D01*
X53969013Y-65893811D01*
X53961657Y-65968500D01*
X53961657Y-67111500D01*
X53969013Y-67186189D01*
X53981346Y-67226847D01*
X53853215Y-67279920D01*
X53757882Y-67343620D01*
X53773822Y-67324196D01*
X53809201Y-67258008D01*
X53830987Y-67186189D01*
X53838343Y-67111500D01*
X53838343Y-65968500D01*
X53830987Y-65893811D01*
X53809201Y-65821992D01*
X53773822Y-65755804D01*
X53726211Y-65697789D01*
X53668196Y-65650178D01*
X53602008Y-65614799D01*
X53530189Y-65593013D01*
X53455500Y-65585657D01*
X52820500Y-65585657D01*
X52745811Y-65593013D01*
X52673992Y-65614799D01*
X52607804Y-65650178D01*
X52591010Y-65663960D01*
X52591010Y-62910243D01*
X54015254Y-61486000D01*
X54207157Y-61486000D01*
X54207157Y-61780000D01*
X54214513Y-61854689D01*
X54236299Y-61926508D01*
X54271678Y-61992696D01*
X54319289Y-62050711D01*
X54377304Y-62098322D01*
X54443492Y-62133701D01*
X54515311Y-62155487D01*
X54590000Y-62162843D01*
X56090000Y-62162843D01*
X56164689Y-62155487D01*
X56236508Y-62133701D01*
X56302696Y-62098322D01*
X56360711Y-62050711D01*
X56408322Y-61992696D01*
X56443701Y-61926508D01*
X56465487Y-61854689D01*
X56472843Y-61780000D01*
X56472843Y-61330000D01*
X56465487Y-61255311D01*
X56457809Y-61230000D01*
X56465487Y-61204689D01*
X56472843Y-61130000D01*
X56472843Y-60986870D01*
X56534426Y-60937844D01*
X56615208Y-60842343D01*
X56675806Y-60732918D01*
X56713891Y-60613773D01*
X56725000Y-60511750D01*
X56566250Y-60353000D01*
X56452582Y-60353000D01*
X56534426Y-60287844D01*
X56615208Y-60192343D01*
X56675806Y-60082918D01*
X56692473Y-60030777D01*
X56725000Y-59998250D01*
X56717568Y-59930000D01*
X56725000Y-59861750D01*
X56692473Y-59829223D01*
X56675806Y-59777082D01*
X56615208Y-59667657D01*
X56562208Y-59605000D01*
X56615208Y-59542343D01*
X56675806Y-59432918D01*
X56692473Y-59380777D01*
X56725000Y-59348250D01*
X56717568Y-59280000D01*
X56725000Y-59211750D01*
X56692473Y-59179223D01*
X56675806Y-59127082D01*
X56615208Y-59017657D01*
X56574474Y-58969500D01*
X57020428Y-58969500D01*
X57032688Y-59093982D01*
X57068998Y-59213680D01*
X57127963Y-59323994D01*
X57207315Y-59420685D01*
X57304006Y-59500037D01*
X57414320Y-59559002D01*
X57534018Y-59595312D01*
X57658500Y-59607572D01*
X57944250Y-59604500D01*
X58103000Y-59445750D01*
X58103000Y-58779000D01*
X57182250Y-58779000D01*
X57023500Y-58937750D01*
X57020428Y-58969500D01*
X56574474Y-58969500D01*
X56562208Y-58955000D01*
X56615208Y-58892343D01*
X56675806Y-58782918D01*
X56692473Y-58730777D01*
X56725000Y-58698250D01*
X56717568Y-58630000D01*
X56725000Y-58561750D01*
X56692473Y-58529223D01*
X56675806Y-58477082D01*
X56615208Y-58367657D01*
X56534426Y-58272156D01*
X56489009Y-58236000D01*
X56691460Y-58236000D01*
X56720000Y-58238811D01*
X56748540Y-58236000D01*
X56833896Y-58227593D01*
X56943415Y-58194371D01*
X57044348Y-58140421D01*
X57056933Y-58130093D01*
X57032688Y-58210018D01*
X57020428Y-58334500D01*
X57023500Y-58366250D01*
X57182250Y-58525000D01*
X58103000Y-58525000D01*
X58103000Y-58505000D01*
X58357000Y-58505000D01*
X58357000Y-58525000D01*
X58377000Y-58525000D01*
X58377000Y-58779000D01*
X58357000Y-58779000D01*
X58357000Y-59445750D01*
X58515750Y-59604500D01*
X58801500Y-59607572D01*
X58859001Y-59601909D01*
X58859001Y-61324099D01*
X58855465Y-61360000D01*
X58869579Y-61503300D01*
X58911377Y-61641094D01*
X58979256Y-61768086D01*
X59047720Y-61851509D01*
X59047723Y-61851512D01*
X59070606Y-61879395D01*
X59098489Y-61902278D01*
X59297717Y-62101506D01*
X59320605Y-62129395D01*
X59431914Y-62220744D01*
X59558905Y-62288623D01*
X59696699Y-62330422D01*
X59804099Y-62341000D01*
X59804108Y-62341000D01*
X59839999Y-62344535D01*
X59875890Y-62341000D01*
X94044109Y-62341000D01*
X94080000Y-62344535D01*
X94115891Y-62341000D01*
X94115901Y-62341000D01*
X94223301Y-62330422D01*
X94361095Y-62288623D01*
X94488086Y-62220744D01*
X94599395Y-62129395D01*
X94622282Y-62101507D01*
X95901516Y-60822274D01*
X95929394Y-60799395D01*
X95952274Y-60771516D01*
X95952280Y-60771510D01*
X96020744Y-60688087D01*
X96088623Y-60561095D01*
X96096996Y-60533492D01*
X96130422Y-60423301D01*
X96141000Y-60315901D01*
X96141000Y-60315892D01*
X96144535Y-60280001D01*
X96141000Y-60244110D01*
X96141000Y-59962843D01*
X96160000Y-59962843D01*
X96234689Y-59955487D01*
X96306508Y-59933701D01*
X96372696Y-59898322D01*
X96430711Y-59850711D01*
X96478322Y-59792696D01*
X96513701Y-59726508D01*
X96535487Y-59654689D01*
X96542843Y-59580000D01*
X96542843Y-56580000D01*
X96535487Y-56505311D01*
X96513701Y-56433492D01*
X96478322Y-56367304D01*
X96430711Y-56309289D01*
X96372696Y-56261678D01*
X96306508Y-56226299D01*
X96234689Y-56204513D01*
X96160000Y-56197157D01*
X94660000Y-56197157D01*
X94585311Y-56204513D01*
X94513492Y-56226299D01*
X94447304Y-56261678D01*
X94389289Y-56309289D01*
X94341678Y-56367304D01*
X94306299Y-56433492D01*
X94284513Y-56505311D01*
X94277157Y-56580000D01*
X94277157Y-59580000D01*
X94284513Y-59654689D01*
X94306299Y-59726508D01*
X94341678Y-59792696D01*
X94389289Y-59850711D01*
X94447304Y-59898322D01*
X94513492Y-59933701D01*
X94585311Y-59955487D01*
X94660000Y-59962843D01*
X94679000Y-59962843D01*
X94679000Y-59977210D01*
X93777211Y-60879000D01*
X61259873Y-60879000D01*
X61293676Y-60797391D01*
X61321000Y-60660027D01*
X61321000Y-60559236D01*
X62009237Y-59871000D01*
X81297157Y-59871000D01*
X81297157Y-60140000D01*
X81304513Y-60214689D01*
X81326299Y-60286508D01*
X81361678Y-60352696D01*
X81409289Y-60410711D01*
X81467304Y-60458322D01*
X81533492Y-60493701D01*
X81605311Y-60515487D01*
X81680000Y-60522843D01*
X84680000Y-60522843D01*
X84754689Y-60515487D01*
X84826508Y-60493701D01*
X84892696Y-60458322D01*
X84950711Y-60410711D01*
X84998322Y-60352696D01*
X85033701Y-60286508D01*
X85055487Y-60214689D01*
X85062843Y-60140000D01*
X85062843Y-58640000D01*
X85055487Y-58565311D01*
X85033701Y-58493492D01*
X84998322Y-58427304D01*
X84950711Y-58369289D01*
X84939392Y-58360000D01*
X84950711Y-58350711D01*
X84998322Y-58292696D01*
X85033701Y-58226508D01*
X85055487Y-58154689D01*
X85062843Y-58080000D01*
X85062843Y-56580000D01*
X85055487Y-56505311D01*
X85033701Y-56433492D01*
X84998322Y-56367304D01*
X84950711Y-56309289D01*
X84892696Y-56261678D01*
X84826508Y-56226299D01*
X84754689Y-56204513D01*
X84680000Y-56197157D01*
X81680000Y-56197157D01*
X81605311Y-56204513D01*
X81533492Y-56226299D01*
X81467304Y-56261678D01*
X81409289Y-56309289D01*
X81361678Y-56367304D01*
X81326299Y-56433492D01*
X81304513Y-56505311D01*
X81297157Y-56580000D01*
X81297157Y-56849000D01*
X67409237Y-56849000D01*
X66406830Y-55846594D01*
X66402239Y-55841000D01*
X86280764Y-55841000D01*
X88843175Y-58403412D01*
X88858236Y-58421764D01*
X88931478Y-58481872D01*
X89015039Y-58526536D01*
X89066621Y-58542183D01*
X89105707Y-58554040D01*
X89200000Y-58563327D01*
X89223626Y-58561000D01*
X90767157Y-58561000D01*
X90767157Y-59580000D01*
X90774513Y-59654689D01*
X90796299Y-59726508D01*
X90831678Y-59792696D01*
X90879289Y-59850711D01*
X90937304Y-59898322D01*
X91003492Y-59933701D01*
X91075311Y-59955487D01*
X91150000Y-59962843D01*
X92650000Y-59962843D01*
X92724689Y-59955487D01*
X92796508Y-59933701D01*
X92862696Y-59898322D01*
X92920711Y-59850711D01*
X92968322Y-59792696D01*
X93003701Y-59726508D01*
X93025487Y-59654689D01*
X93032843Y-59580000D01*
X93032843Y-56580000D01*
X93025487Y-56505311D01*
X93003701Y-56433492D01*
X92968322Y-56367304D01*
X92920711Y-56309289D01*
X92862696Y-56261678D01*
X92796508Y-56226299D01*
X92724689Y-56204513D01*
X92650000Y-56197157D01*
X91150000Y-56197157D01*
X91075311Y-56204513D01*
X91003492Y-56226299D01*
X90937304Y-56261678D01*
X90879289Y-56309289D01*
X90831678Y-56367304D01*
X90796299Y-56433492D01*
X90774513Y-56505311D01*
X90767157Y-56580000D01*
X90767157Y-57599000D01*
X89399237Y-57599000D01*
X86836830Y-55036594D01*
X86821764Y-55018236D01*
X86748522Y-54958128D01*
X86664961Y-54913464D01*
X86574292Y-54885960D01*
X86503626Y-54879000D01*
X86480000Y-54876673D01*
X86456374Y-54879000D01*
X55724506Y-54879000D01*
X55653236Y-54807730D01*
X55536785Y-54729920D01*
X55407391Y-54676324D01*
X55270027Y-54649000D01*
X55129973Y-54649000D01*
X54992609Y-54676324D01*
X54863215Y-54729920D01*
X54746764Y-54807730D01*
X54647730Y-54906764D01*
X54569920Y-55023215D01*
X54516324Y-55152609D01*
X54489000Y-55289973D01*
X54489000Y-55430027D01*
X54516324Y-55567391D01*
X54566695Y-55689000D01*
X52693623Y-55689000D01*
X52669999Y-55686673D01*
X52646375Y-55689000D01*
X52646374Y-55689000D01*
X52575708Y-55695960D01*
X52485039Y-55723464D01*
X52401478Y-55768128D01*
X52328236Y-55828236D01*
X52313175Y-55846589D01*
X51635764Y-56524000D01*
X50472784Y-56524000D01*
X50460711Y-56509289D01*
X50402696Y-56461678D01*
X50336508Y-56426299D01*
X50264689Y-56404513D01*
X50190000Y-56397157D01*
X48690000Y-56397157D01*
X48615311Y-56404513D01*
X48543492Y-56426299D01*
X48477304Y-56461678D01*
X48419289Y-56509289D01*
X48371678Y-56567304D01*
X48336299Y-56633492D01*
X48314513Y-56705311D01*
X48307157Y-56780000D01*
X48307157Y-57230000D01*
X48314513Y-57304689D01*
X48322191Y-57330000D01*
X48314513Y-57355311D01*
X48307157Y-57430000D01*
X48307157Y-57880000D01*
X48314513Y-57954689D01*
X48322191Y-57980000D01*
X48314513Y-58005311D01*
X48307157Y-58080000D01*
X48307157Y-58530000D01*
X48314513Y-58604689D01*
X48322191Y-58630000D01*
X48314513Y-58655311D01*
X48307157Y-58730000D01*
X48307157Y-59124000D01*
X48218615Y-59124000D01*
X48194999Y-59121674D01*
X48171383Y-59124000D01*
X48171374Y-59124000D01*
X48100708Y-59130960D01*
X48010039Y-59158464D01*
X47926478Y-59203128D01*
X47853236Y-59263236D01*
X47838174Y-59281589D01*
X47530763Y-59589000D01*
X47429973Y-59589000D01*
X47292609Y-59616324D01*
X47163215Y-59669920D01*
X47046764Y-59747730D01*
X46947730Y-59846764D01*
X46869920Y-59963215D01*
X46816324Y-60092609D01*
X46789000Y-60229973D01*
X46789000Y-60370027D01*
X46816324Y-60507391D01*
X46869920Y-60636785D01*
X46947730Y-60753236D01*
X47046764Y-60852270D01*
X47163215Y-60930080D01*
X47292609Y-60983676D01*
X47429973Y-61011000D01*
X47570027Y-61011000D01*
X47707391Y-60983676D01*
X47836785Y-60930080D01*
X47953236Y-60852270D01*
X48052270Y-60753236D01*
X48130080Y-60636785D01*
X48183676Y-60507391D01*
X48211000Y-60370027D01*
X48211000Y-60269237D01*
X48307157Y-60173080D01*
X48307157Y-60480000D01*
X48314513Y-60554689D01*
X48322191Y-60580000D01*
X48314513Y-60605311D01*
X48307157Y-60680000D01*
X48307157Y-60823130D01*
X48245574Y-60872156D01*
X48164792Y-60967657D01*
X48104194Y-61077082D01*
X48066109Y-61196227D01*
X48055000Y-61298250D01*
X48213750Y-61457000D01*
X48493539Y-61457000D01*
X48543492Y-61483701D01*
X48615311Y-61505487D01*
X48690000Y-61512843D01*
X50190000Y-61512843D01*
X50264689Y-61505487D01*
X50336508Y-61483701D01*
X50386461Y-61457000D01*
X50666250Y-61457000D01*
X50825000Y-61298250D01*
X50813891Y-61196227D01*
X50775806Y-61077082D01*
X50715208Y-60967657D01*
X50634426Y-60872156D01*
X50572843Y-60823130D01*
X50572843Y-60680000D01*
X50565487Y-60605311D01*
X50557809Y-60580000D01*
X50565487Y-60554689D01*
X50572843Y-60480000D01*
X50572843Y-60030000D01*
X50565487Y-59955311D01*
X50557809Y-59930000D01*
X50565487Y-59904689D01*
X50572843Y-59830000D01*
X50572843Y-59537121D01*
X50590000Y-59538811D01*
X50618540Y-59536000D01*
X50703896Y-59527593D01*
X50813415Y-59494371D01*
X50914348Y-59440421D01*
X51002817Y-59367817D01*
X51021017Y-59345640D01*
X51300641Y-59066016D01*
X51322817Y-59047817D01*
X51395421Y-58959348D01*
X51429011Y-58896506D01*
X51429010Y-62641046D01*
X51426199Y-62669586D01*
X51429010Y-62698126D01*
X51429010Y-62858529D01*
X51429011Y-62858539D01*
X51429011Y-63962356D01*
X51387992Y-63974799D01*
X51321804Y-64010178D01*
X51263789Y-64057789D01*
X51236895Y-64090560D01*
X51235002Y-64084320D01*
X51176037Y-63974006D01*
X51096685Y-63877315D01*
X50999994Y-63797963D01*
X50889680Y-63738998D01*
X50769982Y-63702688D01*
X50645500Y-63690428D01*
X50613750Y-63693500D01*
X50455000Y-63852250D01*
X50455000Y-64773000D01*
X50475000Y-64773000D01*
X50475000Y-65027000D01*
X50455000Y-65027000D01*
X50455000Y-66403000D01*
X50475000Y-66403000D01*
X50475000Y-66657000D01*
X50455000Y-66657000D01*
X50455000Y-67577750D01*
X50613750Y-67736500D01*
X50645500Y-67739572D01*
X50769982Y-67727312D01*
X50889680Y-67691002D01*
X50999994Y-67632037D01*
X51096685Y-67552685D01*
X51176037Y-67455994D01*
X51235002Y-67345680D01*
X51236895Y-67339440D01*
X51263789Y-67372211D01*
X51321804Y-67419822D01*
X51387992Y-67455201D01*
X51429010Y-67467644D01*
X51429010Y-70327873D01*
X51178886Y-70577998D01*
X51130252Y-70577998D01*
X51260000Y-70448250D01*
X51249099Y-70347199D01*
X51211199Y-70227995D01*
X51150772Y-70118476D01*
X51070139Y-70022849D01*
X51007843Y-69973097D01*
X51007843Y-69830000D01*
X51000487Y-69755311D01*
X50992809Y-69730000D01*
X51000487Y-69704689D01*
X51007843Y-69630000D01*
X51007843Y-69180000D01*
X51000487Y-69105311D01*
X50992809Y-69080000D01*
X51000487Y-69054689D01*
X51007843Y-68980000D01*
X51007843Y-68530000D01*
X51000487Y-68455311D01*
X50978701Y-68383492D01*
X50943322Y-68317304D01*
X50895711Y-68259289D01*
X50837696Y-68211678D01*
X50771508Y-68176299D01*
X50699689Y-68154513D01*
X50625000Y-68147157D01*
X50197178Y-68147157D01*
X50196536Y-68145039D01*
X50151872Y-68061478D01*
X50091764Y-67988236D01*
X50073406Y-67973170D01*
X50018830Y-67918594D01*
X50003764Y-67900236D01*
X49930522Y-67840128D01*
X49846961Y-67795464D01*
X49756292Y-67767960D01*
X49702369Y-67762649D01*
X49662000Y-67758673D01*
X49638374Y-67761000D01*
X48226118Y-67761000D01*
X48199822Y-67711804D01*
X48152211Y-67653789D01*
X48119440Y-67626895D01*
X48125680Y-67625002D01*
X48235994Y-67566037D01*
X48332685Y-67486685D01*
X48412037Y-67389994D01*
X48471002Y-67279680D01*
X48507312Y-67159982D01*
X48513071Y-67101500D01*
X49372428Y-67101500D01*
X49384688Y-67225982D01*
X49420998Y-67345680D01*
X49479963Y-67455994D01*
X49559315Y-67552685D01*
X49656006Y-67632037D01*
X49766320Y-67691002D01*
X49886018Y-67727312D01*
X50010500Y-67739572D01*
X50042250Y-67736500D01*
X50201000Y-67577750D01*
X50201000Y-66657000D01*
X49534250Y-66657000D01*
X49375500Y-66815750D01*
X49372428Y-67101500D01*
X48513071Y-67101500D01*
X48519572Y-67035500D01*
X48516500Y-67003750D01*
X48357750Y-66845000D01*
X47437000Y-66845000D01*
X47437000Y-66865000D01*
X47183000Y-66865000D01*
X47183000Y-66845000D01*
X47163000Y-66845000D01*
X47163000Y-66591000D01*
X47183000Y-66591000D01*
X47183000Y-65924250D01*
X47437000Y-65924250D01*
X47437000Y-66591000D01*
X48357750Y-66591000D01*
X48516500Y-66432250D01*
X48519572Y-66400500D01*
X48507312Y-66276018D01*
X48471002Y-66156320D01*
X48412037Y-66046006D01*
X48332685Y-65949315D01*
X48235994Y-65869963D01*
X48125680Y-65810998D01*
X48005982Y-65774688D01*
X47881500Y-65762428D01*
X47595750Y-65765500D01*
X47437000Y-65924250D01*
X47183000Y-65924250D01*
X47024250Y-65765500D01*
X46738500Y-65762428D01*
X46614018Y-65774688D01*
X46494320Y-65810998D01*
X46384006Y-65869963D01*
X46287315Y-65949315D01*
X46231228Y-66017657D01*
X45118500Y-66017657D01*
X45043811Y-66025013D01*
X44971992Y-66046799D01*
X44905804Y-66082178D01*
X44847789Y-66129789D01*
X44800178Y-66187804D01*
X44773882Y-66237000D01*
X44082843Y-66237000D01*
X44082843Y-66030000D01*
X44075487Y-65955311D01*
X44053701Y-65883492D01*
X44018322Y-65817304D01*
X43970711Y-65759289D01*
X43912696Y-65711678D01*
X43846508Y-65676299D01*
X43774689Y-65654513D01*
X43700000Y-65647157D01*
X41072000Y-65647157D01*
X41072000Y-65471500D01*
X49372428Y-65471500D01*
X49384688Y-65595982D01*
X49420792Y-65715000D01*
X49384688Y-65834018D01*
X49372428Y-65958500D01*
X49375500Y-66244250D01*
X49534250Y-66403000D01*
X50201000Y-66403000D01*
X50201000Y-65027000D01*
X49534250Y-65027000D01*
X49375500Y-65185750D01*
X49372428Y-65471500D01*
X41072000Y-65471500D01*
X41072000Y-64328500D01*
X49372428Y-64328500D01*
X49375500Y-64614250D01*
X49534250Y-64773000D01*
X50201000Y-64773000D01*
X50201000Y-63852250D01*
X50042250Y-63693500D01*
X50010500Y-63690428D01*
X49886018Y-63702688D01*
X49766320Y-63738998D01*
X49656006Y-63797963D01*
X49559315Y-63877315D01*
X49479963Y-63974006D01*
X49420998Y-64084320D01*
X49384688Y-64204018D01*
X49372428Y-64328500D01*
X41072000Y-64328500D01*
X41072000Y-61811750D01*
X48055000Y-61811750D01*
X48066109Y-61913773D01*
X48104194Y-62032918D01*
X48164792Y-62142343D01*
X48245574Y-62237844D01*
X48343434Y-62315750D01*
X48454613Y-62373067D01*
X48574838Y-62407593D01*
X48699488Y-62418001D01*
X49154250Y-62415000D01*
X49313000Y-62256250D01*
X49313000Y-61653000D01*
X49567000Y-61653000D01*
X49567000Y-62256250D01*
X49725750Y-62415000D01*
X50180512Y-62418001D01*
X50305162Y-62407593D01*
X50425387Y-62373067D01*
X50536566Y-62315750D01*
X50634426Y-62237844D01*
X50715208Y-62142343D01*
X50775806Y-62032918D01*
X50813891Y-61913773D01*
X50825000Y-61811750D01*
X50666250Y-61653000D01*
X49567000Y-61653000D01*
X49313000Y-61653000D01*
X48213750Y-61653000D01*
X48055000Y-61811750D01*
X41072000Y-61811750D01*
X41072000Y-49040000D01*
X43331794Y-49040000D01*
X43334001Y-49062409D01*
X43334000Y-51977601D01*
X43331794Y-52000000D01*
X43340598Y-52089392D01*
X43366673Y-52175348D01*
X43409016Y-52254566D01*
X43465999Y-52324001D01*
X43535434Y-52380984D01*
X43614652Y-52423327D01*
X43700608Y-52449402D01*
X43790000Y-52458206D01*
X43812399Y-52456000D01*
X47567601Y-52456000D01*
X47590000Y-52458206D01*
X47679392Y-52449402D01*
X47765348Y-52423327D01*
X47844566Y-52380984D01*
X47914001Y-52324001D01*
X47970984Y-52254566D01*
X48013327Y-52175348D01*
X48039402Y-52089392D01*
X48046000Y-52022399D01*
X48046000Y-52022398D01*
X48048206Y-52000000D01*
X48046000Y-51977601D01*
X48046000Y-49062399D01*
X48048206Y-49040000D01*
X48039402Y-48950608D01*
X48013327Y-48864652D01*
X47970984Y-48785434D01*
X47914001Y-48715999D01*
X47844566Y-48659016D01*
X47765348Y-48616673D01*
X47679392Y-48590598D01*
X47612399Y-48584000D01*
X47590000Y-48581794D01*
X47567601Y-48584000D01*
X43812399Y-48584000D01*
X43790000Y-48581794D01*
X43767601Y-48584000D01*
X43700608Y-48590598D01*
X43614652Y-48616673D01*
X43535434Y-48659016D01*
X43465999Y-48715999D01*
X43409016Y-48785434D01*
X43366673Y-48864652D01*
X43340598Y-48950608D01*
X43331794Y-49040000D01*
X41072000Y-49040000D01*
X41072000Y-46616993D01*
X42667612Y-46616993D01*
X42733137Y-46855860D01*
X42980116Y-46971760D01*
X43244960Y-47037250D01*
X43517492Y-47049812D01*
X43787238Y-47008965D01*
X44043832Y-46916277D01*
X44156863Y-46855860D01*
X44222388Y-46616993D01*
X43445000Y-45839605D01*
X42667612Y-46616993D01*
X41072000Y-46616993D01*
X41072000Y-45732492D01*
X42055188Y-45732492D01*
X42096035Y-46002238D01*
X42188723Y-46258832D01*
X42249140Y-46371863D01*
X42488007Y-46437388D01*
X43265395Y-45660000D01*
X43624605Y-45660000D01*
X44401993Y-46437388D01*
X44640860Y-46371863D01*
X44756760Y-46124884D01*
X44822250Y-45860040D01*
X44834812Y-45587508D01*
X44828922Y-45548606D01*
X49934000Y-45548606D01*
X49934000Y-45771394D01*
X49977464Y-45989900D01*
X50062721Y-46195729D01*
X50186495Y-46380970D01*
X50344030Y-46538505D01*
X50529271Y-46662279D01*
X50735100Y-46747536D01*
X50953606Y-46791000D01*
X51176394Y-46791000D01*
X51394900Y-46747536D01*
X51600729Y-46662279D01*
X51668504Y-46616993D01*
X60447612Y-46616993D01*
X60513137Y-46855860D01*
X60760116Y-46971760D01*
X61024960Y-47037250D01*
X61297492Y-47049812D01*
X61567238Y-47008965D01*
X61823832Y-46916277D01*
X61936863Y-46855860D01*
X62002388Y-46616993D01*
X61225000Y-45839605D01*
X60447612Y-46616993D01*
X51668504Y-46616993D01*
X51785970Y-46538505D01*
X51943505Y-46380970D01*
X52067279Y-46195729D01*
X52152536Y-45989900D01*
X52196000Y-45771394D01*
X52196000Y-45732492D01*
X59835188Y-45732492D01*
X59876035Y-46002238D01*
X59968723Y-46258832D01*
X60029140Y-46371863D01*
X60268007Y-46437388D01*
X61045395Y-45660000D01*
X61404605Y-45660000D01*
X62181993Y-46437388D01*
X62420860Y-46371863D01*
X62536760Y-46124884D01*
X62602250Y-45860040D01*
X62614812Y-45587508D01*
X62573965Y-45317762D01*
X62481277Y-45061168D01*
X62420860Y-44948137D01*
X62181993Y-44882612D01*
X61404605Y-45660000D01*
X61045395Y-45660000D01*
X60268007Y-44882612D01*
X60029140Y-44948137D01*
X59913240Y-45195116D01*
X59847750Y-45459960D01*
X59835188Y-45732492D01*
X52196000Y-45732492D01*
X52196000Y-45548606D01*
X52152536Y-45330100D01*
X52067279Y-45124271D01*
X51943505Y-44939030D01*
X51785970Y-44781495D01*
X51668505Y-44703007D01*
X60447612Y-44703007D01*
X61225000Y-45480395D01*
X62002388Y-44703007D01*
X61936863Y-44464140D01*
X61689884Y-44348240D01*
X61425040Y-44282750D01*
X61152508Y-44270188D01*
X60882762Y-44311035D01*
X60626168Y-44403723D01*
X60513137Y-44464140D01*
X60447612Y-44703007D01*
X51668505Y-44703007D01*
X51600729Y-44657721D01*
X51394900Y-44572464D01*
X51176394Y-44529000D01*
X50953606Y-44529000D01*
X50735100Y-44572464D01*
X50529271Y-44657721D01*
X50344030Y-44781495D01*
X50186495Y-44939030D01*
X50062721Y-45124271D01*
X49977464Y-45330100D01*
X49934000Y-45548606D01*
X44828922Y-45548606D01*
X44793965Y-45317762D01*
X44701277Y-45061168D01*
X44640860Y-44948137D01*
X44401993Y-44882612D01*
X43624605Y-45660000D01*
X43265395Y-45660000D01*
X42488007Y-44882612D01*
X42249140Y-44948137D01*
X42133240Y-45195116D01*
X42067750Y-45459960D01*
X42055188Y-45732492D01*
X41072000Y-45732492D01*
X41072000Y-44703007D01*
X42667612Y-44703007D01*
X43445000Y-45480395D01*
X44222388Y-44703007D01*
X44156863Y-44464140D01*
X43909884Y-44348240D01*
X43645040Y-44282750D01*
X43372508Y-44270188D01*
X43102762Y-44311035D01*
X42846168Y-44403723D01*
X42733137Y-44464140D01*
X42667612Y-44703007D01*
X41072000Y-44703007D01*
X41072000Y-43008606D01*
X42314000Y-43008606D01*
X42314000Y-43231394D01*
X42357464Y-43449900D01*
X42442721Y-43655729D01*
X42566495Y-43840970D01*
X42724030Y-43998505D01*
X42909271Y-44122279D01*
X43115100Y-44207536D01*
X43333606Y-44251000D01*
X43556394Y-44251000D01*
X43774900Y-44207536D01*
X43980729Y-44122279D01*
X44165970Y-43998505D01*
X44323505Y-43840970D01*
X44447279Y-43655729D01*
X44532536Y-43449900D01*
X44576000Y-43231394D01*
X44576000Y-43008606D01*
X49934000Y-43008606D01*
X49934000Y-43231394D01*
X49977464Y-43449900D01*
X50062721Y-43655729D01*
X50186495Y-43840970D01*
X50344030Y-43998505D01*
X50529271Y-44122279D01*
X50735100Y-44207536D01*
X50953606Y-44251000D01*
X51176394Y-44251000D01*
X51394900Y-44207536D01*
X51600729Y-44122279D01*
X51785970Y-43998505D01*
X51943505Y-43840970D01*
X52067279Y-43655729D01*
X52152536Y-43449900D01*
X52196000Y-43231394D01*
X52196000Y-43008606D01*
X60094000Y-43008606D01*
X60094000Y-43231394D01*
X60137464Y-43449900D01*
X60222721Y-43655729D01*
X60346495Y-43840970D01*
X60504030Y-43998505D01*
X60689271Y-44122279D01*
X60895100Y-44207536D01*
X61113606Y-44251000D01*
X61336394Y-44251000D01*
X61554900Y-44207536D01*
X61760729Y-44122279D01*
X61945970Y-43998505D01*
X62103505Y-43840970D01*
X62227279Y-43655729D01*
X62312536Y-43449900D01*
X62356000Y-43231394D01*
X62356000Y-43008606D01*
X62312536Y-42790100D01*
X62227279Y-42584271D01*
X62103505Y-42399030D01*
X61945970Y-42241495D01*
X61760729Y-42117721D01*
X61554900Y-42032464D01*
X61336394Y-41989000D01*
X61113606Y-41989000D01*
X60895100Y-42032464D01*
X60689271Y-42117721D01*
X60504030Y-42241495D01*
X60346495Y-42399030D01*
X60222721Y-42584271D01*
X60137464Y-42790100D01*
X60094000Y-43008606D01*
X52196000Y-43008606D01*
X52152536Y-42790100D01*
X52067279Y-42584271D01*
X51943505Y-42399030D01*
X51785970Y-42241495D01*
X51600729Y-42117721D01*
X51394900Y-42032464D01*
X51176394Y-41989000D01*
X50953606Y-41989000D01*
X50735100Y-42032464D01*
X50529271Y-42117721D01*
X50344030Y-42241495D01*
X50186495Y-42399030D01*
X50062721Y-42584271D01*
X49977464Y-42790100D01*
X49934000Y-43008606D01*
X44576000Y-43008606D01*
X44532536Y-42790100D01*
X44447279Y-42584271D01*
X44323505Y-42399030D01*
X44165970Y-42241495D01*
X43980729Y-42117721D01*
X43774900Y-42032464D01*
X43556394Y-41989000D01*
X43333606Y-41989000D01*
X43115100Y-42032464D01*
X42909271Y-42117721D01*
X42724030Y-42241495D01*
X42566495Y-42399030D01*
X42442721Y-42584271D01*
X42357464Y-42790100D01*
X42314000Y-43008606D01*
X41072000Y-43008606D01*
X41072000Y-40468606D01*
X42314000Y-40468606D01*
X42314000Y-40691394D01*
X42357464Y-40909900D01*
X42442721Y-41115729D01*
X42566495Y-41300970D01*
X42724030Y-41458505D01*
X42909271Y-41582279D01*
X43115100Y-41667536D01*
X43333606Y-41711000D01*
X43556394Y-41711000D01*
X43774900Y-41667536D01*
X43980729Y-41582279D01*
X44165970Y-41458505D01*
X44323505Y-41300970D01*
X44447279Y-41115729D01*
X44532536Y-40909900D01*
X44576000Y-40691394D01*
X44576000Y-40468606D01*
X49934000Y-40468606D01*
X49934000Y-40691394D01*
X49977464Y-40909900D01*
X50062721Y-41115729D01*
X50186495Y-41300970D01*
X50344030Y-41458505D01*
X50529271Y-41582279D01*
X50735100Y-41667536D01*
X50953606Y-41711000D01*
X51176394Y-41711000D01*
X51394900Y-41667536D01*
X51600729Y-41582279D01*
X51785970Y-41458505D01*
X51943505Y-41300970D01*
X52067279Y-41115729D01*
X52152536Y-40909900D01*
X52196000Y-40691394D01*
X52196000Y-40468606D01*
X60094000Y-40468606D01*
X60094000Y-40691394D01*
X60137464Y-40909900D01*
X60222721Y-41115729D01*
X60346495Y-41300970D01*
X60504030Y-41458505D01*
X60689271Y-41582279D01*
X60895100Y-41667536D01*
X61113606Y-41711000D01*
X61336394Y-41711000D01*
X61554900Y-41667536D01*
X61760729Y-41582279D01*
X61945970Y-41458505D01*
X62103505Y-41300970D01*
X62227279Y-41115729D01*
X62312536Y-40909900D01*
X62356000Y-40691394D01*
X62356000Y-40468606D01*
X62312536Y-40250100D01*
X62227279Y-40044271D01*
X62103505Y-39859030D01*
X61945970Y-39701495D01*
X61760729Y-39577721D01*
X61554900Y-39492464D01*
X61336394Y-39449000D01*
X61113606Y-39449000D01*
X60895100Y-39492464D01*
X60689271Y-39577721D01*
X60504030Y-39701495D01*
X60346495Y-39859030D01*
X60222721Y-40044271D01*
X60137464Y-40250100D01*
X60094000Y-40468606D01*
X52196000Y-40468606D01*
X52152536Y-40250100D01*
X52067279Y-40044271D01*
X51943505Y-39859030D01*
X51785970Y-39701495D01*
X51600729Y-39577721D01*
X51394900Y-39492464D01*
X51176394Y-39449000D01*
X50953606Y-39449000D01*
X50735100Y-39492464D01*
X50529271Y-39577721D01*
X50344030Y-39701495D01*
X50186495Y-39859030D01*
X50062721Y-40044271D01*
X49977464Y-40250100D01*
X49934000Y-40468606D01*
X44576000Y-40468606D01*
X44532536Y-40250100D01*
X44447279Y-40044271D01*
X44323505Y-39859030D01*
X44165970Y-39701495D01*
X43980729Y-39577721D01*
X43774900Y-39492464D01*
X43556394Y-39449000D01*
X43333606Y-39449000D01*
X43115100Y-39492464D01*
X42909271Y-39577721D01*
X42724030Y-39701495D01*
X42566495Y-39859030D01*
X42442721Y-40044271D01*
X42357464Y-40250100D01*
X42314000Y-40468606D01*
X41072000Y-40468606D01*
X41072000Y-37928606D01*
X42314000Y-37928606D01*
X42314000Y-38151394D01*
X42357464Y-38369900D01*
X42442721Y-38575729D01*
X42566495Y-38760970D01*
X42724030Y-38918505D01*
X42909271Y-39042279D01*
X43115100Y-39127536D01*
X43333606Y-39171000D01*
X43556394Y-39171000D01*
X43774900Y-39127536D01*
X43980729Y-39042279D01*
X44165970Y-38918505D01*
X44323505Y-38760970D01*
X44447279Y-38575729D01*
X44532536Y-38369900D01*
X44576000Y-38151394D01*
X44576000Y-37928606D01*
X49934000Y-37928606D01*
X49934000Y-38151394D01*
X49977464Y-38369900D01*
X50062721Y-38575729D01*
X50186495Y-38760970D01*
X50344030Y-38918505D01*
X50529271Y-39042279D01*
X50735100Y-39127536D01*
X50953606Y-39171000D01*
X51176394Y-39171000D01*
X51394900Y-39127536D01*
X51600729Y-39042279D01*
X51785970Y-38918505D01*
X51943505Y-38760970D01*
X52067279Y-38575729D01*
X52152536Y-38369900D01*
X52196000Y-38151394D01*
X52196000Y-37928606D01*
X60094000Y-37928606D01*
X60094000Y-38151394D01*
X60137464Y-38369900D01*
X60222721Y-38575729D01*
X60346495Y-38760970D01*
X60504030Y-38918505D01*
X60689271Y-39042279D01*
X60895100Y-39127536D01*
X61113606Y-39171000D01*
X61336394Y-39171000D01*
X61554900Y-39127536D01*
X61760729Y-39042279D01*
X61945970Y-38918505D01*
X62103505Y-38760970D01*
X62227279Y-38575729D01*
X62312536Y-38369900D01*
X62356000Y-38151394D01*
X62356000Y-37928606D01*
X62312536Y-37710100D01*
X62227279Y-37504271D01*
X62103505Y-37319030D01*
X61945970Y-37161495D01*
X61760729Y-37037721D01*
X61554900Y-36952464D01*
X61336394Y-36909000D01*
X61113606Y-36909000D01*
X60895100Y-36952464D01*
X60689271Y-37037721D01*
X60504030Y-37161495D01*
X60346495Y-37319030D01*
X60222721Y-37504271D01*
X60137464Y-37710100D01*
X60094000Y-37928606D01*
X52196000Y-37928606D01*
X52152536Y-37710100D01*
X52067279Y-37504271D01*
X51943505Y-37319030D01*
X51785970Y-37161495D01*
X51600729Y-37037721D01*
X51394900Y-36952464D01*
X51176394Y-36909000D01*
X50953606Y-36909000D01*
X50735100Y-36952464D01*
X50529271Y-37037721D01*
X50344030Y-37161495D01*
X50186495Y-37319030D01*
X50062721Y-37504271D01*
X49977464Y-37710100D01*
X49934000Y-37928606D01*
X44576000Y-37928606D01*
X44532536Y-37710100D01*
X44447279Y-37504271D01*
X44323505Y-37319030D01*
X44165970Y-37161495D01*
X43980729Y-37037721D01*
X43774900Y-36952464D01*
X43556394Y-36909000D01*
X43333606Y-36909000D01*
X43115100Y-36952464D01*
X42909271Y-37037721D01*
X42724030Y-37161495D01*
X42566495Y-37319030D01*
X42442721Y-37504271D01*
X42357464Y-37710100D01*
X42314000Y-37928606D01*
X41072000Y-37928606D01*
X41072000Y-35388606D01*
X42314000Y-35388606D01*
X42314000Y-35611394D01*
X42357464Y-35829900D01*
X42442721Y-36035729D01*
X42566495Y-36220970D01*
X42724030Y-36378505D01*
X42909271Y-36502279D01*
X43115100Y-36587536D01*
X43333606Y-36631000D01*
X43556394Y-36631000D01*
X43774900Y-36587536D01*
X43980729Y-36502279D01*
X44165970Y-36378505D01*
X44323505Y-36220970D01*
X44447279Y-36035729D01*
X44532536Y-35829900D01*
X44576000Y-35611394D01*
X44576000Y-35388606D01*
X49934000Y-35388606D01*
X49934000Y-35611394D01*
X49977464Y-35829900D01*
X50062721Y-36035729D01*
X50186495Y-36220970D01*
X50344030Y-36378505D01*
X50529271Y-36502279D01*
X50735100Y-36587536D01*
X50953606Y-36631000D01*
X51176394Y-36631000D01*
X51394900Y-36587536D01*
X51600729Y-36502279D01*
X51785970Y-36378505D01*
X51943505Y-36220970D01*
X52067279Y-36035729D01*
X52152536Y-35829900D01*
X52196000Y-35611394D01*
X52196000Y-35388606D01*
X60094000Y-35388606D01*
X60094000Y-35611394D01*
X60137464Y-35829900D01*
X60222721Y-36035729D01*
X60346495Y-36220970D01*
X60504030Y-36378505D01*
X60689271Y-36502279D01*
X60895100Y-36587536D01*
X61113606Y-36631000D01*
X61336394Y-36631000D01*
X61554900Y-36587536D01*
X61760729Y-36502279D01*
X61945970Y-36378505D01*
X62103505Y-36220970D01*
X62227279Y-36035729D01*
X62312536Y-35829900D01*
X62356000Y-35611394D01*
X62356000Y-35388606D01*
X62312536Y-35170100D01*
X62227279Y-34964271D01*
X62103505Y-34779030D01*
X61945970Y-34621495D01*
X61760729Y-34497721D01*
X61554900Y-34412464D01*
X61336394Y-34369000D01*
X61113606Y-34369000D01*
X60895100Y-34412464D01*
X60689271Y-34497721D01*
X60504030Y-34621495D01*
X60346495Y-34779030D01*
X60222721Y-34964271D01*
X60137464Y-35170100D01*
X60094000Y-35388606D01*
X52196000Y-35388606D01*
X52152536Y-35170100D01*
X52067279Y-34964271D01*
X51943505Y-34779030D01*
X51785970Y-34621495D01*
X51600729Y-34497721D01*
X51394900Y-34412464D01*
X51176394Y-34369000D01*
X50953606Y-34369000D01*
X50735100Y-34412464D01*
X50529271Y-34497721D01*
X50344030Y-34621495D01*
X50186495Y-34779030D01*
X50062721Y-34964271D01*
X49977464Y-35170100D01*
X49934000Y-35388606D01*
X44576000Y-35388606D01*
X44532536Y-35170100D01*
X44447279Y-34964271D01*
X44323505Y-34779030D01*
X44165970Y-34621495D01*
X43980729Y-34497721D01*
X43774900Y-34412464D01*
X43556394Y-34369000D01*
X43333606Y-34369000D01*
X43115100Y-34412464D01*
X42909271Y-34497721D01*
X42724030Y-34621495D01*
X42566495Y-34779030D01*
X42442721Y-34964271D01*
X42357464Y-35170100D01*
X42314000Y-35388606D01*
X41072000Y-35388606D01*
X41072000Y-31516000D01*
X68843221Y-31516000D01*
X68844631Y-34369000D01*
G36*
X53955000Y-58561750D02*
G01*
X53962432Y-58630000D01*
X53955000Y-58698250D01*
X53987527Y-58730777D01*
X54004194Y-58782918D01*
X54064792Y-58892343D01*
X54117792Y-58955000D01*
X54064792Y-59017657D01*
X54004194Y-59127082D01*
X53987527Y-59179223D01*
X53955000Y-59211750D01*
X53962432Y-59280000D01*
X53955000Y-59348250D01*
X53987527Y-59380777D01*
X54004194Y-59432918D01*
X54064792Y-59542343D01*
X54117792Y-59605000D01*
X54064792Y-59667657D01*
X54004194Y-59777082D01*
X53987527Y-59829223D01*
X53955000Y-59861750D01*
X53962432Y-59930000D01*
X53955000Y-59998250D01*
X53987527Y-60030777D01*
X54004194Y-60082918D01*
X54064792Y-60192343D01*
X54145574Y-60287844D01*
X54190991Y-60324000D01*
X53803132Y-60324000D01*
X53774595Y-60321189D01*
X53746058Y-60324000D01*
X53746056Y-60324000D01*
X53660700Y-60332407D01*
X53551181Y-60365629D01*
X53450248Y-60419579D01*
X53361779Y-60492183D01*
X53343583Y-60514355D01*
X52591010Y-61266928D01*
X52591010Y-58645647D01*
X52670658Y-58566000D01*
X53831460Y-58566000D01*
X53860000Y-58568811D01*
X53888540Y-58566000D01*
X53957547Y-58559203D01*
X53955000Y-58561750D01*
X53955000Y-58561750D01*
G37*
X53955000Y-58561750D02*
X53962432Y-58630000D01*
X53955000Y-58698250D01*
X53987527Y-58730777D01*
X54004194Y-58782918D01*
X54064792Y-58892343D01*
X54117792Y-58955000D01*
X54064792Y-59017657D01*
X54004194Y-59127082D01*
X53987527Y-59179223D01*
X53955000Y-59211750D01*
X53962432Y-59280000D01*
X53955000Y-59348250D01*
X53987527Y-59380777D01*
X54004194Y-59432918D01*
X54064792Y-59542343D01*
X54117792Y-59605000D01*
X54064792Y-59667657D01*
X54004194Y-59777082D01*
X53987527Y-59829223D01*
X53955000Y-59861750D01*
X53962432Y-59930000D01*
X53955000Y-59998250D01*
X53987527Y-60030777D01*
X54004194Y-60082918D01*
X54064792Y-60192343D01*
X54145574Y-60287844D01*
X54190991Y-60324000D01*
X53803132Y-60324000D01*
X53774595Y-60321189D01*
X53746058Y-60324000D01*
X53746056Y-60324000D01*
X53660700Y-60332407D01*
X53551181Y-60365629D01*
X53450248Y-60419579D01*
X53361779Y-60492183D01*
X53343583Y-60514355D01*
X52591010Y-61266928D01*
X52591010Y-58645647D01*
X52670658Y-58566000D01*
X53831460Y-58566000D01*
X53860000Y-58568811D01*
X53888540Y-58566000D01*
X53957547Y-58559203D01*
X53955000Y-58561750D01*
G36*
X66853175Y-57653412D02*
G01*
X66868236Y-57671764D01*
X66941478Y-57731872D01*
X66954335Y-57738744D01*
X67025038Y-57776536D01*
X67115707Y-57804040D01*
X67210000Y-57813327D01*
X67233626Y-57811000D01*
X81297157Y-57811000D01*
X81297157Y-58080000D01*
X81304513Y-58154689D01*
X81326299Y-58226508D01*
X81361678Y-58292696D01*
X81409289Y-58350711D01*
X81420608Y-58360000D01*
X81409289Y-58369289D01*
X81361678Y-58427304D01*
X81326299Y-58493492D01*
X81304513Y-58565311D01*
X81297157Y-58640000D01*
X81297157Y-58909000D01*
X61833623Y-58909000D01*
X61809999Y-58906673D01*
X61786375Y-58909000D01*
X61786374Y-58909000D01*
X61715708Y-58915960D01*
X61625039Y-58943464D01*
X61541478Y-58988128D01*
X61468236Y-59048236D01*
X61453175Y-59066588D01*
X60640764Y-59879000D01*
X60539973Y-59879000D01*
X60402609Y-59906324D01*
X60321000Y-59940127D01*
X60321000Y-57555891D01*
X60324535Y-57520000D01*
X60321000Y-57484109D01*
X60321000Y-57484099D01*
X60310422Y-57376699D01*
X60268623Y-57238905D01*
X60200744Y-57111914D01*
X60171515Y-57076299D01*
X60132281Y-57028491D01*
X60132274Y-57028484D01*
X60109394Y-57000605D01*
X60081516Y-56977726D01*
X59754789Y-56651000D01*
X65850764Y-56651000D01*
X66853175Y-57653412D01*
X66853175Y-57653412D01*
G37*
X66853175Y-57653412D02*
X66868236Y-57671764D01*
X66941478Y-57731872D01*
X66954335Y-57738744D01*
X67025038Y-57776536D01*
X67115707Y-57804040D01*
X67210000Y-57813327D01*
X67233626Y-57811000D01*
X81297157Y-57811000D01*
X81297157Y-58080000D01*
X81304513Y-58154689D01*
X81326299Y-58226508D01*
X81361678Y-58292696D01*
X81409289Y-58350711D01*
X81420608Y-58360000D01*
X81409289Y-58369289D01*
X81361678Y-58427304D01*
X81326299Y-58493492D01*
X81304513Y-58565311D01*
X81297157Y-58640000D01*
X81297157Y-58909000D01*
X61833623Y-58909000D01*
X61809999Y-58906673D01*
X61786375Y-58909000D01*
X61786374Y-58909000D01*
X61715708Y-58915960D01*
X61625039Y-58943464D01*
X61541478Y-58988128D01*
X61468236Y-59048236D01*
X61453175Y-59066588D01*
X60640764Y-59879000D01*
X60539973Y-59879000D01*
X60402609Y-59906324D01*
X60321000Y-59940127D01*
X60321000Y-57555891D01*
X60324535Y-57520000D01*
X60321000Y-57484109D01*
X60321000Y-57484099D01*
X60310422Y-57376699D01*
X60268623Y-57238905D01*
X60200744Y-57111914D01*
X60171515Y-57076299D01*
X60132281Y-57028491D01*
X60132274Y-57028484D01*
X60109394Y-57000605D01*
X60081516Y-56977726D01*
X59754789Y-56651000D01*
X65850764Y-56651000D01*
X66853175Y-57653412D01*
G36*
X54214513Y-56705311D02*
G01*
X54207157Y-56780000D01*
X54207157Y-57072879D01*
X54189999Y-57071189D01*
X54161462Y-57074000D01*
X54161460Y-57074000D01*
X54076104Y-57082407D01*
X53966585Y-57115629D01*
X53865652Y-57169579D01*
X53777183Y-57242183D01*
X53758983Y-57264360D01*
X53619343Y-57404000D01*
X52458540Y-57404000D01*
X52430000Y-57401189D01*
X52401460Y-57404000D01*
X52107022Y-57404000D01*
X52176764Y-57346764D01*
X52191830Y-57328406D01*
X52869237Y-56651000D01*
X54230988Y-56651000D01*
X54214513Y-56705311D01*
X54214513Y-56705311D01*
G37*
X54214513Y-56705311D02*
X54207157Y-56780000D01*
X54207157Y-57072879D01*
X54189999Y-57071189D01*
X54161462Y-57074000D01*
X54161460Y-57074000D01*
X54076104Y-57082407D01*
X53966585Y-57115629D01*
X53865652Y-57169579D01*
X53777183Y-57242183D01*
X53758983Y-57264360D01*
X53619343Y-57404000D01*
X52458540Y-57404000D01*
X52430000Y-57401189D01*
X52401460Y-57404000D01*
X52107022Y-57404000D01*
X52176764Y-57346764D01*
X52191830Y-57328406D01*
X52869237Y-56651000D01*
X54230988Y-56651000D01*
X54214513Y-56705311D01*
M02*
