M48
; DRILL file {KiCad 5.1.2+dfsg1-1} date 2019-07-31T23:39:44 EEST
; FORMAT={-:-/ absolute / inch / decimal}
; #@! TF.CreationDate,2019-07-31T23:39:44+03:00
; #@! TF.GenerationSoftware,Kicad,Pcbnew,5.1.2+dfsg1-1
FMAT,2
INCH
T1C0.0130
T2C0.0315
%
G90
G05
T1
X1.6587Y-2.8831
X1.6756Y-3.0984
X1.726Y-2.178
X1.7449Y-3.1697
X1.7835Y-2.5201
X1.7835Y-2.7378
X1.7835Y-2.8165
X1.789Y-2.2976
X1.8047Y-2.4197
X1.8091Y-3.2299
X1.8429Y-2.7646
X1.8665Y-3.2898
X1.8689Y-2.3122
X1.8701Y-2.374
X1.8854Y-2.7291
X1.9311Y-3.352
X1.9815Y-2.178
X1.9945Y-3.4106
X2.0075Y-2.4555
X2.0217Y-2.9185
X2.0394Y-2.1776
X2.0843Y-2.9185
X2.0858Y-2.3425
X2.0862Y-2.2531
X2.089Y-2.6921
X2.0996Y-2.178
X2.1067Y-3.4106
X2.1102Y-2.4547
X2.1315Y-2.9461
X2.1335Y-2.6736
X2.1732Y-2.1795
X2.1827Y-2.824
X2.1894Y-2.7835
X2.3134Y-2.4543
X2.3441Y-2.8728
X2.3441Y-2.926
X2.3457Y-2.8276
X2.3744Y-3.3004
X2.3752Y-3.4106
X2.3862Y-2.3854
X2.3957Y-2.5512
X2.4701Y-2.6264
X2.4835Y-3.1504
X2.4839Y-3.3035
X2.4846Y-3.4106
X2.4945Y-2.8406
X2.4949Y-2.787
X2.4949Y-2.9075
X2.5315Y-2.2736
X2.5449Y-2.7063
X2.6094Y-3.152
X2.613Y-2.2736
X2.6161Y-2.7795
X2.6327Y-2.3756
X2.7063Y-2.3756
X2.7106Y-3.5102
X2.7146Y-3.4051
X2.7154Y-3.1543
X2.7154Y-3.2992
X2.7441Y-2.2224
X2.7453Y-2.4626
X2.8213Y-3.3
X2.8213Y-3.5126
X2.822Y-2.2992
X2.8224Y-3.4051
X2.8344Y-2.5596
X2.898Y-2.3756
X2.9016Y-2.6276
X2.9661Y-2.6957
X2.9913Y-2.2236
X2.9921Y-2.4626
X3.0445Y-2.7795
X3.0795Y-2.5591
X3.1169Y-2.2264
X3.1185Y-2.2984
X3.1575Y-2.6343
X3.2094Y-2.6862
X3.2972Y-2.7724
X3.4799Y-2.35
X3.5839Y-2.8043
X3.589Y-2.6287
X3.6787Y-2.9024
X3.7638Y-3.3701
X3.7646Y-3.4815
X3.7681Y-2.9921
X3.8142Y-2.1823
T2
X3.2459Y-3.1496
X3.2459Y-3.2496
X3.2459Y-3.3496
X3.2459Y-3.4496
X3.2459Y-3.5496
X3.5459Y-3.1496
X3.5459Y-3.2496
X3.5459Y-3.3496
X3.5459Y-3.4496
X3.5459Y-3.5496
X3.9459Y-2.2496
X3.9459Y-2.3496
X3.9459Y-2.4496
X3.9459Y-2.5496
X3.9459Y-2.6496
X4.2459Y-2.2496
X4.2459Y-2.3496
X4.2459Y-2.4496
X4.2459Y-2.5496
X4.2459Y-2.6496
X2.4104Y-1.3976
X2.4104Y-1.4976
X2.4104Y-1.5976
X2.4104Y-1.6976
X2.4104Y-1.7976
X2.7104Y-1.3976
X2.7104Y-1.4976
X2.7104Y-1.5976
X2.7104Y-1.6976
X2.7104Y-1.7976
X1.7104Y-1.3976
X1.7104Y-1.4976
X1.7104Y-1.5976
X1.7104Y-1.6976
X1.7104Y-1.7976
X2.0104Y-1.3976
X2.0104Y-1.4976
X2.0104Y-1.5976
X2.0104Y-1.6976
X2.0104Y-1.7976
X3.9459Y-3.1496
X3.9459Y-3.2496
X3.9459Y-3.3496
X3.9459Y-3.4496
X3.9459Y-3.5496
X4.2459Y-3.1496
X4.2459Y-3.2496
X4.2459Y-3.3496
X4.2459Y-3.4496
X4.2459Y-3.5496
T0
M30
