G04 #@! TF.GenerationSoftware,KiCad,Pcbnew,5.1.2+dfsg1-1*
G04 #@! TF.CreationDate,2019-07-31T23:39:42+03:00*
G04 #@! TF.ProjectId,cps1_adapter,63707331-5f61-4646-9170-7465722e6b69,rev?*
G04 #@! TF.SameCoordinates,Original*
G04 #@! TF.FileFunction,Legend,Top*
G04 #@! TF.FilePolarity,Positive*
%FSLAX46Y46*%
G04 Gerber Fmt 4.6, Leading zero omitted, Abs format (unit mm)*
G04 Created by KiCad (PCBNEW 5.1.2+dfsg1-1) date 2019-07-31 23:39:42*
%MOMM*%
%LPD*%
G04 APERTURE LIST*
%ADD10C,0.075000*%
%ADD11C,0.200000*%
%ADD12C,0.150000*%
%ADD13C,0.120000*%
%ADD14C,0.119380*%
%ADD15C,0.127000*%
%ADD16C,0.114300*%
%ADD17C,0.100000*%
G04 APERTURE END LIST*
D10*
X86150000Y-57720000D02*
X86135714Y-57734285D01*
X86092857Y-57762857D01*
X86064285Y-57777142D01*
X86021428Y-57791428D01*
X85950000Y-57805714D01*
X85892857Y-57805714D01*
X85821428Y-57791428D01*
X85778571Y-57777142D01*
X85750000Y-57762857D01*
X85707142Y-57734285D01*
X85692857Y-57720000D01*
X85735714Y-57520000D02*
X85950000Y-57520000D01*
X85992857Y-57534285D01*
X86021428Y-57562857D01*
X86035714Y-57605714D01*
X86035714Y-57634285D01*
X85735714Y-57234285D02*
X85735714Y-57377142D01*
X85878571Y-57391428D01*
X85864285Y-57377142D01*
X85850000Y-57348571D01*
X85850000Y-57277142D01*
X85864285Y-57248571D01*
X85878571Y-57234285D01*
X85907142Y-57220000D01*
X85978571Y-57220000D01*
X86007142Y-57234285D01*
X86021428Y-57248571D01*
X86035714Y-57277142D01*
X86035714Y-57348571D01*
X86021428Y-57377142D01*
X86007142Y-57391428D01*
X86150000Y-57120000D02*
X86135714Y-57105714D01*
X86092857Y-57077142D01*
X86064285Y-57062857D01*
X86021428Y-57048571D01*
X85950000Y-57034285D01*
X85892857Y-57034285D01*
X85821428Y-57048571D01*
X85778571Y-57062857D01*
X85750000Y-57077142D01*
X85707142Y-57105714D01*
X85692857Y-57120000D01*
X86170000Y-59740000D02*
X86155714Y-59754285D01*
X86112857Y-59782857D01*
X86084285Y-59797142D01*
X86041428Y-59811428D01*
X85970000Y-59825714D01*
X85912857Y-59825714D01*
X85841428Y-59811428D01*
X85798571Y-59797142D01*
X85770000Y-59782857D01*
X85727142Y-59754285D01*
X85712857Y-59740000D01*
X85755714Y-59540000D02*
X85970000Y-59540000D01*
X86012857Y-59554285D01*
X86041428Y-59582857D01*
X86055714Y-59625714D01*
X86055714Y-59654285D01*
X85755714Y-59425714D02*
X85755714Y-59240000D01*
X85870000Y-59340000D01*
X85870000Y-59297142D01*
X85884285Y-59268571D01*
X85898571Y-59254285D01*
X85927142Y-59240000D01*
X85998571Y-59240000D01*
X86027142Y-59254285D01*
X86041428Y-59268571D01*
X86055714Y-59297142D01*
X86055714Y-59382857D01*
X86041428Y-59411428D01*
X86027142Y-59425714D01*
X86170000Y-59140000D02*
X86155714Y-59125714D01*
X86112857Y-59097142D01*
X86084285Y-59082857D01*
X86041428Y-59068571D01*
X85970000Y-59054285D01*
X85912857Y-59054285D01*
X85841428Y-59068571D01*
X85798571Y-59082857D01*
X85770000Y-59097142D01*
X85727142Y-59125714D01*
X85712857Y-59140000D01*
X91545714Y-60940000D02*
X91531428Y-60925714D01*
X91502857Y-60882857D01*
X91488571Y-60854285D01*
X91474285Y-60811428D01*
X91460000Y-60740000D01*
X91460000Y-60682857D01*
X91474285Y-60611428D01*
X91488571Y-60568571D01*
X91502857Y-60540000D01*
X91531428Y-60497142D01*
X91545714Y-60482857D01*
X91617142Y-60525714D02*
X91717142Y-60825714D01*
X91817142Y-60525714D01*
X91902857Y-60811428D02*
X91945714Y-60825714D01*
X92017142Y-60825714D01*
X92045714Y-60811428D01*
X92060000Y-60797142D01*
X92074285Y-60768571D01*
X92074285Y-60740000D01*
X92060000Y-60711428D01*
X92045714Y-60697142D01*
X92017142Y-60682857D01*
X91960000Y-60668571D01*
X91931428Y-60654285D01*
X91917142Y-60640000D01*
X91902857Y-60611428D01*
X91902857Y-60582857D01*
X91917142Y-60554285D01*
X91931428Y-60540000D01*
X91960000Y-60525714D01*
X92031428Y-60525714D01*
X92074285Y-60540000D01*
X92174285Y-60940000D02*
X92188571Y-60925714D01*
X92217142Y-60882857D01*
X92231428Y-60854285D01*
X92245714Y-60811428D01*
X92260000Y-60740000D01*
X92260000Y-60682857D01*
X92245714Y-60611428D01*
X92231428Y-60568571D01*
X92217142Y-60540000D01*
X92188571Y-60497142D01*
X92174285Y-60482857D01*
D11*
X96491904Y-64495238D02*
X96587142Y-64447619D01*
X96777619Y-64447619D01*
X96872857Y-64495238D01*
X96920476Y-64542857D01*
X96968095Y-64638095D01*
X96968095Y-64923809D01*
X96920476Y-65019047D01*
X96872857Y-65066666D01*
X96777619Y-65114285D01*
X96587142Y-65114285D01*
X96491904Y-65066666D01*
X96063333Y-65114285D02*
X96063333Y-64114285D01*
X96063333Y-65066666D02*
X95968095Y-65114285D01*
X95777619Y-65114285D01*
X95682380Y-65066666D01*
X95634761Y-65019047D01*
X95587142Y-64923809D01*
X95587142Y-64638095D01*
X95634761Y-64542857D01*
X95682380Y-64495238D01*
X95777619Y-64447619D01*
X95968095Y-64447619D01*
X96063333Y-64495238D01*
X95206190Y-64495238D02*
X95110952Y-64447619D01*
X94920476Y-64447619D01*
X94825238Y-64495238D01*
X94777619Y-64590476D01*
X94777619Y-64638095D01*
X94825238Y-64733333D01*
X94920476Y-64780952D01*
X95063333Y-64780952D01*
X95158571Y-64828571D01*
X95206190Y-64923809D01*
X95206190Y-64971428D01*
X95158571Y-65066666D01*
X95063333Y-65114285D01*
X94920476Y-65114285D01*
X94825238Y-65066666D01*
X93825238Y-64447619D02*
X94396666Y-64447619D01*
X94110952Y-64447619D02*
X94110952Y-65447619D01*
X94206190Y-65304761D01*
X94301428Y-65209523D01*
X94396666Y-65161904D01*
X93634761Y-64352380D02*
X92872857Y-64352380D01*
X92206190Y-64447619D02*
X92206190Y-64971428D01*
X92253809Y-65066666D01*
X92349047Y-65114285D01*
X92539523Y-65114285D01*
X92634761Y-65066666D01*
X92206190Y-64495238D02*
X92301428Y-64447619D01*
X92539523Y-64447619D01*
X92634761Y-64495238D01*
X92682380Y-64590476D01*
X92682380Y-64685714D01*
X92634761Y-64780952D01*
X92539523Y-64828571D01*
X92301428Y-64828571D01*
X92206190Y-64876190D01*
X91301428Y-64447619D02*
X91301428Y-65447619D01*
X91301428Y-64495238D02*
X91396666Y-64447619D01*
X91587142Y-64447619D01*
X91682380Y-64495238D01*
X91730000Y-64542857D01*
X91777619Y-64638095D01*
X91777619Y-64923809D01*
X91730000Y-65019047D01*
X91682380Y-65066666D01*
X91587142Y-65114285D01*
X91396666Y-65114285D01*
X91301428Y-65066666D01*
X90396666Y-64447619D02*
X90396666Y-64971428D01*
X90444285Y-65066666D01*
X90539523Y-65114285D01*
X90730000Y-65114285D01*
X90825238Y-65066666D01*
X90396666Y-64495238D02*
X90491904Y-64447619D01*
X90730000Y-64447619D01*
X90825238Y-64495238D01*
X90872857Y-64590476D01*
X90872857Y-64685714D01*
X90825238Y-64780952D01*
X90730000Y-64828571D01*
X90491904Y-64828571D01*
X90396666Y-64876190D01*
X89920476Y-65114285D02*
X89920476Y-64114285D01*
X89920476Y-65066666D02*
X89825238Y-65114285D01*
X89634761Y-65114285D01*
X89539523Y-65066666D01*
X89491904Y-65019047D01*
X89444285Y-64923809D01*
X89444285Y-64638095D01*
X89491904Y-64542857D01*
X89539523Y-64495238D01*
X89634761Y-64447619D01*
X89825238Y-64447619D01*
X89920476Y-64495238D01*
X89158571Y-65114285D02*
X88777619Y-65114285D01*
X89015714Y-65447619D02*
X89015714Y-64590476D01*
X88968095Y-64495238D01*
X88872857Y-64447619D01*
X88777619Y-64447619D01*
X88063333Y-64495238D02*
X88158571Y-64447619D01*
X88349047Y-64447619D01*
X88444285Y-64495238D01*
X88491904Y-64590476D01*
X88491904Y-64971428D01*
X88444285Y-65066666D01*
X88349047Y-65114285D01*
X88158571Y-65114285D01*
X88063333Y-65066666D01*
X88015714Y-64971428D01*
X88015714Y-64876190D01*
X88491904Y-64780952D01*
X87587142Y-64447619D02*
X87587142Y-65114285D01*
X87587142Y-64923809D02*
X87539523Y-65019047D01*
X87491904Y-65066666D01*
X87396666Y-65114285D01*
X87301428Y-65114285D01*
X86301428Y-65114285D02*
X86063333Y-64447619D01*
X85825238Y-65114285D01*
X84920476Y-64447619D02*
X85491904Y-64447619D01*
X85206190Y-64447619D02*
X85206190Y-65447619D01*
X85301428Y-65304761D01*
X85396666Y-65209523D01*
X85491904Y-65161904D01*
X84491904Y-64542857D02*
X84444285Y-64495238D01*
X84491904Y-64447619D01*
X84539523Y-64495238D01*
X84491904Y-64542857D01*
X84491904Y-64447619D01*
X84063333Y-65352380D02*
X84015714Y-65400000D01*
X83920476Y-65447619D01*
X83682380Y-65447619D01*
X83587142Y-65400000D01*
X83539523Y-65352380D01*
X83491904Y-65257142D01*
X83491904Y-65161904D01*
X83539523Y-65019047D01*
X84110952Y-64447619D01*
X83491904Y-64447619D01*
X97682380Y-62366666D02*
X97730000Y-62414285D01*
X97825238Y-62557142D01*
X97872857Y-62652380D01*
X97920476Y-62795238D01*
X97968095Y-63033333D01*
X97968095Y-63223809D01*
X97920476Y-63461904D01*
X97872857Y-63604761D01*
X97825238Y-63700000D01*
X97730000Y-63842857D01*
X97682380Y-63890476D01*
X97158571Y-63319047D02*
X97253809Y-63366666D01*
X97301428Y-63414285D01*
X97349047Y-63509523D01*
X97349047Y-63557142D01*
X97301428Y-63652380D01*
X97253809Y-63700000D01*
X97158571Y-63747619D01*
X96968095Y-63747619D01*
X96872857Y-63700000D01*
X96825238Y-63652380D01*
X96777619Y-63557142D01*
X96777619Y-63509523D01*
X96825238Y-63414285D01*
X96872857Y-63366666D01*
X96968095Y-63319047D01*
X97158571Y-63319047D01*
X97253809Y-63271428D01*
X97301428Y-63223809D01*
X97349047Y-63128571D01*
X97349047Y-62938095D01*
X97301428Y-62842857D01*
X97253809Y-62795238D01*
X97158571Y-62747619D01*
X96968095Y-62747619D01*
X96872857Y-62795238D01*
X96825238Y-62842857D01*
X96777619Y-62938095D01*
X96777619Y-63128571D01*
X96825238Y-63223809D01*
X96872857Y-63271428D01*
X96968095Y-63319047D01*
X96301428Y-62747619D02*
X96110952Y-62747619D01*
X96015714Y-62795238D01*
X95968095Y-62842857D01*
X95872857Y-62985714D01*
X95825238Y-63176190D01*
X95825238Y-63557142D01*
X95872857Y-63652380D01*
X95920476Y-63700000D01*
X96015714Y-63747619D01*
X96206190Y-63747619D01*
X96301428Y-63700000D01*
X96349047Y-63652380D01*
X96396666Y-63557142D01*
X96396666Y-63319047D01*
X96349047Y-63223809D01*
X96301428Y-63176190D01*
X96206190Y-63128571D01*
X96015714Y-63128571D01*
X95920476Y-63176190D01*
X95872857Y-63223809D01*
X95825238Y-63319047D01*
X94968095Y-63747619D02*
X95158571Y-63747619D01*
X95253809Y-63700000D01*
X95301428Y-63652380D01*
X95396666Y-63509523D01*
X95444285Y-63319047D01*
X95444285Y-62938095D01*
X95396666Y-62842857D01*
X95349047Y-62795238D01*
X95253809Y-62747619D01*
X95063333Y-62747619D01*
X94968095Y-62795238D01*
X94920476Y-62842857D01*
X94872857Y-62938095D01*
X94872857Y-63176190D01*
X94920476Y-63271428D01*
X94968095Y-63319047D01*
X95063333Y-63366666D01*
X95253809Y-63366666D01*
X95349047Y-63319047D01*
X95396666Y-63271428D01*
X95444285Y-63176190D01*
X94491904Y-63652380D02*
X94444285Y-63700000D01*
X94349047Y-63747619D01*
X94110952Y-63747619D01*
X94015714Y-63700000D01*
X93968095Y-63652380D01*
X93920476Y-63557142D01*
X93920476Y-63461904D01*
X93968095Y-63319047D01*
X94539523Y-62747619D01*
X93920476Y-62747619D01*
X93063333Y-63747619D02*
X93253809Y-63747619D01*
X93349047Y-63700000D01*
X93396666Y-63652380D01*
X93491904Y-63509523D01*
X93539523Y-63319047D01*
X93539523Y-62938095D01*
X93491904Y-62842857D01*
X93444285Y-62795238D01*
X93349047Y-62747619D01*
X93158571Y-62747619D01*
X93063333Y-62795238D01*
X93015714Y-62842857D01*
X92968095Y-62938095D01*
X92968095Y-63176190D01*
X93015714Y-63271428D01*
X93063333Y-63319047D01*
X93158571Y-63366666D01*
X93349047Y-63366666D01*
X93444285Y-63319047D01*
X93491904Y-63271428D01*
X93539523Y-63176190D01*
X92587142Y-63033333D02*
X92110952Y-63033333D01*
X92682380Y-62747619D02*
X92349047Y-63747619D01*
X92015714Y-62747619D01*
X90491904Y-62795238D02*
X90587142Y-62747619D01*
X90777619Y-62747619D01*
X90872857Y-62795238D01*
X90920476Y-62842857D01*
X90968095Y-62938095D01*
X90968095Y-63223809D01*
X90920476Y-63319047D01*
X90872857Y-63366666D01*
X90777619Y-63414285D01*
X90587142Y-63414285D01*
X90491904Y-63366666D01*
X89920476Y-62747619D02*
X90015714Y-62795238D01*
X90063333Y-62842857D01*
X90110952Y-62938095D01*
X90110952Y-63223809D01*
X90063333Y-63319047D01*
X90015714Y-63366666D01*
X89920476Y-63414285D01*
X89777619Y-63414285D01*
X89682380Y-63366666D01*
X89634761Y-63319047D01*
X89587142Y-63223809D01*
X89587142Y-62938095D01*
X89634761Y-62842857D01*
X89682380Y-62795238D01*
X89777619Y-62747619D01*
X89920476Y-62747619D01*
X89158571Y-62747619D02*
X89158571Y-63414285D01*
X89158571Y-63319047D02*
X89110952Y-63366666D01*
X89015714Y-63414285D01*
X88872857Y-63414285D01*
X88777619Y-63366666D01*
X88730000Y-63271428D01*
X88730000Y-62747619D01*
X88730000Y-63271428D02*
X88682380Y-63366666D01*
X88587142Y-63414285D01*
X88444285Y-63414285D01*
X88349047Y-63366666D01*
X88301428Y-63271428D01*
X88301428Y-62747619D01*
X87825238Y-63414285D02*
X87825238Y-62414285D01*
X87825238Y-63366666D02*
X87730000Y-63414285D01*
X87539523Y-63414285D01*
X87444285Y-63366666D01*
X87396666Y-63319047D01*
X87349047Y-63223809D01*
X87349047Y-62938095D01*
X87396666Y-62842857D01*
X87444285Y-62795238D01*
X87539523Y-62747619D01*
X87730000Y-62747619D01*
X87825238Y-62795238D01*
X86491904Y-62747619D02*
X86491904Y-63271428D01*
X86539523Y-63366666D01*
X86634761Y-63414285D01*
X86825238Y-63414285D01*
X86920476Y-63366666D01*
X86491904Y-62795238D02*
X86587142Y-62747619D01*
X86825238Y-62747619D01*
X86920476Y-62795238D01*
X86968095Y-62890476D01*
X86968095Y-62985714D01*
X86920476Y-63080952D01*
X86825238Y-63128571D01*
X86587142Y-63128571D01*
X86491904Y-63176190D01*
X86158571Y-63414285D02*
X85777619Y-63414285D01*
X86015714Y-63747619D02*
X86015714Y-62890476D01*
X85968095Y-62795238D01*
X85872857Y-62747619D01*
X85777619Y-62747619D01*
X85444285Y-62747619D02*
X85444285Y-63414285D01*
X85444285Y-63747619D02*
X85491904Y-63700000D01*
X85444285Y-63652380D01*
X85396666Y-63700000D01*
X85444285Y-63747619D01*
X85444285Y-63652380D01*
X84968095Y-62747619D02*
X84968095Y-63747619D01*
X84968095Y-63366666D02*
X84872857Y-63414285D01*
X84682380Y-63414285D01*
X84587142Y-63366666D01*
X84539523Y-63319047D01*
X84491904Y-63223809D01*
X84491904Y-62938095D01*
X84539523Y-62842857D01*
X84587142Y-62795238D01*
X84682380Y-62747619D01*
X84872857Y-62747619D01*
X84968095Y-62795238D01*
X83920476Y-62747619D02*
X84015714Y-62795238D01*
X84063333Y-62890476D01*
X84063333Y-63747619D01*
X83158571Y-62795238D02*
X83253809Y-62747619D01*
X83444285Y-62747619D01*
X83539523Y-62795238D01*
X83587142Y-62890476D01*
X83587142Y-63271428D01*
X83539523Y-63366666D01*
X83444285Y-63414285D01*
X83253809Y-63414285D01*
X83158571Y-63366666D01*
X83110952Y-63271428D01*
X83110952Y-63176190D01*
X83587142Y-63080952D01*
X82777619Y-62366666D02*
X82730000Y-62414285D01*
X82634761Y-62557142D01*
X82587142Y-62652380D01*
X82539523Y-62795238D01*
X82491904Y-63033333D01*
X82491904Y-63223809D01*
X82539523Y-63461904D01*
X82587142Y-63604761D01*
X82634761Y-63700000D01*
X82730000Y-63842857D01*
X82777619Y-63890476D01*
D12*
X50475000Y-67855000D02*
X50475000Y-68205000D01*
X56225000Y-67855000D02*
X56225000Y-68305000D01*
X56225000Y-75505000D02*
X56225000Y-75055000D01*
X50475000Y-75505000D02*
X50475000Y-75055000D01*
X50475000Y-67855000D02*
X56225000Y-67855000D01*
X50475000Y-75505000D02*
X56225000Y-75505000D01*
X50475000Y-68205000D02*
X48875000Y-68205000D01*
X50190000Y-62005000D02*
X54590000Y-62005000D01*
X48615000Y-56480000D02*
X54590000Y-56480000D01*
D13*
X50155000Y-33680000D02*
X44355000Y-33680000D01*
X44355000Y-33680000D02*
X44355000Y-47480000D01*
X44355000Y-47480000D02*
X50155000Y-47480000D01*
X50155000Y-47480000D02*
X50155000Y-33680000D01*
X106935000Y-69120000D02*
X106935000Y-55320000D01*
X101135000Y-69120000D02*
X106935000Y-69120000D01*
X101135000Y-55320000D02*
X101135000Y-69120000D01*
X106935000Y-55320000D02*
X101135000Y-55320000D01*
X89155000Y-78180000D02*
X83355000Y-78180000D01*
X83355000Y-78180000D02*
X83355000Y-91980000D01*
X83355000Y-91980000D02*
X89155000Y-91980000D01*
X89155000Y-91980000D02*
X89155000Y-78180000D01*
X106935000Y-91980000D02*
X106935000Y-78180000D01*
X101135000Y-91980000D02*
X106935000Y-91980000D01*
X101135000Y-78180000D02*
X101135000Y-91980000D01*
X106935000Y-78180000D02*
X101135000Y-78180000D01*
X67935000Y-33680000D02*
X62135000Y-33680000D01*
X62135000Y-33680000D02*
X62135000Y-47480000D01*
X62135000Y-47480000D02*
X67935000Y-47480000D01*
X67935000Y-47480000D02*
X67935000Y-33680000D01*
D14*
X50589620Y-64165940D02*
X49891120Y-64165940D01*
X51590380Y-64165940D02*
X52288880Y-64165940D01*
X50589620Y-65634060D02*
X49891120Y-65634060D01*
X52288880Y-65634060D02*
X51590380Y-65634060D01*
X49850480Y-65636600D02*
X49850480Y-64163400D01*
X52329520Y-64163400D02*
X52329520Y-65636600D01*
X47589520Y-73873400D02*
X47589520Y-75346600D01*
X45110480Y-75346600D02*
X45110480Y-73873400D01*
X47548880Y-75344060D02*
X46850380Y-75344060D01*
X45849620Y-75344060D02*
X45151120Y-75344060D01*
X46850380Y-73875940D02*
X47548880Y-73875940D01*
X45849620Y-73875940D02*
X45151120Y-73875940D01*
X45859620Y-72245940D02*
X45161120Y-72245940D01*
X46860380Y-72245940D02*
X47558880Y-72245940D01*
X45859620Y-73714060D02*
X45161120Y-73714060D01*
X47558880Y-73714060D02*
X46860380Y-73714060D01*
X45120480Y-73716600D02*
X45120480Y-72243400D01*
X47599520Y-72243400D02*
X47599520Y-73716600D01*
X56675940Y-78010380D02*
X56675940Y-78708880D01*
X56675940Y-77009620D02*
X56675940Y-76311120D01*
X58144060Y-78010380D02*
X58144060Y-78708880D01*
X58144060Y-76311120D02*
X58144060Y-77009620D01*
X58146600Y-78749520D02*
X56673400Y-78749520D01*
X56673400Y-76270480D02*
X58146600Y-76270480D01*
X57200380Y-67264060D02*
X57898880Y-67264060D01*
X56199620Y-67264060D02*
X55501120Y-67264060D01*
X57200380Y-65795940D02*
X57898880Y-65795940D01*
X55501120Y-65795940D02*
X56199620Y-65795940D01*
X57939520Y-65793400D02*
X57939520Y-67266600D01*
X55460480Y-67266600D02*
X55460480Y-65793400D01*
X55450480Y-65636600D02*
X55450480Y-64163400D01*
X57929520Y-64163400D02*
X57929520Y-65636600D01*
X55491120Y-64165940D02*
X56189620Y-64165940D01*
X57190380Y-64165940D02*
X57888880Y-64165940D01*
X56189620Y-65634060D02*
X55491120Y-65634060D01*
X57190380Y-65634060D02*
X57888880Y-65634060D01*
X62136600Y-74099520D02*
X60663400Y-74099520D01*
X60663400Y-71620480D02*
X62136600Y-71620480D01*
X60665940Y-74058880D02*
X60665940Y-73360380D01*
X60665940Y-72359620D02*
X60665940Y-71661120D01*
X62134060Y-73360380D02*
X62134060Y-74058880D01*
X62134060Y-72359620D02*
X62134060Y-71661120D01*
X55045940Y-78010380D02*
X55045940Y-78708880D01*
X55045940Y-77009620D02*
X55045940Y-76311120D01*
X56514060Y-78010380D02*
X56514060Y-78708880D01*
X56514060Y-76311120D02*
X56514060Y-77009620D01*
X56516600Y-78749520D02*
X55043400Y-78749520D01*
X55043400Y-76270480D02*
X56516600Y-76270480D01*
X57493400Y-56650480D02*
X58966600Y-56650480D01*
X58966600Y-59129520D02*
X57493400Y-59129520D01*
X58964060Y-56691120D02*
X58964060Y-57389620D01*
X58964060Y-58390380D02*
X58964060Y-59088880D01*
X57495940Y-57389620D02*
X57495940Y-56691120D01*
X57495940Y-58390380D02*
X57495940Y-59088880D01*
X50589620Y-65795940D02*
X49891120Y-65795940D01*
X51590380Y-65795940D02*
X52288880Y-65795940D01*
X50589620Y-67264060D02*
X49891120Y-67264060D01*
X52288880Y-67264060D02*
X51590380Y-67264060D01*
X49850480Y-67266600D02*
X49850480Y-65793400D01*
X52329520Y-65793400D02*
X52329520Y-67266600D01*
X54400380Y-67274060D02*
X55098880Y-67274060D01*
X53399620Y-67274060D02*
X52701120Y-67274060D01*
X54400380Y-65805940D02*
X55098880Y-65805940D01*
X52701120Y-65805940D02*
X53399620Y-65805940D01*
X55139520Y-65803400D02*
X55139520Y-67276600D01*
X52660480Y-67276600D02*
X52660480Y-65803400D01*
X48044060Y-66979620D02*
X48044060Y-66281120D01*
X48044060Y-67980380D02*
X48044060Y-68678880D01*
X46575940Y-66979620D02*
X46575940Y-66281120D01*
X46575940Y-68678880D02*
X46575940Y-67980380D01*
X46573400Y-66240480D02*
X48046600Y-66240480D01*
X48046600Y-68719520D02*
X46573400Y-68719520D01*
X44953400Y-66240480D02*
X46426600Y-66240480D01*
X46426600Y-68719520D02*
X44953400Y-68719520D01*
X46424060Y-66281120D02*
X46424060Y-66979620D01*
X46424060Y-67980380D02*
X46424060Y-68678880D01*
X44955940Y-66979620D02*
X44955940Y-66281120D01*
X44955940Y-67980380D02*
X44955940Y-68678880D01*
D12*
X52518095Y-75922380D02*
X52518095Y-76731904D01*
X52565714Y-76827142D01*
X52613333Y-76874761D01*
X52708571Y-76922380D01*
X52899047Y-76922380D01*
X52994285Y-76874761D01*
X53041904Y-76827142D01*
X53089523Y-76731904D01*
X53089523Y-75922380D01*
X53518095Y-76017619D02*
X53565714Y-75970000D01*
X53660952Y-75922380D01*
X53899047Y-75922380D01*
X53994285Y-75970000D01*
X54041904Y-76017619D01*
X54089523Y-76112857D01*
X54089523Y-76208095D01*
X54041904Y-76350952D01*
X53470476Y-76922380D01*
X54089523Y-76922380D01*
X51628095Y-55182380D02*
X51628095Y-55991904D01*
X51675714Y-56087142D01*
X51723333Y-56134761D01*
X51818571Y-56182380D01*
X52009047Y-56182380D01*
X52104285Y-56134761D01*
X52151904Y-56087142D01*
X52199523Y-55991904D01*
X52199523Y-55182380D01*
X53199523Y-56182380D02*
X52628095Y-56182380D01*
X52913809Y-56182380D02*
X52913809Y-55182380D01*
X52818571Y-55325238D01*
X52723333Y-55420476D01*
X52628095Y-55468095D01*
X47008026Y-32064400D02*
X47008026Y-32778686D01*
X46960407Y-32921543D01*
X46865169Y-33016781D01*
X46722312Y-33064400D01*
X46627074Y-33064400D01*
X47960407Y-32064400D02*
X47484217Y-32064400D01*
X47436598Y-32540591D01*
X47484217Y-32492972D01*
X47579455Y-32445353D01*
X47817550Y-32445353D01*
X47912788Y-32492972D01*
X47960407Y-32540591D01*
X48008026Y-32635829D01*
X48008026Y-32873924D01*
X47960407Y-32969162D01*
X47912788Y-33016781D01*
X47817550Y-33064400D01*
X47579455Y-33064400D01*
X47484217Y-33016781D01*
X47436598Y-32969162D01*
X103788026Y-53704400D02*
X103788026Y-54418686D01*
X103740407Y-54561543D01*
X103645169Y-54656781D01*
X103502312Y-54704400D01*
X103407074Y-54704400D01*
X104168979Y-53704400D02*
X104788026Y-53704400D01*
X104454693Y-54085353D01*
X104597550Y-54085353D01*
X104692788Y-54132972D01*
X104740407Y-54180591D01*
X104788026Y-54275829D01*
X104788026Y-54513924D01*
X104740407Y-54609162D01*
X104692788Y-54656781D01*
X104597550Y-54704400D01*
X104311836Y-54704400D01*
X104216598Y-54656781D01*
X104168979Y-54609162D01*
X86008026Y-76564400D02*
X86008026Y-77278686D01*
X85960407Y-77421543D01*
X85865169Y-77516781D01*
X85722312Y-77564400D01*
X85627074Y-77564400D01*
X86436598Y-76659639D02*
X86484217Y-76612020D01*
X86579455Y-76564400D01*
X86817550Y-76564400D01*
X86912788Y-76612020D01*
X86960407Y-76659639D01*
X87008026Y-76754877D01*
X87008026Y-76850115D01*
X86960407Y-76992972D01*
X86388979Y-77564400D01*
X87008026Y-77564400D01*
X103788026Y-76564400D02*
X103788026Y-77278686D01*
X103740407Y-77421543D01*
X103645169Y-77516781D01*
X103502312Y-77564400D01*
X103407074Y-77564400D01*
X104788026Y-77564400D02*
X104216598Y-77564400D01*
X104502312Y-77564400D02*
X104502312Y-76564400D01*
X104407074Y-76707258D01*
X104311836Y-76802496D01*
X104216598Y-76850115D01*
X64788026Y-32064400D02*
X64788026Y-32778686D01*
X64740407Y-32921543D01*
X64645169Y-33016781D01*
X64502312Y-33064400D01*
X64407074Y-33064400D01*
X65692788Y-32397734D02*
X65692788Y-33064400D01*
X65454693Y-32016781D02*
X65216598Y-32731067D01*
X65835645Y-32731067D01*
D15*
X49508642Y-64994666D02*
X49536461Y-65018857D01*
X49564280Y-65091428D01*
X49564280Y-65139809D01*
X49536461Y-65212380D01*
X49480823Y-65260761D01*
X49425185Y-65284952D01*
X49313909Y-65309142D01*
X49230452Y-65309142D01*
X49119176Y-65284952D01*
X49063538Y-65260761D01*
X49007900Y-65212380D01*
X48980080Y-65139809D01*
X48980080Y-65091428D01*
X49007900Y-65018857D01*
X49035719Y-64994666D01*
X49035719Y-64801142D02*
X49007900Y-64776952D01*
X48980080Y-64728571D01*
X48980080Y-64607619D01*
X49007900Y-64559238D01*
X49035719Y-64535047D01*
X49091357Y-64510857D01*
X49146995Y-64510857D01*
X49230452Y-64535047D01*
X49564280Y-64825333D01*
X49564280Y-64510857D01*
D16*
X50811809Y-65455171D02*
X50811809Y-65411628D01*
X50836000Y-65368085D01*
X50860190Y-65346314D01*
X50908571Y-65324542D01*
X51005333Y-65302771D01*
X51126285Y-65302771D01*
X51223047Y-65324542D01*
X51271428Y-65346314D01*
X51295619Y-65368085D01*
X51319809Y-65411628D01*
X51319809Y-65455171D01*
X51295619Y-65498714D01*
X51271428Y-65520485D01*
X51223047Y-65542257D01*
X51126285Y-65564028D01*
X51005333Y-65564028D01*
X50908571Y-65542257D01*
X50860190Y-65520485D01*
X50836000Y-65498714D01*
X50811809Y-65455171D01*
X51271428Y-65106828D02*
X51295619Y-65085057D01*
X51319809Y-65106828D01*
X51295619Y-65128600D01*
X51271428Y-65106828D01*
X51319809Y-65106828D01*
X51319809Y-64649628D02*
X51319809Y-64910885D01*
X51319809Y-64780257D02*
X50811809Y-64780257D01*
X50884380Y-64823800D01*
X50932761Y-64867342D01*
X50956952Y-64910885D01*
X50981142Y-64257742D02*
X51319809Y-64257742D01*
X50981142Y-64453685D02*
X51247238Y-64453685D01*
X51295619Y-64431914D01*
X51319809Y-64388371D01*
X51319809Y-64323057D01*
X51295619Y-64279514D01*
X51271428Y-64257742D01*
D15*
X48336642Y-74694666D02*
X48364461Y-74718857D01*
X48392280Y-74791428D01*
X48392280Y-74839809D01*
X48364461Y-74912380D01*
X48308823Y-74960761D01*
X48253185Y-74984952D01*
X48141909Y-75009142D01*
X48058452Y-75009142D01*
X47947176Y-74984952D01*
X47891538Y-74960761D01*
X47835900Y-74912380D01*
X47808080Y-74839809D01*
X47808080Y-74791428D01*
X47835900Y-74718857D01*
X47863719Y-74694666D01*
X47808080Y-74525333D02*
X47808080Y-74210857D01*
X48030633Y-74380190D01*
X48030633Y-74307619D01*
X48058452Y-74259238D01*
X48086271Y-74235047D01*
X48141909Y-74210857D01*
X48281004Y-74210857D01*
X48336642Y-74235047D01*
X48364461Y-74259238D01*
X48392280Y-74307619D01*
X48392280Y-74452761D01*
X48364461Y-74501142D01*
X48336642Y-74525333D01*
D16*
X46579809Y-74903914D02*
X46579809Y-75165171D01*
X46579809Y-75034542D02*
X46071809Y-75034542D01*
X46144380Y-75078085D01*
X46192761Y-75121628D01*
X46216952Y-75165171D01*
X46071809Y-74620885D02*
X46071809Y-74577342D01*
X46096000Y-74533800D01*
X46120190Y-74512028D01*
X46168571Y-74490257D01*
X46265333Y-74468485D01*
X46386285Y-74468485D01*
X46483047Y-74490257D01*
X46531428Y-74512028D01*
X46555619Y-74533800D01*
X46579809Y-74577342D01*
X46579809Y-74620885D01*
X46555619Y-74664428D01*
X46531428Y-74686200D01*
X46483047Y-74707971D01*
X46386285Y-74729742D01*
X46265333Y-74729742D01*
X46168571Y-74707971D01*
X46120190Y-74686200D01*
X46096000Y-74664428D01*
X46071809Y-74620885D01*
X46241142Y-74076600D02*
X46579809Y-74076600D01*
X46241142Y-74272542D02*
X46507238Y-74272542D01*
X46555619Y-74250771D01*
X46579809Y-74207228D01*
X46579809Y-74141914D01*
X46555619Y-74098371D01*
X46531428Y-74076600D01*
D15*
X48346642Y-73064666D02*
X48374461Y-73088857D01*
X48402280Y-73161428D01*
X48402280Y-73209809D01*
X48374461Y-73282380D01*
X48318823Y-73330761D01*
X48263185Y-73354952D01*
X48151909Y-73379142D01*
X48068452Y-73379142D01*
X47957176Y-73354952D01*
X47901538Y-73330761D01*
X47845900Y-73282380D01*
X47818080Y-73209809D01*
X47818080Y-73161428D01*
X47845900Y-73088857D01*
X47873719Y-73064666D01*
X48012814Y-72629238D02*
X48402280Y-72629238D01*
X47790261Y-72750190D02*
X48207547Y-72871142D01*
X48207547Y-72556666D01*
D16*
X46081809Y-73535171D02*
X46081809Y-73491628D01*
X46106000Y-73448085D01*
X46130190Y-73426314D01*
X46178571Y-73404542D01*
X46275333Y-73382771D01*
X46396285Y-73382771D01*
X46493047Y-73404542D01*
X46541428Y-73426314D01*
X46565619Y-73448085D01*
X46589809Y-73491628D01*
X46589809Y-73535171D01*
X46565619Y-73578714D01*
X46541428Y-73600485D01*
X46493047Y-73622257D01*
X46396285Y-73644028D01*
X46275333Y-73644028D01*
X46178571Y-73622257D01*
X46130190Y-73600485D01*
X46106000Y-73578714D01*
X46081809Y-73535171D01*
X46541428Y-73186828D02*
X46565619Y-73165057D01*
X46589809Y-73186828D01*
X46565619Y-73208600D01*
X46541428Y-73186828D01*
X46589809Y-73186828D01*
X46589809Y-72729628D02*
X46589809Y-72990885D01*
X46589809Y-72860257D02*
X46081809Y-72860257D01*
X46154380Y-72903800D01*
X46202761Y-72947342D01*
X46226952Y-72990885D01*
X46251142Y-72337742D02*
X46589809Y-72337742D01*
X46251142Y-72533685D02*
X46517238Y-72533685D01*
X46565619Y-72511914D01*
X46589809Y-72468371D01*
X46589809Y-72403057D01*
X46565619Y-72359514D01*
X46541428Y-72337742D01*
D15*
X57335333Y-79488642D02*
X57311142Y-79516461D01*
X57238571Y-79544280D01*
X57190190Y-79544280D01*
X57117619Y-79516461D01*
X57069238Y-79460823D01*
X57045047Y-79405185D01*
X57020857Y-79293909D01*
X57020857Y-79210452D01*
X57045047Y-79099176D01*
X57069238Y-79043538D01*
X57117619Y-78987900D01*
X57190190Y-78960080D01*
X57238571Y-78960080D01*
X57311142Y-78987900D01*
X57335333Y-79015719D01*
X57794952Y-78960080D02*
X57553047Y-78960080D01*
X57528857Y-79238271D01*
X57553047Y-79210452D01*
X57601428Y-79182633D01*
X57722380Y-79182633D01*
X57770761Y-79210452D01*
X57794952Y-79238271D01*
X57819142Y-79293909D01*
X57819142Y-79433004D01*
X57794952Y-79488642D01*
X57770761Y-79516461D01*
X57722380Y-79544280D01*
X57601428Y-79544280D01*
X57553047Y-79516461D01*
X57528857Y-79488642D01*
D16*
X57116085Y-77739809D02*
X56854828Y-77739809D01*
X56985457Y-77739809D02*
X56985457Y-77231809D01*
X56941914Y-77304380D01*
X56898371Y-77352761D01*
X56854828Y-77376952D01*
X57399114Y-77231809D02*
X57442657Y-77231809D01*
X57486200Y-77256000D01*
X57507971Y-77280190D01*
X57529742Y-77328571D01*
X57551514Y-77425333D01*
X57551514Y-77546285D01*
X57529742Y-77643047D01*
X57507971Y-77691428D01*
X57486200Y-77715619D01*
X57442657Y-77739809D01*
X57399114Y-77739809D01*
X57355571Y-77715619D01*
X57333800Y-77691428D01*
X57312028Y-77643047D01*
X57290257Y-77546285D01*
X57290257Y-77425333D01*
X57312028Y-77328571D01*
X57333800Y-77280190D01*
X57355571Y-77256000D01*
X57399114Y-77231809D01*
X57943400Y-77401142D02*
X57943400Y-77739809D01*
X57747457Y-77401142D02*
X57747457Y-77667238D01*
X57769228Y-77715619D01*
X57812771Y-77739809D01*
X57878085Y-77739809D01*
X57921628Y-77715619D01*
X57943400Y-77691428D01*
D15*
X58748642Y-66846571D02*
X58776461Y-66870761D01*
X58804280Y-66943333D01*
X58804280Y-66991714D01*
X58776461Y-67064285D01*
X58720823Y-67112666D01*
X58665185Y-67136857D01*
X58553909Y-67161047D01*
X58470452Y-67161047D01*
X58359176Y-67136857D01*
X58303538Y-67112666D01*
X58247900Y-67064285D01*
X58220080Y-66991714D01*
X58220080Y-66943333D01*
X58247900Y-66870761D01*
X58275719Y-66846571D01*
X58804280Y-66362761D02*
X58804280Y-66653047D01*
X58804280Y-66507904D02*
X58220080Y-66507904D01*
X58303538Y-66556285D01*
X58359176Y-66604666D01*
X58386995Y-66653047D01*
X58804280Y-65878952D02*
X58804280Y-66169238D01*
X58804280Y-66024095D02*
X58220080Y-66024095D01*
X58303538Y-66072476D01*
X58359176Y-66120857D01*
X58386995Y-66169238D01*
D16*
X56421809Y-67085171D02*
X56421809Y-67041628D01*
X56446000Y-66998085D01*
X56470190Y-66976314D01*
X56518571Y-66954542D01*
X56615333Y-66932771D01*
X56736285Y-66932771D01*
X56833047Y-66954542D01*
X56881428Y-66976314D01*
X56905619Y-66998085D01*
X56929809Y-67041628D01*
X56929809Y-67085171D01*
X56905619Y-67128714D01*
X56881428Y-67150485D01*
X56833047Y-67172257D01*
X56736285Y-67194028D01*
X56615333Y-67194028D01*
X56518571Y-67172257D01*
X56470190Y-67150485D01*
X56446000Y-67128714D01*
X56421809Y-67085171D01*
X56881428Y-66736828D02*
X56905619Y-66715057D01*
X56929809Y-66736828D01*
X56905619Y-66758600D01*
X56881428Y-66736828D01*
X56929809Y-66736828D01*
X56929809Y-66279628D02*
X56929809Y-66540885D01*
X56929809Y-66410257D02*
X56421809Y-66410257D01*
X56494380Y-66453800D01*
X56542761Y-66497342D01*
X56566952Y-66540885D01*
X56591142Y-65887742D02*
X56929809Y-65887742D01*
X56591142Y-66083685D02*
X56857238Y-66083685D01*
X56905619Y-66061914D01*
X56929809Y-66018371D01*
X56929809Y-65953057D01*
X56905619Y-65909514D01*
X56881428Y-65887742D01*
D15*
X58728642Y-65236571D02*
X58756461Y-65260761D01*
X58784280Y-65333333D01*
X58784280Y-65381714D01*
X58756461Y-65454285D01*
X58700823Y-65502666D01*
X58645185Y-65526857D01*
X58533909Y-65551047D01*
X58450452Y-65551047D01*
X58339176Y-65526857D01*
X58283538Y-65502666D01*
X58227900Y-65454285D01*
X58200080Y-65381714D01*
X58200080Y-65333333D01*
X58227900Y-65260761D01*
X58255719Y-65236571D01*
X58784280Y-64752761D02*
X58784280Y-65043047D01*
X58784280Y-64897904D02*
X58200080Y-64897904D01*
X58283538Y-64946285D01*
X58339176Y-64994666D01*
X58366995Y-65043047D01*
X58200080Y-64438285D02*
X58200080Y-64389904D01*
X58227900Y-64341523D01*
X58255719Y-64317333D01*
X58311357Y-64293142D01*
X58422633Y-64268952D01*
X58561728Y-64268952D01*
X58673004Y-64293142D01*
X58728642Y-64317333D01*
X58756461Y-64341523D01*
X58784280Y-64389904D01*
X58784280Y-64438285D01*
X58756461Y-64486666D01*
X58728642Y-64510857D01*
X58673004Y-64535047D01*
X58561728Y-64559238D01*
X58422633Y-64559238D01*
X58311357Y-64535047D01*
X58255719Y-64510857D01*
X58227900Y-64486666D01*
X58200080Y-64438285D01*
D16*
X56919809Y-65193914D02*
X56919809Y-65455171D01*
X56919809Y-65324542D02*
X56411809Y-65324542D01*
X56484380Y-65368085D01*
X56532761Y-65411628D01*
X56556952Y-65455171D01*
X56411809Y-64910885D02*
X56411809Y-64867342D01*
X56436000Y-64823800D01*
X56460190Y-64802028D01*
X56508571Y-64780257D01*
X56605333Y-64758485D01*
X56726285Y-64758485D01*
X56823047Y-64780257D01*
X56871428Y-64802028D01*
X56895619Y-64823800D01*
X56919809Y-64867342D01*
X56919809Y-64910885D01*
X56895619Y-64954428D01*
X56871428Y-64976200D01*
X56823047Y-64997971D01*
X56726285Y-65019742D01*
X56605333Y-65019742D01*
X56508571Y-64997971D01*
X56460190Y-64976200D01*
X56436000Y-64954428D01*
X56411809Y-64910885D01*
X56581142Y-64366600D02*
X56919809Y-64366600D01*
X56581142Y-64562542D02*
X56847238Y-64562542D01*
X56895619Y-64540771D01*
X56919809Y-64497228D01*
X56919809Y-64431914D01*
X56895619Y-64388371D01*
X56871428Y-64366600D01*
D15*
X61315333Y-74846642D02*
X61291142Y-74874461D01*
X61218571Y-74902280D01*
X61170190Y-74902280D01*
X61097619Y-74874461D01*
X61049238Y-74818823D01*
X61025047Y-74763185D01*
X61000857Y-74651909D01*
X61000857Y-74568452D01*
X61025047Y-74457176D01*
X61049238Y-74401538D01*
X61097619Y-74345900D01*
X61170190Y-74318080D01*
X61218571Y-74318080D01*
X61291142Y-74345900D01*
X61315333Y-74373719D01*
X61605619Y-74568452D02*
X61557238Y-74540633D01*
X61533047Y-74512814D01*
X61508857Y-74457176D01*
X61508857Y-74429357D01*
X61533047Y-74373719D01*
X61557238Y-74345900D01*
X61605619Y-74318080D01*
X61702380Y-74318080D01*
X61750761Y-74345900D01*
X61774952Y-74373719D01*
X61799142Y-74429357D01*
X61799142Y-74457176D01*
X61774952Y-74512814D01*
X61750761Y-74540633D01*
X61702380Y-74568452D01*
X61605619Y-74568452D01*
X61557238Y-74596271D01*
X61533047Y-74624090D01*
X61508857Y-74679728D01*
X61508857Y-74791004D01*
X61533047Y-74846642D01*
X61557238Y-74874461D01*
X61605619Y-74902280D01*
X61702380Y-74902280D01*
X61750761Y-74874461D01*
X61774952Y-74846642D01*
X61799142Y-74791004D01*
X61799142Y-74679728D01*
X61774952Y-74624090D01*
X61750761Y-74596271D01*
X61702380Y-74568452D01*
D16*
X61106085Y-73089809D02*
X60844828Y-73089809D01*
X60975457Y-73089809D02*
X60975457Y-72581809D01*
X60931914Y-72654380D01*
X60888371Y-72702761D01*
X60844828Y-72726952D01*
X61389114Y-72581809D02*
X61432657Y-72581809D01*
X61476200Y-72606000D01*
X61497971Y-72630190D01*
X61519742Y-72678571D01*
X61541514Y-72775333D01*
X61541514Y-72896285D01*
X61519742Y-72993047D01*
X61497971Y-73041428D01*
X61476200Y-73065619D01*
X61432657Y-73089809D01*
X61389114Y-73089809D01*
X61345571Y-73065619D01*
X61323800Y-73041428D01*
X61302028Y-72993047D01*
X61280257Y-72896285D01*
X61280257Y-72775333D01*
X61302028Y-72678571D01*
X61323800Y-72630190D01*
X61345571Y-72606000D01*
X61389114Y-72581809D01*
X61933400Y-72751142D02*
X61933400Y-73089809D01*
X61737457Y-72751142D02*
X61737457Y-73017238D01*
X61759228Y-73065619D01*
X61802771Y-73089809D01*
X61868085Y-73089809D01*
X61911628Y-73065619D01*
X61933400Y-73041428D01*
D15*
X55675333Y-79498642D02*
X55651142Y-79526461D01*
X55578571Y-79554280D01*
X55530190Y-79554280D01*
X55457619Y-79526461D01*
X55409238Y-79470823D01*
X55385047Y-79415185D01*
X55360857Y-79303909D01*
X55360857Y-79220452D01*
X55385047Y-79109176D01*
X55409238Y-79053538D01*
X55457619Y-78997900D01*
X55530190Y-78970080D01*
X55578571Y-78970080D01*
X55651142Y-78997900D01*
X55675333Y-79025719D01*
X55844666Y-78970080D02*
X56183333Y-78970080D01*
X55965619Y-79554280D01*
D16*
X55224828Y-77231809D02*
X55268371Y-77231809D01*
X55311914Y-77256000D01*
X55333685Y-77280190D01*
X55355457Y-77328571D01*
X55377228Y-77425333D01*
X55377228Y-77546285D01*
X55355457Y-77643047D01*
X55333685Y-77691428D01*
X55311914Y-77715619D01*
X55268371Y-77739809D01*
X55224828Y-77739809D01*
X55181285Y-77715619D01*
X55159514Y-77691428D01*
X55137742Y-77643047D01*
X55115971Y-77546285D01*
X55115971Y-77425333D01*
X55137742Y-77328571D01*
X55159514Y-77280190D01*
X55181285Y-77256000D01*
X55224828Y-77231809D01*
X55573171Y-77691428D02*
X55594942Y-77715619D01*
X55573171Y-77739809D01*
X55551400Y-77715619D01*
X55573171Y-77691428D01*
X55573171Y-77739809D01*
X56030371Y-77739809D02*
X55769114Y-77739809D01*
X55899742Y-77739809D02*
X55899742Y-77231809D01*
X55856200Y-77304380D01*
X55812657Y-77352761D01*
X55769114Y-77376952D01*
X56422257Y-77401142D02*
X56422257Y-77739809D01*
X56226314Y-77401142D02*
X56226314Y-77667238D01*
X56248085Y-77715619D01*
X56291628Y-77739809D01*
X56356942Y-77739809D01*
X56400485Y-77715619D01*
X56422257Y-77691428D01*
D15*
X58145333Y-56320642D02*
X58121142Y-56348461D01*
X58048571Y-56376280D01*
X58000190Y-56376280D01*
X57927619Y-56348461D01*
X57879238Y-56292823D01*
X57855047Y-56237185D01*
X57830857Y-56125909D01*
X57830857Y-56042452D01*
X57855047Y-55931176D01*
X57879238Y-55875538D01*
X57927619Y-55819900D01*
X58000190Y-55792080D01*
X58048571Y-55792080D01*
X58121142Y-55819900D01*
X58145333Y-55847719D01*
X58580761Y-55792080D02*
X58484000Y-55792080D01*
X58435619Y-55819900D01*
X58411428Y-55847719D01*
X58363047Y-55931176D01*
X58338857Y-56042452D01*
X58338857Y-56265004D01*
X58363047Y-56320642D01*
X58387238Y-56348461D01*
X58435619Y-56376280D01*
X58532380Y-56376280D01*
X58580761Y-56348461D01*
X58604952Y-56320642D01*
X58629142Y-56265004D01*
X58629142Y-56125909D01*
X58604952Y-56070271D01*
X58580761Y-56042452D01*
X58532380Y-56014633D01*
X58435619Y-56014633D01*
X58387238Y-56042452D01*
X58363047Y-56070271D01*
X58338857Y-56125909D01*
D16*
X57674828Y-57611809D02*
X57718371Y-57611809D01*
X57761914Y-57636000D01*
X57783685Y-57660190D01*
X57805457Y-57708571D01*
X57827228Y-57805333D01*
X57827228Y-57926285D01*
X57805457Y-58023047D01*
X57783685Y-58071428D01*
X57761914Y-58095619D01*
X57718371Y-58119809D01*
X57674828Y-58119809D01*
X57631285Y-58095619D01*
X57609514Y-58071428D01*
X57587742Y-58023047D01*
X57565971Y-57926285D01*
X57565971Y-57805333D01*
X57587742Y-57708571D01*
X57609514Y-57660190D01*
X57631285Y-57636000D01*
X57674828Y-57611809D01*
X58023171Y-58071428D02*
X58044942Y-58095619D01*
X58023171Y-58119809D01*
X58001400Y-58095619D01*
X58023171Y-58071428D01*
X58023171Y-58119809D01*
X58480371Y-58119809D02*
X58219114Y-58119809D01*
X58349742Y-58119809D02*
X58349742Y-57611809D01*
X58306200Y-57684380D01*
X58262657Y-57732761D01*
X58219114Y-57756952D01*
X58872257Y-57781142D02*
X58872257Y-58119809D01*
X58676314Y-57781142D02*
X58676314Y-58047238D01*
X58698085Y-58095619D01*
X58741628Y-58119809D01*
X58806942Y-58119809D01*
X58850485Y-58095619D01*
X58872257Y-58071428D01*
D15*
X49548642Y-66564666D02*
X49576461Y-66588857D01*
X49604280Y-66661428D01*
X49604280Y-66709809D01*
X49576461Y-66782380D01*
X49520823Y-66830761D01*
X49465185Y-66854952D01*
X49353909Y-66879142D01*
X49270452Y-66879142D01*
X49159176Y-66854952D01*
X49103538Y-66830761D01*
X49047900Y-66782380D01*
X49020080Y-66709809D01*
X49020080Y-66661428D01*
X49047900Y-66588857D01*
X49075719Y-66564666D01*
X49604280Y-66080857D02*
X49604280Y-66371142D01*
X49604280Y-66226000D02*
X49020080Y-66226000D01*
X49103538Y-66274380D01*
X49159176Y-66322761D01*
X49186995Y-66371142D01*
D16*
X51319809Y-66823914D02*
X51319809Y-67085171D01*
X51319809Y-66954542D02*
X50811809Y-66954542D01*
X50884380Y-66998085D01*
X50932761Y-67041628D01*
X50956952Y-67085171D01*
X50811809Y-66540885D02*
X50811809Y-66497342D01*
X50836000Y-66453800D01*
X50860190Y-66432028D01*
X50908571Y-66410257D01*
X51005333Y-66388485D01*
X51126285Y-66388485D01*
X51223047Y-66410257D01*
X51271428Y-66432028D01*
X51295619Y-66453800D01*
X51319809Y-66497342D01*
X51319809Y-66540885D01*
X51295619Y-66584428D01*
X51271428Y-66606200D01*
X51223047Y-66627971D01*
X51126285Y-66649742D01*
X51005333Y-66649742D01*
X50908571Y-66627971D01*
X50860190Y-66606200D01*
X50836000Y-66584428D01*
X50811809Y-66540885D01*
X50981142Y-65996600D02*
X51319809Y-65996600D01*
X50981142Y-66192542D02*
X51247238Y-66192542D01*
X51295619Y-66170771D01*
X51319809Y-66127228D01*
X51319809Y-66061914D01*
X51295619Y-66018371D01*
X51271428Y-65996600D01*
D15*
X53795333Y-65564280D02*
X53626000Y-65286090D01*
X53505047Y-65564280D02*
X53505047Y-64980080D01*
X53698571Y-64980080D01*
X53746952Y-65007900D01*
X53771142Y-65035719D01*
X53795333Y-65091357D01*
X53795333Y-65174814D01*
X53771142Y-65230452D01*
X53746952Y-65258271D01*
X53698571Y-65286090D01*
X53505047Y-65286090D01*
X54230761Y-65174814D02*
X54230761Y-65564280D01*
X54109809Y-64952261D02*
X53988857Y-65369547D01*
X54303333Y-65369547D01*
D16*
X54129809Y-66670628D02*
X54129809Y-66931885D01*
X54129809Y-66801257D02*
X53621809Y-66801257D01*
X53694380Y-66844800D01*
X53742761Y-66888342D01*
X53766952Y-66931885D01*
X54129809Y-66474685D02*
X53621809Y-66474685D01*
X53984666Y-66322285D01*
X53621809Y-66169885D01*
X54129809Y-66169885D01*
D15*
X47195333Y-65984280D02*
X47026000Y-65706090D01*
X46905047Y-65984280D02*
X46905047Y-65400080D01*
X47098571Y-65400080D01*
X47146952Y-65427900D01*
X47171142Y-65455719D01*
X47195333Y-65511357D01*
X47195333Y-65594814D01*
X47171142Y-65650452D01*
X47146952Y-65678271D01*
X47098571Y-65706090D01*
X46905047Y-65706090D01*
X47388857Y-65455719D02*
X47413047Y-65427900D01*
X47461428Y-65400080D01*
X47582380Y-65400080D01*
X47630761Y-65427900D01*
X47654952Y-65455719D01*
X47679142Y-65511357D01*
X47679142Y-65566995D01*
X47654952Y-65650452D01*
X47364666Y-65984280D01*
X47679142Y-65984280D01*
D16*
X46645971Y-67201809D02*
X46929000Y-67201809D01*
X46776600Y-67395333D01*
X46841914Y-67395333D01*
X46885457Y-67419523D01*
X46907228Y-67443714D01*
X46929000Y-67492095D01*
X46929000Y-67613047D01*
X46907228Y-67661428D01*
X46885457Y-67685619D01*
X46841914Y-67709809D01*
X46711285Y-67709809D01*
X46667742Y-67685619D01*
X46645971Y-67661428D01*
X47124942Y-67661428D02*
X47146714Y-67685619D01*
X47124942Y-67709809D01*
X47103171Y-67685619D01*
X47124942Y-67661428D01*
X47124942Y-67709809D01*
X47299114Y-67201809D02*
X47582142Y-67201809D01*
X47429742Y-67395333D01*
X47495057Y-67395333D01*
X47538600Y-67419523D01*
X47560371Y-67443714D01*
X47582142Y-67492095D01*
X47582142Y-67613047D01*
X47560371Y-67661428D01*
X47538600Y-67685619D01*
X47495057Y-67709809D01*
X47364428Y-67709809D01*
X47320885Y-67685619D01*
X47299114Y-67661428D01*
X47778085Y-67709809D02*
X47778085Y-67201809D01*
X47821628Y-67516285D02*
X47952257Y-67709809D01*
X47952257Y-67371142D02*
X47778085Y-67564666D01*
D15*
X45605333Y-65966280D02*
X45436000Y-65688090D01*
X45315047Y-65966280D02*
X45315047Y-65382080D01*
X45508571Y-65382080D01*
X45556952Y-65409900D01*
X45581142Y-65437719D01*
X45605333Y-65493357D01*
X45605333Y-65576814D01*
X45581142Y-65632452D01*
X45556952Y-65660271D01*
X45508571Y-65688090D01*
X45315047Y-65688090D01*
X46089142Y-65966280D02*
X45798857Y-65966280D01*
X45944000Y-65966280D02*
X45944000Y-65382080D01*
X45895619Y-65465538D01*
X45847238Y-65521176D01*
X45798857Y-65548995D01*
D16*
X45309000Y-67709809D02*
X45047742Y-67709809D01*
X45178371Y-67709809D02*
X45178371Y-67201809D01*
X45134828Y-67274380D01*
X45091285Y-67322761D01*
X45047742Y-67346952D01*
X45504942Y-67661428D02*
X45526714Y-67685619D01*
X45504942Y-67709809D01*
X45483171Y-67685619D01*
X45504942Y-67661428D01*
X45504942Y-67709809D01*
X45787971Y-67419523D02*
X45744428Y-67395333D01*
X45722657Y-67371142D01*
X45700885Y-67322761D01*
X45700885Y-67298571D01*
X45722657Y-67250190D01*
X45744428Y-67226000D01*
X45787971Y-67201809D01*
X45875057Y-67201809D01*
X45918600Y-67226000D01*
X45940371Y-67250190D01*
X45962142Y-67298571D01*
X45962142Y-67322761D01*
X45940371Y-67371142D01*
X45918600Y-67395333D01*
X45875057Y-67419523D01*
X45787971Y-67419523D01*
X45744428Y-67443714D01*
X45722657Y-67467904D01*
X45700885Y-67516285D01*
X45700885Y-67613047D01*
X45722657Y-67661428D01*
X45744428Y-67685619D01*
X45787971Y-67709809D01*
X45875057Y-67709809D01*
X45918600Y-67685619D01*
X45940371Y-67661428D01*
X45962142Y-67613047D01*
X45962142Y-67516285D01*
X45940371Y-67467904D01*
X45918600Y-67443714D01*
X45875057Y-67419523D01*
X46158085Y-67709809D02*
X46158085Y-67201809D01*
X46201628Y-67516285D02*
X46332257Y-67709809D01*
X46332257Y-67371142D02*
X46158085Y-67564666D01*
D17*
X44399809Y-67360571D02*
X44375619Y-67408952D01*
X44351428Y-67433142D01*
X44303047Y-67457333D01*
X44157904Y-67457333D01*
X44109523Y-67433142D01*
X44085333Y-67408952D01*
X44061142Y-67360571D01*
X44061142Y-67288000D01*
X44085333Y-67239619D01*
X44109523Y-67215428D01*
X44157904Y-67191238D01*
X44303047Y-67191238D01*
X44351428Y-67215428D01*
X44375619Y-67239619D01*
X44399809Y-67288000D01*
X44399809Y-67360571D01*
X44351428Y-66683238D02*
X44375619Y-66707428D01*
X44399809Y-66780000D01*
X44399809Y-66828380D01*
X44375619Y-66900952D01*
X44327238Y-66949333D01*
X44278857Y-66973523D01*
X44182095Y-66997714D01*
X44109523Y-66997714D01*
X44012761Y-66973523D01*
X43964380Y-66949333D01*
X43916000Y-66900952D01*
X43891809Y-66828380D01*
X43891809Y-66780000D01*
X43916000Y-66707428D01*
X43940190Y-66683238D01*
X44399809Y-66465523D02*
X43891809Y-66465523D01*
X44254666Y-66296190D01*
X43891809Y-66126857D01*
X44399809Y-66126857D01*
X43916000Y-69167047D02*
X43891809Y-69215428D01*
X43891809Y-69288000D01*
X43916000Y-69360571D01*
X43964380Y-69408952D01*
X44012761Y-69433142D01*
X44109523Y-69457333D01*
X44182095Y-69457333D01*
X44278857Y-69433142D01*
X44327238Y-69408952D01*
X44375619Y-69360571D01*
X44399809Y-69288000D01*
X44399809Y-69239619D01*
X44375619Y-69167047D01*
X44351428Y-69142857D01*
X44182095Y-69142857D01*
X44182095Y-69239619D01*
X44399809Y-68925142D02*
X43891809Y-68925142D01*
X44399809Y-68634857D01*
X43891809Y-68634857D01*
X44399809Y-68392952D02*
X43891809Y-68392952D01*
X43891809Y-68272000D01*
X43916000Y-68199428D01*
X43964380Y-68151047D01*
X44012761Y-68126857D01*
X44109523Y-68102666D01*
X44182095Y-68102666D01*
X44278857Y-68126857D01*
X44327238Y-68151047D01*
X44375619Y-68199428D01*
X44399809Y-68272000D01*
X44399809Y-68392952D01*
X85355619Y-58023142D02*
X85379809Y-57950571D01*
X85379809Y-57829619D01*
X85355619Y-57781238D01*
X85331428Y-57757047D01*
X85283047Y-57732857D01*
X85234666Y-57732857D01*
X85186285Y-57757047D01*
X85162095Y-57781238D01*
X85137904Y-57829619D01*
X85113714Y-57926380D01*
X85089523Y-57974761D01*
X85065333Y-57998952D01*
X85016952Y-58023142D01*
X84968571Y-58023142D01*
X84920190Y-57998952D01*
X84896000Y-57974761D01*
X84871809Y-57926380D01*
X84871809Y-57805428D01*
X84896000Y-57732857D01*
X85379809Y-57515142D02*
X84871809Y-57515142D01*
X85113714Y-57515142D02*
X85113714Y-57224857D01*
X85379809Y-57224857D02*
X84871809Y-57224857D01*
X85379809Y-56716857D02*
X85379809Y-57007142D01*
X85379809Y-56862000D02*
X84871809Y-56862000D01*
X84944380Y-56910380D01*
X84992761Y-56958761D01*
X85016952Y-57007142D01*
X85379809Y-59972190D02*
X85355619Y-60020571D01*
X85331428Y-60044761D01*
X85283047Y-60068952D01*
X85137904Y-60068952D01*
X85089523Y-60044761D01*
X85065333Y-60020571D01*
X85041142Y-59972190D01*
X85041142Y-59899619D01*
X85065333Y-59851238D01*
X85089523Y-59827047D01*
X85137904Y-59802857D01*
X85283047Y-59802857D01*
X85331428Y-59827047D01*
X85355619Y-59851238D01*
X85379809Y-59899619D01*
X85379809Y-59972190D01*
X85331428Y-59294857D02*
X85355619Y-59319047D01*
X85379809Y-59391619D01*
X85379809Y-59440000D01*
X85355619Y-59512571D01*
X85307238Y-59560952D01*
X85258857Y-59585142D01*
X85162095Y-59609333D01*
X85089523Y-59609333D01*
X84992761Y-59585142D01*
X84944380Y-59560952D01*
X84896000Y-59512571D01*
X84871809Y-59440000D01*
X84871809Y-59391619D01*
X84896000Y-59319047D01*
X84920190Y-59294857D01*
X85379809Y-58811047D02*
X85379809Y-59101333D01*
X85379809Y-58956190D02*
X84871809Y-58956190D01*
X84944380Y-59004571D01*
X84992761Y-59052952D01*
X85016952Y-59101333D01*
X91468761Y-60255619D02*
X91541333Y-60279809D01*
X91662285Y-60279809D01*
X91710666Y-60255619D01*
X91734857Y-60231428D01*
X91759047Y-60183047D01*
X91759047Y-60134666D01*
X91734857Y-60086285D01*
X91710666Y-60062095D01*
X91662285Y-60037904D01*
X91565523Y-60013714D01*
X91517142Y-59989523D01*
X91492952Y-59965333D01*
X91468761Y-59916952D01*
X91468761Y-59868571D01*
X91492952Y-59820190D01*
X91517142Y-59796000D01*
X91565523Y-59771809D01*
X91686476Y-59771809D01*
X91759047Y-59796000D01*
X92073523Y-59771809D02*
X92170285Y-59771809D01*
X92218666Y-59796000D01*
X92267047Y-59844380D01*
X92291238Y-59941142D01*
X92291238Y-60110476D01*
X92267047Y-60207238D01*
X92218666Y-60255619D01*
X92170285Y-60279809D01*
X92073523Y-60279809D01*
X92025142Y-60255619D01*
X91976761Y-60207238D01*
X91952571Y-60110476D01*
X91952571Y-59941142D01*
X91976761Y-59844380D01*
X92025142Y-59796000D01*
X92073523Y-59771809D01*
X94765238Y-59771809D02*
X95079714Y-59771809D01*
X94910380Y-59965333D01*
X94982952Y-59965333D01*
X95031333Y-59989523D01*
X95055523Y-60013714D01*
X95079714Y-60062095D01*
X95079714Y-60183047D01*
X95055523Y-60231428D01*
X95031333Y-60255619D01*
X94982952Y-60279809D01*
X94837809Y-60279809D01*
X94789428Y-60255619D01*
X94765238Y-60231428D01*
X95249047Y-59941142D02*
X95370000Y-60279809D01*
X95490952Y-59941142D01*
X95636095Y-59771809D02*
X95950571Y-59771809D01*
X95781238Y-59965333D01*
X95853809Y-59965333D01*
X95902190Y-59989523D01*
X95926380Y-60013714D01*
X95950571Y-60062095D01*
X95950571Y-60183047D01*
X95926380Y-60231428D01*
X95902190Y-60255619D01*
X95853809Y-60279809D01*
X95708666Y-60279809D01*
X95660285Y-60255619D01*
X95636095Y-60231428D01*
X44399809Y-76936857D02*
X43891809Y-76936857D01*
X43891809Y-76815904D01*
X43916000Y-76743333D01*
X43964380Y-76694952D01*
X44012761Y-76670761D01*
X44109523Y-76646571D01*
X44182095Y-76646571D01*
X44278857Y-76670761D01*
X44327238Y-76694952D01*
X44375619Y-76743333D01*
X44399809Y-76815904D01*
X44399809Y-76936857D01*
X44254666Y-76453047D02*
X44254666Y-76211142D01*
X44399809Y-76501428D02*
X43891809Y-76332095D01*
X44399809Y-76162761D01*
X43891809Y-75896666D02*
X43891809Y-75799904D01*
X43916000Y-75751523D01*
X43964380Y-75703142D01*
X44061142Y-75678952D01*
X44230476Y-75678952D01*
X44327238Y-75703142D01*
X44375619Y-75751523D01*
X44399809Y-75799904D01*
X44399809Y-75896666D01*
X44375619Y-75945047D01*
X44327238Y-75993428D01*
X44230476Y-76017619D01*
X44061142Y-76017619D01*
X43964380Y-75993428D01*
X43916000Y-75945047D01*
X43891809Y-75896666D01*
X43916000Y-74687047D02*
X43891809Y-74735428D01*
X43891809Y-74808000D01*
X43916000Y-74880571D01*
X43964380Y-74928952D01*
X44012761Y-74953142D01*
X44109523Y-74977333D01*
X44182095Y-74977333D01*
X44278857Y-74953142D01*
X44327238Y-74928952D01*
X44375619Y-74880571D01*
X44399809Y-74808000D01*
X44399809Y-74759619D01*
X44375619Y-74687047D01*
X44351428Y-74662857D01*
X44182095Y-74662857D01*
X44182095Y-74759619D01*
X44399809Y-74445142D02*
X43891809Y-74445142D01*
X44399809Y-74154857D01*
X43891809Y-74154857D01*
X44399809Y-73912952D02*
X43891809Y-73912952D01*
X43891809Y-73792000D01*
X43916000Y-73719428D01*
X43964380Y-73671047D01*
X44012761Y-73646857D01*
X44109523Y-73622666D01*
X44182095Y-73622666D01*
X44278857Y-73646857D01*
X44327238Y-73671047D01*
X44375619Y-73719428D01*
X44399809Y-73792000D01*
X44399809Y-73912952D01*
M02*
