G04 #@! TF.GenerationSoftware,KiCad,Pcbnew,6.0.4+dfsg-1+b1*
G04 #@! TF.CreationDate,2022-05-30T21:12:58+03:00*
G04 #@! TF.ProjectId,cps1_adapter,63707331-5f61-4646-9170-7465722e6b69,rev?*
G04 #@! TF.SameCoordinates,Original*
G04 #@! TF.FileFunction,Legend,Top*
G04 #@! TF.FilePolarity,Positive*
%FSLAX46Y46*%
G04 Gerber Fmt 4.6, Leading zero omitted, Abs format (unit mm)*
G04 Created by KiCad (PCBNEW 6.0.4+dfsg-1+b1) date 2022-05-30 21:12:58*
%MOMM*%
%LPD*%
G01*
G04 APERTURE LIST*
%ADD10C,0.075000*%
%ADD11C,0.200000*%
%ADD12C,0.100000*%
%ADD13C,0.127000*%
%ADD14C,0.114300*%
%ADD15C,0.150000*%
%ADD16C,0.119380*%
%ADD17C,0.120000*%
G04 APERTURE END LIST*
D10*
X91545714Y-60940000D02*
X91531428Y-60925714D01*
X91502857Y-60882857D01*
X91488571Y-60854285D01*
X91474285Y-60811428D01*
X91460000Y-60740000D01*
X91460000Y-60682857D01*
X91474285Y-60611428D01*
X91488571Y-60568571D01*
X91502857Y-60540000D01*
X91531428Y-60497142D01*
X91545714Y-60482857D01*
X91617142Y-60525714D02*
X91717142Y-60825714D01*
X91817142Y-60525714D01*
X91902857Y-60811428D02*
X91945714Y-60825714D01*
X92017142Y-60825714D01*
X92045714Y-60811428D01*
X92060000Y-60797142D01*
X92074285Y-60768571D01*
X92074285Y-60740000D01*
X92060000Y-60711428D01*
X92045714Y-60697142D01*
X92017142Y-60682857D01*
X91960000Y-60668571D01*
X91931428Y-60654285D01*
X91917142Y-60640000D01*
X91902857Y-60611428D01*
X91902857Y-60582857D01*
X91917142Y-60554285D01*
X91931428Y-60540000D01*
X91960000Y-60525714D01*
X92031428Y-60525714D01*
X92074285Y-60540000D01*
X92174285Y-60940000D02*
X92188571Y-60925714D01*
X92217142Y-60882857D01*
X92231428Y-60854285D01*
X92245714Y-60811428D01*
X92260000Y-60740000D01*
X92260000Y-60682857D01*
X92245714Y-60611428D01*
X92231428Y-60568571D01*
X92217142Y-60540000D01*
X92188571Y-60497142D01*
X92174285Y-60482857D01*
D11*
X96491904Y-64450238D02*
X96587142Y-64402619D01*
X96777619Y-64402619D01*
X96872857Y-64450238D01*
X96920476Y-64497857D01*
X96968095Y-64593095D01*
X96968095Y-64878809D01*
X96920476Y-64974047D01*
X96872857Y-65021666D01*
X96777619Y-65069285D01*
X96587142Y-65069285D01*
X96491904Y-65021666D01*
X96063333Y-65069285D02*
X96063333Y-64069285D01*
X96063333Y-65021666D02*
X95968095Y-65069285D01*
X95777619Y-65069285D01*
X95682380Y-65021666D01*
X95634761Y-64974047D01*
X95587142Y-64878809D01*
X95587142Y-64593095D01*
X95634761Y-64497857D01*
X95682380Y-64450238D01*
X95777619Y-64402619D01*
X95968095Y-64402619D01*
X96063333Y-64450238D01*
X95206190Y-64450238D02*
X95110952Y-64402619D01*
X94920476Y-64402619D01*
X94825238Y-64450238D01*
X94777619Y-64545476D01*
X94777619Y-64593095D01*
X94825238Y-64688333D01*
X94920476Y-64735952D01*
X95063333Y-64735952D01*
X95158571Y-64783571D01*
X95206190Y-64878809D01*
X95206190Y-64926428D01*
X95158571Y-65021666D01*
X95063333Y-65069285D01*
X94920476Y-65069285D01*
X94825238Y-65021666D01*
X93825238Y-64402619D02*
X94396666Y-64402619D01*
X94110952Y-64402619D02*
X94110952Y-65402619D01*
X94206190Y-65259761D01*
X94301428Y-65164523D01*
X94396666Y-65116904D01*
X93634761Y-64307380D02*
X92872857Y-64307380D01*
X92206190Y-64402619D02*
X92206190Y-64926428D01*
X92253809Y-65021666D01*
X92349047Y-65069285D01*
X92539523Y-65069285D01*
X92634761Y-65021666D01*
X92206190Y-64450238D02*
X92301428Y-64402619D01*
X92539523Y-64402619D01*
X92634761Y-64450238D01*
X92682380Y-64545476D01*
X92682380Y-64640714D01*
X92634761Y-64735952D01*
X92539523Y-64783571D01*
X92301428Y-64783571D01*
X92206190Y-64831190D01*
X91301428Y-64402619D02*
X91301428Y-65402619D01*
X91301428Y-64450238D02*
X91396666Y-64402619D01*
X91587142Y-64402619D01*
X91682380Y-64450238D01*
X91730000Y-64497857D01*
X91777619Y-64593095D01*
X91777619Y-64878809D01*
X91730000Y-64974047D01*
X91682380Y-65021666D01*
X91587142Y-65069285D01*
X91396666Y-65069285D01*
X91301428Y-65021666D01*
X90396666Y-64402619D02*
X90396666Y-64926428D01*
X90444285Y-65021666D01*
X90539523Y-65069285D01*
X90730000Y-65069285D01*
X90825238Y-65021666D01*
X90396666Y-64450238D02*
X90491904Y-64402619D01*
X90730000Y-64402619D01*
X90825238Y-64450238D01*
X90872857Y-64545476D01*
X90872857Y-64640714D01*
X90825238Y-64735952D01*
X90730000Y-64783571D01*
X90491904Y-64783571D01*
X90396666Y-64831190D01*
X89920476Y-65069285D02*
X89920476Y-64069285D01*
X89920476Y-65021666D02*
X89825238Y-65069285D01*
X89634761Y-65069285D01*
X89539523Y-65021666D01*
X89491904Y-64974047D01*
X89444285Y-64878809D01*
X89444285Y-64593095D01*
X89491904Y-64497857D01*
X89539523Y-64450238D01*
X89634761Y-64402619D01*
X89825238Y-64402619D01*
X89920476Y-64450238D01*
X89158571Y-65069285D02*
X88777619Y-65069285D01*
X89015714Y-65402619D02*
X89015714Y-64545476D01*
X88968095Y-64450238D01*
X88872857Y-64402619D01*
X88777619Y-64402619D01*
X88063333Y-64450238D02*
X88158571Y-64402619D01*
X88349047Y-64402619D01*
X88444285Y-64450238D01*
X88491904Y-64545476D01*
X88491904Y-64926428D01*
X88444285Y-65021666D01*
X88349047Y-65069285D01*
X88158571Y-65069285D01*
X88063333Y-65021666D01*
X88015714Y-64926428D01*
X88015714Y-64831190D01*
X88491904Y-64735952D01*
X87587142Y-64402619D02*
X87587142Y-65069285D01*
X87587142Y-64878809D02*
X87539523Y-64974047D01*
X87491904Y-65021666D01*
X87396666Y-65069285D01*
X87301428Y-65069285D01*
X86301428Y-65069285D02*
X86063333Y-64402619D01*
X85825238Y-65069285D01*
X84920476Y-64402619D02*
X85491904Y-64402619D01*
X85206190Y-64402619D02*
X85206190Y-65402619D01*
X85301428Y-65259761D01*
X85396666Y-65164523D01*
X85491904Y-65116904D01*
X84491904Y-64497857D02*
X84444285Y-64450238D01*
X84491904Y-64402619D01*
X84539523Y-64450238D01*
X84491904Y-64497857D01*
X84491904Y-64402619D01*
X84110952Y-65402619D02*
X83491904Y-65402619D01*
X83825238Y-65021666D01*
X83682380Y-65021666D01*
X83587142Y-64974047D01*
X83539523Y-64926428D01*
X83491904Y-64831190D01*
X83491904Y-64593095D01*
X83539523Y-64497857D01*
X83587142Y-64450238D01*
X83682380Y-64402619D01*
X83968095Y-64402619D01*
X84063333Y-64450238D01*
X84110952Y-64497857D01*
X97682380Y-62411666D02*
X97730000Y-62459285D01*
X97825238Y-62602142D01*
X97872857Y-62697380D01*
X97920476Y-62840238D01*
X97968095Y-63078333D01*
X97968095Y-63268809D01*
X97920476Y-63506904D01*
X97872857Y-63649761D01*
X97825238Y-63745000D01*
X97730000Y-63887857D01*
X97682380Y-63935476D01*
X97158571Y-63364047D02*
X97253809Y-63411666D01*
X97301428Y-63459285D01*
X97349047Y-63554523D01*
X97349047Y-63602142D01*
X97301428Y-63697380D01*
X97253809Y-63745000D01*
X97158571Y-63792619D01*
X96968095Y-63792619D01*
X96872857Y-63745000D01*
X96825238Y-63697380D01*
X96777619Y-63602142D01*
X96777619Y-63554523D01*
X96825238Y-63459285D01*
X96872857Y-63411666D01*
X96968095Y-63364047D01*
X97158571Y-63364047D01*
X97253809Y-63316428D01*
X97301428Y-63268809D01*
X97349047Y-63173571D01*
X97349047Y-62983095D01*
X97301428Y-62887857D01*
X97253809Y-62840238D01*
X97158571Y-62792619D01*
X96968095Y-62792619D01*
X96872857Y-62840238D01*
X96825238Y-62887857D01*
X96777619Y-62983095D01*
X96777619Y-63173571D01*
X96825238Y-63268809D01*
X96872857Y-63316428D01*
X96968095Y-63364047D01*
X96301428Y-62792619D02*
X96110952Y-62792619D01*
X96015714Y-62840238D01*
X95968095Y-62887857D01*
X95872857Y-63030714D01*
X95825238Y-63221190D01*
X95825238Y-63602142D01*
X95872857Y-63697380D01*
X95920476Y-63745000D01*
X96015714Y-63792619D01*
X96206190Y-63792619D01*
X96301428Y-63745000D01*
X96349047Y-63697380D01*
X96396666Y-63602142D01*
X96396666Y-63364047D01*
X96349047Y-63268809D01*
X96301428Y-63221190D01*
X96206190Y-63173571D01*
X96015714Y-63173571D01*
X95920476Y-63221190D01*
X95872857Y-63268809D01*
X95825238Y-63364047D01*
X94968095Y-63792619D02*
X95158571Y-63792619D01*
X95253809Y-63745000D01*
X95301428Y-63697380D01*
X95396666Y-63554523D01*
X95444285Y-63364047D01*
X95444285Y-62983095D01*
X95396666Y-62887857D01*
X95349047Y-62840238D01*
X95253809Y-62792619D01*
X95063333Y-62792619D01*
X94968095Y-62840238D01*
X94920476Y-62887857D01*
X94872857Y-62983095D01*
X94872857Y-63221190D01*
X94920476Y-63316428D01*
X94968095Y-63364047D01*
X95063333Y-63411666D01*
X95253809Y-63411666D01*
X95349047Y-63364047D01*
X95396666Y-63316428D01*
X95444285Y-63221190D01*
X94491904Y-63697380D02*
X94444285Y-63745000D01*
X94349047Y-63792619D01*
X94110952Y-63792619D01*
X94015714Y-63745000D01*
X93968095Y-63697380D01*
X93920476Y-63602142D01*
X93920476Y-63506904D01*
X93968095Y-63364047D01*
X94539523Y-62792619D01*
X93920476Y-62792619D01*
X93063333Y-63792619D02*
X93253809Y-63792619D01*
X93349047Y-63745000D01*
X93396666Y-63697380D01*
X93491904Y-63554523D01*
X93539523Y-63364047D01*
X93539523Y-62983095D01*
X93491904Y-62887857D01*
X93444285Y-62840238D01*
X93349047Y-62792619D01*
X93158571Y-62792619D01*
X93063333Y-62840238D01*
X93015714Y-62887857D01*
X92968095Y-62983095D01*
X92968095Y-63221190D01*
X93015714Y-63316428D01*
X93063333Y-63364047D01*
X93158571Y-63411666D01*
X93349047Y-63411666D01*
X93444285Y-63364047D01*
X93491904Y-63316428D01*
X93539523Y-63221190D01*
X92587142Y-63078333D02*
X92110952Y-63078333D01*
X92682380Y-62792619D02*
X92349047Y-63792619D01*
X92015714Y-62792619D01*
X90491904Y-62840238D02*
X90587142Y-62792619D01*
X90777619Y-62792619D01*
X90872857Y-62840238D01*
X90920476Y-62887857D01*
X90968095Y-62983095D01*
X90968095Y-63268809D01*
X90920476Y-63364047D01*
X90872857Y-63411666D01*
X90777619Y-63459285D01*
X90587142Y-63459285D01*
X90491904Y-63411666D01*
X89920476Y-62792619D02*
X90015714Y-62840238D01*
X90063333Y-62887857D01*
X90110952Y-62983095D01*
X90110952Y-63268809D01*
X90063333Y-63364047D01*
X90015714Y-63411666D01*
X89920476Y-63459285D01*
X89777619Y-63459285D01*
X89682380Y-63411666D01*
X89634761Y-63364047D01*
X89587142Y-63268809D01*
X89587142Y-62983095D01*
X89634761Y-62887857D01*
X89682380Y-62840238D01*
X89777619Y-62792619D01*
X89920476Y-62792619D01*
X89158571Y-62792619D02*
X89158571Y-63459285D01*
X89158571Y-63364047D02*
X89110952Y-63411666D01*
X89015714Y-63459285D01*
X88872857Y-63459285D01*
X88777619Y-63411666D01*
X88730000Y-63316428D01*
X88730000Y-62792619D01*
X88730000Y-63316428D02*
X88682380Y-63411666D01*
X88587142Y-63459285D01*
X88444285Y-63459285D01*
X88349047Y-63411666D01*
X88301428Y-63316428D01*
X88301428Y-62792619D01*
X87825238Y-63459285D02*
X87825238Y-62459285D01*
X87825238Y-63411666D02*
X87730000Y-63459285D01*
X87539523Y-63459285D01*
X87444285Y-63411666D01*
X87396666Y-63364047D01*
X87349047Y-63268809D01*
X87349047Y-62983095D01*
X87396666Y-62887857D01*
X87444285Y-62840238D01*
X87539523Y-62792619D01*
X87730000Y-62792619D01*
X87825238Y-62840238D01*
X86491904Y-62792619D02*
X86491904Y-63316428D01*
X86539523Y-63411666D01*
X86634761Y-63459285D01*
X86825238Y-63459285D01*
X86920476Y-63411666D01*
X86491904Y-62840238D02*
X86587142Y-62792619D01*
X86825238Y-62792619D01*
X86920476Y-62840238D01*
X86968095Y-62935476D01*
X86968095Y-63030714D01*
X86920476Y-63125952D01*
X86825238Y-63173571D01*
X86587142Y-63173571D01*
X86491904Y-63221190D01*
X86158571Y-63459285D02*
X85777619Y-63459285D01*
X86015714Y-63792619D02*
X86015714Y-62935476D01*
X85968095Y-62840238D01*
X85872857Y-62792619D01*
X85777619Y-62792619D01*
X85444285Y-62792619D02*
X85444285Y-63459285D01*
X85444285Y-63792619D02*
X85491904Y-63745000D01*
X85444285Y-63697380D01*
X85396666Y-63745000D01*
X85444285Y-63792619D01*
X85444285Y-63697380D01*
X84968095Y-62792619D02*
X84968095Y-63792619D01*
X84968095Y-63411666D02*
X84872857Y-63459285D01*
X84682380Y-63459285D01*
X84587142Y-63411666D01*
X84539523Y-63364047D01*
X84491904Y-63268809D01*
X84491904Y-62983095D01*
X84539523Y-62887857D01*
X84587142Y-62840238D01*
X84682380Y-62792619D01*
X84872857Y-62792619D01*
X84968095Y-62840238D01*
X83920476Y-62792619D02*
X84015714Y-62840238D01*
X84063333Y-62935476D01*
X84063333Y-63792619D01*
X83158571Y-62840238D02*
X83253809Y-62792619D01*
X83444285Y-62792619D01*
X83539523Y-62840238D01*
X83587142Y-62935476D01*
X83587142Y-63316428D01*
X83539523Y-63411666D01*
X83444285Y-63459285D01*
X83253809Y-63459285D01*
X83158571Y-63411666D01*
X83110952Y-63316428D01*
X83110952Y-63221190D01*
X83587142Y-63125952D01*
X82777619Y-62411666D02*
X82730000Y-62459285D01*
X82634761Y-62602142D01*
X82587142Y-62697380D01*
X82539523Y-62840238D01*
X82491904Y-63078333D01*
X82491904Y-63268809D01*
X82539523Y-63506904D01*
X82587142Y-63649761D01*
X82634761Y-63745000D01*
X82730000Y-63887857D01*
X82777619Y-63935476D01*
D12*
X91468761Y-60255619D02*
X91541333Y-60279809D01*
X91662285Y-60279809D01*
X91710666Y-60255619D01*
X91734857Y-60231428D01*
X91759047Y-60183047D01*
X91759047Y-60134666D01*
X91734857Y-60086285D01*
X91710666Y-60062095D01*
X91662285Y-60037904D01*
X91565523Y-60013714D01*
X91517142Y-59989523D01*
X91492952Y-59965333D01*
X91468761Y-59916952D01*
X91468761Y-59868571D01*
X91492952Y-59820190D01*
X91517142Y-59796000D01*
X91565523Y-59771809D01*
X91686476Y-59771809D01*
X91759047Y-59796000D01*
X92073523Y-59771809D02*
X92170285Y-59771809D01*
X92218666Y-59796000D01*
X92267047Y-59844380D01*
X92291238Y-59941142D01*
X92291238Y-60110476D01*
X92267047Y-60207238D01*
X92218666Y-60255619D01*
X92170285Y-60279809D01*
X92073523Y-60279809D01*
X92025142Y-60255619D01*
X91976761Y-60207238D01*
X91952571Y-60110476D01*
X91952571Y-59941142D01*
X91976761Y-59844380D01*
X92025142Y-59796000D01*
X92073523Y-59771809D01*
D13*
X47195333Y-65984280D02*
X47026000Y-65706090D01*
X46905047Y-65984280D02*
X46905047Y-65400080D01*
X47098571Y-65400080D01*
X47146952Y-65427900D01*
X47171142Y-65455719D01*
X47195333Y-65511357D01*
X47195333Y-65594814D01*
X47171142Y-65650452D01*
X47146952Y-65678271D01*
X47098571Y-65706090D01*
X46905047Y-65706090D01*
X47388857Y-65455719D02*
X47413047Y-65427900D01*
X47461428Y-65400080D01*
X47582380Y-65400080D01*
X47630761Y-65427900D01*
X47654952Y-65455719D01*
X47679142Y-65511357D01*
X47679142Y-65566995D01*
X47654952Y-65650452D01*
X47364666Y-65984280D01*
X47679142Y-65984280D01*
D14*
X46645971Y-67201809D02*
X46929000Y-67201809D01*
X46776600Y-67395333D01*
X46841914Y-67395333D01*
X46885457Y-67419523D01*
X46907228Y-67443714D01*
X46929000Y-67492095D01*
X46929000Y-67613047D01*
X46907228Y-67661428D01*
X46885457Y-67685619D01*
X46841914Y-67709809D01*
X46711285Y-67709809D01*
X46667742Y-67685619D01*
X46645971Y-67661428D01*
X47124942Y-67661428D02*
X47146714Y-67685619D01*
X47124942Y-67709809D01*
X47103171Y-67685619D01*
X47124942Y-67661428D01*
X47124942Y-67709809D01*
X47299114Y-67201809D02*
X47582142Y-67201809D01*
X47429742Y-67395333D01*
X47495057Y-67395333D01*
X47538600Y-67419523D01*
X47560371Y-67443714D01*
X47582142Y-67492095D01*
X47582142Y-67613047D01*
X47560371Y-67661428D01*
X47538600Y-67685619D01*
X47495057Y-67709809D01*
X47364428Y-67709809D01*
X47320885Y-67685619D01*
X47299114Y-67661428D01*
X47778085Y-67709809D02*
X47778085Y-67201809D01*
X47821628Y-67516285D02*
X47952257Y-67709809D01*
X47952257Y-67371142D02*
X47778085Y-67564666D01*
D13*
X58748642Y-66846571D02*
X58776461Y-66870761D01*
X58804280Y-66943333D01*
X58804280Y-66991714D01*
X58776461Y-67064285D01*
X58720823Y-67112666D01*
X58665185Y-67136857D01*
X58553909Y-67161047D01*
X58470452Y-67161047D01*
X58359176Y-67136857D01*
X58303538Y-67112666D01*
X58247900Y-67064285D01*
X58220080Y-66991714D01*
X58220080Y-66943333D01*
X58247900Y-66870761D01*
X58275719Y-66846571D01*
X58804280Y-66362761D02*
X58804280Y-66653047D01*
X58804280Y-66507904D02*
X58220080Y-66507904D01*
X58303538Y-66556285D01*
X58359176Y-66604666D01*
X58386995Y-66653047D01*
X58804280Y-65878952D02*
X58804280Y-66169238D01*
X58804280Y-66024095D02*
X58220080Y-66024095D01*
X58303538Y-66072476D01*
X58359176Y-66120857D01*
X58386995Y-66169238D01*
D14*
X56421809Y-67085171D02*
X56421809Y-67041628D01*
X56446000Y-66998085D01*
X56470190Y-66976314D01*
X56518571Y-66954542D01*
X56615333Y-66932771D01*
X56736285Y-66932771D01*
X56833047Y-66954542D01*
X56881428Y-66976314D01*
X56905619Y-66998085D01*
X56929809Y-67041628D01*
X56929809Y-67085171D01*
X56905619Y-67128714D01*
X56881428Y-67150485D01*
X56833047Y-67172257D01*
X56736285Y-67194028D01*
X56615333Y-67194028D01*
X56518571Y-67172257D01*
X56470190Y-67150485D01*
X56446000Y-67128714D01*
X56421809Y-67085171D01*
X56881428Y-66736828D02*
X56905619Y-66715057D01*
X56929809Y-66736828D01*
X56905619Y-66758600D01*
X56881428Y-66736828D01*
X56929809Y-66736828D01*
X56929809Y-66279628D02*
X56929809Y-66540885D01*
X56929809Y-66410257D02*
X56421809Y-66410257D01*
X56494380Y-66453800D01*
X56542761Y-66497342D01*
X56566952Y-66540885D01*
X56591142Y-65887742D02*
X56929809Y-65887742D01*
X56591142Y-66083685D02*
X56857238Y-66083685D01*
X56905619Y-66061914D01*
X56929809Y-66018371D01*
X56929809Y-65953057D01*
X56905619Y-65909514D01*
X56881428Y-65887742D01*
D13*
X53795333Y-65564280D02*
X53626000Y-65286090D01*
X53505047Y-65564280D02*
X53505047Y-64980080D01*
X53698571Y-64980080D01*
X53746952Y-65007900D01*
X53771142Y-65035719D01*
X53795333Y-65091357D01*
X53795333Y-65174814D01*
X53771142Y-65230452D01*
X53746952Y-65258271D01*
X53698571Y-65286090D01*
X53505047Y-65286090D01*
X54230761Y-65174814D02*
X54230761Y-65564280D01*
X54109809Y-64952261D02*
X53988857Y-65369547D01*
X54303333Y-65369547D01*
D14*
X54129809Y-66670628D02*
X54129809Y-66931885D01*
X54129809Y-66801257D02*
X53621809Y-66801257D01*
X53694380Y-66844800D01*
X53742761Y-66888342D01*
X53766952Y-66931885D01*
X54129809Y-66474685D02*
X53621809Y-66474685D01*
X53984666Y-66322285D01*
X53621809Y-66169885D01*
X54129809Y-66169885D01*
D13*
X55675333Y-79498642D02*
X55651142Y-79526461D01*
X55578571Y-79554280D01*
X55530190Y-79554280D01*
X55457619Y-79526461D01*
X55409238Y-79470823D01*
X55385047Y-79415185D01*
X55360857Y-79303909D01*
X55360857Y-79220452D01*
X55385047Y-79109176D01*
X55409238Y-79053538D01*
X55457619Y-78997900D01*
X55530190Y-78970080D01*
X55578571Y-78970080D01*
X55651142Y-78997900D01*
X55675333Y-79025719D01*
X55844666Y-78970080D02*
X56183333Y-78970080D01*
X55965619Y-79554280D01*
D14*
X55224828Y-77231809D02*
X55268371Y-77231809D01*
X55311914Y-77256000D01*
X55333685Y-77280190D01*
X55355457Y-77328571D01*
X55377228Y-77425333D01*
X55377228Y-77546285D01*
X55355457Y-77643047D01*
X55333685Y-77691428D01*
X55311914Y-77715619D01*
X55268371Y-77739809D01*
X55224828Y-77739809D01*
X55181285Y-77715619D01*
X55159514Y-77691428D01*
X55137742Y-77643047D01*
X55115971Y-77546285D01*
X55115971Y-77425333D01*
X55137742Y-77328571D01*
X55159514Y-77280190D01*
X55181285Y-77256000D01*
X55224828Y-77231809D01*
X55573171Y-77691428D02*
X55594942Y-77715619D01*
X55573171Y-77739809D01*
X55551400Y-77715619D01*
X55573171Y-77691428D01*
X55573171Y-77739809D01*
X56030371Y-77739809D02*
X55769114Y-77739809D01*
X55899742Y-77739809D02*
X55899742Y-77231809D01*
X55856200Y-77304380D01*
X55812657Y-77352761D01*
X55769114Y-77376952D01*
X56422257Y-77401142D02*
X56422257Y-77739809D01*
X56226314Y-77401142D02*
X56226314Y-77667238D01*
X56248085Y-77715619D01*
X56291628Y-77739809D01*
X56356942Y-77739809D01*
X56400485Y-77715619D01*
X56422257Y-77691428D01*
D15*
X52518095Y-75922380D02*
X52518095Y-76731904D01*
X52565714Y-76827142D01*
X52613333Y-76874761D01*
X52708571Y-76922380D01*
X52899047Y-76922380D01*
X52994285Y-76874761D01*
X53041904Y-76827142D01*
X53089523Y-76731904D01*
X53089523Y-75922380D01*
X53518095Y-76017619D02*
X53565714Y-75970000D01*
X53660952Y-75922380D01*
X53899047Y-75922380D01*
X53994285Y-75970000D01*
X54041904Y-76017619D01*
X54089523Y-76112857D01*
X54089523Y-76208095D01*
X54041904Y-76350952D01*
X53470476Y-76922380D01*
X54089523Y-76922380D01*
X86008026Y-76564400D02*
X86008026Y-77278686D01*
X85960407Y-77421543D01*
X85865169Y-77516781D01*
X85722312Y-77564400D01*
X85627074Y-77564400D01*
X86436598Y-76659639D02*
X86484217Y-76612020D01*
X86579455Y-76564400D01*
X86817550Y-76564400D01*
X86912788Y-76612020D01*
X86960407Y-76659639D01*
X87008026Y-76754877D01*
X87008026Y-76850115D01*
X86960407Y-76992972D01*
X86388979Y-77564400D01*
X87008026Y-77564400D01*
D12*
X44187904Y-67297904D02*
X44429809Y-67297904D01*
X43921809Y-67467238D02*
X44187904Y-67297904D01*
X43921809Y-67128571D01*
X44429809Y-66959238D02*
X43921809Y-66959238D01*
X44284666Y-66789904D01*
X43921809Y-66620571D01*
X44429809Y-66620571D01*
X44478190Y-66499619D02*
X44478190Y-66112571D01*
X44429809Y-65919047D02*
X44405619Y-65967428D01*
X44381428Y-65991619D01*
X44333047Y-66015809D01*
X44187904Y-66015809D01*
X44139523Y-65991619D01*
X44115333Y-65967428D01*
X44091142Y-65919047D01*
X44091142Y-65846476D01*
X44115333Y-65798095D01*
X44139523Y-65773904D01*
X44187904Y-65749714D01*
X44333047Y-65749714D01*
X44381428Y-65773904D01*
X44405619Y-65798095D01*
X44429809Y-65846476D01*
X44429809Y-65919047D01*
X44381428Y-65241714D02*
X44405619Y-65265904D01*
X44429809Y-65338476D01*
X44429809Y-65386857D01*
X44405619Y-65459428D01*
X44357238Y-65507809D01*
X44308857Y-65532000D01*
X44212095Y-65556190D01*
X44139523Y-65556190D01*
X44042761Y-65532000D01*
X43994380Y-65507809D01*
X43946000Y-65459428D01*
X43921809Y-65386857D01*
X43921809Y-65338476D01*
X43946000Y-65265904D01*
X43970190Y-65241714D01*
X44429809Y-65024000D02*
X43921809Y-65024000D01*
X44284666Y-64854666D01*
X43921809Y-64685333D01*
X44429809Y-64685333D01*
X44399809Y-76936857D02*
X43891809Y-76936857D01*
X43891809Y-76815904D01*
X43916000Y-76743333D01*
X43964380Y-76694952D01*
X44012761Y-76670761D01*
X44109523Y-76646571D01*
X44182095Y-76646571D01*
X44278857Y-76670761D01*
X44327238Y-76694952D01*
X44375619Y-76743333D01*
X44399809Y-76815904D01*
X44399809Y-76936857D01*
X44254666Y-76453047D02*
X44254666Y-76211142D01*
X44399809Y-76501428D02*
X43891809Y-76332095D01*
X44399809Y-76162761D01*
X43891809Y-75896666D02*
X43891809Y-75799904D01*
X43916000Y-75751523D01*
X43964380Y-75703142D01*
X44061142Y-75678952D01*
X44230476Y-75678952D01*
X44327238Y-75703142D01*
X44375619Y-75751523D01*
X44399809Y-75799904D01*
X44399809Y-75896666D01*
X44375619Y-75945047D01*
X44327238Y-75993428D01*
X44230476Y-76017619D01*
X44061142Y-76017619D01*
X43964380Y-75993428D01*
X43916000Y-75945047D01*
X43891809Y-75896666D01*
D13*
X61315333Y-74846642D02*
X61291142Y-74874461D01*
X61218571Y-74902280D01*
X61170190Y-74902280D01*
X61097619Y-74874461D01*
X61049238Y-74818823D01*
X61025047Y-74763185D01*
X61000857Y-74651909D01*
X61000857Y-74568452D01*
X61025047Y-74457176D01*
X61049238Y-74401538D01*
X61097619Y-74345900D01*
X61170190Y-74318080D01*
X61218571Y-74318080D01*
X61291142Y-74345900D01*
X61315333Y-74373719D01*
X61605619Y-74568452D02*
X61557238Y-74540633D01*
X61533047Y-74512814D01*
X61508857Y-74457176D01*
X61508857Y-74429357D01*
X61533047Y-74373719D01*
X61557238Y-74345900D01*
X61605619Y-74318080D01*
X61702380Y-74318080D01*
X61750761Y-74345900D01*
X61774952Y-74373719D01*
X61799142Y-74429357D01*
X61799142Y-74457176D01*
X61774952Y-74512814D01*
X61750761Y-74540633D01*
X61702380Y-74568452D01*
X61605619Y-74568452D01*
X61557238Y-74596271D01*
X61533047Y-74624090D01*
X61508857Y-74679728D01*
X61508857Y-74791004D01*
X61533047Y-74846642D01*
X61557238Y-74874461D01*
X61605619Y-74902280D01*
X61702380Y-74902280D01*
X61750761Y-74874461D01*
X61774952Y-74846642D01*
X61799142Y-74791004D01*
X61799142Y-74679728D01*
X61774952Y-74624090D01*
X61750761Y-74596271D01*
X61702380Y-74568452D01*
D14*
X61106085Y-73089809D02*
X60844828Y-73089809D01*
X60975457Y-73089809D02*
X60975457Y-72581809D01*
X60931914Y-72654380D01*
X60888371Y-72702761D01*
X60844828Y-72726952D01*
X61389114Y-72581809D02*
X61432657Y-72581809D01*
X61476200Y-72606000D01*
X61497971Y-72630190D01*
X61519742Y-72678571D01*
X61541514Y-72775333D01*
X61541514Y-72896285D01*
X61519742Y-72993047D01*
X61497971Y-73041428D01*
X61476200Y-73065619D01*
X61432657Y-73089809D01*
X61389114Y-73089809D01*
X61345571Y-73065619D01*
X61323800Y-73041428D01*
X61302028Y-72993047D01*
X61280257Y-72896285D01*
X61280257Y-72775333D01*
X61302028Y-72678571D01*
X61323800Y-72630190D01*
X61345571Y-72606000D01*
X61389114Y-72581809D01*
X61933400Y-72751142D02*
X61933400Y-73089809D01*
X61737457Y-72751142D02*
X61737457Y-73017238D01*
X61759228Y-73065619D01*
X61802771Y-73089809D01*
X61868085Y-73089809D01*
X61911628Y-73065619D01*
X61933400Y-73041428D01*
D12*
X43916000Y-69167047D02*
X43891809Y-69215428D01*
X43891809Y-69288000D01*
X43916000Y-69360571D01*
X43964380Y-69408952D01*
X44012761Y-69433142D01*
X44109523Y-69457333D01*
X44182095Y-69457333D01*
X44278857Y-69433142D01*
X44327238Y-69408952D01*
X44375619Y-69360571D01*
X44399809Y-69288000D01*
X44399809Y-69239619D01*
X44375619Y-69167047D01*
X44351428Y-69142857D01*
X44182095Y-69142857D01*
X44182095Y-69239619D01*
X44399809Y-68925142D02*
X43891809Y-68925142D01*
X44399809Y-68634857D01*
X43891809Y-68634857D01*
X44399809Y-68392952D02*
X43891809Y-68392952D01*
X43891809Y-68272000D01*
X43916000Y-68199428D01*
X43964380Y-68151047D01*
X44012761Y-68126857D01*
X44109523Y-68102666D01*
X44182095Y-68102666D01*
X44278857Y-68126857D01*
X44327238Y-68151047D01*
X44375619Y-68199428D01*
X44399809Y-68272000D01*
X44399809Y-68392952D01*
D15*
X103788026Y-76564400D02*
X103788026Y-77278686D01*
X103740407Y-77421543D01*
X103645169Y-77516781D01*
X103502312Y-77564400D01*
X103407074Y-77564400D01*
X104788026Y-77564400D02*
X104216598Y-77564400D01*
X104502312Y-77564400D02*
X104502312Y-76564400D01*
X104407074Y-76707258D01*
X104311836Y-76802496D01*
X104216598Y-76850115D01*
D13*
X49508642Y-64994666D02*
X49536461Y-65018857D01*
X49564280Y-65091428D01*
X49564280Y-65139809D01*
X49536461Y-65212380D01*
X49480823Y-65260761D01*
X49425185Y-65284952D01*
X49313909Y-65309142D01*
X49230452Y-65309142D01*
X49119176Y-65284952D01*
X49063538Y-65260761D01*
X49007900Y-65212380D01*
X48980080Y-65139809D01*
X48980080Y-65091428D01*
X49007900Y-65018857D01*
X49035719Y-64994666D01*
X49035719Y-64801142D02*
X49007900Y-64776952D01*
X48980080Y-64728571D01*
X48980080Y-64607619D01*
X49007900Y-64559238D01*
X49035719Y-64535047D01*
X49091357Y-64510857D01*
X49146995Y-64510857D01*
X49230452Y-64535047D01*
X49564280Y-64825333D01*
X49564280Y-64510857D01*
D14*
X50811809Y-65455171D02*
X50811809Y-65411628D01*
X50836000Y-65368085D01*
X50860190Y-65346314D01*
X50908571Y-65324542D01*
X51005333Y-65302771D01*
X51126285Y-65302771D01*
X51223047Y-65324542D01*
X51271428Y-65346314D01*
X51295619Y-65368085D01*
X51319809Y-65411628D01*
X51319809Y-65455171D01*
X51295619Y-65498714D01*
X51271428Y-65520485D01*
X51223047Y-65542257D01*
X51126285Y-65564028D01*
X51005333Y-65564028D01*
X50908571Y-65542257D01*
X50860190Y-65520485D01*
X50836000Y-65498714D01*
X50811809Y-65455171D01*
X51271428Y-65106828D02*
X51295619Y-65085057D01*
X51319809Y-65106828D01*
X51295619Y-65128600D01*
X51271428Y-65106828D01*
X51319809Y-65106828D01*
X51319809Y-64649628D02*
X51319809Y-64910885D01*
X51319809Y-64780257D02*
X50811809Y-64780257D01*
X50884380Y-64823800D01*
X50932761Y-64867342D01*
X50956952Y-64910885D01*
X50981142Y-64257742D02*
X51319809Y-64257742D01*
X50981142Y-64453685D02*
X51247238Y-64453685D01*
X51295619Y-64431914D01*
X51319809Y-64388371D01*
X51319809Y-64323057D01*
X51295619Y-64279514D01*
X51271428Y-64257742D01*
D13*
X48336642Y-74694666D02*
X48364461Y-74718857D01*
X48392280Y-74791428D01*
X48392280Y-74839809D01*
X48364461Y-74912380D01*
X48308823Y-74960761D01*
X48253185Y-74984952D01*
X48141909Y-75009142D01*
X48058452Y-75009142D01*
X47947176Y-74984952D01*
X47891538Y-74960761D01*
X47835900Y-74912380D01*
X47808080Y-74839809D01*
X47808080Y-74791428D01*
X47835900Y-74718857D01*
X47863719Y-74694666D01*
X47808080Y-74525333D02*
X47808080Y-74210857D01*
X48030633Y-74380190D01*
X48030633Y-74307619D01*
X48058452Y-74259238D01*
X48086271Y-74235047D01*
X48141909Y-74210857D01*
X48281004Y-74210857D01*
X48336642Y-74235047D01*
X48364461Y-74259238D01*
X48392280Y-74307619D01*
X48392280Y-74452761D01*
X48364461Y-74501142D01*
X48336642Y-74525333D01*
D14*
X46579809Y-74903914D02*
X46579809Y-75165171D01*
X46579809Y-75034542D02*
X46071809Y-75034542D01*
X46144380Y-75078085D01*
X46192761Y-75121628D01*
X46216952Y-75165171D01*
X46071809Y-74620885D02*
X46071809Y-74577342D01*
X46096000Y-74533800D01*
X46120190Y-74512028D01*
X46168571Y-74490257D01*
X46265333Y-74468485D01*
X46386285Y-74468485D01*
X46483047Y-74490257D01*
X46531428Y-74512028D01*
X46555619Y-74533800D01*
X46579809Y-74577342D01*
X46579809Y-74620885D01*
X46555619Y-74664428D01*
X46531428Y-74686200D01*
X46483047Y-74707971D01*
X46386285Y-74729742D01*
X46265333Y-74729742D01*
X46168571Y-74707971D01*
X46120190Y-74686200D01*
X46096000Y-74664428D01*
X46071809Y-74620885D01*
X46241142Y-74076600D02*
X46579809Y-74076600D01*
X46241142Y-74272542D02*
X46507238Y-74272542D01*
X46555619Y-74250771D01*
X46579809Y-74207228D01*
X46579809Y-74141914D01*
X46555619Y-74098371D01*
X46531428Y-74076600D01*
D13*
X48346642Y-73064666D02*
X48374461Y-73088857D01*
X48402280Y-73161428D01*
X48402280Y-73209809D01*
X48374461Y-73282380D01*
X48318823Y-73330761D01*
X48263185Y-73354952D01*
X48151909Y-73379142D01*
X48068452Y-73379142D01*
X47957176Y-73354952D01*
X47901538Y-73330761D01*
X47845900Y-73282380D01*
X47818080Y-73209809D01*
X47818080Y-73161428D01*
X47845900Y-73088857D01*
X47873719Y-73064666D01*
X48012814Y-72629238D02*
X48402280Y-72629238D01*
X47790261Y-72750190D02*
X48207547Y-72871142D01*
X48207547Y-72556666D01*
D14*
X46081809Y-73535171D02*
X46081809Y-73491628D01*
X46106000Y-73448085D01*
X46130190Y-73426314D01*
X46178571Y-73404542D01*
X46275333Y-73382771D01*
X46396285Y-73382771D01*
X46493047Y-73404542D01*
X46541428Y-73426314D01*
X46565619Y-73448085D01*
X46589809Y-73491628D01*
X46589809Y-73535171D01*
X46565619Y-73578714D01*
X46541428Y-73600485D01*
X46493047Y-73622257D01*
X46396285Y-73644028D01*
X46275333Y-73644028D01*
X46178571Y-73622257D01*
X46130190Y-73600485D01*
X46106000Y-73578714D01*
X46081809Y-73535171D01*
X46541428Y-73186828D02*
X46565619Y-73165057D01*
X46589809Y-73186828D01*
X46565619Y-73208600D01*
X46541428Y-73186828D01*
X46589809Y-73186828D01*
X46589809Y-72729628D02*
X46589809Y-72990885D01*
X46589809Y-72860257D02*
X46081809Y-72860257D01*
X46154380Y-72903800D01*
X46202761Y-72947342D01*
X46226952Y-72990885D01*
X46251142Y-72337742D02*
X46589809Y-72337742D01*
X46251142Y-72533685D02*
X46517238Y-72533685D01*
X46565619Y-72511914D01*
X46589809Y-72468371D01*
X46589809Y-72403057D01*
X46565619Y-72359514D01*
X46541428Y-72337742D01*
D13*
X57335333Y-79488642D02*
X57311142Y-79516461D01*
X57238571Y-79544280D01*
X57190190Y-79544280D01*
X57117619Y-79516461D01*
X57069238Y-79460823D01*
X57045047Y-79405185D01*
X57020857Y-79293909D01*
X57020857Y-79210452D01*
X57045047Y-79099176D01*
X57069238Y-79043538D01*
X57117619Y-78987900D01*
X57190190Y-78960080D01*
X57238571Y-78960080D01*
X57311142Y-78987900D01*
X57335333Y-79015719D01*
X57794952Y-78960080D02*
X57553047Y-78960080D01*
X57528857Y-79238271D01*
X57553047Y-79210452D01*
X57601428Y-79182633D01*
X57722380Y-79182633D01*
X57770761Y-79210452D01*
X57794952Y-79238271D01*
X57819142Y-79293909D01*
X57819142Y-79433004D01*
X57794952Y-79488642D01*
X57770761Y-79516461D01*
X57722380Y-79544280D01*
X57601428Y-79544280D01*
X57553047Y-79516461D01*
X57528857Y-79488642D01*
D14*
X57116085Y-77739809D02*
X56854828Y-77739809D01*
X56985457Y-77739809D02*
X56985457Y-77231809D01*
X56941914Y-77304380D01*
X56898371Y-77352761D01*
X56854828Y-77376952D01*
X57399114Y-77231809D02*
X57442657Y-77231809D01*
X57486200Y-77256000D01*
X57507971Y-77280190D01*
X57529742Y-77328571D01*
X57551514Y-77425333D01*
X57551514Y-77546285D01*
X57529742Y-77643047D01*
X57507971Y-77691428D01*
X57486200Y-77715619D01*
X57442657Y-77739809D01*
X57399114Y-77739809D01*
X57355571Y-77715619D01*
X57333800Y-77691428D01*
X57312028Y-77643047D01*
X57290257Y-77546285D01*
X57290257Y-77425333D01*
X57312028Y-77328571D01*
X57333800Y-77280190D01*
X57355571Y-77256000D01*
X57399114Y-77231809D01*
X57943400Y-77401142D02*
X57943400Y-77739809D01*
X57747457Y-77401142D02*
X57747457Y-77667238D01*
X57769228Y-77715619D01*
X57812771Y-77739809D01*
X57878085Y-77739809D01*
X57921628Y-77715619D01*
X57943400Y-77691428D01*
D13*
X58728642Y-65236571D02*
X58756461Y-65260761D01*
X58784280Y-65333333D01*
X58784280Y-65381714D01*
X58756461Y-65454285D01*
X58700823Y-65502666D01*
X58645185Y-65526857D01*
X58533909Y-65551047D01*
X58450452Y-65551047D01*
X58339176Y-65526857D01*
X58283538Y-65502666D01*
X58227900Y-65454285D01*
X58200080Y-65381714D01*
X58200080Y-65333333D01*
X58227900Y-65260761D01*
X58255719Y-65236571D01*
X58784280Y-64752761D02*
X58784280Y-65043047D01*
X58784280Y-64897904D02*
X58200080Y-64897904D01*
X58283538Y-64946285D01*
X58339176Y-64994666D01*
X58366995Y-65043047D01*
X58200080Y-64438285D02*
X58200080Y-64389904D01*
X58227900Y-64341523D01*
X58255719Y-64317333D01*
X58311357Y-64293142D01*
X58422633Y-64268952D01*
X58561728Y-64268952D01*
X58673004Y-64293142D01*
X58728642Y-64317333D01*
X58756461Y-64341523D01*
X58784280Y-64389904D01*
X58784280Y-64438285D01*
X58756461Y-64486666D01*
X58728642Y-64510857D01*
X58673004Y-64535047D01*
X58561728Y-64559238D01*
X58422633Y-64559238D01*
X58311357Y-64535047D01*
X58255719Y-64510857D01*
X58227900Y-64486666D01*
X58200080Y-64438285D01*
D14*
X56919809Y-65193914D02*
X56919809Y-65455171D01*
X56919809Y-65324542D02*
X56411809Y-65324542D01*
X56484380Y-65368085D01*
X56532761Y-65411628D01*
X56556952Y-65455171D01*
X56411809Y-64910885D02*
X56411809Y-64867342D01*
X56436000Y-64823800D01*
X56460190Y-64802028D01*
X56508571Y-64780257D01*
X56605333Y-64758485D01*
X56726285Y-64758485D01*
X56823047Y-64780257D01*
X56871428Y-64802028D01*
X56895619Y-64823800D01*
X56919809Y-64867342D01*
X56919809Y-64910885D01*
X56895619Y-64954428D01*
X56871428Y-64976200D01*
X56823047Y-64997971D01*
X56726285Y-65019742D01*
X56605333Y-65019742D01*
X56508571Y-64997971D01*
X56460190Y-64976200D01*
X56436000Y-64954428D01*
X56411809Y-64910885D01*
X56581142Y-64366600D02*
X56919809Y-64366600D01*
X56581142Y-64562542D02*
X56847238Y-64562542D01*
X56895619Y-64540771D01*
X56919809Y-64497228D01*
X56919809Y-64431914D01*
X56895619Y-64388371D01*
X56871428Y-64366600D01*
D13*
X49548642Y-66564666D02*
X49576461Y-66588857D01*
X49604280Y-66661428D01*
X49604280Y-66709809D01*
X49576461Y-66782380D01*
X49520823Y-66830761D01*
X49465185Y-66854952D01*
X49353909Y-66879142D01*
X49270452Y-66879142D01*
X49159176Y-66854952D01*
X49103538Y-66830761D01*
X49047900Y-66782380D01*
X49020080Y-66709809D01*
X49020080Y-66661428D01*
X49047900Y-66588857D01*
X49075719Y-66564666D01*
X49604280Y-66080857D02*
X49604280Y-66371142D01*
X49604280Y-66226000D02*
X49020080Y-66226000D01*
X49103538Y-66274380D01*
X49159176Y-66322761D01*
X49186995Y-66371142D01*
D14*
X51319809Y-66823914D02*
X51319809Y-67085171D01*
X51319809Y-66954542D02*
X50811809Y-66954542D01*
X50884380Y-66998085D01*
X50932761Y-67041628D01*
X50956952Y-67085171D01*
X50811809Y-66540885D02*
X50811809Y-66497342D01*
X50836000Y-66453800D01*
X50860190Y-66432028D01*
X50908571Y-66410257D01*
X51005333Y-66388485D01*
X51126285Y-66388485D01*
X51223047Y-66410257D01*
X51271428Y-66432028D01*
X51295619Y-66453800D01*
X51319809Y-66497342D01*
X51319809Y-66540885D01*
X51295619Y-66584428D01*
X51271428Y-66606200D01*
X51223047Y-66627971D01*
X51126285Y-66649742D01*
X51005333Y-66649742D01*
X50908571Y-66627971D01*
X50860190Y-66606200D01*
X50836000Y-66584428D01*
X50811809Y-66540885D01*
X50981142Y-65996600D02*
X51319809Y-65996600D01*
X50981142Y-66192542D02*
X51247238Y-66192542D01*
X51295619Y-66170771D01*
X51319809Y-66127228D01*
X51319809Y-66061914D01*
X51295619Y-66018371D01*
X51271428Y-65996600D01*
D13*
X45605333Y-65966280D02*
X45436000Y-65688090D01*
X45315047Y-65966280D02*
X45315047Y-65382080D01*
X45508571Y-65382080D01*
X45556952Y-65409900D01*
X45581142Y-65437719D01*
X45605333Y-65493357D01*
X45605333Y-65576814D01*
X45581142Y-65632452D01*
X45556952Y-65660271D01*
X45508571Y-65688090D01*
X45315047Y-65688090D01*
X46089142Y-65966280D02*
X45798857Y-65966280D01*
X45944000Y-65966280D02*
X45944000Y-65382080D01*
X45895619Y-65465538D01*
X45847238Y-65521176D01*
X45798857Y-65548995D01*
D14*
X45309000Y-67709809D02*
X45047742Y-67709809D01*
X45178371Y-67709809D02*
X45178371Y-67201809D01*
X45134828Y-67274380D01*
X45091285Y-67322761D01*
X45047742Y-67346952D01*
X45504942Y-67661428D02*
X45526714Y-67685619D01*
X45504942Y-67709809D01*
X45483171Y-67685619D01*
X45504942Y-67661428D01*
X45504942Y-67709809D01*
X45787971Y-67419523D02*
X45744428Y-67395333D01*
X45722657Y-67371142D01*
X45700885Y-67322761D01*
X45700885Y-67298571D01*
X45722657Y-67250190D01*
X45744428Y-67226000D01*
X45787971Y-67201809D01*
X45875057Y-67201809D01*
X45918600Y-67226000D01*
X45940371Y-67250190D01*
X45962142Y-67298571D01*
X45962142Y-67322761D01*
X45940371Y-67371142D01*
X45918600Y-67395333D01*
X45875057Y-67419523D01*
X45787971Y-67419523D01*
X45744428Y-67443714D01*
X45722657Y-67467904D01*
X45700885Y-67516285D01*
X45700885Y-67613047D01*
X45722657Y-67661428D01*
X45744428Y-67685619D01*
X45787971Y-67709809D01*
X45875057Y-67709809D01*
X45918600Y-67685619D01*
X45940371Y-67661428D01*
X45962142Y-67613047D01*
X45962142Y-67516285D01*
X45940371Y-67467904D01*
X45918600Y-67443714D01*
X45875057Y-67419523D01*
X46158085Y-67709809D02*
X46158085Y-67201809D01*
X46201628Y-67516285D02*
X46332257Y-67709809D01*
X46332257Y-67371142D02*
X46158085Y-67564666D01*
D15*
X103788026Y-53704400D02*
X103788026Y-54418686D01*
X103740407Y-54561543D01*
X103645169Y-54656781D01*
X103502312Y-54704400D01*
X103407074Y-54704400D01*
X104168979Y-53704400D02*
X104788026Y-53704400D01*
X104454693Y-54085353D01*
X104597550Y-54085353D01*
X104692788Y-54132972D01*
X104740407Y-54180591D01*
X104788026Y-54275829D01*
X104788026Y-54513924D01*
X104740407Y-54609162D01*
X104692788Y-54656781D01*
X104597550Y-54704400D01*
X104311836Y-54704400D01*
X104216598Y-54656781D01*
X104168979Y-54609162D01*
X51628095Y-55182380D02*
X51628095Y-55991904D01*
X51675714Y-56087142D01*
X51723333Y-56134761D01*
X51818571Y-56182380D01*
X52009047Y-56182380D01*
X52104285Y-56134761D01*
X52151904Y-56087142D01*
X52199523Y-55991904D01*
X52199523Y-55182380D01*
X53199523Y-56182380D02*
X52628095Y-56182380D01*
X52913809Y-56182380D02*
X52913809Y-55182380D01*
X52818571Y-55325238D01*
X52723333Y-55420476D01*
X52628095Y-55468095D01*
D12*
X43916000Y-74687047D02*
X43891809Y-74735428D01*
X43891809Y-74808000D01*
X43916000Y-74880571D01*
X43964380Y-74928952D01*
X44012761Y-74953142D01*
X44109523Y-74977333D01*
X44182095Y-74977333D01*
X44278857Y-74953142D01*
X44327238Y-74928952D01*
X44375619Y-74880571D01*
X44399809Y-74808000D01*
X44399809Y-74759619D01*
X44375619Y-74687047D01*
X44351428Y-74662857D01*
X44182095Y-74662857D01*
X44182095Y-74759619D01*
X44399809Y-74445142D02*
X43891809Y-74445142D01*
X44399809Y-74154857D01*
X43891809Y-74154857D01*
X44399809Y-73912952D02*
X43891809Y-73912952D01*
X43891809Y-73792000D01*
X43916000Y-73719428D01*
X43964380Y-73671047D01*
X44012761Y-73646857D01*
X44109523Y-73622666D01*
X44182095Y-73622666D01*
X44278857Y-73646857D01*
X44327238Y-73671047D01*
X44375619Y-73719428D01*
X44399809Y-73792000D01*
X44399809Y-73912952D01*
X69987904Y-90989523D02*
X70229809Y-90989523D01*
X69721809Y-91158857D02*
X69987904Y-90989523D01*
X69721809Y-90820190D01*
X70229809Y-90650857D02*
X69721809Y-90650857D01*
X70084666Y-90481523D01*
X69721809Y-90312190D01*
X70229809Y-90312190D01*
X70278190Y-90191238D02*
X70278190Y-89804190D01*
X70229809Y-89610666D02*
X70205619Y-89659047D01*
X70181428Y-89683238D01*
X70133047Y-89707428D01*
X69987904Y-89707428D01*
X69939523Y-89683238D01*
X69915333Y-89659047D01*
X69891142Y-89610666D01*
X69891142Y-89538095D01*
X69915333Y-89489714D01*
X69939523Y-89465523D01*
X69987904Y-89441333D01*
X70133047Y-89441333D01*
X70181428Y-89465523D01*
X70205619Y-89489714D01*
X70229809Y-89538095D01*
X70229809Y-89610666D01*
X70181428Y-88933333D02*
X70205619Y-88957523D01*
X70229809Y-89030095D01*
X70229809Y-89078476D01*
X70205619Y-89151047D01*
X70157238Y-89199428D01*
X70108857Y-89223619D01*
X70012095Y-89247809D01*
X69939523Y-89247809D01*
X69842761Y-89223619D01*
X69794380Y-89199428D01*
X69746000Y-89151047D01*
X69721809Y-89078476D01*
X69721809Y-89030095D01*
X69746000Y-88957523D01*
X69770190Y-88933333D01*
X70229809Y-88449523D02*
X70229809Y-88739809D01*
X70229809Y-88594666D02*
X69721809Y-88594666D01*
X69794380Y-88643047D01*
X69842761Y-88691428D01*
X69866952Y-88739809D01*
X74037904Y-91013714D02*
X74279809Y-91013714D01*
X73771809Y-91183047D02*
X74037904Y-91013714D01*
X73771809Y-90844380D01*
X74279809Y-90675047D02*
X73771809Y-90675047D01*
X74134666Y-90505714D01*
X73771809Y-90336380D01*
X74279809Y-90336380D01*
X74328190Y-90215428D02*
X74328190Y-89828380D01*
X74255619Y-89731619D02*
X74279809Y-89659047D01*
X74279809Y-89538095D01*
X74255619Y-89489714D01*
X74231428Y-89465523D01*
X74183047Y-89441333D01*
X74134666Y-89441333D01*
X74086285Y-89465523D01*
X74062095Y-89489714D01*
X74037904Y-89538095D01*
X74013714Y-89634857D01*
X73989523Y-89683238D01*
X73965333Y-89707428D01*
X73916952Y-89731619D01*
X73868571Y-89731619D01*
X73820190Y-89707428D01*
X73796000Y-89683238D01*
X73771809Y-89634857D01*
X73771809Y-89513904D01*
X73796000Y-89441333D01*
X74279809Y-89223619D02*
X73771809Y-89223619D01*
X74013714Y-89223619D02*
X74013714Y-88933333D01*
X74279809Y-88933333D02*
X73771809Y-88933333D01*
X74279809Y-88425333D02*
X74279809Y-88715619D01*
X74279809Y-88570476D02*
X73771809Y-88570476D01*
X73844380Y-88618857D01*
X73892761Y-88667238D01*
X73916952Y-88715619D01*
D13*
X58145333Y-56320642D02*
X58121142Y-56348461D01*
X58048571Y-56376280D01*
X58000190Y-56376280D01*
X57927619Y-56348461D01*
X57879238Y-56292823D01*
X57855047Y-56237185D01*
X57830857Y-56125909D01*
X57830857Y-56042452D01*
X57855047Y-55931176D01*
X57879238Y-55875538D01*
X57927619Y-55819900D01*
X58000190Y-55792080D01*
X58048571Y-55792080D01*
X58121142Y-55819900D01*
X58145333Y-55847719D01*
X58580761Y-55792080D02*
X58484000Y-55792080D01*
X58435619Y-55819900D01*
X58411428Y-55847719D01*
X58363047Y-55931176D01*
X58338857Y-56042452D01*
X58338857Y-56265004D01*
X58363047Y-56320642D01*
X58387238Y-56348461D01*
X58435619Y-56376280D01*
X58532380Y-56376280D01*
X58580761Y-56348461D01*
X58604952Y-56320642D01*
X58629142Y-56265004D01*
X58629142Y-56125909D01*
X58604952Y-56070271D01*
X58580761Y-56042452D01*
X58532380Y-56014633D01*
X58435619Y-56014633D01*
X58387238Y-56042452D01*
X58363047Y-56070271D01*
X58338857Y-56125909D01*
D14*
X57674828Y-57611809D02*
X57718371Y-57611809D01*
X57761914Y-57636000D01*
X57783685Y-57660190D01*
X57805457Y-57708571D01*
X57827228Y-57805333D01*
X57827228Y-57926285D01*
X57805457Y-58023047D01*
X57783685Y-58071428D01*
X57761914Y-58095619D01*
X57718371Y-58119809D01*
X57674828Y-58119809D01*
X57631285Y-58095619D01*
X57609514Y-58071428D01*
X57587742Y-58023047D01*
X57565971Y-57926285D01*
X57565971Y-57805333D01*
X57587742Y-57708571D01*
X57609514Y-57660190D01*
X57631285Y-57636000D01*
X57674828Y-57611809D01*
X58023171Y-58071428D02*
X58044942Y-58095619D01*
X58023171Y-58119809D01*
X58001400Y-58095619D01*
X58023171Y-58071428D01*
X58023171Y-58119809D01*
X58480371Y-58119809D02*
X58219114Y-58119809D01*
X58349742Y-58119809D02*
X58349742Y-57611809D01*
X58306200Y-57684380D01*
X58262657Y-57732761D01*
X58219114Y-57756952D01*
X58872257Y-57781142D02*
X58872257Y-58119809D01*
X58676314Y-57781142D02*
X58676314Y-58047238D01*
X58698085Y-58095619D01*
X58741628Y-58119809D01*
X58806942Y-58119809D01*
X58850485Y-58095619D01*
X58872257Y-58071428D01*
D15*
X47008026Y-32064400D02*
X47008026Y-32778686D01*
X46960407Y-32921543D01*
X46865169Y-33016781D01*
X46722312Y-33064400D01*
X46627074Y-33064400D01*
X47960407Y-32064400D02*
X47484217Y-32064400D01*
X47436598Y-32540591D01*
X47484217Y-32492972D01*
X47579455Y-32445353D01*
X47817550Y-32445353D01*
X47912788Y-32492972D01*
X47960407Y-32540591D01*
X48008026Y-32635829D01*
X48008026Y-32873924D01*
X47960407Y-32969162D01*
X47912788Y-33016781D01*
X47817550Y-33064400D01*
X47579455Y-33064400D01*
X47484217Y-33016781D01*
X47436598Y-32969162D01*
X64788026Y-32064400D02*
X64788026Y-32778686D01*
X64740407Y-32921543D01*
X64645169Y-33016781D01*
X64502312Y-33064400D01*
X64407074Y-33064400D01*
X65692788Y-32397734D02*
X65692788Y-33064400D01*
X65454693Y-32016781D02*
X65216598Y-32731067D01*
X65835645Y-32731067D01*
D12*
X94765238Y-59771809D02*
X95079714Y-59771809D01*
X94910380Y-59965333D01*
X94982952Y-59965333D01*
X95031333Y-59989523D01*
X95055523Y-60013714D01*
X95079714Y-60062095D01*
X95079714Y-60183047D01*
X95055523Y-60231428D01*
X95031333Y-60255619D01*
X94982952Y-60279809D01*
X94837809Y-60279809D01*
X94789428Y-60255619D01*
X94765238Y-60231428D01*
X95249047Y-59941142D02*
X95370000Y-60279809D01*
X95490952Y-59941142D01*
X95636095Y-59771809D02*
X95950571Y-59771809D01*
X95781238Y-59965333D01*
X95853809Y-59965333D01*
X95902190Y-59989523D01*
X95926380Y-60013714D01*
X95950571Y-60062095D01*
X95950571Y-60183047D01*
X95926380Y-60231428D01*
X95902190Y-60255619D01*
X95853809Y-60279809D01*
X95708666Y-60279809D01*
X95660285Y-60255619D01*
X95636095Y-60231428D01*
X62968190Y-90753904D02*
X62944000Y-90802285D01*
X62895619Y-90850666D01*
X62823047Y-90923238D01*
X62798857Y-90971619D01*
X62798857Y-91020000D01*
X62919809Y-90995809D02*
X62895619Y-91044190D01*
X62847238Y-91092571D01*
X62750476Y-91116761D01*
X62581142Y-91116761D01*
X62484380Y-91092571D01*
X62436000Y-91044190D01*
X62411809Y-90995809D01*
X62411809Y-90899047D01*
X62436000Y-90850666D01*
X62484380Y-90802285D01*
X62581142Y-90778095D01*
X62750476Y-90778095D01*
X62847238Y-90802285D01*
X62895619Y-90850666D01*
X62919809Y-90899047D01*
X62919809Y-90995809D01*
X62895619Y-90584571D02*
X62919809Y-90512000D01*
X62919809Y-90391047D01*
X62895619Y-90342666D01*
X62871428Y-90318476D01*
X62823047Y-90294285D01*
X62774666Y-90294285D01*
X62726285Y-90318476D01*
X62702095Y-90342666D01*
X62677904Y-90391047D01*
X62653714Y-90487809D01*
X62629523Y-90536190D01*
X62605333Y-90560380D01*
X62556952Y-90584571D01*
X62508571Y-90584571D01*
X62460190Y-90560380D01*
X62436000Y-90536190D01*
X62411809Y-90487809D01*
X62411809Y-90366857D01*
X62436000Y-90294285D01*
X62968190Y-90197523D02*
X62968190Y-89810476D01*
X62653714Y-89520190D02*
X62677904Y-89447619D01*
X62702095Y-89423428D01*
X62750476Y-89399238D01*
X62823047Y-89399238D01*
X62871428Y-89423428D01*
X62895619Y-89447619D01*
X62919809Y-89496000D01*
X62919809Y-89689523D01*
X62411809Y-89689523D01*
X62411809Y-89520190D01*
X62436000Y-89471809D01*
X62460190Y-89447619D01*
X62508571Y-89423428D01*
X62556952Y-89423428D01*
X62605333Y-89447619D01*
X62629523Y-89471809D01*
X62653714Y-89520190D01*
X62653714Y-89689523D01*
X62871428Y-88891238D02*
X62895619Y-88915428D01*
X62919809Y-88988000D01*
X62919809Y-89036380D01*
X62895619Y-89108952D01*
X62847238Y-89157333D01*
X62798857Y-89181523D01*
X62702095Y-89205714D01*
X62629523Y-89205714D01*
X62532761Y-89181523D01*
X62484380Y-89157333D01*
X62436000Y-89108952D01*
X62411809Y-89036380D01*
X62411809Y-88988000D01*
X62436000Y-88915428D01*
X62460190Y-88891238D01*
X62919809Y-88673523D02*
X62411809Y-88673523D01*
X62919809Y-88383238D02*
X62629523Y-88600952D01*
X62411809Y-88383238D02*
X62702095Y-88673523D01*
X70869809Y-77662857D02*
X70361809Y-77662857D01*
X70410190Y-77445142D02*
X70386000Y-77420952D01*
X70361809Y-77372571D01*
X70361809Y-77251619D01*
X70386000Y-77203238D01*
X70410190Y-77179047D01*
X70458571Y-77154857D01*
X70506952Y-77154857D01*
X70579523Y-77179047D01*
X70869809Y-77469333D01*
X70869809Y-77154857D01*
X70845619Y-76961333D02*
X70869809Y-76888761D01*
X70869809Y-76767809D01*
X70845619Y-76719428D01*
X70821428Y-76695238D01*
X70773047Y-76671047D01*
X70724666Y-76671047D01*
X70676285Y-76695238D01*
X70652095Y-76719428D01*
X70627904Y-76767809D01*
X70603714Y-76864571D01*
X70579523Y-76912952D01*
X70555333Y-76937142D01*
X70506952Y-76961333D01*
X70458571Y-76961333D01*
X70410190Y-76937142D01*
X70386000Y-76912952D01*
X70361809Y-76864571D01*
X70361809Y-76743619D01*
X70386000Y-76671047D01*
X70918190Y-76574285D02*
X70918190Y-76187238D01*
X70361809Y-76114666D02*
X70869809Y-75993714D01*
X70506952Y-75896952D01*
X70869809Y-75800190D01*
X70361809Y-75679238D01*
X70845619Y-75509904D02*
X70869809Y-75437333D01*
X70869809Y-75316380D01*
X70845619Y-75268000D01*
X70821428Y-75243809D01*
X70773047Y-75219619D01*
X70724666Y-75219619D01*
X70676285Y-75243809D01*
X70652095Y-75268000D01*
X70627904Y-75316380D01*
X70603714Y-75413142D01*
X70579523Y-75461523D01*
X70555333Y-75485714D01*
X70506952Y-75509904D01*
X70458571Y-75509904D01*
X70410190Y-75485714D01*
X70386000Y-75461523D01*
X70361809Y-75413142D01*
X70361809Y-75292190D01*
X70386000Y-75219619D01*
X70918190Y-75122857D02*
X70918190Y-74735809D01*
X70869809Y-74542285D02*
X70845619Y-74590666D01*
X70821428Y-74614857D01*
X70773047Y-74639047D01*
X70627904Y-74639047D01*
X70579523Y-74614857D01*
X70555333Y-74590666D01*
X70531142Y-74542285D01*
X70531142Y-74469714D01*
X70555333Y-74421333D01*
X70579523Y-74397142D01*
X70627904Y-74372952D01*
X70773047Y-74372952D01*
X70821428Y-74397142D01*
X70845619Y-74421333D01*
X70869809Y-74469714D01*
X70869809Y-74542285D01*
D13*
X59796280Y-82714666D02*
X59518090Y-82884000D01*
X59796280Y-83004952D02*
X59212080Y-83004952D01*
X59212080Y-82811428D01*
X59239900Y-82763047D01*
X59267719Y-82738857D01*
X59323357Y-82714666D01*
X59406814Y-82714666D01*
X59462452Y-82738857D01*
X59490271Y-82763047D01*
X59518090Y-82811428D01*
X59518090Y-83004952D01*
X59212080Y-82279238D02*
X59212080Y-82376000D01*
X59239900Y-82424380D01*
X59267719Y-82448571D01*
X59351176Y-82496952D01*
X59462452Y-82521142D01*
X59685004Y-82521142D01*
X59740642Y-82496952D01*
X59768461Y-82472761D01*
X59796280Y-82424380D01*
X59796280Y-82327619D01*
X59768461Y-82279238D01*
X59740642Y-82255047D01*
X59685004Y-82230857D01*
X59545909Y-82230857D01*
X59490271Y-82255047D01*
X59462452Y-82279238D01*
X59434633Y-82327619D01*
X59434633Y-82424380D01*
X59462452Y-82472761D01*
X59490271Y-82496952D01*
X59545909Y-82521142D01*
D14*
X61031809Y-83294028D02*
X61031809Y-83011000D01*
X61225333Y-83163400D01*
X61225333Y-83098085D01*
X61249523Y-83054542D01*
X61273714Y-83032771D01*
X61322095Y-83011000D01*
X61443047Y-83011000D01*
X61491428Y-83032771D01*
X61515619Y-83054542D01*
X61539809Y-83098085D01*
X61539809Y-83228714D01*
X61515619Y-83272257D01*
X61491428Y-83294028D01*
X61491428Y-82815057D02*
X61515619Y-82793285D01*
X61539809Y-82815057D01*
X61515619Y-82836828D01*
X61491428Y-82815057D01*
X61539809Y-82815057D01*
X61031809Y-82640885D02*
X61031809Y-82357857D01*
X61225333Y-82510257D01*
X61225333Y-82444942D01*
X61249523Y-82401400D01*
X61273714Y-82379628D01*
X61322095Y-82357857D01*
X61443047Y-82357857D01*
X61491428Y-82379628D01*
X61515619Y-82401400D01*
X61539809Y-82444942D01*
X61539809Y-82575571D01*
X61515619Y-82619114D01*
X61491428Y-82640885D01*
X61539809Y-82161914D02*
X61031809Y-82161914D01*
X61346285Y-82118371D02*
X61539809Y-81987742D01*
X61201142Y-81987742D02*
X61394666Y-82161914D01*
D12*
X66938190Y-90724095D02*
X66914000Y-90772476D01*
X66865619Y-90820857D01*
X66793047Y-90893428D01*
X66768857Y-90941809D01*
X66768857Y-90990190D01*
X66889809Y-90966000D02*
X66865619Y-91014380D01*
X66817238Y-91062761D01*
X66720476Y-91086952D01*
X66551142Y-91086952D01*
X66454380Y-91062761D01*
X66406000Y-91014380D01*
X66381809Y-90966000D01*
X66381809Y-90869238D01*
X66406000Y-90820857D01*
X66454380Y-90772476D01*
X66551142Y-90748285D01*
X66720476Y-90748285D01*
X66817238Y-90772476D01*
X66865619Y-90820857D01*
X66889809Y-90869238D01*
X66889809Y-90966000D01*
X66865619Y-90554761D02*
X66889809Y-90482190D01*
X66889809Y-90361238D01*
X66865619Y-90312857D01*
X66841428Y-90288666D01*
X66793047Y-90264476D01*
X66744666Y-90264476D01*
X66696285Y-90288666D01*
X66672095Y-90312857D01*
X66647904Y-90361238D01*
X66623714Y-90458000D01*
X66599523Y-90506380D01*
X66575333Y-90530571D01*
X66526952Y-90554761D01*
X66478571Y-90554761D01*
X66430190Y-90530571D01*
X66406000Y-90506380D01*
X66381809Y-90458000D01*
X66381809Y-90337047D01*
X66406000Y-90264476D01*
X66938190Y-90167714D02*
X66938190Y-89780666D01*
X66381809Y-89708095D02*
X66889809Y-89587142D01*
X66526952Y-89490380D01*
X66889809Y-89393619D01*
X66381809Y-89272666D01*
X66865619Y-89103333D02*
X66889809Y-89030761D01*
X66889809Y-88909809D01*
X66865619Y-88861428D01*
X66841428Y-88837238D01*
X66793047Y-88813047D01*
X66744666Y-88813047D01*
X66696285Y-88837238D01*
X66672095Y-88861428D01*
X66647904Y-88909809D01*
X66623714Y-89006571D01*
X66599523Y-89054952D01*
X66575333Y-89079142D01*
X66526952Y-89103333D01*
X66478571Y-89103333D01*
X66430190Y-89079142D01*
X66406000Y-89054952D01*
X66381809Y-89006571D01*
X66381809Y-88885619D01*
X66406000Y-88813047D01*
D13*
X59814280Y-84344666D02*
X59536090Y-84514000D01*
X59814280Y-84634952D02*
X59230080Y-84634952D01*
X59230080Y-84441428D01*
X59257900Y-84393047D01*
X59285719Y-84368857D01*
X59341357Y-84344666D01*
X59424814Y-84344666D01*
X59480452Y-84368857D01*
X59508271Y-84393047D01*
X59536090Y-84441428D01*
X59536090Y-84634952D01*
X59230080Y-83885047D02*
X59230080Y-84126952D01*
X59508271Y-84151142D01*
X59480452Y-84126952D01*
X59452633Y-84078571D01*
X59452633Y-83957619D01*
X59480452Y-83909238D01*
X59508271Y-83885047D01*
X59563909Y-83860857D01*
X59703004Y-83860857D01*
X59758642Y-83885047D01*
X59786461Y-83909238D01*
X59814280Y-83957619D01*
X59814280Y-84078571D01*
X59786461Y-84126952D01*
X59758642Y-84151142D01*
D14*
X61539809Y-84681000D02*
X61539809Y-84942257D01*
X61539809Y-84811628D02*
X61031809Y-84811628D01*
X61104380Y-84855171D01*
X61152761Y-84898714D01*
X61176952Y-84942257D01*
X61491428Y-84485057D02*
X61515619Y-84463285D01*
X61539809Y-84485057D01*
X61515619Y-84506828D01*
X61491428Y-84485057D01*
X61539809Y-84485057D01*
X61249523Y-84202028D02*
X61225333Y-84245571D01*
X61201142Y-84267342D01*
X61152761Y-84289114D01*
X61128571Y-84289114D01*
X61080190Y-84267342D01*
X61056000Y-84245571D01*
X61031809Y-84202028D01*
X61031809Y-84114942D01*
X61056000Y-84071400D01*
X61080190Y-84049628D01*
X61128571Y-84027857D01*
X61152761Y-84027857D01*
X61201142Y-84049628D01*
X61225333Y-84071400D01*
X61249523Y-84114942D01*
X61249523Y-84202028D01*
X61273714Y-84245571D01*
X61297904Y-84267342D01*
X61346285Y-84289114D01*
X61443047Y-84289114D01*
X61491428Y-84267342D01*
X61515619Y-84245571D01*
X61539809Y-84202028D01*
X61539809Y-84114942D01*
X61515619Y-84071400D01*
X61491428Y-84049628D01*
X61443047Y-84027857D01*
X61346285Y-84027857D01*
X61297904Y-84049628D01*
X61273714Y-84071400D01*
X61249523Y-84114942D01*
X61539809Y-83831914D02*
X61031809Y-83831914D01*
X61346285Y-83788371D02*
X61539809Y-83657742D01*
X61201142Y-83657742D02*
X61394666Y-83831914D01*
D12*
X68849809Y-78122666D02*
X68341809Y-78122666D01*
X68390190Y-77904952D02*
X68366000Y-77880761D01*
X68341809Y-77832380D01*
X68341809Y-77711428D01*
X68366000Y-77663047D01*
X68390190Y-77638857D01*
X68438571Y-77614666D01*
X68486952Y-77614666D01*
X68559523Y-77638857D01*
X68849809Y-77929142D01*
X68849809Y-77614666D01*
X68825619Y-77421142D02*
X68849809Y-77348571D01*
X68849809Y-77227619D01*
X68825619Y-77179238D01*
X68801428Y-77155047D01*
X68753047Y-77130857D01*
X68704666Y-77130857D01*
X68656285Y-77155047D01*
X68632095Y-77179238D01*
X68607904Y-77227619D01*
X68583714Y-77324380D01*
X68559523Y-77372761D01*
X68535333Y-77396952D01*
X68486952Y-77421142D01*
X68438571Y-77421142D01*
X68390190Y-77396952D01*
X68366000Y-77372761D01*
X68341809Y-77324380D01*
X68341809Y-77203428D01*
X68366000Y-77130857D01*
X68898190Y-77034095D02*
X68898190Y-76647047D01*
X68583714Y-76356761D02*
X68607904Y-76284190D01*
X68632095Y-76260000D01*
X68680476Y-76235809D01*
X68753047Y-76235809D01*
X68801428Y-76260000D01*
X68825619Y-76284190D01*
X68849809Y-76332571D01*
X68849809Y-76526095D01*
X68341809Y-76526095D01*
X68341809Y-76356761D01*
X68366000Y-76308380D01*
X68390190Y-76284190D01*
X68438571Y-76260000D01*
X68486952Y-76260000D01*
X68535333Y-76284190D01*
X68559523Y-76308380D01*
X68583714Y-76356761D01*
X68583714Y-76526095D01*
X68801428Y-75727809D02*
X68825619Y-75752000D01*
X68849809Y-75824571D01*
X68849809Y-75872952D01*
X68825619Y-75945523D01*
X68777238Y-75993904D01*
X68728857Y-76018095D01*
X68632095Y-76042285D01*
X68559523Y-76042285D01*
X68462761Y-76018095D01*
X68414380Y-75993904D01*
X68366000Y-75945523D01*
X68341809Y-75872952D01*
X68341809Y-75824571D01*
X68366000Y-75752000D01*
X68390190Y-75727809D01*
X68849809Y-75510095D02*
X68341809Y-75510095D01*
X68849809Y-75219809D02*
X68559523Y-75437523D01*
X68341809Y-75219809D02*
X68632095Y-75510095D01*
X68898190Y-75123047D02*
X68898190Y-74736000D01*
X68849809Y-74542476D02*
X68825619Y-74590857D01*
X68801428Y-74615047D01*
X68753047Y-74639238D01*
X68607904Y-74639238D01*
X68559523Y-74615047D01*
X68535333Y-74590857D01*
X68511142Y-74542476D01*
X68511142Y-74469904D01*
X68535333Y-74421523D01*
X68559523Y-74397333D01*
X68607904Y-74373142D01*
X68753047Y-74373142D01*
X68801428Y-74397333D01*
X68825619Y-74421523D01*
X68849809Y-74469904D01*
X68849809Y-74542476D01*
X71927904Y-90991809D02*
X72169809Y-90991809D01*
X71661809Y-91161142D02*
X71927904Y-90991809D01*
X71661809Y-90822476D01*
X72169809Y-90653142D02*
X71661809Y-90653142D01*
X72024666Y-90483809D01*
X71661809Y-90314476D01*
X72169809Y-90314476D01*
X72218190Y-90193523D02*
X72218190Y-89806476D01*
X72145619Y-89709714D02*
X72169809Y-89637142D01*
X72169809Y-89516190D01*
X72145619Y-89467809D01*
X72121428Y-89443619D01*
X72073047Y-89419428D01*
X72024666Y-89419428D01*
X71976285Y-89443619D01*
X71952095Y-89467809D01*
X71927904Y-89516190D01*
X71903714Y-89612952D01*
X71879523Y-89661333D01*
X71855333Y-89685523D01*
X71806952Y-89709714D01*
X71758571Y-89709714D01*
X71710190Y-89685523D01*
X71686000Y-89661333D01*
X71661809Y-89612952D01*
X71661809Y-89492000D01*
X71686000Y-89419428D01*
X71661809Y-89104952D02*
X71661809Y-89008190D01*
X71686000Y-88959809D01*
X71734380Y-88911428D01*
X71831142Y-88887238D01*
X72000476Y-88887238D01*
X72097238Y-88911428D01*
X72145619Y-88959809D01*
X72169809Y-89008190D01*
X72169809Y-89104952D01*
X72145619Y-89153333D01*
X72097238Y-89201714D01*
X72000476Y-89225904D01*
X71831142Y-89225904D01*
X71734380Y-89201714D01*
X71686000Y-89153333D01*
X71661809Y-89104952D01*
X64998190Y-90747142D02*
X64974000Y-90795523D01*
X64925619Y-90843904D01*
X64853047Y-90916476D01*
X64828857Y-90964857D01*
X64828857Y-91013238D01*
X64949809Y-90989047D02*
X64925619Y-91037428D01*
X64877238Y-91085809D01*
X64780476Y-91110000D01*
X64611142Y-91110000D01*
X64514380Y-91085809D01*
X64466000Y-91037428D01*
X64441809Y-90989047D01*
X64441809Y-90892285D01*
X64466000Y-90843904D01*
X64514380Y-90795523D01*
X64611142Y-90771333D01*
X64780476Y-90771333D01*
X64877238Y-90795523D01*
X64925619Y-90843904D01*
X64949809Y-90892285D01*
X64949809Y-90989047D01*
X64925619Y-90577809D02*
X64949809Y-90505238D01*
X64949809Y-90384285D01*
X64925619Y-90335904D01*
X64901428Y-90311714D01*
X64853047Y-90287523D01*
X64804666Y-90287523D01*
X64756285Y-90311714D01*
X64732095Y-90335904D01*
X64707904Y-90384285D01*
X64683714Y-90481047D01*
X64659523Y-90529428D01*
X64635333Y-90553619D01*
X64586952Y-90577809D01*
X64538571Y-90577809D01*
X64490190Y-90553619D01*
X64466000Y-90529428D01*
X64441809Y-90481047D01*
X64441809Y-90360095D01*
X64466000Y-90287523D01*
X64998190Y-90190761D02*
X64998190Y-89803714D01*
X64949809Y-89682761D02*
X64441809Y-89682761D01*
X64441809Y-89561809D01*
X64466000Y-89489238D01*
X64514380Y-89440857D01*
X64562761Y-89416666D01*
X64659523Y-89392476D01*
X64732095Y-89392476D01*
X64828857Y-89416666D01*
X64877238Y-89440857D01*
X64925619Y-89489238D01*
X64949809Y-89561809D01*
X64949809Y-89682761D01*
X64804666Y-89198952D02*
X64804666Y-88957047D01*
X64949809Y-89247333D02*
X64441809Y-89078000D01*
X64949809Y-88908666D01*
X64441809Y-88811904D02*
X64441809Y-88521619D01*
X64949809Y-88666761D02*
X64441809Y-88666761D01*
D13*
X59804280Y-86224666D02*
X59526090Y-86394000D01*
X59804280Y-86514952D02*
X59220080Y-86514952D01*
X59220080Y-86321428D01*
X59247900Y-86273047D01*
X59275719Y-86248857D01*
X59331357Y-86224666D01*
X59414814Y-86224666D01*
X59470452Y-86248857D01*
X59498271Y-86273047D01*
X59526090Y-86321428D01*
X59526090Y-86514952D01*
X59220080Y-86055333D02*
X59220080Y-85740857D01*
X59442633Y-85910190D01*
X59442633Y-85837619D01*
X59470452Y-85789238D01*
X59498271Y-85765047D01*
X59553909Y-85740857D01*
X59693004Y-85740857D01*
X59748642Y-85765047D01*
X59776461Y-85789238D01*
X59804280Y-85837619D01*
X59804280Y-85982761D01*
X59776461Y-86031142D01*
X59748642Y-86055333D01*
D14*
X61011809Y-86804028D02*
X61011809Y-86521000D01*
X61205333Y-86673400D01*
X61205333Y-86608085D01*
X61229523Y-86564542D01*
X61253714Y-86542771D01*
X61302095Y-86521000D01*
X61423047Y-86521000D01*
X61471428Y-86542771D01*
X61495619Y-86564542D01*
X61519809Y-86608085D01*
X61519809Y-86738714D01*
X61495619Y-86782257D01*
X61471428Y-86804028D01*
X61471428Y-86325057D02*
X61495619Y-86303285D01*
X61519809Y-86325057D01*
X61495619Y-86346828D01*
X61471428Y-86325057D01*
X61519809Y-86325057D01*
X61011809Y-86150885D02*
X61011809Y-85867857D01*
X61205333Y-86020257D01*
X61205333Y-85954942D01*
X61229523Y-85911400D01*
X61253714Y-85889628D01*
X61302095Y-85867857D01*
X61423047Y-85867857D01*
X61471428Y-85889628D01*
X61495619Y-85911400D01*
X61519809Y-85954942D01*
X61519809Y-86085571D01*
X61495619Y-86129114D01*
X61471428Y-86150885D01*
X61519809Y-85671914D02*
X61011809Y-85671914D01*
X61326285Y-85628371D02*
X61519809Y-85497742D01*
X61181142Y-85497742D02*
X61374666Y-85671914D01*
D13*
X62445333Y-78850642D02*
X62421142Y-78878461D01*
X62348571Y-78906280D01*
X62300190Y-78906280D01*
X62227619Y-78878461D01*
X62179238Y-78822823D01*
X62155047Y-78767185D01*
X62130857Y-78655909D01*
X62130857Y-78572452D01*
X62155047Y-78461176D01*
X62179238Y-78405538D01*
X62227619Y-78349900D01*
X62300190Y-78322080D01*
X62348571Y-78322080D01*
X62421142Y-78349900D01*
X62445333Y-78377719D01*
X62687238Y-78906280D02*
X62784000Y-78906280D01*
X62832380Y-78878461D01*
X62856571Y-78850642D01*
X62904952Y-78767185D01*
X62929142Y-78655909D01*
X62929142Y-78433357D01*
X62904952Y-78377719D01*
X62880761Y-78349900D01*
X62832380Y-78322080D01*
X62735619Y-78322080D01*
X62687238Y-78349900D01*
X62663047Y-78377719D01*
X62638857Y-78433357D01*
X62638857Y-78572452D01*
X62663047Y-78628090D01*
X62687238Y-78655909D01*
X62735619Y-78683728D01*
X62832380Y-78683728D01*
X62880761Y-78655909D01*
X62904952Y-78628090D01*
X62929142Y-78572452D01*
D14*
X61974828Y-80141809D02*
X62018371Y-80141809D01*
X62061914Y-80166000D01*
X62083685Y-80190190D01*
X62105457Y-80238571D01*
X62127228Y-80335333D01*
X62127228Y-80456285D01*
X62105457Y-80553047D01*
X62083685Y-80601428D01*
X62061914Y-80625619D01*
X62018371Y-80649809D01*
X61974828Y-80649809D01*
X61931285Y-80625619D01*
X61909514Y-80601428D01*
X61887742Y-80553047D01*
X61865971Y-80456285D01*
X61865971Y-80335333D01*
X61887742Y-80238571D01*
X61909514Y-80190190D01*
X61931285Y-80166000D01*
X61974828Y-80141809D01*
X62323171Y-80601428D02*
X62344942Y-80625619D01*
X62323171Y-80649809D01*
X62301400Y-80625619D01*
X62323171Y-80601428D01*
X62323171Y-80649809D01*
X62780371Y-80649809D02*
X62519114Y-80649809D01*
X62649742Y-80649809D02*
X62649742Y-80141809D01*
X62606200Y-80214380D01*
X62562657Y-80262761D01*
X62519114Y-80286952D01*
X63172257Y-80311142D02*
X63172257Y-80649809D01*
X62976314Y-80311142D02*
X62976314Y-80577238D01*
X62998085Y-80625619D01*
X63041628Y-80649809D01*
X63106942Y-80649809D01*
X63150485Y-80625619D01*
X63172257Y-80601428D01*
D15*
X63252380Y-84181904D02*
X64061904Y-84181904D01*
X64157142Y-84134285D01*
X64204761Y-84086666D01*
X64252380Y-83991428D01*
X64252380Y-83800952D01*
X64204761Y-83705714D01*
X64157142Y-83658095D01*
X64061904Y-83610476D01*
X63252380Y-83610476D01*
X63252380Y-83229523D02*
X63252380Y-82610476D01*
X63633333Y-82943809D01*
X63633333Y-82800952D01*
X63680952Y-82705714D01*
X63728571Y-82658095D01*
X63823809Y-82610476D01*
X64061904Y-82610476D01*
X64157142Y-82658095D01*
X64204761Y-82705714D01*
X64252380Y-82800952D01*
X64252380Y-83086666D01*
X64204761Y-83181904D01*
X64157142Y-83229523D01*
D12*
X66759809Y-78373619D02*
X66251809Y-78373619D01*
X66300190Y-78155904D02*
X66276000Y-78131714D01*
X66251809Y-78083333D01*
X66251809Y-77962380D01*
X66276000Y-77914000D01*
X66300190Y-77889809D01*
X66348571Y-77865619D01*
X66396952Y-77865619D01*
X66469523Y-77889809D01*
X66759809Y-78180095D01*
X66759809Y-77865619D01*
X66735619Y-77672095D02*
X66759809Y-77599523D01*
X66759809Y-77478571D01*
X66735619Y-77430190D01*
X66711428Y-77406000D01*
X66663047Y-77381809D01*
X66614666Y-77381809D01*
X66566285Y-77406000D01*
X66542095Y-77430190D01*
X66517904Y-77478571D01*
X66493714Y-77575333D01*
X66469523Y-77623714D01*
X66445333Y-77647904D01*
X66396952Y-77672095D01*
X66348571Y-77672095D01*
X66300190Y-77647904D01*
X66276000Y-77623714D01*
X66251809Y-77575333D01*
X66251809Y-77454380D01*
X66276000Y-77381809D01*
X66808190Y-77285047D02*
X66808190Y-76898000D01*
X66759809Y-76777047D02*
X66251809Y-76777047D01*
X66251809Y-76656095D01*
X66276000Y-76583523D01*
X66324380Y-76535142D01*
X66372761Y-76510952D01*
X66469523Y-76486761D01*
X66542095Y-76486761D01*
X66638857Y-76510952D01*
X66687238Y-76535142D01*
X66735619Y-76583523D01*
X66759809Y-76656095D01*
X66759809Y-76777047D01*
X66614666Y-76293238D02*
X66614666Y-76051333D01*
X66759809Y-76341619D02*
X66251809Y-76172285D01*
X66759809Y-76002952D01*
X66251809Y-75906190D02*
X66251809Y-75615904D01*
X66759809Y-75761047D02*
X66251809Y-75761047D01*
X66614666Y-75470761D02*
X66614666Y-75228857D01*
X66759809Y-75519142D02*
X66251809Y-75349809D01*
X66759809Y-75180476D01*
X66808190Y-75132095D02*
X66808190Y-74745047D01*
X66759809Y-74551523D02*
X66735619Y-74599904D01*
X66711428Y-74624095D01*
X66663047Y-74648285D01*
X66517904Y-74648285D01*
X66469523Y-74624095D01*
X66445333Y-74599904D01*
X66421142Y-74551523D01*
X66421142Y-74478952D01*
X66445333Y-74430571D01*
X66469523Y-74406380D01*
X66517904Y-74382190D01*
X66663047Y-74382190D01*
X66711428Y-74406380D01*
X66735619Y-74430571D01*
X66759809Y-74478952D01*
X66759809Y-74551523D01*
X59408190Y-90639238D02*
X59384000Y-90687619D01*
X59335619Y-90736000D01*
X59263047Y-90808571D01*
X59238857Y-90856952D01*
X59238857Y-90905333D01*
X59359809Y-90881142D02*
X59335619Y-90929523D01*
X59287238Y-90977904D01*
X59190476Y-91002095D01*
X59021142Y-91002095D01*
X58924380Y-90977904D01*
X58876000Y-90929523D01*
X58851809Y-90881142D01*
X58851809Y-90784380D01*
X58876000Y-90736000D01*
X58924380Y-90687619D01*
X59021142Y-90663428D01*
X59190476Y-90663428D01*
X59287238Y-90687619D01*
X59335619Y-90736000D01*
X59359809Y-90784380D01*
X59359809Y-90881142D01*
X59335619Y-90469904D02*
X59359809Y-90397333D01*
X59359809Y-90276380D01*
X59335619Y-90228000D01*
X59311428Y-90203809D01*
X59263047Y-90179619D01*
X59214666Y-90179619D01*
X59166285Y-90203809D01*
X59142095Y-90228000D01*
X59117904Y-90276380D01*
X59093714Y-90373142D01*
X59069523Y-90421523D01*
X59045333Y-90445714D01*
X58996952Y-90469904D01*
X58948571Y-90469904D01*
X58900190Y-90445714D01*
X58876000Y-90421523D01*
X58851809Y-90373142D01*
X58851809Y-90252190D01*
X58876000Y-90179619D01*
X59408190Y-90082857D02*
X59408190Y-89695809D01*
X59335619Y-89599047D02*
X59359809Y-89526476D01*
X59359809Y-89405523D01*
X59335619Y-89357142D01*
X59311428Y-89332952D01*
X59263047Y-89308761D01*
X59214666Y-89308761D01*
X59166285Y-89332952D01*
X59142095Y-89357142D01*
X59117904Y-89405523D01*
X59093714Y-89502285D01*
X59069523Y-89550666D01*
X59045333Y-89574857D01*
X58996952Y-89599047D01*
X58948571Y-89599047D01*
X58900190Y-89574857D01*
X58876000Y-89550666D01*
X58851809Y-89502285D01*
X58851809Y-89381333D01*
X58876000Y-89308761D01*
X59093714Y-89091047D02*
X59093714Y-88921714D01*
X59359809Y-88849142D02*
X59359809Y-89091047D01*
X58851809Y-89091047D01*
X58851809Y-88849142D01*
X59359809Y-88389523D02*
X59359809Y-88631428D01*
X58851809Y-88631428D01*
D16*
X46573400Y-66240480D02*
X48046600Y-66240480D01*
X46575940Y-68678880D02*
X46575940Y-67980380D01*
X48044060Y-66979620D02*
X48044060Y-66281120D01*
X48044060Y-67980380D02*
X48044060Y-68678880D01*
X48046600Y-68719520D02*
X46573400Y-68719520D01*
X46575940Y-66979620D02*
X46575940Y-66281120D01*
X57939520Y-65793400D02*
X57939520Y-67266600D01*
X57200380Y-67264060D02*
X57898880Y-67264060D01*
X57200380Y-65795940D02*
X57898880Y-65795940D01*
X56199620Y-67264060D02*
X55501120Y-67264060D01*
X55460480Y-67266600D02*
X55460480Y-65793400D01*
X55501120Y-65795940D02*
X56199620Y-65795940D01*
X52660480Y-67276600D02*
X52660480Y-65803400D01*
X55139520Y-65803400D02*
X55139520Y-67276600D01*
X54400380Y-67274060D02*
X55098880Y-67274060D01*
X53399620Y-67274060D02*
X52701120Y-67274060D01*
X54400380Y-65805940D02*
X55098880Y-65805940D01*
X52701120Y-65805940D02*
X53399620Y-65805940D01*
X55045940Y-78010380D02*
X55045940Y-78708880D01*
X56514060Y-76311120D02*
X56514060Y-77009620D01*
X56516600Y-78749520D02*
X55043400Y-78749520D01*
X55045940Y-77009620D02*
X55045940Y-76311120D01*
X56514060Y-78010380D02*
X56514060Y-78708880D01*
X55043400Y-76270480D02*
X56516600Y-76270480D01*
D15*
X56225000Y-75505000D02*
X56225000Y-75055000D01*
X50475000Y-68205000D02*
X48875000Y-68205000D01*
X50475000Y-75505000D02*
X56225000Y-75505000D01*
X56225000Y-67855000D02*
X56225000Y-68305000D01*
X50475000Y-75505000D02*
X50475000Y-75055000D01*
X50475000Y-67855000D02*
X50475000Y-68205000D01*
X50475000Y-67855000D02*
X56225000Y-67855000D01*
D17*
X83355000Y-91980000D02*
X89155000Y-91980000D01*
X83355000Y-78180000D02*
X83355000Y-91980000D01*
X89155000Y-78180000D02*
X83355000Y-78180000D01*
X89155000Y-91980000D02*
X89155000Y-78180000D01*
D16*
X62134060Y-73360380D02*
X62134060Y-74058880D01*
X60665940Y-72359620D02*
X60665940Y-71661120D01*
X60665940Y-74058880D02*
X60665940Y-73360380D01*
X62136600Y-74099520D02*
X60663400Y-74099520D01*
X60663400Y-71620480D02*
X62136600Y-71620480D01*
X62134060Y-72359620D02*
X62134060Y-71661120D01*
D17*
X101135000Y-91980000D02*
X106935000Y-91980000D01*
X106935000Y-91980000D02*
X106935000Y-78180000D01*
X106935000Y-78180000D02*
X101135000Y-78180000D01*
X101135000Y-78180000D02*
X101135000Y-91980000D01*
D16*
X50589620Y-65634060D02*
X49891120Y-65634060D01*
X49850480Y-65636600D02*
X49850480Y-64163400D01*
X52329520Y-64163400D02*
X52329520Y-65636600D01*
X50589620Y-64165940D02*
X49891120Y-64165940D01*
X51590380Y-64165940D02*
X52288880Y-64165940D01*
X52288880Y-65634060D02*
X51590380Y-65634060D01*
X47548880Y-75344060D02*
X46850380Y-75344060D01*
X45849620Y-75344060D02*
X45151120Y-75344060D01*
X45849620Y-73875940D02*
X45151120Y-73875940D01*
X46850380Y-73875940D02*
X47548880Y-73875940D01*
X47589520Y-73873400D02*
X47589520Y-75346600D01*
X45110480Y-75346600D02*
X45110480Y-73873400D01*
X47558880Y-73714060D02*
X46860380Y-73714060D01*
X45859620Y-72245940D02*
X45161120Y-72245940D01*
X46860380Y-72245940D02*
X47558880Y-72245940D01*
X45859620Y-73714060D02*
X45161120Y-73714060D01*
X45120480Y-73716600D02*
X45120480Y-72243400D01*
X47599520Y-72243400D02*
X47599520Y-73716600D01*
X58144060Y-76311120D02*
X58144060Y-77009620D01*
X56675940Y-78010380D02*
X56675940Y-78708880D01*
X58144060Y-78010380D02*
X58144060Y-78708880D01*
X56675940Y-77009620D02*
X56675940Y-76311120D01*
X56673400Y-76270480D02*
X58146600Y-76270480D01*
X58146600Y-78749520D02*
X56673400Y-78749520D01*
X56189620Y-65634060D02*
X55491120Y-65634060D01*
X57190380Y-65634060D02*
X57888880Y-65634060D01*
X57190380Y-64165940D02*
X57888880Y-64165940D01*
X55491120Y-64165940D02*
X56189620Y-64165940D01*
X57929520Y-64163400D02*
X57929520Y-65636600D01*
X55450480Y-65636600D02*
X55450480Y-64163400D01*
X50589620Y-65795940D02*
X49891120Y-65795940D01*
X51590380Y-65795940D02*
X52288880Y-65795940D01*
X52288880Y-67264060D02*
X51590380Y-67264060D01*
X50589620Y-67264060D02*
X49891120Y-67264060D01*
X52329520Y-65793400D02*
X52329520Y-67266600D01*
X49850480Y-67266600D02*
X49850480Y-65793400D01*
X44955940Y-66979620D02*
X44955940Y-66281120D01*
X44955940Y-67980380D02*
X44955940Y-68678880D01*
X46424060Y-67980380D02*
X46424060Y-68678880D01*
X44953400Y-66240480D02*
X46426600Y-66240480D01*
X46424060Y-66281120D02*
X46424060Y-66979620D01*
X46426600Y-68719520D02*
X44953400Y-68719520D01*
D17*
X106935000Y-55320000D02*
X101135000Y-55320000D01*
X106935000Y-69120000D02*
X106935000Y-55320000D01*
X101135000Y-55320000D02*
X101135000Y-69120000D01*
X101135000Y-69120000D02*
X106935000Y-69120000D01*
D15*
X48615000Y-56480000D02*
X54590000Y-56480000D01*
X50190000Y-62005000D02*
X54590000Y-62005000D01*
D16*
X57495940Y-57389620D02*
X57495940Y-56691120D01*
X57493400Y-56650480D02*
X58966600Y-56650480D01*
X58964060Y-58390380D02*
X58964060Y-59088880D01*
X58964060Y-56691120D02*
X58964060Y-57389620D01*
X57495940Y-58390380D02*
X57495940Y-59088880D01*
X58966600Y-59129520D02*
X57493400Y-59129520D01*
D17*
X50155000Y-33680000D02*
X44355000Y-33680000D01*
X44355000Y-47480000D02*
X50155000Y-47480000D01*
X44355000Y-33680000D02*
X44355000Y-47480000D01*
X50155000Y-47480000D02*
X50155000Y-33680000D01*
X67935000Y-33680000D02*
X62135000Y-33680000D01*
X62135000Y-47480000D02*
X67935000Y-47480000D01*
X62135000Y-33680000D02*
X62135000Y-47480000D01*
X67935000Y-47480000D02*
X67935000Y-33680000D01*
D16*
X60111120Y-81895940D02*
X60809620Y-81895940D01*
X61810380Y-81895940D02*
X62508880Y-81895940D01*
X60809620Y-83364060D02*
X60111120Y-83364060D01*
X61810380Y-83364060D02*
X62508880Y-83364060D01*
X62549520Y-81893400D02*
X62549520Y-83366600D01*
X60070480Y-83366600D02*
X60070480Y-81893400D01*
X62549520Y-83563400D02*
X62549520Y-85036600D01*
X60070480Y-85036600D02*
X60070480Y-83563400D01*
X61810380Y-83565940D02*
X62508880Y-83565940D01*
X60809620Y-85034060D02*
X60111120Y-85034060D01*
X62508880Y-85034060D02*
X61810380Y-85034060D01*
X60809620Y-83565940D02*
X60111120Y-83565940D01*
X62529520Y-85403400D02*
X62529520Y-86876600D01*
X60789620Y-86874060D02*
X60091120Y-86874060D01*
X61790380Y-85405940D02*
X62488880Y-85405940D01*
X60050480Y-86876600D02*
X60050480Y-85403400D01*
X62488880Y-86874060D02*
X61790380Y-86874060D01*
X60789620Y-85405940D02*
X60091120Y-85405940D01*
X63264060Y-79221120D02*
X63264060Y-79919620D01*
X63264060Y-80920380D02*
X63264060Y-81618880D01*
X63266600Y-81659520D02*
X61793400Y-81659520D01*
X61793400Y-79180480D02*
X63266600Y-79180480D01*
X61795940Y-79919620D02*
X61795940Y-79221120D01*
X61795940Y-80920380D02*
X61795940Y-81618880D01*
D17*
X74760000Y-83420000D02*
X74760000Y-85370000D01*
X64640000Y-83420000D02*
X64640000Y-86870000D01*
X74760000Y-83420000D02*
X74760000Y-81470000D01*
X64640000Y-83420000D02*
X64640000Y-81470000D01*
M02*
