G04 #@! TF.GenerationSoftware,KiCad,Pcbnew,5.1.2+dfsg1-1*
G04 #@! TF.CreationDate,2019-07-31T23:39:42+03:00*
G04 #@! TF.ProjectId,cps1_adapter,63707331-5f61-4646-9170-7465722e6b69,rev?*
G04 #@! TF.SameCoordinates,Original*
G04 #@! TF.FileFunction,Profile,NP*
%FSLAX46Y46*%
G04 Gerber Fmt 4.6, Leading zero omitted, Abs format (unit mm)*
G04 Created by KiCad (PCBNEW 5.1.2+dfsg1-1) date 2019-07-31 23:39:42*
%MOMM*%
%LPD*%
G04 APERTURE LIST*
%ADD10C,0.150000*%
%ADD11C,0.100000*%
G04 APERTURE END LIST*
D10*
X70150000Y-51300000D02*
X110690000Y-51300000D01*
X70150000Y-31060000D02*
X70150000Y-51300000D01*
X43790000Y-52000000D02*
X43790000Y-49040000D01*
X47590000Y-52000000D02*
X43790000Y-52000000D01*
X47590000Y-49040000D02*
X47590000Y-52000000D01*
X43790000Y-49040000D02*
X47590000Y-49040000D01*
D11*
X101140000Y-69120000D02*
X101140000Y-55320000D01*
X106930000Y-69120000D02*
X101140000Y-69120000D01*
X106930000Y-55320000D02*
X106930000Y-69120000D01*
X101140000Y-55320000D02*
X106930000Y-55320000D01*
X101140000Y-91980000D02*
X101140000Y-78180000D01*
X106940000Y-91980000D02*
X101140000Y-91980000D01*
X106940000Y-78180000D02*
X106940000Y-91980000D01*
X101140000Y-78180000D02*
X106940000Y-78180000D01*
X83360000Y-91980000D02*
X83360000Y-78180000D01*
X89150000Y-91980000D02*
X83360000Y-91980000D01*
X89150000Y-78180000D02*
X89150000Y-91980000D01*
X83360000Y-78180000D02*
X89150000Y-78180000D01*
D10*
X40616000Y-31060000D02*
X70150000Y-31060000D01*
X40616000Y-94600000D02*
X40616000Y-31060000D01*
X110690000Y-94600000D02*
X40616000Y-94600000D01*
X110690000Y-51300000D02*
X110690000Y-94600000D01*
M02*
