%TF.GenerationSoftware,KiCad,Pcbnew,5.1.9+dfsg1-1*%
%TF.CreationDate,2021-08-01T21:30:50+03:00*%
%TF.ProjectId,neogeo_aadc,6e656f67-656f-45f6-9161-64632e6b6963,rev?*%
%TF.SameCoordinates,Original*%
%TF.FileFunction,Copper,L1,Top*%
%TF.FilePolarity,Positive*%
%FSLAX46Y46*%
G04 Gerber Fmt 4.6, Leading zero omitted, Abs format (unit mm)*
G04 Created by KiCad (PCBNEW 5.1.9+dfsg1-1) date 2021-08-01 21:30:50*
%MOMM*%
%LPD*%
G01*
G04 APERTURE LIST*
%TA.AperFunction,SMDPad,CuDef*%
%ADD10R,1.560000X0.650000*%
%TD*%
%TA.AperFunction,SMDPad,CuDef*%
%ADD11R,1.700000X0.400000*%
%TD*%
%TA.AperFunction,SMDPad,CuDef*%
%ADD12R,0.650000X1.560000*%
%TD*%
%TA.AperFunction,SMDPad,CuDef*%
%ADD13R,3.000000X1.500000*%
%TD*%
%TA.AperFunction,SMDPad,CuDef*%
%ADD14R,0.635000X1.143000*%
%TD*%
%TA.AperFunction,SMDPad,CuDef*%
%ADD15R,1.143000X0.635000*%
%TD*%
%TA.AperFunction,ViaPad*%
%ADD16C,0.800000*%
%TD*%
%TA.AperFunction,Conductor*%
%ADD17C,0.500000*%
%TD*%
%TA.AperFunction,Conductor*%
%ADD18C,0.250000*%
%TD*%
%TA.AperFunction,Conductor*%
%ADD19C,0.254000*%
%TD*%
%TA.AperFunction,Conductor*%
%ADD20C,0.100000*%
%TD*%
G04 APERTURE END LIST*
D10*
%TO.P,U3,5*%
%TO.N,VCC*%
X23570000Y-24160000D03*
%TO.P,U3,4*%
%TO.N,Net-(U3-Pad4)*%
X23570000Y-22260000D03*
%TO.P,U3,3*%
%TO.N,/DVDD5*%
X26270000Y-22260000D03*
%TO.P,U3,2*%
%TO.N,GND*%
X26270000Y-23210000D03*
%TO.P,U3,1*%
%TO.N,/DVDD5*%
X26270000Y-24160000D03*
%TD*%
D11*
%TO.P,U2,20*%
%TO.N,Net-(R1-Pad2)*%
X37730000Y-22955000D03*
%TO.P,U2,19*%
%TO.N,Net-(R2-Pad1)*%
X37730000Y-23605000D03*
%TO.P,U2,18*%
%TO.N,Net-(R2-Pad2)*%
X37730000Y-24255000D03*
%TO.P,U2,17*%
%TO.N,Net-(R6-Pad2)*%
X37730000Y-24905000D03*
%TO.P,U2,16*%
%TO.N,Net-(R3-Pad1)*%
X37730000Y-25555000D03*
%TO.P,U2,15*%
%TO.N,Net-(R3-Pad2)*%
X37730000Y-26205000D03*
%TO.P,U2,14*%
%TO.N,GND*%
X37730000Y-26855000D03*
%TO.P,U2,13*%
%TO.N,/DVDD5*%
X37730000Y-27505000D03*
%TO.P,U2,12*%
%TO.N,Net-(C5-Pad1)*%
X37730000Y-28155000D03*
%TO.P,U2,11*%
%TO.N,GND*%
X37730000Y-28805000D03*
%TO.P,U2,10*%
%TO.N,/VMID*%
X31290000Y-28805000D03*
%TO.P,U2,9*%
%TO.N,GND*%
X31290000Y-28155000D03*
%TO.P,U2,8*%
X31290000Y-27505000D03*
%TO.P,U2,7*%
X31290000Y-26855000D03*
%TO.P,U2,6*%
%TO.N,Net-(TP6-Pad1)*%
X31290000Y-26205000D03*
%TO.P,U2,5*%
%TO.N,VCC*%
X31290000Y-25555000D03*
%TO.P,U2,4*%
%TO.N,GND*%
X31290000Y-24905000D03*
%TO.P,U2,3*%
%TO.N,Net-(TP5-Pad1)*%
X31290000Y-24255000D03*
%TO.P,U2,2*%
%TO.N,Net-(TP4-Pad1)*%
X31290000Y-23605000D03*
%TO.P,U2,1*%
%TO.N,Net-(U1-Pad4)*%
X31290000Y-22955000D03*
%TD*%
D12*
%TO.P,U1,5*%
%TO.N,VCC*%
X21330000Y-26110000D03*
%TO.P,U1,4*%
%TO.N,Net-(U1-Pad4)*%
X23230000Y-26110000D03*
%TO.P,U1,3*%
%TO.N,GND*%
X23230000Y-28810000D03*
%TO.P,U1,2*%
%TO.N,Net-(TP3-Pad1)*%
X22280000Y-28810000D03*
%TO.P,U1,1*%
%TO.N,N/C*%
X21330000Y-28810000D03*
%TD*%
D13*
%TO.P,TP9,1*%
%TO.N,Net-(C8-Pad1)*%
X47670000Y-26310000D03*
%TD*%
%TO.P,TP8,1*%
%TO.N,Net-(C7-Pad1)*%
X47700000Y-22330000D03*
%TD*%
%TO.P,TP7,1*%
%TO.N,GND*%
X47690000Y-24310000D03*
%TD*%
%TO.P,TP6,1*%
%TO.N,Net-(TP6-Pad1)*%
X17660000Y-26610000D03*
%TD*%
%TO.P,TP5,1*%
%TO.N,Net-(TP5-Pad1)*%
X17670000Y-24610000D03*
%TD*%
%TO.P,TP4,1*%
%TO.N,Net-(TP4-Pad1)*%
X17680000Y-22600000D03*
%TD*%
%TO.P,TP3,1*%
%TO.N,Net-(TP3-Pad1)*%
X17660000Y-28610000D03*
%TD*%
%TO.P,TP2,1*%
%TO.N,GND*%
X47650000Y-31050000D03*
%TD*%
%TO.P,TP1,1*%
%TO.N,/DVDD5*%
X47650000Y-28640000D03*
%TD*%
D14*
%TO.P,R6,2*%
%TO.N,Net-(R6-Pad2)*%
X32292000Y-30870000D03*
%TO.P,R6,1*%
%TO.N,/VMID*%
X30768000Y-30870000D03*
%TD*%
D15*
%TO.P,R5,2*%
%TO.N,Net-(R3-Pad1)*%
X42320000Y-25608000D03*
%TO.P,R5,1*%
%TO.N,Net-(C8-Pad2)*%
X42320000Y-27132000D03*
%TD*%
%TO.P,R4,2*%
%TO.N,Net-(R2-Pad1)*%
X42310000Y-22668000D03*
%TO.P,R4,1*%
%TO.N,Net-(C7-Pad2)*%
X42310000Y-24192000D03*
%TD*%
%TO.P,R3,2*%
%TO.N,Net-(R3-Pad2)*%
X40560000Y-27132000D03*
%TO.P,R3,1*%
%TO.N,Net-(R3-Pad1)*%
X40560000Y-25608000D03*
%TD*%
%TO.P,R2,2*%
%TO.N,Net-(R2-Pad2)*%
X40540000Y-24212000D03*
%TO.P,R2,1*%
%TO.N,Net-(R2-Pad1)*%
X40540000Y-22688000D03*
%TD*%
%TO.P,R1,2*%
%TO.N,Net-(R1-Pad2)*%
X28510000Y-24608000D03*
%TO.P,R1,1*%
%TO.N,VCC*%
X28510000Y-26132000D03*
%TD*%
%TO.P,C12,2*%
%TO.N,GND*%
X21530000Y-22648000D03*
%TO.P,C12,1*%
%TO.N,VCC*%
X21530000Y-24172000D03*
%TD*%
%TO.P,C11,2*%
%TO.N,GND*%
X28480000Y-23482000D03*
%TO.P,C11,1*%
%TO.N,/DVDD5*%
X28480000Y-21958000D03*
%TD*%
%TO.P,C10,2*%
%TO.N,GND*%
X42410000Y-30772000D03*
%TO.P,C10,1*%
%TO.N,/DVDD5*%
X42410000Y-29248000D03*
%TD*%
%TO.P,C9,2*%
%TO.N,GND*%
X44160000Y-30792000D03*
%TO.P,C9,1*%
%TO.N,/DVDD5*%
X44160000Y-29268000D03*
%TD*%
%TO.P,C8,2*%
%TO.N,Net-(C8-Pad2)*%
X44110000Y-27132000D03*
%TO.P,C8,1*%
%TO.N,Net-(C8-Pad1)*%
X44110000Y-25608000D03*
%TD*%
%TO.P,C7,2*%
%TO.N,Net-(C7-Pad2)*%
X44100000Y-24192000D03*
%TO.P,C7,1*%
%TO.N,Net-(C7-Pad1)*%
X44100000Y-22668000D03*
%TD*%
D14*
%TO.P,C6,2*%
%TO.N,GND*%
X36998000Y-30770000D03*
%TO.P,C6,1*%
%TO.N,Net-(C5-Pad1)*%
X38522000Y-30770000D03*
%TD*%
D15*
%TO.P,C5,2*%
%TO.N,GND*%
X40560000Y-30792000D03*
%TO.P,C5,1*%
%TO.N,Net-(C5-Pad1)*%
X40560000Y-29268000D03*
%TD*%
%TO.P,C4,2*%
%TO.N,GND*%
X28500000Y-28968000D03*
%TO.P,C4,1*%
%TO.N,/VMID*%
X28500000Y-30492000D03*
%TD*%
%TO.P,C3,2*%
%TO.N,GND*%
X26840000Y-27862000D03*
%TO.P,C3,1*%
%TO.N,VCC*%
X26840000Y-26338000D03*
%TD*%
%TO.P,C2,2*%
%TO.N,GND*%
X26850000Y-28978000D03*
%TO.P,C2,1*%
%TO.N,/VMID*%
X26850000Y-30502000D03*
%TD*%
%TO.P,C1,2*%
%TO.N,GND*%
X25190000Y-27872000D03*
%TO.P,C1,1*%
%TO.N,VCC*%
X25190000Y-26348000D03*
%TD*%
D16*
%TO.N,GND*%
X25388902Y-23243577D03*
X22440000Y-23230000D03*
X36050000Y-28890000D03*
X36376066Y-26730675D03*
X33150000Y-28580000D03*
X45480000Y-24760000D03*
X45400000Y-30310000D03*
X35220000Y-31250000D03*
X34090000Y-31270000D03*
X29760000Y-27790000D03*
X24550000Y-29190000D03*
X25620000Y-29180000D03*
X23100000Y-30250000D03*
X21500000Y-30270000D03*
X19920000Y-30240000D03*
X18370000Y-30270000D03*
X36750000Y-22000000D03*
X38610000Y-22020000D03*
X45460000Y-27690000D03*
%TO.N,/DVDD5*%
X29370000Y-22550000D03*
X35060000Y-27020000D03*
%TO.N,Net-(R1-Pad2)*%
X27338088Y-25011315D03*
X33877340Y-24672660D03*
%TO.N,Net-(TP4-Pad1)*%
X31880000Y-21970000D03*
X20220000Y-22010000D03*
%TO.N,Net-(TP5-Pad1)*%
X20020000Y-25300000D03*
X29713744Y-24989989D03*
%TO.N,Net-(TP6-Pad1)*%
X20340000Y-26950000D03*
X29780000Y-26440000D03*
%TO.N,Net-(U1-Pad4)*%
X23870000Y-25770000D03*
X29705651Y-23491989D03*
%TD*%
D17*
%TO.N,GND*%
X26830000Y-27872000D02*
X26840000Y-27862000D01*
X25190000Y-27872000D02*
X26830000Y-27872000D01*
X26840000Y-28968000D02*
X26850000Y-28978000D01*
X26840000Y-27862000D02*
X26840000Y-28968000D01*
X26860000Y-28968000D02*
X26850000Y-28978000D01*
X28500000Y-28968000D02*
X26860000Y-28968000D01*
X42390000Y-30792000D02*
X42410000Y-30772000D01*
X40560000Y-30792000D02*
X42390000Y-30792000D01*
X42430000Y-30792000D02*
X42410000Y-30772000D01*
X44160000Y-30792000D02*
X42430000Y-30792000D01*
X47392000Y-30792000D02*
X47650000Y-31050000D01*
D18*
X29362000Y-28968000D02*
X28500000Y-28968000D01*
X30175000Y-28155000D02*
X29362000Y-28968000D01*
D17*
X28208000Y-23210000D02*
X28480000Y-23482000D01*
X26270000Y-23210000D02*
X28208000Y-23210000D01*
D18*
X25422479Y-23210000D02*
X25388902Y-23243577D01*
X26270000Y-23210000D02*
X25422479Y-23210000D01*
D17*
X36998000Y-30770000D02*
X36998000Y-30272000D01*
X37730000Y-29540000D02*
X37730000Y-28805000D01*
X36998000Y-30272000D02*
X37730000Y-29540000D01*
D18*
X31290000Y-24905000D02*
X32305000Y-24905000D01*
X32305000Y-24905000D02*
X32640000Y-25240000D01*
X32640000Y-26605000D02*
X32390000Y-26855000D01*
X32390000Y-26855000D02*
X31290000Y-26855000D01*
X32640000Y-25240000D02*
X32640000Y-26605000D01*
X31290000Y-27505000D02*
X32455000Y-27505000D01*
X32640000Y-27320000D02*
X32640000Y-26605000D01*
X32455000Y-27505000D02*
X32640000Y-27320000D01*
X31290000Y-28155000D02*
X32385000Y-28155000D01*
X32640000Y-27900000D02*
X32640000Y-27320000D01*
X32385000Y-28155000D02*
X32640000Y-27900000D01*
X21858000Y-22648000D02*
X22440000Y-23230000D01*
X21530000Y-22648000D02*
X21858000Y-22648000D01*
X37645000Y-28890000D02*
X37730000Y-28805000D01*
X36050000Y-28890000D02*
X37645000Y-28890000D01*
X37730000Y-26855000D02*
X36500391Y-26855000D01*
X36500391Y-26855000D02*
X36376066Y-26730675D01*
X32725000Y-28155000D02*
X33150000Y-28580000D01*
X32385000Y-28155000D02*
X32725000Y-28155000D01*
X45930000Y-24310000D02*
X45480000Y-24760000D01*
X47690000Y-24310000D02*
X45930000Y-24310000D01*
X45882000Y-30792000D02*
X45912000Y-30792000D01*
D17*
X45912000Y-30792000D02*
X47392000Y-30792000D01*
D18*
X45400000Y-30310000D02*
X45882000Y-30792000D01*
D17*
X44160000Y-30792000D02*
X45912000Y-30792000D01*
D18*
X35700000Y-30770000D02*
X35220000Y-31250000D01*
X36998000Y-30770000D02*
X35700000Y-30770000D01*
X30125000Y-28155000D02*
X29760000Y-27790000D01*
X30395000Y-28155000D02*
X30125000Y-28155000D01*
X31290000Y-28155000D02*
X30395000Y-28155000D01*
X30395000Y-28155000D02*
X30175000Y-28155000D01*
X24170000Y-28810000D02*
X24550000Y-29190000D01*
X23230000Y-28810000D02*
X24170000Y-28810000D01*
X23300000Y-30050000D02*
X23100000Y-30250000D01*
X19950000Y-30270000D02*
X19920000Y-30240000D01*
X21500000Y-30270000D02*
X19950000Y-30270000D01*
X38590000Y-22000000D02*
X38610000Y-22020000D01*
X36750000Y-22000000D02*
X38590000Y-22000000D01*
X23100000Y-28940000D02*
X23230000Y-28810000D01*
X23100000Y-30250000D02*
X23100000Y-28940000D01*
D17*
%TO.N,VCC*%
X21330000Y-24372000D02*
X21530000Y-24172000D01*
X21330000Y-26110000D02*
X21330000Y-24372000D01*
X23558000Y-24172000D02*
X23570000Y-24160000D01*
X21530000Y-24172000D02*
X23558000Y-24172000D01*
X23570000Y-24160000D02*
X23640000Y-24160000D01*
X25190000Y-25710000D02*
X25190000Y-26348000D01*
X23640000Y-24160000D02*
X25190000Y-25710000D01*
X26830000Y-26348000D02*
X26840000Y-26338000D01*
X25190000Y-26348000D02*
X26830000Y-26348000D01*
X28304000Y-26338000D02*
X28510000Y-26132000D01*
X26840000Y-26338000D02*
X28304000Y-26338000D01*
D18*
X30190000Y-25555000D02*
X30030001Y-25714999D01*
X31290000Y-25555000D02*
X30190000Y-25555000D01*
X28927001Y-25714999D02*
X28510000Y-26132000D01*
X30030001Y-25714999D02*
X28927001Y-25714999D01*
D17*
%TO.N,/VMID*%
X28490000Y-30502000D02*
X28500000Y-30492000D01*
X26850000Y-30502000D02*
X28490000Y-30502000D01*
X28878000Y-30870000D02*
X28500000Y-30492000D01*
X30768000Y-30870000D02*
X28878000Y-30870000D01*
X30768000Y-29327000D02*
X31290000Y-28805000D01*
X30768000Y-30870000D02*
X30768000Y-29327000D01*
%TO.N,Net-(C5-Pad1)*%
X40560000Y-29268000D02*
X39652000Y-29268000D01*
X38522000Y-30398000D02*
X38522000Y-30770000D01*
X39652000Y-29268000D02*
X38522000Y-30398000D01*
D18*
X40298000Y-29268000D02*
X40560000Y-29268000D01*
X39185000Y-28155000D02*
X40298000Y-29268000D01*
X37730000Y-28155000D02*
X39185000Y-28155000D01*
D17*
%TO.N,Net-(C7-Pad2)*%
X42310000Y-24192000D02*
X44100000Y-24192000D01*
%TO.N,Net-(C7-Pad1)*%
X47362000Y-22668000D02*
X47700000Y-22330000D01*
X44100000Y-22668000D02*
X47362000Y-22668000D01*
%TO.N,Net-(C8-Pad2)*%
X44110000Y-27132000D02*
X42320000Y-27132000D01*
%TO.N,Net-(C8-Pad1)*%
X47670000Y-26310000D02*
X45810000Y-26310000D01*
X45108000Y-25608000D02*
X44110000Y-25608000D01*
X45810000Y-26310000D02*
X45108000Y-25608000D01*
%TO.N,/DVDD5*%
X44140000Y-29248000D02*
X44160000Y-29268000D01*
X42410000Y-29248000D02*
X44140000Y-29248000D01*
X47650000Y-28640000D02*
X45840000Y-28640000D01*
X45212000Y-29268000D02*
X44160000Y-29268000D01*
X45840000Y-28640000D02*
X45212000Y-29268000D01*
D18*
X26270000Y-24160000D02*
X25510000Y-24160000D01*
D17*
X26270000Y-22260000D02*
X27370000Y-22260000D01*
X27672000Y-21958000D02*
X28480000Y-21958000D01*
X27370000Y-22260000D02*
X27672000Y-21958000D01*
D18*
X28778000Y-21958000D02*
X29370000Y-22550000D01*
X28480000Y-21958000D02*
X28778000Y-21958000D01*
X25299477Y-22260000D02*
X26270000Y-22260000D01*
X24663901Y-22895576D02*
X25299477Y-22260000D01*
X24663901Y-23591578D02*
X24663901Y-22895576D01*
X25232323Y-24160000D02*
X24663901Y-23591578D01*
X26270000Y-24160000D02*
X25232323Y-24160000D01*
X41300000Y-28330000D02*
X42218000Y-29248000D01*
X40320000Y-28330000D02*
X41300000Y-28330000D01*
X39495000Y-27505000D02*
X40320000Y-28330000D01*
X42218000Y-29248000D02*
X42410000Y-29248000D01*
X37730000Y-27505000D02*
X39495000Y-27505000D01*
X37730000Y-27505000D02*
X35545000Y-27505000D01*
X35545000Y-27505000D02*
X35060000Y-27020000D01*
%TO.N,Net-(R1-Pad2)*%
X27741403Y-24608000D02*
X27338088Y-25011315D01*
X28510000Y-24608000D02*
X27741403Y-24608000D01*
X35595000Y-22955000D02*
X33877340Y-24672660D01*
X37730000Y-22955000D02*
X35595000Y-22955000D01*
%TO.N,Net-(R2-Pad2)*%
X40497000Y-24255000D02*
X40540000Y-24212000D01*
X37730000Y-24255000D02*
X40497000Y-24255000D01*
D17*
%TO.N,Net-(R2-Pad1)*%
X42290000Y-22688000D02*
X42310000Y-22668000D01*
X40540000Y-22688000D02*
X42290000Y-22688000D01*
D18*
X37730000Y-23605000D02*
X39015000Y-23605000D01*
X39932000Y-22688000D02*
X40540000Y-22688000D01*
X39015000Y-23605000D02*
X39932000Y-22688000D01*
%TO.N,Net-(R3-Pad2)*%
X37730000Y-26205000D02*
X39065000Y-26205000D01*
X39992000Y-27132000D02*
X40560000Y-27132000D01*
X39065000Y-26205000D02*
X39992000Y-27132000D01*
D17*
%TO.N,Net-(R3-Pad1)*%
X42320000Y-25608000D02*
X40560000Y-25608000D01*
D18*
X40507000Y-25555000D02*
X40560000Y-25608000D01*
X37730000Y-25555000D02*
X40507000Y-25555000D01*
%TO.N,Net-(R6-Pad2)*%
X35915000Y-24905000D02*
X37730000Y-24905000D01*
X34140000Y-26680000D02*
X35915000Y-24905000D01*
X34140000Y-29022000D02*
X34140000Y-26680000D01*
X32292000Y-30870000D02*
X34140000Y-29022000D01*
%TO.N,Net-(TP3-Pad1)*%
X17660000Y-28610000D02*
X19860000Y-28610000D01*
X19860000Y-28610000D02*
X20820000Y-27650000D01*
X20820000Y-27650000D02*
X21840000Y-27650000D01*
X22280000Y-28090000D02*
X22280000Y-28810000D01*
X21840000Y-27650000D02*
X22280000Y-28090000D01*
%TO.N,Net-(TP4-Pad1)*%
X32390000Y-23605000D02*
X32640000Y-23355000D01*
X31290000Y-23605000D02*
X32390000Y-23605000D01*
X32640000Y-22730000D02*
X31880000Y-21970000D01*
X32640000Y-23355000D02*
X32640000Y-22730000D01*
X19630000Y-22600000D02*
X17680000Y-22600000D01*
X20220000Y-22010000D02*
X19630000Y-22600000D01*
%TO.N,Net-(TP5-Pad1)*%
X20020000Y-25300000D02*
X19380000Y-24660000D01*
X17720000Y-24660000D02*
X17670000Y-24610000D01*
X19380000Y-24660000D02*
X17720000Y-24660000D01*
X29713744Y-24731256D02*
X29713744Y-24989989D01*
X30190000Y-24255000D02*
X29713744Y-24731256D01*
X31290000Y-24255000D02*
X30190000Y-24255000D01*
%TO.N,Net-(TP6-Pad1)*%
X20000000Y-26610000D02*
X20340000Y-26950000D01*
X17660000Y-26610000D02*
X20000000Y-26610000D01*
X30015000Y-26205000D02*
X31290000Y-26205000D01*
X29780000Y-26440000D02*
X30015000Y-26205000D01*
%TO.N,Net-(U1-Pad4)*%
X23570000Y-25770000D02*
X23230000Y-26110000D01*
X23870000Y-25770000D02*
X23570000Y-25770000D01*
X30304998Y-22955000D02*
X31290000Y-22955000D01*
X29768009Y-23491989D02*
X30304998Y-22955000D01*
X29705651Y-23491989D02*
X29768009Y-23491989D01*
%TD*%
D19*
%TO.N,GND*%
X45524188Y-30175518D02*
X45511928Y-30300000D01*
X45515000Y-30764250D01*
X45673750Y-30923000D01*
X47523000Y-30923000D01*
X47523000Y-30903000D01*
X47777000Y-30903000D01*
X47777000Y-30923000D01*
X47797000Y-30923000D01*
X47797000Y-31177000D01*
X47777000Y-31177000D01*
X47777000Y-31197000D01*
X47523000Y-31197000D01*
X47523000Y-31177000D01*
X45673750Y-31177000D01*
X45515000Y-31335750D01*
X45514343Y-31435000D01*
X45277535Y-31435000D01*
X45321002Y-31353680D01*
X45357312Y-31233982D01*
X45369572Y-31109500D01*
X45366500Y-31077750D01*
X45207750Y-30919000D01*
X44287000Y-30919000D01*
X44287000Y-30939000D01*
X44033000Y-30939000D01*
X44033000Y-30919000D01*
X43477750Y-30919000D01*
X43457750Y-30899000D01*
X42537000Y-30899000D01*
X42537000Y-30919000D01*
X42283000Y-30919000D01*
X42283000Y-30899000D01*
X41362250Y-30899000D01*
X41342250Y-30919000D01*
X40687000Y-30919000D01*
X40687000Y-30939000D01*
X40433000Y-30939000D01*
X40433000Y-30919000D01*
X40413000Y-30919000D01*
X40413000Y-30665000D01*
X40433000Y-30665000D01*
X40433000Y-30645000D01*
X40687000Y-30645000D01*
X40687000Y-30665000D01*
X41607750Y-30665000D01*
X41627750Y-30645000D01*
X42283000Y-30645000D01*
X42283000Y-30625000D01*
X42537000Y-30625000D01*
X42537000Y-30645000D01*
X43092250Y-30645000D01*
X43112250Y-30665000D01*
X44033000Y-30665000D01*
X44033000Y-30645000D01*
X44287000Y-30645000D01*
X44287000Y-30665000D01*
X45207750Y-30665000D01*
X45366500Y-30506250D01*
X45369572Y-30474500D01*
X45357312Y-30350018D01*
X45321002Y-30230320D01*
X45278463Y-30150736D01*
X45385490Y-30140195D01*
X45550046Y-30090277D01*
X45524188Y-30175518D01*
%TA.AperFunction,Conductor*%
D20*
G36*
X45524188Y-30175518D02*
G01*
X45511928Y-30300000D01*
X45515000Y-30764250D01*
X45673750Y-30923000D01*
X47523000Y-30923000D01*
X47523000Y-30903000D01*
X47777000Y-30903000D01*
X47777000Y-30923000D01*
X47797000Y-30923000D01*
X47797000Y-31177000D01*
X47777000Y-31177000D01*
X47777000Y-31197000D01*
X47523000Y-31197000D01*
X47523000Y-31177000D01*
X45673750Y-31177000D01*
X45515000Y-31335750D01*
X45514343Y-31435000D01*
X45277535Y-31435000D01*
X45321002Y-31353680D01*
X45357312Y-31233982D01*
X45369572Y-31109500D01*
X45366500Y-31077750D01*
X45207750Y-30919000D01*
X44287000Y-30919000D01*
X44287000Y-30939000D01*
X44033000Y-30939000D01*
X44033000Y-30919000D01*
X43477750Y-30919000D01*
X43457750Y-30899000D01*
X42537000Y-30899000D01*
X42537000Y-30919000D01*
X42283000Y-30919000D01*
X42283000Y-30899000D01*
X41362250Y-30899000D01*
X41342250Y-30919000D01*
X40687000Y-30919000D01*
X40687000Y-30939000D01*
X40433000Y-30939000D01*
X40433000Y-30919000D01*
X40413000Y-30919000D01*
X40413000Y-30665000D01*
X40433000Y-30665000D01*
X40433000Y-30645000D01*
X40687000Y-30645000D01*
X40687000Y-30665000D01*
X41607750Y-30665000D01*
X41627750Y-30645000D01*
X42283000Y-30645000D01*
X42283000Y-30625000D01*
X42537000Y-30625000D01*
X42537000Y-30645000D01*
X43092250Y-30645000D01*
X43112250Y-30665000D01*
X44033000Y-30665000D01*
X44033000Y-30645000D01*
X44287000Y-30645000D01*
X44287000Y-30665000D01*
X45207750Y-30665000D01*
X45366500Y-30506250D01*
X45369572Y-30474500D01*
X45357312Y-30350018D01*
X45321002Y-30230320D01*
X45278463Y-30150736D01*
X45385490Y-30140195D01*
X45550046Y-30090277D01*
X45524188Y-30175518D01*
G37*
%TD.AperFunction*%
D19*
X34958061Y-28055000D02*
X35017183Y-28055000D01*
X35070795Y-28098998D01*
X35120724Y-28139974D01*
X35252753Y-28210546D01*
X35396014Y-28254003D01*
X35545000Y-28268677D01*
X35582333Y-28265000D01*
X36241928Y-28265000D01*
X36241928Y-28355000D01*
X36254188Y-28479482D01*
X36254885Y-28481778D01*
X36245000Y-28573250D01*
X36312968Y-28641218D01*
X36349463Y-28709494D01*
X36428815Y-28806185D01*
X36516322Y-28878000D01*
X36403750Y-28878000D01*
X36245000Y-29036750D01*
X36255939Y-29137979D01*
X36293873Y-29257172D01*
X36354331Y-29366674D01*
X36434991Y-29462278D01*
X36532752Y-29540308D01*
X36589069Y-29569433D01*
X36556018Y-29572688D01*
X36436320Y-29608998D01*
X36326006Y-29667963D01*
X36229315Y-29747315D01*
X36149963Y-29844006D01*
X36090998Y-29954320D01*
X36054688Y-30074018D01*
X36042428Y-30198500D01*
X36045500Y-30484250D01*
X36204250Y-30643000D01*
X36871000Y-30643000D01*
X36871000Y-30623000D01*
X37125000Y-30623000D01*
X37125000Y-30643000D01*
X37145000Y-30643000D01*
X37145000Y-30897000D01*
X37125000Y-30897000D01*
X37125000Y-30917000D01*
X36871000Y-30917000D01*
X36871000Y-30897000D01*
X36204250Y-30897000D01*
X36045500Y-31055750D01*
X36042428Y-31341500D01*
X36051637Y-31435000D01*
X33247572Y-31435000D01*
X33247572Y-30989229D01*
X34651004Y-29585798D01*
X34680001Y-29562001D01*
X34774974Y-29446276D01*
X34845546Y-29314247D01*
X34889003Y-29170986D01*
X34900000Y-29059333D01*
X34900000Y-29059325D01*
X34903676Y-29022000D01*
X34900000Y-28984675D01*
X34900000Y-28043451D01*
X34958061Y-28055000D01*
%TA.AperFunction,Conductor*%
D20*
G36*
X34958061Y-28055000D02*
G01*
X35017183Y-28055000D01*
X35070795Y-28098998D01*
X35120724Y-28139974D01*
X35252753Y-28210546D01*
X35396014Y-28254003D01*
X35545000Y-28268677D01*
X35582333Y-28265000D01*
X36241928Y-28265000D01*
X36241928Y-28355000D01*
X36254188Y-28479482D01*
X36254885Y-28481778D01*
X36245000Y-28573250D01*
X36312968Y-28641218D01*
X36349463Y-28709494D01*
X36428815Y-28806185D01*
X36516322Y-28878000D01*
X36403750Y-28878000D01*
X36245000Y-29036750D01*
X36255939Y-29137979D01*
X36293873Y-29257172D01*
X36354331Y-29366674D01*
X36434991Y-29462278D01*
X36532752Y-29540308D01*
X36589069Y-29569433D01*
X36556018Y-29572688D01*
X36436320Y-29608998D01*
X36326006Y-29667963D01*
X36229315Y-29747315D01*
X36149963Y-29844006D01*
X36090998Y-29954320D01*
X36054688Y-30074018D01*
X36042428Y-30198500D01*
X36045500Y-30484250D01*
X36204250Y-30643000D01*
X36871000Y-30643000D01*
X36871000Y-30623000D01*
X37125000Y-30623000D01*
X37125000Y-30643000D01*
X37145000Y-30643000D01*
X37145000Y-30897000D01*
X37125000Y-30897000D01*
X37125000Y-30917000D01*
X36871000Y-30917000D01*
X36871000Y-30897000D01*
X36204250Y-30897000D01*
X36045500Y-31055750D01*
X36042428Y-31341500D01*
X36051637Y-31435000D01*
X33247572Y-31435000D01*
X33247572Y-30989229D01*
X34651004Y-29585798D01*
X34680001Y-29562001D01*
X34774974Y-29446276D01*
X34845546Y-29314247D01*
X34889003Y-29170986D01*
X34900000Y-29059333D01*
X34900000Y-29059325D01*
X34903676Y-29022000D01*
X34900000Y-28984675D01*
X34900000Y-28043451D01*
X34958061Y-28055000D01*
G37*
%TD.AperFunction*%
D19*
X28976063Y-27099774D02*
X29120226Y-27243937D01*
X29289744Y-27357205D01*
X29478102Y-27435226D01*
X29678061Y-27475000D01*
X29881939Y-27475000D01*
X29951814Y-27461101D01*
X29988851Y-27505000D01*
X29914331Y-27593326D01*
X29872304Y-27669446D01*
X29805000Y-27736750D01*
X29815077Y-27830000D01*
X29805000Y-27923250D01*
X29872304Y-27990554D01*
X29914331Y-28066674D01*
X29988340Y-28154394D01*
X29909463Y-28250506D01*
X29872968Y-28318782D01*
X29805000Y-28386750D01*
X29814885Y-28478222D01*
X29814188Y-28480518D01*
X29801928Y-28605000D01*
X29801928Y-29005000D01*
X29814188Y-29129482D01*
X29850498Y-29249180D01*
X29880800Y-29305870D01*
X29878719Y-29327000D01*
X29883001Y-29370479D01*
X29883001Y-29985000D01*
X29677589Y-29985000D01*
X29661002Y-29930320D01*
X29602037Y-29820006D01*
X29528171Y-29730000D01*
X29602037Y-29639994D01*
X29661002Y-29529680D01*
X29697312Y-29409982D01*
X29709572Y-29285500D01*
X29706500Y-29253750D01*
X29547750Y-29095000D01*
X28627000Y-29095000D01*
X28627000Y-29115000D01*
X28373000Y-29115000D01*
X28373000Y-29095000D01*
X27452250Y-29095000D01*
X27442250Y-29105000D01*
X26977000Y-29105000D01*
X26977000Y-29125000D01*
X26723000Y-29125000D01*
X26723000Y-29105000D01*
X25802250Y-29105000D01*
X25643500Y-29263750D01*
X25640428Y-29295500D01*
X25652688Y-29419982D01*
X25688998Y-29539680D01*
X25747963Y-29649994D01*
X25821829Y-29740000D01*
X25747963Y-29830006D01*
X25688998Y-29940320D01*
X25652688Y-30060018D01*
X25640428Y-30184500D01*
X25640428Y-30819500D01*
X25652688Y-30943982D01*
X25688998Y-31063680D01*
X25747963Y-31173994D01*
X25827315Y-31270685D01*
X25924006Y-31350037D01*
X26034320Y-31409002D01*
X26120024Y-31435000D01*
X16655000Y-31435000D01*
X16655000Y-29998072D01*
X19160000Y-29998072D01*
X19284482Y-29985812D01*
X19404180Y-29949502D01*
X19514494Y-29890537D01*
X19611185Y-29811185D01*
X19690537Y-29714494D01*
X19749502Y-29604180D01*
X19785812Y-29484482D01*
X19797087Y-29370000D01*
X19822678Y-29370000D01*
X19860000Y-29373676D01*
X19897322Y-29370000D01*
X19897333Y-29370000D01*
X20008986Y-29359003D01*
X20152247Y-29315546D01*
X20284276Y-29244974D01*
X20366928Y-29177143D01*
X20366928Y-29590000D01*
X20379188Y-29714482D01*
X20415498Y-29834180D01*
X20474463Y-29944494D01*
X20553815Y-30041185D01*
X20650506Y-30120537D01*
X20760820Y-30179502D01*
X20880518Y-30215812D01*
X21005000Y-30228072D01*
X21655000Y-30228072D01*
X21779482Y-30215812D01*
X21805000Y-30208071D01*
X21830518Y-30215812D01*
X21955000Y-30228072D01*
X22605000Y-30228072D01*
X22729482Y-30215812D01*
X22755000Y-30208071D01*
X22780518Y-30215812D01*
X22905000Y-30228072D01*
X22944250Y-30225000D01*
X23103000Y-30066250D01*
X23103000Y-29984141D01*
X23135537Y-29944494D01*
X23194502Y-29834180D01*
X23230812Y-29714482D01*
X23243072Y-29590000D01*
X23243072Y-28937000D01*
X23357000Y-28937000D01*
X23357000Y-30066250D01*
X23515750Y-30225000D01*
X23555000Y-30228072D01*
X23679482Y-30215812D01*
X23799180Y-30179502D01*
X23909494Y-30120537D01*
X24006185Y-30041185D01*
X24085537Y-29944494D01*
X24144502Y-29834180D01*
X24180812Y-29714482D01*
X24193072Y-29590000D01*
X24190000Y-29095750D01*
X24031250Y-28937000D01*
X23357000Y-28937000D01*
X23243072Y-28937000D01*
X23243072Y-28663000D01*
X23357000Y-28663000D01*
X23357000Y-28683000D01*
X24031250Y-28683000D01*
X24125057Y-28589193D01*
X24167315Y-28640685D01*
X24264006Y-28720037D01*
X24374320Y-28779002D01*
X24494018Y-28815312D01*
X24618500Y-28827572D01*
X24904250Y-28824500D01*
X25063000Y-28665750D01*
X25063000Y-27999000D01*
X25317000Y-27999000D01*
X25317000Y-28665750D01*
X25475750Y-28824500D01*
X25761500Y-28827572D01*
X25777269Y-28826019D01*
X25802250Y-28851000D01*
X26723000Y-28851000D01*
X26723000Y-28184250D01*
X26713000Y-28174250D01*
X26713000Y-27989000D01*
X26967000Y-27989000D01*
X26967000Y-28655750D01*
X26977000Y-28665750D01*
X26977000Y-28851000D01*
X27897750Y-28851000D01*
X27907750Y-28841000D01*
X28373000Y-28841000D01*
X28373000Y-28174250D01*
X28627000Y-28174250D01*
X28627000Y-28841000D01*
X29547750Y-28841000D01*
X29706500Y-28682250D01*
X29709572Y-28650500D01*
X29697312Y-28526018D01*
X29661002Y-28406320D01*
X29602037Y-28296006D01*
X29522685Y-28199315D01*
X29425994Y-28119963D01*
X29315680Y-28060998D01*
X29195982Y-28024688D01*
X29071500Y-28012428D01*
X28785750Y-28015500D01*
X28627000Y-28174250D01*
X28373000Y-28174250D01*
X28214250Y-28015500D01*
X27928500Y-28012428D01*
X27912731Y-28013981D01*
X27887750Y-27989000D01*
X26967000Y-27989000D01*
X26713000Y-27989000D01*
X25792250Y-27989000D01*
X25782250Y-27999000D01*
X25317000Y-27999000D01*
X25063000Y-27999000D01*
X25043000Y-27999000D01*
X25043000Y-27745000D01*
X25063000Y-27745000D01*
X25063000Y-27725000D01*
X25317000Y-27725000D01*
X25317000Y-27745000D01*
X26237750Y-27745000D01*
X26247750Y-27735000D01*
X26713000Y-27735000D01*
X26713000Y-27715000D01*
X26967000Y-27715000D01*
X26967000Y-27735000D01*
X27887750Y-27735000D01*
X28046500Y-27576250D01*
X28049572Y-27544500D01*
X28037312Y-27420018D01*
X28001002Y-27300320D01*
X27959673Y-27223000D01*
X28260531Y-27223000D01*
X28304000Y-27227281D01*
X28347469Y-27223000D01*
X28347477Y-27223000D01*
X28477490Y-27210195D01*
X28644313Y-27159589D01*
X28779049Y-27087572D01*
X28967910Y-27087572D01*
X28976063Y-27099774D01*
%TA.AperFunction,Conductor*%
D20*
G36*
X28976063Y-27099774D02*
G01*
X29120226Y-27243937D01*
X29289744Y-27357205D01*
X29478102Y-27435226D01*
X29678061Y-27475000D01*
X29881939Y-27475000D01*
X29951814Y-27461101D01*
X29988851Y-27505000D01*
X29914331Y-27593326D01*
X29872304Y-27669446D01*
X29805000Y-27736750D01*
X29815077Y-27830000D01*
X29805000Y-27923250D01*
X29872304Y-27990554D01*
X29914331Y-28066674D01*
X29988340Y-28154394D01*
X29909463Y-28250506D01*
X29872968Y-28318782D01*
X29805000Y-28386750D01*
X29814885Y-28478222D01*
X29814188Y-28480518D01*
X29801928Y-28605000D01*
X29801928Y-29005000D01*
X29814188Y-29129482D01*
X29850498Y-29249180D01*
X29880800Y-29305870D01*
X29878719Y-29327000D01*
X29883001Y-29370479D01*
X29883001Y-29985000D01*
X29677589Y-29985000D01*
X29661002Y-29930320D01*
X29602037Y-29820006D01*
X29528171Y-29730000D01*
X29602037Y-29639994D01*
X29661002Y-29529680D01*
X29697312Y-29409982D01*
X29709572Y-29285500D01*
X29706500Y-29253750D01*
X29547750Y-29095000D01*
X28627000Y-29095000D01*
X28627000Y-29115000D01*
X28373000Y-29115000D01*
X28373000Y-29095000D01*
X27452250Y-29095000D01*
X27442250Y-29105000D01*
X26977000Y-29105000D01*
X26977000Y-29125000D01*
X26723000Y-29125000D01*
X26723000Y-29105000D01*
X25802250Y-29105000D01*
X25643500Y-29263750D01*
X25640428Y-29295500D01*
X25652688Y-29419982D01*
X25688998Y-29539680D01*
X25747963Y-29649994D01*
X25821829Y-29740000D01*
X25747963Y-29830006D01*
X25688998Y-29940320D01*
X25652688Y-30060018D01*
X25640428Y-30184500D01*
X25640428Y-30819500D01*
X25652688Y-30943982D01*
X25688998Y-31063680D01*
X25747963Y-31173994D01*
X25827315Y-31270685D01*
X25924006Y-31350037D01*
X26034320Y-31409002D01*
X26120024Y-31435000D01*
X16655000Y-31435000D01*
X16655000Y-29998072D01*
X19160000Y-29998072D01*
X19284482Y-29985812D01*
X19404180Y-29949502D01*
X19514494Y-29890537D01*
X19611185Y-29811185D01*
X19690537Y-29714494D01*
X19749502Y-29604180D01*
X19785812Y-29484482D01*
X19797087Y-29370000D01*
X19822678Y-29370000D01*
X19860000Y-29373676D01*
X19897322Y-29370000D01*
X19897333Y-29370000D01*
X20008986Y-29359003D01*
X20152247Y-29315546D01*
X20284276Y-29244974D01*
X20366928Y-29177143D01*
X20366928Y-29590000D01*
X20379188Y-29714482D01*
X20415498Y-29834180D01*
X20474463Y-29944494D01*
X20553815Y-30041185D01*
X20650506Y-30120537D01*
X20760820Y-30179502D01*
X20880518Y-30215812D01*
X21005000Y-30228072D01*
X21655000Y-30228072D01*
X21779482Y-30215812D01*
X21805000Y-30208071D01*
X21830518Y-30215812D01*
X21955000Y-30228072D01*
X22605000Y-30228072D01*
X22729482Y-30215812D01*
X22755000Y-30208071D01*
X22780518Y-30215812D01*
X22905000Y-30228072D01*
X22944250Y-30225000D01*
X23103000Y-30066250D01*
X23103000Y-29984141D01*
X23135537Y-29944494D01*
X23194502Y-29834180D01*
X23230812Y-29714482D01*
X23243072Y-29590000D01*
X23243072Y-28937000D01*
X23357000Y-28937000D01*
X23357000Y-30066250D01*
X23515750Y-30225000D01*
X23555000Y-30228072D01*
X23679482Y-30215812D01*
X23799180Y-30179502D01*
X23909494Y-30120537D01*
X24006185Y-30041185D01*
X24085537Y-29944494D01*
X24144502Y-29834180D01*
X24180812Y-29714482D01*
X24193072Y-29590000D01*
X24190000Y-29095750D01*
X24031250Y-28937000D01*
X23357000Y-28937000D01*
X23243072Y-28937000D01*
X23243072Y-28663000D01*
X23357000Y-28663000D01*
X23357000Y-28683000D01*
X24031250Y-28683000D01*
X24125057Y-28589193D01*
X24167315Y-28640685D01*
X24264006Y-28720037D01*
X24374320Y-28779002D01*
X24494018Y-28815312D01*
X24618500Y-28827572D01*
X24904250Y-28824500D01*
X25063000Y-28665750D01*
X25063000Y-27999000D01*
X25317000Y-27999000D01*
X25317000Y-28665750D01*
X25475750Y-28824500D01*
X25761500Y-28827572D01*
X25777269Y-28826019D01*
X25802250Y-28851000D01*
X26723000Y-28851000D01*
X26723000Y-28184250D01*
X26713000Y-28174250D01*
X26713000Y-27989000D01*
X26967000Y-27989000D01*
X26967000Y-28655750D01*
X26977000Y-28665750D01*
X26977000Y-28851000D01*
X27897750Y-28851000D01*
X27907750Y-28841000D01*
X28373000Y-28841000D01*
X28373000Y-28174250D01*
X28627000Y-28174250D01*
X28627000Y-28841000D01*
X29547750Y-28841000D01*
X29706500Y-28682250D01*
X29709572Y-28650500D01*
X29697312Y-28526018D01*
X29661002Y-28406320D01*
X29602037Y-28296006D01*
X29522685Y-28199315D01*
X29425994Y-28119963D01*
X29315680Y-28060998D01*
X29195982Y-28024688D01*
X29071500Y-28012428D01*
X28785750Y-28015500D01*
X28627000Y-28174250D01*
X28373000Y-28174250D01*
X28214250Y-28015500D01*
X27928500Y-28012428D01*
X27912731Y-28013981D01*
X27887750Y-27989000D01*
X26967000Y-27989000D01*
X26713000Y-27989000D01*
X25792250Y-27989000D01*
X25782250Y-27999000D01*
X25317000Y-27999000D01*
X25063000Y-27999000D01*
X25043000Y-27999000D01*
X25043000Y-27745000D01*
X25063000Y-27745000D01*
X25063000Y-27725000D01*
X25317000Y-27725000D01*
X25317000Y-27745000D01*
X26237750Y-27745000D01*
X26247750Y-27735000D01*
X26713000Y-27735000D01*
X26713000Y-27715000D01*
X26967000Y-27715000D01*
X26967000Y-27735000D01*
X27887750Y-27735000D01*
X28046500Y-27576250D01*
X28049572Y-27544500D01*
X28037312Y-27420018D01*
X28001002Y-27300320D01*
X27959673Y-27223000D01*
X28260531Y-27223000D01*
X28304000Y-27227281D01*
X28347469Y-27223000D01*
X28347477Y-27223000D01*
X28477490Y-27210195D01*
X28644313Y-27159589D01*
X28779049Y-27087572D01*
X28967910Y-27087572D01*
X28976063Y-27099774D01*
G37*
%TD.AperFunction*%
D19*
X39517315Y-21919315D02*
X39437963Y-22016006D01*
X39378998Y-22126320D01*
X39361633Y-22183565D01*
X39122434Y-22422764D01*
X39110537Y-22400506D01*
X39031185Y-22303815D01*
X38934494Y-22224463D01*
X38824180Y-22165498D01*
X38704482Y-22129188D01*
X38580000Y-22116928D01*
X36880000Y-22116928D01*
X36755518Y-22129188D01*
X36635820Y-22165498D01*
X36580627Y-22195000D01*
X35632322Y-22195000D01*
X35594999Y-22191324D01*
X35557676Y-22195000D01*
X35557667Y-22195000D01*
X35446014Y-22205997D01*
X35314080Y-22246018D01*
X35302753Y-22249454D01*
X35170723Y-22320026D01*
X35109221Y-22370500D01*
X35054999Y-22414999D01*
X35031201Y-22443997D01*
X33837539Y-23637660D01*
X33775401Y-23637660D01*
X33575442Y-23677434D01*
X33387084Y-23755455D01*
X33217566Y-23868723D01*
X33073403Y-24012886D01*
X32960135Y-24182404D01*
X32882114Y-24370762D01*
X32842340Y-24570721D01*
X32842340Y-24774599D01*
X32882114Y-24974558D01*
X32960135Y-25162916D01*
X33073403Y-25332434D01*
X33217566Y-25476597D01*
X33387084Y-25589865D01*
X33575442Y-25667886D01*
X33775401Y-25707660D01*
X33979279Y-25707660D01*
X34052005Y-25693194D01*
X33628998Y-26116201D01*
X33600000Y-26139999D01*
X33576202Y-26168997D01*
X33576201Y-26168998D01*
X33505026Y-26255724D01*
X33434454Y-26387754D01*
X33405414Y-26483490D01*
X33390998Y-26531014D01*
X33380001Y-26642667D01*
X33376324Y-26680000D01*
X33380001Y-26717332D01*
X33380000Y-28707198D01*
X32426771Y-29660428D01*
X31974500Y-29660428D01*
X31850018Y-29672688D01*
X31730320Y-29708998D01*
X31653000Y-29750327D01*
X31653000Y-29693578D01*
X31703506Y-29643072D01*
X32140000Y-29643072D01*
X32264482Y-29630812D01*
X32384180Y-29594502D01*
X32494494Y-29535537D01*
X32591185Y-29456185D01*
X32670537Y-29359494D01*
X32729502Y-29249180D01*
X32765812Y-29129482D01*
X32778072Y-29005000D01*
X32778072Y-28605000D01*
X32765812Y-28480518D01*
X32765115Y-28478222D01*
X32775000Y-28386750D01*
X32707032Y-28318782D01*
X32670537Y-28250506D01*
X32591660Y-28154394D01*
X32665669Y-28066674D01*
X32707696Y-27990554D01*
X32775000Y-27923250D01*
X32764923Y-27830000D01*
X32775000Y-27736750D01*
X32707696Y-27669446D01*
X32665669Y-27593326D01*
X32591149Y-27505000D01*
X32665669Y-27416674D01*
X32707696Y-27340554D01*
X32775000Y-27273250D01*
X32764923Y-27180000D01*
X32775000Y-27086750D01*
X32707696Y-27019446D01*
X32665669Y-26943326D01*
X32591660Y-26855606D01*
X32670537Y-26759494D01*
X32707032Y-26691218D01*
X32775000Y-26623250D01*
X32765115Y-26531778D01*
X32765812Y-26529482D01*
X32778072Y-26405000D01*
X32778072Y-26005000D01*
X32765812Y-25880518D01*
X32765655Y-25880000D01*
X32765812Y-25879482D01*
X32778072Y-25755000D01*
X32778072Y-25355000D01*
X32765812Y-25230518D01*
X32765115Y-25228222D01*
X32775000Y-25136750D01*
X32707032Y-25068782D01*
X32670537Y-25000506D01*
X32592158Y-24905000D01*
X32670537Y-24809494D01*
X32707032Y-24741218D01*
X32775000Y-24673250D01*
X32765115Y-24581778D01*
X32765812Y-24579482D01*
X32778072Y-24455000D01*
X32778072Y-24259326D01*
X32814276Y-24239974D01*
X32930001Y-24145001D01*
X32953803Y-24115998D01*
X33151003Y-23918799D01*
X33180001Y-23895001D01*
X33274974Y-23779276D01*
X33345546Y-23647247D01*
X33389003Y-23503986D01*
X33400000Y-23392333D01*
X33400000Y-23392324D01*
X33403676Y-23355001D01*
X33400000Y-23317678D01*
X33400000Y-22767322D01*
X33403676Y-22729999D01*
X33400000Y-22692676D01*
X33400000Y-22692667D01*
X33389003Y-22581014D01*
X33345546Y-22437753D01*
X33274974Y-22305724D01*
X33180001Y-22189999D01*
X33151002Y-22166201D01*
X32915000Y-21930198D01*
X32915000Y-21905000D01*
X39534758Y-21905000D01*
X39517315Y-21919315D01*
%TA.AperFunction,Conductor*%
D20*
G36*
X39517315Y-21919315D02*
G01*
X39437963Y-22016006D01*
X39378998Y-22126320D01*
X39361633Y-22183565D01*
X39122434Y-22422764D01*
X39110537Y-22400506D01*
X39031185Y-22303815D01*
X38934494Y-22224463D01*
X38824180Y-22165498D01*
X38704482Y-22129188D01*
X38580000Y-22116928D01*
X36880000Y-22116928D01*
X36755518Y-22129188D01*
X36635820Y-22165498D01*
X36580627Y-22195000D01*
X35632322Y-22195000D01*
X35594999Y-22191324D01*
X35557676Y-22195000D01*
X35557667Y-22195000D01*
X35446014Y-22205997D01*
X35314080Y-22246018D01*
X35302753Y-22249454D01*
X35170723Y-22320026D01*
X35109221Y-22370500D01*
X35054999Y-22414999D01*
X35031201Y-22443997D01*
X33837539Y-23637660D01*
X33775401Y-23637660D01*
X33575442Y-23677434D01*
X33387084Y-23755455D01*
X33217566Y-23868723D01*
X33073403Y-24012886D01*
X32960135Y-24182404D01*
X32882114Y-24370762D01*
X32842340Y-24570721D01*
X32842340Y-24774599D01*
X32882114Y-24974558D01*
X32960135Y-25162916D01*
X33073403Y-25332434D01*
X33217566Y-25476597D01*
X33387084Y-25589865D01*
X33575442Y-25667886D01*
X33775401Y-25707660D01*
X33979279Y-25707660D01*
X34052005Y-25693194D01*
X33628998Y-26116201D01*
X33600000Y-26139999D01*
X33576202Y-26168997D01*
X33576201Y-26168998D01*
X33505026Y-26255724D01*
X33434454Y-26387754D01*
X33405414Y-26483490D01*
X33390998Y-26531014D01*
X33380001Y-26642667D01*
X33376324Y-26680000D01*
X33380001Y-26717332D01*
X33380000Y-28707198D01*
X32426771Y-29660428D01*
X31974500Y-29660428D01*
X31850018Y-29672688D01*
X31730320Y-29708998D01*
X31653000Y-29750327D01*
X31653000Y-29693578D01*
X31703506Y-29643072D01*
X32140000Y-29643072D01*
X32264482Y-29630812D01*
X32384180Y-29594502D01*
X32494494Y-29535537D01*
X32591185Y-29456185D01*
X32670537Y-29359494D01*
X32729502Y-29249180D01*
X32765812Y-29129482D01*
X32778072Y-29005000D01*
X32778072Y-28605000D01*
X32765812Y-28480518D01*
X32765115Y-28478222D01*
X32775000Y-28386750D01*
X32707032Y-28318782D01*
X32670537Y-28250506D01*
X32591660Y-28154394D01*
X32665669Y-28066674D01*
X32707696Y-27990554D01*
X32775000Y-27923250D01*
X32764923Y-27830000D01*
X32775000Y-27736750D01*
X32707696Y-27669446D01*
X32665669Y-27593326D01*
X32591149Y-27505000D01*
X32665669Y-27416674D01*
X32707696Y-27340554D01*
X32775000Y-27273250D01*
X32764923Y-27180000D01*
X32775000Y-27086750D01*
X32707696Y-27019446D01*
X32665669Y-26943326D01*
X32591660Y-26855606D01*
X32670537Y-26759494D01*
X32707032Y-26691218D01*
X32775000Y-26623250D01*
X32765115Y-26531778D01*
X32765812Y-26529482D01*
X32778072Y-26405000D01*
X32778072Y-26005000D01*
X32765812Y-25880518D01*
X32765655Y-25880000D01*
X32765812Y-25879482D01*
X32778072Y-25755000D01*
X32778072Y-25355000D01*
X32765812Y-25230518D01*
X32765115Y-25228222D01*
X32775000Y-25136750D01*
X32707032Y-25068782D01*
X32670537Y-25000506D01*
X32592158Y-24905000D01*
X32670537Y-24809494D01*
X32707032Y-24741218D01*
X32775000Y-24673250D01*
X32765115Y-24581778D01*
X32765812Y-24579482D01*
X32778072Y-24455000D01*
X32778072Y-24259326D01*
X32814276Y-24239974D01*
X32930001Y-24145001D01*
X32953803Y-24115998D01*
X33151003Y-23918799D01*
X33180001Y-23895001D01*
X33274974Y-23779276D01*
X33345546Y-23647247D01*
X33389003Y-23503986D01*
X33400000Y-23392333D01*
X33400000Y-23392324D01*
X33403676Y-23355001D01*
X33400000Y-23317678D01*
X33400000Y-22767322D01*
X33403676Y-22729999D01*
X33400000Y-22692676D01*
X33400000Y-22692667D01*
X33389003Y-22581014D01*
X33345546Y-22437753D01*
X33274974Y-22305724D01*
X33180001Y-22189999D01*
X33151002Y-22166201D01*
X32915000Y-21930198D01*
X32915000Y-21905000D01*
X39534758Y-21905000D01*
X39517315Y-21919315D01*
G37*
%TD.AperFunction*%
D19*
X37857000Y-29481250D02*
X37979063Y-29603313D01*
X37960320Y-29608998D01*
X37850006Y-29667963D01*
X37760000Y-29741829D01*
X37669994Y-29667963D01*
X37559680Y-29608998D01*
X37494902Y-29589348D01*
X37603000Y-29481250D01*
X37603000Y-28993072D01*
X37857000Y-28993072D01*
X37857000Y-29481250D01*
%TA.AperFunction,Conductor*%
D20*
G36*
X37857000Y-29481250D02*
G01*
X37979063Y-29603313D01*
X37960320Y-29608998D01*
X37850006Y-29667963D01*
X37760000Y-29741829D01*
X37669994Y-29667963D01*
X37559680Y-29608998D01*
X37494902Y-29589348D01*
X37603000Y-29481250D01*
X37603000Y-28993072D01*
X37857000Y-28993072D01*
X37857000Y-29481250D01*
G37*
%TD.AperFunction*%
D19*
X45469687Y-27131589D02*
X45541113Y-27153256D01*
X45544188Y-27184482D01*
X45580498Y-27304180D01*
X45639463Y-27414494D01*
X45679119Y-27462815D01*
X45619463Y-27535506D01*
X45560498Y-27645820D01*
X45524188Y-27765518D01*
X45519573Y-27812379D01*
X45499687Y-27818411D01*
X45345941Y-27900589D01*
X45345939Y-27900590D01*
X45345940Y-27900590D01*
X45244953Y-27983468D01*
X45244951Y-27983470D01*
X45211183Y-28011183D01*
X45183470Y-28044951D01*
X44892620Y-28335802D01*
X44855982Y-28324688D01*
X44731500Y-28312428D01*
X43588500Y-28312428D01*
X43464018Y-28324688D01*
X43344320Y-28360998D01*
X43340575Y-28363000D01*
X43266842Y-28363000D01*
X43225680Y-28340998D01*
X43105982Y-28304688D01*
X42981500Y-28292428D01*
X42337230Y-28292428D01*
X42132373Y-28087572D01*
X42891500Y-28087572D01*
X43015982Y-28075312D01*
X43135680Y-28039002D01*
X43176842Y-28017000D01*
X43253158Y-28017000D01*
X43294320Y-28039002D01*
X43414018Y-28075312D01*
X43538500Y-28087572D01*
X44681500Y-28087572D01*
X44805982Y-28075312D01*
X44925680Y-28039002D01*
X45035994Y-27980037D01*
X45132685Y-27900685D01*
X45212037Y-27803994D01*
X45271002Y-27693680D01*
X45307312Y-27573982D01*
X45319572Y-27449500D01*
X45319572Y-27051352D01*
X45469687Y-27131589D01*
%TA.AperFunction,Conductor*%
D20*
G36*
X45469687Y-27131589D02*
G01*
X45541113Y-27153256D01*
X45544188Y-27184482D01*
X45580498Y-27304180D01*
X45639463Y-27414494D01*
X45679119Y-27462815D01*
X45619463Y-27535506D01*
X45560498Y-27645820D01*
X45524188Y-27765518D01*
X45519573Y-27812379D01*
X45499687Y-27818411D01*
X45345941Y-27900589D01*
X45345939Y-27900590D01*
X45345940Y-27900590D01*
X45244953Y-27983468D01*
X45244951Y-27983470D01*
X45211183Y-28011183D01*
X45183470Y-28044951D01*
X44892620Y-28335802D01*
X44855982Y-28324688D01*
X44731500Y-28312428D01*
X43588500Y-28312428D01*
X43464018Y-28324688D01*
X43344320Y-28360998D01*
X43340575Y-28363000D01*
X43266842Y-28363000D01*
X43225680Y-28340998D01*
X43105982Y-28304688D01*
X42981500Y-28292428D01*
X42337230Y-28292428D01*
X42132373Y-28087572D01*
X42891500Y-28087572D01*
X43015982Y-28075312D01*
X43135680Y-28039002D01*
X43176842Y-28017000D01*
X43253158Y-28017000D01*
X43294320Y-28039002D01*
X43414018Y-28075312D01*
X43538500Y-28087572D01*
X44681500Y-28087572D01*
X44805982Y-28075312D01*
X44925680Y-28039002D01*
X45035994Y-27980037D01*
X45132685Y-27900685D01*
X45212037Y-27803994D01*
X45271002Y-27693680D01*
X45307312Y-27573982D01*
X45319572Y-27449500D01*
X45319572Y-27051352D01*
X45469687Y-27131589D01*
G37*
%TD.AperFunction*%
D19*
X31417000Y-27652000D02*
X31163000Y-27652000D01*
X31163000Y-27358000D01*
X31417000Y-27358000D01*
X31417000Y-27652000D01*
%TA.AperFunction,Conductor*%
D20*
G36*
X31417000Y-27652000D02*
G01*
X31163000Y-27652000D01*
X31163000Y-27358000D01*
X31417000Y-27358000D01*
X31417000Y-27652000D01*
G37*
%TD.AperFunction*%
D19*
X36241928Y-25755000D02*
X36254188Y-25879482D01*
X36254345Y-25880000D01*
X36254188Y-25880518D01*
X36241928Y-26005000D01*
X36241928Y-26405000D01*
X36254188Y-26529482D01*
X36254885Y-26531778D01*
X36245000Y-26623250D01*
X36312968Y-26691218D01*
X36332628Y-26727998D01*
X36245000Y-26727998D01*
X36245000Y-26745000D01*
X36060576Y-26745000D01*
X36055226Y-26718102D01*
X35977205Y-26529744D01*
X35863937Y-26360226D01*
X35719774Y-26216063D01*
X35695175Y-26199627D01*
X36229802Y-25665000D01*
X36241928Y-25665000D01*
X36241928Y-25755000D01*
%TA.AperFunction,Conductor*%
D20*
G36*
X36241928Y-25755000D02*
G01*
X36254188Y-25879482D01*
X36254345Y-25880000D01*
X36254188Y-25880518D01*
X36241928Y-26005000D01*
X36241928Y-26405000D01*
X36254188Y-26529482D01*
X36254885Y-26531778D01*
X36245000Y-26623250D01*
X36312968Y-26691218D01*
X36332628Y-26727998D01*
X36245000Y-26727998D01*
X36245000Y-26745000D01*
X36060576Y-26745000D01*
X36055226Y-26718102D01*
X35977205Y-26529744D01*
X35863937Y-26360226D01*
X35719774Y-26216063D01*
X35695175Y-26199627D01*
X36229802Y-25665000D01*
X36241928Y-25665000D01*
X36241928Y-25755000D01*
G37*
%TD.AperFunction*%
D19*
X45551928Y-23560000D02*
X45555000Y-24024250D01*
X45713750Y-24183000D01*
X47563000Y-24183000D01*
X47563000Y-24163000D01*
X47817000Y-24163000D01*
X47817000Y-24183000D01*
X47837000Y-24183000D01*
X47837000Y-24437000D01*
X47817000Y-24437000D01*
X47817000Y-24457000D01*
X47563000Y-24457000D01*
X47563000Y-24437000D01*
X45713750Y-24437000D01*
X45555000Y-24595750D01*
X45553367Y-24842563D01*
X45448313Y-24786411D01*
X45281490Y-24735805D01*
X45266861Y-24734364D01*
X45297312Y-24633982D01*
X45309572Y-24509500D01*
X45309572Y-23874500D01*
X45297312Y-23750018D01*
X45261002Y-23630320D01*
X45219673Y-23553000D01*
X45552617Y-23553000D01*
X45551928Y-23560000D01*
%TA.AperFunction,Conductor*%
D20*
G36*
X45551928Y-23560000D02*
G01*
X45555000Y-24024250D01*
X45713750Y-24183000D01*
X47563000Y-24183000D01*
X47563000Y-24163000D01*
X47817000Y-24163000D01*
X47817000Y-24183000D01*
X47837000Y-24183000D01*
X47837000Y-24437000D01*
X47817000Y-24437000D01*
X47817000Y-24457000D01*
X47563000Y-24457000D01*
X47563000Y-24437000D01*
X45713750Y-24437000D01*
X45555000Y-24595750D01*
X45553367Y-24842563D01*
X45448313Y-24786411D01*
X45281490Y-24735805D01*
X45266861Y-24734364D01*
X45297312Y-24633982D01*
X45309572Y-24509500D01*
X45309572Y-23874500D01*
X45297312Y-23750018D01*
X45261002Y-23630320D01*
X45219673Y-23553000D01*
X45552617Y-23553000D01*
X45551928Y-23560000D01*
G37*
%TD.AperFunction*%
D19*
X28607000Y-23355000D02*
X28627000Y-23355000D01*
X28627000Y-23609000D01*
X28607000Y-23609000D01*
X28607000Y-23629000D01*
X28353000Y-23629000D01*
X28353000Y-23609000D01*
X28333000Y-23609000D01*
X28333000Y-23355000D01*
X28353000Y-23355000D01*
X28353000Y-23335000D01*
X28607000Y-23335000D01*
X28607000Y-23355000D01*
%TA.AperFunction,Conductor*%
D20*
G36*
X28607000Y-23355000D02*
G01*
X28627000Y-23355000D01*
X28627000Y-23609000D01*
X28607000Y-23609000D01*
X28607000Y-23629000D01*
X28353000Y-23629000D01*
X28353000Y-23609000D01*
X28333000Y-23609000D01*
X28333000Y-23355000D01*
X28353000Y-23355000D01*
X28353000Y-23335000D01*
X28607000Y-23335000D01*
X28607000Y-23355000D01*
G37*
%TD.AperFunction*%
D19*
X21657000Y-22521000D02*
X21677000Y-22521000D01*
X21677000Y-22775000D01*
X21657000Y-22775000D01*
X21657000Y-22795000D01*
X21403000Y-22795000D01*
X21403000Y-22775000D01*
X21383000Y-22775000D01*
X21383000Y-22521000D01*
X21403000Y-22521000D01*
X21403000Y-22501000D01*
X21657000Y-22501000D01*
X21657000Y-22521000D01*
%TA.AperFunction,Conductor*%
D20*
G36*
X21657000Y-22521000D02*
G01*
X21677000Y-22521000D01*
X21677000Y-22775000D01*
X21657000Y-22775000D01*
X21657000Y-22795000D01*
X21403000Y-22795000D01*
X21403000Y-22775000D01*
X21383000Y-22775000D01*
X21383000Y-22521000D01*
X21403000Y-22521000D01*
X21403000Y-22501000D01*
X21657000Y-22501000D01*
X21657000Y-22521000D01*
G37*
%TD.AperFunction*%
%TD*%
M02*
