M48
; DRILL file {KiCad 5.1.9+dfsg1-1} date Sun Aug  1 21:30:54 2021
; FORMAT={-:-/ absolute / inch / decimal}
; #@! TF.CreationDate,2021-08-01T21:30:54+03:00
; #@! TF.GenerationSoftware,Kicad,Pcbnew,5.1.9+dfsg1-1
FMAT,2
INCH
T1C0.0157
%
G90
G05
T1
X0.7232Y-1.1917
X0.7843Y-1.1906
X0.7882Y-0.9961
X0.7961Y-0.8665
X0.8008Y-1.061
X0.8465Y-1.1917
X0.8835Y-0.9146
X0.9094Y-1.1909
X0.9398Y-1.0146
X0.9665Y-1.1492
X0.9996Y-0.9151
X1.0087Y-1.1488
X1.0763Y-0.9847
X1.1563Y-0.8878
X1.1695Y-0.9249
X1.1698Y-0.9839
X1.1717Y-1.0941
X1.1724Y-1.0409
X1.2551Y-0.865
X1.3051Y-1.1252
X1.3338Y-0.9714
X1.3421Y-1.2311
X1.3803Y-1.0638
X1.3866Y-1.2303
X1.4193Y-1.1374
X1.4321Y-1.0524
X1.4469Y-0.8661
X1.5201Y-0.8669
X1.7874Y-1.1933
X1.7898Y-1.0902
X1.7906Y-0.9748
T0
M30
