%TF.GenerationSoftware,KiCad,Pcbnew,5.1.9+dfsg1-1*%
%TF.CreationDate,2021-08-01T21:30:50+03:00*%
%TF.ProjectId,neogeo_aadc,6e656f67-656f-45f6-9161-64632e6b6963,rev?*%
%TF.SameCoordinates,Original*%
%TF.FileFunction,Legend,Top*%
%TF.FilePolarity,Positive*%
%FSLAX46Y46*%
G04 Gerber Fmt 4.6, Leading zero omitted, Abs format (unit mm)*
G04 Created by KiCad (PCBNEW 5.1.9+dfsg1-1) date 2021-08-01 21:30:50*
%MOMM*%
%LPD*%
G01*
G04 APERTURE LIST*
%ADD10C,0.125000*%
%ADD11C,0.120000*%
%ADD12C,0.150000*%
%ADD13C,0.119380*%
%ADD14C,0.100000*%
%ADD15C,0.127000*%
%ADD16C,0.114300*%
G04 APERTURE END LIST*
D10*
X17081428Y-31481428D02*
X17081428Y-31167142D01*
X17052857Y-31110000D01*
X16995714Y-31081428D01*
X16881428Y-31081428D01*
X16824285Y-31110000D01*
X17081428Y-31452857D02*
X17024285Y-31481428D01*
X16881428Y-31481428D01*
X16824285Y-31452857D01*
X16795714Y-31395714D01*
X16795714Y-31338571D01*
X16824285Y-31281428D01*
X16881428Y-31252857D01*
X17024285Y-31252857D01*
X17081428Y-31224285D01*
X17338571Y-31310000D02*
X17624285Y-31310000D01*
X17281428Y-31481428D02*
X17481428Y-30881428D01*
X17681428Y-31481428D01*
X17881428Y-31481428D02*
X17881428Y-30881428D01*
X18024285Y-30881428D01*
X18110000Y-30910000D01*
X18167142Y-30967142D01*
X18195714Y-31024285D01*
X18224285Y-31138571D01*
X18224285Y-31224285D01*
X18195714Y-31338571D01*
X18167142Y-31395714D01*
X18110000Y-31452857D01*
X18024285Y-31481428D01*
X17881428Y-31481428D01*
X18824285Y-31424285D02*
X18795714Y-31452857D01*
X18710000Y-31481428D01*
X18652857Y-31481428D01*
X18567142Y-31452857D01*
X18510000Y-31395714D01*
X18481428Y-31338571D01*
X18452857Y-31224285D01*
X18452857Y-31138571D01*
X18481428Y-31024285D01*
X18510000Y-30967142D01*
X18567142Y-30910000D01*
X18652857Y-30881428D01*
X18710000Y-30881428D01*
X18795714Y-30910000D01*
X18824285Y-30938571D01*
X19795714Y-31481428D02*
X19795714Y-31167142D01*
X19767142Y-31110000D01*
X19710000Y-31081428D01*
X19595714Y-31081428D01*
X19538571Y-31110000D01*
X19795714Y-31452857D02*
X19738571Y-31481428D01*
X19595714Y-31481428D01*
X19538571Y-31452857D01*
X19510000Y-31395714D01*
X19510000Y-31338571D01*
X19538571Y-31281428D01*
X19595714Y-31252857D01*
X19738571Y-31252857D01*
X19795714Y-31224285D01*
X20338571Y-31481428D02*
X20338571Y-30881428D01*
X20338571Y-31452857D02*
X20281428Y-31481428D01*
X20167142Y-31481428D01*
X20110000Y-31452857D01*
X20081428Y-31424285D01*
X20052857Y-31367142D01*
X20052857Y-31195714D01*
X20081428Y-31138571D01*
X20110000Y-31110000D01*
X20167142Y-31081428D01*
X20281428Y-31081428D01*
X20338571Y-31110000D01*
X20881428Y-31481428D02*
X20881428Y-31167142D01*
X20852857Y-31110000D01*
X20795714Y-31081428D01*
X20681428Y-31081428D01*
X20624285Y-31110000D01*
X20881428Y-31452857D02*
X20824285Y-31481428D01*
X20681428Y-31481428D01*
X20624285Y-31452857D01*
X20595714Y-31395714D01*
X20595714Y-31338571D01*
X20624285Y-31281428D01*
X20681428Y-31252857D01*
X20824285Y-31252857D01*
X20881428Y-31224285D01*
X21167142Y-31081428D02*
X21167142Y-31681428D01*
X21167142Y-31110000D02*
X21224285Y-31081428D01*
X21338571Y-31081428D01*
X21395714Y-31110000D01*
X21424285Y-31138571D01*
X21452857Y-31195714D01*
X21452857Y-31367142D01*
X21424285Y-31424285D01*
X21395714Y-31452857D01*
X21338571Y-31481428D01*
X21224285Y-31481428D01*
X21167142Y-31452857D01*
X21624285Y-31081428D02*
X21852857Y-31081428D01*
X21710000Y-30881428D02*
X21710000Y-31395714D01*
X21738571Y-31452857D01*
X21795714Y-31481428D01*
X21852857Y-31481428D01*
X22281428Y-31452857D02*
X22224285Y-31481428D01*
X22110000Y-31481428D01*
X22052857Y-31452857D01*
X22024285Y-31395714D01*
X22024285Y-31167142D01*
X22052857Y-31110000D01*
X22110000Y-31081428D01*
X22224285Y-31081428D01*
X22281428Y-31110000D01*
X22310000Y-31167142D01*
X22310000Y-31224285D01*
X22024285Y-31281428D01*
X22567142Y-31481428D02*
X22567142Y-31081428D01*
X22567142Y-31195714D02*
X22595714Y-31138571D01*
X22624285Y-31110000D01*
X22681428Y-31081428D01*
X22738571Y-31081428D01*
X23338571Y-31081428D02*
X23481428Y-31481428D01*
X23624285Y-31081428D01*
X24167142Y-31481428D02*
X23824285Y-31481428D01*
X23995714Y-31481428D02*
X23995714Y-30881428D01*
X23938571Y-30967142D01*
X23881428Y-31024285D01*
X23824285Y-31052857D01*
X24424285Y-31424285D02*
X24452857Y-31452857D01*
X24424285Y-31481428D01*
X24395714Y-31452857D01*
X24424285Y-31424285D01*
X24424285Y-31481428D01*
X24824285Y-30881428D02*
X24881428Y-30881428D01*
X24938571Y-30910000D01*
X24967142Y-30938571D01*
X24995714Y-30995714D01*
X25024285Y-31110000D01*
X25024285Y-31252857D01*
X24995714Y-31367142D01*
X24967142Y-31424285D01*
X24938571Y-31452857D01*
X24881428Y-31481428D01*
X24824285Y-31481428D01*
X24767142Y-31452857D01*
X24738571Y-31424285D01*
X24710000Y-31367142D01*
X24681428Y-31252857D01*
X24681428Y-31110000D01*
X24710000Y-30995714D01*
X24738571Y-30938571D01*
X24767142Y-30910000D01*
X24824285Y-30881428D01*
D11*
%TO.C,U3*%
X25820000Y-21600000D02*
X24020000Y-21600000D01*
X24020000Y-24820000D02*
X26470000Y-24820000D01*
D12*
%TO.C,U2*%
X33211538Y-23207920D02*
G75*
G03*
X33211538Y-23207920I-339838J0D01*
G01*
X32285000Y-29255000D02*
X36735000Y-29255000D01*
X30760000Y-22505000D02*
X36735000Y-22505000D01*
D11*
%TO.C,U1*%
X23890000Y-28360000D02*
X23890000Y-26560000D01*
X20670000Y-26560000D02*
X20670000Y-29010000D01*
D13*
%TO.C,R6*%
X32030380Y-31604060D02*
X32728880Y-31604060D01*
X31029620Y-31604060D02*
X30331120Y-31604060D01*
X32030380Y-30135940D02*
X32728880Y-30135940D01*
X30331120Y-30135940D02*
X31029620Y-30135940D01*
X32769520Y-30133400D02*
X32769520Y-31606600D01*
X30290480Y-31606600D02*
X30290480Y-30133400D01*
%TO.C,R5*%
X43054060Y-25869620D02*
X43054060Y-25171120D01*
X43054060Y-26870380D02*
X43054060Y-27568880D01*
X41585940Y-25869620D02*
X41585940Y-25171120D01*
X41585940Y-27568880D02*
X41585940Y-26870380D01*
X41583400Y-25130480D02*
X43056600Y-25130480D01*
X43056600Y-27609520D02*
X41583400Y-27609520D01*
%TO.C,R4*%
X43044060Y-22929620D02*
X43044060Y-22231120D01*
X43044060Y-23930380D02*
X43044060Y-24628880D01*
X41575940Y-22929620D02*
X41575940Y-22231120D01*
X41575940Y-24628880D02*
X41575940Y-23930380D01*
X41573400Y-22190480D02*
X43046600Y-22190480D01*
X43046600Y-24669520D02*
X41573400Y-24669520D01*
%TO.C,R3*%
X39825940Y-26870380D02*
X39825940Y-27568880D01*
X39825940Y-25869620D02*
X39825940Y-25171120D01*
X41294060Y-26870380D02*
X41294060Y-27568880D01*
X41294060Y-25171120D02*
X41294060Y-25869620D01*
X41296600Y-27609520D02*
X39823400Y-27609520D01*
X39823400Y-25130480D02*
X41296600Y-25130480D01*
%TO.C,R2*%
X39805940Y-23950380D02*
X39805940Y-24648880D01*
X39805940Y-22949620D02*
X39805940Y-22251120D01*
X41274060Y-23950380D02*
X41274060Y-24648880D01*
X41274060Y-22251120D02*
X41274060Y-22949620D01*
X41276600Y-24689520D02*
X39803400Y-24689520D01*
X39803400Y-22210480D02*
X41276600Y-22210480D01*
%TO.C,R1*%
X29244060Y-24869620D02*
X29244060Y-24171120D01*
X29244060Y-25870380D02*
X29244060Y-26568880D01*
X27775940Y-24869620D02*
X27775940Y-24171120D01*
X27775940Y-26568880D02*
X27775940Y-25870380D01*
X27773400Y-24130480D02*
X29246600Y-24130480D01*
X29246600Y-26609520D02*
X27773400Y-26609520D01*
%TO.C,C12*%
X22264060Y-22909620D02*
X22264060Y-22211120D01*
X22264060Y-23910380D02*
X22264060Y-24608880D01*
X20795940Y-22909620D02*
X20795940Y-22211120D01*
X20795940Y-24608880D02*
X20795940Y-23910380D01*
X20793400Y-22170480D02*
X22266600Y-22170480D01*
X22266600Y-24649520D02*
X20793400Y-24649520D01*
%TO.C,C11*%
X27745940Y-23220380D02*
X27745940Y-23918880D01*
X27745940Y-22219620D02*
X27745940Y-21521120D01*
X29214060Y-23220380D02*
X29214060Y-23918880D01*
X29214060Y-21521120D02*
X29214060Y-22219620D01*
X29216600Y-23959520D02*
X27743400Y-23959520D01*
X27743400Y-21480480D02*
X29216600Y-21480480D01*
%TO.C,C10*%
X41675940Y-30510380D02*
X41675940Y-31208880D01*
X41675940Y-29509620D02*
X41675940Y-28811120D01*
X43144060Y-30510380D02*
X43144060Y-31208880D01*
X43144060Y-28811120D02*
X43144060Y-29509620D01*
X43146600Y-31249520D02*
X41673400Y-31249520D01*
X41673400Y-28770480D02*
X43146600Y-28770480D01*
%TO.C,C9*%
X43425940Y-30530380D02*
X43425940Y-31228880D01*
X43425940Y-29529620D02*
X43425940Y-28831120D01*
X44894060Y-30530380D02*
X44894060Y-31228880D01*
X44894060Y-28831120D02*
X44894060Y-29529620D01*
X44896600Y-31269520D02*
X43423400Y-31269520D01*
X43423400Y-28790480D02*
X44896600Y-28790480D01*
%TO.C,C8*%
X43375940Y-26870380D02*
X43375940Y-27568880D01*
X43375940Y-25869620D02*
X43375940Y-25171120D01*
X44844060Y-26870380D02*
X44844060Y-27568880D01*
X44844060Y-25171120D02*
X44844060Y-25869620D01*
X44846600Y-27609520D02*
X43373400Y-27609520D01*
X43373400Y-25130480D02*
X44846600Y-25130480D01*
%TO.C,C7*%
X43365940Y-23930380D02*
X43365940Y-24628880D01*
X43365940Y-22929620D02*
X43365940Y-22231120D01*
X44834060Y-23930380D02*
X44834060Y-24628880D01*
X44834060Y-22231120D02*
X44834060Y-22929620D01*
X44836600Y-24669520D02*
X43363400Y-24669520D01*
X43363400Y-22190480D02*
X44836600Y-22190480D01*
%TO.C,C6*%
X37259620Y-30035940D02*
X36561120Y-30035940D01*
X38260380Y-30035940D02*
X38958880Y-30035940D01*
X37259620Y-31504060D02*
X36561120Y-31504060D01*
X38958880Y-31504060D02*
X38260380Y-31504060D01*
X36520480Y-31506600D02*
X36520480Y-30033400D01*
X38999520Y-30033400D02*
X38999520Y-31506600D01*
%TO.C,C5*%
X39825940Y-30530380D02*
X39825940Y-31228880D01*
X39825940Y-29529620D02*
X39825940Y-28831120D01*
X41294060Y-30530380D02*
X41294060Y-31228880D01*
X41294060Y-28831120D02*
X41294060Y-29529620D01*
X41296600Y-31269520D02*
X39823400Y-31269520D01*
X39823400Y-28790480D02*
X41296600Y-28790480D01*
%TO.C,C4*%
X29234060Y-29229620D02*
X29234060Y-28531120D01*
X29234060Y-30230380D02*
X29234060Y-30928880D01*
X27765940Y-29229620D02*
X27765940Y-28531120D01*
X27765940Y-30928880D02*
X27765940Y-30230380D01*
X27763400Y-28490480D02*
X29236600Y-28490480D01*
X29236600Y-30969520D02*
X27763400Y-30969520D01*
%TO.C,C3*%
X26105940Y-27600380D02*
X26105940Y-28298880D01*
X26105940Y-26599620D02*
X26105940Y-25901120D01*
X27574060Y-27600380D02*
X27574060Y-28298880D01*
X27574060Y-25901120D02*
X27574060Y-26599620D01*
X27576600Y-28339520D02*
X26103400Y-28339520D01*
X26103400Y-25860480D02*
X27576600Y-25860480D01*
%TO.C,C2*%
X27584060Y-29239620D02*
X27584060Y-28541120D01*
X27584060Y-30240380D02*
X27584060Y-30938880D01*
X26115940Y-29239620D02*
X26115940Y-28541120D01*
X26115940Y-30938880D02*
X26115940Y-30240380D01*
X26113400Y-28500480D02*
X27586600Y-28500480D01*
X27586600Y-30979520D02*
X26113400Y-30979520D01*
%TO.C,C1*%
X24455940Y-27610380D02*
X24455940Y-28308880D01*
X24455940Y-26609620D02*
X24455940Y-25911120D01*
X25924060Y-27610380D02*
X25924060Y-28308880D01*
X25924060Y-25911120D02*
X25924060Y-26609620D01*
X25926600Y-28349520D02*
X24453400Y-28349520D01*
X24453400Y-25870480D02*
X25926600Y-25870480D01*
%TO.C,U3*%
D14*
X22802857Y-22931428D02*
X22802857Y-23417142D01*
X22831428Y-23474285D01*
X22860000Y-23502857D01*
X22917142Y-23531428D01*
X23031428Y-23531428D01*
X23088571Y-23502857D01*
X23117142Y-23474285D01*
X23145714Y-23417142D01*
X23145714Y-22931428D01*
X23374285Y-22931428D02*
X23745714Y-22931428D01*
X23545714Y-23160000D01*
X23631428Y-23160000D01*
X23688571Y-23188571D01*
X23717142Y-23217142D01*
X23745714Y-23274285D01*
X23745714Y-23417142D01*
X23717142Y-23474285D01*
X23688571Y-23502857D01*
X23631428Y-23531428D01*
X23460000Y-23531428D01*
X23402857Y-23502857D01*
X23374285Y-23474285D01*
%TO.C,U2*%
D12*
X33828095Y-29732380D02*
X33828095Y-30541904D01*
X33875714Y-30637142D01*
X33923333Y-30684761D01*
X34018571Y-30732380D01*
X34209047Y-30732380D01*
X34304285Y-30684761D01*
X34351904Y-30637142D01*
X34399523Y-30541904D01*
X34399523Y-29732380D01*
X34828095Y-29827619D02*
X34875714Y-29780000D01*
X34970952Y-29732380D01*
X35209047Y-29732380D01*
X35304285Y-29780000D01*
X35351904Y-29827619D01*
X35399523Y-29922857D01*
X35399523Y-30018095D01*
X35351904Y-30160952D01*
X34780476Y-30732380D01*
X35399523Y-30732380D01*
%TO.C,U1*%
X21991428Y-26407142D02*
X22477142Y-26407142D01*
X22534285Y-26378571D01*
X22562857Y-26350000D01*
X22591428Y-26292857D01*
X22591428Y-26178571D01*
X22562857Y-26121428D01*
X22534285Y-26092857D01*
X22477142Y-26064285D01*
X21991428Y-26064285D01*
X22591428Y-25464285D02*
X22591428Y-25807142D01*
X22591428Y-25635714D02*
X21991428Y-25635714D01*
X22077142Y-25692857D01*
X22134285Y-25750000D01*
X22162857Y-25807142D01*
%TO.C,TP9*%
D14*
X45584666Y-27032000D02*
X45584666Y-26790095D01*
X45729809Y-27080380D02*
X45221809Y-26911047D01*
X45729809Y-26741714D01*
X45729809Y-26572380D02*
X45221809Y-26572380D01*
X45729809Y-26330476D02*
X45221809Y-26330476D01*
X45729809Y-26040190D01*
X45221809Y-26040190D01*
X45729809Y-25508000D02*
X45487904Y-25677333D01*
X45729809Y-25798285D02*
X45221809Y-25798285D01*
X45221809Y-25604761D01*
X45246000Y-25556380D01*
X45270190Y-25532190D01*
X45318571Y-25508000D01*
X45391142Y-25508000D01*
X45439523Y-25532190D01*
X45463714Y-25556380D01*
X45487904Y-25604761D01*
X45487904Y-25798285D01*
%TO.C,TP8*%
X45574666Y-22993619D02*
X45574666Y-22751714D01*
X45719809Y-23042000D02*
X45211809Y-22872666D01*
X45719809Y-22703333D01*
X45719809Y-22534000D02*
X45211809Y-22534000D01*
X45719809Y-22292095D02*
X45211809Y-22292095D01*
X45719809Y-22001809D01*
X45211809Y-22001809D01*
X45719809Y-21518000D02*
X45719809Y-21759904D01*
X45211809Y-21759904D01*
%TO.C,TP7*%
X45246000Y-24677047D02*
X45221809Y-24725428D01*
X45221809Y-24798000D01*
X45246000Y-24870571D01*
X45294380Y-24918952D01*
X45342761Y-24943142D01*
X45439523Y-24967333D01*
X45512095Y-24967333D01*
X45608857Y-24943142D01*
X45657238Y-24918952D01*
X45705619Y-24870571D01*
X45729809Y-24798000D01*
X45729809Y-24749619D01*
X45705619Y-24677047D01*
X45681428Y-24652857D01*
X45512095Y-24652857D01*
X45512095Y-24749619D01*
X45729809Y-24435142D02*
X45221809Y-24435142D01*
X45729809Y-24144857D01*
X45221809Y-24144857D01*
X45729809Y-23902952D02*
X45221809Y-23902952D01*
X45221809Y-23782000D01*
X45246000Y-23709428D01*
X45294380Y-23661047D01*
X45342761Y-23636857D01*
X45439523Y-23612666D01*
X45512095Y-23612666D01*
X45608857Y-23636857D01*
X45657238Y-23661047D01*
X45705619Y-23709428D01*
X45729809Y-23782000D01*
X45729809Y-23902952D01*
%TO.C,TP6*%
X19783714Y-27011714D02*
X19807904Y-26939142D01*
X19832095Y-26914952D01*
X19880476Y-26890761D01*
X19953047Y-26890761D01*
X20001428Y-26914952D01*
X20025619Y-26939142D01*
X20049809Y-26987523D01*
X20049809Y-27181047D01*
X19541809Y-27181047D01*
X19541809Y-27011714D01*
X19566000Y-26963333D01*
X19590190Y-26939142D01*
X19638571Y-26914952D01*
X19686952Y-26914952D01*
X19735333Y-26939142D01*
X19759523Y-26963333D01*
X19783714Y-27011714D01*
X19783714Y-27181047D01*
X20001428Y-26382761D02*
X20025619Y-26406952D01*
X20049809Y-26479523D01*
X20049809Y-26527904D01*
X20025619Y-26600476D01*
X19977238Y-26648857D01*
X19928857Y-26673047D01*
X19832095Y-26697238D01*
X19759523Y-26697238D01*
X19662761Y-26673047D01*
X19614380Y-26648857D01*
X19566000Y-26600476D01*
X19541809Y-26527904D01*
X19541809Y-26479523D01*
X19566000Y-26406952D01*
X19590190Y-26382761D01*
X20049809Y-26165047D02*
X19541809Y-26165047D01*
X20049809Y-25874761D02*
X19759523Y-26092476D01*
X19541809Y-25874761D02*
X19832095Y-26165047D01*
%TO.C,TP5*%
X19581809Y-24859619D02*
X20089809Y-24738666D01*
X19726952Y-24641904D01*
X20089809Y-24545142D01*
X19581809Y-24424190D01*
X20065619Y-24254857D02*
X20089809Y-24182285D01*
X20089809Y-24061333D01*
X20065619Y-24012952D01*
X20041428Y-23988761D01*
X19993047Y-23964571D01*
X19944666Y-23964571D01*
X19896285Y-23988761D01*
X19872095Y-24012952D01*
X19847904Y-24061333D01*
X19823714Y-24158095D01*
X19799523Y-24206476D01*
X19775333Y-24230666D01*
X19726952Y-24254857D01*
X19678571Y-24254857D01*
X19630190Y-24230666D01*
X19606000Y-24206476D01*
X19581809Y-24158095D01*
X19581809Y-24037142D01*
X19606000Y-23964571D01*
%TO.C,TP4*%
X20079809Y-23432000D02*
X19571809Y-23432000D01*
X19571809Y-23311047D01*
X19596000Y-23238476D01*
X19644380Y-23190095D01*
X19692761Y-23165904D01*
X19789523Y-23141714D01*
X19862095Y-23141714D01*
X19958857Y-23165904D01*
X20007238Y-23190095D01*
X20055619Y-23238476D01*
X20079809Y-23311047D01*
X20079809Y-23432000D01*
X19934666Y-22948190D02*
X19934666Y-22706285D01*
X20079809Y-22996571D02*
X19571809Y-22827238D01*
X20079809Y-22657904D01*
X19571809Y-22561142D02*
X19571809Y-22270857D01*
X20079809Y-22416000D02*
X19571809Y-22416000D01*
X19934666Y-22125714D02*
X19934666Y-21883809D01*
X20079809Y-22174095D02*
X19571809Y-22004761D01*
X20079809Y-21835428D01*
%TO.C,TP3*%
X20069809Y-29432952D02*
X19561809Y-29432952D01*
X19924666Y-29263619D01*
X19561809Y-29094285D01*
X20069809Y-29094285D01*
X20021428Y-28562095D02*
X20045619Y-28586285D01*
X20069809Y-28658857D01*
X20069809Y-28707238D01*
X20045619Y-28779809D01*
X19997238Y-28828190D01*
X19948857Y-28852380D01*
X19852095Y-28876571D01*
X19779523Y-28876571D01*
X19682761Y-28852380D01*
X19634380Y-28828190D01*
X19586000Y-28779809D01*
X19561809Y-28707238D01*
X19561809Y-28658857D01*
X19586000Y-28586285D01*
X19610190Y-28562095D01*
X20069809Y-28102476D02*
X20069809Y-28344380D01*
X19561809Y-28344380D01*
X20069809Y-27933142D02*
X19561809Y-27933142D01*
X20069809Y-27642857D02*
X19779523Y-27860571D01*
X19561809Y-27642857D02*
X19852095Y-27933142D01*
%TO.C,TP2*%
X45186000Y-31437047D02*
X45161809Y-31485428D01*
X45161809Y-31558000D01*
X45186000Y-31630571D01*
X45234380Y-31678952D01*
X45282761Y-31703142D01*
X45379523Y-31727333D01*
X45452095Y-31727333D01*
X45548857Y-31703142D01*
X45597238Y-31678952D01*
X45645619Y-31630571D01*
X45669809Y-31558000D01*
X45669809Y-31509619D01*
X45645619Y-31437047D01*
X45621428Y-31412857D01*
X45452095Y-31412857D01*
X45452095Y-31509619D01*
X45669809Y-31195142D02*
X45161809Y-31195142D01*
X45669809Y-30904857D01*
X45161809Y-30904857D01*
X45669809Y-30662952D02*
X45161809Y-30662952D01*
X45161809Y-30542000D01*
X45186000Y-30469428D01*
X45234380Y-30421047D01*
X45282761Y-30396857D01*
X45379523Y-30372666D01*
X45452095Y-30372666D01*
X45548857Y-30396857D01*
X45597238Y-30421047D01*
X45645619Y-30469428D01*
X45669809Y-30542000D01*
X45669809Y-30662952D01*
%TO.C,TP1*%
X45221809Y-28716761D02*
X45221809Y-28958666D01*
X45463714Y-28982857D01*
X45439523Y-28958666D01*
X45415333Y-28910285D01*
X45415333Y-28789333D01*
X45439523Y-28740952D01*
X45463714Y-28716761D01*
X45512095Y-28692571D01*
X45633047Y-28692571D01*
X45681428Y-28716761D01*
X45705619Y-28740952D01*
X45729809Y-28789333D01*
X45729809Y-28910285D01*
X45705619Y-28958666D01*
X45681428Y-28982857D01*
X45221809Y-28547428D02*
X45729809Y-28378095D01*
X45221809Y-28208761D01*
%TO.C,R6*%
D15*
X33684280Y-31244666D02*
X33406090Y-31414000D01*
X33684280Y-31534952D02*
X33100080Y-31534952D01*
X33100080Y-31341428D01*
X33127900Y-31293047D01*
X33155719Y-31268857D01*
X33211357Y-31244666D01*
X33294814Y-31244666D01*
X33350452Y-31268857D01*
X33378271Y-31293047D01*
X33406090Y-31341428D01*
X33406090Y-31534952D01*
X33100080Y-30809238D02*
X33100080Y-30906000D01*
X33127900Y-30954380D01*
X33155719Y-30978571D01*
X33239176Y-31026952D01*
X33350452Y-31051142D01*
X33573004Y-31051142D01*
X33628642Y-31026952D01*
X33656461Y-31002761D01*
X33684280Y-30954380D01*
X33684280Y-30857619D01*
X33656461Y-30809238D01*
X33628642Y-30785047D01*
X33573004Y-30760857D01*
X33433909Y-30760857D01*
X33378271Y-30785047D01*
X33350452Y-30809238D01*
X33322633Y-30857619D01*
X33322633Y-30954380D01*
X33350452Y-31002761D01*
X33378271Y-31026952D01*
X33433909Y-31051142D01*
D16*
X31251809Y-31534028D02*
X31251809Y-31251000D01*
X31445333Y-31403400D01*
X31445333Y-31338085D01*
X31469523Y-31294542D01*
X31493714Y-31272771D01*
X31542095Y-31251000D01*
X31663047Y-31251000D01*
X31711428Y-31272771D01*
X31735619Y-31294542D01*
X31759809Y-31338085D01*
X31759809Y-31468714D01*
X31735619Y-31512257D01*
X31711428Y-31534028D01*
X31711428Y-31055057D02*
X31735619Y-31033285D01*
X31759809Y-31055057D01*
X31735619Y-31076828D01*
X31711428Y-31055057D01*
X31759809Y-31055057D01*
X31251809Y-30880885D02*
X31251809Y-30597857D01*
X31445333Y-30750257D01*
X31445333Y-30684942D01*
X31469523Y-30641400D01*
X31493714Y-30619628D01*
X31542095Y-30597857D01*
X31663047Y-30597857D01*
X31711428Y-30619628D01*
X31735619Y-30641400D01*
X31759809Y-30684942D01*
X31759809Y-30815571D01*
X31735619Y-30859114D01*
X31711428Y-30880885D01*
X31759809Y-30401914D02*
X31251809Y-30401914D01*
X31566285Y-30358371D02*
X31759809Y-30227742D01*
X31421142Y-30227742D02*
X31614666Y-30401914D01*
%TO.C,R5*%
D15*
X42235333Y-28412280D02*
X42066000Y-28134090D01*
X41945047Y-28412280D02*
X41945047Y-27828080D01*
X42138571Y-27828080D01*
X42186952Y-27855900D01*
X42211142Y-27883719D01*
X42235333Y-27939357D01*
X42235333Y-28022814D01*
X42211142Y-28078452D01*
X42186952Y-28106271D01*
X42138571Y-28134090D01*
X41945047Y-28134090D01*
X42694952Y-27828080D02*
X42453047Y-27828080D01*
X42428857Y-28106271D01*
X42453047Y-28078452D01*
X42501428Y-28050633D01*
X42622380Y-28050633D01*
X42670761Y-28078452D01*
X42694952Y-28106271D01*
X42719142Y-28161909D01*
X42719142Y-28301004D01*
X42694952Y-28356642D01*
X42670761Y-28384461D01*
X42622380Y-28412280D01*
X42501428Y-28412280D01*
X42453047Y-28384461D01*
X42428857Y-28356642D01*
D16*
X42243800Y-26091809D02*
X42026085Y-26091809D01*
X42004314Y-26333714D01*
X42026085Y-26309523D01*
X42069628Y-26285333D01*
X42178485Y-26285333D01*
X42222028Y-26309523D01*
X42243800Y-26333714D01*
X42265571Y-26382095D01*
X42265571Y-26503047D01*
X42243800Y-26551428D01*
X42222028Y-26575619D01*
X42178485Y-26599809D01*
X42069628Y-26599809D01*
X42026085Y-26575619D01*
X42004314Y-26551428D01*
X42461514Y-26599809D02*
X42461514Y-26091809D01*
X42505057Y-26406285D02*
X42635685Y-26599809D01*
X42635685Y-26261142D02*
X42461514Y-26454666D01*
%TO.C,R4*%
D15*
X42205333Y-21924280D02*
X42036000Y-21646090D01*
X41915047Y-21924280D02*
X41915047Y-21340080D01*
X42108571Y-21340080D01*
X42156952Y-21367900D01*
X42181142Y-21395719D01*
X42205333Y-21451357D01*
X42205333Y-21534814D01*
X42181142Y-21590452D01*
X42156952Y-21618271D01*
X42108571Y-21646090D01*
X41915047Y-21646090D01*
X42640761Y-21534814D02*
X42640761Y-21924280D01*
X42519809Y-21312261D02*
X42398857Y-21729547D01*
X42713333Y-21729547D01*
D16*
X42233800Y-23151809D02*
X42016085Y-23151809D01*
X41994314Y-23393714D01*
X42016085Y-23369523D01*
X42059628Y-23345333D01*
X42168485Y-23345333D01*
X42212028Y-23369523D01*
X42233800Y-23393714D01*
X42255571Y-23442095D01*
X42255571Y-23563047D01*
X42233800Y-23611428D01*
X42212028Y-23635619D01*
X42168485Y-23659809D01*
X42059628Y-23659809D01*
X42016085Y-23635619D01*
X41994314Y-23611428D01*
X42451514Y-23659809D02*
X42451514Y-23151809D01*
X42495057Y-23466285D02*
X42625685Y-23659809D01*
X42625685Y-23321142D02*
X42451514Y-23514666D01*
%TO.C,R3*%
D15*
X40475333Y-28404280D02*
X40306000Y-28126090D01*
X40185047Y-28404280D02*
X40185047Y-27820080D01*
X40378571Y-27820080D01*
X40426952Y-27847900D01*
X40451142Y-27875719D01*
X40475333Y-27931357D01*
X40475333Y-28014814D01*
X40451142Y-28070452D01*
X40426952Y-28098271D01*
X40378571Y-28126090D01*
X40185047Y-28126090D01*
X40644666Y-27820080D02*
X40959142Y-27820080D01*
X40789809Y-28042633D01*
X40862380Y-28042633D01*
X40910761Y-28070452D01*
X40934952Y-28098271D01*
X40959142Y-28153909D01*
X40959142Y-28293004D01*
X40934952Y-28348642D01*
X40910761Y-28376461D01*
X40862380Y-28404280D01*
X40717238Y-28404280D01*
X40668857Y-28376461D01*
X40644666Y-28348642D01*
D16*
X40483800Y-26091809D02*
X40266085Y-26091809D01*
X40244314Y-26333714D01*
X40266085Y-26309523D01*
X40309628Y-26285333D01*
X40418485Y-26285333D01*
X40462028Y-26309523D01*
X40483800Y-26333714D01*
X40505571Y-26382095D01*
X40505571Y-26503047D01*
X40483800Y-26551428D01*
X40462028Y-26575619D01*
X40418485Y-26599809D01*
X40309628Y-26599809D01*
X40266085Y-26575619D01*
X40244314Y-26551428D01*
X40701514Y-26599809D02*
X40701514Y-26091809D01*
X40745057Y-26406285D02*
X40875685Y-26599809D01*
X40875685Y-26261142D02*
X40701514Y-26454666D01*
%TO.C,R2*%
D15*
X40455333Y-21936280D02*
X40286000Y-21658090D01*
X40165047Y-21936280D02*
X40165047Y-21352080D01*
X40358571Y-21352080D01*
X40406952Y-21379900D01*
X40431142Y-21407719D01*
X40455333Y-21463357D01*
X40455333Y-21546814D01*
X40431142Y-21602452D01*
X40406952Y-21630271D01*
X40358571Y-21658090D01*
X40165047Y-21658090D01*
X40648857Y-21407719D02*
X40673047Y-21379900D01*
X40721428Y-21352080D01*
X40842380Y-21352080D01*
X40890761Y-21379900D01*
X40914952Y-21407719D01*
X40939142Y-21463357D01*
X40939142Y-21518995D01*
X40914952Y-21602452D01*
X40624666Y-21936280D01*
X40939142Y-21936280D01*
D16*
X40463800Y-23171809D02*
X40246085Y-23171809D01*
X40224314Y-23413714D01*
X40246085Y-23389523D01*
X40289628Y-23365333D01*
X40398485Y-23365333D01*
X40442028Y-23389523D01*
X40463800Y-23413714D01*
X40485571Y-23462095D01*
X40485571Y-23583047D01*
X40463800Y-23631428D01*
X40442028Y-23655619D01*
X40398485Y-23679809D01*
X40289628Y-23679809D01*
X40246085Y-23655619D01*
X40224314Y-23631428D01*
X40681514Y-23679809D02*
X40681514Y-23171809D01*
X40725057Y-23486285D02*
X40855685Y-23679809D01*
X40855685Y-23341142D02*
X40681514Y-23534666D01*
%TO.C,R1*%
D15*
X28425333Y-27412280D02*
X28256000Y-27134090D01*
X28135047Y-27412280D02*
X28135047Y-26828080D01*
X28328571Y-26828080D01*
X28376952Y-26855900D01*
X28401142Y-26883719D01*
X28425333Y-26939357D01*
X28425333Y-27022814D01*
X28401142Y-27078452D01*
X28376952Y-27106271D01*
X28328571Y-27134090D01*
X28135047Y-27134090D01*
X28909142Y-27412280D02*
X28618857Y-27412280D01*
X28764000Y-27412280D02*
X28764000Y-26828080D01*
X28715619Y-26911538D01*
X28667238Y-26967176D01*
X28618857Y-26994995D01*
D16*
X28237857Y-25599809D02*
X27976600Y-25599809D01*
X28107228Y-25599809D02*
X28107228Y-25091809D01*
X28063685Y-25164380D01*
X28020142Y-25212761D01*
X27976600Y-25236952D01*
X28520885Y-25091809D02*
X28564428Y-25091809D01*
X28607971Y-25116000D01*
X28629742Y-25140190D01*
X28651514Y-25188571D01*
X28673285Y-25285333D01*
X28673285Y-25406285D01*
X28651514Y-25503047D01*
X28629742Y-25551428D01*
X28607971Y-25575619D01*
X28564428Y-25599809D01*
X28520885Y-25599809D01*
X28477342Y-25575619D01*
X28455571Y-25551428D01*
X28433800Y-25503047D01*
X28412028Y-25406285D01*
X28412028Y-25285333D01*
X28433800Y-25188571D01*
X28455571Y-25140190D01*
X28477342Y-25116000D01*
X28520885Y-25091809D01*
X28869228Y-25599809D02*
X28869228Y-25091809D01*
X28912771Y-25406285D02*
X29043400Y-25599809D01*
X29043400Y-25261142D02*
X28869228Y-25454666D01*
%TO.C,C12*%
D15*
X21213428Y-21828642D02*
X21189238Y-21856461D01*
X21116666Y-21884280D01*
X21068285Y-21884280D01*
X20995714Y-21856461D01*
X20947333Y-21800823D01*
X20923142Y-21745185D01*
X20898952Y-21633909D01*
X20898952Y-21550452D01*
X20923142Y-21439176D01*
X20947333Y-21383538D01*
X20995714Y-21327900D01*
X21068285Y-21300080D01*
X21116666Y-21300080D01*
X21189238Y-21327900D01*
X21213428Y-21355719D01*
X21697238Y-21884280D02*
X21406952Y-21884280D01*
X21552095Y-21884280D02*
X21552095Y-21300080D01*
X21503714Y-21383538D01*
X21455333Y-21439176D01*
X21406952Y-21466995D01*
X21890761Y-21355719D02*
X21914952Y-21327900D01*
X21963333Y-21300080D01*
X22084285Y-21300080D01*
X22132666Y-21327900D01*
X22156857Y-21355719D01*
X22181047Y-21411357D01*
X22181047Y-21466995D01*
X22156857Y-21550452D01*
X21866571Y-21884280D01*
X22181047Y-21884280D01*
D16*
X21453800Y-23639809D02*
X21192542Y-23639809D01*
X21323171Y-23639809D02*
X21323171Y-23131809D01*
X21279628Y-23204380D01*
X21236085Y-23252761D01*
X21192542Y-23276952D01*
X21845685Y-23301142D02*
X21845685Y-23639809D01*
X21649742Y-23301142D02*
X21649742Y-23567238D01*
X21671514Y-23615619D01*
X21715057Y-23639809D01*
X21780371Y-23639809D01*
X21823914Y-23615619D01*
X21845685Y-23591428D01*
%TO.C,C11*%
D15*
X29793428Y-22038642D02*
X29769238Y-22066461D01*
X29696666Y-22094280D01*
X29648285Y-22094280D01*
X29575714Y-22066461D01*
X29527333Y-22010823D01*
X29503142Y-21955185D01*
X29478952Y-21843909D01*
X29478952Y-21760452D01*
X29503142Y-21649176D01*
X29527333Y-21593538D01*
X29575714Y-21537900D01*
X29648285Y-21510080D01*
X29696666Y-21510080D01*
X29769238Y-21537900D01*
X29793428Y-21565719D01*
X30277238Y-22094280D02*
X29986952Y-22094280D01*
X30132095Y-22094280D02*
X30132095Y-21510080D01*
X30083714Y-21593538D01*
X30035333Y-21649176D01*
X29986952Y-21676995D01*
X30761047Y-22094280D02*
X30470761Y-22094280D01*
X30615904Y-22094280D02*
X30615904Y-21510080D01*
X30567523Y-21593538D01*
X30519142Y-21649176D01*
X30470761Y-21676995D01*
D16*
X28403800Y-22949809D02*
X28142542Y-22949809D01*
X28273171Y-22949809D02*
X28273171Y-22441809D01*
X28229628Y-22514380D01*
X28186085Y-22562761D01*
X28142542Y-22586952D01*
X28795685Y-22611142D02*
X28795685Y-22949809D01*
X28599742Y-22611142D02*
X28599742Y-22877238D01*
X28621514Y-22925619D01*
X28665057Y-22949809D01*
X28730371Y-22949809D01*
X28773914Y-22925619D01*
X28795685Y-22901428D01*
%TO.C,C10*%
D15*
X42043428Y-32018642D02*
X42019238Y-32046461D01*
X41946666Y-32074280D01*
X41898285Y-32074280D01*
X41825714Y-32046461D01*
X41777333Y-31990823D01*
X41753142Y-31935185D01*
X41728952Y-31823909D01*
X41728952Y-31740452D01*
X41753142Y-31629176D01*
X41777333Y-31573538D01*
X41825714Y-31517900D01*
X41898285Y-31490080D01*
X41946666Y-31490080D01*
X42019238Y-31517900D01*
X42043428Y-31545719D01*
X42527238Y-32074280D02*
X42236952Y-32074280D01*
X42382095Y-32074280D02*
X42382095Y-31490080D01*
X42333714Y-31573538D01*
X42285333Y-31629176D01*
X42236952Y-31656995D01*
X42841714Y-31490080D02*
X42890095Y-31490080D01*
X42938476Y-31517900D01*
X42962666Y-31545719D01*
X42986857Y-31601357D01*
X43011047Y-31712633D01*
X43011047Y-31851728D01*
X42986857Y-31963004D01*
X42962666Y-32018642D01*
X42938476Y-32046461D01*
X42890095Y-32074280D01*
X42841714Y-32074280D01*
X42793333Y-32046461D01*
X42769142Y-32018642D01*
X42744952Y-31963004D01*
X42720761Y-31851728D01*
X42720761Y-31712633D01*
X42744952Y-31601357D01*
X42769142Y-31545719D01*
X42793333Y-31517900D01*
X42841714Y-31490080D01*
D16*
X41854828Y-29731809D02*
X41898371Y-29731809D01*
X41941914Y-29756000D01*
X41963685Y-29780190D01*
X41985457Y-29828571D01*
X42007228Y-29925333D01*
X42007228Y-30046285D01*
X41985457Y-30143047D01*
X41963685Y-30191428D01*
X41941914Y-30215619D01*
X41898371Y-30239809D01*
X41854828Y-30239809D01*
X41811285Y-30215619D01*
X41789514Y-30191428D01*
X41767742Y-30143047D01*
X41745971Y-30046285D01*
X41745971Y-29925333D01*
X41767742Y-29828571D01*
X41789514Y-29780190D01*
X41811285Y-29756000D01*
X41854828Y-29731809D01*
X42203171Y-30191428D02*
X42224942Y-30215619D01*
X42203171Y-30239809D01*
X42181400Y-30215619D01*
X42203171Y-30191428D01*
X42203171Y-30239809D01*
X42660371Y-30239809D02*
X42399114Y-30239809D01*
X42529742Y-30239809D02*
X42529742Y-29731809D01*
X42486200Y-29804380D01*
X42442657Y-29852761D01*
X42399114Y-29876952D01*
X43052257Y-29901142D02*
X43052257Y-30239809D01*
X42856314Y-29901142D02*
X42856314Y-30167238D01*
X42878085Y-30215619D01*
X42921628Y-30239809D01*
X42986942Y-30239809D01*
X43030485Y-30215619D01*
X43052257Y-30191428D01*
%TO.C,C9*%
D15*
X44045333Y-32038642D02*
X44021142Y-32066461D01*
X43948571Y-32094280D01*
X43900190Y-32094280D01*
X43827619Y-32066461D01*
X43779238Y-32010823D01*
X43755047Y-31955185D01*
X43730857Y-31843909D01*
X43730857Y-31760452D01*
X43755047Y-31649176D01*
X43779238Y-31593538D01*
X43827619Y-31537900D01*
X43900190Y-31510080D01*
X43948571Y-31510080D01*
X44021142Y-31537900D01*
X44045333Y-31565719D01*
X44287238Y-32094280D02*
X44384000Y-32094280D01*
X44432380Y-32066461D01*
X44456571Y-32038642D01*
X44504952Y-31955185D01*
X44529142Y-31843909D01*
X44529142Y-31621357D01*
X44504952Y-31565719D01*
X44480761Y-31537900D01*
X44432380Y-31510080D01*
X44335619Y-31510080D01*
X44287238Y-31537900D01*
X44263047Y-31565719D01*
X44238857Y-31621357D01*
X44238857Y-31760452D01*
X44263047Y-31816090D01*
X44287238Y-31843909D01*
X44335619Y-31871728D01*
X44432380Y-31871728D01*
X44480761Y-31843909D01*
X44504952Y-31816090D01*
X44529142Y-31760452D01*
D16*
X43866085Y-30259809D02*
X43604828Y-30259809D01*
X43735457Y-30259809D02*
X43735457Y-29751809D01*
X43691914Y-29824380D01*
X43648371Y-29872761D01*
X43604828Y-29896952D01*
X44149114Y-29751809D02*
X44192657Y-29751809D01*
X44236200Y-29776000D01*
X44257971Y-29800190D01*
X44279742Y-29848571D01*
X44301514Y-29945333D01*
X44301514Y-30066285D01*
X44279742Y-30163047D01*
X44257971Y-30211428D01*
X44236200Y-30235619D01*
X44192657Y-30259809D01*
X44149114Y-30259809D01*
X44105571Y-30235619D01*
X44083800Y-30211428D01*
X44062028Y-30163047D01*
X44040257Y-30066285D01*
X44040257Y-29945333D01*
X44062028Y-29848571D01*
X44083800Y-29800190D01*
X44105571Y-29776000D01*
X44149114Y-29751809D01*
X44693400Y-29921142D02*
X44693400Y-30259809D01*
X44497457Y-29921142D02*
X44497457Y-30187238D01*
X44519228Y-30235619D01*
X44562771Y-30259809D01*
X44628085Y-30259809D01*
X44671628Y-30235619D01*
X44693400Y-30211428D01*
%TO.C,C8*%
D15*
X43995333Y-28368642D02*
X43971142Y-28396461D01*
X43898571Y-28424280D01*
X43850190Y-28424280D01*
X43777619Y-28396461D01*
X43729238Y-28340823D01*
X43705047Y-28285185D01*
X43680857Y-28173909D01*
X43680857Y-28090452D01*
X43705047Y-27979176D01*
X43729238Y-27923538D01*
X43777619Y-27867900D01*
X43850190Y-27840080D01*
X43898571Y-27840080D01*
X43971142Y-27867900D01*
X43995333Y-27895719D01*
X44285619Y-28090452D02*
X44237238Y-28062633D01*
X44213047Y-28034814D01*
X44188857Y-27979176D01*
X44188857Y-27951357D01*
X44213047Y-27895719D01*
X44237238Y-27867900D01*
X44285619Y-27840080D01*
X44382380Y-27840080D01*
X44430761Y-27867900D01*
X44454952Y-27895719D01*
X44479142Y-27951357D01*
X44479142Y-27979176D01*
X44454952Y-28034814D01*
X44430761Y-28062633D01*
X44382380Y-28090452D01*
X44285619Y-28090452D01*
X44237238Y-28118271D01*
X44213047Y-28146090D01*
X44188857Y-28201728D01*
X44188857Y-28313004D01*
X44213047Y-28368642D01*
X44237238Y-28396461D01*
X44285619Y-28424280D01*
X44382380Y-28424280D01*
X44430761Y-28396461D01*
X44454952Y-28368642D01*
X44479142Y-28313004D01*
X44479142Y-28201728D01*
X44454952Y-28146090D01*
X44430761Y-28118271D01*
X44382380Y-28090452D01*
D16*
X43816085Y-26599809D02*
X43554828Y-26599809D01*
X43685457Y-26599809D02*
X43685457Y-26091809D01*
X43641914Y-26164380D01*
X43598371Y-26212761D01*
X43554828Y-26236952D01*
X44099114Y-26091809D02*
X44142657Y-26091809D01*
X44186200Y-26116000D01*
X44207971Y-26140190D01*
X44229742Y-26188571D01*
X44251514Y-26285333D01*
X44251514Y-26406285D01*
X44229742Y-26503047D01*
X44207971Y-26551428D01*
X44186200Y-26575619D01*
X44142657Y-26599809D01*
X44099114Y-26599809D01*
X44055571Y-26575619D01*
X44033800Y-26551428D01*
X44012028Y-26503047D01*
X43990257Y-26406285D01*
X43990257Y-26285333D01*
X44012028Y-26188571D01*
X44033800Y-26140190D01*
X44055571Y-26116000D01*
X44099114Y-26091809D01*
X44643400Y-26261142D02*
X44643400Y-26599809D01*
X44447457Y-26261142D02*
X44447457Y-26527238D01*
X44469228Y-26575619D01*
X44512771Y-26599809D01*
X44578085Y-26599809D01*
X44621628Y-26575619D01*
X44643400Y-26551428D01*
%TO.C,C7*%
D15*
X44015333Y-21860642D02*
X43991142Y-21888461D01*
X43918571Y-21916280D01*
X43870190Y-21916280D01*
X43797619Y-21888461D01*
X43749238Y-21832823D01*
X43725047Y-21777185D01*
X43700857Y-21665909D01*
X43700857Y-21582452D01*
X43725047Y-21471176D01*
X43749238Y-21415538D01*
X43797619Y-21359900D01*
X43870190Y-21332080D01*
X43918571Y-21332080D01*
X43991142Y-21359900D01*
X44015333Y-21387719D01*
X44184666Y-21332080D02*
X44523333Y-21332080D01*
X44305619Y-21916280D01*
D16*
X43806085Y-23659809D02*
X43544828Y-23659809D01*
X43675457Y-23659809D02*
X43675457Y-23151809D01*
X43631914Y-23224380D01*
X43588371Y-23272761D01*
X43544828Y-23296952D01*
X44089114Y-23151809D02*
X44132657Y-23151809D01*
X44176200Y-23176000D01*
X44197971Y-23200190D01*
X44219742Y-23248571D01*
X44241514Y-23345333D01*
X44241514Y-23466285D01*
X44219742Y-23563047D01*
X44197971Y-23611428D01*
X44176200Y-23635619D01*
X44132657Y-23659809D01*
X44089114Y-23659809D01*
X44045571Y-23635619D01*
X44023800Y-23611428D01*
X44002028Y-23563047D01*
X43980257Y-23466285D01*
X43980257Y-23345333D01*
X44002028Y-23248571D01*
X44023800Y-23200190D01*
X44045571Y-23176000D01*
X44089114Y-23151809D01*
X44633400Y-23321142D02*
X44633400Y-23659809D01*
X44437457Y-23321142D02*
X44437457Y-23587238D01*
X44459228Y-23635619D01*
X44502771Y-23659809D01*
X44568085Y-23659809D01*
X44611628Y-23635619D01*
X44633400Y-23611428D01*
%TO.C,C6*%
D15*
X36208642Y-31234666D02*
X36236461Y-31258857D01*
X36264280Y-31331428D01*
X36264280Y-31379809D01*
X36236461Y-31452380D01*
X36180823Y-31500761D01*
X36125185Y-31524952D01*
X36013909Y-31549142D01*
X35930452Y-31549142D01*
X35819176Y-31524952D01*
X35763538Y-31500761D01*
X35707900Y-31452380D01*
X35680080Y-31379809D01*
X35680080Y-31331428D01*
X35707900Y-31258857D01*
X35735719Y-31234666D01*
X35680080Y-30799238D02*
X35680080Y-30896000D01*
X35707900Y-30944380D01*
X35735719Y-30968571D01*
X35819176Y-31016952D01*
X35930452Y-31041142D01*
X36153004Y-31041142D01*
X36208642Y-31016952D01*
X36236461Y-30992761D01*
X36264280Y-30944380D01*
X36264280Y-30847619D01*
X36236461Y-30799238D01*
X36208642Y-30775047D01*
X36153004Y-30750857D01*
X36013909Y-30750857D01*
X35958271Y-30775047D01*
X35930452Y-30799238D01*
X35902633Y-30847619D01*
X35902633Y-30944380D01*
X35930452Y-30992761D01*
X35958271Y-31016952D01*
X36013909Y-31041142D01*
D16*
X37481809Y-31325171D02*
X37481809Y-31281628D01*
X37506000Y-31238085D01*
X37530190Y-31216314D01*
X37578571Y-31194542D01*
X37675333Y-31172771D01*
X37796285Y-31172771D01*
X37893047Y-31194542D01*
X37941428Y-31216314D01*
X37965619Y-31238085D01*
X37989809Y-31281628D01*
X37989809Y-31325171D01*
X37965619Y-31368714D01*
X37941428Y-31390485D01*
X37893047Y-31412257D01*
X37796285Y-31434028D01*
X37675333Y-31434028D01*
X37578571Y-31412257D01*
X37530190Y-31390485D01*
X37506000Y-31368714D01*
X37481809Y-31325171D01*
X37941428Y-30976828D02*
X37965619Y-30955057D01*
X37989809Y-30976828D01*
X37965619Y-30998600D01*
X37941428Y-30976828D01*
X37989809Y-30976828D01*
X37989809Y-30519628D02*
X37989809Y-30780885D01*
X37989809Y-30650257D02*
X37481809Y-30650257D01*
X37554380Y-30693800D01*
X37602761Y-30737342D01*
X37626952Y-30780885D01*
X37651142Y-30127742D02*
X37989809Y-30127742D01*
X37651142Y-30323685D02*
X37917238Y-30323685D01*
X37965619Y-30301914D01*
X37989809Y-30258371D01*
X37989809Y-30193057D01*
X37965619Y-30149514D01*
X37941428Y-30127742D01*
%TO.C,C5*%
D15*
X40415333Y-32058642D02*
X40391142Y-32086461D01*
X40318571Y-32114280D01*
X40270190Y-32114280D01*
X40197619Y-32086461D01*
X40149238Y-32030823D01*
X40125047Y-31975185D01*
X40100857Y-31863909D01*
X40100857Y-31780452D01*
X40125047Y-31669176D01*
X40149238Y-31613538D01*
X40197619Y-31557900D01*
X40270190Y-31530080D01*
X40318571Y-31530080D01*
X40391142Y-31557900D01*
X40415333Y-31585719D01*
X40874952Y-31530080D02*
X40633047Y-31530080D01*
X40608857Y-31808271D01*
X40633047Y-31780452D01*
X40681428Y-31752633D01*
X40802380Y-31752633D01*
X40850761Y-31780452D01*
X40874952Y-31808271D01*
X40899142Y-31863909D01*
X40899142Y-32003004D01*
X40874952Y-32058642D01*
X40850761Y-32086461D01*
X40802380Y-32114280D01*
X40681428Y-32114280D01*
X40633047Y-32086461D01*
X40608857Y-32058642D01*
D16*
X40266085Y-30259809D02*
X40004828Y-30259809D01*
X40135457Y-30259809D02*
X40135457Y-29751809D01*
X40091914Y-29824380D01*
X40048371Y-29872761D01*
X40004828Y-29896952D01*
X40549114Y-29751809D02*
X40592657Y-29751809D01*
X40636200Y-29776000D01*
X40657971Y-29800190D01*
X40679742Y-29848571D01*
X40701514Y-29945333D01*
X40701514Y-30066285D01*
X40679742Y-30163047D01*
X40657971Y-30211428D01*
X40636200Y-30235619D01*
X40592657Y-30259809D01*
X40549114Y-30259809D01*
X40505571Y-30235619D01*
X40483800Y-30211428D01*
X40462028Y-30163047D01*
X40440257Y-30066285D01*
X40440257Y-29945333D01*
X40462028Y-29848571D01*
X40483800Y-29800190D01*
X40505571Y-29776000D01*
X40549114Y-29751809D01*
X41093400Y-29921142D02*
X41093400Y-30259809D01*
X40897457Y-29921142D02*
X40897457Y-30187238D01*
X40919228Y-30235619D01*
X40962771Y-30259809D01*
X41028085Y-30259809D01*
X41071628Y-30235619D01*
X41093400Y-30211428D01*
%TO.C,C4*%
D15*
X28415333Y-31716642D02*
X28391142Y-31744461D01*
X28318571Y-31772280D01*
X28270190Y-31772280D01*
X28197619Y-31744461D01*
X28149238Y-31688823D01*
X28125047Y-31633185D01*
X28100857Y-31521909D01*
X28100857Y-31438452D01*
X28125047Y-31327176D01*
X28149238Y-31271538D01*
X28197619Y-31215900D01*
X28270190Y-31188080D01*
X28318571Y-31188080D01*
X28391142Y-31215900D01*
X28415333Y-31243719D01*
X28850761Y-31382814D02*
X28850761Y-31772280D01*
X28729809Y-31160261D02*
X28608857Y-31577547D01*
X28923333Y-31577547D01*
D16*
X27944828Y-29451809D02*
X27988371Y-29451809D01*
X28031914Y-29476000D01*
X28053685Y-29500190D01*
X28075457Y-29548571D01*
X28097228Y-29645333D01*
X28097228Y-29766285D01*
X28075457Y-29863047D01*
X28053685Y-29911428D01*
X28031914Y-29935619D01*
X27988371Y-29959809D01*
X27944828Y-29959809D01*
X27901285Y-29935619D01*
X27879514Y-29911428D01*
X27857742Y-29863047D01*
X27835971Y-29766285D01*
X27835971Y-29645333D01*
X27857742Y-29548571D01*
X27879514Y-29500190D01*
X27901285Y-29476000D01*
X27944828Y-29451809D01*
X28293171Y-29911428D02*
X28314942Y-29935619D01*
X28293171Y-29959809D01*
X28271400Y-29935619D01*
X28293171Y-29911428D01*
X28293171Y-29959809D01*
X28750371Y-29959809D02*
X28489114Y-29959809D01*
X28619742Y-29959809D02*
X28619742Y-29451809D01*
X28576200Y-29524380D01*
X28532657Y-29572761D01*
X28489114Y-29596952D01*
X29142257Y-29621142D02*
X29142257Y-29959809D01*
X28946314Y-29621142D02*
X28946314Y-29887238D01*
X28968085Y-29935619D01*
X29011628Y-29959809D01*
X29076942Y-29959809D01*
X29120485Y-29935619D01*
X29142257Y-29911428D01*
%TO.C,C3*%
D15*
X26705333Y-25628642D02*
X26681142Y-25656461D01*
X26608571Y-25684280D01*
X26560190Y-25684280D01*
X26487619Y-25656461D01*
X26439238Y-25600823D01*
X26415047Y-25545185D01*
X26390857Y-25433909D01*
X26390857Y-25350452D01*
X26415047Y-25239176D01*
X26439238Y-25183538D01*
X26487619Y-25127900D01*
X26560190Y-25100080D01*
X26608571Y-25100080D01*
X26681142Y-25127900D01*
X26705333Y-25155719D01*
X26874666Y-25100080D02*
X27189142Y-25100080D01*
X27019809Y-25322633D01*
X27092380Y-25322633D01*
X27140761Y-25350452D01*
X27164952Y-25378271D01*
X27189142Y-25433909D01*
X27189142Y-25573004D01*
X27164952Y-25628642D01*
X27140761Y-25656461D01*
X27092380Y-25684280D01*
X26947238Y-25684280D01*
X26898857Y-25656461D01*
X26874666Y-25628642D01*
D16*
X26284828Y-26821809D02*
X26328371Y-26821809D01*
X26371914Y-26846000D01*
X26393685Y-26870190D01*
X26415457Y-26918571D01*
X26437228Y-27015333D01*
X26437228Y-27136285D01*
X26415457Y-27233047D01*
X26393685Y-27281428D01*
X26371914Y-27305619D01*
X26328371Y-27329809D01*
X26284828Y-27329809D01*
X26241285Y-27305619D01*
X26219514Y-27281428D01*
X26197742Y-27233047D01*
X26175971Y-27136285D01*
X26175971Y-27015333D01*
X26197742Y-26918571D01*
X26219514Y-26870190D01*
X26241285Y-26846000D01*
X26284828Y-26821809D01*
X26633171Y-27281428D02*
X26654942Y-27305619D01*
X26633171Y-27329809D01*
X26611400Y-27305619D01*
X26633171Y-27281428D01*
X26633171Y-27329809D01*
X27090371Y-27329809D02*
X26829114Y-27329809D01*
X26959742Y-27329809D02*
X26959742Y-26821809D01*
X26916200Y-26894380D01*
X26872657Y-26942761D01*
X26829114Y-26966952D01*
X27482257Y-26991142D02*
X27482257Y-27329809D01*
X27286314Y-26991142D02*
X27286314Y-27257238D01*
X27308085Y-27305619D01*
X27351628Y-27329809D01*
X27416942Y-27329809D01*
X27460485Y-27305619D01*
X27482257Y-27281428D01*
%TO.C,C2*%
D15*
X26765333Y-31726642D02*
X26741142Y-31754461D01*
X26668571Y-31782280D01*
X26620190Y-31782280D01*
X26547619Y-31754461D01*
X26499238Y-31698823D01*
X26475047Y-31643185D01*
X26450857Y-31531909D01*
X26450857Y-31448452D01*
X26475047Y-31337176D01*
X26499238Y-31281538D01*
X26547619Y-31225900D01*
X26620190Y-31198080D01*
X26668571Y-31198080D01*
X26741142Y-31225900D01*
X26765333Y-31253719D01*
X26958857Y-31253719D02*
X26983047Y-31225900D01*
X27031428Y-31198080D01*
X27152380Y-31198080D01*
X27200761Y-31225900D01*
X27224952Y-31253719D01*
X27249142Y-31309357D01*
X27249142Y-31364995D01*
X27224952Y-31448452D01*
X26934666Y-31782280D01*
X27249142Y-31782280D01*
D16*
X26556085Y-29969809D02*
X26294828Y-29969809D01*
X26425457Y-29969809D02*
X26425457Y-29461809D01*
X26381914Y-29534380D01*
X26338371Y-29582761D01*
X26294828Y-29606952D01*
X26839114Y-29461809D02*
X26882657Y-29461809D01*
X26926200Y-29486000D01*
X26947971Y-29510190D01*
X26969742Y-29558571D01*
X26991514Y-29655333D01*
X26991514Y-29776285D01*
X26969742Y-29873047D01*
X26947971Y-29921428D01*
X26926200Y-29945619D01*
X26882657Y-29969809D01*
X26839114Y-29969809D01*
X26795571Y-29945619D01*
X26773800Y-29921428D01*
X26752028Y-29873047D01*
X26730257Y-29776285D01*
X26730257Y-29655333D01*
X26752028Y-29558571D01*
X26773800Y-29510190D01*
X26795571Y-29486000D01*
X26839114Y-29461809D01*
X27383400Y-29631142D02*
X27383400Y-29969809D01*
X27187457Y-29631142D02*
X27187457Y-29897238D01*
X27209228Y-29945619D01*
X27252771Y-29969809D01*
X27318085Y-29969809D01*
X27361628Y-29945619D01*
X27383400Y-29921428D01*
%TO.C,C1*%
D15*
X25075333Y-25628642D02*
X25051142Y-25656461D01*
X24978571Y-25684280D01*
X24930190Y-25684280D01*
X24857619Y-25656461D01*
X24809238Y-25600823D01*
X24785047Y-25545185D01*
X24760857Y-25433909D01*
X24760857Y-25350452D01*
X24785047Y-25239176D01*
X24809238Y-25183538D01*
X24857619Y-25127900D01*
X24930190Y-25100080D01*
X24978571Y-25100080D01*
X25051142Y-25127900D01*
X25075333Y-25155719D01*
X25559142Y-25684280D02*
X25268857Y-25684280D01*
X25414000Y-25684280D02*
X25414000Y-25100080D01*
X25365619Y-25183538D01*
X25317238Y-25239176D01*
X25268857Y-25266995D01*
D16*
X24896085Y-27339809D02*
X24634828Y-27339809D01*
X24765457Y-27339809D02*
X24765457Y-26831809D01*
X24721914Y-26904380D01*
X24678371Y-26952761D01*
X24634828Y-26976952D01*
X25179114Y-26831809D02*
X25222657Y-26831809D01*
X25266200Y-26856000D01*
X25287971Y-26880190D01*
X25309742Y-26928571D01*
X25331514Y-27025333D01*
X25331514Y-27146285D01*
X25309742Y-27243047D01*
X25287971Y-27291428D01*
X25266200Y-27315619D01*
X25222657Y-27339809D01*
X25179114Y-27339809D01*
X25135571Y-27315619D01*
X25113800Y-27291428D01*
X25092028Y-27243047D01*
X25070257Y-27146285D01*
X25070257Y-27025333D01*
X25092028Y-26928571D01*
X25113800Y-26880190D01*
X25135571Y-26856000D01*
X25179114Y-26831809D01*
X25723400Y-27001142D02*
X25723400Y-27339809D01*
X25527457Y-27001142D02*
X25527457Y-27267238D01*
X25549228Y-27315619D01*
X25592771Y-27339809D01*
X25658085Y-27339809D01*
X25701628Y-27315619D01*
X25723400Y-27291428D01*
%TD*%
M02*
