%TF.GenerationSoftware,KiCad,Pcbnew,5.1.9+dfsg1-1*%
%TF.CreationDate,2021-08-01T21:30:50+03:00*%
%TF.ProjectId,neogeo_aadc,6e656f67-656f-45f6-9161-64632e6b6963,rev?*%
%TF.SameCoordinates,Original*%
%TF.FileFunction,Copper,L2,Bot*%
%TF.FilePolarity,Positive*%
%FSLAX46Y46*%
G04 Gerber Fmt 4.6, Leading zero omitted, Abs format (unit mm)*
G04 Created by KiCad (PCBNEW 5.1.9+dfsg1-1) date 2021-08-01 21:30:50*
%MOMM*%
%LPD*%
G01*
G04 APERTURE LIST*
%TA.AperFunction,ViaPad*%
%ADD10C,0.800000*%
%TD*%
%TA.AperFunction,Conductor*%
%ADD11C,0.250000*%
%TD*%
%TA.AperFunction,Conductor*%
%ADD12C,0.254000*%
%TD*%
%TA.AperFunction,Conductor*%
%ADD13C,0.100000*%
%TD*%
G04 APERTURE END LIST*
D10*
%TO.N,GND*%
X25388902Y-23243577D03*
X22440000Y-23230000D03*
X36050000Y-28890000D03*
X36376066Y-26730675D03*
X33150000Y-28580000D03*
X45480000Y-24760000D03*
X45400000Y-30310000D03*
X35220000Y-31250000D03*
X34090000Y-31270000D03*
X29760000Y-27790000D03*
X24550000Y-29190000D03*
X25620000Y-29180000D03*
X23100000Y-30250000D03*
X21500000Y-30270000D03*
X19920000Y-30240000D03*
X18370000Y-30270000D03*
X36750000Y-22000000D03*
X38610000Y-22020000D03*
X45460000Y-27690000D03*
%TO.N,/DVDD5*%
X29370000Y-22550000D03*
X35060000Y-27020000D03*
%TO.N,Net-(R1-Pad2)*%
X27338088Y-25011315D03*
X33877340Y-24672660D03*
%TO.N,Net-(TP4-Pad1)*%
X31880000Y-21970000D03*
X20220000Y-22010000D03*
%TO.N,Net-(TP5-Pad1)*%
X20020000Y-25300000D03*
X29713744Y-24989989D03*
%TO.N,Net-(TP6-Pad1)*%
X20340000Y-26950000D03*
X29780000Y-26440000D03*
%TO.N,Net-(U1-Pad4)*%
X23870000Y-25770000D03*
X29705651Y-23491989D03*
%TD*%
D11*
%TO.N,GND*%
X25375325Y-23230000D02*
X25388902Y-23243577D01*
X22440000Y-23230000D02*
X25375325Y-23230000D01*
X36376066Y-28563934D02*
X36376066Y-26730675D01*
X36050000Y-28890000D02*
X36376066Y-28563934D01*
X35740000Y-28580000D02*
X36050000Y-28890000D01*
X33150000Y-28580000D02*
X35740000Y-28580000D01*
X45480000Y-30230000D02*
X45400000Y-30310000D01*
X34110000Y-31250000D02*
X34090000Y-31270000D01*
X35220000Y-31250000D02*
X34110000Y-31250000D01*
X25610000Y-29190000D02*
X25620000Y-29180000D01*
X24550000Y-29190000D02*
X25610000Y-29190000D01*
X21520000Y-30250000D02*
X21500000Y-30270000D01*
X23100000Y-30250000D02*
X21520000Y-30250000D01*
X18400000Y-30240000D02*
X18370000Y-30270000D01*
X19920000Y-30240000D02*
X18400000Y-30240000D01*
X36376066Y-26730675D02*
X36376066Y-22336066D01*
X36712132Y-22000000D02*
X36750000Y-22000000D01*
X36376066Y-22336066D02*
X36712132Y-22000000D01*
X45480000Y-27710000D02*
X45460000Y-27690000D01*
X45480000Y-27900000D02*
X45480000Y-27710000D01*
X45480000Y-24760000D02*
X45480000Y-27900000D01*
X45480000Y-27900000D02*
X45480000Y-30230000D01*
%TO.N,/DVDD5*%
X35060000Y-24794315D02*
X35060000Y-27020000D01*
X31970000Y-23510000D02*
X33775685Y-23510000D01*
X31010000Y-22550000D02*
X31970000Y-23510000D01*
X29370000Y-22550000D02*
X31010000Y-22550000D01*
X33775685Y-23510000D02*
X35060000Y-24794315D01*
%TO.N,Net-(R1-Pad2)*%
X27338088Y-25011315D02*
X27378685Y-25011315D01*
X28084415Y-24264988D02*
X33469668Y-24264988D01*
X27338088Y-25011315D02*
X28084415Y-24264988D01*
X33469668Y-24264988D02*
X33877340Y-24672660D01*
%TO.N,Net-(TP4-Pad1)*%
X20450000Y-21780000D02*
X20220000Y-22010000D01*
X31690000Y-21780000D02*
X20450000Y-21780000D01*
X31880000Y-21970000D02*
X31690000Y-21780000D01*
%TO.N,Net-(TP5-Pad1)*%
X20020000Y-25300000D02*
X21990000Y-25300000D01*
X21990000Y-25300000D02*
X23430000Y-26740000D01*
X23430000Y-26740000D02*
X27963733Y-26740000D01*
X27963733Y-26740000D02*
X29713744Y-24989989D01*
%TO.N,Net-(TP6-Pad1)*%
X20340000Y-26950000D02*
X22340000Y-26950000D01*
X22340000Y-26950000D02*
X22990000Y-27600000D01*
X28620000Y-27600000D02*
X29780000Y-26440000D01*
X22990000Y-27600000D02*
X28620000Y-27600000D01*
%TO.N,Net-(U1-Pad4)*%
X23870000Y-25770000D02*
X25120000Y-25770000D01*
X27398011Y-23491989D02*
X29705651Y-23491989D01*
X25120000Y-25770000D02*
X27398011Y-23491989D01*
%TD*%
D12*
%TO.N,GND*%
X19185000Y-21908061D02*
X19185000Y-22111939D01*
X19224774Y-22311898D01*
X19302795Y-22500256D01*
X19416063Y-22669774D01*
X19560226Y-22813937D01*
X19729744Y-22927205D01*
X19918102Y-23005226D01*
X20118061Y-23045000D01*
X20321939Y-23045000D01*
X20521898Y-23005226D01*
X20710256Y-22927205D01*
X20879774Y-22813937D01*
X21023937Y-22669774D01*
X21110649Y-22540000D01*
X28335000Y-22540000D01*
X28335000Y-22651939D01*
X28350923Y-22731989D01*
X27435333Y-22731989D01*
X27398010Y-22728313D01*
X27360687Y-22731989D01*
X27360678Y-22731989D01*
X27249025Y-22742986D01*
X27105764Y-22786443D01*
X26973734Y-22857015D01*
X26936948Y-22887205D01*
X26858010Y-22951988D01*
X26834212Y-22980986D01*
X24805199Y-25010000D01*
X24573711Y-25010000D01*
X24529774Y-24966063D01*
X24360256Y-24852795D01*
X24171898Y-24774774D01*
X23971939Y-24735000D01*
X23768061Y-24735000D01*
X23568102Y-24774774D01*
X23379744Y-24852795D01*
X23210226Y-24966063D01*
X23066063Y-25110226D01*
X22989545Y-25224744D01*
X22553804Y-24789003D01*
X22530001Y-24759999D01*
X22414276Y-24665026D01*
X22282247Y-24594454D01*
X22138986Y-24550997D01*
X22027333Y-24540000D01*
X22027322Y-24540000D01*
X21990000Y-24536324D01*
X21952678Y-24540000D01*
X20723711Y-24540000D01*
X20679774Y-24496063D01*
X20510256Y-24382795D01*
X20321898Y-24304774D01*
X20121939Y-24265000D01*
X19918061Y-24265000D01*
X19718102Y-24304774D01*
X19529744Y-24382795D01*
X19360226Y-24496063D01*
X19216063Y-24640226D01*
X19102795Y-24809744D01*
X19024774Y-24998102D01*
X18985000Y-25198061D01*
X18985000Y-25401939D01*
X19024774Y-25601898D01*
X19102795Y-25790256D01*
X19216063Y-25959774D01*
X19360226Y-26103937D01*
X19529744Y-26217205D01*
X19585846Y-26240443D01*
X19536063Y-26290226D01*
X19422795Y-26459744D01*
X19344774Y-26648102D01*
X19305000Y-26848061D01*
X19305000Y-27051939D01*
X19344774Y-27251898D01*
X19422795Y-27440256D01*
X19536063Y-27609774D01*
X19680226Y-27753937D01*
X19849744Y-27867205D01*
X20038102Y-27945226D01*
X20238061Y-27985000D01*
X20441939Y-27985000D01*
X20641898Y-27945226D01*
X20830256Y-27867205D01*
X20999774Y-27753937D01*
X21043711Y-27710000D01*
X22025199Y-27710000D01*
X22426200Y-28111002D01*
X22449999Y-28140001D01*
X22565724Y-28234974D01*
X22697753Y-28305546D01*
X22841014Y-28349003D01*
X22952667Y-28360000D01*
X22952677Y-28360000D01*
X22990000Y-28363676D01*
X23027323Y-28360000D01*
X28582678Y-28360000D01*
X28620000Y-28363676D01*
X28657322Y-28360000D01*
X28657333Y-28360000D01*
X28768986Y-28349003D01*
X28912247Y-28305546D01*
X29044276Y-28234974D01*
X29160001Y-28140001D01*
X29183804Y-28110997D01*
X29819802Y-27475000D01*
X29881939Y-27475000D01*
X30081898Y-27435226D01*
X30270256Y-27357205D01*
X30439774Y-27243937D01*
X30583937Y-27099774D01*
X30697205Y-26930256D01*
X30775226Y-26741898D01*
X30815000Y-26541939D01*
X30815000Y-26338061D01*
X30775226Y-26138102D01*
X30697205Y-25949744D01*
X30583937Y-25780226D01*
X30485578Y-25681867D01*
X30517681Y-25649763D01*
X30630949Y-25480245D01*
X30708970Y-25291887D01*
X30748744Y-25091928D01*
X30748744Y-25024988D01*
X32903003Y-25024988D01*
X32960135Y-25162916D01*
X33073403Y-25332434D01*
X33217566Y-25476597D01*
X33387084Y-25589865D01*
X33575442Y-25667886D01*
X33775401Y-25707660D01*
X33979279Y-25707660D01*
X34179238Y-25667886D01*
X34300000Y-25617864D01*
X34300001Y-26316288D01*
X34256063Y-26360226D01*
X34142795Y-26529744D01*
X34064774Y-26718102D01*
X34025000Y-26918061D01*
X34025000Y-27121939D01*
X34064774Y-27321898D01*
X34142795Y-27510256D01*
X34256063Y-27679774D01*
X34400226Y-27823937D01*
X34569744Y-27937205D01*
X34758102Y-28015226D01*
X34958061Y-28055000D01*
X35161939Y-28055000D01*
X35361898Y-28015226D01*
X35550256Y-27937205D01*
X35719774Y-27823937D01*
X35863937Y-27679774D01*
X35977205Y-27510256D01*
X36055226Y-27321898D01*
X36095000Y-27121939D01*
X36095000Y-26918061D01*
X36055226Y-26718102D01*
X35977205Y-26529744D01*
X35863937Y-26360226D01*
X35820000Y-26316289D01*
X35820000Y-24831640D01*
X35823676Y-24794315D01*
X35820000Y-24756990D01*
X35820000Y-24756982D01*
X35809003Y-24645329D01*
X35765546Y-24502068D01*
X35694974Y-24370039D01*
X35600001Y-24254314D01*
X35571004Y-24230517D01*
X34339489Y-22999003D01*
X34315686Y-22969999D01*
X34199961Y-22875026D01*
X34067932Y-22804454D01*
X33924671Y-22760997D01*
X33813018Y-22750000D01*
X33813007Y-22750000D01*
X33775685Y-22746324D01*
X33738363Y-22750000D01*
X32563711Y-22750000D01*
X32683937Y-22629774D01*
X32797205Y-22460256D01*
X32875226Y-22271898D01*
X32915000Y-22071939D01*
X32915000Y-21905000D01*
X48705000Y-21905000D01*
X48705001Y-31435000D01*
X16655000Y-31435000D01*
X16655000Y-21905000D01*
X19185609Y-21905000D01*
X19185000Y-21908061D01*
%TA.AperFunction,Conductor*%
D13*
G36*
X19185000Y-21908061D02*
G01*
X19185000Y-22111939D01*
X19224774Y-22311898D01*
X19302795Y-22500256D01*
X19416063Y-22669774D01*
X19560226Y-22813937D01*
X19729744Y-22927205D01*
X19918102Y-23005226D01*
X20118061Y-23045000D01*
X20321939Y-23045000D01*
X20521898Y-23005226D01*
X20710256Y-22927205D01*
X20879774Y-22813937D01*
X21023937Y-22669774D01*
X21110649Y-22540000D01*
X28335000Y-22540000D01*
X28335000Y-22651939D01*
X28350923Y-22731989D01*
X27435333Y-22731989D01*
X27398010Y-22728313D01*
X27360687Y-22731989D01*
X27360678Y-22731989D01*
X27249025Y-22742986D01*
X27105764Y-22786443D01*
X26973734Y-22857015D01*
X26936948Y-22887205D01*
X26858010Y-22951988D01*
X26834212Y-22980986D01*
X24805199Y-25010000D01*
X24573711Y-25010000D01*
X24529774Y-24966063D01*
X24360256Y-24852795D01*
X24171898Y-24774774D01*
X23971939Y-24735000D01*
X23768061Y-24735000D01*
X23568102Y-24774774D01*
X23379744Y-24852795D01*
X23210226Y-24966063D01*
X23066063Y-25110226D01*
X22989545Y-25224744D01*
X22553804Y-24789003D01*
X22530001Y-24759999D01*
X22414276Y-24665026D01*
X22282247Y-24594454D01*
X22138986Y-24550997D01*
X22027333Y-24540000D01*
X22027322Y-24540000D01*
X21990000Y-24536324D01*
X21952678Y-24540000D01*
X20723711Y-24540000D01*
X20679774Y-24496063D01*
X20510256Y-24382795D01*
X20321898Y-24304774D01*
X20121939Y-24265000D01*
X19918061Y-24265000D01*
X19718102Y-24304774D01*
X19529744Y-24382795D01*
X19360226Y-24496063D01*
X19216063Y-24640226D01*
X19102795Y-24809744D01*
X19024774Y-24998102D01*
X18985000Y-25198061D01*
X18985000Y-25401939D01*
X19024774Y-25601898D01*
X19102795Y-25790256D01*
X19216063Y-25959774D01*
X19360226Y-26103937D01*
X19529744Y-26217205D01*
X19585846Y-26240443D01*
X19536063Y-26290226D01*
X19422795Y-26459744D01*
X19344774Y-26648102D01*
X19305000Y-26848061D01*
X19305000Y-27051939D01*
X19344774Y-27251898D01*
X19422795Y-27440256D01*
X19536063Y-27609774D01*
X19680226Y-27753937D01*
X19849744Y-27867205D01*
X20038102Y-27945226D01*
X20238061Y-27985000D01*
X20441939Y-27985000D01*
X20641898Y-27945226D01*
X20830256Y-27867205D01*
X20999774Y-27753937D01*
X21043711Y-27710000D01*
X22025199Y-27710000D01*
X22426200Y-28111002D01*
X22449999Y-28140001D01*
X22565724Y-28234974D01*
X22697753Y-28305546D01*
X22841014Y-28349003D01*
X22952667Y-28360000D01*
X22952677Y-28360000D01*
X22990000Y-28363676D01*
X23027323Y-28360000D01*
X28582678Y-28360000D01*
X28620000Y-28363676D01*
X28657322Y-28360000D01*
X28657333Y-28360000D01*
X28768986Y-28349003D01*
X28912247Y-28305546D01*
X29044276Y-28234974D01*
X29160001Y-28140001D01*
X29183804Y-28110997D01*
X29819802Y-27475000D01*
X29881939Y-27475000D01*
X30081898Y-27435226D01*
X30270256Y-27357205D01*
X30439774Y-27243937D01*
X30583937Y-27099774D01*
X30697205Y-26930256D01*
X30775226Y-26741898D01*
X30815000Y-26541939D01*
X30815000Y-26338061D01*
X30775226Y-26138102D01*
X30697205Y-25949744D01*
X30583937Y-25780226D01*
X30485578Y-25681867D01*
X30517681Y-25649763D01*
X30630949Y-25480245D01*
X30708970Y-25291887D01*
X30748744Y-25091928D01*
X30748744Y-25024988D01*
X32903003Y-25024988D01*
X32960135Y-25162916D01*
X33073403Y-25332434D01*
X33217566Y-25476597D01*
X33387084Y-25589865D01*
X33575442Y-25667886D01*
X33775401Y-25707660D01*
X33979279Y-25707660D01*
X34179238Y-25667886D01*
X34300000Y-25617864D01*
X34300001Y-26316288D01*
X34256063Y-26360226D01*
X34142795Y-26529744D01*
X34064774Y-26718102D01*
X34025000Y-26918061D01*
X34025000Y-27121939D01*
X34064774Y-27321898D01*
X34142795Y-27510256D01*
X34256063Y-27679774D01*
X34400226Y-27823937D01*
X34569744Y-27937205D01*
X34758102Y-28015226D01*
X34958061Y-28055000D01*
X35161939Y-28055000D01*
X35361898Y-28015226D01*
X35550256Y-27937205D01*
X35719774Y-27823937D01*
X35863937Y-27679774D01*
X35977205Y-27510256D01*
X36055226Y-27321898D01*
X36095000Y-27121939D01*
X36095000Y-26918061D01*
X36055226Y-26718102D01*
X35977205Y-26529744D01*
X35863937Y-26360226D01*
X35820000Y-26316289D01*
X35820000Y-24831640D01*
X35823676Y-24794315D01*
X35820000Y-24756990D01*
X35820000Y-24756982D01*
X35809003Y-24645329D01*
X35765546Y-24502068D01*
X35694974Y-24370039D01*
X35600001Y-24254314D01*
X35571004Y-24230517D01*
X34339489Y-22999003D01*
X34315686Y-22969999D01*
X34199961Y-22875026D01*
X34067932Y-22804454D01*
X33924671Y-22760997D01*
X33813018Y-22750000D01*
X33813007Y-22750000D01*
X33775685Y-22746324D01*
X33738363Y-22750000D01*
X32563711Y-22750000D01*
X32683937Y-22629774D01*
X32797205Y-22460256D01*
X32875226Y-22271898D01*
X32915000Y-22071939D01*
X32915000Y-21905000D01*
X48705000Y-21905000D01*
X48705001Y-31435000D01*
X16655000Y-31435000D01*
X16655000Y-21905000D01*
X19185609Y-21905000D01*
X19185000Y-21908061D01*
G37*
%TD.AperFunction*%
%TD*%
M02*
