G04 #@! TF.GenerationSoftware,KiCad,Pcbnew,5.0.1+dfsg1-3*
G04 #@! TF.CreationDate,2018-11-24T15:47:24+02:00*
G04 #@! TF.ProjectId,cps2_digiav,637073325F6469676961762E6B696361,rev?*
G04 #@! TF.SameCoordinates,Original*
G04 #@! TF.FileFunction,Legend,Top*
G04 #@! TF.FilePolarity,Positive*
%FSLAX46Y46*%
G04 Gerber Fmt 4.6, Leading zero omitted, Abs format (unit mm)*
G04 Created by KiCad (PCBNEW 5.0.1+dfsg1-3) date 2018-11-24T15:47:24 EET*
%MOMM*%
%LPD*%
G01*
G04 APERTURE LIST*
%ADD10C,0.300000*%
%ADD11C,0.150000*%
%ADD12C,0.119380*%
%ADD13C,0.120000*%
%ADD14C,0.100000*%
%ADD15C,0.127000*%
%ADD16C,0.114300*%
G04 APERTURE END LIST*
D10*
X130815714Y-70711428D02*
X130887142Y-70782857D01*
X130958571Y-70997142D01*
X130958571Y-71140000D01*
X130887142Y-71354285D01*
X130744285Y-71497142D01*
X130601428Y-71568571D01*
X130315714Y-71640000D01*
X130101428Y-71640000D01*
X129815714Y-71568571D01*
X129672857Y-71497142D01*
X129530000Y-71354285D01*
X129458571Y-71140000D01*
X129458571Y-70997142D01*
X129530000Y-70782857D01*
X129601428Y-70711428D01*
X130958571Y-70068571D02*
X129458571Y-70068571D01*
X129458571Y-69497142D01*
X129530000Y-69354285D01*
X129601428Y-69282857D01*
X129744285Y-69211428D01*
X129958571Y-69211428D01*
X130101428Y-69282857D01*
X130172857Y-69354285D01*
X130244285Y-69497142D01*
X130244285Y-70068571D01*
X130887142Y-68640000D02*
X130958571Y-68425714D01*
X130958571Y-68068571D01*
X130887142Y-67925714D01*
X130815714Y-67854285D01*
X130672857Y-67782857D01*
X130530000Y-67782857D01*
X130387142Y-67854285D01*
X130315714Y-67925714D01*
X130244285Y-68068571D01*
X130172857Y-68354285D01*
X130101428Y-68497142D01*
X130030000Y-68568571D01*
X129887142Y-68640000D01*
X129744285Y-68640000D01*
X129601428Y-68568571D01*
X129530000Y-68497142D01*
X129458571Y-68354285D01*
X129458571Y-67997142D01*
X129530000Y-67782857D01*
X129601428Y-67211428D02*
X129530000Y-67140000D01*
X129458571Y-66997142D01*
X129458571Y-66640000D01*
X129530000Y-66497142D01*
X129601428Y-66425714D01*
X129744285Y-66354285D01*
X129887142Y-66354285D01*
X130101428Y-66425714D01*
X130958571Y-67282857D01*
X130958571Y-66354285D01*
X131101428Y-66068571D02*
X131101428Y-64925714D01*
X130958571Y-63925714D02*
X129458571Y-63925714D01*
X130887142Y-63925714D02*
X130958571Y-64068571D01*
X130958571Y-64354285D01*
X130887142Y-64497142D01*
X130815714Y-64568571D01*
X130672857Y-64640000D01*
X130244285Y-64640000D01*
X130101428Y-64568571D01*
X130030000Y-64497142D01*
X129958571Y-64354285D01*
X129958571Y-64068571D01*
X130030000Y-63925714D01*
X130958571Y-63211428D02*
X129958571Y-63211428D01*
X129458571Y-63211428D02*
X129530000Y-63282857D01*
X129601428Y-63211428D01*
X129530000Y-63140000D01*
X129458571Y-63211428D01*
X129601428Y-63211428D01*
X129958571Y-61854285D02*
X131172857Y-61854285D01*
X131315714Y-61925714D01*
X131387142Y-61997142D01*
X131458571Y-62140000D01*
X131458571Y-62354285D01*
X131387142Y-62497142D01*
X130887142Y-61854285D02*
X130958571Y-61997142D01*
X130958571Y-62282857D01*
X130887142Y-62425714D01*
X130815714Y-62497142D01*
X130672857Y-62568571D01*
X130244285Y-62568571D01*
X130101428Y-62497142D01*
X130030000Y-62425714D01*
X129958571Y-62282857D01*
X129958571Y-61997142D01*
X130030000Y-61854285D01*
X130958571Y-61140000D02*
X129958571Y-61140000D01*
X129458571Y-61140000D02*
X129530000Y-61211428D01*
X129601428Y-61140000D01*
X129530000Y-61068571D01*
X129458571Y-61140000D01*
X129601428Y-61140000D01*
X130530000Y-60497142D02*
X130530000Y-59782857D01*
X130958571Y-60640000D02*
X129458571Y-60140000D01*
X130958571Y-59640000D01*
X129458571Y-59354285D02*
X130958571Y-58854285D01*
X129458571Y-58354285D01*
X129958571Y-56854285D02*
X130958571Y-56497142D01*
X129958571Y-56140000D01*
X129601428Y-55640000D02*
X129530000Y-55568571D01*
X129458571Y-55425714D01*
X129458571Y-55068571D01*
X129530000Y-54925714D01*
X129601428Y-54854285D01*
X129744285Y-54782857D01*
X129887142Y-54782857D01*
X130101428Y-54854285D01*
X130958571Y-55711428D01*
X130958571Y-54782857D01*
X130815714Y-54140000D02*
X130887142Y-54068571D01*
X130958571Y-54140000D01*
X130887142Y-54211428D01*
X130815714Y-54140000D01*
X130958571Y-54140000D01*
X130958571Y-52640000D02*
X130958571Y-53497142D01*
X130958571Y-53068571D02*
X129458571Y-53068571D01*
X129672857Y-53211428D01*
X129815714Y-53354285D01*
X129887142Y-53497142D01*
D11*
G04 #@! TO.C,U6*
X91423895Y-64884300D02*
G75*
G03X91423895Y-64884300I-209115J0D01*
G01*
X90698000Y-60969000D02*
X90698000Y-61744000D01*
X94998000Y-60969000D02*
X94998000Y-61744000D01*
X94998000Y-65269000D02*
X94998000Y-64494000D01*
X90698000Y-65269000D02*
X90698000Y-64494000D01*
X94998000Y-60969000D02*
X94223000Y-60969000D01*
X94998000Y-65269000D02*
X94223000Y-65269000D01*
X90698000Y-60969000D02*
X91473000Y-60969000D01*
G04 #@! TO.C,U1*
X114524058Y-43423340D02*
G75*
G03X114524058Y-43423340I-599978J0D01*
G01*
X112655600Y-44684200D02*
X113730600Y-44684200D01*
X112655600Y-34334200D02*
X113730600Y-34334200D01*
X123005600Y-34334200D02*
X121930600Y-34334200D01*
X123005600Y-44684200D02*
X121930600Y-44684200D01*
X112655600Y-44684200D02*
X112655600Y-43609200D01*
X123005600Y-44684200D02*
X123005600Y-43609200D01*
X123005600Y-34334200D02*
X123005600Y-35409200D01*
X112655600Y-34334200D02*
X112655600Y-35409200D01*
X113730600Y-44684200D02*
X113730600Y-45709200D01*
G04 #@! TO.C,SW1*
X42180000Y-71200000D02*
X42180000Y-72200000D01*
X49180000Y-71200000D02*
X49180000Y-72200000D01*
X42030000Y-73500000D02*
X42030000Y-70500000D01*
X49330000Y-73500000D02*
X42030000Y-73500000D01*
X49330000Y-70500000D02*
X49330000Y-73500000D01*
X42030000Y-70500000D02*
X49330000Y-70500000D01*
X42030000Y-65500000D02*
X42030000Y-70500000D01*
X43030000Y-65500000D02*
X42030000Y-65500000D01*
X43030000Y-68900000D02*
X43030000Y-65500000D01*
X48330000Y-68900000D02*
X43030000Y-68900000D01*
X48330000Y-65500000D02*
X48330000Y-68900000D01*
X49330000Y-65500000D02*
X48330000Y-65500000D01*
X49330000Y-70500000D02*
X49330000Y-65500000D01*
D12*
G04 #@! TO.C,C2*
X56560380Y-61874060D02*
X57258880Y-61874060D01*
X55559620Y-61874060D02*
X54861120Y-61874060D01*
X56560380Y-60405940D02*
X57258880Y-60405940D01*
X54861120Y-60405940D02*
X55559620Y-60405940D01*
X57299520Y-60403400D02*
X57299520Y-61876600D01*
X54820480Y-61876600D02*
X54820480Y-60403400D01*
D11*
G04 #@! TO.C,U16*
X100450000Y-64950000D02*
G75*
G03X100450000Y-64950000I-100000J0D01*
G01*
X100600000Y-64400000D02*
X100600000Y-64900000D01*
X103500000Y-64400000D02*
X100600000Y-64400000D01*
X103500000Y-64900000D02*
X103500000Y-64400000D01*
X100600000Y-64900000D02*
X103500000Y-64900000D01*
G04 #@! TO.C,U9*
X96900000Y-64900000D02*
X99800000Y-64900000D01*
X99800000Y-64900000D02*
X99800000Y-64400000D01*
X99800000Y-64400000D02*
X96900000Y-64400000D01*
X96900000Y-64400000D02*
X96900000Y-64900000D01*
X96750000Y-64950000D02*
G75*
G03X96750000Y-64950000I-100000J0D01*
G01*
G04 #@! TO.C,U8*
X53670000Y-65190000D02*
G75*
G03X53670000Y-65190000I-100000J0D01*
G01*
X53820000Y-64640000D02*
X53820000Y-65140000D01*
X56720000Y-64640000D02*
X53820000Y-64640000D01*
X56720000Y-65140000D02*
X56720000Y-64640000D01*
X53820000Y-65140000D02*
X56720000Y-65140000D01*
G04 #@! TO.C,P1*
X52335000Y-48539000D02*
X51700000Y-49174000D01*
X59955000Y-48539000D02*
X60590000Y-49174000D01*
X59955000Y-29489000D02*
X60590000Y-28854000D01*
X52335000Y-29489000D02*
X51700000Y-28854000D01*
X60590000Y-37109000D02*
X59955000Y-37109000D01*
X59955000Y-37109000D02*
X59955000Y-29489000D01*
X59955000Y-29489000D02*
X52335000Y-29489000D01*
X52335000Y-29489000D02*
X52335000Y-48539000D01*
X52335000Y-48539000D02*
X59955000Y-48539000D01*
X59955000Y-48539000D02*
X59955000Y-40919000D01*
X59955000Y-40919000D02*
X60590000Y-40919000D01*
X60590000Y-49174000D02*
X60590000Y-28854000D01*
X51700000Y-28854000D02*
X51700000Y-49174000D01*
X51700000Y-49174000D02*
X60590000Y-49174000D01*
X51700000Y-28854000D02*
X60590000Y-28854000D01*
X58113500Y-46512080D02*
X59182840Y-45813580D01*
X59182840Y-45813580D02*
X58113500Y-45112540D01*
X58113500Y-45112540D02*
X58113500Y-46512080D01*
G04 #@! TO.C,J4*
X143451000Y-30361000D02*
X143451000Y-46061000D01*
X143451000Y-46061000D02*
X135951000Y-46061000D01*
X135951000Y-46061000D02*
X135951000Y-30361000D01*
X135951000Y-30361000D02*
X143451000Y-30361000D01*
D12*
G04 #@! TO.C,R46*
X130634060Y-44279620D02*
X130634060Y-43581120D01*
X130634060Y-45280380D02*
X130634060Y-45978880D01*
X129165940Y-44279620D02*
X129165940Y-43581120D01*
X129165940Y-45978880D02*
X129165940Y-45280380D01*
X129163400Y-43540480D02*
X130636600Y-43540480D01*
X130636600Y-46019520D02*
X129163400Y-46019520D01*
G04 #@! TO.C,R45*
X132464060Y-44273620D02*
X132464060Y-43575120D01*
X132464060Y-45274380D02*
X132464060Y-45972880D01*
X130995940Y-44273620D02*
X130995940Y-43575120D01*
X130995940Y-45972880D02*
X130995940Y-45274380D01*
X130993400Y-43534480D02*
X132466600Y-43534480D01*
X132466600Y-46013520D02*
X130993400Y-46013520D01*
G04 #@! TO.C,F2*
X130644060Y-47129620D02*
X130644060Y-46431120D01*
X130644060Y-48130380D02*
X130644060Y-48828880D01*
X129175940Y-47129620D02*
X129175940Y-46431120D01*
X129175940Y-48828880D02*
X129175940Y-48130380D01*
X129173400Y-46390480D02*
X130646600Y-46390480D01*
X130646600Y-48869520D02*
X129173400Y-48869520D01*
G04 #@! TO.C,R41*
X125655940Y-48170380D02*
X125655940Y-48868880D01*
X125655940Y-47169620D02*
X125655940Y-46471120D01*
X127124060Y-48170380D02*
X127124060Y-48868880D01*
X127124060Y-46471120D02*
X127124060Y-47169620D01*
X127126600Y-48909520D02*
X125653400Y-48909520D01*
X125653400Y-46430480D02*
X127126600Y-46430480D01*
G04 #@! TO.C,R24*
X46919620Y-30685940D02*
X46221120Y-30685940D01*
X47920380Y-30685940D02*
X48618880Y-30685940D01*
X46919620Y-32154060D02*
X46221120Y-32154060D01*
X48618880Y-32154060D02*
X47920380Y-32154060D01*
X46180480Y-32156600D02*
X46180480Y-30683400D01*
X48659520Y-30683400D02*
X48659520Y-32156600D01*
G04 #@! TO.C,R23*
X44199620Y-44545940D02*
X43501120Y-44545940D01*
X45200380Y-44545940D02*
X45898880Y-44545940D01*
X44199620Y-46014060D02*
X43501120Y-46014060D01*
X45898880Y-46014060D02*
X45200380Y-46014060D01*
X43460480Y-46016600D02*
X43460480Y-44543400D01*
X45939520Y-44543400D02*
X45939520Y-46016600D01*
G04 #@! TO.C,R22*
X50784060Y-36773620D02*
X50784060Y-36075120D01*
X50784060Y-37774380D02*
X50784060Y-38472880D01*
X49315940Y-36773620D02*
X49315940Y-36075120D01*
X49315940Y-38472880D02*
X49315940Y-37774380D01*
X49313400Y-36034480D02*
X50786600Y-36034480D01*
X50786600Y-38513520D02*
X49313400Y-38513520D01*
G04 #@! TO.C,R21*
X50784060Y-40623620D02*
X50784060Y-39925120D01*
X50784060Y-41624380D02*
X50784060Y-42322880D01*
X49315940Y-40623620D02*
X49315940Y-39925120D01*
X49315940Y-42322880D02*
X49315940Y-41624380D01*
X49313400Y-39884480D02*
X50786600Y-39884480D01*
X50786600Y-42363520D02*
X49313400Y-42363520D01*
G04 #@! TO.C,R20*
X49345940Y-45414380D02*
X49345940Y-46112880D01*
X49345940Y-44413620D02*
X49345940Y-43715120D01*
X50814060Y-45414380D02*
X50814060Y-46112880D01*
X50814060Y-43715120D02*
X50814060Y-44413620D01*
X50816600Y-46153520D02*
X49343400Y-46153520D01*
X49343400Y-43674480D02*
X50816600Y-43674480D01*
G04 #@! TO.C,R19*
X42679620Y-32345940D02*
X41981120Y-32345940D01*
X43680380Y-32345940D02*
X44378880Y-32345940D01*
X42679620Y-33814060D02*
X41981120Y-33814060D01*
X44378880Y-33814060D02*
X43680380Y-33814060D01*
X41940480Y-33816600D02*
X41940480Y-32343400D01*
X44419520Y-32343400D02*
X44419520Y-33816600D01*
G04 #@! TO.C,C65*
X101790380Y-34768060D02*
X102488880Y-34768060D01*
X100789620Y-34768060D02*
X100091120Y-34768060D01*
X101790380Y-33299940D02*
X102488880Y-33299940D01*
X100091120Y-33299940D02*
X100789620Y-33299940D01*
X102529520Y-33297400D02*
X102529520Y-34770600D01*
X100050480Y-34770600D02*
X100050480Y-33297400D01*
G04 #@! TO.C,C60*
X79894060Y-34153620D02*
X79894060Y-33455120D01*
X79894060Y-35154380D02*
X79894060Y-35852880D01*
X78425940Y-34153620D02*
X78425940Y-33455120D01*
X78425940Y-35852880D02*
X78425940Y-35154380D01*
X78423400Y-33414480D02*
X79896600Y-33414480D01*
X79896600Y-35893520D02*
X78423400Y-35893520D01*
G04 #@! TO.C,C55*
X42669620Y-30665940D02*
X41971120Y-30665940D01*
X43670380Y-30665940D02*
X44368880Y-30665940D01*
X42669620Y-32134060D02*
X41971120Y-32134060D01*
X44368880Y-32134060D02*
X43670380Y-32134060D01*
X41930480Y-32136600D02*
X41930480Y-30663400D01*
X44409520Y-30663400D02*
X44409520Y-32136600D01*
G04 #@! TO.C,C47*
X101255940Y-56444380D02*
X101255940Y-57142880D01*
X101255940Y-55443620D02*
X101255940Y-54745120D01*
X102724060Y-56444380D02*
X102724060Y-57142880D01*
X102724060Y-54745120D02*
X102724060Y-55443620D01*
X102726600Y-57183520D02*
X101253400Y-57183520D01*
X101253400Y-54704480D02*
X102726600Y-54704480D01*
G04 #@! TO.C,C43*
X79269620Y-55889940D02*
X78571120Y-55889940D01*
X80270380Y-55889940D02*
X80968880Y-55889940D01*
X79269620Y-57358060D02*
X78571120Y-57358060D01*
X80968880Y-57358060D02*
X80270380Y-57358060D01*
X78530480Y-57360600D02*
X78530480Y-55887400D01*
X81009520Y-55887400D02*
X81009520Y-57360600D01*
D11*
G04 #@! TO.C,U10*
X43069114Y-40321900D02*
G75*
G03X43069114Y-40321900I-378554J0D01*
G01*
X41985000Y-41165000D02*
X42130000Y-41165000D01*
X41985000Y-37015000D02*
X42130000Y-37015000D01*
X47135000Y-37015000D02*
X46990000Y-37015000D01*
X47135000Y-41165000D02*
X46990000Y-41165000D01*
X41985000Y-41165000D02*
X41985000Y-37015000D01*
X47135000Y-41165000D02*
X47135000Y-37015000D01*
X42130000Y-41165000D02*
X42130000Y-42565000D01*
D12*
G04 #@! TO.C,C1*
X106329620Y-62739940D02*
X105631120Y-62739940D01*
X107330380Y-62739940D02*
X108028880Y-62739940D01*
X106329620Y-64208060D02*
X105631120Y-64208060D01*
X108028880Y-64208060D02*
X107330380Y-64208060D01*
X105590480Y-64210600D02*
X105590480Y-62737400D01*
X108069520Y-62737400D02*
X108069520Y-64210600D01*
G04 #@! TO.C,C3*
X115085940Y-70624380D02*
X115085940Y-71322880D01*
X115085940Y-69623620D02*
X115085940Y-68925120D01*
X116554060Y-70624380D02*
X116554060Y-71322880D01*
X116554060Y-68925120D02*
X116554060Y-69623620D01*
X116556600Y-71363520D02*
X115083400Y-71363520D01*
X115083400Y-68884480D02*
X116556600Y-68884480D01*
G04 #@! TO.C,C5*
X106329620Y-64359940D02*
X105631120Y-64359940D01*
X107330380Y-64359940D02*
X108028880Y-64359940D01*
X106329620Y-65828060D02*
X105631120Y-65828060D01*
X108028880Y-65828060D02*
X107330380Y-65828060D01*
X105590480Y-65830600D02*
X105590480Y-64357400D01*
X108069520Y-64357400D02*
X108069520Y-65830600D01*
G04 #@! TO.C,C6*
X75674060Y-34403620D02*
X75674060Y-33705120D01*
X75674060Y-35404380D02*
X75674060Y-36102880D01*
X74205940Y-34403620D02*
X74205940Y-33705120D01*
X74205940Y-36102880D02*
X74205940Y-35404380D01*
X74203400Y-33664480D02*
X75676600Y-33664480D01*
X75676600Y-36143520D02*
X74203400Y-36143520D01*
G04 #@! TO.C,C7*
X75674060Y-42673620D02*
X75674060Y-41975120D01*
X75674060Y-43674380D02*
X75674060Y-44372880D01*
X74205940Y-42673620D02*
X74205940Y-41975120D01*
X74205940Y-44372880D02*
X74205940Y-43674380D01*
X74203400Y-41934480D02*
X75676600Y-41934480D01*
X75676600Y-44413520D02*
X74203400Y-44413520D01*
G04 #@! TO.C,C8*
X71305940Y-63914380D02*
X71305940Y-64612880D01*
X71305940Y-62913620D02*
X71305940Y-62215120D01*
X72774060Y-63914380D02*
X72774060Y-64612880D01*
X72774060Y-62215120D02*
X72774060Y-62913620D01*
X72776600Y-64653520D02*
X71303400Y-64653520D01*
X71303400Y-62174480D02*
X72776600Y-62174480D01*
G04 #@! TO.C,R1*
X75139620Y-51935940D02*
X74441120Y-51935940D01*
X76140380Y-51935940D02*
X76838880Y-51935940D01*
X75139620Y-53404060D02*
X74441120Y-53404060D01*
X76838880Y-53404060D02*
X76140380Y-53404060D01*
X74400480Y-53406600D02*
X74400480Y-51933400D01*
X76879520Y-51933400D02*
X76879520Y-53406600D01*
G04 #@! TO.C,R2*
X75139620Y-50315940D02*
X74441120Y-50315940D01*
X76140380Y-50315940D02*
X76838880Y-50315940D01*
X75139620Y-51784060D02*
X74441120Y-51784060D01*
X76838880Y-51784060D02*
X76140380Y-51784060D01*
X74400480Y-51786600D02*
X74400480Y-50313400D01*
X76879520Y-50313400D02*
X76879520Y-51786600D01*
D11*
G04 #@! TO.C,D1*
X106490000Y-67074000D02*
X106240000Y-67074000D01*
X106990000Y-67074000D02*
X107240000Y-67074000D01*
X106990000Y-67074000D02*
X106490000Y-67424000D01*
X106490000Y-67424000D02*
X106490000Y-66724000D01*
X106490000Y-66724000D02*
X106990000Y-67074000D01*
X106990000Y-67424000D02*
X106990000Y-66724000D01*
X108040000Y-66274000D02*
X105640000Y-66274000D01*
X108040000Y-67874000D02*
X105640000Y-67874000D01*
D12*
G04 #@! TO.C,R3*
X119369620Y-47929940D02*
X118671120Y-47929940D01*
X120370380Y-47929940D02*
X121068880Y-47929940D01*
X119369620Y-49398060D02*
X118671120Y-49398060D01*
X121068880Y-49398060D02*
X120370380Y-49398060D01*
X118630480Y-49400600D02*
X118630480Y-47927400D01*
X121109520Y-47927400D02*
X121109520Y-49400600D01*
G04 #@! TO.C,C14*
X105454060Y-60759620D02*
X105454060Y-60061120D01*
X105454060Y-61760380D02*
X105454060Y-62458880D01*
X103985940Y-60759620D02*
X103985940Y-60061120D01*
X103985940Y-62458880D02*
X103985940Y-61760380D01*
X103983400Y-60020480D02*
X105456600Y-60020480D01*
X105456600Y-62499520D02*
X103983400Y-62499520D01*
D11*
G04 #@! TO.C,U3*
X67541538Y-35627920D02*
G75*
G03X67541538Y-35627920I-339838J0D01*
G01*
X66615000Y-41675000D02*
X71065000Y-41675000D01*
X65090000Y-34925000D02*
X71065000Y-34925000D01*
G04 #@! TO.C,U4*
X67541538Y-43827920D02*
G75*
G03X67541538Y-43827920I-339838J0D01*
G01*
X66615000Y-49875000D02*
X71065000Y-49875000D01*
X65090000Y-43125000D02*
X71065000Y-43125000D01*
G04 #@! TO.C,U5*
X65090000Y-65315000D02*
X71065000Y-65315000D01*
X66615000Y-72065000D02*
X71065000Y-72065000D01*
X67541538Y-66017920D02*
G75*
G03X67541538Y-66017920I-339838J0D01*
G01*
D12*
G04 #@! TO.C,R4*
X91605940Y-69204380D02*
X91605940Y-69902880D01*
X91605940Y-68203620D02*
X91605940Y-67505120D01*
X93074060Y-69204380D02*
X93074060Y-69902880D01*
X93074060Y-67505120D02*
X93074060Y-68203620D01*
X93076600Y-69943520D02*
X91603400Y-69943520D01*
X91603400Y-67464480D02*
X93076600Y-67464480D01*
D11*
G04 #@! TO.C,D2*
X131673500Y-33519140D02*
X131673500Y-33960400D01*
X131673500Y-33960400D02*
X131216300Y-33960400D01*
X132173500Y-33460400D02*
X132173500Y-35960400D01*
X132173500Y-35960400D02*
X131173500Y-35960400D01*
X131173500Y-35960400D02*
X131173500Y-33460400D01*
X131173500Y-33460400D02*
X132173500Y-33460400D01*
G04 #@! TO.C,D3*
X131660800Y-36519040D02*
X131660800Y-36960300D01*
X131660800Y-36960300D02*
X131203600Y-36960300D01*
X132160800Y-36460300D02*
X132160800Y-38960300D01*
X132160800Y-38960300D02*
X131160800Y-38960300D01*
X131160800Y-38960300D02*
X131160800Y-36460300D01*
X131160800Y-36460300D02*
X132160800Y-36460300D01*
D12*
G04 #@! TO.C,C16*
X90290380Y-67428060D02*
X90988880Y-67428060D01*
X89289620Y-67428060D02*
X88591120Y-67428060D01*
X90290380Y-65959940D02*
X90988880Y-65959940D01*
X88591120Y-65959940D02*
X89289620Y-65959940D01*
X91029520Y-65957400D02*
X91029520Y-67430600D01*
X88550480Y-67430600D02*
X88550480Y-65957400D01*
G04 #@! TO.C,R5*
X123379620Y-30115940D02*
X122681120Y-30115940D01*
X124380380Y-30115940D02*
X125078880Y-30115940D01*
X123379620Y-31584060D02*
X122681120Y-31584060D01*
X125078880Y-31584060D02*
X124380380Y-31584060D01*
X122640480Y-31586600D02*
X122640480Y-30113400D01*
X125119520Y-30113400D02*
X125119520Y-31586600D01*
G04 #@! TO.C,C23*
X74525940Y-70944380D02*
X74525940Y-71642880D01*
X74525940Y-69943620D02*
X74525940Y-69245120D01*
X75994060Y-70944380D02*
X75994060Y-71642880D01*
X75994060Y-69245120D02*
X75994060Y-69943620D01*
X75996600Y-71683520D02*
X74523400Y-71683520D01*
X74523400Y-69204480D02*
X75996600Y-69204480D01*
G04 #@! TO.C,C25*
X88285940Y-70454380D02*
X88285940Y-71152880D01*
X88285940Y-69453620D02*
X88285940Y-68755120D01*
X89754060Y-70454380D02*
X89754060Y-71152880D01*
X89754060Y-68755120D02*
X89754060Y-69453620D01*
X89756600Y-71193520D02*
X88283400Y-71193520D01*
X88283400Y-68714480D02*
X89756600Y-68714480D01*
G04 #@! TO.C,C26*
X89935940Y-70454380D02*
X89935940Y-71152880D01*
X89935940Y-69453620D02*
X89935940Y-68755120D01*
X91404060Y-70454380D02*
X91404060Y-71152880D01*
X91404060Y-68755120D02*
X91404060Y-69453620D01*
X91406600Y-71193520D02*
X89933400Y-71193520D01*
X89933400Y-68714480D02*
X91406600Y-68714480D01*
D13*
G04 #@! TO.C,J3*
X81210000Y-65310000D02*
X83750000Y-65310000D01*
X83750000Y-63530000D02*
X81210000Y-63530000D01*
X83750000Y-63530000D02*
X83750000Y-65310000D01*
X81210000Y-65310000D02*
X81210000Y-63530000D01*
G04 #@! TO.C,J5*
X81210000Y-67090000D02*
X83750000Y-67090000D01*
X83750000Y-65310000D02*
X81210000Y-65310000D01*
X83750000Y-65310000D02*
X83750000Y-67090000D01*
X81210000Y-67090000D02*
X81210000Y-65310000D01*
G04 #@! TO.C,J6*
X81210000Y-68870000D02*
X83750000Y-68870000D01*
X83750000Y-67090000D02*
X81210000Y-67090000D01*
X83750000Y-67090000D02*
X83750000Y-68870000D01*
X81210000Y-68870000D02*
X81210000Y-67090000D01*
D11*
G04 #@! TO.C,U11*
X78995000Y-61425000D02*
X78995000Y-62000000D01*
X84745000Y-61425000D02*
X84745000Y-62075000D01*
X84745000Y-72075000D02*
X84745000Y-71425000D01*
X78995000Y-72075000D02*
X78995000Y-71425000D01*
X78995000Y-61425000D02*
X84745000Y-61425000D01*
X78995000Y-72075000D02*
X84745000Y-72075000D01*
X78995000Y-62000000D02*
X77395000Y-62000000D01*
D13*
G04 #@! TO.C,J7*
X79210000Y-60560000D02*
X81750000Y-60560000D01*
X81750000Y-58780000D02*
X79210000Y-58780000D01*
X81750000Y-58780000D02*
X81750000Y-60560000D01*
X79210000Y-60560000D02*
X79210000Y-58780000D01*
D12*
G04 #@! TO.C,R6*
X77009620Y-58935940D02*
X76311120Y-58935940D01*
X78010380Y-58935940D02*
X78708880Y-58935940D01*
X77009620Y-60404060D02*
X76311120Y-60404060D01*
X78708880Y-60404060D02*
X78010380Y-60404060D01*
X76270480Y-60406600D02*
X76270480Y-58933400D01*
X78749520Y-58933400D02*
X78749520Y-60406600D01*
D13*
G04 #@! TO.C,J1*
X67935000Y-51254000D02*
X62135000Y-51254000D01*
X62135000Y-51254000D02*
X62135000Y-65054000D01*
X62135000Y-65054000D02*
X67935000Y-65054000D01*
X67935000Y-65054000D02*
X67935000Y-51254000D01*
G04 #@! TO.C,J2*
X50155000Y-51254000D02*
X44355000Y-51254000D01*
X44355000Y-51254000D02*
X44355000Y-65054000D01*
X44355000Y-65054000D02*
X50155000Y-65054000D01*
X50155000Y-65054000D02*
X50155000Y-51254000D01*
D11*
G04 #@! TO.C,U2*
X82246652Y-54252940D02*
G75*
G03X82246652Y-54252940I-590292J0D01*
G01*
X80412000Y-55510000D02*
X81487000Y-55510000D01*
X80412000Y-35160000D02*
X81487000Y-35160000D01*
X100762000Y-35160000D02*
X99687000Y-35160000D01*
X100762000Y-55510000D02*
X99687000Y-55510000D01*
X80412000Y-55510000D02*
X80412000Y-54435000D01*
X100762000Y-55510000D02*
X100762000Y-54435000D01*
X100762000Y-35160000D02*
X100762000Y-36235000D01*
X80412000Y-35160000D02*
X80412000Y-36235000D01*
X81487000Y-55510000D02*
X81487000Y-56610000D01*
G04 #@! TO.C,U7*
X115685260Y-60042820D02*
X115637000Y-60042820D01*
X109249000Y-60733700D02*
X109249000Y-60032660D01*
X109249000Y-60032660D02*
X109497920Y-60032660D01*
X115685260Y-60042820D02*
X115885920Y-60042820D01*
X115885920Y-60042820D02*
X115885920Y-60743860D01*
G04 #@! TO.C,U6*
X89302380Y-61541904D02*
X90111904Y-61541904D01*
X90207142Y-61494285D01*
X90254761Y-61446666D01*
X90302380Y-61351428D01*
X90302380Y-61160952D01*
X90254761Y-61065714D01*
X90207142Y-61018095D01*
X90111904Y-60970476D01*
X89302380Y-60970476D01*
X89302380Y-60065714D02*
X89302380Y-60256190D01*
X89350000Y-60351428D01*
X89397619Y-60399047D01*
X89540476Y-60494285D01*
X89730952Y-60541904D01*
X90111904Y-60541904D01*
X90207142Y-60494285D01*
X90254761Y-60446666D01*
X90302380Y-60351428D01*
X90302380Y-60160952D01*
X90254761Y-60065714D01*
X90207142Y-60018095D01*
X90111904Y-59970476D01*
X89873809Y-59970476D01*
X89778571Y-60018095D01*
X89730952Y-60065714D01*
X89683333Y-60160952D01*
X89683333Y-60351428D01*
X89730952Y-60446666D01*
X89778571Y-60494285D01*
X89873809Y-60541904D01*
G04 #@! TO.C,U1*
X111132380Y-35071904D02*
X111941904Y-35071904D01*
X112037142Y-35024285D01*
X112084761Y-34976666D01*
X112132380Y-34881428D01*
X112132380Y-34690952D01*
X112084761Y-34595714D01*
X112037142Y-34548095D01*
X111941904Y-34500476D01*
X111132380Y-34500476D01*
X112132380Y-33500476D02*
X112132380Y-34071904D01*
X112132380Y-33786190D02*
X111132380Y-33786190D01*
X111275238Y-33881428D01*
X111370476Y-33976666D01*
X111418095Y-34071904D01*
G04 #@! TO.C,SW1*
X44455886Y-68590821D02*
X44598743Y-68638440D01*
X44836839Y-68638440D01*
X44932077Y-68590821D01*
X44979696Y-68543202D01*
X45027315Y-68447964D01*
X45027315Y-68352726D01*
X44979696Y-68257488D01*
X44932077Y-68209869D01*
X44836839Y-68162250D01*
X44646362Y-68114631D01*
X44551124Y-68067012D01*
X44503505Y-68019393D01*
X44455886Y-67924155D01*
X44455886Y-67828917D01*
X44503505Y-67733679D01*
X44551124Y-67686060D01*
X44646362Y-67638440D01*
X44884458Y-67638440D01*
X45027315Y-67686060D01*
X45360648Y-67638440D02*
X45598743Y-68638440D01*
X45789220Y-67924155D01*
X45979696Y-68638440D01*
X46217791Y-67638440D01*
X47122553Y-68638440D02*
X46551124Y-68638440D01*
X46836839Y-68638440D02*
X46836839Y-67638440D01*
X46741600Y-67781298D01*
X46646362Y-67876536D01*
X46551124Y-67924155D01*
G04 #@! TO.C,W14*
D14*
X61502952Y-68206000D02*
X61454571Y-68181809D01*
X61382000Y-68181809D01*
X61309428Y-68206000D01*
X61261047Y-68254380D01*
X61236857Y-68302761D01*
X61212666Y-68399523D01*
X61212666Y-68472095D01*
X61236857Y-68568857D01*
X61261047Y-68617238D01*
X61309428Y-68665619D01*
X61382000Y-68689809D01*
X61430380Y-68689809D01*
X61502952Y-68665619D01*
X61527142Y-68641428D01*
X61527142Y-68472095D01*
X61430380Y-68472095D01*
X61744857Y-68689809D02*
X61744857Y-68181809D01*
X62035142Y-68689809D01*
X62035142Y-68181809D01*
X62277047Y-68689809D02*
X62277047Y-68181809D01*
X62398000Y-68181809D01*
X62470571Y-68206000D01*
X62518952Y-68254380D01*
X62543142Y-68302761D01*
X62567333Y-68399523D01*
X62567333Y-68472095D01*
X62543142Y-68568857D01*
X62518952Y-68617238D01*
X62470571Y-68665619D01*
X62398000Y-68689809D01*
X62277047Y-68689809D01*
G04 #@! TO.C,W15*
X97195333Y-68631428D02*
X97171142Y-68655619D01*
X97098571Y-68679809D01*
X97050190Y-68679809D01*
X96977619Y-68655619D01*
X96929238Y-68607238D01*
X96905047Y-68558857D01*
X96880857Y-68462095D01*
X96880857Y-68389523D01*
X96905047Y-68292761D01*
X96929238Y-68244380D01*
X96977619Y-68196000D01*
X97050190Y-68171809D01*
X97098571Y-68171809D01*
X97171142Y-68196000D01*
X97195333Y-68220190D01*
X97679142Y-68679809D02*
X97388857Y-68679809D01*
X97534000Y-68679809D02*
X97534000Y-68171809D01*
X97485619Y-68244380D01*
X97437238Y-68292761D01*
X97388857Y-68316952D01*
G04 #@! TO.C,C2*
D15*
X54490642Y-61224666D02*
X54518461Y-61248857D01*
X54546280Y-61321428D01*
X54546280Y-61369809D01*
X54518461Y-61442380D01*
X54462823Y-61490761D01*
X54407185Y-61514952D01*
X54295909Y-61539142D01*
X54212452Y-61539142D01*
X54101176Y-61514952D01*
X54045538Y-61490761D01*
X53989900Y-61442380D01*
X53962080Y-61369809D01*
X53962080Y-61321428D01*
X53989900Y-61248857D01*
X54017719Y-61224666D01*
X54017719Y-61031142D02*
X53989900Y-61006952D01*
X53962080Y-60958571D01*
X53962080Y-60837619D01*
X53989900Y-60789238D01*
X54017719Y-60765047D01*
X54073357Y-60740857D01*
X54128995Y-60740857D01*
X54212452Y-60765047D01*
X54546280Y-61055333D01*
X54546280Y-60740857D01*
D16*
X55781809Y-61695171D02*
X55781809Y-61651628D01*
X55806000Y-61608085D01*
X55830190Y-61586314D01*
X55878571Y-61564542D01*
X55975333Y-61542771D01*
X56096285Y-61542771D01*
X56193047Y-61564542D01*
X56241428Y-61586314D01*
X56265619Y-61608085D01*
X56289809Y-61651628D01*
X56289809Y-61695171D01*
X56265619Y-61738714D01*
X56241428Y-61760485D01*
X56193047Y-61782257D01*
X56096285Y-61804028D01*
X55975333Y-61804028D01*
X55878571Y-61782257D01*
X55830190Y-61760485D01*
X55806000Y-61738714D01*
X55781809Y-61695171D01*
X56241428Y-61346828D02*
X56265619Y-61325057D01*
X56289809Y-61346828D01*
X56265619Y-61368600D01*
X56241428Y-61346828D01*
X56289809Y-61346828D01*
X56289809Y-60889628D02*
X56289809Y-61150885D01*
X56289809Y-61020257D02*
X55781809Y-61020257D01*
X55854380Y-61063800D01*
X55902761Y-61107342D01*
X55926952Y-61150885D01*
X55951142Y-60497742D02*
X56289809Y-60497742D01*
X55951142Y-60693685D02*
X56217238Y-60693685D01*
X56265619Y-60671914D01*
X56289809Y-60628371D01*
X56289809Y-60563057D01*
X56265619Y-60519514D01*
X56241428Y-60497742D01*
G04 #@! TO.C,U16*
D11*
X104042380Y-65958095D02*
X104851904Y-65958095D01*
X104947142Y-65910476D01*
X104994761Y-65862857D01*
X105042380Y-65767619D01*
X105042380Y-65577142D01*
X104994761Y-65481904D01*
X104947142Y-65434285D01*
X104851904Y-65386666D01*
X104042380Y-65386666D01*
X105042380Y-64386666D02*
X105042380Y-64958095D01*
X105042380Y-64672380D02*
X104042380Y-64672380D01*
X104185238Y-64767619D01*
X104280476Y-64862857D01*
X104328095Y-64958095D01*
X104042380Y-63529523D02*
X104042380Y-63720000D01*
X104090000Y-63815238D01*
X104137619Y-63862857D01*
X104280476Y-63958095D01*
X104470952Y-64005714D01*
X104851904Y-64005714D01*
X104947142Y-63958095D01*
X104994761Y-63910476D01*
X105042380Y-63815238D01*
X105042380Y-63624761D01*
X104994761Y-63529523D01*
X104947142Y-63481904D01*
X104851904Y-63434285D01*
X104613809Y-63434285D01*
X104518571Y-63481904D01*
X104470952Y-63529523D01*
X104423333Y-63624761D01*
X104423333Y-63815238D01*
X104470952Y-63910476D01*
X104518571Y-63958095D01*
X104613809Y-64005714D01*
G04 #@! TO.C,U9*
X95252380Y-65461904D02*
X96061904Y-65461904D01*
X96157142Y-65414285D01*
X96204761Y-65366666D01*
X96252380Y-65271428D01*
X96252380Y-65080952D01*
X96204761Y-64985714D01*
X96157142Y-64938095D01*
X96061904Y-64890476D01*
X95252380Y-64890476D01*
X96252380Y-64366666D02*
X96252380Y-64176190D01*
X96204761Y-64080952D01*
X96157142Y-64033333D01*
X96014285Y-63938095D01*
X95823809Y-63890476D01*
X95442857Y-63890476D01*
X95347619Y-63938095D01*
X95300000Y-63985714D01*
X95252380Y-64080952D01*
X95252380Y-64271428D01*
X95300000Y-64366666D01*
X95347619Y-64414285D01*
X95442857Y-64461904D01*
X95680952Y-64461904D01*
X95776190Y-64414285D01*
X95823809Y-64366666D01*
X95871428Y-64271428D01*
X95871428Y-64080952D01*
X95823809Y-63985714D01*
X95776190Y-63938095D01*
X95680952Y-63890476D01*
G04 #@! TO.C,U8*
X52172380Y-65701904D02*
X52981904Y-65701904D01*
X53077142Y-65654285D01*
X53124761Y-65606666D01*
X53172380Y-65511428D01*
X53172380Y-65320952D01*
X53124761Y-65225714D01*
X53077142Y-65178095D01*
X52981904Y-65130476D01*
X52172380Y-65130476D01*
X52600952Y-64511428D02*
X52553333Y-64606666D01*
X52505714Y-64654285D01*
X52410476Y-64701904D01*
X52362857Y-64701904D01*
X52267619Y-64654285D01*
X52220000Y-64606666D01*
X52172380Y-64511428D01*
X52172380Y-64320952D01*
X52220000Y-64225714D01*
X52267619Y-64178095D01*
X52362857Y-64130476D01*
X52410476Y-64130476D01*
X52505714Y-64178095D01*
X52553333Y-64225714D01*
X52600952Y-64320952D01*
X52600952Y-64511428D01*
X52648571Y-64606666D01*
X52696190Y-64654285D01*
X52791428Y-64701904D01*
X52981904Y-64701904D01*
X53077142Y-64654285D01*
X53124761Y-64606666D01*
X53172380Y-64511428D01*
X53172380Y-64320952D01*
X53124761Y-64225714D01*
X53077142Y-64178095D01*
X52981904Y-64130476D01*
X52791428Y-64130476D01*
X52696190Y-64178095D01*
X52648571Y-64225714D01*
X52600952Y-64320952D01*
G04 #@! TO.C,W13*
D14*
X99075333Y-68627928D02*
X99051142Y-68652119D01*
X98978571Y-68676309D01*
X98930190Y-68676309D01*
X98857619Y-68652119D01*
X98809238Y-68603738D01*
X98785047Y-68555357D01*
X98760857Y-68458595D01*
X98760857Y-68386023D01*
X98785047Y-68289261D01*
X98809238Y-68240880D01*
X98857619Y-68192500D01*
X98930190Y-68168309D01*
X98978571Y-68168309D01*
X99051142Y-68192500D01*
X99075333Y-68216690D01*
X99268857Y-68216690D02*
X99293047Y-68192500D01*
X99341428Y-68168309D01*
X99462380Y-68168309D01*
X99510761Y-68192500D01*
X99534952Y-68216690D01*
X99559142Y-68265071D01*
X99559142Y-68313452D01*
X99534952Y-68386023D01*
X99244666Y-68676309D01*
X99559142Y-68676309D01*
G04 #@! TO.C,W12*
X102608761Y-68171809D02*
X102778095Y-68679809D01*
X102947428Y-68171809D01*
X103092571Y-68655619D02*
X103165142Y-68679809D01*
X103286095Y-68679809D01*
X103334476Y-68655619D01*
X103358666Y-68631428D01*
X103382857Y-68583047D01*
X103382857Y-68534666D01*
X103358666Y-68486285D01*
X103334476Y-68462095D01*
X103286095Y-68437904D01*
X103189333Y-68413714D01*
X103140952Y-68389523D01*
X103116761Y-68365333D01*
X103092571Y-68316952D01*
X103092571Y-68268571D01*
X103116761Y-68220190D01*
X103140952Y-68196000D01*
X103189333Y-68171809D01*
X103310285Y-68171809D01*
X103382857Y-68196000D01*
G04 #@! TO.C,W11*
X104572952Y-68649809D02*
X104572952Y-68141809D01*
X104572952Y-68383714D02*
X104863238Y-68383714D01*
X104863238Y-68649809D02*
X104863238Y-68141809D01*
X105080952Y-68625619D02*
X105153523Y-68649809D01*
X105274476Y-68649809D01*
X105322857Y-68625619D01*
X105347047Y-68601428D01*
X105371238Y-68553047D01*
X105371238Y-68504666D01*
X105347047Y-68456285D01*
X105322857Y-68432095D01*
X105274476Y-68407904D01*
X105177714Y-68383714D01*
X105129333Y-68359523D01*
X105105142Y-68335333D01*
X105080952Y-68286952D01*
X105080952Y-68238571D01*
X105105142Y-68190190D01*
X105129333Y-68166000D01*
X105177714Y-68141809D01*
X105298666Y-68141809D01*
X105371238Y-68166000D01*
G04 #@! TO.C,W10*
X100708952Y-68186000D02*
X100660571Y-68161809D01*
X100588000Y-68161809D01*
X100515428Y-68186000D01*
X100467047Y-68234380D01*
X100442857Y-68282761D01*
X100418666Y-68379523D01*
X100418666Y-68452095D01*
X100442857Y-68548857D01*
X100467047Y-68597238D01*
X100515428Y-68645619D01*
X100588000Y-68669809D01*
X100636380Y-68669809D01*
X100708952Y-68645619D01*
X100733142Y-68621428D01*
X100733142Y-68452095D01*
X100636380Y-68452095D01*
X100950857Y-68669809D02*
X100950857Y-68161809D01*
X101241142Y-68669809D01*
X101241142Y-68161809D01*
X101483047Y-68669809D02*
X101483047Y-68161809D01*
X101604000Y-68161809D01*
X101676571Y-68186000D01*
X101724952Y-68234380D01*
X101749142Y-68282761D01*
X101773333Y-68379523D01*
X101773333Y-68452095D01*
X101749142Y-68548857D01*
X101724952Y-68597238D01*
X101676571Y-68645619D01*
X101604000Y-68669809D01*
X101483047Y-68669809D01*
G04 #@! TO.C,W9*
X112163252Y-68175200D02*
X112114871Y-68151009D01*
X112042300Y-68151009D01*
X111969728Y-68175200D01*
X111921347Y-68223580D01*
X111897157Y-68271961D01*
X111872966Y-68368723D01*
X111872966Y-68441295D01*
X111897157Y-68538057D01*
X111921347Y-68586438D01*
X111969728Y-68634819D01*
X112042300Y-68659009D01*
X112090680Y-68659009D01*
X112163252Y-68634819D01*
X112187442Y-68610628D01*
X112187442Y-68441295D01*
X112090680Y-68441295D01*
X112405157Y-68659009D02*
X112405157Y-68151009D01*
X112695442Y-68659009D01*
X112695442Y-68151009D01*
X112937347Y-68659009D02*
X112937347Y-68151009D01*
X113058300Y-68151009D01*
X113130871Y-68175200D01*
X113179252Y-68223580D01*
X113203442Y-68271961D01*
X113227633Y-68368723D01*
X113227633Y-68441295D01*
X113203442Y-68538057D01*
X113179252Y-68586438D01*
X113130871Y-68634819D01*
X113058300Y-68659009D01*
X112937347Y-68659009D01*
G04 #@! TO.C,W8*
X106472952Y-68171000D02*
X106424571Y-68146809D01*
X106352000Y-68146809D01*
X106279428Y-68171000D01*
X106231047Y-68219380D01*
X106206857Y-68267761D01*
X106182666Y-68364523D01*
X106182666Y-68437095D01*
X106206857Y-68533857D01*
X106231047Y-68582238D01*
X106279428Y-68630619D01*
X106352000Y-68654809D01*
X106400380Y-68654809D01*
X106472952Y-68630619D01*
X106497142Y-68606428D01*
X106497142Y-68437095D01*
X106400380Y-68437095D01*
X106714857Y-68654809D02*
X106714857Y-68146809D01*
X107005142Y-68654809D01*
X107005142Y-68146809D01*
X107247047Y-68654809D02*
X107247047Y-68146809D01*
X107368000Y-68146809D01*
X107440571Y-68171000D01*
X107488952Y-68219380D01*
X107513142Y-68267761D01*
X107537333Y-68364523D01*
X107537333Y-68437095D01*
X107513142Y-68533857D01*
X107488952Y-68582238D01*
X107440571Y-68630619D01*
X107368000Y-68654809D01*
X107247047Y-68654809D01*
G04 #@! TO.C,W7*
X94992952Y-68176000D02*
X94944571Y-68151809D01*
X94872000Y-68151809D01*
X94799428Y-68176000D01*
X94751047Y-68224380D01*
X94726857Y-68272761D01*
X94702666Y-68369523D01*
X94702666Y-68442095D01*
X94726857Y-68538857D01*
X94751047Y-68587238D01*
X94799428Y-68635619D01*
X94872000Y-68659809D01*
X94920380Y-68659809D01*
X94992952Y-68635619D01*
X95017142Y-68611428D01*
X95017142Y-68442095D01*
X94920380Y-68442095D01*
X95234857Y-68659809D02*
X95234857Y-68151809D01*
X95525142Y-68659809D01*
X95525142Y-68151809D01*
X95767047Y-68659809D02*
X95767047Y-68151809D01*
X95888000Y-68151809D01*
X95960571Y-68176000D01*
X96008952Y-68224380D01*
X96033142Y-68272761D01*
X96057333Y-68369523D01*
X96057333Y-68442095D01*
X96033142Y-68538857D01*
X96008952Y-68587238D01*
X95960571Y-68635619D01*
X95888000Y-68659809D01*
X95767047Y-68659809D01*
G04 #@! TO.C,W6*
X52681714Y-68311142D02*
X52802666Y-68649809D01*
X52923619Y-68311142D01*
X53189714Y-68649809D02*
X53141333Y-68625619D01*
X53117142Y-68601428D01*
X53092952Y-68553047D01*
X53092952Y-68407904D01*
X53117142Y-68359523D01*
X53141333Y-68335333D01*
X53189714Y-68311142D01*
X53262285Y-68311142D01*
X53310666Y-68335333D01*
X53334857Y-68359523D01*
X53359047Y-68407904D01*
X53359047Y-68553047D01*
X53334857Y-68601428D01*
X53310666Y-68625619D01*
X53262285Y-68649809D01*
X53189714Y-68649809D01*
X53649333Y-68649809D02*
X53600952Y-68625619D01*
X53576761Y-68577238D01*
X53576761Y-68141809D01*
X53842857Y-68456285D02*
X54229904Y-68456285D01*
G04 #@! TO.C,W5*
X50731714Y-68331142D02*
X50852666Y-68669809D01*
X50973619Y-68331142D01*
X51239714Y-68669809D02*
X51191333Y-68645619D01*
X51167142Y-68621428D01*
X51142952Y-68573047D01*
X51142952Y-68427904D01*
X51167142Y-68379523D01*
X51191333Y-68355333D01*
X51239714Y-68331142D01*
X51312285Y-68331142D01*
X51360666Y-68355333D01*
X51384857Y-68379523D01*
X51409047Y-68427904D01*
X51409047Y-68573047D01*
X51384857Y-68621428D01*
X51360666Y-68645619D01*
X51312285Y-68669809D01*
X51239714Y-68669809D01*
X51699333Y-68669809D02*
X51650952Y-68645619D01*
X51626761Y-68597238D01*
X51626761Y-68161809D01*
X51892857Y-68476285D02*
X52279904Y-68476285D01*
X52086380Y-68669809D02*
X52086380Y-68282761D01*
G04 #@! TO.C,W4*
X59385714Y-68679809D02*
X59385714Y-68171809D01*
X59506666Y-68171809D01*
X59579238Y-68196000D01*
X59627619Y-68244380D01*
X59651809Y-68292761D01*
X59676000Y-68389523D01*
X59676000Y-68462095D01*
X59651809Y-68558857D01*
X59627619Y-68607238D01*
X59579238Y-68655619D01*
X59506666Y-68679809D01*
X59385714Y-68679809D01*
X59869523Y-68534666D02*
X60111428Y-68534666D01*
X59821142Y-68679809D02*
X59990476Y-68171809D01*
X60159809Y-68679809D01*
X60256571Y-68171809D02*
X60546857Y-68171809D01*
X60401714Y-68679809D02*
X60401714Y-68171809D01*
G04 #@! TO.C,W3*
X57570380Y-68161809D02*
X57691333Y-68669809D01*
X57788095Y-68306952D01*
X57884857Y-68669809D01*
X58005809Y-68161809D01*
X58175142Y-68645619D02*
X58247714Y-68669809D01*
X58368666Y-68669809D01*
X58417047Y-68645619D01*
X58441238Y-68621428D01*
X58465428Y-68573047D01*
X58465428Y-68524666D01*
X58441238Y-68476285D01*
X58417047Y-68452095D01*
X58368666Y-68427904D01*
X58271904Y-68403714D01*
X58223523Y-68379523D01*
X58199333Y-68355333D01*
X58175142Y-68306952D01*
X58175142Y-68258571D01*
X58199333Y-68210190D01*
X58223523Y-68186000D01*
X58271904Y-68161809D01*
X58392857Y-68161809D01*
X58465428Y-68186000D01*
G04 #@! TO.C,W1*
X110203238Y-68165809D02*
X109961333Y-68165809D01*
X109937142Y-68407714D01*
X109961333Y-68383523D01*
X110009714Y-68359333D01*
X110130666Y-68359333D01*
X110179047Y-68383523D01*
X110203238Y-68407714D01*
X110227428Y-68456095D01*
X110227428Y-68577047D01*
X110203238Y-68625428D01*
X110179047Y-68649619D01*
X110130666Y-68673809D01*
X110009714Y-68673809D01*
X109961333Y-68649619D01*
X109937142Y-68625428D01*
X110372571Y-68165809D02*
X110541904Y-68673809D01*
X110711238Y-68165809D01*
G04 #@! TO.C,W2*
X55588285Y-68403714D02*
X55660857Y-68427904D01*
X55685047Y-68452095D01*
X55709238Y-68500476D01*
X55709238Y-68573047D01*
X55685047Y-68621428D01*
X55660857Y-68645619D01*
X55612476Y-68669809D01*
X55418952Y-68669809D01*
X55418952Y-68161809D01*
X55588285Y-68161809D01*
X55636666Y-68186000D01*
X55660857Y-68210190D01*
X55685047Y-68258571D01*
X55685047Y-68306952D01*
X55660857Y-68355333D01*
X55636666Y-68379523D01*
X55588285Y-68403714D01*
X55418952Y-68403714D01*
X56217238Y-68621428D02*
X56193047Y-68645619D01*
X56120476Y-68669809D01*
X56072095Y-68669809D01*
X55999523Y-68645619D01*
X55951142Y-68597238D01*
X55926952Y-68548857D01*
X55902761Y-68452095D01*
X55902761Y-68379523D01*
X55926952Y-68282761D01*
X55951142Y-68234380D01*
X55999523Y-68186000D01*
X56072095Y-68161809D01*
X56120476Y-68161809D01*
X56193047Y-68186000D01*
X56217238Y-68210190D01*
X56434952Y-68669809D02*
X56434952Y-68161809D01*
X56725238Y-68669809D02*
X56507523Y-68379523D01*
X56725238Y-68161809D02*
X56434952Y-68452095D01*
G04 #@! TO.C,P1*
D11*
X62172380Y-31442095D02*
X61172380Y-31442095D01*
X61172380Y-31061142D01*
X61220000Y-30965904D01*
X61267619Y-30918285D01*
X61362857Y-30870666D01*
X61505714Y-30870666D01*
X61600952Y-30918285D01*
X61648571Y-30965904D01*
X61696190Y-31061142D01*
X61696190Y-31442095D01*
X62172380Y-29918285D02*
X62172380Y-30489714D01*
X62172380Y-30204000D02*
X61172380Y-30204000D01*
X61315238Y-30299238D01*
X61410476Y-30394476D01*
X61458095Y-30489714D01*
G04 #@! TO.C,J4*
X138016666Y-46296380D02*
X138016666Y-47010666D01*
X137969047Y-47153523D01*
X137873809Y-47248761D01*
X137730952Y-47296380D01*
X137635714Y-47296380D01*
X138921428Y-46629714D02*
X138921428Y-47296380D01*
X138683333Y-46248761D02*
X138445238Y-46963047D01*
X139064285Y-46963047D01*
G04 #@! TO.C,R46*
D15*
X129543428Y-43287280D02*
X129374095Y-43009090D01*
X129253142Y-43287280D02*
X129253142Y-42703080D01*
X129446666Y-42703080D01*
X129495047Y-42730900D01*
X129519238Y-42758719D01*
X129543428Y-42814357D01*
X129543428Y-42897814D01*
X129519238Y-42953452D01*
X129495047Y-42981271D01*
X129446666Y-43009090D01*
X129253142Y-43009090D01*
X129978857Y-42897814D02*
X129978857Y-43287280D01*
X129857904Y-42675261D02*
X129736952Y-43092547D01*
X130051428Y-43092547D01*
X130462666Y-42703080D02*
X130365904Y-42703080D01*
X130317523Y-42730900D01*
X130293333Y-42758719D01*
X130244952Y-42842176D01*
X130220761Y-42953452D01*
X130220761Y-43176004D01*
X130244952Y-43231642D01*
X130269142Y-43259461D01*
X130317523Y-43287280D01*
X130414285Y-43287280D01*
X130462666Y-43259461D01*
X130486857Y-43231642D01*
X130511047Y-43176004D01*
X130511047Y-43036909D01*
X130486857Y-42981271D01*
X130462666Y-42953452D01*
X130414285Y-42925633D01*
X130317523Y-42925633D01*
X130269142Y-42953452D01*
X130244952Y-42981271D01*
X130220761Y-43036909D01*
D16*
X129257742Y-44550190D02*
X129279514Y-44526000D01*
X129323057Y-44501809D01*
X129431914Y-44501809D01*
X129475457Y-44526000D01*
X129497228Y-44550190D01*
X129519000Y-44598571D01*
X129519000Y-44646952D01*
X129497228Y-44719523D01*
X129235971Y-45009809D01*
X129519000Y-45009809D01*
X129714942Y-44961428D02*
X129736714Y-44985619D01*
X129714942Y-45009809D01*
X129693171Y-44985619D01*
X129714942Y-44961428D01*
X129714942Y-45009809D01*
X129910885Y-44550190D02*
X129932657Y-44526000D01*
X129976200Y-44501809D01*
X130085057Y-44501809D01*
X130128600Y-44526000D01*
X130150371Y-44550190D01*
X130172142Y-44598571D01*
X130172142Y-44646952D01*
X130150371Y-44719523D01*
X129889114Y-45009809D01*
X130172142Y-45009809D01*
X130368085Y-45009809D02*
X130368085Y-44501809D01*
X130411628Y-44816285D02*
X130542257Y-45009809D01*
X130542257Y-44671142D02*
X130368085Y-44864666D01*
G04 #@! TO.C,R45*
D15*
X131396428Y-43281280D02*
X131227095Y-43003090D01*
X131106142Y-43281280D02*
X131106142Y-42697080D01*
X131299666Y-42697080D01*
X131348047Y-42724900D01*
X131372238Y-42752719D01*
X131396428Y-42808357D01*
X131396428Y-42891814D01*
X131372238Y-42947452D01*
X131348047Y-42975271D01*
X131299666Y-43003090D01*
X131106142Y-43003090D01*
X131831857Y-42891814D02*
X131831857Y-43281280D01*
X131710904Y-42669261D02*
X131589952Y-43086547D01*
X131904428Y-43086547D01*
X132339857Y-42697080D02*
X132097952Y-42697080D01*
X132073761Y-42975271D01*
X132097952Y-42947452D01*
X132146333Y-42919633D01*
X132267285Y-42919633D01*
X132315666Y-42947452D01*
X132339857Y-42975271D01*
X132364047Y-43030909D01*
X132364047Y-43170004D01*
X132339857Y-43225642D01*
X132315666Y-43253461D01*
X132267285Y-43281280D01*
X132146333Y-43281280D01*
X132097952Y-43253461D01*
X132073761Y-43225642D01*
D16*
X131087742Y-44544190D02*
X131109514Y-44520000D01*
X131153057Y-44495809D01*
X131261914Y-44495809D01*
X131305457Y-44520000D01*
X131327228Y-44544190D01*
X131349000Y-44592571D01*
X131349000Y-44640952D01*
X131327228Y-44713523D01*
X131065971Y-45003809D01*
X131349000Y-45003809D01*
X131544942Y-44955428D02*
X131566714Y-44979619D01*
X131544942Y-45003809D01*
X131523171Y-44979619D01*
X131544942Y-44955428D01*
X131544942Y-45003809D01*
X131740885Y-44544190D02*
X131762657Y-44520000D01*
X131806200Y-44495809D01*
X131915057Y-44495809D01*
X131958600Y-44520000D01*
X131980371Y-44544190D01*
X132002142Y-44592571D01*
X132002142Y-44640952D01*
X131980371Y-44713523D01*
X131719114Y-45003809D01*
X132002142Y-45003809D01*
X132198085Y-45003809D02*
X132198085Y-44495809D01*
X132241628Y-44810285D02*
X132372257Y-45003809D01*
X132372257Y-44665142D02*
X132198085Y-44858666D01*
G04 #@! TO.C,F2*
D15*
X129740666Y-49366271D02*
X129571333Y-49366271D01*
X129571333Y-49672280D02*
X129571333Y-49088080D01*
X129813238Y-49088080D01*
X129982571Y-49143719D02*
X130006761Y-49115900D01*
X130055142Y-49088080D01*
X130176095Y-49088080D01*
X130224476Y-49115900D01*
X130248666Y-49143719D01*
X130272857Y-49199357D01*
X130272857Y-49254995D01*
X130248666Y-49338452D01*
X129958380Y-49672280D01*
X130272857Y-49672280D01*
G04 #@! TO.C,R41*
X126075428Y-49743280D02*
X125906095Y-49465090D01*
X125785142Y-49743280D02*
X125785142Y-49159080D01*
X125978666Y-49159080D01*
X126027047Y-49186900D01*
X126051238Y-49214719D01*
X126075428Y-49270357D01*
X126075428Y-49353814D01*
X126051238Y-49409452D01*
X126027047Y-49437271D01*
X125978666Y-49465090D01*
X125785142Y-49465090D01*
X126510857Y-49353814D02*
X126510857Y-49743280D01*
X126389904Y-49131261D02*
X126268952Y-49548547D01*
X126583428Y-49548547D01*
X127043047Y-49743280D02*
X126752761Y-49743280D01*
X126897904Y-49743280D02*
X126897904Y-49159080D01*
X126849523Y-49242538D01*
X126801142Y-49298176D01*
X126752761Y-49325995D01*
D16*
X126117857Y-47899809D02*
X125856600Y-47899809D01*
X125987228Y-47899809D02*
X125987228Y-47391809D01*
X125943685Y-47464380D01*
X125900142Y-47512761D01*
X125856600Y-47536952D01*
X126400885Y-47391809D02*
X126444428Y-47391809D01*
X126487971Y-47416000D01*
X126509742Y-47440190D01*
X126531514Y-47488571D01*
X126553285Y-47585333D01*
X126553285Y-47706285D01*
X126531514Y-47803047D01*
X126509742Y-47851428D01*
X126487971Y-47875619D01*
X126444428Y-47899809D01*
X126400885Y-47899809D01*
X126357342Y-47875619D01*
X126335571Y-47851428D01*
X126313800Y-47803047D01*
X126292028Y-47706285D01*
X126292028Y-47585333D01*
X126313800Y-47488571D01*
X126335571Y-47440190D01*
X126357342Y-47416000D01*
X126400885Y-47391809D01*
X126749228Y-47899809D02*
X126749228Y-47391809D01*
X126792771Y-47706285D02*
X126923400Y-47899809D01*
X126923400Y-47561142D02*
X126749228Y-47754666D01*
G04 #@! TO.C,R24*
D15*
X49462280Y-31746571D02*
X49184090Y-31915904D01*
X49462280Y-32036857D02*
X48878080Y-32036857D01*
X48878080Y-31843333D01*
X48905900Y-31794952D01*
X48933719Y-31770761D01*
X48989357Y-31746571D01*
X49072814Y-31746571D01*
X49128452Y-31770761D01*
X49156271Y-31794952D01*
X49184090Y-31843333D01*
X49184090Y-32036857D01*
X48933719Y-31553047D02*
X48905900Y-31528857D01*
X48878080Y-31480476D01*
X48878080Y-31359523D01*
X48905900Y-31311142D01*
X48933719Y-31286952D01*
X48989357Y-31262761D01*
X49044995Y-31262761D01*
X49128452Y-31286952D01*
X49462280Y-31577238D01*
X49462280Y-31262761D01*
X49072814Y-30827333D02*
X49462280Y-30827333D01*
X48850261Y-30948285D02*
X49267547Y-31069238D01*
X49267547Y-30754761D01*
D16*
X47311142Y-31844542D02*
X47649809Y-31844542D01*
X47117619Y-31953400D02*
X47480476Y-32062257D01*
X47480476Y-31779228D01*
X47601428Y-31605057D02*
X47625619Y-31583285D01*
X47649809Y-31605057D01*
X47625619Y-31626828D01*
X47601428Y-31605057D01*
X47649809Y-31605057D01*
X47141809Y-31430885D02*
X47141809Y-31126085D01*
X47649809Y-31322028D01*
X47649809Y-30951914D02*
X47141809Y-30951914D01*
X47456285Y-30908371D02*
X47649809Y-30777742D01*
X47311142Y-30777742D02*
X47504666Y-30951914D01*
G04 #@! TO.C,R23*
D15*
X46742280Y-45606571D02*
X46464090Y-45775904D01*
X46742280Y-45896857D02*
X46158080Y-45896857D01*
X46158080Y-45703333D01*
X46185900Y-45654952D01*
X46213719Y-45630761D01*
X46269357Y-45606571D01*
X46352814Y-45606571D01*
X46408452Y-45630761D01*
X46436271Y-45654952D01*
X46464090Y-45703333D01*
X46464090Y-45896857D01*
X46213719Y-45413047D02*
X46185900Y-45388857D01*
X46158080Y-45340476D01*
X46158080Y-45219523D01*
X46185900Y-45171142D01*
X46213719Y-45146952D01*
X46269357Y-45122761D01*
X46324995Y-45122761D01*
X46408452Y-45146952D01*
X46742280Y-45437238D01*
X46742280Y-45122761D01*
X46158080Y-44953428D02*
X46158080Y-44638952D01*
X46380633Y-44808285D01*
X46380633Y-44735714D01*
X46408452Y-44687333D01*
X46436271Y-44663142D01*
X46491909Y-44638952D01*
X46631004Y-44638952D01*
X46686642Y-44663142D01*
X46714461Y-44687333D01*
X46742280Y-44735714D01*
X46742280Y-44880857D01*
X46714461Y-44929238D01*
X46686642Y-44953428D01*
D16*
X44470190Y-45628342D02*
X44446000Y-45606571D01*
X44421809Y-45563028D01*
X44421809Y-45454171D01*
X44446000Y-45410628D01*
X44470190Y-45388857D01*
X44518571Y-45367085D01*
X44566952Y-45367085D01*
X44639523Y-45388857D01*
X44929809Y-45650114D01*
X44929809Y-45367085D01*
X44421809Y-44953428D02*
X44421809Y-45171142D01*
X44663714Y-45192914D01*
X44639523Y-45171142D01*
X44615333Y-45127600D01*
X44615333Y-45018742D01*
X44639523Y-44975200D01*
X44663714Y-44953428D01*
X44712095Y-44931657D01*
X44833047Y-44931657D01*
X44881428Y-44953428D01*
X44905619Y-44975200D01*
X44929809Y-45018742D01*
X44929809Y-45127600D01*
X44905619Y-45171142D01*
X44881428Y-45192914D01*
G04 #@! TO.C,R22*
D15*
X49723428Y-35738280D02*
X49554095Y-35460090D01*
X49433142Y-35738280D02*
X49433142Y-35154080D01*
X49626666Y-35154080D01*
X49675047Y-35181900D01*
X49699238Y-35209719D01*
X49723428Y-35265357D01*
X49723428Y-35348814D01*
X49699238Y-35404452D01*
X49675047Y-35432271D01*
X49626666Y-35460090D01*
X49433142Y-35460090D01*
X49916952Y-35209719D02*
X49941142Y-35181900D01*
X49989523Y-35154080D01*
X50110476Y-35154080D01*
X50158857Y-35181900D01*
X50183047Y-35209719D01*
X50207238Y-35265357D01*
X50207238Y-35320995D01*
X50183047Y-35404452D01*
X49892761Y-35738280D01*
X50207238Y-35738280D01*
X50400761Y-35209719D02*
X50424952Y-35181900D01*
X50473333Y-35154080D01*
X50594285Y-35154080D01*
X50642666Y-35181900D01*
X50666857Y-35209719D01*
X50691047Y-35265357D01*
X50691047Y-35320995D01*
X50666857Y-35404452D01*
X50376571Y-35738280D01*
X50691047Y-35738280D01*
D16*
X49777857Y-37503809D02*
X49516600Y-37503809D01*
X49647228Y-37503809D02*
X49647228Y-36995809D01*
X49603685Y-37068380D01*
X49560142Y-37116761D01*
X49516600Y-37140952D01*
X50060885Y-36995809D02*
X50104428Y-36995809D01*
X50147971Y-37020000D01*
X50169742Y-37044190D01*
X50191514Y-37092571D01*
X50213285Y-37189333D01*
X50213285Y-37310285D01*
X50191514Y-37407047D01*
X50169742Y-37455428D01*
X50147971Y-37479619D01*
X50104428Y-37503809D01*
X50060885Y-37503809D01*
X50017342Y-37479619D01*
X49995571Y-37455428D01*
X49973800Y-37407047D01*
X49952028Y-37310285D01*
X49952028Y-37189333D01*
X49973800Y-37092571D01*
X49995571Y-37044190D01*
X50017342Y-37020000D01*
X50060885Y-36995809D01*
X50409228Y-37503809D02*
X50409228Y-36995809D01*
X50452771Y-37310285D02*
X50583400Y-37503809D01*
X50583400Y-37165142D02*
X50409228Y-37358666D01*
G04 #@! TO.C,R21*
D15*
X49723428Y-39598280D02*
X49554095Y-39320090D01*
X49433142Y-39598280D02*
X49433142Y-39014080D01*
X49626666Y-39014080D01*
X49675047Y-39041900D01*
X49699238Y-39069719D01*
X49723428Y-39125357D01*
X49723428Y-39208814D01*
X49699238Y-39264452D01*
X49675047Y-39292271D01*
X49626666Y-39320090D01*
X49433142Y-39320090D01*
X49916952Y-39069719D02*
X49941142Y-39041900D01*
X49989523Y-39014080D01*
X50110476Y-39014080D01*
X50158857Y-39041900D01*
X50183047Y-39069719D01*
X50207238Y-39125357D01*
X50207238Y-39180995D01*
X50183047Y-39264452D01*
X49892761Y-39598280D01*
X50207238Y-39598280D01*
X50691047Y-39598280D02*
X50400761Y-39598280D01*
X50545904Y-39598280D02*
X50545904Y-39014080D01*
X50497523Y-39097538D01*
X50449142Y-39153176D01*
X50400761Y-39180995D01*
D16*
X49777857Y-41353809D02*
X49516600Y-41353809D01*
X49647228Y-41353809D02*
X49647228Y-40845809D01*
X49603685Y-40918380D01*
X49560142Y-40966761D01*
X49516600Y-40990952D01*
X50060885Y-40845809D02*
X50104428Y-40845809D01*
X50147971Y-40870000D01*
X50169742Y-40894190D01*
X50191514Y-40942571D01*
X50213285Y-41039333D01*
X50213285Y-41160285D01*
X50191514Y-41257047D01*
X50169742Y-41305428D01*
X50147971Y-41329619D01*
X50104428Y-41353809D01*
X50060885Y-41353809D01*
X50017342Y-41329619D01*
X49995571Y-41305428D01*
X49973800Y-41257047D01*
X49952028Y-41160285D01*
X49952028Y-41039333D01*
X49973800Y-40942571D01*
X49995571Y-40894190D01*
X50017342Y-40870000D01*
X50060885Y-40845809D01*
X50409228Y-41353809D02*
X50409228Y-40845809D01*
X50452771Y-41160285D02*
X50583400Y-41353809D01*
X50583400Y-41015142D02*
X50409228Y-41208666D01*
G04 #@! TO.C,R20*
D15*
X49753428Y-43400280D02*
X49584095Y-43122090D01*
X49463142Y-43400280D02*
X49463142Y-42816080D01*
X49656666Y-42816080D01*
X49705047Y-42843900D01*
X49729238Y-42871719D01*
X49753428Y-42927357D01*
X49753428Y-43010814D01*
X49729238Y-43066452D01*
X49705047Y-43094271D01*
X49656666Y-43122090D01*
X49463142Y-43122090D01*
X49946952Y-42871719D02*
X49971142Y-42843900D01*
X50019523Y-42816080D01*
X50140476Y-42816080D01*
X50188857Y-42843900D01*
X50213047Y-42871719D01*
X50237238Y-42927357D01*
X50237238Y-42982995D01*
X50213047Y-43066452D01*
X49922761Y-43400280D01*
X50237238Y-43400280D01*
X50551714Y-42816080D02*
X50600095Y-42816080D01*
X50648476Y-42843900D01*
X50672666Y-42871719D01*
X50696857Y-42927357D01*
X50721047Y-43038633D01*
X50721047Y-43177728D01*
X50696857Y-43289004D01*
X50672666Y-43344642D01*
X50648476Y-43372461D01*
X50600095Y-43400280D01*
X50551714Y-43400280D01*
X50503333Y-43372461D01*
X50479142Y-43344642D01*
X50454952Y-43289004D01*
X50430761Y-43177728D01*
X50430761Y-43038633D01*
X50454952Y-42927357D01*
X50479142Y-42871719D01*
X50503333Y-42843900D01*
X50551714Y-42816080D01*
D16*
X50025571Y-45143809D02*
X49764314Y-45143809D01*
X49894942Y-45143809D02*
X49894942Y-44635809D01*
X49851400Y-44708380D01*
X49807857Y-44756761D01*
X49764314Y-44780952D01*
X50221514Y-45143809D02*
X50221514Y-44635809D01*
X50265057Y-44950285D02*
X50395685Y-45143809D01*
X50395685Y-44805142D02*
X50221514Y-44998666D01*
G04 #@! TO.C,R19*
D15*
X45222280Y-33406571D02*
X44944090Y-33575904D01*
X45222280Y-33696857D02*
X44638080Y-33696857D01*
X44638080Y-33503333D01*
X44665900Y-33454952D01*
X44693719Y-33430761D01*
X44749357Y-33406571D01*
X44832814Y-33406571D01*
X44888452Y-33430761D01*
X44916271Y-33454952D01*
X44944090Y-33503333D01*
X44944090Y-33696857D01*
X45222280Y-32922761D02*
X45222280Y-33213047D01*
X45222280Y-33067904D02*
X44638080Y-33067904D01*
X44721538Y-33116285D01*
X44777176Y-33164666D01*
X44804995Y-33213047D01*
X45222280Y-32680857D02*
X45222280Y-32584095D01*
X45194461Y-32535714D01*
X45166642Y-32511523D01*
X45083185Y-32463142D01*
X44971909Y-32438952D01*
X44749357Y-32438952D01*
X44693719Y-32463142D01*
X44665900Y-32487333D01*
X44638080Y-32535714D01*
X44638080Y-32632476D01*
X44665900Y-32680857D01*
X44693719Y-32705047D01*
X44749357Y-32729238D01*
X44888452Y-32729238D01*
X44944090Y-32705047D01*
X44971909Y-32680857D01*
X44999728Y-32632476D01*
X44999728Y-32535714D01*
X44971909Y-32487333D01*
X44944090Y-32463142D01*
X44888452Y-32438952D01*
D16*
X43071142Y-33504542D02*
X43409809Y-33504542D01*
X42877619Y-33613400D02*
X43240476Y-33722257D01*
X43240476Y-33439228D01*
X43361428Y-33265057D02*
X43385619Y-33243285D01*
X43409809Y-33265057D01*
X43385619Y-33286828D01*
X43361428Y-33265057D01*
X43409809Y-33265057D01*
X42901809Y-33090885D02*
X42901809Y-32786085D01*
X43409809Y-32982028D01*
X43409809Y-32611914D02*
X42901809Y-32611914D01*
X43216285Y-32568371D02*
X43409809Y-32437742D01*
X43071142Y-32437742D02*
X43264666Y-32611914D01*
G04 #@! TO.C,C65*
D15*
X103295642Y-34369571D02*
X103323461Y-34393761D01*
X103351280Y-34466333D01*
X103351280Y-34514714D01*
X103323461Y-34587285D01*
X103267823Y-34635666D01*
X103212185Y-34659857D01*
X103100909Y-34684047D01*
X103017452Y-34684047D01*
X102906176Y-34659857D01*
X102850538Y-34635666D01*
X102794900Y-34587285D01*
X102767080Y-34514714D01*
X102767080Y-34466333D01*
X102794900Y-34393761D01*
X102822719Y-34369571D01*
X102767080Y-33934142D02*
X102767080Y-34030904D01*
X102794900Y-34079285D01*
X102822719Y-34103476D01*
X102906176Y-34151857D01*
X103017452Y-34176047D01*
X103240004Y-34176047D01*
X103295642Y-34151857D01*
X103323461Y-34127666D01*
X103351280Y-34079285D01*
X103351280Y-33982523D01*
X103323461Y-33934142D01*
X103295642Y-33909952D01*
X103240004Y-33885761D01*
X103100909Y-33885761D01*
X103045271Y-33909952D01*
X103017452Y-33934142D01*
X102989633Y-33982523D01*
X102989633Y-34079285D01*
X103017452Y-34127666D01*
X103045271Y-34151857D01*
X103100909Y-34176047D01*
X102767080Y-33426142D02*
X102767080Y-33668047D01*
X103045271Y-33692238D01*
X103017452Y-33668047D01*
X102989633Y-33619666D01*
X102989633Y-33498714D01*
X103017452Y-33450333D01*
X103045271Y-33426142D01*
X103100909Y-33401952D01*
X103240004Y-33401952D01*
X103295642Y-33426142D01*
X103323461Y-33450333D01*
X103351280Y-33498714D01*
X103351280Y-33619666D01*
X103323461Y-33668047D01*
X103295642Y-33692238D01*
D16*
X101011809Y-34589171D02*
X101011809Y-34545628D01*
X101036000Y-34502085D01*
X101060190Y-34480314D01*
X101108571Y-34458542D01*
X101205333Y-34436771D01*
X101326285Y-34436771D01*
X101423047Y-34458542D01*
X101471428Y-34480314D01*
X101495619Y-34502085D01*
X101519809Y-34545628D01*
X101519809Y-34589171D01*
X101495619Y-34632714D01*
X101471428Y-34654485D01*
X101423047Y-34676257D01*
X101326285Y-34698028D01*
X101205333Y-34698028D01*
X101108571Y-34676257D01*
X101060190Y-34654485D01*
X101036000Y-34632714D01*
X101011809Y-34589171D01*
X101471428Y-34240828D02*
X101495619Y-34219057D01*
X101519809Y-34240828D01*
X101495619Y-34262600D01*
X101471428Y-34240828D01*
X101519809Y-34240828D01*
X101519809Y-33783628D02*
X101519809Y-34044885D01*
X101519809Y-33914257D02*
X101011809Y-33914257D01*
X101084380Y-33957800D01*
X101132761Y-34001342D01*
X101156952Y-34044885D01*
X101181142Y-33391742D02*
X101519809Y-33391742D01*
X101181142Y-33587685D02*
X101447238Y-33587685D01*
X101495619Y-33565914D01*
X101519809Y-33522371D01*
X101519809Y-33457057D01*
X101495619Y-33413514D01*
X101471428Y-33391742D01*
G04 #@! TO.C,C60*
D15*
X78813428Y-33122642D02*
X78789238Y-33150461D01*
X78716666Y-33178280D01*
X78668285Y-33178280D01*
X78595714Y-33150461D01*
X78547333Y-33094823D01*
X78523142Y-33039185D01*
X78498952Y-32927909D01*
X78498952Y-32844452D01*
X78523142Y-32733176D01*
X78547333Y-32677538D01*
X78595714Y-32621900D01*
X78668285Y-32594080D01*
X78716666Y-32594080D01*
X78789238Y-32621900D01*
X78813428Y-32649719D01*
X79248857Y-32594080D02*
X79152095Y-32594080D01*
X79103714Y-32621900D01*
X79079523Y-32649719D01*
X79031142Y-32733176D01*
X79006952Y-32844452D01*
X79006952Y-33067004D01*
X79031142Y-33122642D01*
X79055333Y-33150461D01*
X79103714Y-33178280D01*
X79200476Y-33178280D01*
X79248857Y-33150461D01*
X79273047Y-33122642D01*
X79297238Y-33067004D01*
X79297238Y-32927909D01*
X79273047Y-32872271D01*
X79248857Y-32844452D01*
X79200476Y-32816633D01*
X79103714Y-32816633D01*
X79055333Y-32844452D01*
X79031142Y-32872271D01*
X79006952Y-32927909D01*
X79611714Y-32594080D02*
X79660095Y-32594080D01*
X79708476Y-32621900D01*
X79732666Y-32649719D01*
X79756857Y-32705357D01*
X79781047Y-32816633D01*
X79781047Y-32955728D01*
X79756857Y-33067004D01*
X79732666Y-33122642D01*
X79708476Y-33150461D01*
X79660095Y-33178280D01*
X79611714Y-33178280D01*
X79563333Y-33150461D01*
X79539142Y-33122642D01*
X79514952Y-33067004D01*
X79490761Y-32955728D01*
X79490761Y-32816633D01*
X79514952Y-32705357D01*
X79539142Y-32649719D01*
X79563333Y-32621900D01*
X79611714Y-32594080D01*
D16*
X78604828Y-34375809D02*
X78648371Y-34375809D01*
X78691914Y-34400000D01*
X78713685Y-34424190D01*
X78735457Y-34472571D01*
X78757228Y-34569333D01*
X78757228Y-34690285D01*
X78735457Y-34787047D01*
X78713685Y-34835428D01*
X78691914Y-34859619D01*
X78648371Y-34883809D01*
X78604828Y-34883809D01*
X78561285Y-34859619D01*
X78539514Y-34835428D01*
X78517742Y-34787047D01*
X78495971Y-34690285D01*
X78495971Y-34569333D01*
X78517742Y-34472571D01*
X78539514Y-34424190D01*
X78561285Y-34400000D01*
X78604828Y-34375809D01*
X78953171Y-34835428D02*
X78974942Y-34859619D01*
X78953171Y-34883809D01*
X78931400Y-34859619D01*
X78953171Y-34835428D01*
X78953171Y-34883809D01*
X79410371Y-34883809D02*
X79149114Y-34883809D01*
X79279742Y-34883809D02*
X79279742Y-34375809D01*
X79236200Y-34448380D01*
X79192657Y-34496761D01*
X79149114Y-34520952D01*
X79802257Y-34545142D02*
X79802257Y-34883809D01*
X79606314Y-34545142D02*
X79606314Y-34811238D01*
X79628085Y-34859619D01*
X79671628Y-34883809D01*
X79736942Y-34883809D01*
X79780485Y-34859619D01*
X79802257Y-34835428D01*
G04 #@! TO.C,C55*
D15*
X45156642Y-31726571D02*
X45184461Y-31750761D01*
X45212280Y-31823333D01*
X45212280Y-31871714D01*
X45184461Y-31944285D01*
X45128823Y-31992666D01*
X45073185Y-32016857D01*
X44961909Y-32041047D01*
X44878452Y-32041047D01*
X44767176Y-32016857D01*
X44711538Y-31992666D01*
X44655900Y-31944285D01*
X44628080Y-31871714D01*
X44628080Y-31823333D01*
X44655900Y-31750761D01*
X44683719Y-31726571D01*
X44628080Y-31266952D02*
X44628080Y-31508857D01*
X44906271Y-31533047D01*
X44878452Y-31508857D01*
X44850633Y-31460476D01*
X44850633Y-31339523D01*
X44878452Y-31291142D01*
X44906271Y-31266952D01*
X44961909Y-31242761D01*
X45101004Y-31242761D01*
X45156642Y-31266952D01*
X45184461Y-31291142D01*
X45212280Y-31339523D01*
X45212280Y-31460476D01*
X45184461Y-31508857D01*
X45156642Y-31533047D01*
X44628080Y-30783142D02*
X44628080Y-31025047D01*
X44906271Y-31049238D01*
X44878452Y-31025047D01*
X44850633Y-30976666D01*
X44850633Y-30855714D01*
X44878452Y-30807333D01*
X44906271Y-30783142D01*
X44961909Y-30758952D01*
X45101004Y-30758952D01*
X45156642Y-30783142D01*
X45184461Y-30807333D01*
X45212280Y-30855714D01*
X45212280Y-30976666D01*
X45184461Y-31025047D01*
X45156642Y-31049238D01*
D16*
X42891809Y-31955171D02*
X42891809Y-31911628D01*
X42916000Y-31868085D01*
X42940190Y-31846314D01*
X42988571Y-31824542D01*
X43085333Y-31802771D01*
X43206285Y-31802771D01*
X43303047Y-31824542D01*
X43351428Y-31846314D01*
X43375619Y-31868085D01*
X43399809Y-31911628D01*
X43399809Y-31955171D01*
X43375619Y-31998714D01*
X43351428Y-32020485D01*
X43303047Y-32042257D01*
X43206285Y-32064028D01*
X43085333Y-32064028D01*
X42988571Y-32042257D01*
X42940190Y-32020485D01*
X42916000Y-31998714D01*
X42891809Y-31955171D01*
X43351428Y-31606828D02*
X43375619Y-31585057D01*
X43399809Y-31606828D01*
X43375619Y-31628600D01*
X43351428Y-31606828D01*
X43399809Y-31606828D01*
X43399809Y-31149628D02*
X43399809Y-31410885D01*
X43399809Y-31280257D02*
X42891809Y-31280257D01*
X42964380Y-31323800D01*
X43012761Y-31367342D01*
X43036952Y-31410885D01*
X43061142Y-30757742D02*
X43399809Y-30757742D01*
X43061142Y-30953685D02*
X43327238Y-30953685D01*
X43375619Y-30931914D01*
X43399809Y-30888371D01*
X43399809Y-30823057D01*
X43375619Y-30779514D01*
X43351428Y-30757742D01*
G04 #@! TO.C,C47*
D15*
X101648428Y-57967642D02*
X101624238Y-57995461D01*
X101551666Y-58023280D01*
X101503285Y-58023280D01*
X101430714Y-57995461D01*
X101382333Y-57939823D01*
X101358142Y-57884185D01*
X101333952Y-57772909D01*
X101333952Y-57689452D01*
X101358142Y-57578176D01*
X101382333Y-57522538D01*
X101430714Y-57466900D01*
X101503285Y-57439080D01*
X101551666Y-57439080D01*
X101624238Y-57466900D01*
X101648428Y-57494719D01*
X102083857Y-57633814D02*
X102083857Y-58023280D01*
X101962904Y-57411261D02*
X101841952Y-57828547D01*
X102156428Y-57828547D01*
X102301571Y-57439080D02*
X102640238Y-57439080D01*
X102422523Y-58023280D01*
D16*
X101434828Y-55665809D02*
X101478371Y-55665809D01*
X101521914Y-55690000D01*
X101543685Y-55714190D01*
X101565457Y-55762571D01*
X101587228Y-55859333D01*
X101587228Y-55980285D01*
X101565457Y-56077047D01*
X101543685Y-56125428D01*
X101521914Y-56149619D01*
X101478371Y-56173809D01*
X101434828Y-56173809D01*
X101391285Y-56149619D01*
X101369514Y-56125428D01*
X101347742Y-56077047D01*
X101325971Y-55980285D01*
X101325971Y-55859333D01*
X101347742Y-55762571D01*
X101369514Y-55714190D01*
X101391285Y-55690000D01*
X101434828Y-55665809D01*
X101783171Y-56125428D02*
X101804942Y-56149619D01*
X101783171Y-56173809D01*
X101761400Y-56149619D01*
X101783171Y-56125428D01*
X101783171Y-56173809D01*
X102240371Y-56173809D02*
X101979114Y-56173809D01*
X102109742Y-56173809D02*
X102109742Y-55665809D01*
X102066200Y-55738380D01*
X102022657Y-55786761D01*
X101979114Y-55810952D01*
X102632257Y-55835142D02*
X102632257Y-56173809D01*
X102436314Y-55835142D02*
X102436314Y-56101238D01*
X102458085Y-56149619D01*
X102501628Y-56173809D01*
X102566942Y-56173809D01*
X102610485Y-56149619D01*
X102632257Y-56125428D01*
G04 #@! TO.C,C43*
D15*
X78198642Y-57020571D02*
X78226461Y-57044761D01*
X78254280Y-57117333D01*
X78254280Y-57165714D01*
X78226461Y-57238285D01*
X78170823Y-57286666D01*
X78115185Y-57310857D01*
X78003909Y-57335047D01*
X77920452Y-57335047D01*
X77809176Y-57310857D01*
X77753538Y-57286666D01*
X77697900Y-57238285D01*
X77670080Y-57165714D01*
X77670080Y-57117333D01*
X77697900Y-57044761D01*
X77725719Y-57020571D01*
X77864814Y-56585142D02*
X78254280Y-56585142D01*
X77642261Y-56706095D02*
X78059547Y-56827047D01*
X78059547Y-56512571D01*
X77670080Y-56367428D02*
X77670080Y-56052952D01*
X77892633Y-56222285D01*
X77892633Y-56149714D01*
X77920452Y-56101333D01*
X77948271Y-56077142D01*
X78003909Y-56052952D01*
X78143004Y-56052952D01*
X78198642Y-56077142D01*
X78226461Y-56101333D01*
X78254280Y-56149714D01*
X78254280Y-56294857D01*
X78226461Y-56343238D01*
X78198642Y-56367428D01*
D16*
X79491809Y-57179171D02*
X79491809Y-57135628D01*
X79516000Y-57092085D01*
X79540190Y-57070314D01*
X79588571Y-57048542D01*
X79685333Y-57026771D01*
X79806285Y-57026771D01*
X79903047Y-57048542D01*
X79951428Y-57070314D01*
X79975619Y-57092085D01*
X79999809Y-57135628D01*
X79999809Y-57179171D01*
X79975619Y-57222714D01*
X79951428Y-57244485D01*
X79903047Y-57266257D01*
X79806285Y-57288028D01*
X79685333Y-57288028D01*
X79588571Y-57266257D01*
X79540190Y-57244485D01*
X79516000Y-57222714D01*
X79491809Y-57179171D01*
X79951428Y-56830828D02*
X79975619Y-56809057D01*
X79999809Y-56830828D01*
X79975619Y-56852600D01*
X79951428Y-56830828D01*
X79999809Y-56830828D01*
X79999809Y-56373628D02*
X79999809Y-56634885D01*
X79999809Y-56504257D02*
X79491809Y-56504257D01*
X79564380Y-56547800D01*
X79612761Y-56591342D01*
X79636952Y-56634885D01*
X79661142Y-55981742D02*
X79999809Y-55981742D01*
X79661142Y-56177685D02*
X79927238Y-56177685D01*
X79975619Y-56155914D01*
X79999809Y-56112371D01*
X79999809Y-56047057D01*
X79975619Y-56003514D01*
X79951428Y-55981742D01*
G04 #@! TO.C,U10*
D11*
X47447180Y-40440795D02*
X48256704Y-40440795D01*
X48351942Y-40393176D01*
X48399561Y-40345557D01*
X48447180Y-40250319D01*
X48447180Y-40059842D01*
X48399561Y-39964604D01*
X48351942Y-39916985D01*
X48256704Y-39869366D01*
X47447180Y-39869366D01*
X48447180Y-38869366D02*
X48447180Y-39440795D01*
X48447180Y-39155080D02*
X47447180Y-39155080D01*
X47590038Y-39250319D01*
X47685276Y-39345557D01*
X47732895Y-39440795D01*
X47447180Y-38250319D02*
X47447180Y-38155080D01*
X47494800Y-38059842D01*
X47542419Y-38012223D01*
X47637657Y-37964604D01*
X47828133Y-37916985D01*
X48066228Y-37916985D01*
X48256704Y-37964604D01*
X48351942Y-38012223D01*
X48399561Y-38059842D01*
X48447180Y-38155080D01*
X48447180Y-38250319D01*
X48399561Y-38345557D01*
X48351942Y-38393176D01*
X48256704Y-38440795D01*
X48066228Y-38488414D01*
X47828133Y-38488414D01*
X47637657Y-38440795D01*
X47542419Y-38393176D01*
X47494800Y-38345557D01*
X47447180Y-38250319D01*
G04 #@! TO.C,C1*
D15*
X108868642Y-63554666D02*
X108896461Y-63578857D01*
X108924280Y-63651428D01*
X108924280Y-63699809D01*
X108896461Y-63772380D01*
X108840823Y-63820761D01*
X108785185Y-63844952D01*
X108673909Y-63869142D01*
X108590452Y-63869142D01*
X108479176Y-63844952D01*
X108423538Y-63820761D01*
X108367900Y-63772380D01*
X108340080Y-63699809D01*
X108340080Y-63651428D01*
X108367900Y-63578857D01*
X108395719Y-63554666D01*
X108924280Y-63070857D02*
X108924280Y-63361142D01*
X108924280Y-63216000D02*
X108340080Y-63216000D01*
X108423538Y-63264380D01*
X108479176Y-63312761D01*
X108506995Y-63361142D01*
D16*
X107059809Y-63767914D02*
X107059809Y-64029171D01*
X107059809Y-63898542D02*
X106551809Y-63898542D01*
X106624380Y-63942085D01*
X106672761Y-63985628D01*
X106696952Y-64029171D01*
X106551809Y-63484885D02*
X106551809Y-63441342D01*
X106576000Y-63397800D01*
X106600190Y-63376028D01*
X106648571Y-63354257D01*
X106745333Y-63332485D01*
X106866285Y-63332485D01*
X106963047Y-63354257D01*
X107011428Y-63376028D01*
X107035619Y-63397800D01*
X107059809Y-63441342D01*
X107059809Y-63484885D01*
X107035619Y-63528428D01*
X107011428Y-63550200D01*
X106963047Y-63571971D01*
X106866285Y-63593742D01*
X106745333Y-63593742D01*
X106648571Y-63571971D01*
X106600190Y-63550200D01*
X106576000Y-63528428D01*
X106551809Y-63484885D01*
X106721142Y-62940600D02*
X107059809Y-62940600D01*
X106721142Y-63136542D02*
X106987238Y-63136542D01*
X107035619Y-63114771D01*
X107059809Y-63071228D01*
X107059809Y-63005914D01*
X107035619Y-62962371D01*
X107011428Y-62940600D01*
G04 #@! TO.C,C3*
D15*
X117073333Y-69498642D02*
X117049142Y-69526461D01*
X116976571Y-69554280D01*
X116928190Y-69554280D01*
X116855619Y-69526461D01*
X116807238Y-69470823D01*
X116783047Y-69415185D01*
X116758857Y-69303909D01*
X116758857Y-69220452D01*
X116783047Y-69109176D01*
X116807238Y-69053538D01*
X116855619Y-68997900D01*
X116928190Y-68970080D01*
X116976571Y-68970080D01*
X117049142Y-68997900D01*
X117073333Y-69025719D01*
X117242666Y-68970080D02*
X117557142Y-68970080D01*
X117387809Y-69192633D01*
X117460380Y-69192633D01*
X117508761Y-69220452D01*
X117532952Y-69248271D01*
X117557142Y-69303909D01*
X117557142Y-69443004D01*
X117532952Y-69498642D01*
X117508761Y-69526461D01*
X117460380Y-69554280D01*
X117315238Y-69554280D01*
X117266857Y-69526461D01*
X117242666Y-69498642D01*
D16*
X115526085Y-70353809D02*
X115264828Y-70353809D01*
X115395457Y-70353809D02*
X115395457Y-69845809D01*
X115351914Y-69918380D01*
X115308371Y-69966761D01*
X115264828Y-69990952D01*
X115809114Y-69845809D02*
X115852657Y-69845809D01*
X115896200Y-69870000D01*
X115917971Y-69894190D01*
X115939742Y-69942571D01*
X115961514Y-70039333D01*
X115961514Y-70160285D01*
X115939742Y-70257047D01*
X115917971Y-70305428D01*
X115896200Y-70329619D01*
X115852657Y-70353809D01*
X115809114Y-70353809D01*
X115765571Y-70329619D01*
X115743800Y-70305428D01*
X115722028Y-70257047D01*
X115700257Y-70160285D01*
X115700257Y-70039333D01*
X115722028Y-69942571D01*
X115743800Y-69894190D01*
X115765571Y-69870000D01*
X115809114Y-69845809D01*
X116353400Y-70015142D02*
X116353400Y-70353809D01*
X116157457Y-70015142D02*
X116157457Y-70281238D01*
X116179228Y-70329619D01*
X116222771Y-70353809D01*
X116288085Y-70353809D01*
X116331628Y-70329619D01*
X116353400Y-70305428D01*
G04 #@! TO.C,C5*
D15*
X108848642Y-65104666D02*
X108876461Y-65128857D01*
X108904280Y-65201428D01*
X108904280Y-65249809D01*
X108876461Y-65322380D01*
X108820823Y-65370761D01*
X108765185Y-65394952D01*
X108653909Y-65419142D01*
X108570452Y-65419142D01*
X108459176Y-65394952D01*
X108403538Y-65370761D01*
X108347900Y-65322380D01*
X108320080Y-65249809D01*
X108320080Y-65201428D01*
X108347900Y-65128857D01*
X108375719Y-65104666D01*
X108320080Y-64645047D02*
X108320080Y-64886952D01*
X108598271Y-64911142D01*
X108570452Y-64886952D01*
X108542633Y-64838571D01*
X108542633Y-64717619D01*
X108570452Y-64669238D01*
X108598271Y-64645047D01*
X108653909Y-64620857D01*
X108793004Y-64620857D01*
X108848642Y-64645047D01*
X108876461Y-64669238D01*
X108904280Y-64717619D01*
X108904280Y-64838571D01*
X108876461Y-64886952D01*
X108848642Y-64911142D01*
D16*
X106721142Y-65431457D02*
X107059809Y-65431457D01*
X106527619Y-65540314D02*
X106890476Y-65649171D01*
X106890476Y-65366142D01*
X106551809Y-65235514D02*
X106551809Y-64930714D01*
X107059809Y-65126657D01*
X106721142Y-64560600D02*
X107059809Y-64560600D01*
X106721142Y-64756542D02*
X106987238Y-64756542D01*
X107035619Y-64734771D01*
X107059809Y-64691228D01*
X107059809Y-64625914D01*
X107035619Y-64582371D01*
X107011428Y-64560600D01*
G04 #@! TO.C,C6*
D15*
X74825333Y-33402642D02*
X74801142Y-33430461D01*
X74728571Y-33458280D01*
X74680190Y-33458280D01*
X74607619Y-33430461D01*
X74559238Y-33374823D01*
X74535047Y-33319185D01*
X74510857Y-33207909D01*
X74510857Y-33124452D01*
X74535047Y-33013176D01*
X74559238Y-32957538D01*
X74607619Y-32901900D01*
X74680190Y-32874080D01*
X74728571Y-32874080D01*
X74801142Y-32901900D01*
X74825333Y-32929719D01*
X75260761Y-32874080D02*
X75164000Y-32874080D01*
X75115619Y-32901900D01*
X75091428Y-32929719D01*
X75043047Y-33013176D01*
X75018857Y-33124452D01*
X75018857Y-33347004D01*
X75043047Y-33402642D01*
X75067238Y-33430461D01*
X75115619Y-33458280D01*
X75212380Y-33458280D01*
X75260761Y-33430461D01*
X75284952Y-33402642D01*
X75309142Y-33347004D01*
X75309142Y-33207909D01*
X75284952Y-33152271D01*
X75260761Y-33124452D01*
X75212380Y-33096633D01*
X75115619Y-33096633D01*
X75067238Y-33124452D01*
X75043047Y-33152271D01*
X75018857Y-33207909D01*
D16*
X74384828Y-34625809D02*
X74428371Y-34625809D01*
X74471914Y-34650000D01*
X74493685Y-34674190D01*
X74515457Y-34722571D01*
X74537228Y-34819333D01*
X74537228Y-34940285D01*
X74515457Y-35037047D01*
X74493685Y-35085428D01*
X74471914Y-35109619D01*
X74428371Y-35133809D01*
X74384828Y-35133809D01*
X74341285Y-35109619D01*
X74319514Y-35085428D01*
X74297742Y-35037047D01*
X74275971Y-34940285D01*
X74275971Y-34819333D01*
X74297742Y-34722571D01*
X74319514Y-34674190D01*
X74341285Y-34650000D01*
X74384828Y-34625809D01*
X74733171Y-35085428D02*
X74754942Y-35109619D01*
X74733171Y-35133809D01*
X74711400Y-35109619D01*
X74733171Y-35085428D01*
X74733171Y-35133809D01*
X75190371Y-35133809D02*
X74929114Y-35133809D01*
X75059742Y-35133809D02*
X75059742Y-34625809D01*
X75016200Y-34698380D01*
X74972657Y-34746761D01*
X74929114Y-34770952D01*
X75582257Y-34795142D02*
X75582257Y-35133809D01*
X75386314Y-34795142D02*
X75386314Y-35061238D01*
X75408085Y-35109619D01*
X75451628Y-35133809D01*
X75516942Y-35133809D01*
X75560485Y-35109619D01*
X75582257Y-35085428D01*
G04 #@! TO.C,C7*
D15*
X73445333Y-42592642D02*
X73421142Y-42620461D01*
X73348571Y-42648280D01*
X73300190Y-42648280D01*
X73227619Y-42620461D01*
X73179238Y-42564823D01*
X73155047Y-42509185D01*
X73130857Y-42397909D01*
X73130857Y-42314452D01*
X73155047Y-42203176D01*
X73179238Y-42147538D01*
X73227619Y-42091900D01*
X73300190Y-42064080D01*
X73348571Y-42064080D01*
X73421142Y-42091900D01*
X73445333Y-42119719D01*
X73614666Y-42064080D02*
X73953333Y-42064080D01*
X73735619Y-42648280D01*
D16*
X74384828Y-42895809D02*
X74428371Y-42895809D01*
X74471914Y-42920000D01*
X74493685Y-42944190D01*
X74515457Y-42992571D01*
X74537228Y-43089333D01*
X74537228Y-43210285D01*
X74515457Y-43307047D01*
X74493685Y-43355428D01*
X74471914Y-43379619D01*
X74428371Y-43403809D01*
X74384828Y-43403809D01*
X74341285Y-43379619D01*
X74319514Y-43355428D01*
X74297742Y-43307047D01*
X74275971Y-43210285D01*
X74275971Y-43089333D01*
X74297742Y-42992571D01*
X74319514Y-42944190D01*
X74341285Y-42920000D01*
X74384828Y-42895809D01*
X74733171Y-43355428D02*
X74754942Y-43379619D01*
X74733171Y-43403809D01*
X74711400Y-43379619D01*
X74733171Y-43355428D01*
X74733171Y-43403809D01*
X75190371Y-43403809D02*
X74929114Y-43403809D01*
X75059742Y-43403809D02*
X75059742Y-42895809D01*
X75016200Y-42968380D01*
X74972657Y-43016761D01*
X74929114Y-43040952D01*
X75582257Y-43065142D02*
X75582257Y-43403809D01*
X75386314Y-43065142D02*
X75386314Y-43331238D01*
X75408085Y-43379619D01*
X75451628Y-43403809D01*
X75516942Y-43403809D01*
X75560485Y-43379619D01*
X75582257Y-43355428D01*
G04 #@! TO.C,C8*
D15*
X71955333Y-61844642D02*
X71931142Y-61872461D01*
X71858571Y-61900280D01*
X71810190Y-61900280D01*
X71737619Y-61872461D01*
X71689238Y-61816823D01*
X71665047Y-61761185D01*
X71640857Y-61649909D01*
X71640857Y-61566452D01*
X71665047Y-61455176D01*
X71689238Y-61399538D01*
X71737619Y-61343900D01*
X71810190Y-61316080D01*
X71858571Y-61316080D01*
X71931142Y-61343900D01*
X71955333Y-61371719D01*
X72245619Y-61566452D02*
X72197238Y-61538633D01*
X72173047Y-61510814D01*
X72148857Y-61455176D01*
X72148857Y-61427357D01*
X72173047Y-61371719D01*
X72197238Y-61343900D01*
X72245619Y-61316080D01*
X72342380Y-61316080D01*
X72390761Y-61343900D01*
X72414952Y-61371719D01*
X72439142Y-61427357D01*
X72439142Y-61455176D01*
X72414952Y-61510814D01*
X72390761Y-61538633D01*
X72342380Y-61566452D01*
X72245619Y-61566452D01*
X72197238Y-61594271D01*
X72173047Y-61622090D01*
X72148857Y-61677728D01*
X72148857Y-61789004D01*
X72173047Y-61844642D01*
X72197238Y-61872461D01*
X72245619Y-61900280D01*
X72342380Y-61900280D01*
X72390761Y-61872461D01*
X72414952Y-61844642D01*
X72439142Y-61789004D01*
X72439142Y-61677728D01*
X72414952Y-61622090D01*
X72390761Y-61594271D01*
X72342380Y-61566452D01*
D16*
X71484828Y-63135809D02*
X71528371Y-63135809D01*
X71571914Y-63160000D01*
X71593685Y-63184190D01*
X71615457Y-63232571D01*
X71637228Y-63329333D01*
X71637228Y-63450285D01*
X71615457Y-63547047D01*
X71593685Y-63595428D01*
X71571914Y-63619619D01*
X71528371Y-63643809D01*
X71484828Y-63643809D01*
X71441285Y-63619619D01*
X71419514Y-63595428D01*
X71397742Y-63547047D01*
X71375971Y-63450285D01*
X71375971Y-63329333D01*
X71397742Y-63232571D01*
X71419514Y-63184190D01*
X71441285Y-63160000D01*
X71484828Y-63135809D01*
X71833171Y-63595428D02*
X71854942Y-63619619D01*
X71833171Y-63643809D01*
X71811400Y-63619619D01*
X71833171Y-63595428D01*
X71833171Y-63643809D01*
X72290371Y-63643809D02*
X72029114Y-63643809D01*
X72159742Y-63643809D02*
X72159742Y-63135809D01*
X72116200Y-63208380D01*
X72072657Y-63256761D01*
X72029114Y-63280952D01*
X72682257Y-63305142D02*
X72682257Y-63643809D01*
X72486314Y-63305142D02*
X72486314Y-63571238D01*
X72508085Y-63619619D01*
X72551628Y-63643809D01*
X72616942Y-63643809D01*
X72660485Y-63619619D01*
X72682257Y-63595428D01*
G04 #@! TO.C,R1*
D15*
X77682280Y-52754666D02*
X77404090Y-52924000D01*
X77682280Y-53044952D02*
X77098080Y-53044952D01*
X77098080Y-52851428D01*
X77125900Y-52803047D01*
X77153719Y-52778857D01*
X77209357Y-52754666D01*
X77292814Y-52754666D01*
X77348452Y-52778857D01*
X77376271Y-52803047D01*
X77404090Y-52851428D01*
X77404090Y-53044952D01*
X77682280Y-52270857D02*
X77682280Y-52561142D01*
X77682280Y-52416000D02*
X77098080Y-52416000D01*
X77181538Y-52464380D01*
X77237176Y-52512761D01*
X77264995Y-52561142D01*
D16*
X75410190Y-53312257D02*
X75386000Y-53290485D01*
X75361809Y-53246942D01*
X75361809Y-53138085D01*
X75386000Y-53094542D01*
X75410190Y-53072771D01*
X75458571Y-53051000D01*
X75506952Y-53051000D01*
X75579523Y-53072771D01*
X75869809Y-53334028D01*
X75869809Y-53051000D01*
X75821428Y-52855057D02*
X75845619Y-52833285D01*
X75869809Y-52855057D01*
X75845619Y-52876828D01*
X75821428Y-52855057D01*
X75869809Y-52855057D01*
X75410190Y-52659114D02*
X75386000Y-52637342D01*
X75361809Y-52593800D01*
X75361809Y-52484942D01*
X75386000Y-52441400D01*
X75410190Y-52419628D01*
X75458571Y-52397857D01*
X75506952Y-52397857D01*
X75579523Y-52419628D01*
X75869809Y-52680885D01*
X75869809Y-52397857D01*
X75869809Y-52201914D02*
X75361809Y-52201914D01*
X75676285Y-52158371D02*
X75869809Y-52027742D01*
X75531142Y-52027742D02*
X75724666Y-52201914D01*
G04 #@! TO.C,R2*
D15*
X77682280Y-51134666D02*
X77404090Y-51304000D01*
X77682280Y-51424952D02*
X77098080Y-51424952D01*
X77098080Y-51231428D01*
X77125900Y-51183047D01*
X77153719Y-51158857D01*
X77209357Y-51134666D01*
X77292814Y-51134666D01*
X77348452Y-51158857D01*
X77376271Y-51183047D01*
X77404090Y-51231428D01*
X77404090Y-51424952D01*
X77153719Y-50941142D02*
X77125900Y-50916952D01*
X77098080Y-50868571D01*
X77098080Y-50747619D01*
X77125900Y-50699238D01*
X77153719Y-50675047D01*
X77209357Y-50650857D01*
X77264995Y-50650857D01*
X77348452Y-50675047D01*
X77682280Y-50965333D01*
X77682280Y-50650857D01*
D16*
X75410190Y-51692257D02*
X75386000Y-51670485D01*
X75361809Y-51626942D01*
X75361809Y-51518085D01*
X75386000Y-51474542D01*
X75410190Y-51452771D01*
X75458571Y-51431000D01*
X75506952Y-51431000D01*
X75579523Y-51452771D01*
X75869809Y-51714028D01*
X75869809Y-51431000D01*
X75821428Y-51235057D02*
X75845619Y-51213285D01*
X75869809Y-51235057D01*
X75845619Y-51256828D01*
X75821428Y-51235057D01*
X75869809Y-51235057D01*
X75410190Y-51039114D02*
X75386000Y-51017342D01*
X75361809Y-50973800D01*
X75361809Y-50864942D01*
X75386000Y-50821400D01*
X75410190Y-50799628D01*
X75458571Y-50777857D01*
X75506952Y-50777857D01*
X75579523Y-50799628D01*
X75869809Y-51060885D01*
X75869809Y-50777857D01*
X75869809Y-50581914D02*
X75361809Y-50581914D01*
X75676285Y-50538371D02*
X75869809Y-50407742D01*
X75531142Y-50407742D02*
X75724666Y-50581914D01*
G04 #@! TO.C,D1*
D11*
X109342380Y-68658095D02*
X108342380Y-68658095D01*
X108342380Y-68420000D01*
X108390000Y-68277142D01*
X108485238Y-68181904D01*
X108580476Y-68134285D01*
X108770952Y-68086666D01*
X108913809Y-68086666D01*
X109104285Y-68134285D01*
X109199523Y-68181904D01*
X109294761Y-68277142D01*
X109342380Y-68420000D01*
X109342380Y-68658095D01*
X109342380Y-67134285D02*
X109342380Y-67705714D01*
X109342380Y-67420000D02*
X108342380Y-67420000D01*
X108485238Y-67515238D01*
X108580476Y-67610476D01*
X108628095Y-67705714D01*
G04 #@! TO.C,R3*
D15*
X121912280Y-48748666D02*
X121634090Y-48918000D01*
X121912280Y-49038952D02*
X121328080Y-49038952D01*
X121328080Y-48845428D01*
X121355900Y-48797047D01*
X121383719Y-48772857D01*
X121439357Y-48748666D01*
X121522814Y-48748666D01*
X121578452Y-48772857D01*
X121606271Y-48797047D01*
X121634090Y-48845428D01*
X121634090Y-49038952D01*
X121328080Y-48579333D02*
X121328080Y-48264857D01*
X121550633Y-48434190D01*
X121550633Y-48361619D01*
X121578452Y-48313238D01*
X121606271Y-48289047D01*
X121661909Y-48264857D01*
X121801004Y-48264857D01*
X121856642Y-48289047D01*
X121884461Y-48313238D01*
X121912280Y-48361619D01*
X121912280Y-48506761D01*
X121884461Y-48555142D01*
X121856642Y-48579333D01*
D16*
X119809523Y-49142971D02*
X119785333Y-49186514D01*
X119761142Y-49208285D01*
X119712761Y-49230057D01*
X119688571Y-49230057D01*
X119640190Y-49208285D01*
X119616000Y-49186514D01*
X119591809Y-49142971D01*
X119591809Y-49055885D01*
X119616000Y-49012342D01*
X119640190Y-48990571D01*
X119688571Y-48968800D01*
X119712761Y-48968800D01*
X119761142Y-48990571D01*
X119785333Y-49012342D01*
X119809523Y-49055885D01*
X119809523Y-49142971D01*
X119833714Y-49186514D01*
X119857904Y-49208285D01*
X119906285Y-49230057D01*
X120003047Y-49230057D01*
X120051428Y-49208285D01*
X120075619Y-49186514D01*
X120099809Y-49142971D01*
X120099809Y-49055885D01*
X120075619Y-49012342D01*
X120051428Y-48990571D01*
X120003047Y-48968800D01*
X119906285Y-48968800D01*
X119857904Y-48990571D01*
X119833714Y-49012342D01*
X119809523Y-49055885D01*
X119809523Y-48707542D02*
X119785333Y-48751085D01*
X119761142Y-48772857D01*
X119712761Y-48794628D01*
X119688571Y-48794628D01*
X119640190Y-48772857D01*
X119616000Y-48751085D01*
X119591809Y-48707542D01*
X119591809Y-48620457D01*
X119616000Y-48576914D01*
X119640190Y-48555142D01*
X119688571Y-48533371D01*
X119712761Y-48533371D01*
X119761142Y-48555142D01*
X119785333Y-48576914D01*
X119809523Y-48620457D01*
X119809523Y-48707542D01*
X119833714Y-48751085D01*
X119857904Y-48772857D01*
X119906285Y-48794628D01*
X120003047Y-48794628D01*
X120051428Y-48772857D01*
X120075619Y-48751085D01*
X120099809Y-48707542D01*
X120099809Y-48620457D01*
X120075619Y-48576914D01*
X120051428Y-48555142D01*
X120003047Y-48533371D01*
X119906285Y-48533371D01*
X119857904Y-48555142D01*
X119833714Y-48576914D01*
X119809523Y-48620457D01*
X119591809Y-48380971D02*
X119591809Y-48076171D01*
X120099809Y-48272114D01*
G04 #@! TO.C,C14*
D15*
X104393428Y-59738642D02*
X104369238Y-59766461D01*
X104296666Y-59794280D01*
X104248285Y-59794280D01*
X104175714Y-59766461D01*
X104127333Y-59710823D01*
X104103142Y-59655185D01*
X104078952Y-59543909D01*
X104078952Y-59460452D01*
X104103142Y-59349176D01*
X104127333Y-59293538D01*
X104175714Y-59237900D01*
X104248285Y-59210080D01*
X104296666Y-59210080D01*
X104369238Y-59237900D01*
X104393428Y-59265719D01*
X104877238Y-59794280D02*
X104586952Y-59794280D01*
X104732095Y-59794280D02*
X104732095Y-59210080D01*
X104683714Y-59293538D01*
X104635333Y-59349176D01*
X104586952Y-59376995D01*
X105312666Y-59404814D02*
X105312666Y-59794280D01*
X105191714Y-59182261D02*
X105070761Y-59599547D01*
X105385238Y-59599547D01*
D16*
X104164828Y-60981809D02*
X104208371Y-60981809D01*
X104251914Y-61006000D01*
X104273685Y-61030190D01*
X104295457Y-61078571D01*
X104317228Y-61175333D01*
X104317228Y-61296285D01*
X104295457Y-61393047D01*
X104273685Y-61441428D01*
X104251914Y-61465619D01*
X104208371Y-61489809D01*
X104164828Y-61489809D01*
X104121285Y-61465619D01*
X104099514Y-61441428D01*
X104077742Y-61393047D01*
X104055971Y-61296285D01*
X104055971Y-61175333D01*
X104077742Y-61078571D01*
X104099514Y-61030190D01*
X104121285Y-61006000D01*
X104164828Y-60981809D01*
X104513171Y-61441428D02*
X104534942Y-61465619D01*
X104513171Y-61489809D01*
X104491400Y-61465619D01*
X104513171Y-61441428D01*
X104513171Y-61489809D01*
X104970371Y-61489809D02*
X104709114Y-61489809D01*
X104839742Y-61489809D02*
X104839742Y-60981809D01*
X104796200Y-61054380D01*
X104752657Y-61102761D01*
X104709114Y-61126952D01*
X105362257Y-61151142D02*
X105362257Y-61489809D01*
X105166314Y-61151142D02*
X105166314Y-61417238D01*
X105188085Y-61465619D01*
X105231628Y-61489809D01*
X105296942Y-61489809D01*
X105340485Y-61465619D01*
X105362257Y-61441428D01*
G04 #@! TO.C,U3*
D11*
X68078095Y-33452380D02*
X68078095Y-34261904D01*
X68125714Y-34357142D01*
X68173333Y-34404761D01*
X68268571Y-34452380D01*
X68459047Y-34452380D01*
X68554285Y-34404761D01*
X68601904Y-34357142D01*
X68649523Y-34261904D01*
X68649523Y-33452380D01*
X69030476Y-33452380D02*
X69649523Y-33452380D01*
X69316190Y-33833333D01*
X69459047Y-33833333D01*
X69554285Y-33880952D01*
X69601904Y-33928571D01*
X69649523Y-34023809D01*
X69649523Y-34261904D01*
X69601904Y-34357142D01*
X69554285Y-34404761D01*
X69459047Y-34452380D01*
X69173333Y-34452380D01*
X69078095Y-34404761D01*
X69030476Y-34357142D01*
G04 #@! TO.C,U4*
X71448095Y-50132380D02*
X71448095Y-50941904D01*
X71495714Y-51037142D01*
X71543333Y-51084761D01*
X71638571Y-51132380D01*
X71829047Y-51132380D01*
X71924285Y-51084761D01*
X71971904Y-51037142D01*
X72019523Y-50941904D01*
X72019523Y-50132380D01*
X72924285Y-50465714D02*
X72924285Y-51132380D01*
X72686190Y-50084761D02*
X72448095Y-50799047D01*
X73067142Y-50799047D01*
G04 #@! TO.C,U5*
X63532380Y-71871904D02*
X64341904Y-71871904D01*
X64437142Y-71824285D01*
X64484761Y-71776666D01*
X64532380Y-71681428D01*
X64532380Y-71490952D01*
X64484761Y-71395714D01*
X64437142Y-71348095D01*
X64341904Y-71300476D01*
X63532380Y-71300476D01*
X63532380Y-70348095D02*
X63532380Y-70824285D01*
X64008571Y-70871904D01*
X63960952Y-70824285D01*
X63913333Y-70729047D01*
X63913333Y-70490952D01*
X63960952Y-70395714D01*
X64008571Y-70348095D01*
X64103809Y-70300476D01*
X64341904Y-70300476D01*
X64437142Y-70348095D01*
X64484761Y-70395714D01*
X64532380Y-70490952D01*
X64532380Y-70729047D01*
X64484761Y-70824285D01*
X64437142Y-70871904D01*
G04 #@! TO.C,R4*
D15*
X92145333Y-67284280D02*
X91976000Y-67006090D01*
X91855047Y-67284280D02*
X91855047Y-66700080D01*
X92048571Y-66700080D01*
X92096952Y-66727900D01*
X92121142Y-66755719D01*
X92145333Y-66811357D01*
X92145333Y-66894814D01*
X92121142Y-66950452D01*
X92096952Y-66978271D01*
X92048571Y-67006090D01*
X91855047Y-67006090D01*
X92580761Y-66894814D02*
X92580761Y-67284280D01*
X92459809Y-66672261D02*
X92338857Y-67089547D01*
X92653333Y-67089547D01*
D16*
X91915457Y-68595142D02*
X91915457Y-68933809D01*
X91806600Y-68401619D02*
X91697742Y-68764476D01*
X91980771Y-68764476D01*
X92154942Y-68885428D02*
X92176714Y-68909619D01*
X92154942Y-68933809D01*
X92133171Y-68909619D01*
X92154942Y-68885428D01*
X92154942Y-68933809D01*
X92329114Y-68425809D02*
X92633914Y-68425809D01*
X92437971Y-68933809D01*
X92808085Y-68933809D02*
X92808085Y-68425809D01*
X92851628Y-68740285D02*
X92982257Y-68933809D01*
X92982257Y-68595142D02*
X92808085Y-68788666D01*
G04 #@! TO.C,D2*
D11*
X130921904Y-32846380D02*
X130921904Y-31846380D01*
X131160000Y-31846380D01*
X131302857Y-31894000D01*
X131398095Y-31989238D01*
X131445714Y-32084476D01*
X131493333Y-32274952D01*
X131493333Y-32417809D01*
X131445714Y-32608285D01*
X131398095Y-32703523D01*
X131302857Y-32798761D01*
X131160000Y-32846380D01*
X130921904Y-32846380D01*
X131874285Y-31941619D02*
X131921904Y-31894000D01*
X132017142Y-31846380D01*
X132255238Y-31846380D01*
X132350476Y-31894000D01*
X132398095Y-31941619D01*
X132445714Y-32036857D01*
X132445714Y-32132095D01*
X132398095Y-32274952D01*
X131826666Y-32846380D01*
X132445714Y-32846380D01*
G04 #@! TO.C,D3*
X130953184Y-40430900D02*
X130953184Y-39430900D01*
X131191280Y-39430900D01*
X131334137Y-39478520D01*
X131429375Y-39573758D01*
X131476994Y-39668996D01*
X131524613Y-39859472D01*
X131524613Y-40002329D01*
X131476994Y-40192805D01*
X131429375Y-40288043D01*
X131334137Y-40383281D01*
X131191280Y-40430900D01*
X130953184Y-40430900D01*
X131857946Y-39430900D02*
X132476994Y-39430900D01*
X132143660Y-39811853D01*
X132286518Y-39811853D01*
X132381756Y-39859472D01*
X132429375Y-39907091D01*
X132476994Y-40002329D01*
X132476994Y-40240424D01*
X132429375Y-40335662D01*
X132381756Y-40383281D01*
X132286518Y-40430900D01*
X132000803Y-40430900D01*
X131905565Y-40383281D01*
X131857946Y-40335662D01*
G04 #@! TO.C,C16*
D15*
X88220642Y-67020571D02*
X88248461Y-67044761D01*
X88276280Y-67117333D01*
X88276280Y-67165714D01*
X88248461Y-67238285D01*
X88192823Y-67286666D01*
X88137185Y-67310857D01*
X88025909Y-67335047D01*
X87942452Y-67335047D01*
X87831176Y-67310857D01*
X87775538Y-67286666D01*
X87719900Y-67238285D01*
X87692080Y-67165714D01*
X87692080Y-67117333D01*
X87719900Y-67044761D01*
X87747719Y-67020571D01*
X88276280Y-66536761D02*
X88276280Y-66827047D01*
X88276280Y-66681904D02*
X87692080Y-66681904D01*
X87775538Y-66730285D01*
X87831176Y-66778666D01*
X87858995Y-66827047D01*
X87692080Y-66101333D02*
X87692080Y-66198095D01*
X87719900Y-66246476D01*
X87747719Y-66270666D01*
X87831176Y-66319047D01*
X87942452Y-66343238D01*
X88165004Y-66343238D01*
X88220642Y-66319047D01*
X88248461Y-66294857D01*
X88276280Y-66246476D01*
X88276280Y-66149714D01*
X88248461Y-66101333D01*
X88220642Y-66077142D01*
X88165004Y-66052952D01*
X88025909Y-66052952D01*
X87970271Y-66077142D01*
X87942452Y-66101333D01*
X87914633Y-66149714D01*
X87914633Y-66246476D01*
X87942452Y-66294857D01*
X87970271Y-66319047D01*
X88025909Y-66343238D01*
D16*
X89511809Y-67249171D02*
X89511809Y-67205628D01*
X89536000Y-67162085D01*
X89560190Y-67140314D01*
X89608571Y-67118542D01*
X89705333Y-67096771D01*
X89826285Y-67096771D01*
X89923047Y-67118542D01*
X89971428Y-67140314D01*
X89995619Y-67162085D01*
X90019809Y-67205628D01*
X90019809Y-67249171D01*
X89995619Y-67292714D01*
X89971428Y-67314485D01*
X89923047Y-67336257D01*
X89826285Y-67358028D01*
X89705333Y-67358028D01*
X89608571Y-67336257D01*
X89560190Y-67314485D01*
X89536000Y-67292714D01*
X89511809Y-67249171D01*
X89971428Y-66900828D02*
X89995619Y-66879057D01*
X90019809Y-66900828D01*
X89995619Y-66922600D01*
X89971428Y-66900828D01*
X90019809Y-66900828D01*
X90019809Y-66443628D02*
X90019809Y-66704885D01*
X90019809Y-66574257D02*
X89511809Y-66574257D01*
X89584380Y-66617800D01*
X89632761Y-66661342D01*
X89656952Y-66704885D01*
X89681142Y-66051742D02*
X90019809Y-66051742D01*
X89681142Y-66247685D02*
X89947238Y-66247685D01*
X89995619Y-66225914D01*
X90019809Y-66182371D01*
X90019809Y-66117057D01*
X89995619Y-66073514D01*
X89971428Y-66051742D01*
G04 #@! TO.C,R5*
D15*
X125922280Y-30934666D02*
X125644090Y-31104000D01*
X125922280Y-31224952D02*
X125338080Y-31224952D01*
X125338080Y-31031428D01*
X125365900Y-30983047D01*
X125393719Y-30958857D01*
X125449357Y-30934666D01*
X125532814Y-30934666D01*
X125588452Y-30958857D01*
X125616271Y-30983047D01*
X125644090Y-31031428D01*
X125644090Y-31224952D01*
X125338080Y-30475047D02*
X125338080Y-30716952D01*
X125616271Y-30741142D01*
X125588452Y-30716952D01*
X125560633Y-30668571D01*
X125560633Y-30547619D01*
X125588452Y-30499238D01*
X125616271Y-30475047D01*
X125671909Y-30450857D01*
X125811004Y-30450857D01*
X125866642Y-30475047D01*
X125894461Y-30499238D01*
X125922280Y-30547619D01*
X125922280Y-30668571D01*
X125894461Y-30716952D01*
X125866642Y-30741142D01*
D16*
X123650190Y-31492257D02*
X123626000Y-31470485D01*
X123601809Y-31426942D01*
X123601809Y-31318085D01*
X123626000Y-31274542D01*
X123650190Y-31252771D01*
X123698571Y-31231000D01*
X123746952Y-31231000D01*
X123819523Y-31252771D01*
X124109809Y-31514028D01*
X124109809Y-31231000D01*
X124061428Y-31035057D02*
X124085619Y-31013285D01*
X124109809Y-31035057D01*
X124085619Y-31056828D01*
X124061428Y-31035057D01*
X124109809Y-31035057D01*
X123650190Y-30839114D02*
X123626000Y-30817342D01*
X123601809Y-30773800D01*
X123601809Y-30664942D01*
X123626000Y-30621400D01*
X123650190Y-30599628D01*
X123698571Y-30577857D01*
X123746952Y-30577857D01*
X123819523Y-30599628D01*
X124109809Y-30860885D01*
X124109809Y-30577857D01*
X124109809Y-30381914D02*
X123601809Y-30381914D01*
X123916285Y-30338371D02*
X124109809Y-30207742D01*
X123771142Y-30207742D02*
X123964666Y-30381914D01*
G04 #@! TO.C,C23*
D15*
X74933428Y-68874642D02*
X74909238Y-68902461D01*
X74836666Y-68930280D01*
X74788285Y-68930280D01*
X74715714Y-68902461D01*
X74667333Y-68846823D01*
X74643142Y-68791185D01*
X74618952Y-68679909D01*
X74618952Y-68596452D01*
X74643142Y-68485176D01*
X74667333Y-68429538D01*
X74715714Y-68373900D01*
X74788285Y-68346080D01*
X74836666Y-68346080D01*
X74909238Y-68373900D01*
X74933428Y-68401719D01*
X75126952Y-68401719D02*
X75151142Y-68373900D01*
X75199523Y-68346080D01*
X75320476Y-68346080D01*
X75368857Y-68373900D01*
X75393047Y-68401719D01*
X75417238Y-68457357D01*
X75417238Y-68512995D01*
X75393047Y-68596452D01*
X75102761Y-68930280D01*
X75417238Y-68930280D01*
X75586571Y-68346080D02*
X75901047Y-68346080D01*
X75731714Y-68568633D01*
X75804285Y-68568633D01*
X75852666Y-68596452D01*
X75876857Y-68624271D01*
X75901047Y-68679909D01*
X75901047Y-68819004D01*
X75876857Y-68874642D01*
X75852666Y-68902461D01*
X75804285Y-68930280D01*
X75659142Y-68930280D01*
X75610761Y-68902461D01*
X75586571Y-68874642D01*
D16*
X74704828Y-70165809D02*
X74748371Y-70165809D01*
X74791914Y-70190000D01*
X74813685Y-70214190D01*
X74835457Y-70262571D01*
X74857228Y-70359333D01*
X74857228Y-70480285D01*
X74835457Y-70577047D01*
X74813685Y-70625428D01*
X74791914Y-70649619D01*
X74748371Y-70673809D01*
X74704828Y-70673809D01*
X74661285Y-70649619D01*
X74639514Y-70625428D01*
X74617742Y-70577047D01*
X74595971Y-70480285D01*
X74595971Y-70359333D01*
X74617742Y-70262571D01*
X74639514Y-70214190D01*
X74661285Y-70190000D01*
X74704828Y-70165809D01*
X75053171Y-70625428D02*
X75074942Y-70649619D01*
X75053171Y-70673809D01*
X75031400Y-70649619D01*
X75053171Y-70625428D01*
X75053171Y-70673809D01*
X75510371Y-70673809D02*
X75249114Y-70673809D01*
X75379742Y-70673809D02*
X75379742Y-70165809D01*
X75336200Y-70238380D01*
X75292657Y-70286761D01*
X75249114Y-70310952D01*
X75902257Y-70335142D02*
X75902257Y-70673809D01*
X75706314Y-70335142D02*
X75706314Y-70601238D01*
X75728085Y-70649619D01*
X75771628Y-70673809D01*
X75836942Y-70673809D01*
X75880485Y-70649619D01*
X75902257Y-70625428D01*
G04 #@! TO.C,C25*
D15*
X88613428Y-71912642D02*
X88589238Y-71940461D01*
X88516666Y-71968280D01*
X88468285Y-71968280D01*
X88395714Y-71940461D01*
X88347333Y-71884823D01*
X88323142Y-71829185D01*
X88298952Y-71717909D01*
X88298952Y-71634452D01*
X88323142Y-71523176D01*
X88347333Y-71467538D01*
X88395714Y-71411900D01*
X88468285Y-71384080D01*
X88516666Y-71384080D01*
X88589238Y-71411900D01*
X88613428Y-71439719D01*
X88806952Y-71439719D02*
X88831142Y-71411900D01*
X88879523Y-71384080D01*
X89000476Y-71384080D01*
X89048857Y-71411900D01*
X89073047Y-71439719D01*
X89097238Y-71495357D01*
X89097238Y-71550995D01*
X89073047Y-71634452D01*
X88782761Y-71968280D01*
X89097238Y-71968280D01*
X89556857Y-71384080D02*
X89314952Y-71384080D01*
X89290761Y-71662271D01*
X89314952Y-71634452D01*
X89363333Y-71606633D01*
X89484285Y-71606633D01*
X89532666Y-71634452D01*
X89556857Y-71662271D01*
X89581047Y-71717909D01*
X89581047Y-71857004D01*
X89556857Y-71912642D01*
X89532666Y-71940461D01*
X89484285Y-71968280D01*
X89363333Y-71968280D01*
X89314952Y-71940461D01*
X89290761Y-71912642D01*
D16*
X88464828Y-69675809D02*
X88508371Y-69675809D01*
X88551914Y-69700000D01*
X88573685Y-69724190D01*
X88595457Y-69772571D01*
X88617228Y-69869333D01*
X88617228Y-69990285D01*
X88595457Y-70087047D01*
X88573685Y-70135428D01*
X88551914Y-70159619D01*
X88508371Y-70183809D01*
X88464828Y-70183809D01*
X88421285Y-70159619D01*
X88399514Y-70135428D01*
X88377742Y-70087047D01*
X88355971Y-69990285D01*
X88355971Y-69869333D01*
X88377742Y-69772571D01*
X88399514Y-69724190D01*
X88421285Y-69700000D01*
X88464828Y-69675809D01*
X88813171Y-70135428D02*
X88834942Y-70159619D01*
X88813171Y-70183809D01*
X88791400Y-70159619D01*
X88813171Y-70135428D01*
X88813171Y-70183809D01*
X89270371Y-70183809D02*
X89009114Y-70183809D01*
X89139742Y-70183809D02*
X89139742Y-69675809D01*
X89096200Y-69748380D01*
X89052657Y-69796761D01*
X89009114Y-69820952D01*
X89662257Y-69845142D02*
X89662257Y-70183809D01*
X89466314Y-69845142D02*
X89466314Y-70111238D01*
X89488085Y-70159619D01*
X89531628Y-70183809D01*
X89596942Y-70183809D01*
X89640485Y-70159619D01*
X89662257Y-70135428D01*
G04 #@! TO.C,C26*
D15*
X90333428Y-71932642D02*
X90309238Y-71960461D01*
X90236666Y-71988280D01*
X90188285Y-71988280D01*
X90115714Y-71960461D01*
X90067333Y-71904823D01*
X90043142Y-71849185D01*
X90018952Y-71737909D01*
X90018952Y-71654452D01*
X90043142Y-71543176D01*
X90067333Y-71487538D01*
X90115714Y-71431900D01*
X90188285Y-71404080D01*
X90236666Y-71404080D01*
X90309238Y-71431900D01*
X90333428Y-71459719D01*
X90526952Y-71459719D02*
X90551142Y-71431900D01*
X90599523Y-71404080D01*
X90720476Y-71404080D01*
X90768857Y-71431900D01*
X90793047Y-71459719D01*
X90817238Y-71515357D01*
X90817238Y-71570995D01*
X90793047Y-71654452D01*
X90502761Y-71988280D01*
X90817238Y-71988280D01*
X91252666Y-71404080D02*
X91155904Y-71404080D01*
X91107523Y-71431900D01*
X91083333Y-71459719D01*
X91034952Y-71543176D01*
X91010761Y-71654452D01*
X91010761Y-71877004D01*
X91034952Y-71932642D01*
X91059142Y-71960461D01*
X91107523Y-71988280D01*
X91204285Y-71988280D01*
X91252666Y-71960461D01*
X91276857Y-71932642D01*
X91301047Y-71877004D01*
X91301047Y-71737909D01*
X91276857Y-71682271D01*
X91252666Y-71654452D01*
X91204285Y-71626633D01*
X91107523Y-71626633D01*
X91059142Y-71654452D01*
X91034952Y-71682271D01*
X91010761Y-71737909D01*
D16*
X90376085Y-70183809D02*
X90114828Y-70183809D01*
X90245457Y-70183809D02*
X90245457Y-69675809D01*
X90201914Y-69748380D01*
X90158371Y-69796761D01*
X90114828Y-69820952D01*
X90659114Y-69675809D02*
X90702657Y-69675809D01*
X90746200Y-69700000D01*
X90767971Y-69724190D01*
X90789742Y-69772571D01*
X90811514Y-69869333D01*
X90811514Y-69990285D01*
X90789742Y-70087047D01*
X90767971Y-70135428D01*
X90746200Y-70159619D01*
X90702657Y-70183809D01*
X90659114Y-70183809D01*
X90615571Y-70159619D01*
X90593800Y-70135428D01*
X90572028Y-70087047D01*
X90550257Y-69990285D01*
X90550257Y-69869333D01*
X90572028Y-69772571D01*
X90593800Y-69724190D01*
X90615571Y-69700000D01*
X90659114Y-69675809D01*
X91203400Y-69845142D02*
X91203400Y-70183809D01*
X91007457Y-69845142D02*
X91007457Y-70111238D01*
X91029228Y-70159619D01*
X91072771Y-70183809D01*
X91138085Y-70183809D01*
X91181628Y-70159619D01*
X91203400Y-70135428D01*
G04 #@! TO.C,J3*
D14*
X80500666Y-63491809D02*
X80500666Y-63854666D01*
X80476476Y-63927238D01*
X80428095Y-63975619D01*
X80355523Y-63999809D01*
X80307142Y-63999809D01*
X80694190Y-63491809D02*
X81008666Y-63491809D01*
X80839333Y-63685333D01*
X80911904Y-63685333D01*
X80960285Y-63709523D01*
X80984476Y-63733714D01*
X81008666Y-63782095D01*
X81008666Y-63903047D01*
X80984476Y-63951428D01*
X80960285Y-63975619D01*
X80911904Y-63999809D01*
X80766761Y-63999809D01*
X80718380Y-63975619D01*
X80694190Y-63951428D01*
G04 #@! TO.C,J5*
X80500666Y-65691809D02*
X80500666Y-66054666D01*
X80476476Y-66127238D01*
X80428095Y-66175619D01*
X80355523Y-66199809D01*
X80307142Y-66199809D01*
X80984476Y-65691809D02*
X80742571Y-65691809D01*
X80718380Y-65933714D01*
X80742571Y-65909523D01*
X80790952Y-65885333D01*
X80911904Y-65885333D01*
X80960285Y-65909523D01*
X80984476Y-65933714D01*
X81008666Y-65982095D01*
X81008666Y-66103047D01*
X80984476Y-66151428D01*
X80960285Y-66175619D01*
X80911904Y-66199809D01*
X80790952Y-66199809D01*
X80742571Y-66175619D01*
X80718380Y-66151428D01*
G04 #@! TO.C,J6*
X80490666Y-67991809D02*
X80490666Y-68354666D01*
X80466476Y-68427238D01*
X80418095Y-68475619D01*
X80345523Y-68499809D01*
X80297142Y-68499809D01*
X80950285Y-67991809D02*
X80853523Y-67991809D01*
X80805142Y-68016000D01*
X80780952Y-68040190D01*
X80732571Y-68112761D01*
X80708380Y-68209523D01*
X80708380Y-68403047D01*
X80732571Y-68451428D01*
X80756761Y-68475619D01*
X80805142Y-68499809D01*
X80901904Y-68499809D01*
X80950285Y-68475619D01*
X80974476Y-68451428D01*
X80998666Y-68403047D01*
X80998666Y-68282095D01*
X80974476Y-68233714D01*
X80950285Y-68209523D01*
X80901904Y-68185333D01*
X80805142Y-68185333D01*
X80756761Y-68209523D01*
X80732571Y-68233714D01*
X80708380Y-68282095D01*
G04 #@! TO.C,U11*
D11*
X85341904Y-60946380D02*
X85341904Y-61755904D01*
X85389523Y-61851142D01*
X85437142Y-61898761D01*
X85532380Y-61946380D01*
X85722857Y-61946380D01*
X85818095Y-61898761D01*
X85865714Y-61851142D01*
X85913333Y-61755904D01*
X85913333Y-60946380D01*
X86913333Y-61946380D02*
X86341904Y-61946380D01*
X86627619Y-61946380D02*
X86627619Y-60946380D01*
X86532380Y-61089238D01*
X86437142Y-61184476D01*
X86341904Y-61232095D01*
X87865714Y-61946380D02*
X87294285Y-61946380D01*
X87580000Y-61946380D02*
X87580000Y-60946380D01*
X87484761Y-61089238D01*
X87389523Y-61184476D01*
X87294285Y-61232095D01*
G04 #@! TO.C,J7*
D14*
X80290666Y-58071809D02*
X80290666Y-58434666D01*
X80266476Y-58507238D01*
X80218095Y-58555619D01*
X80145523Y-58579809D01*
X80097142Y-58579809D01*
X80484190Y-58071809D02*
X80822857Y-58071809D01*
X80605142Y-58579809D01*
G04 #@! TO.C,R6*
D15*
X76054280Y-59744666D02*
X75776090Y-59914000D01*
X76054280Y-60034952D02*
X75470080Y-60034952D01*
X75470080Y-59841428D01*
X75497900Y-59793047D01*
X75525719Y-59768857D01*
X75581357Y-59744666D01*
X75664814Y-59744666D01*
X75720452Y-59768857D01*
X75748271Y-59793047D01*
X75776090Y-59841428D01*
X75776090Y-60034952D01*
X75470080Y-59309238D02*
X75470080Y-59406000D01*
X75497900Y-59454380D01*
X75525719Y-59478571D01*
X75609176Y-59526952D01*
X75720452Y-59551142D01*
X75943004Y-59551142D01*
X75998642Y-59526952D01*
X76026461Y-59502761D01*
X76054280Y-59454380D01*
X76054280Y-59357619D01*
X76026461Y-59309238D01*
X75998642Y-59285047D01*
X75943004Y-59260857D01*
X75803909Y-59260857D01*
X75748271Y-59285047D01*
X75720452Y-59309238D01*
X75692633Y-59357619D01*
X75692633Y-59454380D01*
X75720452Y-59502761D01*
X75748271Y-59526952D01*
X75803909Y-59551142D01*
D16*
X77739809Y-59942142D02*
X77739809Y-60203400D01*
X77739809Y-60072771D02*
X77231809Y-60072771D01*
X77304380Y-60116314D01*
X77352761Y-60159857D01*
X77376952Y-60203400D01*
X77231809Y-59659114D02*
X77231809Y-59615571D01*
X77256000Y-59572028D01*
X77280190Y-59550257D01*
X77328571Y-59528485D01*
X77425333Y-59506714D01*
X77546285Y-59506714D01*
X77643047Y-59528485D01*
X77691428Y-59550257D01*
X77715619Y-59572028D01*
X77739809Y-59615571D01*
X77739809Y-59659114D01*
X77715619Y-59702657D01*
X77691428Y-59724428D01*
X77643047Y-59746200D01*
X77546285Y-59767971D01*
X77425333Y-59767971D01*
X77328571Y-59746200D01*
X77280190Y-59724428D01*
X77256000Y-59702657D01*
X77231809Y-59659114D01*
X77739809Y-59310771D02*
X77231809Y-59310771D01*
X77546285Y-59267228D02*
X77739809Y-59136600D01*
X77401142Y-59136600D02*
X77594666Y-59310771D01*
G04 #@! TO.C,J1*
D11*
X62536666Y-49992380D02*
X62536666Y-50706666D01*
X62489047Y-50849523D01*
X62393809Y-50944761D01*
X62250952Y-50992380D01*
X62155714Y-50992380D01*
X63536666Y-50992380D02*
X62965238Y-50992380D01*
X63250952Y-50992380D02*
X63250952Y-49992380D01*
X63155714Y-50135238D01*
X63060476Y-50230476D01*
X62965238Y-50278095D01*
G04 #@! TO.C,J2*
X47008026Y-49638400D02*
X47008026Y-50352686D01*
X46960407Y-50495543D01*
X46865169Y-50590781D01*
X46722312Y-50638400D01*
X46627074Y-50638400D01*
X47436598Y-49733639D02*
X47484217Y-49686020D01*
X47579455Y-49638400D01*
X47817550Y-49638400D01*
X47912788Y-49686020D01*
X47960407Y-49733639D01*
X48008026Y-49828877D01*
X48008026Y-49924115D01*
X47960407Y-50066972D01*
X47388979Y-50638400D01*
X48008026Y-50638400D01*
G04 #@! TO.C,U2*
X76782380Y-37341904D02*
X77591904Y-37341904D01*
X77687142Y-37294285D01*
X77734761Y-37246666D01*
X77782380Y-37151428D01*
X77782380Y-36960952D01*
X77734761Y-36865714D01*
X77687142Y-36818095D01*
X77591904Y-36770476D01*
X76782380Y-36770476D01*
X76877619Y-36341904D02*
X76830000Y-36294285D01*
X76782380Y-36199047D01*
X76782380Y-35960952D01*
X76830000Y-35865714D01*
X76877619Y-35818095D01*
X76972857Y-35770476D01*
X77068095Y-35770476D01*
X77210952Y-35818095D01*
X77782380Y-36389523D01*
X77782380Y-35770476D01*
G04 #@! TO.C,U7*
X115897495Y-58690020D02*
X115897495Y-59499544D01*
X115945114Y-59594782D01*
X115992733Y-59642401D01*
X116087971Y-59690020D01*
X116278447Y-59690020D01*
X116373685Y-59642401D01*
X116421304Y-59594782D01*
X116468923Y-59499544D01*
X116468923Y-58690020D01*
X116849876Y-58690020D02*
X117516542Y-58690020D01*
X117087971Y-59690020D01*
G04 #@! TD*
M02*
