G04 #@! TF.FileFunction,Legend,Top*
%FSLAX46Y46*%
G04 Gerber Fmt 4.6, Leading zero omitted, Abs format (unit mm)*
G04 Created by KiCad (PCBNEW 4.0.7+dfsg1-1) date Sun Apr 22 11:28:12 2018*
%MOMM*%
%LPD*%
G01*
G04 APERTURE LIST*
%ADD10C,0.150000*%
%ADD11C,0.300000*%
%ADD12C,0.119380*%
%ADD13C,0.120000*%
%ADD14C,0.100000*%
%ADD15C,0.127000*%
%ADD16C,0.114300*%
G04 APERTURE END LIST*
D10*
D11*
X130815714Y-70711427D02*
X130887143Y-70782856D01*
X130958571Y-70997142D01*
X130958571Y-71139999D01*
X130887143Y-71354284D01*
X130744286Y-71497142D01*
X130601429Y-71568570D01*
X130315714Y-71639999D01*
X130101429Y-71639999D01*
X129815714Y-71568570D01*
X129672857Y-71497142D01*
X129530000Y-71354284D01*
X129458571Y-71139999D01*
X129458571Y-70997142D01*
X129530000Y-70782856D01*
X129601429Y-70711427D01*
X130958571Y-70068570D02*
X129458571Y-70068570D01*
X129458571Y-69497142D01*
X129530000Y-69354284D01*
X129601429Y-69282856D01*
X129744286Y-69211427D01*
X129958571Y-69211427D01*
X130101429Y-69282856D01*
X130172857Y-69354284D01*
X130244286Y-69497142D01*
X130244286Y-70068570D01*
X130887143Y-68639999D02*
X130958571Y-68425713D01*
X130958571Y-68068570D01*
X130887143Y-67925713D01*
X130815714Y-67854284D01*
X130672857Y-67782856D01*
X130530000Y-67782856D01*
X130387143Y-67854284D01*
X130315714Y-67925713D01*
X130244286Y-68068570D01*
X130172857Y-68354284D01*
X130101429Y-68497142D01*
X130030000Y-68568570D01*
X129887143Y-68639999D01*
X129744286Y-68639999D01*
X129601429Y-68568570D01*
X129530000Y-68497142D01*
X129458571Y-68354284D01*
X129458571Y-67997142D01*
X129530000Y-67782856D01*
X129601429Y-67211428D02*
X129530000Y-67139999D01*
X129458571Y-66997142D01*
X129458571Y-66639999D01*
X129530000Y-66497142D01*
X129601429Y-66425713D01*
X129744286Y-66354285D01*
X129887143Y-66354285D01*
X130101429Y-66425713D01*
X130958571Y-67282856D01*
X130958571Y-66354285D01*
X131101429Y-66068571D02*
X131101429Y-64925714D01*
X130958571Y-63925714D02*
X129458571Y-63925714D01*
X130887143Y-63925714D02*
X130958571Y-64068571D01*
X130958571Y-64354285D01*
X130887143Y-64497143D01*
X130815714Y-64568571D01*
X130672857Y-64640000D01*
X130244286Y-64640000D01*
X130101429Y-64568571D01*
X130030000Y-64497143D01*
X129958571Y-64354285D01*
X129958571Y-64068571D01*
X130030000Y-63925714D01*
X130958571Y-63211428D02*
X129958571Y-63211428D01*
X129458571Y-63211428D02*
X129530000Y-63282857D01*
X129601429Y-63211428D01*
X129530000Y-63140000D01*
X129458571Y-63211428D01*
X129601429Y-63211428D01*
X129958571Y-61854285D02*
X131172857Y-61854285D01*
X131315714Y-61925714D01*
X131387143Y-61997142D01*
X131458571Y-62139999D01*
X131458571Y-62354285D01*
X131387143Y-62497142D01*
X130887143Y-61854285D02*
X130958571Y-61997142D01*
X130958571Y-62282856D01*
X130887143Y-62425714D01*
X130815714Y-62497142D01*
X130672857Y-62568571D01*
X130244286Y-62568571D01*
X130101429Y-62497142D01*
X130030000Y-62425714D01*
X129958571Y-62282856D01*
X129958571Y-61997142D01*
X130030000Y-61854285D01*
X130958571Y-61139999D02*
X129958571Y-61139999D01*
X129458571Y-61139999D02*
X129530000Y-61211428D01*
X129601429Y-61139999D01*
X129530000Y-61068571D01*
X129458571Y-61139999D01*
X129601429Y-61139999D01*
X130530000Y-60497142D02*
X130530000Y-59782856D01*
X130958571Y-60639999D02*
X129458571Y-60139999D01*
X130958571Y-59639999D01*
X129458571Y-59354285D02*
X130958571Y-58854285D01*
X129458571Y-58354285D01*
X129958571Y-56854285D02*
X130958571Y-56497142D01*
X129958571Y-56140000D01*
X129601429Y-55640000D02*
X129530000Y-55568571D01*
X129458571Y-55425714D01*
X129458571Y-55068571D01*
X129530000Y-54925714D01*
X129601429Y-54854285D01*
X129744286Y-54782857D01*
X129887143Y-54782857D01*
X130101429Y-54854285D01*
X130958571Y-55711428D01*
X130958571Y-54782857D01*
X130815714Y-54140000D02*
X130887143Y-54068572D01*
X130958571Y-54140000D01*
X130887143Y-54211429D01*
X130815714Y-54140000D01*
X130958571Y-54140000D01*
X129458571Y-53140000D02*
X129458571Y-52997143D01*
X129530000Y-52854286D01*
X129601429Y-52782857D01*
X129744286Y-52711428D01*
X130030000Y-52640000D01*
X130387143Y-52640000D01*
X130672857Y-52711428D01*
X130815714Y-52782857D01*
X130887143Y-52854286D01*
X130958571Y-52997143D01*
X130958571Y-53140000D01*
X130887143Y-53282857D01*
X130815714Y-53354286D01*
X130672857Y-53425714D01*
X130387143Y-53497143D01*
X130030000Y-53497143D01*
X129744286Y-53425714D01*
X129601429Y-53354286D01*
X129530000Y-53282857D01*
X129458571Y-53140000D01*
D10*
X52335000Y-48539000D02*
X51700000Y-49174000D01*
X59955000Y-48539000D02*
X60590000Y-49174000D01*
X59955000Y-29489000D02*
X60590000Y-28854000D01*
X52335000Y-29489000D02*
X51700000Y-28854000D01*
X60590000Y-37109000D02*
X59955000Y-37109000D01*
X59955000Y-37109000D02*
X59955000Y-29489000D01*
X59955000Y-29489000D02*
X52335000Y-29489000D01*
X52335000Y-29489000D02*
X52335000Y-48539000D01*
X52335000Y-48539000D02*
X59955000Y-48539000D01*
X59955000Y-48539000D02*
X59955000Y-40919000D01*
X59955000Y-40919000D02*
X60590000Y-40919000D01*
X60590000Y-49174000D02*
X60590000Y-28854000D01*
X51700000Y-28854000D02*
X51700000Y-49174000D01*
X51700000Y-49174000D02*
X60590000Y-49174000D01*
X51700000Y-28854000D02*
X60590000Y-28854000D01*
X58113500Y-46512080D02*
X59182840Y-45813580D01*
X59182840Y-45813580D02*
X58113500Y-45112540D01*
X58113500Y-45112540D02*
X58113500Y-46512080D01*
X143451000Y-30361000D02*
X143451000Y-46061000D01*
X143451000Y-46061000D02*
X135951000Y-46061000D01*
X135951000Y-46061000D02*
X135951000Y-30361000D01*
X135951000Y-30361000D02*
X143451000Y-30361000D01*
D12*
X130634060Y-44279620D02*
X130634060Y-43581120D01*
X130634060Y-45280380D02*
X130634060Y-45978880D01*
X129165940Y-44279620D02*
X129165940Y-43581120D01*
X129165940Y-45978880D02*
X129165940Y-45280380D01*
X129163400Y-43540480D02*
X130636600Y-43540480D01*
X130636600Y-46019520D02*
X129163400Y-46019520D01*
X132464060Y-44273620D02*
X132464060Y-43575120D01*
X132464060Y-45274380D02*
X132464060Y-45972880D01*
X130995940Y-44273620D02*
X130995940Y-43575120D01*
X130995940Y-45972880D02*
X130995940Y-45274380D01*
X130993400Y-43534480D02*
X132466600Y-43534480D01*
X132466600Y-46013520D02*
X130993400Y-46013520D01*
X130644060Y-47129620D02*
X130644060Y-46431120D01*
X130644060Y-48130380D02*
X130644060Y-48828880D01*
X129175940Y-47129620D02*
X129175940Y-46431120D01*
X129175940Y-48828880D02*
X129175940Y-48130380D01*
X129173400Y-46390480D02*
X130646600Y-46390480D01*
X130646600Y-48869520D02*
X129173400Y-48869520D01*
X125655940Y-48170380D02*
X125655940Y-48868880D01*
X125655940Y-47169620D02*
X125655940Y-46471120D01*
X127124060Y-48170380D02*
X127124060Y-48868880D01*
X127124060Y-46471120D02*
X127124060Y-47169620D01*
X127126600Y-48909520D02*
X125653400Y-48909520D01*
X125653400Y-46430480D02*
X127126600Y-46430480D01*
X46919620Y-30685940D02*
X46221120Y-30685940D01*
X47920380Y-30685940D02*
X48618880Y-30685940D01*
X46919620Y-32154060D02*
X46221120Y-32154060D01*
X48618880Y-32154060D02*
X47920380Y-32154060D01*
X46180480Y-32156600D02*
X46180480Y-30683400D01*
X48659520Y-30683400D02*
X48659520Y-32156600D01*
X44199620Y-44545940D02*
X43501120Y-44545940D01*
X45200380Y-44545940D02*
X45898880Y-44545940D01*
X44199620Y-46014060D02*
X43501120Y-46014060D01*
X45898880Y-46014060D02*
X45200380Y-46014060D01*
X43460480Y-46016600D02*
X43460480Y-44543400D01*
X45939520Y-44543400D02*
X45939520Y-46016600D01*
X50784060Y-36773620D02*
X50784060Y-36075120D01*
X50784060Y-37774380D02*
X50784060Y-38472880D01*
X49315940Y-36773620D02*
X49315940Y-36075120D01*
X49315940Y-38472880D02*
X49315940Y-37774380D01*
X49313400Y-36034480D02*
X50786600Y-36034480D01*
X50786600Y-38513520D02*
X49313400Y-38513520D01*
X50784060Y-40623620D02*
X50784060Y-39925120D01*
X50784060Y-41624380D02*
X50784060Y-42322880D01*
X49315940Y-40623620D02*
X49315940Y-39925120D01*
X49315940Y-42322880D02*
X49315940Y-41624380D01*
X49313400Y-39884480D02*
X50786600Y-39884480D01*
X50786600Y-42363520D02*
X49313400Y-42363520D01*
X49345940Y-45414380D02*
X49345940Y-46112880D01*
X49345940Y-44413620D02*
X49345940Y-43715120D01*
X50814060Y-45414380D02*
X50814060Y-46112880D01*
X50814060Y-43715120D02*
X50814060Y-44413620D01*
X50816600Y-46153520D02*
X49343400Y-46153520D01*
X49343400Y-43674480D02*
X50816600Y-43674480D01*
X42679620Y-32345940D02*
X41981120Y-32345940D01*
X43680380Y-32345940D02*
X44378880Y-32345940D01*
X42679620Y-33814060D02*
X41981120Y-33814060D01*
X44378880Y-33814060D02*
X43680380Y-33814060D01*
X41940480Y-33816600D02*
X41940480Y-32343400D01*
X44419520Y-32343400D02*
X44419520Y-33816600D01*
X101790380Y-34768060D02*
X102488880Y-34768060D01*
X100789620Y-34768060D02*
X100091120Y-34768060D01*
X101790380Y-33299940D02*
X102488880Y-33299940D01*
X100091120Y-33299940D02*
X100789620Y-33299940D01*
X102529520Y-33297400D02*
X102529520Y-34770600D01*
X100050480Y-34770600D02*
X100050480Y-33297400D01*
X79894060Y-34153620D02*
X79894060Y-33455120D01*
X79894060Y-35154380D02*
X79894060Y-35852880D01*
X78425940Y-34153620D02*
X78425940Y-33455120D01*
X78425940Y-35852880D02*
X78425940Y-35154380D01*
X78423400Y-33414480D02*
X79896600Y-33414480D01*
X79896600Y-35893520D02*
X78423400Y-35893520D01*
X42669620Y-30665940D02*
X41971120Y-30665940D01*
X43670380Y-30665940D02*
X44368880Y-30665940D01*
X42669620Y-32134060D02*
X41971120Y-32134060D01*
X44368880Y-32134060D02*
X43670380Y-32134060D01*
X41930480Y-32136600D02*
X41930480Y-30663400D01*
X44409520Y-30663400D02*
X44409520Y-32136600D01*
X101255940Y-56444380D02*
X101255940Y-57142880D01*
X101255940Y-55443620D02*
X101255940Y-54745120D01*
X102724060Y-56444380D02*
X102724060Y-57142880D01*
X102724060Y-54745120D02*
X102724060Y-55443620D01*
X102726600Y-57183520D02*
X101253400Y-57183520D01*
X101253400Y-54704480D02*
X102726600Y-54704480D01*
X79269620Y-55889940D02*
X78571120Y-55889940D01*
X80270380Y-55889940D02*
X80968880Y-55889940D01*
X79269620Y-57358060D02*
X78571120Y-57358060D01*
X80968880Y-57358060D02*
X80270380Y-57358060D01*
X78530480Y-57360600D02*
X78530480Y-55887400D01*
X81009520Y-55887400D02*
X81009520Y-57360600D01*
D10*
X43069114Y-40321900D02*
G75*
G03X43069114Y-40321900I-378554J0D01*
G01*
X41985000Y-41165000D02*
X42130000Y-41165000D01*
X41985000Y-37015000D02*
X42130000Y-37015000D01*
X47135000Y-37015000D02*
X46990000Y-37015000D01*
X47135000Y-41165000D02*
X46990000Y-41165000D01*
X41985000Y-41165000D02*
X41985000Y-37015000D01*
X47135000Y-41165000D02*
X47135000Y-37015000D01*
X42130000Y-41165000D02*
X42130000Y-42565000D01*
D12*
X106329620Y-62739940D02*
X105631120Y-62739940D01*
X107330380Y-62739940D02*
X108028880Y-62739940D01*
X106329620Y-64208060D02*
X105631120Y-64208060D01*
X108028880Y-64208060D02*
X107330380Y-64208060D01*
X105590480Y-64210600D02*
X105590480Y-62737400D01*
X108069520Y-62737400D02*
X108069520Y-64210600D01*
X115085940Y-70624380D02*
X115085940Y-71322880D01*
X115085940Y-69623620D02*
X115085940Y-68925120D01*
X116554060Y-70624380D02*
X116554060Y-71322880D01*
X116554060Y-68925120D02*
X116554060Y-69623620D01*
X116556600Y-71363520D02*
X115083400Y-71363520D01*
X115083400Y-68884480D02*
X116556600Y-68884480D01*
X106329620Y-64359940D02*
X105631120Y-64359940D01*
X107330380Y-64359940D02*
X108028880Y-64359940D01*
X106329620Y-65828060D02*
X105631120Y-65828060D01*
X108028880Y-65828060D02*
X107330380Y-65828060D01*
X105590480Y-65830600D02*
X105590480Y-64357400D01*
X108069520Y-64357400D02*
X108069520Y-65830600D01*
X75674060Y-34403620D02*
X75674060Y-33705120D01*
X75674060Y-35404380D02*
X75674060Y-36102880D01*
X74205940Y-34403620D02*
X74205940Y-33705120D01*
X74205940Y-36102880D02*
X74205940Y-35404380D01*
X74203400Y-33664480D02*
X75676600Y-33664480D01*
X75676600Y-36143520D02*
X74203400Y-36143520D01*
X75674060Y-42673620D02*
X75674060Y-41975120D01*
X75674060Y-43674380D02*
X75674060Y-44372880D01*
X74205940Y-42673620D02*
X74205940Y-41975120D01*
X74205940Y-44372880D02*
X74205940Y-43674380D01*
X74203400Y-41934480D02*
X75676600Y-41934480D01*
X75676600Y-44413520D02*
X74203400Y-44413520D01*
X71305940Y-63914380D02*
X71305940Y-64612880D01*
X71305940Y-62913620D02*
X71305940Y-62215120D01*
X72774060Y-63914380D02*
X72774060Y-64612880D01*
X72774060Y-62215120D02*
X72774060Y-62913620D01*
X72776600Y-64653520D02*
X71303400Y-64653520D01*
X71303400Y-62174480D02*
X72776600Y-62174480D01*
X75139620Y-51935940D02*
X74441120Y-51935940D01*
X76140380Y-51935940D02*
X76838880Y-51935940D01*
X75139620Y-53404060D02*
X74441120Y-53404060D01*
X76838880Y-53404060D02*
X76140380Y-53404060D01*
X74400480Y-53406600D02*
X74400480Y-51933400D01*
X76879520Y-51933400D02*
X76879520Y-53406600D01*
X75139620Y-50315940D02*
X74441120Y-50315940D01*
X76140380Y-50315940D02*
X76838880Y-50315940D01*
X75139620Y-51784060D02*
X74441120Y-51784060D01*
X76838880Y-51784060D02*
X76140380Y-51784060D01*
X74400480Y-51786600D02*
X74400480Y-50313400D01*
X76879520Y-50313400D02*
X76879520Y-51786600D01*
D10*
X106490000Y-67074000D02*
X106240000Y-67074000D01*
X106990000Y-67074000D02*
X107240000Y-67074000D01*
X106990000Y-67074000D02*
X106490000Y-67424000D01*
X106490000Y-67424000D02*
X106490000Y-66724000D01*
X106490000Y-66724000D02*
X106990000Y-67074000D01*
X106990000Y-67424000D02*
X106990000Y-66724000D01*
X108040000Y-66274000D02*
X105640000Y-66274000D01*
X108040000Y-67874000D02*
X105640000Y-67874000D01*
D12*
X119369620Y-47929940D02*
X118671120Y-47929940D01*
X120370380Y-47929940D02*
X121068880Y-47929940D01*
X119369620Y-49398060D02*
X118671120Y-49398060D01*
X121068880Y-49398060D02*
X120370380Y-49398060D01*
X118630480Y-49400600D02*
X118630480Y-47927400D01*
X121109520Y-47927400D02*
X121109520Y-49400600D01*
X102724060Y-60763620D02*
X102724060Y-60065120D01*
X102724060Y-61764380D02*
X102724060Y-62462880D01*
X101255940Y-60763620D02*
X101255940Y-60065120D01*
X101255940Y-62462880D02*
X101255940Y-61764380D01*
X101253400Y-60024480D02*
X102726600Y-60024480D01*
X102726600Y-62503520D02*
X101253400Y-62503520D01*
D10*
X67541538Y-35627920D02*
G75*
G03X67541538Y-35627920I-339838J0D01*
G01*
X66615000Y-41675000D02*
X71065000Y-41675000D01*
X65090000Y-34925000D02*
X71065000Y-34925000D01*
X67541538Y-43827920D02*
G75*
G03X67541538Y-43827920I-339838J0D01*
G01*
X66615000Y-49875000D02*
X71065000Y-49875000D01*
X65090000Y-43125000D02*
X71065000Y-43125000D01*
X67541538Y-66017920D02*
G75*
G03X67541538Y-66017920I-339838J0D01*
G01*
X66615000Y-72065000D02*
X71065000Y-72065000D01*
X65090000Y-65315000D02*
X71065000Y-65315000D01*
X98440600Y-62865600D02*
X98440600Y-62990600D01*
X101690600Y-62865600D02*
X101690600Y-63090600D01*
X101690600Y-66115600D02*
X101690600Y-65890600D01*
X98440600Y-66115600D02*
X98440600Y-65890600D01*
X98440600Y-62865600D02*
X101690600Y-62865600D01*
X98440600Y-66115600D02*
X101690600Y-66115600D01*
X98440600Y-62990600D02*
X97865600Y-62990600D01*
D12*
X91605940Y-69204380D02*
X91605940Y-69902880D01*
X91605940Y-68203620D02*
X91605940Y-67505120D01*
X93074060Y-69204380D02*
X93074060Y-69902880D01*
X93074060Y-67505120D02*
X93074060Y-68203620D01*
X93076600Y-69943520D02*
X91603400Y-69943520D01*
X91603400Y-67464480D02*
X93076600Y-67464480D01*
D10*
X131673500Y-33519140D02*
X131673500Y-33960400D01*
X131673500Y-33960400D02*
X131216300Y-33960400D01*
X132173500Y-33460400D02*
X132173500Y-35960400D01*
X132173500Y-35960400D02*
X131173500Y-35960400D01*
X131173500Y-35960400D02*
X131173500Y-33460400D01*
X131173500Y-33460400D02*
X132173500Y-33460400D01*
X131660800Y-36519040D02*
X131660800Y-36960300D01*
X131660800Y-36960300D02*
X131203600Y-36960300D01*
X132160800Y-36460300D02*
X132160800Y-38960300D01*
X132160800Y-38960300D02*
X131160800Y-38960300D01*
X131160800Y-38960300D02*
X131160800Y-36460300D01*
X131160800Y-36460300D02*
X132160800Y-36460300D01*
D12*
X90290380Y-67428060D02*
X90988880Y-67428060D01*
X89289620Y-67428060D02*
X88591120Y-67428060D01*
X90290380Y-65959940D02*
X90988880Y-65959940D01*
X88591120Y-65959940D02*
X89289620Y-65959940D01*
X91029520Y-65957400D02*
X91029520Y-67430600D01*
X88550480Y-67430600D02*
X88550480Y-65957400D01*
X123379620Y-30115940D02*
X122681120Y-30115940D01*
X124380380Y-30115940D02*
X125078880Y-30115940D01*
X123379620Y-31584060D02*
X122681120Y-31584060D01*
X125078880Y-31584060D02*
X124380380Y-31584060D01*
X122640480Y-31586600D02*
X122640480Y-30113400D01*
X125119520Y-30113400D02*
X125119520Y-31586600D01*
X74525940Y-70944380D02*
X74525940Y-71642880D01*
X74525940Y-69943620D02*
X74525940Y-69245120D01*
X75994060Y-70944380D02*
X75994060Y-71642880D01*
X75994060Y-69245120D02*
X75994060Y-69943620D01*
X75996600Y-71683520D02*
X74523400Y-71683520D01*
X74523400Y-69204480D02*
X75996600Y-69204480D01*
X88285940Y-70454380D02*
X88285940Y-71152880D01*
X88285940Y-69453620D02*
X88285940Y-68755120D01*
X89754060Y-70454380D02*
X89754060Y-71152880D01*
X89754060Y-68755120D02*
X89754060Y-69453620D01*
X89756600Y-71193520D02*
X88283400Y-71193520D01*
X88283400Y-68714480D02*
X89756600Y-68714480D01*
X89935940Y-70454380D02*
X89935940Y-71152880D01*
X89935940Y-69453620D02*
X89935940Y-68755120D01*
X91404060Y-70454380D02*
X91404060Y-71152880D01*
X91404060Y-68755120D02*
X91404060Y-69453620D01*
X91406600Y-71193520D02*
X89933400Y-71193520D01*
X89933400Y-68714480D02*
X91406600Y-68714480D01*
D13*
X81210000Y-65310000D02*
X83750000Y-65310000D01*
X83750000Y-63530000D02*
X81210000Y-63530000D01*
X83750000Y-63530000D02*
X83750000Y-65310000D01*
X81210000Y-65310000D02*
X81210000Y-63530000D01*
X81210000Y-67090000D02*
X83750000Y-67090000D01*
X83750000Y-65310000D02*
X81210000Y-65310000D01*
X83750000Y-65310000D02*
X83750000Y-67090000D01*
X81210000Y-67090000D02*
X81210000Y-65310000D01*
X81210000Y-68870000D02*
X83750000Y-68870000D01*
X83750000Y-67090000D02*
X81210000Y-67090000D01*
X83750000Y-67090000D02*
X83750000Y-68870000D01*
X81210000Y-68870000D02*
X81210000Y-67090000D01*
D10*
X78995000Y-61425000D02*
X78995000Y-62000000D01*
X84745000Y-61425000D02*
X84745000Y-62075000D01*
X84745000Y-72075000D02*
X84745000Y-71425000D01*
X78995000Y-72075000D02*
X78995000Y-71425000D01*
X78995000Y-61425000D02*
X84745000Y-61425000D01*
X78995000Y-72075000D02*
X84745000Y-72075000D01*
X78995000Y-62000000D02*
X77395000Y-62000000D01*
D13*
X77350000Y-60724000D02*
X79890000Y-60724000D01*
X79890000Y-58944000D02*
X77350000Y-58944000D01*
X79890000Y-58944000D02*
X79890000Y-60724000D01*
X77350000Y-60724000D02*
X77350000Y-58944000D01*
D12*
X81119620Y-59009940D02*
X80421120Y-59009940D01*
X82120380Y-59009940D02*
X82818880Y-59009940D01*
X81119620Y-60478060D02*
X80421120Y-60478060D01*
X82818880Y-60478060D02*
X82120380Y-60478060D01*
X80380480Y-60480600D02*
X80380480Y-59007400D01*
X82859520Y-59007400D02*
X82859520Y-60480600D01*
D13*
X67935000Y-51254000D02*
X62135000Y-51254000D01*
X62135000Y-51254000D02*
X62135000Y-65054000D01*
X62135000Y-65054000D02*
X67935000Y-65054000D01*
X67935000Y-65054000D02*
X67935000Y-51254000D01*
X50155000Y-51254000D02*
X44355000Y-51254000D01*
X44355000Y-51254000D02*
X44355000Y-65054000D01*
X44355000Y-65054000D02*
X50155000Y-65054000D01*
X50155000Y-65054000D02*
X50155000Y-51254000D01*
D10*
X112655600Y-44684200D02*
X113730600Y-44684200D01*
X112655600Y-34334200D02*
X113730600Y-34334200D01*
X123005600Y-34334200D02*
X121930600Y-34334200D01*
X123005600Y-44684200D02*
X121930600Y-44684200D01*
X112655600Y-44684200D02*
X112655600Y-43609200D01*
X123005600Y-44684200D02*
X123005600Y-43609200D01*
X123005600Y-34334200D02*
X123005600Y-35409200D01*
X112655600Y-34334200D02*
X112655600Y-35409200D01*
X113730600Y-44684200D02*
X113730600Y-45709200D01*
X82246652Y-54252940D02*
G75*
G03X82246652Y-54252940I-590292J0D01*
G01*
X80412000Y-55510000D02*
X81487000Y-55510000D01*
X80412000Y-35160000D02*
X81487000Y-35160000D01*
X100762000Y-35160000D02*
X99687000Y-35160000D01*
X100762000Y-55510000D02*
X99687000Y-55510000D01*
X80412000Y-55510000D02*
X80412000Y-54435000D01*
X100762000Y-55510000D02*
X100762000Y-54435000D01*
X100762000Y-35160000D02*
X100762000Y-36235000D01*
X80412000Y-35160000D02*
X80412000Y-36235000D01*
X81487000Y-55510000D02*
X81487000Y-56610000D01*
X115685260Y-60042820D02*
X115637000Y-60042820D01*
X109249000Y-60733700D02*
X109249000Y-60032660D01*
X109249000Y-60032660D02*
X109497920Y-60032660D01*
X115685260Y-60042820D02*
X115885920Y-60042820D01*
X115885920Y-60042820D02*
X115885920Y-60743860D01*
X90698000Y-60969000D02*
X91473000Y-60969000D01*
X94998000Y-65269000D02*
X94223000Y-65269000D01*
X94998000Y-60969000D02*
X94223000Y-60969000D01*
X90698000Y-65269000D02*
X90698000Y-64494000D01*
X94998000Y-65269000D02*
X94998000Y-64494000D01*
X94998000Y-60969000D02*
X94998000Y-61744000D01*
X90698000Y-60969000D02*
X90698000Y-61744000D01*
D14*
X103329810Y-68728191D02*
X102821810Y-68728191D01*
X102821810Y-68534667D01*
X102846000Y-68486286D01*
X102870190Y-68462095D01*
X102918571Y-68437905D01*
X102991143Y-68437905D01*
X103039524Y-68462095D01*
X103063714Y-68486286D01*
X103087905Y-68534667D01*
X103087905Y-68728191D01*
X103281429Y-67929905D02*
X103305619Y-67954095D01*
X103329810Y-68026667D01*
X103329810Y-68075048D01*
X103305619Y-68147619D01*
X103257238Y-68196000D01*
X103208857Y-68220191D01*
X103112095Y-68244381D01*
X103039524Y-68244381D01*
X102942762Y-68220191D01*
X102894381Y-68196000D01*
X102846000Y-68147619D01*
X102821810Y-68075048D01*
X102821810Y-68026667D01*
X102846000Y-67954095D01*
X102870190Y-67929905D01*
X103329810Y-67470286D02*
X103329810Y-67712191D01*
X102821810Y-67712191D01*
X103329810Y-67300953D02*
X102821810Y-67300953D01*
X103329810Y-67010667D02*
X103039524Y-67228381D01*
X102821810Y-67010667D02*
X103112095Y-67300953D01*
X103329810Y-66841334D02*
X102991143Y-66575238D01*
X102991143Y-66841334D02*
X103329810Y-66575238D01*
X102870190Y-66405905D02*
X102846000Y-66381715D01*
X102821810Y-66333334D01*
X102821810Y-66212381D01*
X102846000Y-66164000D01*
X102870190Y-66139810D01*
X102918571Y-66115619D01*
X102966952Y-66115619D01*
X103039524Y-66139810D01*
X103329810Y-66430096D01*
X103329810Y-66115619D01*
X95261810Y-68723048D02*
X95769810Y-68553715D01*
X95261810Y-68384381D01*
X95745619Y-68239238D02*
X95769810Y-68166667D01*
X95769810Y-68045714D01*
X95745619Y-67997333D01*
X95721429Y-67973143D01*
X95673048Y-67948952D01*
X95624667Y-67948952D01*
X95576286Y-67973143D01*
X95552095Y-67997333D01*
X95527905Y-68045714D01*
X95503714Y-68142476D01*
X95479524Y-68190857D01*
X95455333Y-68215048D01*
X95406952Y-68239238D01*
X95358571Y-68239238D01*
X95310190Y-68215048D01*
X95286000Y-68190857D01*
X95261810Y-68142476D01*
X95261810Y-68021524D01*
X95286000Y-67948952D01*
X95527905Y-67634476D02*
X95769810Y-67634476D01*
X95261810Y-67803809D02*
X95527905Y-67634476D01*
X95261810Y-67465142D01*
X95769810Y-67295809D02*
X95261810Y-67295809D01*
X95769810Y-67005523D01*
X95261810Y-67005523D01*
X95721429Y-66473333D02*
X95745619Y-66497523D01*
X95769810Y-66570095D01*
X95769810Y-66618476D01*
X95745619Y-66691047D01*
X95697238Y-66739428D01*
X95648857Y-66763619D01*
X95552095Y-66787809D01*
X95479524Y-66787809D01*
X95382762Y-66763619D01*
X95334381Y-66739428D01*
X95286000Y-66691047D01*
X95261810Y-66618476D01*
X95261810Y-66570095D01*
X95286000Y-66497523D01*
X95310190Y-66473333D01*
X99449810Y-68728857D02*
X98941810Y-68728857D01*
X99183714Y-68728857D02*
X99183714Y-68438571D01*
X99449810Y-68438571D02*
X98941810Y-68438571D01*
X99425619Y-68220857D02*
X99449810Y-68148286D01*
X99449810Y-68027333D01*
X99425619Y-67978952D01*
X99401429Y-67954762D01*
X99353048Y-67930571D01*
X99304667Y-67930571D01*
X99256286Y-67954762D01*
X99232095Y-67978952D01*
X99207905Y-68027333D01*
X99183714Y-68124095D01*
X99159524Y-68172476D01*
X99135333Y-68196667D01*
X99086952Y-68220857D01*
X99038571Y-68220857D01*
X98990190Y-68196667D01*
X98966000Y-68172476D01*
X98941810Y-68124095D01*
X98941810Y-68003143D01*
X98966000Y-67930571D01*
X99207905Y-67616095D02*
X99449810Y-67616095D01*
X98941810Y-67785428D02*
X99207905Y-67616095D01*
X98941810Y-67446761D01*
X99449810Y-67277428D02*
X98941810Y-67277428D01*
X99449810Y-66987142D01*
X98941810Y-66987142D01*
X99401429Y-66454952D02*
X99425619Y-66479142D01*
X99449810Y-66551714D01*
X99449810Y-66600095D01*
X99425619Y-66672666D01*
X99377238Y-66721047D01*
X99328857Y-66745238D01*
X99232095Y-66769428D01*
X99159524Y-66769428D01*
X99062762Y-66745238D01*
X99014381Y-66721047D01*
X98966000Y-66672666D01*
X98941810Y-66600095D01*
X98941810Y-66551714D01*
X98966000Y-66479142D01*
X98990190Y-66454952D01*
X100976000Y-68441047D02*
X100951810Y-68489428D01*
X100951810Y-68562000D01*
X100976000Y-68634571D01*
X101024381Y-68682952D01*
X101072762Y-68707143D01*
X101169524Y-68731333D01*
X101242095Y-68731333D01*
X101338857Y-68707143D01*
X101387238Y-68682952D01*
X101435619Y-68634571D01*
X101459810Y-68562000D01*
X101459810Y-68513619D01*
X101435619Y-68441047D01*
X101411429Y-68416857D01*
X101242095Y-68416857D01*
X101242095Y-68513619D01*
X101459810Y-68199143D02*
X100951810Y-68199143D01*
X101459810Y-67908857D01*
X100951810Y-67908857D01*
X101459810Y-67666953D02*
X100951810Y-67666953D01*
X100951810Y-67546000D01*
X100976000Y-67473429D01*
X101024381Y-67425048D01*
X101072762Y-67400857D01*
X101169524Y-67376667D01*
X101242095Y-67376667D01*
X101338857Y-67400857D01*
X101387238Y-67425048D01*
X101435619Y-67473429D01*
X101459810Y-67546000D01*
X101459810Y-67666953D01*
X112163253Y-68175200D02*
X112114872Y-68151010D01*
X112042300Y-68151010D01*
X111969729Y-68175200D01*
X111921348Y-68223581D01*
X111897157Y-68271962D01*
X111872967Y-68368724D01*
X111872967Y-68441295D01*
X111897157Y-68538057D01*
X111921348Y-68586438D01*
X111969729Y-68634819D01*
X112042300Y-68659010D01*
X112090681Y-68659010D01*
X112163253Y-68634819D01*
X112187443Y-68610629D01*
X112187443Y-68441295D01*
X112090681Y-68441295D01*
X112405157Y-68659010D02*
X112405157Y-68151010D01*
X112695443Y-68659010D01*
X112695443Y-68151010D01*
X112937347Y-68659010D02*
X112937347Y-68151010D01*
X113058300Y-68151010D01*
X113130871Y-68175200D01*
X113179252Y-68223581D01*
X113203443Y-68271962D01*
X113227633Y-68368724D01*
X113227633Y-68441295D01*
X113203443Y-68538057D01*
X113179252Y-68586438D01*
X113130871Y-68634819D01*
X113058300Y-68659010D01*
X112937347Y-68659010D01*
X104696000Y-68441047D02*
X104671810Y-68489428D01*
X104671810Y-68562000D01*
X104696000Y-68634571D01*
X104744381Y-68682952D01*
X104792762Y-68707143D01*
X104889524Y-68731333D01*
X104962095Y-68731333D01*
X105058857Y-68707143D01*
X105107238Y-68682952D01*
X105155619Y-68634571D01*
X105179810Y-68562000D01*
X105179810Y-68513619D01*
X105155619Y-68441047D01*
X105131429Y-68416857D01*
X104962095Y-68416857D01*
X104962095Y-68513619D01*
X105179810Y-68199143D02*
X104671810Y-68199143D01*
X105179810Y-67908857D01*
X104671810Y-67908857D01*
X105179810Y-67666953D02*
X104671810Y-67666953D01*
X104671810Y-67546000D01*
X104696000Y-67473429D01*
X104744381Y-67425048D01*
X104792762Y-67400857D01*
X104889524Y-67376667D01*
X104962095Y-67376667D01*
X105058857Y-67400857D01*
X105107238Y-67425048D01*
X105155619Y-67473429D01*
X105179810Y-67546000D01*
X105179810Y-67666953D01*
X97116000Y-68431047D02*
X97091810Y-68479428D01*
X97091810Y-68552000D01*
X97116000Y-68624571D01*
X97164381Y-68672952D01*
X97212762Y-68697143D01*
X97309524Y-68721333D01*
X97382095Y-68721333D01*
X97478857Y-68697143D01*
X97527238Y-68672952D01*
X97575619Y-68624571D01*
X97599810Y-68552000D01*
X97599810Y-68503619D01*
X97575619Y-68431047D01*
X97551429Y-68406857D01*
X97382095Y-68406857D01*
X97382095Y-68503619D01*
X97599810Y-68189143D02*
X97091810Y-68189143D01*
X97599810Y-67898857D01*
X97091810Y-67898857D01*
X97599810Y-67656953D02*
X97091810Y-67656953D01*
X97091810Y-67536000D01*
X97116000Y-67463429D01*
X97164381Y-67415048D01*
X97212762Y-67390857D01*
X97309524Y-67366667D01*
X97382095Y-67366667D01*
X97478857Y-67390857D01*
X97527238Y-67415048D01*
X97575619Y-67463429D01*
X97599810Y-67536000D01*
X97599810Y-67656953D01*
X54439810Y-68742191D02*
X53931810Y-68742191D01*
X54125333Y-68742191D02*
X54101143Y-68693810D01*
X54101143Y-68597048D01*
X54125333Y-68548667D01*
X54149524Y-68524476D01*
X54197905Y-68500286D01*
X54343048Y-68500286D01*
X54391429Y-68524476D01*
X54415619Y-68548667D01*
X54439810Y-68597048D01*
X54439810Y-68693810D01*
X54415619Y-68742191D01*
X54101143Y-68355143D02*
X54101143Y-68161619D01*
X53931810Y-68282572D02*
X54367238Y-68282572D01*
X54415619Y-68258381D01*
X54439810Y-68210000D01*
X54439810Y-68161619D01*
X54101143Y-67992286D02*
X54439810Y-67992286D01*
X54149524Y-67992286D02*
X54125333Y-67968095D01*
X54101143Y-67919714D01*
X54101143Y-67847143D01*
X54125333Y-67798762D01*
X54173714Y-67774571D01*
X54439810Y-67774571D01*
X54488190Y-67653619D02*
X54488190Y-67266571D01*
X54101143Y-67194000D02*
X54439810Y-67073047D01*
X54101143Y-66952095D01*
X54439810Y-66685999D02*
X54415619Y-66734380D01*
X54391429Y-66758571D01*
X54343048Y-66782761D01*
X54197905Y-66782761D01*
X54149524Y-66758571D01*
X54125333Y-66734380D01*
X54101143Y-66685999D01*
X54101143Y-66613428D01*
X54125333Y-66565047D01*
X54149524Y-66540856D01*
X54197905Y-66516666D01*
X54343048Y-66516666D01*
X54391429Y-66540856D01*
X54415619Y-66565047D01*
X54439810Y-66613428D01*
X54439810Y-66685999D01*
X54439810Y-66226380D02*
X54415619Y-66274761D01*
X54367238Y-66298952D01*
X53931810Y-66298952D01*
X54246286Y-66032857D02*
X54246286Y-65645809D01*
X52499810Y-68742191D02*
X51991810Y-68742191D01*
X52185333Y-68742191D02*
X52161143Y-68693810D01*
X52161143Y-68597048D01*
X52185333Y-68548667D01*
X52209524Y-68524476D01*
X52257905Y-68500286D01*
X52403048Y-68500286D01*
X52451429Y-68524476D01*
X52475619Y-68548667D01*
X52499810Y-68597048D01*
X52499810Y-68693810D01*
X52475619Y-68742191D01*
X52161143Y-68355143D02*
X52161143Y-68161619D01*
X51991810Y-68282572D02*
X52427238Y-68282572D01*
X52475619Y-68258381D01*
X52499810Y-68210000D01*
X52499810Y-68161619D01*
X52161143Y-67992286D02*
X52499810Y-67992286D01*
X52209524Y-67992286D02*
X52185333Y-67968095D01*
X52161143Y-67919714D01*
X52161143Y-67847143D01*
X52185333Y-67798762D01*
X52233714Y-67774571D01*
X52499810Y-67774571D01*
X52548190Y-67653619D02*
X52548190Y-67266571D01*
X52161143Y-67194000D02*
X52499810Y-67073047D01*
X52161143Y-66952095D01*
X52499810Y-66685999D02*
X52475619Y-66734380D01*
X52451429Y-66758571D01*
X52403048Y-66782761D01*
X52257905Y-66782761D01*
X52209524Y-66758571D01*
X52185333Y-66734380D01*
X52161143Y-66685999D01*
X52161143Y-66613428D01*
X52185333Y-66565047D01*
X52209524Y-66540856D01*
X52257905Y-66516666D01*
X52403048Y-66516666D01*
X52451429Y-66540856D01*
X52475619Y-66565047D01*
X52499810Y-66613428D01*
X52499810Y-66685999D01*
X52499810Y-66226380D02*
X52475619Y-66274761D01*
X52427238Y-66298952D01*
X51991810Y-66298952D01*
X52306286Y-66032857D02*
X52306286Y-65645809D01*
X52499810Y-65839333D02*
X52112762Y-65839333D01*
X56359810Y-68734287D02*
X55851810Y-68734287D01*
X55900190Y-68516572D02*
X55876000Y-68492382D01*
X55851810Y-68444001D01*
X55851810Y-68323048D01*
X55876000Y-68274667D01*
X55900190Y-68250477D01*
X55948571Y-68226286D01*
X55996952Y-68226286D01*
X56069524Y-68250477D01*
X56359810Y-68540763D01*
X56359810Y-68226286D01*
X56335619Y-68032762D02*
X56359810Y-67960191D01*
X56359810Y-67839238D01*
X56335619Y-67790857D01*
X56311429Y-67766667D01*
X56263048Y-67742476D01*
X56214667Y-67742476D01*
X56166286Y-67766667D01*
X56142095Y-67790857D01*
X56117905Y-67839238D01*
X56093714Y-67936000D01*
X56069524Y-67984381D01*
X56045333Y-68008572D01*
X55996952Y-68032762D01*
X55948571Y-68032762D01*
X55900190Y-68008572D01*
X55876000Y-67984381D01*
X55851810Y-67936000D01*
X55851810Y-67815048D01*
X55876000Y-67742476D01*
X56408190Y-67645714D02*
X56408190Y-67258666D01*
X56359810Y-67137714D02*
X55851810Y-67137714D01*
X55851810Y-67016761D01*
X55876000Y-66944190D01*
X55924381Y-66895809D01*
X55972762Y-66871618D01*
X56069524Y-66847428D01*
X56142095Y-66847428D01*
X56238857Y-66871618D01*
X56287238Y-66895809D01*
X56335619Y-66944190D01*
X56359810Y-67016761D01*
X56359810Y-67137714D01*
X56214667Y-66653904D02*
X56214667Y-66411999D01*
X56359810Y-66702285D02*
X55851810Y-66532952D01*
X56359810Y-66363618D01*
X55851810Y-66266856D02*
X55851810Y-65976570D01*
X56359810Y-66121713D02*
X55851810Y-66121713D01*
X56214667Y-65831427D02*
X56214667Y-65589522D01*
X56359810Y-65879808D02*
X55851810Y-65710475D01*
X56359810Y-65541141D01*
X60189810Y-68733525D02*
X59681810Y-68733525D01*
X59730190Y-68515810D02*
X59706000Y-68491620D01*
X59681810Y-68443239D01*
X59681810Y-68322286D01*
X59706000Y-68273905D01*
X59730190Y-68249715D01*
X59778571Y-68225524D01*
X59826952Y-68225524D01*
X59899524Y-68249715D01*
X60189810Y-68540001D01*
X60189810Y-68225524D01*
X60165619Y-68032000D02*
X60189810Y-67959429D01*
X60189810Y-67838476D01*
X60165619Y-67790095D01*
X60141429Y-67765905D01*
X60093048Y-67741714D01*
X60044667Y-67741714D01*
X59996286Y-67765905D01*
X59972095Y-67790095D01*
X59947905Y-67838476D01*
X59923714Y-67935238D01*
X59899524Y-67983619D01*
X59875333Y-68007810D01*
X59826952Y-68032000D01*
X59778571Y-68032000D01*
X59730190Y-68007810D01*
X59706000Y-67983619D01*
X59681810Y-67935238D01*
X59681810Y-67814286D01*
X59706000Y-67741714D01*
X60238190Y-67644952D02*
X60238190Y-67257904D01*
X59681810Y-67185333D02*
X60189810Y-67064380D01*
X59826952Y-66967618D01*
X60189810Y-66870856D01*
X59681810Y-66749904D01*
X60165619Y-66580571D02*
X60189810Y-66508000D01*
X60189810Y-66387047D01*
X60165619Y-66338666D01*
X60141429Y-66314476D01*
X60093048Y-66290285D01*
X60044667Y-66290285D01*
X59996286Y-66314476D01*
X59972095Y-66338666D01*
X59947905Y-66387047D01*
X59923714Y-66483809D01*
X59899524Y-66532190D01*
X59875333Y-66556381D01*
X59826952Y-66580571D01*
X59778571Y-66580571D01*
X59730190Y-66556381D01*
X59706000Y-66532190D01*
X59681810Y-66483809D01*
X59681810Y-66362857D01*
X59706000Y-66290285D01*
X110203238Y-68165810D02*
X109961333Y-68165810D01*
X109937143Y-68407714D01*
X109961333Y-68383524D01*
X110009714Y-68359333D01*
X110130667Y-68359333D01*
X110179048Y-68383524D01*
X110203238Y-68407714D01*
X110227429Y-68456095D01*
X110227429Y-68577048D01*
X110203238Y-68625429D01*
X110179048Y-68649619D01*
X110130667Y-68673810D01*
X110009714Y-68673810D01*
X109961333Y-68649619D01*
X109937143Y-68625429D01*
X110372572Y-68165810D02*
X110541905Y-68673810D01*
X110711239Y-68165810D01*
X58249810Y-68733334D02*
X57741810Y-68733334D01*
X57790190Y-68515619D02*
X57766000Y-68491429D01*
X57741810Y-68443048D01*
X57741810Y-68322095D01*
X57766000Y-68273714D01*
X57790190Y-68249524D01*
X57838571Y-68225333D01*
X57886952Y-68225333D01*
X57959524Y-68249524D01*
X58249810Y-68539810D01*
X58249810Y-68225333D01*
X58225619Y-68031809D02*
X58249810Y-67959238D01*
X58249810Y-67838285D01*
X58225619Y-67789904D01*
X58201429Y-67765714D01*
X58153048Y-67741523D01*
X58104667Y-67741523D01*
X58056286Y-67765714D01*
X58032095Y-67789904D01*
X58007905Y-67838285D01*
X57983714Y-67935047D01*
X57959524Y-67983428D01*
X57935333Y-68007619D01*
X57886952Y-68031809D01*
X57838571Y-68031809D01*
X57790190Y-68007619D01*
X57766000Y-67983428D01*
X57741810Y-67935047D01*
X57741810Y-67814095D01*
X57766000Y-67741523D01*
X58298190Y-67644761D02*
X58298190Y-67257713D01*
X57983714Y-66967427D02*
X58007905Y-66894856D01*
X58032095Y-66870665D01*
X58080476Y-66846475D01*
X58153048Y-66846475D01*
X58201429Y-66870665D01*
X58225619Y-66894856D01*
X58249810Y-66943237D01*
X58249810Y-67136761D01*
X57741810Y-67136761D01*
X57741810Y-66967427D01*
X57766000Y-66919046D01*
X57790190Y-66894856D01*
X57838571Y-66870665D01*
X57886952Y-66870665D01*
X57935333Y-66894856D01*
X57959524Y-66919046D01*
X57983714Y-66967427D01*
X57983714Y-67136761D01*
X58201429Y-66338475D02*
X58225619Y-66362665D01*
X58249810Y-66435237D01*
X58249810Y-66483618D01*
X58225619Y-66556189D01*
X58177238Y-66604570D01*
X58128857Y-66628761D01*
X58032095Y-66652951D01*
X57959524Y-66652951D01*
X57862762Y-66628761D01*
X57814381Y-66604570D01*
X57766000Y-66556189D01*
X57741810Y-66483618D01*
X57741810Y-66435237D01*
X57766000Y-66362665D01*
X57790190Y-66338475D01*
X58249810Y-66120761D02*
X57741810Y-66120761D01*
X58249810Y-65830475D02*
X57959524Y-66048189D01*
X57741810Y-65830475D02*
X58032095Y-66120761D01*
D10*
X62172381Y-31442095D02*
X61172381Y-31442095D01*
X61172381Y-31061142D01*
X61220000Y-30965904D01*
X61267619Y-30918285D01*
X61362857Y-30870666D01*
X61505714Y-30870666D01*
X61600952Y-30918285D01*
X61648571Y-30965904D01*
X61696190Y-31061142D01*
X61696190Y-31442095D01*
X62172381Y-29918285D02*
X62172381Y-30489714D01*
X62172381Y-30204000D02*
X61172381Y-30204000D01*
X61315238Y-30299238D01*
X61410476Y-30394476D01*
X61458095Y-30489714D01*
X138016667Y-46296381D02*
X138016667Y-47010667D01*
X137969047Y-47153524D01*
X137873809Y-47248762D01*
X137730952Y-47296381D01*
X137635714Y-47296381D01*
X138921429Y-46629714D02*
X138921429Y-47296381D01*
X138683333Y-46248762D02*
X138445238Y-46963048D01*
X139064286Y-46963048D01*
D15*
X129543428Y-43287281D02*
X129374095Y-43009090D01*
X129253142Y-43287281D02*
X129253142Y-42703081D01*
X129446666Y-42703081D01*
X129495047Y-42730900D01*
X129519238Y-42758719D01*
X129543428Y-42814357D01*
X129543428Y-42897814D01*
X129519238Y-42953452D01*
X129495047Y-42981271D01*
X129446666Y-43009090D01*
X129253142Y-43009090D01*
X129978857Y-42897814D02*
X129978857Y-43287281D01*
X129857904Y-42675262D02*
X129736952Y-43092548D01*
X130051428Y-43092548D01*
X130462667Y-42703081D02*
X130365905Y-42703081D01*
X130317524Y-42730900D01*
X130293333Y-42758719D01*
X130244952Y-42842176D01*
X130220762Y-42953452D01*
X130220762Y-43176005D01*
X130244952Y-43231643D01*
X130269143Y-43259462D01*
X130317524Y-43287281D01*
X130414286Y-43287281D01*
X130462667Y-43259462D01*
X130486857Y-43231643D01*
X130511048Y-43176005D01*
X130511048Y-43036910D01*
X130486857Y-42981271D01*
X130462667Y-42953452D01*
X130414286Y-42925633D01*
X130317524Y-42925633D01*
X130269143Y-42953452D01*
X130244952Y-42981271D01*
X130220762Y-43036910D01*
D16*
X129257743Y-44550190D02*
X129279514Y-44526000D01*
X129323057Y-44501810D01*
X129431914Y-44501810D01*
X129475457Y-44526000D01*
X129497228Y-44550190D01*
X129519000Y-44598571D01*
X129519000Y-44646952D01*
X129497228Y-44719524D01*
X129235971Y-45009810D01*
X129519000Y-45009810D01*
X129714943Y-44961429D02*
X129736715Y-44985619D01*
X129714943Y-45009810D01*
X129693172Y-44985619D01*
X129714943Y-44961429D01*
X129714943Y-45009810D01*
X129910886Y-44550190D02*
X129932657Y-44526000D01*
X129976200Y-44501810D01*
X130085057Y-44501810D01*
X130128600Y-44526000D01*
X130150371Y-44550190D01*
X130172143Y-44598571D01*
X130172143Y-44646952D01*
X130150371Y-44719524D01*
X129889114Y-45009810D01*
X130172143Y-45009810D01*
X130368086Y-45009810D02*
X130368086Y-44501810D01*
X130411629Y-44816286D02*
X130542258Y-45009810D01*
X130542258Y-44671143D02*
X130368086Y-44864667D01*
D15*
X131396428Y-43281281D02*
X131227095Y-43003090D01*
X131106142Y-43281281D02*
X131106142Y-42697081D01*
X131299666Y-42697081D01*
X131348047Y-42724900D01*
X131372238Y-42752719D01*
X131396428Y-42808357D01*
X131396428Y-42891814D01*
X131372238Y-42947452D01*
X131348047Y-42975271D01*
X131299666Y-43003090D01*
X131106142Y-43003090D01*
X131831857Y-42891814D02*
X131831857Y-43281281D01*
X131710904Y-42669262D02*
X131589952Y-43086548D01*
X131904428Y-43086548D01*
X132339857Y-42697081D02*
X132097952Y-42697081D01*
X132073762Y-42975271D01*
X132097952Y-42947452D01*
X132146333Y-42919633D01*
X132267286Y-42919633D01*
X132315667Y-42947452D01*
X132339857Y-42975271D01*
X132364048Y-43030910D01*
X132364048Y-43170005D01*
X132339857Y-43225643D01*
X132315667Y-43253462D01*
X132267286Y-43281281D01*
X132146333Y-43281281D01*
X132097952Y-43253462D01*
X132073762Y-43225643D01*
D16*
X131087743Y-44544190D02*
X131109514Y-44520000D01*
X131153057Y-44495810D01*
X131261914Y-44495810D01*
X131305457Y-44520000D01*
X131327228Y-44544190D01*
X131349000Y-44592571D01*
X131349000Y-44640952D01*
X131327228Y-44713524D01*
X131065971Y-45003810D01*
X131349000Y-45003810D01*
X131544943Y-44955429D02*
X131566715Y-44979619D01*
X131544943Y-45003810D01*
X131523172Y-44979619D01*
X131544943Y-44955429D01*
X131544943Y-45003810D01*
X131740886Y-44544190D02*
X131762657Y-44520000D01*
X131806200Y-44495810D01*
X131915057Y-44495810D01*
X131958600Y-44520000D01*
X131980371Y-44544190D01*
X132002143Y-44592571D01*
X132002143Y-44640952D01*
X131980371Y-44713524D01*
X131719114Y-45003810D01*
X132002143Y-45003810D01*
X132198086Y-45003810D02*
X132198086Y-44495810D01*
X132241629Y-44810286D02*
X132372258Y-45003810D01*
X132372258Y-44665143D02*
X132198086Y-44858667D01*
D15*
X129740667Y-49366271D02*
X129571333Y-49366271D01*
X129571333Y-49672281D02*
X129571333Y-49088081D01*
X129813238Y-49088081D01*
X129982572Y-49143719D02*
X130006762Y-49115900D01*
X130055143Y-49088081D01*
X130176096Y-49088081D01*
X130224477Y-49115900D01*
X130248667Y-49143719D01*
X130272858Y-49199357D01*
X130272858Y-49254995D01*
X130248667Y-49338452D01*
X129958381Y-49672281D01*
X130272858Y-49672281D01*
X126075428Y-49743281D02*
X125906095Y-49465090D01*
X125785142Y-49743281D02*
X125785142Y-49159081D01*
X125978666Y-49159081D01*
X126027047Y-49186900D01*
X126051238Y-49214719D01*
X126075428Y-49270357D01*
X126075428Y-49353814D01*
X126051238Y-49409452D01*
X126027047Y-49437271D01*
X125978666Y-49465090D01*
X125785142Y-49465090D01*
X126510857Y-49353814D02*
X126510857Y-49743281D01*
X126389904Y-49131262D02*
X126268952Y-49548548D01*
X126583428Y-49548548D01*
X127043048Y-49743281D02*
X126752762Y-49743281D01*
X126897905Y-49743281D02*
X126897905Y-49159081D01*
X126849524Y-49242538D01*
X126801143Y-49298176D01*
X126752762Y-49325995D01*
D16*
X126117857Y-47899810D02*
X125856600Y-47899810D01*
X125987228Y-47899810D02*
X125987228Y-47391810D01*
X125943685Y-47464381D01*
X125900143Y-47512762D01*
X125856600Y-47536952D01*
X126400886Y-47391810D02*
X126444429Y-47391810D01*
X126487972Y-47416000D01*
X126509743Y-47440190D01*
X126531514Y-47488571D01*
X126553286Y-47585333D01*
X126553286Y-47706286D01*
X126531514Y-47803048D01*
X126509743Y-47851429D01*
X126487972Y-47875619D01*
X126444429Y-47899810D01*
X126400886Y-47899810D01*
X126357343Y-47875619D01*
X126335572Y-47851429D01*
X126313800Y-47803048D01*
X126292029Y-47706286D01*
X126292029Y-47585333D01*
X126313800Y-47488571D01*
X126335572Y-47440190D01*
X126357343Y-47416000D01*
X126400886Y-47391810D01*
X126749229Y-47899810D02*
X126749229Y-47391810D01*
X126792772Y-47706286D02*
X126923401Y-47899810D01*
X126923401Y-47561143D02*
X126749229Y-47754667D01*
D15*
X49462281Y-31746572D02*
X49184090Y-31915905D01*
X49462281Y-32036858D02*
X48878081Y-32036858D01*
X48878081Y-31843334D01*
X48905900Y-31794953D01*
X48933719Y-31770762D01*
X48989357Y-31746572D01*
X49072814Y-31746572D01*
X49128452Y-31770762D01*
X49156271Y-31794953D01*
X49184090Y-31843334D01*
X49184090Y-32036858D01*
X48933719Y-31553048D02*
X48905900Y-31528858D01*
X48878081Y-31480477D01*
X48878081Y-31359524D01*
X48905900Y-31311143D01*
X48933719Y-31286953D01*
X48989357Y-31262762D01*
X49044995Y-31262762D01*
X49128452Y-31286953D01*
X49462281Y-31577239D01*
X49462281Y-31262762D01*
X49072814Y-30827333D02*
X49462281Y-30827333D01*
X48850262Y-30948286D02*
X49267548Y-31069238D01*
X49267548Y-30754762D01*
D16*
X47311143Y-31844543D02*
X47649810Y-31844543D01*
X47117619Y-31953400D02*
X47480476Y-32062257D01*
X47480476Y-31779229D01*
X47601429Y-31605057D02*
X47625619Y-31583285D01*
X47649810Y-31605057D01*
X47625619Y-31626828D01*
X47601429Y-31605057D01*
X47649810Y-31605057D01*
X47141810Y-31430886D02*
X47141810Y-31126086D01*
X47649810Y-31322029D01*
X47649810Y-30951914D02*
X47141810Y-30951914D01*
X47456286Y-30908371D02*
X47649810Y-30777742D01*
X47311143Y-30777742D02*
X47504667Y-30951914D01*
D15*
X46742281Y-45606572D02*
X46464090Y-45775905D01*
X46742281Y-45896858D02*
X46158081Y-45896858D01*
X46158081Y-45703334D01*
X46185900Y-45654953D01*
X46213719Y-45630762D01*
X46269357Y-45606572D01*
X46352814Y-45606572D01*
X46408452Y-45630762D01*
X46436271Y-45654953D01*
X46464090Y-45703334D01*
X46464090Y-45896858D01*
X46213719Y-45413048D02*
X46185900Y-45388858D01*
X46158081Y-45340477D01*
X46158081Y-45219524D01*
X46185900Y-45171143D01*
X46213719Y-45146953D01*
X46269357Y-45122762D01*
X46324995Y-45122762D01*
X46408452Y-45146953D01*
X46742281Y-45437239D01*
X46742281Y-45122762D01*
X46158081Y-44953429D02*
X46158081Y-44638952D01*
X46380633Y-44808286D01*
X46380633Y-44735714D01*
X46408452Y-44687333D01*
X46436271Y-44663143D01*
X46491910Y-44638952D01*
X46631005Y-44638952D01*
X46686643Y-44663143D01*
X46714462Y-44687333D01*
X46742281Y-44735714D01*
X46742281Y-44880857D01*
X46714462Y-44929238D01*
X46686643Y-44953429D01*
D16*
X44470190Y-45628343D02*
X44446000Y-45606572D01*
X44421810Y-45563029D01*
X44421810Y-45454172D01*
X44446000Y-45410629D01*
X44470190Y-45388858D01*
X44518571Y-45367086D01*
X44566952Y-45367086D01*
X44639524Y-45388858D01*
X44929810Y-45650115D01*
X44929810Y-45367086D01*
X44421810Y-44953429D02*
X44421810Y-45171143D01*
X44663714Y-45192914D01*
X44639524Y-45171143D01*
X44615333Y-45127600D01*
X44615333Y-45018743D01*
X44639524Y-44975200D01*
X44663714Y-44953429D01*
X44712095Y-44931657D01*
X44833048Y-44931657D01*
X44881429Y-44953429D01*
X44905619Y-44975200D01*
X44929810Y-45018743D01*
X44929810Y-45127600D01*
X44905619Y-45171143D01*
X44881429Y-45192914D01*
D15*
X49723428Y-35738281D02*
X49554095Y-35460090D01*
X49433142Y-35738281D02*
X49433142Y-35154081D01*
X49626666Y-35154081D01*
X49675047Y-35181900D01*
X49699238Y-35209719D01*
X49723428Y-35265357D01*
X49723428Y-35348814D01*
X49699238Y-35404452D01*
X49675047Y-35432271D01*
X49626666Y-35460090D01*
X49433142Y-35460090D01*
X49916952Y-35209719D02*
X49941142Y-35181900D01*
X49989523Y-35154081D01*
X50110476Y-35154081D01*
X50158857Y-35181900D01*
X50183047Y-35209719D01*
X50207238Y-35265357D01*
X50207238Y-35320995D01*
X50183047Y-35404452D01*
X49892761Y-35738281D01*
X50207238Y-35738281D01*
X50400762Y-35209719D02*
X50424952Y-35181900D01*
X50473333Y-35154081D01*
X50594286Y-35154081D01*
X50642667Y-35181900D01*
X50666857Y-35209719D01*
X50691048Y-35265357D01*
X50691048Y-35320995D01*
X50666857Y-35404452D01*
X50376571Y-35738281D01*
X50691048Y-35738281D01*
D16*
X49777857Y-37503810D02*
X49516600Y-37503810D01*
X49647228Y-37503810D02*
X49647228Y-36995810D01*
X49603685Y-37068381D01*
X49560143Y-37116762D01*
X49516600Y-37140952D01*
X50060886Y-36995810D02*
X50104429Y-36995810D01*
X50147972Y-37020000D01*
X50169743Y-37044190D01*
X50191514Y-37092571D01*
X50213286Y-37189333D01*
X50213286Y-37310286D01*
X50191514Y-37407048D01*
X50169743Y-37455429D01*
X50147972Y-37479619D01*
X50104429Y-37503810D01*
X50060886Y-37503810D01*
X50017343Y-37479619D01*
X49995572Y-37455429D01*
X49973800Y-37407048D01*
X49952029Y-37310286D01*
X49952029Y-37189333D01*
X49973800Y-37092571D01*
X49995572Y-37044190D01*
X50017343Y-37020000D01*
X50060886Y-36995810D01*
X50409229Y-37503810D02*
X50409229Y-36995810D01*
X50452772Y-37310286D02*
X50583401Y-37503810D01*
X50583401Y-37165143D02*
X50409229Y-37358667D01*
D15*
X49723428Y-39598281D02*
X49554095Y-39320090D01*
X49433142Y-39598281D02*
X49433142Y-39014081D01*
X49626666Y-39014081D01*
X49675047Y-39041900D01*
X49699238Y-39069719D01*
X49723428Y-39125357D01*
X49723428Y-39208814D01*
X49699238Y-39264452D01*
X49675047Y-39292271D01*
X49626666Y-39320090D01*
X49433142Y-39320090D01*
X49916952Y-39069719D02*
X49941142Y-39041900D01*
X49989523Y-39014081D01*
X50110476Y-39014081D01*
X50158857Y-39041900D01*
X50183047Y-39069719D01*
X50207238Y-39125357D01*
X50207238Y-39180995D01*
X50183047Y-39264452D01*
X49892761Y-39598281D01*
X50207238Y-39598281D01*
X50691048Y-39598281D02*
X50400762Y-39598281D01*
X50545905Y-39598281D02*
X50545905Y-39014081D01*
X50497524Y-39097538D01*
X50449143Y-39153176D01*
X50400762Y-39180995D01*
D16*
X49777857Y-41353810D02*
X49516600Y-41353810D01*
X49647228Y-41353810D02*
X49647228Y-40845810D01*
X49603685Y-40918381D01*
X49560143Y-40966762D01*
X49516600Y-40990952D01*
X50060886Y-40845810D02*
X50104429Y-40845810D01*
X50147972Y-40870000D01*
X50169743Y-40894190D01*
X50191514Y-40942571D01*
X50213286Y-41039333D01*
X50213286Y-41160286D01*
X50191514Y-41257048D01*
X50169743Y-41305429D01*
X50147972Y-41329619D01*
X50104429Y-41353810D01*
X50060886Y-41353810D01*
X50017343Y-41329619D01*
X49995572Y-41305429D01*
X49973800Y-41257048D01*
X49952029Y-41160286D01*
X49952029Y-41039333D01*
X49973800Y-40942571D01*
X49995572Y-40894190D01*
X50017343Y-40870000D01*
X50060886Y-40845810D01*
X50409229Y-41353810D02*
X50409229Y-40845810D01*
X50452772Y-41160286D02*
X50583401Y-41353810D01*
X50583401Y-41015143D02*
X50409229Y-41208667D01*
D15*
X49753428Y-43400281D02*
X49584095Y-43122090D01*
X49463142Y-43400281D02*
X49463142Y-42816081D01*
X49656666Y-42816081D01*
X49705047Y-42843900D01*
X49729238Y-42871719D01*
X49753428Y-42927357D01*
X49753428Y-43010814D01*
X49729238Y-43066452D01*
X49705047Y-43094271D01*
X49656666Y-43122090D01*
X49463142Y-43122090D01*
X49946952Y-42871719D02*
X49971142Y-42843900D01*
X50019523Y-42816081D01*
X50140476Y-42816081D01*
X50188857Y-42843900D01*
X50213047Y-42871719D01*
X50237238Y-42927357D01*
X50237238Y-42982995D01*
X50213047Y-43066452D01*
X49922761Y-43400281D01*
X50237238Y-43400281D01*
X50551714Y-42816081D02*
X50600095Y-42816081D01*
X50648476Y-42843900D01*
X50672667Y-42871719D01*
X50696857Y-42927357D01*
X50721048Y-43038633D01*
X50721048Y-43177729D01*
X50696857Y-43289005D01*
X50672667Y-43344643D01*
X50648476Y-43372462D01*
X50600095Y-43400281D01*
X50551714Y-43400281D01*
X50503333Y-43372462D01*
X50479143Y-43344643D01*
X50454952Y-43289005D01*
X50430762Y-43177729D01*
X50430762Y-43038633D01*
X50454952Y-42927357D01*
X50479143Y-42871719D01*
X50503333Y-42843900D01*
X50551714Y-42816081D01*
D16*
X50025572Y-45143810D02*
X49764315Y-45143810D01*
X49894943Y-45143810D02*
X49894943Y-44635810D01*
X49851400Y-44708381D01*
X49807858Y-44756762D01*
X49764315Y-44780952D01*
X50221515Y-45143810D02*
X50221515Y-44635810D01*
X50265058Y-44950286D02*
X50395687Y-45143810D01*
X50395687Y-44805143D02*
X50221515Y-44998667D01*
D15*
X45222281Y-33406572D02*
X44944090Y-33575905D01*
X45222281Y-33696858D02*
X44638081Y-33696858D01*
X44638081Y-33503334D01*
X44665900Y-33454953D01*
X44693719Y-33430762D01*
X44749357Y-33406572D01*
X44832814Y-33406572D01*
X44888452Y-33430762D01*
X44916271Y-33454953D01*
X44944090Y-33503334D01*
X44944090Y-33696858D01*
X45222281Y-32922762D02*
X45222281Y-33213048D01*
X45222281Y-33067905D02*
X44638081Y-33067905D01*
X44721538Y-33116286D01*
X44777176Y-33164667D01*
X44804995Y-33213048D01*
X45222281Y-32680857D02*
X45222281Y-32584095D01*
X45194462Y-32535714D01*
X45166643Y-32511524D01*
X45083186Y-32463143D01*
X44971910Y-32438952D01*
X44749357Y-32438952D01*
X44693719Y-32463143D01*
X44665900Y-32487333D01*
X44638081Y-32535714D01*
X44638081Y-32632476D01*
X44665900Y-32680857D01*
X44693719Y-32705048D01*
X44749357Y-32729238D01*
X44888452Y-32729238D01*
X44944090Y-32705048D01*
X44971910Y-32680857D01*
X44999729Y-32632476D01*
X44999729Y-32535714D01*
X44971910Y-32487333D01*
X44944090Y-32463143D01*
X44888452Y-32438952D01*
D16*
X43071143Y-33504543D02*
X43409810Y-33504543D01*
X42877619Y-33613400D02*
X43240476Y-33722257D01*
X43240476Y-33439229D01*
X43361429Y-33265057D02*
X43385619Y-33243285D01*
X43409810Y-33265057D01*
X43385619Y-33286828D01*
X43361429Y-33265057D01*
X43409810Y-33265057D01*
X42901810Y-33090886D02*
X42901810Y-32786086D01*
X43409810Y-32982029D01*
X43409810Y-32611914D02*
X42901810Y-32611914D01*
X43216286Y-32568371D02*
X43409810Y-32437742D01*
X43071143Y-32437742D02*
X43264667Y-32611914D01*
D15*
X103295643Y-34369572D02*
X103323462Y-34393762D01*
X103351281Y-34466334D01*
X103351281Y-34514715D01*
X103323462Y-34587286D01*
X103267824Y-34635667D01*
X103212186Y-34659858D01*
X103100910Y-34684048D01*
X103017452Y-34684048D01*
X102906176Y-34659858D01*
X102850538Y-34635667D01*
X102794900Y-34587286D01*
X102767081Y-34514715D01*
X102767081Y-34466334D01*
X102794900Y-34393762D01*
X102822719Y-34369572D01*
X102767081Y-33934143D02*
X102767081Y-34030905D01*
X102794900Y-34079286D01*
X102822719Y-34103477D01*
X102906176Y-34151858D01*
X103017452Y-34176048D01*
X103240005Y-34176048D01*
X103295643Y-34151858D01*
X103323462Y-34127667D01*
X103351281Y-34079286D01*
X103351281Y-33982524D01*
X103323462Y-33934143D01*
X103295643Y-33909953D01*
X103240005Y-33885762D01*
X103100910Y-33885762D01*
X103045271Y-33909953D01*
X103017452Y-33934143D01*
X102989633Y-33982524D01*
X102989633Y-34079286D01*
X103017452Y-34127667D01*
X103045271Y-34151858D01*
X103100910Y-34176048D01*
X102767081Y-33426143D02*
X102767081Y-33668048D01*
X103045271Y-33692238D01*
X103017452Y-33668048D01*
X102989633Y-33619667D01*
X102989633Y-33498714D01*
X103017452Y-33450333D01*
X103045271Y-33426143D01*
X103100910Y-33401952D01*
X103240005Y-33401952D01*
X103295643Y-33426143D01*
X103323462Y-33450333D01*
X103351281Y-33498714D01*
X103351281Y-33619667D01*
X103323462Y-33668048D01*
X103295643Y-33692238D01*
D16*
X101011810Y-34589171D02*
X101011810Y-34545628D01*
X101036000Y-34502085D01*
X101060190Y-34480314D01*
X101108571Y-34458543D01*
X101205333Y-34436771D01*
X101326286Y-34436771D01*
X101423048Y-34458543D01*
X101471429Y-34480314D01*
X101495619Y-34502085D01*
X101519810Y-34545628D01*
X101519810Y-34589171D01*
X101495619Y-34632714D01*
X101471429Y-34654485D01*
X101423048Y-34676257D01*
X101326286Y-34698028D01*
X101205333Y-34698028D01*
X101108571Y-34676257D01*
X101060190Y-34654485D01*
X101036000Y-34632714D01*
X101011810Y-34589171D01*
X101471429Y-34240828D02*
X101495619Y-34219056D01*
X101519810Y-34240828D01*
X101495619Y-34262599D01*
X101471429Y-34240828D01*
X101519810Y-34240828D01*
X101519810Y-33783628D02*
X101519810Y-34044885D01*
X101519810Y-33914257D02*
X101011810Y-33914257D01*
X101084381Y-33957800D01*
X101132762Y-34001342D01*
X101156952Y-34044885D01*
X101181143Y-33391742D02*
X101519810Y-33391742D01*
X101181143Y-33587685D02*
X101447238Y-33587685D01*
X101495619Y-33565913D01*
X101519810Y-33522371D01*
X101519810Y-33457056D01*
X101495619Y-33413513D01*
X101471429Y-33391742D01*
D15*
X78813428Y-33122643D02*
X78789238Y-33150462D01*
X78716666Y-33178281D01*
X78668285Y-33178281D01*
X78595714Y-33150462D01*
X78547333Y-33094824D01*
X78523142Y-33039186D01*
X78498952Y-32927910D01*
X78498952Y-32844452D01*
X78523142Y-32733176D01*
X78547333Y-32677538D01*
X78595714Y-32621900D01*
X78668285Y-32594081D01*
X78716666Y-32594081D01*
X78789238Y-32621900D01*
X78813428Y-32649719D01*
X79248857Y-32594081D02*
X79152095Y-32594081D01*
X79103714Y-32621900D01*
X79079523Y-32649719D01*
X79031142Y-32733176D01*
X79006952Y-32844452D01*
X79006952Y-33067005D01*
X79031142Y-33122643D01*
X79055333Y-33150462D01*
X79103714Y-33178281D01*
X79200476Y-33178281D01*
X79248857Y-33150462D01*
X79273047Y-33122643D01*
X79297238Y-33067005D01*
X79297238Y-32927910D01*
X79273047Y-32872271D01*
X79248857Y-32844452D01*
X79200476Y-32816633D01*
X79103714Y-32816633D01*
X79055333Y-32844452D01*
X79031142Y-32872271D01*
X79006952Y-32927910D01*
X79611714Y-32594081D02*
X79660095Y-32594081D01*
X79708476Y-32621900D01*
X79732667Y-32649719D01*
X79756857Y-32705357D01*
X79781048Y-32816633D01*
X79781048Y-32955729D01*
X79756857Y-33067005D01*
X79732667Y-33122643D01*
X79708476Y-33150462D01*
X79660095Y-33178281D01*
X79611714Y-33178281D01*
X79563333Y-33150462D01*
X79539143Y-33122643D01*
X79514952Y-33067005D01*
X79490762Y-32955729D01*
X79490762Y-32816633D01*
X79514952Y-32705357D01*
X79539143Y-32649719D01*
X79563333Y-32621900D01*
X79611714Y-32594081D01*
D16*
X78604829Y-34375810D02*
X78648372Y-34375810D01*
X78691915Y-34400000D01*
X78713686Y-34424190D01*
X78735457Y-34472571D01*
X78757229Y-34569333D01*
X78757229Y-34690286D01*
X78735457Y-34787048D01*
X78713686Y-34835429D01*
X78691915Y-34859619D01*
X78648372Y-34883810D01*
X78604829Y-34883810D01*
X78561286Y-34859619D01*
X78539515Y-34835429D01*
X78517743Y-34787048D01*
X78495972Y-34690286D01*
X78495972Y-34569333D01*
X78517743Y-34472571D01*
X78539515Y-34424190D01*
X78561286Y-34400000D01*
X78604829Y-34375810D01*
X78953172Y-34835429D02*
X78974944Y-34859619D01*
X78953172Y-34883810D01*
X78931401Y-34859619D01*
X78953172Y-34835429D01*
X78953172Y-34883810D01*
X79410372Y-34883810D02*
X79149115Y-34883810D01*
X79279743Y-34883810D02*
X79279743Y-34375810D01*
X79236200Y-34448381D01*
X79192658Y-34496762D01*
X79149115Y-34520952D01*
X79802258Y-34545143D02*
X79802258Y-34883810D01*
X79606315Y-34545143D02*
X79606315Y-34811238D01*
X79628087Y-34859619D01*
X79671629Y-34883810D01*
X79736944Y-34883810D01*
X79780487Y-34859619D01*
X79802258Y-34835429D01*
D15*
X45156643Y-31726572D02*
X45184462Y-31750762D01*
X45212281Y-31823334D01*
X45212281Y-31871715D01*
X45184462Y-31944286D01*
X45128824Y-31992667D01*
X45073186Y-32016858D01*
X44961910Y-32041048D01*
X44878452Y-32041048D01*
X44767176Y-32016858D01*
X44711538Y-31992667D01*
X44655900Y-31944286D01*
X44628081Y-31871715D01*
X44628081Y-31823334D01*
X44655900Y-31750762D01*
X44683719Y-31726572D01*
X44628081Y-31266953D02*
X44628081Y-31508858D01*
X44906271Y-31533048D01*
X44878452Y-31508858D01*
X44850633Y-31460477D01*
X44850633Y-31339524D01*
X44878452Y-31291143D01*
X44906271Y-31266953D01*
X44961910Y-31242762D01*
X45101005Y-31242762D01*
X45156643Y-31266953D01*
X45184462Y-31291143D01*
X45212281Y-31339524D01*
X45212281Y-31460477D01*
X45184462Y-31508858D01*
X45156643Y-31533048D01*
X44628081Y-30783143D02*
X44628081Y-31025048D01*
X44906271Y-31049238D01*
X44878452Y-31025048D01*
X44850633Y-30976667D01*
X44850633Y-30855714D01*
X44878452Y-30807333D01*
X44906271Y-30783143D01*
X44961910Y-30758952D01*
X45101005Y-30758952D01*
X45156643Y-30783143D01*
X45184462Y-30807333D01*
X45212281Y-30855714D01*
X45212281Y-30976667D01*
X45184462Y-31025048D01*
X45156643Y-31049238D01*
D16*
X42891810Y-31955171D02*
X42891810Y-31911628D01*
X42916000Y-31868085D01*
X42940190Y-31846314D01*
X42988571Y-31824543D01*
X43085333Y-31802771D01*
X43206286Y-31802771D01*
X43303048Y-31824543D01*
X43351429Y-31846314D01*
X43375619Y-31868085D01*
X43399810Y-31911628D01*
X43399810Y-31955171D01*
X43375619Y-31998714D01*
X43351429Y-32020485D01*
X43303048Y-32042257D01*
X43206286Y-32064028D01*
X43085333Y-32064028D01*
X42988571Y-32042257D01*
X42940190Y-32020485D01*
X42916000Y-31998714D01*
X42891810Y-31955171D01*
X43351429Y-31606828D02*
X43375619Y-31585056D01*
X43399810Y-31606828D01*
X43375619Y-31628599D01*
X43351429Y-31606828D01*
X43399810Y-31606828D01*
X43399810Y-31149628D02*
X43399810Y-31410885D01*
X43399810Y-31280257D02*
X42891810Y-31280257D01*
X42964381Y-31323800D01*
X43012762Y-31367342D01*
X43036952Y-31410885D01*
X43061143Y-30757742D02*
X43399810Y-30757742D01*
X43061143Y-30953685D02*
X43327238Y-30953685D01*
X43375619Y-30931913D01*
X43399810Y-30888371D01*
X43399810Y-30823056D01*
X43375619Y-30779513D01*
X43351429Y-30757742D01*
D15*
X101648428Y-57967643D02*
X101624238Y-57995462D01*
X101551666Y-58023281D01*
X101503285Y-58023281D01*
X101430714Y-57995462D01*
X101382333Y-57939824D01*
X101358142Y-57884186D01*
X101333952Y-57772910D01*
X101333952Y-57689452D01*
X101358142Y-57578176D01*
X101382333Y-57522538D01*
X101430714Y-57466900D01*
X101503285Y-57439081D01*
X101551666Y-57439081D01*
X101624238Y-57466900D01*
X101648428Y-57494719D01*
X102083857Y-57633814D02*
X102083857Y-58023281D01*
X101962904Y-57411262D02*
X101841952Y-57828548D01*
X102156428Y-57828548D01*
X102301571Y-57439081D02*
X102640238Y-57439081D01*
X102422524Y-58023281D01*
D16*
X101434829Y-55665810D02*
X101478372Y-55665810D01*
X101521915Y-55690000D01*
X101543686Y-55714190D01*
X101565457Y-55762571D01*
X101587229Y-55859333D01*
X101587229Y-55980286D01*
X101565457Y-56077048D01*
X101543686Y-56125429D01*
X101521915Y-56149619D01*
X101478372Y-56173810D01*
X101434829Y-56173810D01*
X101391286Y-56149619D01*
X101369515Y-56125429D01*
X101347743Y-56077048D01*
X101325972Y-55980286D01*
X101325972Y-55859333D01*
X101347743Y-55762571D01*
X101369515Y-55714190D01*
X101391286Y-55690000D01*
X101434829Y-55665810D01*
X101783172Y-56125429D02*
X101804944Y-56149619D01*
X101783172Y-56173810D01*
X101761401Y-56149619D01*
X101783172Y-56125429D01*
X101783172Y-56173810D01*
X102240372Y-56173810D02*
X101979115Y-56173810D01*
X102109743Y-56173810D02*
X102109743Y-55665810D01*
X102066200Y-55738381D01*
X102022658Y-55786762D01*
X101979115Y-55810952D01*
X102632258Y-55835143D02*
X102632258Y-56173810D01*
X102436315Y-55835143D02*
X102436315Y-56101238D01*
X102458087Y-56149619D01*
X102501629Y-56173810D01*
X102566944Y-56173810D01*
X102610487Y-56149619D01*
X102632258Y-56125429D01*
D15*
X78198643Y-57020572D02*
X78226462Y-57044762D01*
X78254281Y-57117334D01*
X78254281Y-57165715D01*
X78226462Y-57238286D01*
X78170824Y-57286667D01*
X78115186Y-57310858D01*
X78003910Y-57335048D01*
X77920452Y-57335048D01*
X77809176Y-57310858D01*
X77753538Y-57286667D01*
X77697900Y-57238286D01*
X77670081Y-57165715D01*
X77670081Y-57117334D01*
X77697900Y-57044762D01*
X77725719Y-57020572D01*
X77864814Y-56585143D02*
X78254281Y-56585143D01*
X77642262Y-56706096D02*
X78059548Y-56827048D01*
X78059548Y-56512572D01*
X77670081Y-56367429D02*
X77670081Y-56052952D01*
X77892633Y-56222286D01*
X77892633Y-56149714D01*
X77920452Y-56101333D01*
X77948271Y-56077143D01*
X78003910Y-56052952D01*
X78143005Y-56052952D01*
X78198643Y-56077143D01*
X78226462Y-56101333D01*
X78254281Y-56149714D01*
X78254281Y-56294857D01*
X78226462Y-56343238D01*
X78198643Y-56367429D01*
D16*
X79491810Y-57179171D02*
X79491810Y-57135628D01*
X79516000Y-57092085D01*
X79540190Y-57070314D01*
X79588571Y-57048543D01*
X79685333Y-57026771D01*
X79806286Y-57026771D01*
X79903048Y-57048543D01*
X79951429Y-57070314D01*
X79975619Y-57092085D01*
X79999810Y-57135628D01*
X79999810Y-57179171D01*
X79975619Y-57222714D01*
X79951429Y-57244485D01*
X79903048Y-57266257D01*
X79806286Y-57288028D01*
X79685333Y-57288028D01*
X79588571Y-57266257D01*
X79540190Y-57244485D01*
X79516000Y-57222714D01*
X79491810Y-57179171D01*
X79951429Y-56830828D02*
X79975619Y-56809056D01*
X79999810Y-56830828D01*
X79975619Y-56852599D01*
X79951429Y-56830828D01*
X79999810Y-56830828D01*
X79999810Y-56373628D02*
X79999810Y-56634885D01*
X79999810Y-56504257D02*
X79491810Y-56504257D01*
X79564381Y-56547800D01*
X79612762Y-56591342D01*
X79636952Y-56634885D01*
X79661143Y-55981742D02*
X79999810Y-55981742D01*
X79661143Y-56177685D02*
X79927238Y-56177685D01*
X79975619Y-56155913D01*
X79999810Y-56112371D01*
X79999810Y-56047056D01*
X79975619Y-56003513D01*
X79951429Y-55981742D01*
D10*
X47447181Y-40440795D02*
X48256705Y-40440795D01*
X48351943Y-40393176D01*
X48399562Y-40345557D01*
X48447181Y-40250319D01*
X48447181Y-40059842D01*
X48399562Y-39964604D01*
X48351943Y-39916985D01*
X48256705Y-39869366D01*
X47447181Y-39869366D01*
X48447181Y-38869366D02*
X48447181Y-39440795D01*
X48447181Y-39155081D02*
X47447181Y-39155081D01*
X47590038Y-39250319D01*
X47685276Y-39345557D01*
X47732895Y-39440795D01*
X47447181Y-38250319D02*
X47447181Y-38155080D01*
X47494800Y-38059842D01*
X47542419Y-38012223D01*
X47637657Y-37964604D01*
X47828133Y-37916985D01*
X48066229Y-37916985D01*
X48256705Y-37964604D01*
X48351943Y-38012223D01*
X48399562Y-38059842D01*
X48447181Y-38155080D01*
X48447181Y-38250319D01*
X48399562Y-38345557D01*
X48351943Y-38393176D01*
X48256705Y-38440795D01*
X48066229Y-38488414D01*
X47828133Y-38488414D01*
X47637657Y-38440795D01*
X47542419Y-38393176D01*
X47494800Y-38345557D01*
X47447181Y-38250319D01*
D15*
X105268643Y-63568667D02*
X105296462Y-63592857D01*
X105324281Y-63665429D01*
X105324281Y-63713810D01*
X105296462Y-63786381D01*
X105240824Y-63834762D01*
X105185186Y-63858953D01*
X105073910Y-63883143D01*
X104990452Y-63883143D01*
X104879176Y-63858953D01*
X104823538Y-63834762D01*
X104767900Y-63786381D01*
X104740081Y-63713810D01*
X104740081Y-63665429D01*
X104767900Y-63592857D01*
X104795719Y-63568667D01*
X105324281Y-63084857D02*
X105324281Y-63375143D01*
X105324281Y-63230000D02*
X104740081Y-63230000D01*
X104823538Y-63278381D01*
X104879176Y-63326762D01*
X104906995Y-63375143D01*
D16*
X107059810Y-63767914D02*
X107059810Y-64029171D01*
X107059810Y-63898543D02*
X106551810Y-63898543D01*
X106624381Y-63942086D01*
X106672762Y-63985628D01*
X106696952Y-64029171D01*
X106551810Y-63484885D02*
X106551810Y-63441342D01*
X106576000Y-63397799D01*
X106600190Y-63376028D01*
X106648571Y-63354257D01*
X106745333Y-63332485D01*
X106866286Y-63332485D01*
X106963048Y-63354257D01*
X107011429Y-63376028D01*
X107035619Y-63397799D01*
X107059810Y-63441342D01*
X107059810Y-63484885D01*
X107035619Y-63528428D01*
X107011429Y-63550199D01*
X106963048Y-63571971D01*
X106866286Y-63593742D01*
X106745333Y-63593742D01*
X106648571Y-63571971D01*
X106600190Y-63550199D01*
X106576000Y-63528428D01*
X106551810Y-63484885D01*
X106721143Y-62940599D02*
X107059810Y-62940599D01*
X106721143Y-63136542D02*
X106987238Y-63136542D01*
X107035619Y-63114770D01*
X107059810Y-63071228D01*
X107059810Y-63005913D01*
X107035619Y-62962370D01*
X107011429Y-62940599D01*
D15*
X117073333Y-69498643D02*
X117049143Y-69526462D01*
X116976571Y-69554281D01*
X116928190Y-69554281D01*
X116855619Y-69526462D01*
X116807238Y-69470824D01*
X116783047Y-69415186D01*
X116758857Y-69303910D01*
X116758857Y-69220452D01*
X116783047Y-69109176D01*
X116807238Y-69053538D01*
X116855619Y-68997900D01*
X116928190Y-68970081D01*
X116976571Y-68970081D01*
X117049143Y-68997900D01*
X117073333Y-69025719D01*
X117242666Y-68970081D02*
X117557143Y-68970081D01*
X117387809Y-69192633D01*
X117460381Y-69192633D01*
X117508762Y-69220452D01*
X117532952Y-69248271D01*
X117557143Y-69303910D01*
X117557143Y-69443005D01*
X117532952Y-69498643D01*
X117508762Y-69526462D01*
X117460381Y-69554281D01*
X117315238Y-69554281D01*
X117266857Y-69526462D01*
X117242666Y-69498643D01*
D16*
X115526086Y-70353810D02*
X115264829Y-70353810D01*
X115395457Y-70353810D02*
X115395457Y-69845810D01*
X115351914Y-69918381D01*
X115308372Y-69966762D01*
X115264829Y-69990952D01*
X115809115Y-69845810D02*
X115852658Y-69845810D01*
X115896201Y-69870000D01*
X115917972Y-69894190D01*
X115939743Y-69942571D01*
X115961515Y-70039333D01*
X115961515Y-70160286D01*
X115939743Y-70257048D01*
X115917972Y-70305429D01*
X115896201Y-70329619D01*
X115852658Y-70353810D01*
X115809115Y-70353810D01*
X115765572Y-70329619D01*
X115743801Y-70305429D01*
X115722029Y-70257048D01*
X115700258Y-70160286D01*
X115700258Y-70039333D01*
X115722029Y-69942571D01*
X115743801Y-69894190D01*
X115765572Y-69870000D01*
X115809115Y-69845810D01*
X116353401Y-70015143D02*
X116353401Y-70353810D01*
X116157458Y-70015143D02*
X116157458Y-70281238D01*
X116179230Y-70329619D01*
X116222772Y-70353810D01*
X116288087Y-70353810D01*
X116331630Y-70329619D01*
X116353401Y-70305429D01*
D15*
X105278643Y-65208667D02*
X105306462Y-65232857D01*
X105334281Y-65305429D01*
X105334281Y-65353810D01*
X105306462Y-65426381D01*
X105250824Y-65474762D01*
X105195186Y-65498953D01*
X105083910Y-65523143D01*
X105000452Y-65523143D01*
X104889176Y-65498953D01*
X104833538Y-65474762D01*
X104777900Y-65426381D01*
X104750081Y-65353810D01*
X104750081Y-65305429D01*
X104777900Y-65232857D01*
X104805719Y-65208667D01*
X104750081Y-64749048D02*
X104750081Y-64990953D01*
X105028271Y-65015143D01*
X105000452Y-64990953D01*
X104972633Y-64942572D01*
X104972633Y-64821619D01*
X105000452Y-64773238D01*
X105028271Y-64749048D01*
X105083910Y-64724857D01*
X105223005Y-64724857D01*
X105278643Y-64749048D01*
X105306462Y-64773238D01*
X105334281Y-64821619D01*
X105334281Y-64942572D01*
X105306462Y-64990953D01*
X105278643Y-65015143D01*
D16*
X106721143Y-65431457D02*
X107059810Y-65431457D01*
X106527619Y-65540314D02*
X106890476Y-65649171D01*
X106890476Y-65366143D01*
X106551810Y-65235514D02*
X106551810Y-64930714D01*
X107059810Y-65126657D01*
X106721143Y-64560599D02*
X107059810Y-64560599D01*
X106721143Y-64756542D02*
X106987238Y-64756542D01*
X107035619Y-64734770D01*
X107059810Y-64691228D01*
X107059810Y-64625913D01*
X107035619Y-64582370D01*
X107011429Y-64560599D01*
D15*
X74825333Y-33402643D02*
X74801143Y-33430462D01*
X74728571Y-33458281D01*
X74680190Y-33458281D01*
X74607619Y-33430462D01*
X74559238Y-33374824D01*
X74535047Y-33319186D01*
X74510857Y-33207910D01*
X74510857Y-33124452D01*
X74535047Y-33013176D01*
X74559238Y-32957538D01*
X74607619Y-32901900D01*
X74680190Y-32874081D01*
X74728571Y-32874081D01*
X74801143Y-32901900D01*
X74825333Y-32929719D01*
X75260762Y-32874081D02*
X75164000Y-32874081D01*
X75115619Y-32901900D01*
X75091428Y-32929719D01*
X75043047Y-33013176D01*
X75018857Y-33124452D01*
X75018857Y-33347005D01*
X75043047Y-33402643D01*
X75067238Y-33430462D01*
X75115619Y-33458281D01*
X75212381Y-33458281D01*
X75260762Y-33430462D01*
X75284952Y-33402643D01*
X75309143Y-33347005D01*
X75309143Y-33207910D01*
X75284952Y-33152271D01*
X75260762Y-33124452D01*
X75212381Y-33096633D01*
X75115619Y-33096633D01*
X75067238Y-33124452D01*
X75043047Y-33152271D01*
X75018857Y-33207910D01*
D16*
X74384829Y-34625810D02*
X74428372Y-34625810D01*
X74471915Y-34650000D01*
X74493686Y-34674190D01*
X74515457Y-34722571D01*
X74537229Y-34819333D01*
X74537229Y-34940286D01*
X74515457Y-35037048D01*
X74493686Y-35085429D01*
X74471915Y-35109619D01*
X74428372Y-35133810D01*
X74384829Y-35133810D01*
X74341286Y-35109619D01*
X74319515Y-35085429D01*
X74297743Y-35037048D01*
X74275972Y-34940286D01*
X74275972Y-34819333D01*
X74297743Y-34722571D01*
X74319515Y-34674190D01*
X74341286Y-34650000D01*
X74384829Y-34625810D01*
X74733172Y-35085429D02*
X74754944Y-35109619D01*
X74733172Y-35133810D01*
X74711401Y-35109619D01*
X74733172Y-35085429D01*
X74733172Y-35133810D01*
X75190372Y-35133810D02*
X74929115Y-35133810D01*
X75059743Y-35133810D02*
X75059743Y-34625810D01*
X75016200Y-34698381D01*
X74972658Y-34746762D01*
X74929115Y-34770952D01*
X75582258Y-34795143D02*
X75582258Y-35133810D01*
X75386315Y-34795143D02*
X75386315Y-35061238D01*
X75408087Y-35109619D01*
X75451629Y-35133810D01*
X75516944Y-35133810D01*
X75560487Y-35109619D01*
X75582258Y-35085429D01*
D15*
X73445333Y-42592643D02*
X73421143Y-42620462D01*
X73348571Y-42648281D01*
X73300190Y-42648281D01*
X73227619Y-42620462D01*
X73179238Y-42564824D01*
X73155047Y-42509186D01*
X73130857Y-42397910D01*
X73130857Y-42314452D01*
X73155047Y-42203176D01*
X73179238Y-42147538D01*
X73227619Y-42091900D01*
X73300190Y-42064081D01*
X73348571Y-42064081D01*
X73421143Y-42091900D01*
X73445333Y-42119719D01*
X73614666Y-42064081D02*
X73953333Y-42064081D01*
X73735619Y-42648281D01*
D16*
X74384829Y-42895810D02*
X74428372Y-42895810D01*
X74471915Y-42920000D01*
X74493686Y-42944190D01*
X74515457Y-42992571D01*
X74537229Y-43089333D01*
X74537229Y-43210286D01*
X74515457Y-43307048D01*
X74493686Y-43355429D01*
X74471915Y-43379619D01*
X74428372Y-43403810D01*
X74384829Y-43403810D01*
X74341286Y-43379619D01*
X74319515Y-43355429D01*
X74297743Y-43307048D01*
X74275972Y-43210286D01*
X74275972Y-43089333D01*
X74297743Y-42992571D01*
X74319515Y-42944190D01*
X74341286Y-42920000D01*
X74384829Y-42895810D01*
X74733172Y-43355429D02*
X74754944Y-43379619D01*
X74733172Y-43403810D01*
X74711401Y-43379619D01*
X74733172Y-43355429D01*
X74733172Y-43403810D01*
X75190372Y-43403810D02*
X74929115Y-43403810D01*
X75059743Y-43403810D02*
X75059743Y-42895810D01*
X75016200Y-42968381D01*
X74972658Y-43016762D01*
X74929115Y-43040952D01*
X75582258Y-43065143D02*
X75582258Y-43403810D01*
X75386315Y-43065143D02*
X75386315Y-43331238D01*
X75408087Y-43379619D01*
X75451629Y-43403810D01*
X75516944Y-43403810D01*
X75560487Y-43379619D01*
X75582258Y-43355429D01*
D15*
X71955333Y-61844643D02*
X71931143Y-61872462D01*
X71858571Y-61900281D01*
X71810190Y-61900281D01*
X71737619Y-61872462D01*
X71689238Y-61816824D01*
X71665047Y-61761186D01*
X71640857Y-61649910D01*
X71640857Y-61566452D01*
X71665047Y-61455176D01*
X71689238Y-61399538D01*
X71737619Y-61343900D01*
X71810190Y-61316081D01*
X71858571Y-61316081D01*
X71931143Y-61343900D01*
X71955333Y-61371719D01*
X72245619Y-61566452D02*
X72197238Y-61538633D01*
X72173047Y-61510814D01*
X72148857Y-61455176D01*
X72148857Y-61427357D01*
X72173047Y-61371719D01*
X72197238Y-61343900D01*
X72245619Y-61316081D01*
X72342381Y-61316081D01*
X72390762Y-61343900D01*
X72414952Y-61371719D01*
X72439143Y-61427357D01*
X72439143Y-61455176D01*
X72414952Y-61510814D01*
X72390762Y-61538633D01*
X72342381Y-61566452D01*
X72245619Y-61566452D01*
X72197238Y-61594271D01*
X72173047Y-61622090D01*
X72148857Y-61677729D01*
X72148857Y-61789005D01*
X72173047Y-61844643D01*
X72197238Y-61872462D01*
X72245619Y-61900281D01*
X72342381Y-61900281D01*
X72390762Y-61872462D01*
X72414952Y-61844643D01*
X72439143Y-61789005D01*
X72439143Y-61677729D01*
X72414952Y-61622090D01*
X72390762Y-61594271D01*
X72342381Y-61566452D01*
D16*
X71484829Y-63135810D02*
X71528372Y-63135810D01*
X71571915Y-63160000D01*
X71593686Y-63184190D01*
X71615457Y-63232571D01*
X71637229Y-63329333D01*
X71637229Y-63450286D01*
X71615457Y-63547048D01*
X71593686Y-63595429D01*
X71571915Y-63619619D01*
X71528372Y-63643810D01*
X71484829Y-63643810D01*
X71441286Y-63619619D01*
X71419515Y-63595429D01*
X71397743Y-63547048D01*
X71375972Y-63450286D01*
X71375972Y-63329333D01*
X71397743Y-63232571D01*
X71419515Y-63184190D01*
X71441286Y-63160000D01*
X71484829Y-63135810D01*
X71833172Y-63595429D02*
X71854944Y-63619619D01*
X71833172Y-63643810D01*
X71811401Y-63619619D01*
X71833172Y-63595429D01*
X71833172Y-63643810D01*
X72290372Y-63643810D02*
X72029115Y-63643810D01*
X72159743Y-63643810D02*
X72159743Y-63135810D01*
X72116200Y-63208381D01*
X72072658Y-63256762D01*
X72029115Y-63280952D01*
X72682258Y-63305143D02*
X72682258Y-63643810D01*
X72486315Y-63305143D02*
X72486315Y-63571238D01*
X72508087Y-63619619D01*
X72551629Y-63643810D01*
X72616944Y-63643810D01*
X72660487Y-63619619D01*
X72682258Y-63595429D01*
D15*
X77682281Y-52754667D02*
X77404090Y-52924000D01*
X77682281Y-53044953D02*
X77098081Y-53044953D01*
X77098081Y-52851429D01*
X77125900Y-52803048D01*
X77153719Y-52778857D01*
X77209357Y-52754667D01*
X77292814Y-52754667D01*
X77348452Y-52778857D01*
X77376271Y-52803048D01*
X77404090Y-52851429D01*
X77404090Y-53044953D01*
X77682281Y-52270857D02*
X77682281Y-52561143D01*
X77682281Y-52416000D02*
X77098081Y-52416000D01*
X77181538Y-52464381D01*
X77237176Y-52512762D01*
X77264995Y-52561143D01*
D16*
X75410190Y-53312257D02*
X75386000Y-53290486D01*
X75361810Y-53246943D01*
X75361810Y-53138086D01*
X75386000Y-53094543D01*
X75410190Y-53072772D01*
X75458571Y-53051000D01*
X75506952Y-53051000D01*
X75579524Y-53072772D01*
X75869810Y-53334029D01*
X75869810Y-53051000D01*
X75821429Y-52855057D02*
X75845619Y-52833285D01*
X75869810Y-52855057D01*
X75845619Y-52876828D01*
X75821429Y-52855057D01*
X75869810Y-52855057D01*
X75410190Y-52659114D02*
X75386000Y-52637343D01*
X75361810Y-52593800D01*
X75361810Y-52484943D01*
X75386000Y-52441400D01*
X75410190Y-52419629D01*
X75458571Y-52397857D01*
X75506952Y-52397857D01*
X75579524Y-52419629D01*
X75869810Y-52680886D01*
X75869810Y-52397857D01*
X75869810Y-52201914D02*
X75361810Y-52201914D01*
X75676286Y-52158371D02*
X75869810Y-52027742D01*
X75531143Y-52027742D02*
X75724667Y-52201914D01*
D15*
X77682281Y-51134667D02*
X77404090Y-51304000D01*
X77682281Y-51424953D02*
X77098081Y-51424953D01*
X77098081Y-51231429D01*
X77125900Y-51183048D01*
X77153719Y-51158857D01*
X77209357Y-51134667D01*
X77292814Y-51134667D01*
X77348452Y-51158857D01*
X77376271Y-51183048D01*
X77404090Y-51231429D01*
X77404090Y-51424953D01*
X77153719Y-50941143D02*
X77125900Y-50916953D01*
X77098081Y-50868572D01*
X77098081Y-50747619D01*
X77125900Y-50699238D01*
X77153719Y-50675048D01*
X77209357Y-50650857D01*
X77264995Y-50650857D01*
X77348452Y-50675048D01*
X77682281Y-50965334D01*
X77682281Y-50650857D01*
D16*
X75410190Y-51692257D02*
X75386000Y-51670486D01*
X75361810Y-51626943D01*
X75361810Y-51518086D01*
X75386000Y-51474543D01*
X75410190Y-51452772D01*
X75458571Y-51431000D01*
X75506952Y-51431000D01*
X75579524Y-51452772D01*
X75869810Y-51714029D01*
X75869810Y-51431000D01*
X75821429Y-51235057D02*
X75845619Y-51213285D01*
X75869810Y-51235057D01*
X75845619Y-51256828D01*
X75821429Y-51235057D01*
X75869810Y-51235057D01*
X75410190Y-51039114D02*
X75386000Y-51017343D01*
X75361810Y-50973800D01*
X75361810Y-50864943D01*
X75386000Y-50821400D01*
X75410190Y-50799629D01*
X75458571Y-50777857D01*
X75506952Y-50777857D01*
X75579524Y-50799629D01*
X75869810Y-51060886D01*
X75869810Y-50777857D01*
X75869810Y-50581914D02*
X75361810Y-50581914D01*
X75676286Y-50538371D02*
X75869810Y-50407742D01*
X75531143Y-50407742D02*
X75724667Y-50581914D01*
D10*
X106711905Y-69086381D02*
X106711905Y-68086381D01*
X106950000Y-68086381D01*
X107092858Y-68134000D01*
X107188096Y-68229238D01*
X107235715Y-68324476D01*
X107283334Y-68514952D01*
X107283334Y-68657810D01*
X107235715Y-68848286D01*
X107188096Y-68943524D01*
X107092858Y-69038762D01*
X106950000Y-69086381D01*
X106711905Y-69086381D01*
X108235715Y-69086381D02*
X107664286Y-69086381D01*
X107950000Y-69086381D02*
X107950000Y-68086381D01*
X107854762Y-68229238D01*
X107759524Y-68324476D01*
X107664286Y-68372095D01*
D15*
X121912281Y-48748667D02*
X121634090Y-48918000D01*
X121912281Y-49038953D02*
X121328081Y-49038953D01*
X121328081Y-48845429D01*
X121355900Y-48797048D01*
X121383719Y-48772857D01*
X121439357Y-48748667D01*
X121522814Y-48748667D01*
X121578452Y-48772857D01*
X121606271Y-48797048D01*
X121634090Y-48845429D01*
X121634090Y-49038953D01*
X121328081Y-48579334D02*
X121328081Y-48264857D01*
X121550633Y-48434191D01*
X121550633Y-48361619D01*
X121578452Y-48313238D01*
X121606271Y-48289048D01*
X121661910Y-48264857D01*
X121801005Y-48264857D01*
X121856643Y-48289048D01*
X121884462Y-48313238D01*
X121912281Y-48361619D01*
X121912281Y-48506762D01*
X121884462Y-48555143D01*
X121856643Y-48579334D01*
D16*
X119809524Y-49142972D02*
X119785333Y-49186514D01*
X119761143Y-49208286D01*
X119712762Y-49230057D01*
X119688571Y-49230057D01*
X119640190Y-49208286D01*
X119616000Y-49186514D01*
X119591810Y-49142972D01*
X119591810Y-49055886D01*
X119616000Y-49012343D01*
X119640190Y-48990572D01*
X119688571Y-48968800D01*
X119712762Y-48968800D01*
X119761143Y-48990572D01*
X119785333Y-49012343D01*
X119809524Y-49055886D01*
X119809524Y-49142972D01*
X119833714Y-49186514D01*
X119857905Y-49208286D01*
X119906286Y-49230057D01*
X120003048Y-49230057D01*
X120051429Y-49208286D01*
X120075619Y-49186514D01*
X120099810Y-49142972D01*
X120099810Y-49055886D01*
X120075619Y-49012343D01*
X120051429Y-48990572D01*
X120003048Y-48968800D01*
X119906286Y-48968800D01*
X119857905Y-48990572D01*
X119833714Y-49012343D01*
X119809524Y-49055886D01*
X119809524Y-48707543D02*
X119785333Y-48751085D01*
X119761143Y-48772857D01*
X119712762Y-48794628D01*
X119688571Y-48794628D01*
X119640190Y-48772857D01*
X119616000Y-48751085D01*
X119591810Y-48707543D01*
X119591810Y-48620457D01*
X119616000Y-48576914D01*
X119640190Y-48555143D01*
X119688571Y-48533371D01*
X119712762Y-48533371D01*
X119761143Y-48555143D01*
X119785333Y-48576914D01*
X119809524Y-48620457D01*
X119809524Y-48707543D01*
X119833714Y-48751085D01*
X119857905Y-48772857D01*
X119906286Y-48794628D01*
X120003048Y-48794628D01*
X120051429Y-48772857D01*
X120075619Y-48751085D01*
X120099810Y-48707543D01*
X120099810Y-48620457D01*
X120075619Y-48576914D01*
X120051429Y-48555143D01*
X120003048Y-48533371D01*
X119906286Y-48533371D01*
X119857905Y-48555143D01*
X119833714Y-48576914D01*
X119809524Y-48620457D01*
X119591810Y-48380971D02*
X119591810Y-48076171D01*
X120099810Y-48272114D01*
D15*
X101663428Y-59742643D02*
X101639238Y-59770462D01*
X101566666Y-59798281D01*
X101518285Y-59798281D01*
X101445714Y-59770462D01*
X101397333Y-59714824D01*
X101373142Y-59659186D01*
X101348952Y-59547910D01*
X101348952Y-59464452D01*
X101373142Y-59353176D01*
X101397333Y-59297538D01*
X101445714Y-59241900D01*
X101518285Y-59214081D01*
X101566666Y-59214081D01*
X101639238Y-59241900D01*
X101663428Y-59269719D01*
X102147238Y-59798281D02*
X101856952Y-59798281D01*
X102002095Y-59798281D02*
X102002095Y-59214081D01*
X101953714Y-59297538D01*
X101905333Y-59353176D01*
X101856952Y-59380995D01*
X102582667Y-59408814D02*
X102582667Y-59798281D01*
X102461714Y-59186262D02*
X102340762Y-59603548D01*
X102655238Y-59603548D01*
D16*
X101434829Y-60985810D02*
X101478372Y-60985810D01*
X101521915Y-61010000D01*
X101543686Y-61034190D01*
X101565457Y-61082571D01*
X101587229Y-61179333D01*
X101587229Y-61300286D01*
X101565457Y-61397048D01*
X101543686Y-61445429D01*
X101521915Y-61469619D01*
X101478372Y-61493810D01*
X101434829Y-61493810D01*
X101391286Y-61469619D01*
X101369515Y-61445429D01*
X101347743Y-61397048D01*
X101325972Y-61300286D01*
X101325972Y-61179333D01*
X101347743Y-61082571D01*
X101369515Y-61034190D01*
X101391286Y-61010000D01*
X101434829Y-60985810D01*
X101783172Y-61445429D02*
X101804944Y-61469619D01*
X101783172Y-61493810D01*
X101761401Y-61469619D01*
X101783172Y-61445429D01*
X101783172Y-61493810D01*
X102240372Y-61493810D02*
X101979115Y-61493810D01*
X102109743Y-61493810D02*
X102109743Y-60985810D01*
X102066200Y-61058381D01*
X102022658Y-61106762D01*
X101979115Y-61130952D01*
X102632258Y-61155143D02*
X102632258Y-61493810D01*
X102436315Y-61155143D02*
X102436315Y-61421238D01*
X102458087Y-61469619D01*
X102501629Y-61493810D01*
X102566944Y-61493810D01*
X102610487Y-61469619D01*
X102632258Y-61445429D01*
D10*
X68078095Y-33452381D02*
X68078095Y-34261905D01*
X68125714Y-34357143D01*
X68173333Y-34404762D01*
X68268571Y-34452381D01*
X68459048Y-34452381D01*
X68554286Y-34404762D01*
X68601905Y-34357143D01*
X68649524Y-34261905D01*
X68649524Y-33452381D01*
X69030476Y-33452381D02*
X69649524Y-33452381D01*
X69316190Y-33833333D01*
X69459048Y-33833333D01*
X69554286Y-33880952D01*
X69601905Y-33928571D01*
X69649524Y-34023810D01*
X69649524Y-34261905D01*
X69601905Y-34357143D01*
X69554286Y-34404762D01*
X69459048Y-34452381D01*
X69173333Y-34452381D01*
X69078095Y-34404762D01*
X69030476Y-34357143D01*
X71448095Y-50132381D02*
X71448095Y-50941905D01*
X71495714Y-51037143D01*
X71543333Y-51084762D01*
X71638571Y-51132381D01*
X71829048Y-51132381D01*
X71924286Y-51084762D01*
X71971905Y-51037143D01*
X72019524Y-50941905D01*
X72019524Y-50132381D01*
X72924286Y-50465714D02*
X72924286Y-51132381D01*
X72686190Y-50084762D02*
X72448095Y-50799048D01*
X73067143Y-50799048D01*
X62758095Y-70956381D02*
X62758095Y-71765905D01*
X62805714Y-71861143D01*
X62853333Y-71908762D01*
X62948571Y-71956381D01*
X63139048Y-71956381D01*
X63234286Y-71908762D01*
X63281905Y-71861143D01*
X63329524Y-71765905D01*
X63329524Y-70956381D01*
X64281905Y-70956381D02*
X63805714Y-70956381D01*
X63758095Y-71432571D01*
X63805714Y-71384952D01*
X63900952Y-71337333D01*
X64139048Y-71337333D01*
X64234286Y-71384952D01*
X64281905Y-71432571D01*
X64329524Y-71527810D01*
X64329524Y-71765905D01*
X64281905Y-71861143D01*
X64234286Y-71908762D01*
X64139048Y-71956381D01*
X63900952Y-71956381D01*
X63805714Y-71908762D01*
X63758095Y-71861143D01*
X99303695Y-61392981D02*
X99303695Y-62202505D01*
X99351314Y-62297743D01*
X99398933Y-62345362D01*
X99494171Y-62392981D01*
X99684648Y-62392981D01*
X99779886Y-62345362D01*
X99827505Y-62297743D01*
X99875124Y-62202505D01*
X99875124Y-61392981D01*
X100398933Y-62392981D02*
X100589409Y-62392981D01*
X100684648Y-62345362D01*
X100732267Y-62297743D01*
X100827505Y-62154886D01*
X100875124Y-61964410D01*
X100875124Y-61583457D01*
X100827505Y-61488219D01*
X100779886Y-61440600D01*
X100684648Y-61392981D01*
X100494171Y-61392981D01*
X100398933Y-61440600D01*
X100351314Y-61488219D01*
X100303695Y-61583457D01*
X100303695Y-61821552D01*
X100351314Y-61916790D01*
X100398933Y-61964410D01*
X100494171Y-62012029D01*
X100684648Y-62012029D01*
X100779886Y-61964410D01*
X100827505Y-61916790D01*
X100875124Y-61821552D01*
D15*
X92145333Y-67284281D02*
X91976000Y-67006090D01*
X91855047Y-67284281D02*
X91855047Y-66700081D01*
X92048571Y-66700081D01*
X92096952Y-66727900D01*
X92121143Y-66755719D01*
X92145333Y-66811357D01*
X92145333Y-66894814D01*
X92121143Y-66950452D01*
X92096952Y-66978271D01*
X92048571Y-67006090D01*
X91855047Y-67006090D01*
X92580762Y-66894814D02*
X92580762Y-67284281D01*
X92459809Y-66672262D02*
X92338857Y-67089548D01*
X92653333Y-67089548D01*
D16*
X91915457Y-68595143D02*
X91915457Y-68933810D01*
X91806600Y-68401619D02*
X91697743Y-68764476D01*
X91980771Y-68764476D01*
X92154943Y-68885429D02*
X92176715Y-68909619D01*
X92154943Y-68933810D01*
X92133172Y-68909619D01*
X92154943Y-68885429D01*
X92154943Y-68933810D01*
X92329114Y-68425810D02*
X92633914Y-68425810D01*
X92437971Y-68933810D01*
X92808086Y-68933810D02*
X92808086Y-68425810D01*
X92851629Y-68740286D02*
X92982258Y-68933810D01*
X92982258Y-68595143D02*
X92808086Y-68788667D01*
D10*
X130921905Y-32846381D02*
X130921905Y-31846381D01*
X131160000Y-31846381D01*
X131302858Y-31894000D01*
X131398096Y-31989238D01*
X131445715Y-32084476D01*
X131493334Y-32274952D01*
X131493334Y-32417810D01*
X131445715Y-32608286D01*
X131398096Y-32703524D01*
X131302858Y-32798762D01*
X131160000Y-32846381D01*
X130921905Y-32846381D01*
X131874286Y-31941619D02*
X131921905Y-31894000D01*
X132017143Y-31846381D01*
X132255239Y-31846381D01*
X132350477Y-31894000D01*
X132398096Y-31941619D01*
X132445715Y-32036857D01*
X132445715Y-32132095D01*
X132398096Y-32274952D01*
X131826667Y-32846381D01*
X132445715Y-32846381D01*
X130953185Y-40430901D02*
X130953185Y-39430901D01*
X131191280Y-39430901D01*
X131334138Y-39478520D01*
X131429376Y-39573758D01*
X131476995Y-39668996D01*
X131524614Y-39859472D01*
X131524614Y-40002330D01*
X131476995Y-40192806D01*
X131429376Y-40288044D01*
X131334138Y-40383282D01*
X131191280Y-40430901D01*
X130953185Y-40430901D01*
X131857947Y-39430901D02*
X132476995Y-39430901D01*
X132143661Y-39811853D01*
X132286519Y-39811853D01*
X132381757Y-39859472D01*
X132429376Y-39907091D01*
X132476995Y-40002330D01*
X132476995Y-40240425D01*
X132429376Y-40335663D01*
X132381757Y-40383282D01*
X132286519Y-40430901D01*
X132000804Y-40430901D01*
X131905566Y-40383282D01*
X131857947Y-40335663D01*
D15*
X88220643Y-67020572D02*
X88248462Y-67044762D01*
X88276281Y-67117334D01*
X88276281Y-67165715D01*
X88248462Y-67238286D01*
X88192824Y-67286667D01*
X88137186Y-67310858D01*
X88025910Y-67335048D01*
X87942452Y-67335048D01*
X87831176Y-67310858D01*
X87775538Y-67286667D01*
X87719900Y-67238286D01*
X87692081Y-67165715D01*
X87692081Y-67117334D01*
X87719900Y-67044762D01*
X87747719Y-67020572D01*
X88276281Y-66536762D02*
X88276281Y-66827048D01*
X88276281Y-66681905D02*
X87692081Y-66681905D01*
X87775538Y-66730286D01*
X87831176Y-66778667D01*
X87858995Y-66827048D01*
X87692081Y-66101333D02*
X87692081Y-66198095D01*
X87719900Y-66246476D01*
X87747719Y-66270667D01*
X87831176Y-66319048D01*
X87942452Y-66343238D01*
X88165005Y-66343238D01*
X88220643Y-66319048D01*
X88248462Y-66294857D01*
X88276281Y-66246476D01*
X88276281Y-66149714D01*
X88248462Y-66101333D01*
X88220643Y-66077143D01*
X88165005Y-66052952D01*
X88025910Y-66052952D01*
X87970271Y-66077143D01*
X87942452Y-66101333D01*
X87914633Y-66149714D01*
X87914633Y-66246476D01*
X87942452Y-66294857D01*
X87970271Y-66319048D01*
X88025910Y-66343238D01*
D16*
X89511810Y-67249171D02*
X89511810Y-67205628D01*
X89536000Y-67162085D01*
X89560190Y-67140314D01*
X89608571Y-67118543D01*
X89705333Y-67096771D01*
X89826286Y-67096771D01*
X89923048Y-67118543D01*
X89971429Y-67140314D01*
X89995619Y-67162085D01*
X90019810Y-67205628D01*
X90019810Y-67249171D01*
X89995619Y-67292714D01*
X89971429Y-67314485D01*
X89923048Y-67336257D01*
X89826286Y-67358028D01*
X89705333Y-67358028D01*
X89608571Y-67336257D01*
X89560190Y-67314485D01*
X89536000Y-67292714D01*
X89511810Y-67249171D01*
X89971429Y-66900828D02*
X89995619Y-66879056D01*
X90019810Y-66900828D01*
X89995619Y-66922599D01*
X89971429Y-66900828D01*
X90019810Y-66900828D01*
X90019810Y-66443628D02*
X90019810Y-66704885D01*
X90019810Y-66574257D02*
X89511810Y-66574257D01*
X89584381Y-66617800D01*
X89632762Y-66661342D01*
X89656952Y-66704885D01*
X89681143Y-66051742D02*
X90019810Y-66051742D01*
X89681143Y-66247685D02*
X89947238Y-66247685D01*
X89995619Y-66225913D01*
X90019810Y-66182371D01*
X90019810Y-66117056D01*
X89995619Y-66073513D01*
X89971429Y-66051742D01*
D15*
X125922281Y-30934667D02*
X125644090Y-31104000D01*
X125922281Y-31224953D02*
X125338081Y-31224953D01*
X125338081Y-31031429D01*
X125365900Y-30983048D01*
X125393719Y-30958857D01*
X125449357Y-30934667D01*
X125532814Y-30934667D01*
X125588452Y-30958857D01*
X125616271Y-30983048D01*
X125644090Y-31031429D01*
X125644090Y-31224953D01*
X125338081Y-30475048D02*
X125338081Y-30716953D01*
X125616271Y-30741143D01*
X125588452Y-30716953D01*
X125560633Y-30668572D01*
X125560633Y-30547619D01*
X125588452Y-30499238D01*
X125616271Y-30475048D01*
X125671910Y-30450857D01*
X125811005Y-30450857D01*
X125866643Y-30475048D01*
X125894462Y-30499238D01*
X125922281Y-30547619D01*
X125922281Y-30668572D01*
X125894462Y-30716953D01*
X125866643Y-30741143D01*
D16*
X123650190Y-31492257D02*
X123626000Y-31470486D01*
X123601810Y-31426943D01*
X123601810Y-31318086D01*
X123626000Y-31274543D01*
X123650190Y-31252772D01*
X123698571Y-31231000D01*
X123746952Y-31231000D01*
X123819524Y-31252772D01*
X124109810Y-31514029D01*
X124109810Y-31231000D01*
X124061429Y-31035057D02*
X124085619Y-31013285D01*
X124109810Y-31035057D01*
X124085619Y-31056828D01*
X124061429Y-31035057D01*
X124109810Y-31035057D01*
X123650190Y-30839114D02*
X123626000Y-30817343D01*
X123601810Y-30773800D01*
X123601810Y-30664943D01*
X123626000Y-30621400D01*
X123650190Y-30599629D01*
X123698571Y-30577857D01*
X123746952Y-30577857D01*
X123819524Y-30599629D01*
X124109810Y-30860886D01*
X124109810Y-30577857D01*
X124109810Y-30381914D02*
X123601810Y-30381914D01*
X123916286Y-30338371D02*
X124109810Y-30207742D01*
X123771143Y-30207742D02*
X123964667Y-30381914D01*
D15*
X74933428Y-68874643D02*
X74909238Y-68902462D01*
X74836666Y-68930281D01*
X74788285Y-68930281D01*
X74715714Y-68902462D01*
X74667333Y-68846824D01*
X74643142Y-68791186D01*
X74618952Y-68679910D01*
X74618952Y-68596452D01*
X74643142Y-68485176D01*
X74667333Y-68429538D01*
X74715714Y-68373900D01*
X74788285Y-68346081D01*
X74836666Y-68346081D01*
X74909238Y-68373900D01*
X74933428Y-68401719D01*
X75126952Y-68401719D02*
X75151142Y-68373900D01*
X75199523Y-68346081D01*
X75320476Y-68346081D01*
X75368857Y-68373900D01*
X75393047Y-68401719D01*
X75417238Y-68457357D01*
X75417238Y-68512995D01*
X75393047Y-68596452D01*
X75102761Y-68930281D01*
X75417238Y-68930281D01*
X75586571Y-68346081D02*
X75901048Y-68346081D01*
X75731714Y-68568633D01*
X75804286Y-68568633D01*
X75852667Y-68596452D01*
X75876857Y-68624271D01*
X75901048Y-68679910D01*
X75901048Y-68819005D01*
X75876857Y-68874643D01*
X75852667Y-68902462D01*
X75804286Y-68930281D01*
X75659143Y-68930281D01*
X75610762Y-68902462D01*
X75586571Y-68874643D01*
D16*
X74704829Y-70165810D02*
X74748372Y-70165810D01*
X74791915Y-70190000D01*
X74813686Y-70214190D01*
X74835457Y-70262571D01*
X74857229Y-70359333D01*
X74857229Y-70480286D01*
X74835457Y-70577048D01*
X74813686Y-70625429D01*
X74791915Y-70649619D01*
X74748372Y-70673810D01*
X74704829Y-70673810D01*
X74661286Y-70649619D01*
X74639515Y-70625429D01*
X74617743Y-70577048D01*
X74595972Y-70480286D01*
X74595972Y-70359333D01*
X74617743Y-70262571D01*
X74639515Y-70214190D01*
X74661286Y-70190000D01*
X74704829Y-70165810D01*
X75053172Y-70625429D02*
X75074944Y-70649619D01*
X75053172Y-70673810D01*
X75031401Y-70649619D01*
X75053172Y-70625429D01*
X75053172Y-70673810D01*
X75510372Y-70673810D02*
X75249115Y-70673810D01*
X75379743Y-70673810D02*
X75379743Y-70165810D01*
X75336200Y-70238381D01*
X75292658Y-70286762D01*
X75249115Y-70310952D01*
X75902258Y-70335143D02*
X75902258Y-70673810D01*
X75706315Y-70335143D02*
X75706315Y-70601238D01*
X75728087Y-70649619D01*
X75771629Y-70673810D01*
X75836944Y-70673810D01*
X75880487Y-70649619D01*
X75902258Y-70625429D01*
D15*
X88613428Y-71912643D02*
X88589238Y-71940462D01*
X88516666Y-71968281D01*
X88468285Y-71968281D01*
X88395714Y-71940462D01*
X88347333Y-71884824D01*
X88323142Y-71829186D01*
X88298952Y-71717910D01*
X88298952Y-71634452D01*
X88323142Y-71523176D01*
X88347333Y-71467538D01*
X88395714Y-71411900D01*
X88468285Y-71384081D01*
X88516666Y-71384081D01*
X88589238Y-71411900D01*
X88613428Y-71439719D01*
X88806952Y-71439719D02*
X88831142Y-71411900D01*
X88879523Y-71384081D01*
X89000476Y-71384081D01*
X89048857Y-71411900D01*
X89073047Y-71439719D01*
X89097238Y-71495357D01*
X89097238Y-71550995D01*
X89073047Y-71634452D01*
X88782761Y-71968281D01*
X89097238Y-71968281D01*
X89556857Y-71384081D02*
X89314952Y-71384081D01*
X89290762Y-71662271D01*
X89314952Y-71634452D01*
X89363333Y-71606633D01*
X89484286Y-71606633D01*
X89532667Y-71634452D01*
X89556857Y-71662271D01*
X89581048Y-71717910D01*
X89581048Y-71857005D01*
X89556857Y-71912643D01*
X89532667Y-71940462D01*
X89484286Y-71968281D01*
X89363333Y-71968281D01*
X89314952Y-71940462D01*
X89290762Y-71912643D01*
D16*
X88464829Y-69675810D02*
X88508372Y-69675810D01*
X88551915Y-69700000D01*
X88573686Y-69724190D01*
X88595457Y-69772571D01*
X88617229Y-69869333D01*
X88617229Y-69990286D01*
X88595457Y-70087048D01*
X88573686Y-70135429D01*
X88551915Y-70159619D01*
X88508372Y-70183810D01*
X88464829Y-70183810D01*
X88421286Y-70159619D01*
X88399515Y-70135429D01*
X88377743Y-70087048D01*
X88355972Y-69990286D01*
X88355972Y-69869333D01*
X88377743Y-69772571D01*
X88399515Y-69724190D01*
X88421286Y-69700000D01*
X88464829Y-69675810D01*
X88813172Y-70135429D02*
X88834944Y-70159619D01*
X88813172Y-70183810D01*
X88791401Y-70159619D01*
X88813172Y-70135429D01*
X88813172Y-70183810D01*
X89270372Y-70183810D02*
X89009115Y-70183810D01*
X89139743Y-70183810D02*
X89139743Y-69675810D01*
X89096200Y-69748381D01*
X89052658Y-69796762D01*
X89009115Y-69820952D01*
X89662258Y-69845143D02*
X89662258Y-70183810D01*
X89466315Y-69845143D02*
X89466315Y-70111238D01*
X89488087Y-70159619D01*
X89531629Y-70183810D01*
X89596944Y-70183810D01*
X89640487Y-70159619D01*
X89662258Y-70135429D01*
D15*
X90333428Y-71932643D02*
X90309238Y-71960462D01*
X90236666Y-71988281D01*
X90188285Y-71988281D01*
X90115714Y-71960462D01*
X90067333Y-71904824D01*
X90043142Y-71849186D01*
X90018952Y-71737910D01*
X90018952Y-71654452D01*
X90043142Y-71543176D01*
X90067333Y-71487538D01*
X90115714Y-71431900D01*
X90188285Y-71404081D01*
X90236666Y-71404081D01*
X90309238Y-71431900D01*
X90333428Y-71459719D01*
X90526952Y-71459719D02*
X90551142Y-71431900D01*
X90599523Y-71404081D01*
X90720476Y-71404081D01*
X90768857Y-71431900D01*
X90793047Y-71459719D01*
X90817238Y-71515357D01*
X90817238Y-71570995D01*
X90793047Y-71654452D01*
X90502761Y-71988281D01*
X90817238Y-71988281D01*
X91252667Y-71404081D02*
X91155905Y-71404081D01*
X91107524Y-71431900D01*
X91083333Y-71459719D01*
X91034952Y-71543176D01*
X91010762Y-71654452D01*
X91010762Y-71877005D01*
X91034952Y-71932643D01*
X91059143Y-71960462D01*
X91107524Y-71988281D01*
X91204286Y-71988281D01*
X91252667Y-71960462D01*
X91276857Y-71932643D01*
X91301048Y-71877005D01*
X91301048Y-71737910D01*
X91276857Y-71682271D01*
X91252667Y-71654452D01*
X91204286Y-71626633D01*
X91107524Y-71626633D01*
X91059143Y-71654452D01*
X91034952Y-71682271D01*
X91010762Y-71737910D01*
D16*
X90376086Y-70183810D02*
X90114829Y-70183810D01*
X90245457Y-70183810D02*
X90245457Y-69675810D01*
X90201914Y-69748381D01*
X90158372Y-69796762D01*
X90114829Y-69820952D01*
X90659115Y-69675810D02*
X90702658Y-69675810D01*
X90746201Y-69700000D01*
X90767972Y-69724190D01*
X90789743Y-69772571D01*
X90811515Y-69869333D01*
X90811515Y-69990286D01*
X90789743Y-70087048D01*
X90767972Y-70135429D01*
X90746201Y-70159619D01*
X90702658Y-70183810D01*
X90659115Y-70183810D01*
X90615572Y-70159619D01*
X90593801Y-70135429D01*
X90572029Y-70087048D01*
X90550258Y-69990286D01*
X90550258Y-69869333D01*
X90572029Y-69772571D01*
X90593801Y-69724190D01*
X90615572Y-69700000D01*
X90659115Y-69675810D01*
X91203401Y-69845143D02*
X91203401Y-70183810D01*
X91007458Y-69845143D02*
X91007458Y-70111238D01*
X91029230Y-70159619D01*
X91072772Y-70183810D01*
X91138087Y-70183810D01*
X91181630Y-70159619D01*
X91203401Y-70135429D01*
D14*
X80500666Y-63491810D02*
X80500666Y-63854667D01*
X80476476Y-63927238D01*
X80428095Y-63975619D01*
X80355523Y-63999810D01*
X80307142Y-63999810D01*
X80694190Y-63491810D02*
X81008667Y-63491810D01*
X80839333Y-63685333D01*
X80911905Y-63685333D01*
X80960286Y-63709524D01*
X80984476Y-63733714D01*
X81008667Y-63782095D01*
X81008667Y-63903048D01*
X80984476Y-63951429D01*
X80960286Y-63975619D01*
X80911905Y-63999810D01*
X80766762Y-63999810D01*
X80718381Y-63975619D01*
X80694190Y-63951429D01*
X80500666Y-65691810D02*
X80500666Y-66054667D01*
X80476476Y-66127238D01*
X80428095Y-66175619D01*
X80355523Y-66199810D01*
X80307142Y-66199810D01*
X80984476Y-65691810D02*
X80742571Y-65691810D01*
X80718381Y-65933714D01*
X80742571Y-65909524D01*
X80790952Y-65885333D01*
X80911905Y-65885333D01*
X80960286Y-65909524D01*
X80984476Y-65933714D01*
X81008667Y-65982095D01*
X81008667Y-66103048D01*
X80984476Y-66151429D01*
X80960286Y-66175619D01*
X80911905Y-66199810D01*
X80790952Y-66199810D01*
X80742571Y-66175619D01*
X80718381Y-66151429D01*
X80490666Y-67991810D02*
X80490666Y-68354667D01*
X80466476Y-68427238D01*
X80418095Y-68475619D01*
X80345523Y-68499810D01*
X80297142Y-68499810D01*
X80950286Y-67991810D02*
X80853524Y-67991810D01*
X80805143Y-68016000D01*
X80780952Y-68040190D01*
X80732571Y-68112762D01*
X80708381Y-68209524D01*
X80708381Y-68403048D01*
X80732571Y-68451429D01*
X80756762Y-68475619D01*
X80805143Y-68499810D01*
X80901905Y-68499810D01*
X80950286Y-68475619D01*
X80974476Y-68451429D01*
X80998667Y-68403048D01*
X80998667Y-68282095D01*
X80974476Y-68233714D01*
X80950286Y-68209524D01*
X80901905Y-68185333D01*
X80805143Y-68185333D01*
X80756762Y-68209524D01*
X80732571Y-68233714D01*
X80708381Y-68282095D01*
D10*
X85341905Y-60946381D02*
X85341905Y-61755905D01*
X85389524Y-61851143D01*
X85437143Y-61898762D01*
X85532381Y-61946381D01*
X85722858Y-61946381D01*
X85818096Y-61898762D01*
X85865715Y-61851143D01*
X85913334Y-61755905D01*
X85913334Y-60946381D01*
X86913334Y-61946381D02*
X86341905Y-61946381D01*
X86627619Y-61946381D02*
X86627619Y-60946381D01*
X86532381Y-61089238D01*
X86437143Y-61184476D01*
X86341905Y-61232095D01*
X87865715Y-61946381D02*
X87294286Y-61946381D01*
X87580000Y-61946381D02*
X87580000Y-60946381D01*
X87484762Y-61089238D01*
X87389524Y-61184476D01*
X87294286Y-61232095D01*
D14*
X76490666Y-60015810D02*
X76490666Y-60378667D01*
X76466476Y-60451238D01*
X76418095Y-60499619D01*
X76345523Y-60523810D01*
X76297142Y-60523810D01*
X76684190Y-60015810D02*
X77022857Y-60015810D01*
X76805143Y-60523810D01*
D15*
X83662281Y-59828667D02*
X83384090Y-59998000D01*
X83662281Y-60118953D02*
X83078081Y-60118953D01*
X83078081Y-59925429D01*
X83105900Y-59877048D01*
X83133719Y-59852857D01*
X83189357Y-59828667D01*
X83272814Y-59828667D01*
X83328452Y-59852857D01*
X83356271Y-59877048D01*
X83384090Y-59925429D01*
X83384090Y-60118953D01*
X83078081Y-59393238D02*
X83078081Y-59490000D01*
X83105900Y-59538381D01*
X83133719Y-59562572D01*
X83217176Y-59610953D01*
X83328452Y-59635143D01*
X83551005Y-59635143D01*
X83606643Y-59610953D01*
X83634462Y-59586762D01*
X83662281Y-59538381D01*
X83662281Y-59441619D01*
X83634462Y-59393238D01*
X83606643Y-59369048D01*
X83551005Y-59344857D01*
X83411910Y-59344857D01*
X83356271Y-59369048D01*
X83328452Y-59393238D01*
X83300633Y-59441619D01*
X83300633Y-59538381D01*
X83328452Y-59586762D01*
X83356271Y-59610953D01*
X83411910Y-59635143D01*
D16*
X81849810Y-60016143D02*
X81849810Y-60277400D01*
X81849810Y-60146772D02*
X81341810Y-60146772D01*
X81414381Y-60190315D01*
X81462762Y-60233857D01*
X81486952Y-60277400D01*
X81341810Y-59733114D02*
X81341810Y-59689571D01*
X81366000Y-59646028D01*
X81390190Y-59624257D01*
X81438571Y-59602486D01*
X81535333Y-59580714D01*
X81656286Y-59580714D01*
X81753048Y-59602486D01*
X81801429Y-59624257D01*
X81825619Y-59646028D01*
X81849810Y-59689571D01*
X81849810Y-59733114D01*
X81825619Y-59776657D01*
X81801429Y-59798428D01*
X81753048Y-59820200D01*
X81656286Y-59841971D01*
X81535333Y-59841971D01*
X81438571Y-59820200D01*
X81390190Y-59798428D01*
X81366000Y-59776657D01*
X81341810Y-59733114D01*
X81849810Y-59384771D02*
X81341810Y-59384771D01*
X81656286Y-59341228D02*
X81849810Y-59210599D01*
X81511143Y-59210599D02*
X81704667Y-59384771D01*
D10*
X62536667Y-49992381D02*
X62536667Y-50706667D01*
X62489047Y-50849524D01*
X62393809Y-50944762D01*
X62250952Y-50992381D01*
X62155714Y-50992381D01*
X63536667Y-50992381D02*
X62965238Y-50992381D01*
X63250952Y-50992381D02*
X63250952Y-49992381D01*
X63155714Y-50135238D01*
X63060476Y-50230476D01*
X62965238Y-50278095D01*
X47008027Y-49638401D02*
X47008027Y-50352687D01*
X46960407Y-50495544D01*
X46865169Y-50590782D01*
X46722312Y-50638401D01*
X46627074Y-50638401D01*
X47436598Y-49733639D02*
X47484217Y-49686020D01*
X47579455Y-49638401D01*
X47817551Y-49638401D01*
X47912789Y-49686020D01*
X47960408Y-49733639D01*
X48008027Y-49828877D01*
X48008027Y-49924115D01*
X47960408Y-50066972D01*
X47388979Y-50638401D01*
X48008027Y-50638401D01*
X111132381Y-35071905D02*
X111941905Y-35071905D01*
X112037143Y-35024286D01*
X112084762Y-34976667D01*
X112132381Y-34881429D01*
X112132381Y-34690952D01*
X112084762Y-34595714D01*
X112037143Y-34548095D01*
X111941905Y-34500476D01*
X111132381Y-34500476D01*
X112132381Y-33500476D02*
X112132381Y-34071905D01*
X112132381Y-33786191D02*
X111132381Y-33786191D01*
X111275238Y-33881429D01*
X111370476Y-33976667D01*
X111418095Y-34071905D01*
X76782381Y-37341905D02*
X77591905Y-37341905D01*
X77687143Y-37294286D01*
X77734762Y-37246667D01*
X77782381Y-37151429D01*
X77782381Y-36960952D01*
X77734762Y-36865714D01*
X77687143Y-36818095D01*
X77591905Y-36770476D01*
X76782381Y-36770476D01*
X76877619Y-36341905D02*
X76830000Y-36294286D01*
X76782381Y-36199048D01*
X76782381Y-35960952D01*
X76830000Y-35865714D01*
X76877619Y-35818095D01*
X76972857Y-35770476D01*
X77068095Y-35770476D01*
X77210952Y-35818095D01*
X77782381Y-36389524D01*
X77782381Y-35770476D01*
X115897495Y-58690021D02*
X115897495Y-59499545D01*
X115945114Y-59594783D01*
X115992733Y-59642402D01*
X116087971Y-59690021D01*
X116278448Y-59690021D01*
X116373686Y-59642402D01*
X116421305Y-59594783D01*
X116468924Y-59499545D01*
X116468924Y-58690021D01*
X116849876Y-58690021D02*
X117516543Y-58690021D01*
X117087971Y-59690021D01*
X89302381Y-61541905D02*
X90111905Y-61541905D01*
X90207143Y-61494286D01*
X90254762Y-61446667D01*
X90302381Y-61351429D01*
X90302381Y-61160952D01*
X90254762Y-61065714D01*
X90207143Y-61018095D01*
X90111905Y-60970476D01*
X89302381Y-60970476D01*
X89302381Y-60065714D02*
X89302381Y-60256191D01*
X89350000Y-60351429D01*
X89397619Y-60399048D01*
X89540476Y-60494286D01*
X89730952Y-60541905D01*
X90111905Y-60541905D01*
X90207143Y-60494286D01*
X90254762Y-60446667D01*
X90302381Y-60351429D01*
X90302381Y-60160952D01*
X90254762Y-60065714D01*
X90207143Y-60018095D01*
X90111905Y-59970476D01*
X89873810Y-59970476D01*
X89778571Y-60018095D01*
X89730952Y-60065714D01*
X89683333Y-60160952D01*
X89683333Y-60351429D01*
X89730952Y-60446667D01*
X89778571Y-60494286D01*
X89873810Y-60541905D01*
M02*
