G04 #@! TF.GenerationSoftware,KiCad,Pcbnew,5.0.1+dfsg1-3*
G04 #@! TF.CreationDate,2018-11-24T15:47:24+02:00*
G04 #@! TF.ProjectId,cps2_digiav,637073325F6469676961762E6B696361,rev?*
G04 #@! TF.SameCoordinates,Original*
G04 #@! TF.FileFunction,Paste,Top*
G04 #@! TF.FilePolarity,Positive*
%FSLAX46Y46*%
G04 Gerber Fmt 4.6, Leading zero omitted, Abs format (unit mm)*
G04 Created by KiCad (PCBNEW 5.0.1+dfsg1-3) date 2018-11-24T15:47:24 EET*
%MOMM*%
%LPD*%
G01*
G04 APERTURE LIST*
%ADD10R,1.000000X0.300000*%
%ADD11R,0.300000X1.000000*%
%ADD12R,2.500000X2.500000*%
%ADD13R,5.000000X5.000000*%
%ADD14R,0.250000X1.200000*%
%ADD15R,1.200000X0.250000*%
%ADD16R,0.635000X1.143000*%
%ADD17R,0.650000X1.560000*%
%ADD18R,2.200000X0.300000*%
%ADD19R,1.143000X0.635000*%
%ADD20R,0.600000X2.350000*%
%ADD21R,1.400000X0.450000*%
%ADD22R,1.700000X0.400000*%
%ADD23R,1.600000X0.400000*%
%ADD24R,0.700000X0.200000*%
%ADD25R,0.970000X1.270000*%
%ADD26R,1.750000X0.450000*%
%ADD27R,6.700000X6.700000*%
%ADD28R,0.300000X1.600000*%
%ADD29R,1.600000X0.300000*%
%ADD30R,1.200000X2.400000*%
%ADD31R,3.300000X2.400000*%
G04 APERTURE END LIST*
D10*
G04 #@! TO.C,U6*
X90733000Y-64119000D03*
X90733000Y-63619000D03*
X90733000Y-63119000D03*
X90733000Y-62619000D03*
X90733000Y-62119000D03*
D11*
X91848000Y-61004000D03*
X92348000Y-61004000D03*
X92848000Y-61004000D03*
X93348000Y-61004000D03*
X93848000Y-61004000D03*
D10*
X94963000Y-62119000D03*
X94963000Y-62619000D03*
X94963000Y-63119000D03*
X94963000Y-63619000D03*
X94963000Y-64119000D03*
D11*
X93848000Y-65234000D03*
X93348000Y-65234000D03*
X92848000Y-65234000D03*
X92348000Y-65234000D03*
X91848000Y-65234000D03*
D12*
X92848000Y-63119000D03*
G04 #@! TD*
D13*
G04 #@! TO.C,U1*
X117830600Y-39509200D03*
D14*
X114080600Y-45309200D03*
X114580600Y-45309200D03*
X115080600Y-45309200D03*
X115580600Y-45309200D03*
X116080600Y-45309200D03*
X116580600Y-45309200D03*
X117080600Y-45309200D03*
X117580600Y-45309200D03*
X118080600Y-45309200D03*
X118580600Y-45309200D03*
X119080600Y-45309200D03*
X119580600Y-45309200D03*
X120080600Y-45309200D03*
X120580600Y-45309200D03*
X121080600Y-45309200D03*
X121580600Y-45309200D03*
D15*
X123630600Y-43259200D03*
X123630600Y-42759200D03*
X123630600Y-42259200D03*
X123630600Y-41759200D03*
X123630600Y-41259200D03*
X123630600Y-40759200D03*
X123630600Y-40259200D03*
X123630600Y-39759200D03*
X123630600Y-39259200D03*
X123630600Y-38759200D03*
X123630600Y-38259200D03*
X123630600Y-37759200D03*
X123630600Y-37259200D03*
X123630600Y-36759200D03*
X123630600Y-36259200D03*
X123630600Y-35759200D03*
D14*
X121580600Y-33709200D03*
X121080600Y-33709200D03*
X120580600Y-33709200D03*
X120080600Y-33709200D03*
X119580600Y-33709200D03*
X119080600Y-33709200D03*
X118580600Y-33709200D03*
X118080600Y-33709200D03*
X117580600Y-33709200D03*
X117080600Y-33709200D03*
X116580600Y-33709200D03*
X116080600Y-33709200D03*
X115580600Y-33709200D03*
X115080600Y-33709200D03*
X114580600Y-33709200D03*
X114080600Y-33709200D03*
D15*
X112030600Y-35759200D03*
X112030600Y-36259200D03*
X112030600Y-36759200D03*
X112030600Y-37259200D03*
X112030600Y-37759200D03*
X112030600Y-38259200D03*
X112030600Y-38759200D03*
X112030600Y-39259200D03*
X112030600Y-39759200D03*
X112030600Y-40259200D03*
X112030600Y-40759200D03*
X112030600Y-41259200D03*
X112030600Y-41759200D03*
X112030600Y-42259200D03*
X112030600Y-42759200D03*
X112030600Y-43259200D03*
G04 #@! TD*
D16*
G04 #@! TO.C,C2*
X55298000Y-61140000D03*
X56822000Y-61140000D03*
G04 #@! TD*
D17*
G04 #@! TO.C,U16*
X102050000Y-63000000D03*
X101100000Y-66300000D03*
X102050000Y-66300000D03*
X103000000Y-66300000D03*
X103000000Y-63000000D03*
X101100000Y-63000000D03*
G04 #@! TD*
G04 #@! TO.C,U9*
X97400000Y-63000000D03*
X99300000Y-63000000D03*
X99300000Y-66300000D03*
X98350000Y-66300000D03*
X97400000Y-66300000D03*
X98350000Y-63000000D03*
G04 #@! TD*
G04 #@! TO.C,U8*
X55270000Y-63240000D03*
X54320000Y-66540000D03*
X55270000Y-66540000D03*
X56220000Y-66540000D03*
X56220000Y-63240000D03*
X54320000Y-63240000D03*
G04 #@! TD*
D18*
G04 #@! TO.C,J4*
X134851000Y-33461000D03*
X134851000Y-33961000D03*
X134851000Y-34461000D03*
X134851000Y-34961000D03*
X134851000Y-35461000D03*
X134851000Y-35961000D03*
X134851000Y-36461000D03*
X134851000Y-36961000D03*
X134851000Y-37461000D03*
X134851000Y-37961000D03*
X134851000Y-38461000D03*
X134851000Y-38961000D03*
X134851000Y-39461000D03*
X134851000Y-39961000D03*
X134851000Y-40461000D03*
X134851000Y-40961000D03*
X134851000Y-41461000D03*
X134851000Y-41961000D03*
X134851000Y-42461000D03*
G04 #@! TD*
D19*
G04 #@! TO.C,R46*
X129900000Y-45542000D03*
X129900000Y-44018000D03*
G04 #@! TD*
G04 #@! TO.C,R45*
X131730000Y-45536000D03*
X131730000Y-44012000D03*
G04 #@! TD*
G04 #@! TO.C,F2*
X129910000Y-48392000D03*
X129910000Y-46868000D03*
G04 #@! TD*
G04 #@! TO.C,R41*
X126390000Y-46908000D03*
X126390000Y-48432000D03*
G04 #@! TD*
D16*
G04 #@! TO.C,R24*
X48182000Y-31420000D03*
X46658000Y-31420000D03*
G04 #@! TD*
G04 #@! TO.C,R23*
X45462000Y-45280000D03*
X43938000Y-45280000D03*
G04 #@! TD*
D19*
G04 #@! TO.C,R22*
X50050000Y-38036000D03*
X50050000Y-36512000D03*
G04 #@! TD*
G04 #@! TO.C,R21*
X50050000Y-41886000D03*
X50050000Y-40362000D03*
G04 #@! TD*
G04 #@! TO.C,R20*
X50080000Y-44152000D03*
X50080000Y-45676000D03*
G04 #@! TD*
D16*
G04 #@! TO.C,R19*
X43942000Y-33080000D03*
X42418000Y-33080000D03*
G04 #@! TD*
G04 #@! TO.C,C65*
X100528000Y-34034000D03*
X102052000Y-34034000D03*
G04 #@! TD*
D19*
G04 #@! TO.C,C60*
X79160000Y-35416000D03*
X79160000Y-33892000D03*
G04 #@! TD*
D16*
G04 #@! TO.C,C55*
X43932000Y-31400000D03*
X42408000Y-31400000D03*
G04 #@! TD*
D19*
G04 #@! TO.C,C47*
X101990000Y-55182000D03*
X101990000Y-56706000D03*
G04 #@! TD*
D16*
G04 #@! TO.C,C43*
X80532000Y-56624000D03*
X79008000Y-56624000D03*
G04 #@! TD*
D20*
G04 #@! TO.C,U10*
X42655000Y-42190000D03*
X43925000Y-42190000D03*
X45195000Y-42190000D03*
X46465000Y-42190000D03*
X46465000Y-35990000D03*
X45195000Y-35990000D03*
X43925000Y-35990000D03*
X42655000Y-35990000D03*
G04 #@! TD*
D16*
G04 #@! TO.C,C1*
X107592000Y-63474000D03*
X106068000Y-63474000D03*
G04 #@! TD*
D19*
G04 #@! TO.C,C3*
X115820000Y-69362000D03*
X115820000Y-70886000D03*
G04 #@! TD*
D16*
G04 #@! TO.C,C5*
X107592000Y-65094000D03*
X106068000Y-65094000D03*
G04 #@! TD*
D19*
G04 #@! TO.C,C6*
X74940000Y-35666000D03*
X74940000Y-34142000D03*
G04 #@! TD*
G04 #@! TO.C,C7*
X74940000Y-43936000D03*
X74940000Y-42412000D03*
G04 #@! TD*
G04 #@! TO.C,C8*
X72040000Y-62652000D03*
X72040000Y-64176000D03*
G04 #@! TD*
D16*
G04 #@! TO.C,R1*
X76402000Y-52670000D03*
X74878000Y-52670000D03*
G04 #@! TD*
G04 #@! TO.C,R2*
X76402000Y-51050000D03*
X74878000Y-51050000D03*
G04 #@! TD*
D21*
G04 #@! TO.C,D1*
X108140000Y-67074000D03*
X105340000Y-67074000D03*
G04 #@! TD*
D16*
G04 #@! TO.C,R3*
X120632000Y-48664000D03*
X119108000Y-48664000D03*
G04 #@! TD*
D19*
G04 #@! TO.C,C14*
X104720000Y-62022000D03*
X104720000Y-60498000D03*
G04 #@! TD*
D22*
G04 #@! TO.C,U3*
X65620000Y-35375000D03*
X65620000Y-36025000D03*
X65620000Y-36675000D03*
X65620000Y-37325000D03*
X65620000Y-37975000D03*
X65620000Y-38625000D03*
X65620000Y-39275000D03*
X65620000Y-39925000D03*
X65620000Y-40575000D03*
X65620000Y-41225000D03*
X72060000Y-41225000D03*
X72060000Y-40575000D03*
X72060000Y-39925000D03*
X72060000Y-39275000D03*
X72060000Y-38625000D03*
X72060000Y-37975000D03*
X72060000Y-37325000D03*
X72060000Y-36675000D03*
X72060000Y-36025000D03*
X72060000Y-35375000D03*
G04 #@! TD*
G04 #@! TO.C,U4*
X65620000Y-43575000D03*
X65620000Y-44225000D03*
X65620000Y-44875000D03*
X65620000Y-45525000D03*
X65620000Y-46175000D03*
X65620000Y-46825000D03*
X65620000Y-47475000D03*
X65620000Y-48125000D03*
X65620000Y-48775000D03*
X65620000Y-49425000D03*
X72060000Y-49425000D03*
X72060000Y-48775000D03*
X72060000Y-48125000D03*
X72060000Y-47475000D03*
X72060000Y-46825000D03*
X72060000Y-46175000D03*
X72060000Y-45525000D03*
X72060000Y-44875000D03*
X72060000Y-44225000D03*
X72060000Y-43575000D03*
G04 #@! TD*
G04 #@! TO.C,U5*
X72060000Y-65765000D03*
X72060000Y-66415000D03*
X72060000Y-67065000D03*
X72060000Y-67715000D03*
X72060000Y-68365000D03*
X72060000Y-69015000D03*
X72060000Y-69665000D03*
X72060000Y-70315000D03*
X72060000Y-70965000D03*
X72060000Y-71615000D03*
X65620000Y-71615000D03*
X65620000Y-70965000D03*
X65620000Y-70315000D03*
X65620000Y-69665000D03*
X65620000Y-69015000D03*
X65620000Y-68365000D03*
X65620000Y-67715000D03*
X65620000Y-67065000D03*
X65620000Y-66415000D03*
X65620000Y-65765000D03*
G04 #@! TD*
D19*
G04 #@! TO.C,R4*
X92340000Y-67942000D03*
X92340000Y-69466000D03*
G04 #@! TD*
D23*
G04 #@! TO.C,D2*
X131673500Y-34710400D03*
D24*
X132123200Y-35710400D03*
X132123200Y-35210400D03*
X132123200Y-34210400D03*
X132123200Y-33710400D03*
X131223800Y-35710400D03*
X131223800Y-35210400D03*
X131223800Y-33710400D03*
X131223800Y-34210400D03*
D23*
X131673500Y-34710400D03*
G04 #@! TD*
G04 #@! TO.C,D3*
X131660800Y-37710300D03*
D24*
X132110500Y-38710300D03*
X132110500Y-38210300D03*
X132110500Y-37210300D03*
X132110500Y-36710300D03*
X131211100Y-38710300D03*
X131211100Y-38210300D03*
X131211100Y-36710300D03*
X131211100Y-37210300D03*
D23*
X131660800Y-37710300D03*
G04 #@! TD*
D16*
G04 #@! TO.C,C16*
X89028000Y-66694000D03*
X90552000Y-66694000D03*
G04 #@! TD*
G04 #@! TO.C,R5*
X124642000Y-30850000D03*
X123118000Y-30850000D03*
G04 #@! TD*
D19*
G04 #@! TO.C,C23*
X75260000Y-69682000D03*
X75260000Y-71206000D03*
G04 #@! TD*
G04 #@! TO.C,C25*
X89020000Y-69192000D03*
X89020000Y-70716000D03*
G04 #@! TD*
G04 #@! TO.C,C26*
X90670000Y-69192000D03*
X90670000Y-70716000D03*
G04 #@! TD*
D25*
G04 #@! TO.C,J3*
X81840000Y-64420000D03*
X83120000Y-64420000D03*
G04 #@! TD*
G04 #@! TO.C,J5*
X81840000Y-66200000D03*
X83120000Y-66200000D03*
G04 #@! TD*
G04 #@! TO.C,J6*
X81840000Y-67980000D03*
X83120000Y-67980000D03*
G04 #@! TD*
D26*
G04 #@! TO.C,U11*
X78270000Y-62525000D03*
X78270000Y-63175000D03*
X78270000Y-63825000D03*
X78270000Y-64475000D03*
X78270000Y-65125000D03*
X78270000Y-65775000D03*
X78270000Y-66425000D03*
X78270000Y-67075000D03*
X78270000Y-67725000D03*
X78270000Y-68375000D03*
X78270000Y-69025000D03*
X78270000Y-69675000D03*
X78270000Y-70325000D03*
X78270000Y-70975000D03*
X85470000Y-70975000D03*
X85470000Y-70325000D03*
X85470000Y-69675000D03*
X85470000Y-69025000D03*
X85470000Y-68375000D03*
X85470000Y-67725000D03*
X85470000Y-67075000D03*
X85470000Y-66425000D03*
X85470000Y-65775000D03*
X85470000Y-65125000D03*
X85470000Y-64475000D03*
X85470000Y-63825000D03*
X85470000Y-63175000D03*
X85470000Y-62525000D03*
G04 #@! TD*
D25*
G04 #@! TO.C,J7*
X79840000Y-59670000D03*
X81120000Y-59670000D03*
G04 #@! TD*
D16*
G04 #@! TO.C,R6*
X78272000Y-59670000D03*
X76748000Y-59670000D03*
G04 #@! TD*
D27*
G04 #@! TO.C,U2*
X90587000Y-45335000D03*
D28*
X81837000Y-56135000D03*
X82337000Y-56135000D03*
X82837000Y-56135000D03*
X83337000Y-56135000D03*
X83837000Y-56135000D03*
X84337000Y-56135000D03*
X84837000Y-56135000D03*
X85337000Y-56135000D03*
X85837000Y-56135000D03*
X86337000Y-56135000D03*
X86837000Y-56135000D03*
X87337000Y-56135000D03*
X87837000Y-56135000D03*
X88337000Y-56135000D03*
X88837000Y-56135000D03*
X89337000Y-56135000D03*
X89837000Y-56135000D03*
X90337000Y-56135000D03*
X90837000Y-56135000D03*
X91337000Y-56135000D03*
X91837000Y-56135000D03*
X92337000Y-56135000D03*
X92837000Y-56135000D03*
X93337000Y-56135000D03*
X93837000Y-56135000D03*
X94337000Y-56135000D03*
X94837000Y-56135000D03*
X95337000Y-56135000D03*
X95837000Y-56135000D03*
X96337000Y-56135000D03*
X96837000Y-56135000D03*
X97337000Y-56135000D03*
X97837000Y-56135000D03*
X98337000Y-56135000D03*
X98837000Y-56135000D03*
X99337000Y-56135000D03*
D29*
X101387000Y-54085000D03*
X101387000Y-53585000D03*
X101387000Y-53085000D03*
X101387000Y-52585000D03*
X101387000Y-52085000D03*
X101387000Y-51585000D03*
X101387000Y-51085000D03*
X101387000Y-50585000D03*
X101387000Y-50085000D03*
X101387000Y-49585000D03*
X101387000Y-49085000D03*
X101387000Y-48585000D03*
X101387000Y-48085000D03*
X101387000Y-47585000D03*
X101387000Y-47085000D03*
X101387000Y-46585000D03*
X101387000Y-46085000D03*
X101387000Y-45585000D03*
X101387000Y-45085000D03*
X101387000Y-44585000D03*
X101387000Y-44085000D03*
X101387000Y-43585000D03*
X101387000Y-43085000D03*
X101387000Y-42585000D03*
X101387000Y-42085000D03*
X101387000Y-41585000D03*
X101387000Y-41085000D03*
X101387000Y-40585000D03*
X101387000Y-40085000D03*
X101387000Y-39585000D03*
X101387000Y-39085000D03*
X101387000Y-38585000D03*
X101387000Y-38085000D03*
X101387000Y-37585000D03*
X101387000Y-37085000D03*
X101387000Y-36585000D03*
D28*
X99337000Y-34535000D03*
X98837000Y-34535000D03*
X98337000Y-34535000D03*
X97837000Y-34535000D03*
X97337000Y-34535000D03*
X96837000Y-34535000D03*
X96337000Y-34535000D03*
X95837000Y-34535000D03*
X95337000Y-34535000D03*
X94837000Y-34535000D03*
X94337000Y-34535000D03*
X93837000Y-34535000D03*
X93337000Y-34535000D03*
X92837000Y-34535000D03*
X92337000Y-34535000D03*
X91837000Y-34535000D03*
X91337000Y-34535000D03*
X90837000Y-34535000D03*
X90337000Y-34535000D03*
X89837000Y-34535000D03*
X89337000Y-34535000D03*
X88837000Y-34535000D03*
X88337000Y-34535000D03*
X87837000Y-34535000D03*
X87337000Y-34535000D03*
X86837000Y-34535000D03*
X86337000Y-34535000D03*
X85837000Y-34535000D03*
X85337000Y-34535000D03*
X84837000Y-34535000D03*
X84337000Y-34535000D03*
X83837000Y-34535000D03*
X83337000Y-34535000D03*
X82837000Y-34535000D03*
X82337000Y-34535000D03*
X81837000Y-34535000D03*
D29*
X79787000Y-36585000D03*
X79787000Y-37085000D03*
X79787000Y-37585000D03*
X79787000Y-38085000D03*
X79787000Y-38585000D03*
X79787000Y-39085000D03*
X79787000Y-39585000D03*
X79787000Y-40085000D03*
X79787000Y-40585000D03*
X79787000Y-41085000D03*
X79787000Y-41585000D03*
X79787000Y-42085000D03*
X79787000Y-42585000D03*
X79787000Y-43085000D03*
X79787000Y-43585000D03*
X79787000Y-44085000D03*
X79787000Y-44585000D03*
X79787000Y-45085000D03*
X79787000Y-45585000D03*
X79787000Y-46085000D03*
X79787000Y-46585000D03*
X79787000Y-47085000D03*
X79787000Y-47585000D03*
X79787000Y-48085000D03*
X79787000Y-48585000D03*
X79787000Y-49085000D03*
X79787000Y-49585000D03*
X79787000Y-50085000D03*
X79787000Y-50585000D03*
X79787000Y-51085000D03*
X79787000Y-51585000D03*
X79787000Y-52085000D03*
X79787000Y-52585000D03*
X79787000Y-53085000D03*
X79787000Y-53585000D03*
X79787000Y-54085000D03*
G04 #@! TD*
D30*
G04 #@! TO.C,U7*
X112570000Y-65464000D03*
X110270000Y-65464000D03*
X114870000Y-65464000D03*
D31*
X112570000Y-58264000D03*
G04 #@! TD*
M02*
