G04 #@! TF.GenerationSoftware,KiCad,Pcbnew,5.0.1+dfsg1-3*
G04 #@! TF.CreationDate,2018-11-24T15:47:24+02:00*
G04 #@! TF.ProjectId,cps2_digiav,637073325F6469676961762E6B696361,rev?*
G04 #@! TF.SameCoordinates,Original*
G04 #@! TF.FileFunction,Soldermask,Bot*
G04 #@! TF.FilePolarity,Negative*
%FSLAX46Y46*%
G04 Gerber Fmt 4.6, Leading zero omitted, Abs format (unit mm)*
G04 Created by KiCad (PCBNEW 5.0.1+dfsg1-3) date 2018-11-24T15:47:24 EET*
%MOMM*%
%LPD*%
G01*
G04 APERTURE LIST*
%ADD10C,2.351600*%
%ADD11R,2.601600X2.601600*%
%ADD12R,5.101600X5.101600*%
%ADD13C,0.801600*%
%ADD14R,1.244600X0.736600*%
%ADD15C,2.101600*%
%ADD16C,1.401600*%
%ADD17R,0.551600X1.501600*%
%ADD18C,1.607820*%
%ADD19R,0.751600X1.661600*%
%ADD20C,2.801600*%
%ADD21R,0.736600X1.244600*%
%ADD22C,1.601600*%
%ADD23R,6.801600X6.801600*%
%ADD24C,0.791600*%
G04 APERTURE END LIST*
D10*
G04 #@! TO.C,U6*
X92848000Y-63119000D03*
D11*
X92848000Y-63119000D03*
G04 #@! TD*
D12*
G04 #@! TO.C,U1*
X117830600Y-39509200D03*
D10*
X117830600Y-39509200D03*
D13*
X115830600Y-41509200D03*
X115830600Y-40509200D03*
X115830600Y-39509200D03*
X115830600Y-38509200D03*
X115830600Y-37509200D03*
X116830600Y-41509200D03*
X116830600Y-40509200D03*
X116830600Y-38509200D03*
X116830600Y-37509200D03*
X117830600Y-41509200D03*
X117830600Y-37509200D03*
X118830600Y-41509200D03*
X118830600Y-40509200D03*
X118830600Y-38509200D03*
X118830600Y-37509200D03*
X119830600Y-41509200D03*
X119830600Y-40509200D03*
X119830600Y-39509200D03*
X119830600Y-38509200D03*
X119830600Y-37509200D03*
G04 #@! TD*
D14*
G04 #@! TO.C,R8*
X46540000Y-68782000D03*
X46540000Y-67258000D03*
G04 #@! TD*
G04 #@! TO.C,R7*
X44800000Y-67268000D03*
X44800000Y-68792000D03*
G04 #@! TD*
D15*
G04 #@! TO.C,SW1*
X49180000Y-68240000D03*
X42180000Y-68240000D03*
D16*
X48180000Y-70500000D03*
X46555000Y-70500000D03*
X44805000Y-70500000D03*
X43180000Y-70500000D03*
G04 #@! TD*
D17*
G04 #@! TO.C,D4*
X129830000Y-54920000D03*
X129830000Y-57720000D03*
G04 #@! TD*
D18*
G04 #@! TO.C,P1*
X57415000Y-44094000D03*
X54875000Y-44094000D03*
X57415000Y-41554000D03*
X54875000Y-41554000D03*
X57415000Y-39014000D03*
X54875000Y-39014000D03*
X57415000Y-36474000D03*
X54875000Y-36474000D03*
X57415000Y-33934000D03*
X54875000Y-33934000D03*
G04 #@! TD*
D19*
G04 #@! TO.C,U15*
X122410000Y-59774000D03*
X121460000Y-59774000D03*
X120510000Y-59774000D03*
X120510000Y-56474000D03*
X122410000Y-56474000D03*
G04 #@! TD*
G04 #@! TO.C,U12*
X99990000Y-65004000D03*
X99040000Y-65004000D03*
X98090000Y-65004000D03*
X98090000Y-61704000D03*
X99990000Y-61704000D03*
G04 #@! TD*
G04 #@! TO.C,U13*
X104230000Y-64964000D03*
X103280000Y-64964000D03*
X102330000Y-64964000D03*
X102330000Y-61664000D03*
X104230000Y-61664000D03*
G04 #@! TD*
G04 #@! TO.C,U14*
X117230000Y-59774000D03*
X116280000Y-59774000D03*
X115330000Y-59774000D03*
X115330000Y-56474000D03*
X117230000Y-56474000D03*
G04 #@! TD*
D20*
G04 #@! TO.C,J4*
X135951000Y-30961000D03*
X135951000Y-45461000D03*
X140901000Y-46061000D03*
X140901000Y-30361000D03*
G04 #@! TD*
D14*
G04 #@! TO.C,FB4*
X126240000Y-55448000D03*
X126240000Y-56972000D03*
G04 #@! TD*
G04 #@! TO.C,FB2*
X117600000Y-51762000D03*
X117600000Y-50238000D03*
G04 #@! TD*
G04 #@! TO.C,FB1*
X124260000Y-51652000D03*
X124260000Y-50128000D03*
G04 #@! TD*
G04 #@! TO.C,R18*
X91230000Y-34796000D03*
X91230000Y-33272000D03*
G04 #@! TD*
G04 #@! TO.C,R17*
X88110000Y-55908000D03*
X88110000Y-57432000D03*
G04 #@! TD*
G04 #@! TO.C,R16*
X86460000Y-57432000D03*
X86460000Y-55908000D03*
G04 #@! TD*
G04 #@! TO.C,C108*
X95510000Y-67392000D03*
X95510000Y-65868000D03*
G04 #@! TD*
D21*
G04 #@! TO.C,C49*
X101138000Y-36430000D03*
X102662000Y-36430000D03*
G04 #@! TD*
G04 #@! TO.C,C101*
X80052000Y-46574000D03*
X78528000Y-46574000D03*
G04 #@! TD*
G04 #@! TO.C,C99*
X101128000Y-51074000D03*
X102652000Y-51074000D03*
G04 #@! TD*
G04 #@! TO.C,C98*
X117238000Y-54580000D03*
X118762000Y-54580000D03*
G04 #@! TD*
G04 #@! TO.C,C97*
X104032000Y-59844000D03*
X102508000Y-59844000D03*
G04 #@! TD*
G04 #@! TO.C,C96*
X99922000Y-59784000D03*
X98398000Y-59784000D03*
G04 #@! TD*
G04 #@! TO.C,C94*
X100572000Y-66874000D03*
X99048000Y-66874000D03*
G04 #@! TD*
D14*
G04 #@! TO.C,C92*
X118870000Y-61572000D03*
X118870000Y-60048000D03*
G04 #@! TD*
D21*
G04 #@! TO.C,C91*
X104802000Y-66874000D03*
X103278000Y-66874000D03*
G04 #@! TD*
G04 #@! TO.C,C89*
X122452000Y-54544000D03*
X120928000Y-54544000D03*
G04 #@! TD*
D14*
G04 #@! TO.C,C87*
X124080000Y-61602000D03*
X124080000Y-60078000D03*
G04 #@! TD*
G04 #@! TO.C,C86*
X115850000Y-51752000D03*
X115850000Y-50228000D03*
G04 #@! TD*
G04 #@! TO.C,C85*
X122510000Y-51642000D03*
X122510000Y-50118000D03*
G04 #@! TD*
D21*
G04 #@! TO.C,C84*
X123568000Y-39124000D03*
X125092000Y-39124000D03*
G04 #@! TD*
G04 #@! TO.C,C83*
X123558000Y-42334000D03*
X125082000Y-42334000D03*
G04 #@! TD*
G04 #@! TO.C,C82*
X123578000Y-37224000D03*
X125102000Y-37224000D03*
G04 #@! TD*
G04 #@! TO.C,C81*
X112242000Y-36770000D03*
X110718000Y-36770000D03*
G04 #@! TD*
G04 #@! TO.C,C80*
X123578000Y-35524000D03*
X125102000Y-35524000D03*
G04 #@! TD*
D14*
G04 #@! TO.C,C79*
X122830000Y-45248000D03*
X122830000Y-46772000D03*
G04 #@! TD*
G04 #@! TO.C,C78*
X116510000Y-45258000D03*
X116510000Y-46782000D03*
G04 #@! TD*
G04 #@! TO.C,C77*
X114790000Y-45258000D03*
X114790000Y-46782000D03*
G04 #@! TD*
G04 #@! TO.C,C75*
X124560000Y-56972000D03*
X124560000Y-55448000D03*
G04 #@! TD*
G04 #@! TO.C,C74*
X109720000Y-46822000D03*
X109720000Y-45298000D03*
G04 #@! TD*
G04 #@! TO.C,C73*
X120600000Y-45248000D03*
X120600000Y-46772000D03*
G04 #@! TD*
G04 #@! TO.C,C69*
X118940000Y-45248000D03*
X118940000Y-46772000D03*
G04 #@! TD*
G04 #@! TO.C,C68*
X96740000Y-34796000D03*
X96740000Y-33272000D03*
G04 #@! TD*
G04 #@! TO.C,C67*
X93320000Y-34806000D03*
X93320000Y-33282000D03*
G04 #@! TD*
G04 #@! TO.C,C66*
X85130000Y-34796000D03*
X85130000Y-33272000D03*
G04 #@! TD*
G04 #@! TO.C,C64*
X98440000Y-34796000D03*
X98440000Y-33272000D03*
G04 #@! TD*
G04 #@! TO.C,C63*
X95050000Y-34796000D03*
X95050000Y-33272000D03*
G04 #@! TD*
G04 #@! TO.C,C62*
X89080000Y-34796000D03*
X89080000Y-33272000D03*
G04 #@! TD*
G04 #@! TO.C,C61*
X83120000Y-34796000D03*
X83120000Y-33272000D03*
G04 #@! TD*
D21*
G04 #@! TO.C,C59*
X101138000Y-38074000D03*
X102662000Y-38074000D03*
G04 #@! TD*
G04 #@! TO.C,C58*
X80042000Y-39694000D03*
X78518000Y-39694000D03*
G04 #@! TD*
G04 #@! TO.C,C57*
X80042000Y-41314000D03*
X78518000Y-41314000D03*
G04 #@! TD*
G04 #@! TO.C,C54*
X80042000Y-44684000D03*
X78518000Y-44684000D03*
G04 #@! TD*
G04 #@! TO.C,C53*
X101138000Y-44894000D03*
X102662000Y-44894000D03*
G04 #@! TD*
G04 #@! TO.C,C51*
X101138000Y-48414000D03*
X102662000Y-48414000D03*
G04 #@! TD*
G04 #@! TO.C,C50*
X80052000Y-50334000D03*
X78528000Y-50334000D03*
G04 #@! TD*
G04 #@! TO.C,C48*
X101128000Y-52734000D03*
X102652000Y-52734000D03*
G04 #@! TD*
D14*
G04 #@! TO.C,C46*
X99460000Y-55868000D03*
X99460000Y-57392000D03*
G04 #@! TD*
G04 #@! TO.C,C45*
X93990000Y-55868000D03*
X93990000Y-57392000D03*
G04 #@! TD*
G04 #@! TO.C,C44*
X82360000Y-55912000D03*
X82360000Y-57436000D03*
G04 #@! TD*
G04 #@! TO.C,C42*
X97310000Y-55862000D03*
X97310000Y-57386000D03*
G04 #@! TD*
G04 #@! TO.C,C41*
X95690000Y-55862000D03*
X95690000Y-57386000D03*
G04 #@! TD*
G04 #@! TO.C,C40*
X91850000Y-55878000D03*
X91850000Y-57402000D03*
G04 #@! TD*
G04 #@! TO.C,C39*
X84130000Y-55912000D03*
X84130000Y-57436000D03*
G04 #@! TD*
G04 #@! TO.C,C9*
X90170000Y-63982000D03*
X90170000Y-62458000D03*
G04 #@! TD*
G04 #@! TO.C,C10*
X113100000Y-45288000D03*
X113100000Y-46812000D03*
G04 #@! TD*
G04 #@! TO.C,C11*
X127920000Y-55448000D03*
X127920000Y-56972000D03*
G04 #@! TD*
G04 #@! TO.C,C12*
X119330000Y-50238000D03*
X119330000Y-51762000D03*
G04 #@! TD*
G04 #@! TO.C,C13*
X126010000Y-50128000D03*
X126010000Y-51652000D03*
G04 #@! TD*
G04 #@! TO.C,FB3*
X111420000Y-45288000D03*
X111420000Y-46812000D03*
G04 #@! TD*
G04 #@! TO.C,C15*
X95510000Y-63886000D03*
X95510000Y-62362000D03*
G04 #@! TD*
D21*
G04 #@! TO.C,C17*
X80042000Y-52004000D03*
X78518000Y-52004000D03*
G04 #@! TD*
G04 #@! TO.C,C18*
X101138000Y-46654000D03*
X102662000Y-46654000D03*
G04 #@! TD*
G04 #@! TO.C,C19*
X80052000Y-48574000D03*
X78528000Y-48574000D03*
G04 #@! TD*
G04 #@! TO.C,C20*
X80042000Y-43024000D03*
X78518000Y-43024000D03*
G04 #@! TD*
G04 #@! TO.C,C21*
X101138000Y-43154000D03*
X102662000Y-43154000D03*
G04 #@! TD*
G04 #@! TO.C,C22*
X101128000Y-41504000D03*
X102652000Y-41504000D03*
G04 #@! TD*
D22*
G04 #@! TO.C,J1*
X61225000Y-53074000D03*
X68845000Y-63234000D03*
X61225000Y-55614000D03*
X68845000Y-60694000D03*
X61225000Y-58154000D03*
X68845000Y-58154000D03*
X61225000Y-60694000D03*
X68845000Y-55614000D03*
X61225000Y-63234000D03*
X68845000Y-53074000D03*
G04 #@! TD*
G04 #@! TO.C,J2*
X43445000Y-53074000D03*
X51065000Y-63234000D03*
X43445000Y-55614000D03*
X51065000Y-60694000D03*
X43445000Y-58154000D03*
X51065000Y-58154000D03*
X43445000Y-60694000D03*
X51065000Y-55614000D03*
X43445000Y-63234000D03*
X51065000Y-53074000D03*
G04 #@! TD*
D23*
G04 #@! TO.C,U2*
X90587000Y-45335000D03*
D24*
X88037000Y-47885000D03*
X88037000Y-47035000D03*
X88037000Y-46185000D03*
X88037000Y-45335000D03*
X88037000Y-44485000D03*
X88037000Y-43635000D03*
X88037000Y-42785000D03*
X88887000Y-47885000D03*
X88887000Y-47035000D03*
X88887000Y-46185000D03*
X88887000Y-45335000D03*
X88887000Y-44485000D03*
X88887000Y-43635000D03*
X88887000Y-42785000D03*
X89737000Y-47885000D03*
X89737000Y-47035000D03*
X89737000Y-43635000D03*
X89737000Y-42785000D03*
X90587000Y-47885000D03*
X90587000Y-47035000D03*
X90587000Y-43635000D03*
X90587000Y-42785000D03*
X91437000Y-47885000D03*
X91437000Y-47035000D03*
X91437000Y-43635000D03*
X91437000Y-42785000D03*
X92287000Y-47885000D03*
X92287000Y-47035000D03*
X92287000Y-46185000D03*
X92287000Y-45335000D03*
X92287000Y-44485000D03*
X92287000Y-43635000D03*
X92287000Y-42785000D03*
X93137000Y-47885000D03*
X93137000Y-47035000D03*
X93137000Y-46185000D03*
X93137000Y-45335000D03*
X93137000Y-44485000D03*
X93137000Y-43635000D03*
X93137000Y-42785000D03*
D10*
X90587000Y-45335000D03*
G04 #@! TD*
M02*
