M48
INCH,TZ
T1C0.013
T2C0.014
T3C0.031
T4C0.039
T5C0.043
T6C0.055
T7C0.069
%
G90
G05
T1
X16815Y-15012
X17807Y-14929
X18295Y-15602
X18984Y-18839
X19898Y-18516
X20394Y-14591
X23508Y-16476
X23736Y-25823
X27744Y-25429
X28571Y-23858
X28890Y-24154
X29213Y-19732
X29669Y-21256
X30031Y-24598
X30413Y-20634
X31465Y-26661
X31469Y-24551
X31606Y-25346
X31606Y-26264
X32028Y-24323
X32039Y-18421
X32051Y-16130
X32055Y-16835
X32071Y-20287
X32154Y-14260
X32339Y-24067
X32681Y-24469
X33567Y-24039
X33902Y-21480
X34039Y-23976
X34303Y-25634
X34417Y-21480
X34449Y-23972
X34531Y-19602
X34660Y-16844
X34660Y-17179
X34660Y-17514
X34660Y-17848
X34660Y-18183
X34660Y-18518
X34660Y-18852
X34665Y-25173
X34764Y-25665
X34827Y-23965
X34870Y-23531
X34992Y-25370
X34995Y-16844
X34995Y-17179
X34995Y-17514
X34995Y-17848
X34995Y-18183
X34995Y-18518
X34995Y-18852
X35059Y-26807
X35098Y-14220
X35134Y-23299
X35173Y-22772
X35276Y-21480
X35330Y-16844
X35330Y-17179
X35330Y-18518
X35330Y-18852
X35409Y-19583
X35504Y-14217
X35664Y-16844
X35664Y-17179
X35664Y-18518
X35664Y-18852
X35713Y-22709
X35999Y-16844
X35999Y-17179
X35999Y-18518
X35999Y-18852
X36220Y-23488
X36333Y-16844
X36333Y-17179
X36333Y-17514
X36333Y-17848
X36333Y-18183
X36333Y-18518
X36333Y-18852
X36407Y-27848
X36461Y-19598
X36661Y-28185
X36668Y-16844
X36668Y-17179
X36668Y-17514
X36668Y-17848
X36668Y-18183
X36668Y-18518
X36668Y-18852
X36776Y-21482
X37118Y-23539
X37319Y-18555
X37319Y-19236
X37327Y-17783
X37350Y-16969
X37492Y-24106
X37512Y-14256
X39185Y-16465
X39201Y-20248
X39236Y-18535
X39295Y-17555
X40480Y-19520
X41213Y-21295
X41622Y-24370
X42551Y-15858
X44677Y-13906
X44913Y-17276
X45059Y-14173
X45603Y-14767
X45603Y-15161
X45603Y-15555
X45603Y-15949
X45603Y-16342
X45882Y-24917
X45890Y-25524
X45894Y-26213
X45996Y-14767
X45996Y-15161
X45996Y-15949
X45996Y-16342
X46390Y-14767
X46390Y-16342
X46732Y-17303
X46740Y-12189
X46784Y-14767
X46784Y-15161
X46784Y-15949
X46784Y-16342
X47173Y-12535
X47177Y-14767
X47177Y-15161
X47177Y-15555
X47177Y-15949
X47177Y-16342
X47268Y-17303
X47598Y-14236
X47819Y-16898
X47866Y-17295
X48071Y-12472
X48110Y-14669
X48118Y-15437
X48126Y-14091
X48126Y-16618
X49598Y-17925
X49783Y-12169
X50343Y-17819
X52748Y-17327
T2
X16760Y-15528
X16780Y-18768
X17299Y-19071
X17870Y-15504
X18409Y-13154
X19984Y-16992
X20189Y-15461
X20287Y-16709
X20819Y-21618
X20882Y-20303
X21217Y-22303
X21496Y-22984
X21705Y-24343
X21791Y-20724
X22260Y-21228
X24610Y-19173
X24886Y-27654
X25264Y-12248
X25831Y-16646
X25870Y-13181
X26406Y-16657
X26642Y-26319
X26815Y-11945
X27311Y-13102
X27343Y-27402
X27496Y-17551
X27693Y-14496
X28520Y-13142
X29047Y-28051
X29055Y-11945
X30055Y-27083
X30189Y-17309
X30386Y-22154
X30449Y-15980
X30764Y-14472
X31110Y-21752
X31760Y-26870
X31945Y-12421
X32028Y-19650
X32031Y-18906
X32051Y-20854
X32075Y-17228
X32083Y-14685
X32307Y-24591
X32339Y-21181
X32382Y-15628
X32398Y-17588
X32398Y-19272
X32622Y-21461
X32744Y-18898
X32748Y-15610
X32748Y-16492
X32748Y-20185
X32752Y-17224
X32846Y-14197
X32898Y-20614
X33118Y-21151
X33236Y-15406
X33291Y-12732
X33409Y-14240
X33559Y-20819
X33606Y-17142
X33606Y-18764
X33622Y-17894
X33671Y-19486
X33717Y-16244
X33976Y-14209
X33992Y-18272
X34000Y-17535
X34012Y-16677
X34016Y-19051
X34104Y-19911
X34205Y-15709
X34303Y-24665
X34413Y-14256
X34512Y-27431
X34579Y-16177
X34717Y-26469
X34819Y-20819
X34858Y-14894
X34969Y-20071
X35150Y-12740
X35390Y-16181
X35421Y-25587
X35520Y-12756
X35571Y-26823
X35819Y-23839
X35854Y-20075
X36106Y-16181
X36138Y-26260
X36150Y-20819
X36154Y-21466
X36248Y-22929
X36315Y-14209
X36331Y-14902
X36740Y-14588
X36799Y-16201
X36850Y-20071
X37028Y-23161
X37031Y-14902
X37071Y-14264
X37311Y-25622
X37335Y-21478
X37382Y-19740
X37669Y-21143
X37713Y-17366
X37713Y-18209
X37713Y-18902
X37752Y-16650
X37890Y-14264
X37961Y-14902
X37992Y-21498
X38008Y-20823
X38303Y-15047
X38307Y-14575
X38311Y-21147
X38315Y-23705
X38386Y-20728
X38484Y-20315
X38488Y-16339
X38500Y-15547
X38618Y-26362
X38713Y-14217
X38811Y-19061
X38831Y-20754
X38835Y-14986
X38835Y-16990
X39047Y-21443
X39213Y-15976
X39220Y-18012
X39256Y-14150
X39276Y-14677
X39291Y-15350
X39563Y-21602
X39564Y-22325
X39984Y-26118
X40185Y-26449
X40335Y-13917
X40780Y-19213
X40783Y-13248
X40874Y-18041
X40878Y-17537
X40894Y-20583
X40984Y-16191
X41004Y-15114
X41075Y-14614
X41650Y-23815
X41728Y-17469
X41752Y-26917
X41803Y-22165
X41945Y-16193
X42031Y-14610
X42047Y-13531
X42177Y-22858
X42185Y-21728
X42370Y-19295
X42575Y-24102
X42622Y-23512
X42819Y-15130
X42835Y-19303
X42870Y-13488
X43185Y-23000
X43421Y-24598
X43429Y-23941
X43476Y-19142
X43512Y-13500
X43886Y-19681
X43996Y-17386
X44118Y-23929
X44142Y-24630
X44205Y-20087
X44425Y-20614
X44831Y-18756
X44902Y-23941
X44902Y-24642
X44980Y-26772
X45020Y-21012
X45079Y-14642
X45083Y-16031
X45094Y-15291
X45106Y-16756
X45220Y-19067
X45472Y-16988
X45618Y-20988
X45807Y-19220
X46004Y-16996
X46087Y-26772
X46720Y-16870
X46965Y-22252
X47157Y-21291
X47165Y-18732
X47276Y-16890
X47402Y-11685
X47571Y-19870
X48142Y-16059
X48406Y-19130
X48772Y-13268
X49189Y-22957
X49551Y-13276
X49776Y-21213
X49941Y-17598
X50236Y-22949
X50264Y-13291
X50276Y-12492
X50500Y-17217
X50654Y-11894
X50909Y-13720
X51071Y-12492
X51224Y-16500
X51311Y-14894
X51787Y-11969
X51870Y-15870
X53827Y-14996
X53850Y-13949
X54472Y-14803
X54480Y-14004
X54531Y-16098
T3
X17104Y-20895
X17104Y-21895
X17104Y-22895
X17104Y-23895
X17104Y-24895
X20104Y-20895
X20104Y-21895
X20104Y-22895
X20104Y-23895
X20104Y-24895
X24104Y-20895
X24104Y-21895
X24104Y-22895
X24104Y-23895
X24104Y-24895
X27104Y-20895
X27104Y-21895
X27104Y-22895
X27104Y-23895
X27104Y-24895
T4
X21604Y-13360
X21604Y-14360
X21604Y-15360
X21604Y-16360
X21604Y-17360
X22604Y-13360
X22604Y-14360
X22604Y-15360
X22604Y-16360
X22604Y-17360
T5
X42575Y-27752
X51118Y-19850
T6
X53524Y-12189
X53524Y-17898
X55473Y-11953
X55473Y-18134
T7
X35664Y-17848
X36554Y-24850
X46390Y-15555
T0
M30
