M48
;DRILL file {KiCad 5.0.1+dfsg1-3} date 2018-11-24T15:47:25 EET
;FORMAT={-:-/ absolute / inch / decimal}
FMAT,2
INCH,TZ
T1C0.0130
T2C0.0138
T3C0.0315
T4C0.0393
T5C0.0433
T6C0.0512
T7C0.0551
T8C0.0689
%
G90
G05
M72
T1
X1.6815Y-1.5012
X1.7807Y-1.4929
X1.8295Y-1.5602
X1.8984Y-1.8839
X1.9898Y-1.8516
X2.0311Y-2.6654
X2.0394Y-1.4591
X2.0768Y-2.6681
X2.1075Y-2.5429
X2.239Y-2.348
X2.2669Y-2.6106
X2.285Y-2.6457
X2.3094Y-2.5823
X2.3197Y-2.6728
X2.3508Y-1.6476
X2.3736Y-2.5823
X2.4992Y-2.7028
X2.7744Y-2.5429
X2.8571Y-2.3858
X2.889Y-2.4154
X2.8945Y-2.7287
X2.9213Y-1.9732
X2.9669Y-2.1256
X3.0031Y-2.4598
X3.0413Y-2.0634
X3.1606Y-2.5346
X3.1606Y-2.6264
X3.2028Y-2.4323
X3.2039Y-1.8421
X3.2051Y-1.613
X3.2055Y-1.6835
X3.2071Y-2.0287
X3.2154Y-1.426
X3.2339Y-2.4067
X3.2681Y-2.4469
X3.3567Y-2.4039
X3.3902Y-2.148
X3.4039Y-2.3976
X3.4303Y-2.5634
X3.4417Y-2.148
X3.4531Y-1.9602
X3.4665Y-2.5173
X3.4689Y-2.3886
X3.4764Y-2.5665
X3.487Y-2.3531
X3.4992Y-2.537
X3.5059Y-2.6807
X3.5087Y-2.3969
X3.5098Y-1.422
X3.5134Y-2.3299
X3.5173Y-2.2772
X3.5276Y-2.148
X3.5409Y-1.9583
X3.5504Y-1.4217
X3.5713Y-2.2709
X3.622Y-2.3488
X3.6407Y-2.7848
X3.6461Y-1.9598
X3.6661Y-2.8185
X3.6776Y-2.1482
X3.7118Y-2.3539
X3.7319Y-1.8555
X3.7319Y-1.9236
X3.7327Y-1.7783
X3.735Y-1.6969
X3.7492Y-2.4106
X3.7512Y-1.4256
X3.8118Y-2.5555
X3.9185Y-1.6465
X3.9201Y-2.0248
X3.9236Y-1.8535
X3.9295Y-1.7555
X4.048Y-1.952
X4.1138Y-2.5043
X4.1213Y-2.1295
X4.2551Y-1.5858
X4.4677Y-1.3906
X4.4913Y-1.7276
X4.5059Y-1.4173
X4.5882Y-2.4917
X4.589Y-2.5524
X4.5894Y-2.6213
X4.6732Y-1.7303
X4.674Y-1.2189
X4.7173Y-1.2535
X4.7268Y-1.7303
X4.7598Y-1.4236
X4.7819Y-1.6898
X4.7866Y-1.7295
X4.8071Y-1.2472
X4.811Y-1.4669
X4.8118Y-1.5437
X4.8126Y-1.4091
X4.8126Y-1.6618
X4.9598Y-1.7925
X4.9783Y-1.2169
X5.0343Y-1.7819
X5.2748Y-1.7327
X4.5603Y-1.4767
X4.5603Y-1.5161
X4.5603Y-1.5555
X4.5603Y-1.5949
X4.5603Y-1.6342
X4.5996Y-1.4767
X4.5996Y-1.5161
X4.5996Y-1.5949
X4.5996Y-1.6342
X4.639Y-1.4767
X4.639Y-1.6342
X4.6784Y-1.4767
X4.6784Y-1.5161
X4.6784Y-1.5949
X4.6784Y-1.6342
X4.7177Y-1.4767
X4.7177Y-1.5161
X4.7177Y-1.5555
X4.7177Y-1.5949
X4.7177Y-1.6342
X3.466Y-1.6844
X3.466Y-1.7179
X3.466Y-1.7514
X3.466Y-1.7848
X3.466Y-1.8183
X3.466Y-1.8518
X3.466Y-1.8852
X3.4995Y-1.6844
X3.4995Y-1.7179
X3.4995Y-1.7514
X3.4995Y-1.7848
X3.4995Y-1.8183
X3.4995Y-1.8518
X3.4995Y-1.8852
X3.533Y-1.6844
X3.533Y-1.7179
X3.533Y-1.8518
X3.533Y-1.8852
X3.5664Y-1.6844
X3.5664Y-1.7179
X3.5664Y-1.8518
X3.5664Y-1.8852
X3.5999Y-1.6844
X3.5999Y-1.7179
X3.5999Y-1.8518
X3.5999Y-1.8852
X3.6333Y-1.6844
X3.6333Y-1.7179
X3.6333Y-1.7514
X3.6333Y-1.7848
X3.6333Y-1.8183
X3.6333Y-1.8518
X3.6333Y-1.8852
X3.6668Y-1.6844
X3.6668Y-1.7179
X3.6668Y-1.7514
X3.6668Y-1.7848
X3.6668Y-1.8183
X3.6668Y-1.8518
X3.6668Y-1.8852
T2
X1.6441Y-2.5177
X1.6488Y-2.5736
X1.6488Y-2.6185
X1.6524Y-2.4343
X1.676Y-1.5528
X1.678Y-1.8768
X1.6976Y-2.5748
X1.6988Y-2.6177
X1.7299Y-1.9071
X1.787Y-1.5504
X1.8409Y-1.3154
X1.8741Y-2.5883
X1.9913Y-2.6319
X1.9984Y-1.6992
X2.0189Y-1.5461
X2.0287Y-1.6709
X2.0819Y-2.1618
X2.0831Y-2.4787
X2.0882Y-2.0303
X2.1063Y-2.585
X2.1217Y-2.2303
X2.1496Y-2.2984
X2.1571Y-2.6862
X2.1791Y-2.0724
X2.1953Y-2.5567
X2.226Y-2.1228
X2.2504Y-2.6764
X2.2567Y-2.4433
X2.461Y-1.9173
X2.4886Y-2.7654
X2.5264Y-1.2248
X2.5354Y-2.7008
X2.5831Y-1.6646
X2.587Y-1.3181
X2.6406Y-1.6657
X2.6815Y-1.1945
X2.7311Y-1.3102
X2.7343Y-2.7402
X2.7496Y-1.7551
X2.7693Y-1.4496
X2.852Y-1.3142
X2.9047Y-2.8051
X2.9055Y-1.1945
X3.0055Y-2.7083
X3.0189Y-1.7309
X3.0386Y-2.2154
X3.0449Y-1.598
X3.0764Y-1.4472
X3.111Y-2.1752
X3.176Y-2.687
X3.1945Y-1.2421
X3.2028Y-1.965
X3.2031Y-1.8906
X3.2051Y-2.0854
X3.2075Y-1.7228
X3.2083Y-1.4685
X3.2307Y-2.4591
X3.2339Y-2.1181
X3.2382Y-1.5628
X3.2398Y-1.7588
X3.2398Y-1.9272
X3.2622Y-2.1461
X3.2744Y-1.8898
X3.2748Y-1.561
X3.2748Y-1.6492
X3.2748Y-2.0185
X3.2752Y-1.7224
X3.2846Y-1.4197
X3.2898Y-2.0614
X3.3118Y-2.1151
X3.3236Y-1.5406
X3.3291Y-1.2732
X3.3409Y-1.424
X3.3559Y-2.0819
X3.3606Y-1.7142
X3.3606Y-1.8764
X3.3622Y-1.7894
X3.3671Y-1.9486
X3.3717Y-1.6244
X3.3976Y-1.4209
X3.3992Y-1.8272
X3.4Y-1.7535
X3.4012Y-1.6677
X3.4016Y-1.9051
X3.4104Y-1.9911
X3.4205Y-1.5709
X3.4303Y-2.4665
X3.4409Y-2.4142
X3.4413Y-1.4256
X3.4512Y-2.7431
X3.4579Y-1.6177
X3.4717Y-2.6469
X3.4819Y-2.0819
X3.4858Y-1.4894
X3.4969Y-2.0071
X3.515Y-1.274
X3.539Y-1.6181
X3.5421Y-2.5587
X3.552Y-1.2756
X3.5571Y-2.6823
X3.5819Y-2.3839
X3.5854Y-2.0075
X3.6106Y-1.6181
X3.6138Y-2.626
X3.615Y-2.0819
X3.6154Y-2.1466
X3.6248Y-2.2929
X3.6315Y-1.4209
X3.6331Y-1.4902
X3.674Y-1.4588
X3.6799Y-1.6201
X3.685Y-2.0071
X3.7028Y-2.3161
X3.7031Y-1.4902
X3.7071Y-1.4264
X3.7311Y-2.5622
X3.7335Y-2.1478
X3.7382Y-1.974
X3.7669Y-2.1143
X3.7713Y-1.7366
X3.7713Y-1.8209
X3.7713Y-1.8902
X3.7752Y-1.665
X3.789Y-1.4264
X3.7961Y-1.4902
X3.7992Y-2.1498
X3.8008Y-2.0823
X3.8303Y-1.5047
X3.8307Y-1.4575
X3.8311Y-2.1147
X3.8315Y-2.3705
X3.8386Y-2.0728
X3.8484Y-2.0315
X3.8488Y-1.6339
X3.85Y-1.5547
X3.8693Y-2.6559
X3.8713Y-1.4217
X3.8811Y-1.9061
X3.8831Y-2.0754
X3.8835Y-1.4986
X3.8835Y-1.699
X3.9047Y-2.1443
X3.9213Y-1.5976
X3.922Y-1.8012
X3.9256Y-1.415
X3.9276Y-1.4677
X3.9291Y-1.535
X3.9563Y-2.1602
X3.9564Y-2.2325
X3.9858Y-2.3602
X3.9858Y-2.4213
X4.026Y-2.6571
X4.0335Y-1.3917
X4.078Y-1.9213
X4.0783Y-1.3248
X4.0874Y-1.8041
X4.0878Y-1.7537
X4.0894Y-2.0583
X4.0984Y-1.6191
X4.1004Y-1.5114
X4.1075Y-1.4614
X4.165Y-2.3815
X4.1728Y-1.7469
X4.1803Y-2.2165
X4.1945Y-1.6193
X4.2031Y-1.461
X4.2047Y-1.3531
X4.2177Y-2.2858
X4.2185Y-2.1728
X4.237Y-1.9295
X4.2575Y-2.4102
X4.2622Y-2.3512
X4.2819Y-1.513
X4.2835Y-1.9303
X4.287Y-1.3488
X4.3185Y-2.3
X4.3421Y-2.4598
X4.3429Y-2.3941
X4.3476Y-1.9142
X4.3512Y-1.35
X4.3886Y-1.9681
X4.3996Y-1.7386
X4.4118Y-2.3929
X4.4142Y-2.463
X4.4205Y-2.0087
X4.4425Y-2.0614
X4.4831Y-1.8756
X4.4902Y-2.3941
X4.4902Y-2.4642
X4.498Y-2.6772
X4.502Y-2.1012
X4.5079Y-1.4642
X4.5083Y-1.6031
X4.5094Y-1.5291
X4.5106Y-1.6756
X4.522Y-1.9067
X4.5472Y-1.6988
X4.5618Y-2.0988
X4.5807Y-1.922
X4.6004Y-1.6996
X4.6087Y-2.6772
X4.672Y-1.687
X4.6965Y-2.2252
X4.7157Y-2.1291
X4.7165Y-1.8732
X4.7276Y-1.689
X4.7402Y-1.1685
X4.7571Y-1.987
X4.8142Y-1.6059
X4.8406Y-1.913
X4.8772Y-1.3268
X4.9189Y-2.2957
X4.9551Y-1.3276
X4.9776Y-2.1213
X4.9941Y-1.7598
X5.0236Y-2.2949
X5.0264Y-1.3291
X5.0276Y-1.2492
X5.05Y-1.7217
X5.0654Y-1.1894
X5.0909Y-1.372
X5.1071Y-1.2492
X5.1224Y-1.65
X5.1311Y-1.4894
X5.1787Y-1.1969
X5.187Y-1.587
X5.3827Y-1.4996
X5.385Y-1.3949
X5.4472Y-1.4803
X5.448Y-1.4004
X5.4531Y-1.6098
T3
X2.4104Y-2.0895
X2.4104Y-2.1895
X2.4104Y-2.2895
X2.4104Y-2.3895
X2.4104Y-2.4895
X2.7104Y-2.0895
X2.7104Y-2.1895
X2.7104Y-2.2895
X2.7104Y-2.3895
X2.7104Y-2.4895
X1.7104Y-2.0895
X1.7104Y-2.1895
X1.7104Y-2.2895
X1.7104Y-2.3895
X1.7104Y-2.4895
X2.0104Y-2.0895
X2.0104Y-2.1895
X2.0104Y-2.2895
X2.0104Y-2.3895
X2.0104Y-2.4895
X1.7Y-2.7756
X1.764Y-2.7756
X1.8329Y-2.7756
X1.8969Y-2.7756
T4
X2.1604Y-1.336
X2.1604Y-1.436
X2.1604Y-1.536
X2.1604Y-1.636
X2.1604Y-1.736
X2.2604Y-1.336
X2.2604Y-1.436
X2.2604Y-1.536
X2.2604Y-1.636
X2.2604Y-1.736
T5
X4.2811Y-2.7756
X5.1118Y-1.985
T6
X1.6606Y-2.6866
X1.9362Y-2.6866
T7
X5.3524Y-1.2189
X5.3524Y-1.7898
X5.5473Y-1.1953
X5.5473Y-1.8134
T8
X4.639Y-1.5555
X3.6554Y-2.485
X3.5664Y-1.7848
T0
M30
