G04 #@! TF.GenerationSoftware,KiCad,Pcbnew,5.0.1+dfsg1-3*
G04 #@! TF.CreationDate,2018-11-24T15:47:24+02:00*
G04 #@! TF.ProjectId,cps2_digiav,637073325F6469676961762E6B696361,rev?*
G04 #@! TF.SameCoordinates,Original*
G04 #@! TF.FileFunction,Legend,Bot*
G04 #@! TF.FilePolarity,Positive*
%FSLAX46Y46*%
G04 Gerber Fmt 4.6, Leading zero omitted, Abs format (unit mm)*
G04 Created by KiCad (PCBNEW 5.0.1+dfsg1-3) date 2018-11-24T15:47:24 EET*
%MOMM*%
%LPD*%
G01*
G04 APERTURE LIST*
%ADD10C,0.119380*%
%ADD11C,0.150000*%
%ADD12C,0.127000*%
%ADD13C,0.114300*%
G04 APERTURE END LIST*
D10*
G04 #@! TO.C,R8*
X47276600Y-66780480D02*
X45803400Y-66780480D01*
X45803400Y-69259520D02*
X47276600Y-69259520D01*
X45805940Y-66821120D02*
X45805940Y-67519620D01*
X45805940Y-68520380D02*
X45805940Y-69218880D01*
X47274060Y-67519620D02*
X47274060Y-66821120D01*
X47274060Y-68520380D02*
X47274060Y-69218880D01*
G04 #@! TO.C,R7*
X45534060Y-68530380D02*
X45534060Y-69228880D01*
X45534060Y-67529620D02*
X45534060Y-66831120D01*
X44065940Y-68530380D02*
X44065940Y-69228880D01*
X44065940Y-66831120D02*
X44065940Y-67529620D01*
X44063400Y-69269520D02*
X45536600Y-69269520D01*
X45536600Y-66790480D02*
X44063400Y-66790480D01*
D11*
G04 #@! TO.C,D4*
X129830000Y-56570000D02*
X129830000Y-56820000D01*
X129830000Y-56070000D02*
X129830000Y-55820000D01*
X129830000Y-56070000D02*
X129480000Y-56570000D01*
X129480000Y-56570000D02*
X130180000Y-56570000D01*
X130180000Y-56570000D02*
X129830000Y-56070000D01*
X129480000Y-56070000D02*
X130180000Y-56070000D01*
X130630000Y-55020000D02*
X130630000Y-57420000D01*
X129030000Y-55020000D02*
X129030000Y-57420000D01*
G04 #@! TO.C,U15*
X123260000Y-58424000D02*
G75*
G03X123260000Y-58424000I-100000J0D01*
G01*
X122910000Y-57874000D02*
X122910000Y-58374000D01*
X120010000Y-57874000D02*
X122910000Y-57874000D01*
X120010000Y-58374000D02*
X120010000Y-57874000D01*
X122910000Y-58374000D02*
X120010000Y-58374000D01*
G04 #@! TO.C,U12*
X100840000Y-63654000D02*
G75*
G03X100840000Y-63654000I-100000J0D01*
G01*
X100490000Y-63104000D02*
X100490000Y-63604000D01*
X97590000Y-63104000D02*
X100490000Y-63104000D01*
X97590000Y-63604000D02*
X97590000Y-63104000D01*
X100490000Y-63604000D02*
X97590000Y-63604000D01*
G04 #@! TO.C,U13*
X105080000Y-63614000D02*
G75*
G03X105080000Y-63614000I-100000J0D01*
G01*
X104730000Y-63064000D02*
X104730000Y-63564000D01*
X101830000Y-63064000D02*
X104730000Y-63064000D01*
X101830000Y-63564000D02*
X101830000Y-63064000D01*
X104730000Y-63564000D02*
X101830000Y-63564000D01*
G04 #@! TO.C,U14*
X118080000Y-58424000D02*
G75*
G03X118080000Y-58424000I-100000J0D01*
G01*
X117730000Y-57874000D02*
X117730000Y-58374000D01*
X114830000Y-57874000D02*
X117730000Y-57874000D01*
X114830000Y-58374000D02*
X114830000Y-57874000D01*
X117730000Y-58374000D02*
X114830000Y-58374000D01*
D10*
G04 #@! TO.C,FB4*
X126974060Y-56710380D02*
X126974060Y-57408880D01*
X126974060Y-55709620D02*
X126974060Y-55011120D01*
X125505940Y-56710380D02*
X125505940Y-57408880D01*
X125505940Y-55011120D02*
X125505940Y-55709620D01*
X125503400Y-57449520D02*
X126976600Y-57449520D01*
X126976600Y-54970480D02*
X125503400Y-54970480D01*
G04 #@! TO.C,FB2*
X116865940Y-50499620D02*
X116865940Y-49801120D01*
X116865940Y-51500380D02*
X116865940Y-52198880D01*
X118334060Y-50499620D02*
X118334060Y-49801120D01*
X118334060Y-52198880D02*
X118334060Y-51500380D01*
X118336600Y-49760480D02*
X116863400Y-49760480D01*
X116863400Y-52239520D02*
X118336600Y-52239520D01*
G04 #@! TO.C,FB1*
X123525940Y-50389620D02*
X123525940Y-49691120D01*
X123525940Y-51390380D02*
X123525940Y-52088880D01*
X124994060Y-50389620D02*
X124994060Y-49691120D01*
X124994060Y-52088880D02*
X124994060Y-51390380D01*
X124996600Y-49650480D02*
X123523400Y-49650480D01*
X123523400Y-52129520D02*
X124996600Y-52129520D01*
G04 #@! TO.C,R18*
X90495940Y-33533620D02*
X90495940Y-32835120D01*
X90495940Y-34534380D02*
X90495940Y-35232880D01*
X91964060Y-33533620D02*
X91964060Y-32835120D01*
X91964060Y-35232880D02*
X91964060Y-34534380D01*
X91966600Y-32794480D02*
X90493400Y-32794480D01*
X90493400Y-35273520D02*
X91966600Y-35273520D01*
G04 #@! TO.C,R17*
X88844060Y-57170380D02*
X88844060Y-57868880D01*
X88844060Y-56169620D02*
X88844060Y-55471120D01*
X87375940Y-57170380D02*
X87375940Y-57868880D01*
X87375940Y-55471120D02*
X87375940Y-56169620D01*
X87373400Y-57909520D02*
X88846600Y-57909520D01*
X88846600Y-55430480D02*
X87373400Y-55430480D01*
G04 #@! TO.C,R16*
X85725940Y-56169620D02*
X85725940Y-55471120D01*
X85725940Y-57170380D02*
X85725940Y-57868880D01*
X87194060Y-56169620D02*
X87194060Y-55471120D01*
X87194060Y-57868880D02*
X87194060Y-57170380D01*
X87196600Y-55430480D02*
X85723400Y-55430480D01*
X85723400Y-57909520D02*
X87196600Y-57909520D01*
G04 #@! TO.C,C108*
X94775940Y-66129620D02*
X94775940Y-65431120D01*
X94775940Y-67130380D02*
X94775940Y-67828880D01*
X96244060Y-66129620D02*
X96244060Y-65431120D01*
X96244060Y-67828880D02*
X96244060Y-67130380D01*
X96246600Y-65390480D02*
X94773400Y-65390480D01*
X94773400Y-67869520D02*
X96246600Y-67869520D01*
G04 #@! TO.C,C49*
X102400380Y-35695940D02*
X103098880Y-35695940D01*
X101399620Y-35695940D02*
X100701120Y-35695940D01*
X102400380Y-37164060D02*
X103098880Y-37164060D01*
X100701120Y-37164060D02*
X101399620Y-37164060D01*
X103139520Y-37166600D02*
X103139520Y-35693400D01*
X100660480Y-35693400D02*
X100660480Y-37166600D01*
G04 #@! TO.C,C101*
X78789620Y-47308060D02*
X78091120Y-47308060D01*
X79790380Y-47308060D02*
X80488880Y-47308060D01*
X78789620Y-45839940D02*
X78091120Y-45839940D01*
X80488880Y-45839940D02*
X79790380Y-45839940D01*
X78050480Y-45837400D02*
X78050480Y-47310600D01*
X80529520Y-47310600D02*
X80529520Y-45837400D01*
G04 #@! TO.C,C99*
X102390380Y-50339940D02*
X103088880Y-50339940D01*
X101389620Y-50339940D02*
X100691120Y-50339940D01*
X102390380Y-51808060D02*
X103088880Y-51808060D01*
X100691120Y-51808060D02*
X101389620Y-51808060D01*
X103129520Y-51810600D02*
X103129520Y-50337400D01*
X100650480Y-50337400D02*
X100650480Y-51810600D01*
G04 #@! TO.C,C98*
X118500380Y-53845940D02*
X119198880Y-53845940D01*
X117499620Y-53845940D02*
X116801120Y-53845940D01*
X118500380Y-55314060D02*
X119198880Y-55314060D01*
X116801120Y-55314060D02*
X117499620Y-55314060D01*
X119239520Y-55316600D02*
X119239520Y-53843400D01*
X116760480Y-53843400D02*
X116760480Y-55316600D01*
G04 #@! TO.C,C97*
X102769620Y-60578060D02*
X102071120Y-60578060D01*
X103770380Y-60578060D02*
X104468880Y-60578060D01*
X102769620Y-59109940D02*
X102071120Y-59109940D01*
X104468880Y-59109940D02*
X103770380Y-59109940D01*
X102030480Y-59107400D02*
X102030480Y-60580600D01*
X104509520Y-60580600D02*
X104509520Y-59107400D01*
G04 #@! TO.C,C96*
X98659620Y-60518060D02*
X97961120Y-60518060D01*
X99660380Y-60518060D02*
X100358880Y-60518060D01*
X98659620Y-59049940D02*
X97961120Y-59049940D01*
X100358880Y-59049940D02*
X99660380Y-59049940D01*
X97920480Y-59047400D02*
X97920480Y-60520600D01*
X100399520Y-60520600D02*
X100399520Y-59047400D01*
G04 #@! TO.C,C94*
X99309620Y-67608060D02*
X98611120Y-67608060D01*
X100310380Y-67608060D02*
X101008880Y-67608060D01*
X99309620Y-66139940D02*
X98611120Y-66139940D01*
X101008880Y-66139940D02*
X100310380Y-66139940D01*
X98570480Y-66137400D02*
X98570480Y-67610600D01*
X101049520Y-67610600D02*
X101049520Y-66137400D01*
G04 #@! TO.C,C92*
X118135940Y-60309620D02*
X118135940Y-59611120D01*
X118135940Y-61310380D02*
X118135940Y-62008880D01*
X119604060Y-60309620D02*
X119604060Y-59611120D01*
X119604060Y-62008880D02*
X119604060Y-61310380D01*
X119606600Y-59570480D02*
X118133400Y-59570480D01*
X118133400Y-62049520D02*
X119606600Y-62049520D01*
G04 #@! TO.C,C91*
X103539620Y-67608060D02*
X102841120Y-67608060D01*
X104540380Y-67608060D02*
X105238880Y-67608060D01*
X103539620Y-66139940D02*
X102841120Y-66139940D01*
X105238880Y-66139940D02*
X104540380Y-66139940D01*
X102800480Y-66137400D02*
X102800480Y-67610600D01*
X105279520Y-67610600D02*
X105279520Y-66137400D01*
G04 #@! TO.C,C89*
X121189620Y-55278060D02*
X120491120Y-55278060D01*
X122190380Y-55278060D02*
X122888880Y-55278060D01*
X121189620Y-53809940D02*
X120491120Y-53809940D01*
X122888880Y-53809940D02*
X122190380Y-53809940D01*
X120450480Y-53807400D02*
X120450480Y-55280600D01*
X122929520Y-55280600D02*
X122929520Y-53807400D01*
G04 #@! TO.C,C87*
X123345940Y-60339620D02*
X123345940Y-59641120D01*
X123345940Y-61340380D02*
X123345940Y-62038880D01*
X124814060Y-60339620D02*
X124814060Y-59641120D01*
X124814060Y-62038880D02*
X124814060Y-61340380D01*
X124816600Y-59600480D02*
X123343400Y-59600480D01*
X123343400Y-62079520D02*
X124816600Y-62079520D01*
G04 #@! TO.C,C86*
X115115940Y-50489620D02*
X115115940Y-49791120D01*
X115115940Y-51490380D02*
X115115940Y-52188880D01*
X116584060Y-50489620D02*
X116584060Y-49791120D01*
X116584060Y-52188880D02*
X116584060Y-51490380D01*
X116586600Y-49750480D02*
X115113400Y-49750480D01*
X115113400Y-52229520D02*
X116586600Y-52229520D01*
G04 #@! TO.C,C85*
X121775940Y-50379620D02*
X121775940Y-49681120D01*
X121775940Y-51380380D02*
X121775940Y-52078880D01*
X123244060Y-50379620D02*
X123244060Y-49681120D01*
X123244060Y-52078880D02*
X123244060Y-51380380D01*
X123246600Y-49640480D02*
X121773400Y-49640480D01*
X121773400Y-52119520D02*
X123246600Y-52119520D01*
G04 #@! TO.C,C84*
X124830380Y-38389940D02*
X125528880Y-38389940D01*
X123829620Y-38389940D02*
X123131120Y-38389940D01*
X124830380Y-39858060D02*
X125528880Y-39858060D01*
X123131120Y-39858060D02*
X123829620Y-39858060D01*
X125569520Y-39860600D02*
X125569520Y-38387400D01*
X123090480Y-38387400D02*
X123090480Y-39860600D01*
G04 #@! TO.C,C83*
X124820380Y-41599940D02*
X125518880Y-41599940D01*
X123819620Y-41599940D02*
X123121120Y-41599940D01*
X124820380Y-43068060D02*
X125518880Y-43068060D01*
X123121120Y-43068060D02*
X123819620Y-43068060D01*
X125559520Y-43070600D02*
X125559520Y-41597400D01*
X123080480Y-41597400D02*
X123080480Y-43070600D01*
G04 #@! TO.C,C82*
X124840380Y-36489940D02*
X125538880Y-36489940D01*
X123839620Y-36489940D02*
X123141120Y-36489940D01*
X124840380Y-37958060D02*
X125538880Y-37958060D01*
X123141120Y-37958060D02*
X123839620Y-37958060D01*
X125579520Y-37960600D02*
X125579520Y-36487400D01*
X123100480Y-36487400D02*
X123100480Y-37960600D01*
G04 #@! TO.C,C81*
X110979620Y-37504060D02*
X110281120Y-37504060D01*
X111980380Y-37504060D02*
X112678880Y-37504060D01*
X110979620Y-36035940D02*
X110281120Y-36035940D01*
X112678880Y-36035940D02*
X111980380Y-36035940D01*
X110240480Y-36033400D02*
X110240480Y-37506600D01*
X112719520Y-37506600D02*
X112719520Y-36033400D01*
G04 #@! TO.C,C80*
X124840380Y-34789940D02*
X125538880Y-34789940D01*
X123839620Y-34789940D02*
X123141120Y-34789940D01*
X124840380Y-36258060D02*
X125538880Y-36258060D01*
X123141120Y-36258060D02*
X123839620Y-36258060D01*
X125579520Y-36260600D02*
X125579520Y-34787400D01*
X123100480Y-34787400D02*
X123100480Y-36260600D01*
G04 #@! TO.C,C79*
X123564060Y-46510380D02*
X123564060Y-47208880D01*
X123564060Y-45509620D02*
X123564060Y-44811120D01*
X122095940Y-46510380D02*
X122095940Y-47208880D01*
X122095940Y-44811120D02*
X122095940Y-45509620D01*
X122093400Y-47249520D02*
X123566600Y-47249520D01*
X123566600Y-44770480D02*
X122093400Y-44770480D01*
G04 #@! TO.C,C78*
X117244060Y-46520380D02*
X117244060Y-47218880D01*
X117244060Y-45519620D02*
X117244060Y-44821120D01*
X115775940Y-46520380D02*
X115775940Y-47218880D01*
X115775940Y-44821120D02*
X115775940Y-45519620D01*
X115773400Y-47259520D02*
X117246600Y-47259520D01*
X117246600Y-44780480D02*
X115773400Y-44780480D01*
G04 #@! TO.C,C77*
X115524060Y-46520380D02*
X115524060Y-47218880D01*
X115524060Y-45519620D02*
X115524060Y-44821120D01*
X114055940Y-46520380D02*
X114055940Y-47218880D01*
X114055940Y-44821120D02*
X114055940Y-45519620D01*
X114053400Y-47259520D02*
X115526600Y-47259520D01*
X115526600Y-44780480D02*
X114053400Y-44780480D01*
G04 #@! TO.C,C75*
X123825940Y-55709620D02*
X123825940Y-55011120D01*
X123825940Y-56710380D02*
X123825940Y-57408880D01*
X125294060Y-55709620D02*
X125294060Y-55011120D01*
X125294060Y-57408880D02*
X125294060Y-56710380D01*
X125296600Y-54970480D02*
X123823400Y-54970480D01*
X123823400Y-57449520D02*
X125296600Y-57449520D01*
G04 #@! TO.C,C74*
X108985940Y-45559620D02*
X108985940Y-44861120D01*
X108985940Y-46560380D02*
X108985940Y-47258880D01*
X110454060Y-45559620D02*
X110454060Y-44861120D01*
X110454060Y-47258880D02*
X110454060Y-46560380D01*
X110456600Y-44820480D02*
X108983400Y-44820480D01*
X108983400Y-47299520D02*
X110456600Y-47299520D01*
G04 #@! TO.C,C73*
X121334060Y-46510380D02*
X121334060Y-47208880D01*
X121334060Y-45509620D02*
X121334060Y-44811120D01*
X119865940Y-46510380D02*
X119865940Y-47208880D01*
X119865940Y-44811120D02*
X119865940Y-45509620D01*
X119863400Y-47249520D02*
X121336600Y-47249520D01*
X121336600Y-44770480D02*
X119863400Y-44770480D01*
G04 #@! TO.C,C69*
X119674060Y-46510380D02*
X119674060Y-47208880D01*
X119674060Y-45509620D02*
X119674060Y-44811120D01*
X118205940Y-46510380D02*
X118205940Y-47208880D01*
X118205940Y-44811120D02*
X118205940Y-45509620D01*
X118203400Y-47249520D02*
X119676600Y-47249520D01*
X119676600Y-44770480D02*
X118203400Y-44770480D01*
G04 #@! TO.C,C68*
X96005940Y-33533620D02*
X96005940Y-32835120D01*
X96005940Y-34534380D02*
X96005940Y-35232880D01*
X97474060Y-33533620D02*
X97474060Y-32835120D01*
X97474060Y-35232880D02*
X97474060Y-34534380D01*
X97476600Y-32794480D02*
X96003400Y-32794480D01*
X96003400Y-35273520D02*
X97476600Y-35273520D01*
G04 #@! TO.C,C67*
X92585940Y-33543620D02*
X92585940Y-32845120D01*
X92585940Y-34544380D02*
X92585940Y-35242880D01*
X94054060Y-33543620D02*
X94054060Y-32845120D01*
X94054060Y-35242880D02*
X94054060Y-34544380D01*
X94056600Y-32804480D02*
X92583400Y-32804480D01*
X92583400Y-35283520D02*
X94056600Y-35283520D01*
G04 #@! TO.C,C66*
X84395940Y-33533620D02*
X84395940Y-32835120D01*
X84395940Y-34534380D02*
X84395940Y-35232880D01*
X85864060Y-33533620D02*
X85864060Y-32835120D01*
X85864060Y-35232880D02*
X85864060Y-34534380D01*
X85866600Y-32794480D02*
X84393400Y-32794480D01*
X84393400Y-35273520D02*
X85866600Y-35273520D01*
G04 #@! TO.C,C64*
X97705940Y-33533620D02*
X97705940Y-32835120D01*
X97705940Y-34534380D02*
X97705940Y-35232880D01*
X99174060Y-33533620D02*
X99174060Y-32835120D01*
X99174060Y-35232880D02*
X99174060Y-34534380D01*
X99176600Y-32794480D02*
X97703400Y-32794480D01*
X97703400Y-35273520D02*
X99176600Y-35273520D01*
G04 #@! TO.C,C63*
X94315940Y-33533620D02*
X94315940Y-32835120D01*
X94315940Y-34534380D02*
X94315940Y-35232880D01*
X95784060Y-33533620D02*
X95784060Y-32835120D01*
X95784060Y-35232880D02*
X95784060Y-34534380D01*
X95786600Y-32794480D02*
X94313400Y-32794480D01*
X94313400Y-35273520D02*
X95786600Y-35273520D01*
G04 #@! TO.C,C62*
X88345940Y-33533620D02*
X88345940Y-32835120D01*
X88345940Y-34534380D02*
X88345940Y-35232880D01*
X89814060Y-33533620D02*
X89814060Y-32835120D01*
X89814060Y-35232880D02*
X89814060Y-34534380D01*
X89816600Y-32794480D02*
X88343400Y-32794480D01*
X88343400Y-35273520D02*
X89816600Y-35273520D01*
G04 #@! TO.C,C61*
X82385940Y-33533620D02*
X82385940Y-32835120D01*
X82385940Y-34534380D02*
X82385940Y-35232880D01*
X83854060Y-33533620D02*
X83854060Y-32835120D01*
X83854060Y-35232880D02*
X83854060Y-34534380D01*
X83856600Y-32794480D02*
X82383400Y-32794480D01*
X82383400Y-35273520D02*
X83856600Y-35273520D01*
G04 #@! TO.C,C59*
X102400380Y-37339940D02*
X103098880Y-37339940D01*
X101399620Y-37339940D02*
X100701120Y-37339940D01*
X102400380Y-38808060D02*
X103098880Y-38808060D01*
X100701120Y-38808060D02*
X101399620Y-38808060D01*
X103139520Y-38810600D02*
X103139520Y-37337400D01*
X100660480Y-37337400D02*
X100660480Y-38810600D01*
G04 #@! TO.C,C58*
X78779620Y-40428060D02*
X78081120Y-40428060D01*
X79780380Y-40428060D02*
X80478880Y-40428060D01*
X78779620Y-38959940D02*
X78081120Y-38959940D01*
X80478880Y-38959940D02*
X79780380Y-38959940D01*
X78040480Y-38957400D02*
X78040480Y-40430600D01*
X80519520Y-40430600D02*
X80519520Y-38957400D01*
G04 #@! TO.C,C57*
X78779620Y-42048060D02*
X78081120Y-42048060D01*
X79780380Y-42048060D02*
X80478880Y-42048060D01*
X78779620Y-40579940D02*
X78081120Y-40579940D01*
X80478880Y-40579940D02*
X79780380Y-40579940D01*
X78040480Y-40577400D02*
X78040480Y-42050600D01*
X80519520Y-42050600D02*
X80519520Y-40577400D01*
G04 #@! TO.C,C54*
X78779620Y-45418060D02*
X78081120Y-45418060D01*
X79780380Y-45418060D02*
X80478880Y-45418060D01*
X78779620Y-43949940D02*
X78081120Y-43949940D01*
X80478880Y-43949940D02*
X79780380Y-43949940D01*
X78040480Y-43947400D02*
X78040480Y-45420600D01*
X80519520Y-45420600D02*
X80519520Y-43947400D01*
G04 #@! TO.C,C53*
X102400380Y-44159940D02*
X103098880Y-44159940D01*
X101399620Y-44159940D02*
X100701120Y-44159940D01*
X102400380Y-45628060D02*
X103098880Y-45628060D01*
X100701120Y-45628060D02*
X101399620Y-45628060D01*
X103139520Y-45630600D02*
X103139520Y-44157400D01*
X100660480Y-44157400D02*
X100660480Y-45630600D01*
G04 #@! TO.C,C51*
X102400380Y-47679940D02*
X103098880Y-47679940D01*
X101399620Y-47679940D02*
X100701120Y-47679940D01*
X102400380Y-49148060D02*
X103098880Y-49148060D01*
X100701120Y-49148060D02*
X101399620Y-49148060D01*
X103139520Y-49150600D02*
X103139520Y-47677400D01*
X100660480Y-47677400D02*
X100660480Y-49150600D01*
G04 #@! TO.C,C50*
X78789620Y-51068060D02*
X78091120Y-51068060D01*
X79790380Y-51068060D02*
X80488880Y-51068060D01*
X78789620Y-49599940D02*
X78091120Y-49599940D01*
X80488880Y-49599940D02*
X79790380Y-49599940D01*
X78050480Y-49597400D02*
X78050480Y-51070600D01*
X80529520Y-51070600D02*
X80529520Y-49597400D01*
G04 #@! TO.C,C48*
X102390380Y-51999940D02*
X103088880Y-51999940D01*
X101389620Y-51999940D02*
X100691120Y-51999940D01*
X102390380Y-53468060D02*
X103088880Y-53468060D01*
X100691120Y-53468060D02*
X101389620Y-53468060D01*
X103129520Y-53470600D02*
X103129520Y-51997400D01*
X100650480Y-51997400D02*
X100650480Y-53470600D01*
G04 #@! TO.C,C46*
X100194060Y-57130380D02*
X100194060Y-57828880D01*
X100194060Y-56129620D02*
X100194060Y-55431120D01*
X98725940Y-57130380D02*
X98725940Y-57828880D01*
X98725940Y-55431120D02*
X98725940Y-56129620D01*
X98723400Y-57869520D02*
X100196600Y-57869520D01*
X100196600Y-55390480D02*
X98723400Y-55390480D01*
G04 #@! TO.C,C45*
X94724060Y-57130380D02*
X94724060Y-57828880D01*
X94724060Y-56129620D02*
X94724060Y-55431120D01*
X93255940Y-57130380D02*
X93255940Y-57828880D01*
X93255940Y-55431120D02*
X93255940Y-56129620D01*
X93253400Y-57869520D02*
X94726600Y-57869520D01*
X94726600Y-55390480D02*
X93253400Y-55390480D01*
G04 #@! TO.C,C44*
X83094060Y-57174380D02*
X83094060Y-57872880D01*
X83094060Y-56173620D02*
X83094060Y-55475120D01*
X81625940Y-57174380D02*
X81625940Y-57872880D01*
X81625940Y-55475120D02*
X81625940Y-56173620D01*
X81623400Y-57913520D02*
X83096600Y-57913520D01*
X83096600Y-55434480D02*
X81623400Y-55434480D01*
G04 #@! TO.C,C42*
X98044060Y-57124380D02*
X98044060Y-57822880D01*
X98044060Y-56123620D02*
X98044060Y-55425120D01*
X96575940Y-57124380D02*
X96575940Y-57822880D01*
X96575940Y-55425120D02*
X96575940Y-56123620D01*
X96573400Y-57863520D02*
X98046600Y-57863520D01*
X98046600Y-55384480D02*
X96573400Y-55384480D01*
G04 #@! TO.C,C41*
X96424060Y-57124380D02*
X96424060Y-57822880D01*
X96424060Y-56123620D02*
X96424060Y-55425120D01*
X94955940Y-57124380D02*
X94955940Y-57822880D01*
X94955940Y-55425120D02*
X94955940Y-56123620D01*
X94953400Y-57863520D02*
X96426600Y-57863520D01*
X96426600Y-55384480D02*
X94953400Y-55384480D01*
G04 #@! TO.C,C40*
X92584060Y-57140380D02*
X92584060Y-57838880D01*
X92584060Y-56139620D02*
X92584060Y-55441120D01*
X91115940Y-57140380D02*
X91115940Y-57838880D01*
X91115940Y-55441120D02*
X91115940Y-56139620D01*
X91113400Y-57879520D02*
X92586600Y-57879520D01*
X92586600Y-55400480D02*
X91113400Y-55400480D01*
G04 #@! TO.C,C39*
X84864060Y-57174380D02*
X84864060Y-57872880D01*
X84864060Y-56173620D02*
X84864060Y-55475120D01*
X83395940Y-57174380D02*
X83395940Y-57872880D01*
X83395940Y-55475120D02*
X83395940Y-56173620D01*
X83393400Y-57913520D02*
X84866600Y-57913520D01*
X84866600Y-55434480D02*
X83393400Y-55434480D01*
G04 #@! TO.C,C9*
X89435940Y-62719620D02*
X89435940Y-62021120D01*
X89435940Y-63720380D02*
X89435940Y-64418880D01*
X90904060Y-62719620D02*
X90904060Y-62021120D01*
X90904060Y-64418880D02*
X90904060Y-63720380D01*
X90906600Y-61980480D02*
X89433400Y-61980480D01*
X89433400Y-64459520D02*
X90906600Y-64459520D01*
G04 #@! TO.C,C10*
X113834060Y-46550380D02*
X113834060Y-47248880D01*
X113834060Y-45549620D02*
X113834060Y-44851120D01*
X112365940Y-46550380D02*
X112365940Y-47248880D01*
X112365940Y-44851120D02*
X112365940Y-45549620D01*
X112363400Y-47289520D02*
X113836600Y-47289520D01*
X113836600Y-44810480D02*
X112363400Y-44810480D01*
G04 #@! TO.C,C11*
X128654060Y-56710380D02*
X128654060Y-57408880D01*
X128654060Y-55709620D02*
X128654060Y-55011120D01*
X127185940Y-56710380D02*
X127185940Y-57408880D01*
X127185940Y-55011120D02*
X127185940Y-55709620D01*
X127183400Y-57449520D02*
X128656600Y-57449520D01*
X128656600Y-54970480D02*
X127183400Y-54970480D01*
G04 #@! TO.C,C12*
X120064060Y-51500380D02*
X120064060Y-52198880D01*
X120064060Y-50499620D02*
X120064060Y-49801120D01*
X118595940Y-51500380D02*
X118595940Y-52198880D01*
X118595940Y-49801120D02*
X118595940Y-50499620D01*
X118593400Y-52239520D02*
X120066600Y-52239520D01*
X120066600Y-49760480D02*
X118593400Y-49760480D01*
G04 #@! TO.C,C13*
X126744060Y-51390380D02*
X126744060Y-52088880D01*
X126744060Y-50389620D02*
X126744060Y-49691120D01*
X125275940Y-51390380D02*
X125275940Y-52088880D01*
X125275940Y-49691120D02*
X125275940Y-50389620D01*
X125273400Y-52129520D02*
X126746600Y-52129520D01*
X126746600Y-49650480D02*
X125273400Y-49650480D01*
G04 #@! TO.C,FB3*
X112154060Y-46550380D02*
X112154060Y-47248880D01*
X112154060Y-45549620D02*
X112154060Y-44851120D01*
X110685940Y-46550380D02*
X110685940Y-47248880D01*
X110685940Y-44851120D02*
X110685940Y-45549620D01*
X110683400Y-47289520D02*
X112156600Y-47289520D01*
X112156600Y-44810480D02*
X110683400Y-44810480D01*
G04 #@! TO.C,C15*
X94775940Y-62623620D02*
X94775940Y-61925120D01*
X94775940Y-63624380D02*
X94775940Y-64322880D01*
X96244060Y-62623620D02*
X96244060Y-61925120D01*
X96244060Y-64322880D02*
X96244060Y-63624380D01*
X96246600Y-61884480D02*
X94773400Y-61884480D01*
X94773400Y-64363520D02*
X96246600Y-64363520D01*
G04 #@! TO.C,C17*
X78779620Y-52738060D02*
X78081120Y-52738060D01*
X79780380Y-52738060D02*
X80478880Y-52738060D01*
X78779620Y-51269940D02*
X78081120Y-51269940D01*
X80478880Y-51269940D02*
X79780380Y-51269940D01*
X78040480Y-51267400D02*
X78040480Y-52740600D01*
X80519520Y-52740600D02*
X80519520Y-51267400D01*
G04 #@! TO.C,C18*
X102400380Y-45919940D02*
X103098880Y-45919940D01*
X101399620Y-45919940D02*
X100701120Y-45919940D01*
X102400380Y-47388060D02*
X103098880Y-47388060D01*
X100701120Y-47388060D02*
X101399620Y-47388060D01*
X103139520Y-47390600D02*
X103139520Y-45917400D01*
X100660480Y-45917400D02*
X100660480Y-47390600D01*
G04 #@! TO.C,C19*
X78789620Y-49308060D02*
X78091120Y-49308060D01*
X79790380Y-49308060D02*
X80488880Y-49308060D01*
X78789620Y-47839940D02*
X78091120Y-47839940D01*
X80488880Y-47839940D02*
X79790380Y-47839940D01*
X78050480Y-47837400D02*
X78050480Y-49310600D01*
X80529520Y-49310600D02*
X80529520Y-47837400D01*
G04 #@! TO.C,C20*
X78779620Y-43758060D02*
X78081120Y-43758060D01*
X79780380Y-43758060D02*
X80478880Y-43758060D01*
X78779620Y-42289940D02*
X78081120Y-42289940D01*
X80478880Y-42289940D02*
X79780380Y-42289940D01*
X78040480Y-42287400D02*
X78040480Y-43760600D01*
X80519520Y-43760600D02*
X80519520Y-42287400D01*
G04 #@! TO.C,C21*
X102400380Y-42419940D02*
X103098880Y-42419940D01*
X101399620Y-42419940D02*
X100701120Y-42419940D01*
X102400380Y-43888060D02*
X103098880Y-43888060D01*
X100701120Y-43888060D02*
X101399620Y-43888060D01*
X103139520Y-43890600D02*
X103139520Y-42417400D01*
X100660480Y-42417400D02*
X100660480Y-43890600D01*
G04 #@! TO.C,C22*
X102390380Y-40769940D02*
X103088880Y-40769940D01*
X101389620Y-40769940D02*
X100691120Y-40769940D01*
X102390380Y-42238060D02*
X103088880Y-42238060D01*
X100691120Y-42238060D02*
X101389620Y-42238060D01*
X103129520Y-42240600D02*
X103129520Y-40767400D01*
X100650480Y-40767400D02*
X100650480Y-42240600D01*
G04 #@! TO.C,R8*
D12*
X46624666Y-66506280D02*
X46794000Y-66228090D01*
X46914952Y-66506280D02*
X46914952Y-65922080D01*
X46721428Y-65922080D01*
X46673047Y-65949900D01*
X46648857Y-65977719D01*
X46624666Y-66033357D01*
X46624666Y-66116814D01*
X46648857Y-66172452D01*
X46673047Y-66200271D01*
X46721428Y-66228090D01*
X46914952Y-66228090D01*
X46334380Y-66172452D02*
X46382761Y-66144633D01*
X46406952Y-66116814D01*
X46431142Y-66061176D01*
X46431142Y-66033357D01*
X46406952Y-65977719D01*
X46382761Y-65949900D01*
X46334380Y-65922080D01*
X46237619Y-65922080D01*
X46189238Y-65949900D01*
X46165047Y-65977719D01*
X46140857Y-66033357D01*
X46140857Y-66061176D01*
X46165047Y-66116814D01*
X46189238Y-66144633D01*
X46237619Y-66172452D01*
X46334380Y-66172452D01*
X46382761Y-66200271D01*
X46406952Y-66228090D01*
X46431142Y-66283728D01*
X46431142Y-66395004D01*
X46406952Y-66450642D01*
X46382761Y-66478461D01*
X46334380Y-66506280D01*
X46237619Y-66506280D01*
X46189238Y-66478461D01*
X46165047Y-66450642D01*
X46140857Y-66395004D01*
X46140857Y-66283728D01*
X46165047Y-66228090D01*
X46189238Y-66200271D01*
X46237619Y-66172452D01*
D13*
X46812142Y-68249809D02*
X47073400Y-68249809D01*
X46942771Y-68249809D02*
X46942771Y-67741809D01*
X46986314Y-67814380D01*
X47029857Y-67862761D01*
X47073400Y-67886952D01*
X46529114Y-67741809D02*
X46485571Y-67741809D01*
X46442028Y-67766000D01*
X46420257Y-67790190D01*
X46398485Y-67838571D01*
X46376714Y-67935333D01*
X46376714Y-68056285D01*
X46398485Y-68153047D01*
X46420257Y-68201428D01*
X46442028Y-68225619D01*
X46485571Y-68249809D01*
X46529114Y-68249809D01*
X46572657Y-68225619D01*
X46594428Y-68201428D01*
X46616200Y-68153047D01*
X46637971Y-68056285D01*
X46637971Y-67935333D01*
X46616200Y-67838571D01*
X46594428Y-67790190D01*
X46572657Y-67766000D01*
X46529114Y-67741809D01*
X46180771Y-68249809D02*
X46180771Y-67741809D01*
X46137228Y-68056285D02*
X46006600Y-68249809D01*
X46006600Y-67911142D02*
X46180771Y-68104666D01*
G04 #@! TO.C,R7*
D12*
X44884666Y-66516280D02*
X45054000Y-66238090D01*
X45174952Y-66516280D02*
X45174952Y-65932080D01*
X44981428Y-65932080D01*
X44933047Y-65959900D01*
X44908857Y-65987719D01*
X44884666Y-66043357D01*
X44884666Y-66126814D01*
X44908857Y-66182452D01*
X44933047Y-66210271D01*
X44981428Y-66238090D01*
X45174952Y-66238090D01*
X44715333Y-65932080D02*
X44376666Y-65932080D01*
X44594380Y-66516280D01*
D13*
X45072142Y-68259809D02*
X45333400Y-68259809D01*
X45202771Y-68259809D02*
X45202771Y-67751809D01*
X45246314Y-67824380D01*
X45289857Y-67872761D01*
X45333400Y-67896952D01*
X44789114Y-67751809D02*
X44745571Y-67751809D01*
X44702028Y-67776000D01*
X44680257Y-67800190D01*
X44658485Y-67848571D01*
X44636714Y-67945333D01*
X44636714Y-68066285D01*
X44658485Y-68163047D01*
X44680257Y-68211428D01*
X44702028Y-68235619D01*
X44745571Y-68259809D01*
X44789114Y-68259809D01*
X44832657Y-68235619D01*
X44854428Y-68211428D01*
X44876200Y-68163047D01*
X44897971Y-68066285D01*
X44897971Y-67945333D01*
X44876200Y-67848571D01*
X44854428Y-67800190D01*
X44832657Y-67776000D01*
X44789114Y-67751809D01*
X44440771Y-68259809D02*
X44440771Y-67751809D01*
X44397228Y-68066285D02*
X44266600Y-68259809D01*
X44266600Y-67921142D02*
X44440771Y-68114666D01*
G04 #@! TO.C,D4*
D11*
X129392380Y-58331904D02*
X128392380Y-58331904D01*
X128392380Y-58570000D01*
X128440000Y-58712857D01*
X128535238Y-58808095D01*
X128630476Y-58855714D01*
X128820952Y-58903333D01*
X128963809Y-58903333D01*
X129154285Y-58855714D01*
X129249523Y-58808095D01*
X129344761Y-58712857D01*
X129392380Y-58570000D01*
X129392380Y-58331904D01*
X128725714Y-59760476D02*
X129392380Y-59760476D01*
X128344761Y-59522380D02*
X129059047Y-59284285D01*
X129059047Y-59903333D01*
G04 #@! TO.C,U15*
X118612380Y-56701904D02*
X119421904Y-56701904D01*
X119517142Y-56749523D01*
X119564761Y-56797142D01*
X119612380Y-56892380D01*
X119612380Y-57082857D01*
X119564761Y-57178095D01*
X119517142Y-57225714D01*
X119421904Y-57273333D01*
X118612380Y-57273333D01*
X119612380Y-58273333D02*
X119612380Y-57701904D01*
X119612380Y-57987619D02*
X118612380Y-57987619D01*
X118755238Y-57892380D01*
X118850476Y-57797142D01*
X118898095Y-57701904D01*
X118612380Y-59178095D02*
X118612380Y-58701904D01*
X119088571Y-58654285D01*
X119040952Y-58701904D01*
X118993333Y-58797142D01*
X118993333Y-59035238D01*
X119040952Y-59130476D01*
X119088571Y-59178095D01*
X119183809Y-59225714D01*
X119421904Y-59225714D01*
X119517142Y-59178095D01*
X119564761Y-59130476D01*
X119612380Y-59035238D01*
X119612380Y-58797142D01*
X119564761Y-58701904D01*
X119517142Y-58654285D01*
G04 #@! TO.C,U12*
X96322380Y-59295904D02*
X97131904Y-59295904D01*
X97227142Y-59343523D01*
X97274761Y-59391142D01*
X97322380Y-59486380D01*
X97322380Y-59676857D01*
X97274761Y-59772095D01*
X97227142Y-59819714D01*
X97131904Y-59867333D01*
X96322380Y-59867333D01*
X97322380Y-60867333D02*
X97322380Y-60295904D01*
X97322380Y-60581619D02*
X96322380Y-60581619D01*
X96465238Y-60486380D01*
X96560476Y-60391142D01*
X96608095Y-60295904D01*
X96417619Y-61248285D02*
X96370000Y-61295904D01*
X96322380Y-61391142D01*
X96322380Y-61629238D01*
X96370000Y-61724476D01*
X96417619Y-61772095D01*
X96512857Y-61819714D01*
X96608095Y-61819714D01*
X96750952Y-61772095D01*
X97322380Y-61200666D01*
X97322380Y-61819714D01*
G04 #@! TO.C,U13*
X105282380Y-62776304D02*
X106091904Y-62776304D01*
X106187142Y-62823923D01*
X106234761Y-62871542D01*
X106282380Y-62966780D01*
X106282380Y-63157257D01*
X106234761Y-63252495D01*
X106187142Y-63300114D01*
X106091904Y-63347733D01*
X105282380Y-63347733D01*
X106282380Y-64347733D02*
X106282380Y-63776304D01*
X106282380Y-64062019D02*
X105282380Y-64062019D01*
X105425238Y-63966780D01*
X105520476Y-63871542D01*
X105568095Y-63776304D01*
X105282380Y-64681066D02*
X105282380Y-65300114D01*
X105663333Y-64966780D01*
X105663333Y-65109638D01*
X105710952Y-65204876D01*
X105758571Y-65252495D01*
X105853809Y-65300114D01*
X106091904Y-65300114D01*
X106187142Y-65252495D01*
X106234761Y-65204876D01*
X106282380Y-65109638D01*
X106282380Y-64823923D01*
X106234761Y-64728685D01*
X106187142Y-64681066D01*
G04 #@! TO.C,U14*
X113232380Y-56721904D02*
X114041904Y-56721904D01*
X114137142Y-56769523D01*
X114184761Y-56817142D01*
X114232380Y-56912380D01*
X114232380Y-57102857D01*
X114184761Y-57198095D01*
X114137142Y-57245714D01*
X114041904Y-57293333D01*
X113232380Y-57293333D01*
X114232380Y-58293333D02*
X114232380Y-57721904D01*
X114232380Y-58007619D02*
X113232380Y-58007619D01*
X113375238Y-57912380D01*
X113470476Y-57817142D01*
X113518095Y-57721904D01*
X113565714Y-59150476D02*
X114232380Y-59150476D01*
X113184761Y-58912380D02*
X113899047Y-58674285D01*
X113899047Y-59293333D01*
G04 #@! TO.C,FB4*
D12*
X126663333Y-54390271D02*
X126832666Y-54390271D01*
X126832666Y-54696280D02*
X126832666Y-54112080D01*
X126590761Y-54112080D01*
X126227904Y-54390271D02*
X126155333Y-54418090D01*
X126131142Y-54445909D01*
X126106952Y-54501547D01*
X126106952Y-54585004D01*
X126131142Y-54640642D01*
X126155333Y-54668461D01*
X126203714Y-54696280D01*
X126397238Y-54696280D01*
X126397238Y-54112080D01*
X126227904Y-54112080D01*
X126179523Y-54139900D01*
X126155333Y-54167719D01*
X126131142Y-54223357D01*
X126131142Y-54278995D01*
X126155333Y-54334633D01*
X126179523Y-54362452D01*
X126227904Y-54390271D01*
X126397238Y-54390271D01*
X125671523Y-54306814D02*
X125671523Y-54696280D01*
X125792476Y-54084261D02*
X125913428Y-54501547D01*
X125598952Y-54501547D01*
G04 #@! TO.C,FB2*
X118023333Y-52736271D02*
X118192666Y-52736271D01*
X118192666Y-53042280D02*
X118192666Y-52458080D01*
X117950761Y-52458080D01*
X117587904Y-52736271D02*
X117515333Y-52764090D01*
X117491142Y-52791909D01*
X117466952Y-52847547D01*
X117466952Y-52931004D01*
X117491142Y-52986642D01*
X117515333Y-53014461D01*
X117563714Y-53042280D01*
X117757238Y-53042280D01*
X117757238Y-52458080D01*
X117587904Y-52458080D01*
X117539523Y-52485900D01*
X117515333Y-52513719D01*
X117491142Y-52569357D01*
X117491142Y-52624995D01*
X117515333Y-52680633D01*
X117539523Y-52708452D01*
X117587904Y-52736271D01*
X117757238Y-52736271D01*
X117273428Y-52513719D02*
X117249238Y-52485900D01*
X117200857Y-52458080D01*
X117079904Y-52458080D01*
X117031523Y-52485900D01*
X117007333Y-52513719D01*
X116983142Y-52569357D01*
X116983142Y-52624995D01*
X117007333Y-52708452D01*
X117297619Y-53042280D01*
X116983142Y-53042280D01*
G04 #@! TO.C,FB1*
X124683333Y-52626271D02*
X124852666Y-52626271D01*
X124852666Y-52932280D02*
X124852666Y-52348080D01*
X124610761Y-52348080D01*
X124247904Y-52626271D02*
X124175333Y-52654090D01*
X124151142Y-52681909D01*
X124126952Y-52737547D01*
X124126952Y-52821004D01*
X124151142Y-52876642D01*
X124175333Y-52904461D01*
X124223714Y-52932280D01*
X124417238Y-52932280D01*
X124417238Y-52348080D01*
X124247904Y-52348080D01*
X124199523Y-52375900D01*
X124175333Y-52403719D01*
X124151142Y-52459357D01*
X124151142Y-52514995D01*
X124175333Y-52570633D01*
X124199523Y-52598452D01*
X124247904Y-52626271D01*
X124417238Y-52626271D01*
X123643142Y-52932280D02*
X123933428Y-52932280D01*
X123788285Y-52932280D02*
X123788285Y-52348080D01*
X123836666Y-52431538D01*
X123885047Y-52487176D01*
X123933428Y-52514995D01*
G04 #@! TO.C,R18*
X91566571Y-32468280D02*
X91735904Y-32190090D01*
X91856857Y-32468280D02*
X91856857Y-31884080D01*
X91663333Y-31884080D01*
X91614952Y-31911900D01*
X91590761Y-31939719D01*
X91566571Y-31995357D01*
X91566571Y-32078814D01*
X91590761Y-32134452D01*
X91614952Y-32162271D01*
X91663333Y-32190090D01*
X91856857Y-32190090D01*
X91082761Y-32468280D02*
X91373047Y-32468280D01*
X91227904Y-32468280D02*
X91227904Y-31884080D01*
X91276285Y-31967538D01*
X91324666Y-32023176D01*
X91373047Y-32050995D01*
X90792476Y-32134452D02*
X90840857Y-32106633D01*
X90865047Y-32078814D01*
X90889238Y-32023176D01*
X90889238Y-31995357D01*
X90865047Y-31939719D01*
X90840857Y-31911900D01*
X90792476Y-31884080D01*
X90695714Y-31884080D01*
X90647333Y-31911900D01*
X90623142Y-31939719D01*
X90598952Y-31995357D01*
X90598952Y-32023176D01*
X90623142Y-32078814D01*
X90647333Y-32106633D01*
X90695714Y-32134452D01*
X90792476Y-32134452D01*
X90840857Y-32162271D01*
X90865047Y-32190090D01*
X90889238Y-32245728D01*
X90889238Y-32357004D01*
X90865047Y-32412642D01*
X90840857Y-32440461D01*
X90792476Y-32468280D01*
X90695714Y-32468280D01*
X90647333Y-32440461D01*
X90623142Y-32412642D01*
X90598952Y-32357004D01*
X90598952Y-32245728D01*
X90623142Y-32190090D01*
X90647333Y-32162271D01*
X90695714Y-32134452D01*
D13*
X91502142Y-34263809D02*
X91763400Y-34263809D01*
X91632771Y-34263809D02*
X91632771Y-33755809D01*
X91676314Y-33828380D01*
X91719857Y-33876761D01*
X91763400Y-33900952D01*
X91219114Y-33755809D02*
X91175571Y-33755809D01*
X91132028Y-33780000D01*
X91110257Y-33804190D01*
X91088485Y-33852571D01*
X91066714Y-33949333D01*
X91066714Y-34070285D01*
X91088485Y-34167047D01*
X91110257Y-34215428D01*
X91132028Y-34239619D01*
X91175571Y-34263809D01*
X91219114Y-34263809D01*
X91262657Y-34239619D01*
X91284428Y-34215428D01*
X91306200Y-34167047D01*
X91327971Y-34070285D01*
X91327971Y-33949333D01*
X91306200Y-33852571D01*
X91284428Y-33804190D01*
X91262657Y-33780000D01*
X91219114Y-33755809D01*
X90870771Y-34263809D02*
X90870771Y-33755809D01*
X90827228Y-34070285D02*
X90696600Y-34263809D01*
X90696600Y-33925142D02*
X90870771Y-34118666D01*
G04 #@! TO.C,R17*
D12*
X88396571Y-58744280D02*
X88565904Y-58466090D01*
X88686857Y-58744280D02*
X88686857Y-58160080D01*
X88493333Y-58160080D01*
X88444952Y-58187900D01*
X88420761Y-58215719D01*
X88396571Y-58271357D01*
X88396571Y-58354814D01*
X88420761Y-58410452D01*
X88444952Y-58438271D01*
X88493333Y-58466090D01*
X88686857Y-58466090D01*
X87912761Y-58744280D02*
X88203047Y-58744280D01*
X88057904Y-58744280D02*
X88057904Y-58160080D01*
X88106285Y-58243538D01*
X88154666Y-58299176D01*
X88203047Y-58326995D01*
X87743428Y-58160080D02*
X87404761Y-58160080D01*
X87622476Y-58744280D01*
D13*
X88382142Y-56899809D02*
X88643400Y-56899809D01*
X88512771Y-56899809D02*
X88512771Y-56391809D01*
X88556314Y-56464380D01*
X88599857Y-56512761D01*
X88643400Y-56536952D01*
X88099114Y-56391809D02*
X88055571Y-56391809D01*
X88012028Y-56416000D01*
X87990257Y-56440190D01*
X87968485Y-56488571D01*
X87946714Y-56585333D01*
X87946714Y-56706285D01*
X87968485Y-56803047D01*
X87990257Y-56851428D01*
X88012028Y-56875619D01*
X88055571Y-56899809D01*
X88099114Y-56899809D01*
X88142657Y-56875619D01*
X88164428Y-56851428D01*
X88186200Y-56803047D01*
X88207971Y-56706285D01*
X88207971Y-56585333D01*
X88186200Y-56488571D01*
X88164428Y-56440190D01*
X88142657Y-56416000D01*
X88099114Y-56391809D01*
X87750771Y-56899809D02*
X87750771Y-56391809D01*
X87707228Y-56706285D02*
X87576600Y-56899809D01*
X87576600Y-56561142D02*
X87750771Y-56754666D01*
G04 #@! TO.C,R16*
D12*
X86756571Y-58704280D02*
X86925904Y-58426090D01*
X87046857Y-58704280D02*
X87046857Y-58120080D01*
X86853333Y-58120080D01*
X86804952Y-58147900D01*
X86780761Y-58175719D01*
X86756571Y-58231357D01*
X86756571Y-58314814D01*
X86780761Y-58370452D01*
X86804952Y-58398271D01*
X86853333Y-58426090D01*
X87046857Y-58426090D01*
X86272761Y-58704280D02*
X86563047Y-58704280D01*
X86417904Y-58704280D02*
X86417904Y-58120080D01*
X86466285Y-58203538D01*
X86514666Y-58259176D01*
X86563047Y-58286995D01*
X85837333Y-58120080D02*
X85934095Y-58120080D01*
X85982476Y-58147900D01*
X86006666Y-58175719D01*
X86055047Y-58259176D01*
X86079238Y-58370452D01*
X86079238Y-58593004D01*
X86055047Y-58648642D01*
X86030857Y-58676461D01*
X85982476Y-58704280D01*
X85885714Y-58704280D01*
X85837333Y-58676461D01*
X85813142Y-58648642D01*
X85788952Y-58593004D01*
X85788952Y-58453909D01*
X85813142Y-58398271D01*
X85837333Y-58370452D01*
X85885714Y-58342633D01*
X85982476Y-58342633D01*
X86030857Y-58370452D01*
X86055047Y-58398271D01*
X86079238Y-58453909D01*
D13*
X86732142Y-56899809D02*
X86993400Y-56899809D01*
X86862771Y-56899809D02*
X86862771Y-56391809D01*
X86906314Y-56464380D01*
X86949857Y-56512761D01*
X86993400Y-56536952D01*
X86449114Y-56391809D02*
X86405571Y-56391809D01*
X86362028Y-56416000D01*
X86340257Y-56440190D01*
X86318485Y-56488571D01*
X86296714Y-56585333D01*
X86296714Y-56706285D01*
X86318485Y-56803047D01*
X86340257Y-56851428D01*
X86362028Y-56875619D01*
X86405571Y-56899809D01*
X86449114Y-56899809D01*
X86492657Y-56875619D01*
X86514428Y-56851428D01*
X86536200Y-56803047D01*
X86557971Y-56706285D01*
X86557971Y-56585333D01*
X86536200Y-56488571D01*
X86514428Y-56440190D01*
X86492657Y-56416000D01*
X86449114Y-56391809D01*
X86100771Y-56899809D02*
X86100771Y-56391809D01*
X86057228Y-56706285D02*
X85926600Y-56899809D01*
X85926600Y-56561142D02*
X86100771Y-56754666D01*
G04 #@! TO.C,C108*
D12*
X96098476Y-68598642D02*
X96122666Y-68626461D01*
X96195238Y-68654280D01*
X96243619Y-68654280D01*
X96316190Y-68626461D01*
X96364571Y-68570823D01*
X96388761Y-68515185D01*
X96412952Y-68403909D01*
X96412952Y-68320452D01*
X96388761Y-68209176D01*
X96364571Y-68153538D01*
X96316190Y-68097900D01*
X96243619Y-68070080D01*
X96195238Y-68070080D01*
X96122666Y-68097900D01*
X96098476Y-68125719D01*
X95614666Y-68654280D02*
X95904952Y-68654280D01*
X95759809Y-68654280D02*
X95759809Y-68070080D01*
X95808190Y-68153538D01*
X95856571Y-68209176D01*
X95904952Y-68236995D01*
X95300190Y-68070080D02*
X95251809Y-68070080D01*
X95203428Y-68097900D01*
X95179238Y-68125719D01*
X95155047Y-68181357D01*
X95130857Y-68292633D01*
X95130857Y-68431728D01*
X95155047Y-68543004D01*
X95179238Y-68598642D01*
X95203428Y-68626461D01*
X95251809Y-68654280D01*
X95300190Y-68654280D01*
X95348571Y-68626461D01*
X95372761Y-68598642D01*
X95396952Y-68543004D01*
X95421142Y-68431728D01*
X95421142Y-68292633D01*
X95396952Y-68181357D01*
X95372761Y-68125719D01*
X95348571Y-68097900D01*
X95300190Y-68070080D01*
X94840571Y-68320452D02*
X94888952Y-68292633D01*
X94913142Y-68264814D01*
X94937333Y-68209176D01*
X94937333Y-68181357D01*
X94913142Y-68125719D01*
X94888952Y-68097900D01*
X94840571Y-68070080D01*
X94743809Y-68070080D01*
X94695428Y-68097900D01*
X94671238Y-68125719D01*
X94647047Y-68181357D01*
X94647047Y-68209176D01*
X94671238Y-68264814D01*
X94695428Y-68292633D01*
X94743809Y-68320452D01*
X94840571Y-68320452D01*
X94888952Y-68348271D01*
X94913142Y-68376090D01*
X94937333Y-68431728D01*
X94937333Y-68543004D01*
X94913142Y-68598642D01*
X94888952Y-68626461D01*
X94840571Y-68654280D01*
X94743809Y-68654280D01*
X94695428Y-68626461D01*
X94671238Y-68598642D01*
X94647047Y-68543004D01*
X94647047Y-68431728D01*
X94671238Y-68376090D01*
X94695428Y-68348271D01*
X94743809Y-68320452D01*
D13*
X95803914Y-66859809D02*
X96065171Y-66859809D01*
X95934542Y-66859809D02*
X95934542Y-66351809D01*
X95978085Y-66424380D01*
X96021628Y-66472761D01*
X96065171Y-66496952D01*
X95520885Y-66351809D02*
X95477342Y-66351809D01*
X95433800Y-66376000D01*
X95412028Y-66400190D01*
X95390257Y-66448571D01*
X95368485Y-66545333D01*
X95368485Y-66666285D01*
X95390257Y-66763047D01*
X95412028Y-66811428D01*
X95433800Y-66835619D01*
X95477342Y-66859809D01*
X95520885Y-66859809D01*
X95564428Y-66835619D01*
X95586200Y-66811428D01*
X95607971Y-66763047D01*
X95629742Y-66666285D01*
X95629742Y-66545333D01*
X95607971Y-66448571D01*
X95586200Y-66400190D01*
X95564428Y-66376000D01*
X95520885Y-66351809D01*
X94976600Y-66521142D02*
X94976600Y-66859809D01*
X95172542Y-66521142D02*
X95172542Y-66787238D01*
X95150771Y-66835619D01*
X95107228Y-66859809D01*
X95041914Y-66859809D01*
X94998371Y-66835619D01*
X94976600Y-66811428D01*
G04 #@! TO.C,C49*
D12*
X103848642Y-36163428D02*
X103876461Y-36139238D01*
X103904280Y-36066666D01*
X103904280Y-36018285D01*
X103876461Y-35945714D01*
X103820823Y-35897333D01*
X103765185Y-35873142D01*
X103653909Y-35848952D01*
X103570452Y-35848952D01*
X103459176Y-35873142D01*
X103403538Y-35897333D01*
X103347900Y-35945714D01*
X103320080Y-36018285D01*
X103320080Y-36066666D01*
X103347900Y-36139238D01*
X103375719Y-36163428D01*
X103514814Y-36598857D02*
X103904280Y-36598857D01*
X103292261Y-36477904D02*
X103709547Y-36356952D01*
X103709547Y-36671428D01*
X103904280Y-36889142D02*
X103904280Y-36985904D01*
X103876461Y-37034285D01*
X103848642Y-37058476D01*
X103765185Y-37106857D01*
X103653909Y-37131047D01*
X103431357Y-37131047D01*
X103375719Y-37106857D01*
X103347900Y-37082666D01*
X103320080Y-37034285D01*
X103320080Y-36937523D01*
X103347900Y-36889142D01*
X103375719Y-36864952D01*
X103431357Y-36840761D01*
X103570452Y-36840761D01*
X103626090Y-36864952D01*
X103653909Y-36889142D01*
X103681728Y-36937523D01*
X103681728Y-37034285D01*
X103653909Y-37082666D01*
X103626090Y-37106857D01*
X103570452Y-37131047D01*
D13*
X102129809Y-36136085D02*
X102129809Y-35874828D01*
X102129809Y-36005457D02*
X101621809Y-36005457D01*
X101694380Y-35961914D01*
X101742761Y-35918371D01*
X101766952Y-35874828D01*
X101621809Y-36419114D02*
X101621809Y-36462657D01*
X101646000Y-36506200D01*
X101670190Y-36527971D01*
X101718571Y-36549742D01*
X101815333Y-36571514D01*
X101936285Y-36571514D01*
X102033047Y-36549742D01*
X102081428Y-36527971D01*
X102105619Y-36506200D01*
X102129809Y-36462657D01*
X102129809Y-36419114D01*
X102105619Y-36375571D01*
X102081428Y-36353800D01*
X102033047Y-36332028D01*
X101936285Y-36310257D01*
X101815333Y-36310257D01*
X101718571Y-36332028D01*
X101670190Y-36353800D01*
X101646000Y-36375571D01*
X101621809Y-36419114D01*
X101791142Y-36963400D02*
X102129809Y-36963400D01*
X101791142Y-36767457D02*
X102057238Y-36767457D01*
X102105619Y-36789228D01*
X102129809Y-36832771D01*
X102129809Y-36898085D01*
X102105619Y-36941628D01*
X102081428Y-36963400D01*
G04 #@! TO.C,C101*
D12*
X77728642Y-45935523D02*
X77756461Y-45911333D01*
X77784280Y-45838761D01*
X77784280Y-45790380D01*
X77756461Y-45717809D01*
X77700823Y-45669428D01*
X77645185Y-45645238D01*
X77533909Y-45621047D01*
X77450452Y-45621047D01*
X77339176Y-45645238D01*
X77283538Y-45669428D01*
X77227900Y-45717809D01*
X77200080Y-45790380D01*
X77200080Y-45838761D01*
X77227900Y-45911333D01*
X77255719Y-45935523D01*
X77784280Y-46419333D02*
X77784280Y-46129047D01*
X77784280Y-46274190D02*
X77200080Y-46274190D01*
X77283538Y-46225809D01*
X77339176Y-46177428D01*
X77366995Y-46129047D01*
X77200080Y-46733809D02*
X77200080Y-46782190D01*
X77227900Y-46830571D01*
X77255719Y-46854761D01*
X77311357Y-46878952D01*
X77422633Y-46903142D01*
X77561728Y-46903142D01*
X77673004Y-46878952D01*
X77728642Y-46854761D01*
X77756461Y-46830571D01*
X77784280Y-46782190D01*
X77784280Y-46733809D01*
X77756461Y-46685428D01*
X77728642Y-46661238D01*
X77673004Y-46637047D01*
X77561728Y-46612857D01*
X77422633Y-46612857D01*
X77311357Y-46637047D01*
X77255719Y-46661238D01*
X77227900Y-46685428D01*
X77200080Y-46733809D01*
X77784280Y-47386952D02*
X77784280Y-47096666D01*
X77784280Y-47241809D02*
X77200080Y-47241809D01*
X77283538Y-47193428D01*
X77339176Y-47145047D01*
X77366995Y-47096666D01*
D13*
X79011809Y-46018828D02*
X79011809Y-46062371D01*
X79036000Y-46105914D01*
X79060190Y-46127685D01*
X79108571Y-46149457D01*
X79205333Y-46171228D01*
X79326285Y-46171228D01*
X79423047Y-46149457D01*
X79471428Y-46127685D01*
X79495619Y-46105914D01*
X79519809Y-46062371D01*
X79519809Y-46018828D01*
X79495619Y-45975285D01*
X79471428Y-45953514D01*
X79423047Y-45931742D01*
X79326285Y-45909971D01*
X79205333Y-45909971D01*
X79108571Y-45931742D01*
X79060190Y-45953514D01*
X79036000Y-45975285D01*
X79011809Y-46018828D01*
X79471428Y-46367171D02*
X79495619Y-46388942D01*
X79519809Y-46367171D01*
X79495619Y-46345400D01*
X79471428Y-46367171D01*
X79519809Y-46367171D01*
X79519809Y-46824371D02*
X79519809Y-46563114D01*
X79519809Y-46693742D02*
X79011809Y-46693742D01*
X79084380Y-46650200D01*
X79132761Y-46606657D01*
X79156952Y-46563114D01*
X79181142Y-47216257D02*
X79519809Y-47216257D01*
X79181142Y-47020314D02*
X79447238Y-47020314D01*
X79495619Y-47042085D01*
X79519809Y-47085628D01*
X79519809Y-47150942D01*
X79495619Y-47194485D01*
X79471428Y-47216257D01*
G04 #@! TO.C,C99*
D12*
X103908642Y-50747428D02*
X103936461Y-50723238D01*
X103964280Y-50650666D01*
X103964280Y-50602285D01*
X103936461Y-50529714D01*
X103880823Y-50481333D01*
X103825185Y-50457142D01*
X103713909Y-50432952D01*
X103630452Y-50432952D01*
X103519176Y-50457142D01*
X103463538Y-50481333D01*
X103407900Y-50529714D01*
X103380080Y-50602285D01*
X103380080Y-50650666D01*
X103407900Y-50723238D01*
X103435719Y-50747428D01*
X103964280Y-50989333D02*
X103964280Y-51086095D01*
X103936461Y-51134476D01*
X103908642Y-51158666D01*
X103825185Y-51207047D01*
X103713909Y-51231238D01*
X103491357Y-51231238D01*
X103435719Y-51207047D01*
X103407900Y-51182857D01*
X103380080Y-51134476D01*
X103380080Y-51037714D01*
X103407900Y-50989333D01*
X103435719Y-50965142D01*
X103491357Y-50940952D01*
X103630452Y-50940952D01*
X103686090Y-50965142D01*
X103713909Y-50989333D01*
X103741728Y-51037714D01*
X103741728Y-51134476D01*
X103713909Y-51182857D01*
X103686090Y-51207047D01*
X103630452Y-51231238D01*
X103964280Y-51473142D02*
X103964280Y-51569904D01*
X103936461Y-51618285D01*
X103908642Y-51642476D01*
X103825185Y-51690857D01*
X103713909Y-51715047D01*
X103491357Y-51715047D01*
X103435719Y-51690857D01*
X103407900Y-51666666D01*
X103380080Y-51618285D01*
X103380080Y-51521523D01*
X103407900Y-51473142D01*
X103435719Y-51448952D01*
X103491357Y-51424761D01*
X103630452Y-51424761D01*
X103686090Y-51448952D01*
X103713909Y-51473142D01*
X103741728Y-51521523D01*
X103741728Y-51618285D01*
X103713909Y-51666666D01*
X103686090Y-51690857D01*
X103630452Y-51715047D01*
D13*
X101611809Y-50518828D02*
X101611809Y-50562371D01*
X101636000Y-50605914D01*
X101660190Y-50627685D01*
X101708571Y-50649457D01*
X101805333Y-50671228D01*
X101926285Y-50671228D01*
X102023047Y-50649457D01*
X102071428Y-50627685D01*
X102095619Y-50605914D01*
X102119809Y-50562371D01*
X102119809Y-50518828D01*
X102095619Y-50475285D01*
X102071428Y-50453514D01*
X102023047Y-50431742D01*
X101926285Y-50409971D01*
X101805333Y-50409971D01*
X101708571Y-50431742D01*
X101660190Y-50453514D01*
X101636000Y-50475285D01*
X101611809Y-50518828D01*
X102071428Y-50867171D02*
X102095619Y-50888942D01*
X102119809Y-50867171D01*
X102095619Y-50845400D01*
X102071428Y-50867171D01*
X102119809Y-50867171D01*
X102119809Y-51324371D02*
X102119809Y-51063114D01*
X102119809Y-51193742D02*
X101611809Y-51193742D01*
X101684380Y-51150200D01*
X101732761Y-51106657D01*
X101756952Y-51063114D01*
X101781142Y-51716257D02*
X102119809Y-51716257D01*
X101781142Y-51520314D02*
X102047238Y-51520314D01*
X102095619Y-51542085D01*
X102119809Y-51585628D01*
X102119809Y-51650942D01*
X102095619Y-51694485D01*
X102071428Y-51716257D01*
G04 #@! TO.C,C98*
D12*
X116430642Y-54253428D02*
X116458461Y-54229238D01*
X116486280Y-54156666D01*
X116486280Y-54108285D01*
X116458461Y-54035714D01*
X116402823Y-53987333D01*
X116347185Y-53963142D01*
X116235909Y-53938952D01*
X116152452Y-53938952D01*
X116041176Y-53963142D01*
X115985538Y-53987333D01*
X115929900Y-54035714D01*
X115902080Y-54108285D01*
X115902080Y-54156666D01*
X115929900Y-54229238D01*
X115957719Y-54253428D01*
X116486280Y-54495333D02*
X116486280Y-54592095D01*
X116458461Y-54640476D01*
X116430642Y-54664666D01*
X116347185Y-54713047D01*
X116235909Y-54737238D01*
X116013357Y-54737238D01*
X115957719Y-54713047D01*
X115929900Y-54688857D01*
X115902080Y-54640476D01*
X115902080Y-54543714D01*
X115929900Y-54495333D01*
X115957719Y-54471142D01*
X116013357Y-54446952D01*
X116152452Y-54446952D01*
X116208090Y-54471142D01*
X116235909Y-54495333D01*
X116263728Y-54543714D01*
X116263728Y-54640476D01*
X116235909Y-54688857D01*
X116208090Y-54713047D01*
X116152452Y-54737238D01*
X116152452Y-55027523D02*
X116124633Y-54979142D01*
X116096814Y-54954952D01*
X116041176Y-54930761D01*
X116013357Y-54930761D01*
X115957719Y-54954952D01*
X115929900Y-54979142D01*
X115902080Y-55027523D01*
X115902080Y-55124285D01*
X115929900Y-55172666D01*
X115957719Y-55196857D01*
X116013357Y-55221047D01*
X116041176Y-55221047D01*
X116096814Y-55196857D01*
X116124633Y-55172666D01*
X116152452Y-55124285D01*
X116152452Y-55027523D01*
X116180271Y-54979142D01*
X116208090Y-54954952D01*
X116263728Y-54930761D01*
X116375004Y-54930761D01*
X116430642Y-54954952D01*
X116458461Y-54979142D01*
X116486280Y-55027523D01*
X116486280Y-55124285D01*
X116458461Y-55172666D01*
X116430642Y-55196857D01*
X116375004Y-55221047D01*
X116263728Y-55221047D01*
X116208090Y-55196857D01*
X116180271Y-55172666D01*
X116152452Y-55124285D01*
D13*
X118229809Y-54503800D02*
X118229809Y-54242542D01*
X118229809Y-54373171D02*
X117721809Y-54373171D01*
X117794380Y-54329628D01*
X117842761Y-54286085D01*
X117866952Y-54242542D01*
X117891142Y-54895685D02*
X118229809Y-54895685D01*
X117891142Y-54699742D02*
X118157238Y-54699742D01*
X118205619Y-54721514D01*
X118229809Y-54765057D01*
X118229809Y-54830371D01*
X118205619Y-54873914D01*
X118181428Y-54895685D01*
G04 #@! TO.C,C97*
D12*
X105378642Y-59507428D02*
X105406461Y-59483238D01*
X105434280Y-59410666D01*
X105434280Y-59362285D01*
X105406461Y-59289714D01*
X105350823Y-59241333D01*
X105295185Y-59217142D01*
X105183909Y-59192952D01*
X105100452Y-59192952D01*
X104989176Y-59217142D01*
X104933538Y-59241333D01*
X104877900Y-59289714D01*
X104850080Y-59362285D01*
X104850080Y-59410666D01*
X104877900Y-59483238D01*
X104905719Y-59507428D01*
X105434280Y-59749333D02*
X105434280Y-59846095D01*
X105406461Y-59894476D01*
X105378642Y-59918666D01*
X105295185Y-59967047D01*
X105183909Y-59991238D01*
X104961357Y-59991238D01*
X104905719Y-59967047D01*
X104877900Y-59942857D01*
X104850080Y-59894476D01*
X104850080Y-59797714D01*
X104877900Y-59749333D01*
X104905719Y-59725142D01*
X104961357Y-59700952D01*
X105100452Y-59700952D01*
X105156090Y-59725142D01*
X105183909Y-59749333D01*
X105211728Y-59797714D01*
X105211728Y-59894476D01*
X105183909Y-59942857D01*
X105156090Y-59967047D01*
X105100452Y-59991238D01*
X104850080Y-60160571D02*
X104850080Y-60499238D01*
X105434280Y-60281523D01*
D13*
X103499809Y-59767800D02*
X103499809Y-59506542D01*
X103499809Y-59637171D02*
X102991809Y-59637171D01*
X103064380Y-59593628D01*
X103112761Y-59550085D01*
X103136952Y-59506542D01*
X103161142Y-60159685D02*
X103499809Y-60159685D01*
X103161142Y-59963742D02*
X103427238Y-59963742D01*
X103475619Y-59985514D01*
X103499809Y-60029057D01*
X103499809Y-60094371D01*
X103475619Y-60137914D01*
X103451428Y-60159685D01*
G04 #@! TO.C,C96*
D12*
X101238642Y-59367428D02*
X101266461Y-59343238D01*
X101294280Y-59270666D01*
X101294280Y-59222285D01*
X101266461Y-59149714D01*
X101210823Y-59101333D01*
X101155185Y-59077142D01*
X101043909Y-59052952D01*
X100960452Y-59052952D01*
X100849176Y-59077142D01*
X100793538Y-59101333D01*
X100737900Y-59149714D01*
X100710080Y-59222285D01*
X100710080Y-59270666D01*
X100737900Y-59343238D01*
X100765719Y-59367428D01*
X101294280Y-59609333D02*
X101294280Y-59706095D01*
X101266461Y-59754476D01*
X101238642Y-59778666D01*
X101155185Y-59827047D01*
X101043909Y-59851238D01*
X100821357Y-59851238D01*
X100765719Y-59827047D01*
X100737900Y-59802857D01*
X100710080Y-59754476D01*
X100710080Y-59657714D01*
X100737900Y-59609333D01*
X100765719Y-59585142D01*
X100821357Y-59560952D01*
X100960452Y-59560952D01*
X101016090Y-59585142D01*
X101043909Y-59609333D01*
X101071728Y-59657714D01*
X101071728Y-59754476D01*
X101043909Y-59802857D01*
X101016090Y-59827047D01*
X100960452Y-59851238D01*
X100710080Y-60286666D02*
X100710080Y-60189904D01*
X100737900Y-60141523D01*
X100765719Y-60117333D01*
X100849176Y-60068952D01*
X100960452Y-60044761D01*
X101183004Y-60044761D01*
X101238642Y-60068952D01*
X101266461Y-60093142D01*
X101294280Y-60141523D01*
X101294280Y-60238285D01*
X101266461Y-60286666D01*
X101238642Y-60310857D01*
X101183004Y-60335047D01*
X101043909Y-60335047D01*
X100988271Y-60310857D01*
X100960452Y-60286666D01*
X100932633Y-60238285D01*
X100932633Y-60141523D01*
X100960452Y-60093142D01*
X100988271Y-60068952D01*
X101043909Y-60044761D01*
D13*
X99389809Y-59707800D02*
X99389809Y-59446542D01*
X99389809Y-59577171D02*
X98881809Y-59577171D01*
X98954380Y-59533628D01*
X99002761Y-59490085D01*
X99026952Y-59446542D01*
X99051142Y-60099685D02*
X99389809Y-60099685D01*
X99051142Y-59903742D02*
X99317238Y-59903742D01*
X99365619Y-59925514D01*
X99389809Y-59969057D01*
X99389809Y-60034371D01*
X99365619Y-60077914D01*
X99341428Y-60099685D01*
G04 #@! TO.C,C94*
D12*
X101796642Y-66547428D02*
X101824461Y-66523238D01*
X101852280Y-66450666D01*
X101852280Y-66402285D01*
X101824461Y-66329714D01*
X101768823Y-66281333D01*
X101713185Y-66257142D01*
X101601909Y-66232952D01*
X101518452Y-66232952D01*
X101407176Y-66257142D01*
X101351538Y-66281333D01*
X101295900Y-66329714D01*
X101268080Y-66402285D01*
X101268080Y-66450666D01*
X101295900Y-66523238D01*
X101323719Y-66547428D01*
X101852280Y-66789333D02*
X101852280Y-66886095D01*
X101824461Y-66934476D01*
X101796642Y-66958666D01*
X101713185Y-67007047D01*
X101601909Y-67031238D01*
X101379357Y-67031238D01*
X101323719Y-67007047D01*
X101295900Y-66982857D01*
X101268080Y-66934476D01*
X101268080Y-66837714D01*
X101295900Y-66789333D01*
X101323719Y-66765142D01*
X101379357Y-66740952D01*
X101518452Y-66740952D01*
X101574090Y-66765142D01*
X101601909Y-66789333D01*
X101629728Y-66837714D01*
X101629728Y-66934476D01*
X101601909Y-66982857D01*
X101574090Y-67007047D01*
X101518452Y-67031238D01*
X101462814Y-67466666D02*
X101852280Y-67466666D01*
X101240261Y-67345714D02*
X101657547Y-67224761D01*
X101657547Y-67539238D01*
D13*
X100039809Y-66797800D02*
X100039809Y-66536542D01*
X100039809Y-66667171D02*
X99531809Y-66667171D01*
X99604380Y-66623628D01*
X99652761Y-66580085D01*
X99676952Y-66536542D01*
X99701142Y-67189685D02*
X100039809Y-67189685D01*
X99701142Y-66993742D02*
X99967238Y-66993742D01*
X100015619Y-67015514D01*
X100039809Y-67059057D01*
X100039809Y-67124371D01*
X100015619Y-67167914D01*
X99991428Y-67189685D01*
G04 #@! TO.C,C92*
D12*
X118526571Y-62818642D02*
X118550761Y-62846461D01*
X118623333Y-62874280D01*
X118671714Y-62874280D01*
X118744285Y-62846461D01*
X118792666Y-62790823D01*
X118816857Y-62735185D01*
X118841047Y-62623909D01*
X118841047Y-62540452D01*
X118816857Y-62429176D01*
X118792666Y-62373538D01*
X118744285Y-62317900D01*
X118671714Y-62290080D01*
X118623333Y-62290080D01*
X118550761Y-62317900D01*
X118526571Y-62345719D01*
X118284666Y-62874280D02*
X118187904Y-62874280D01*
X118139523Y-62846461D01*
X118115333Y-62818642D01*
X118066952Y-62735185D01*
X118042761Y-62623909D01*
X118042761Y-62401357D01*
X118066952Y-62345719D01*
X118091142Y-62317900D01*
X118139523Y-62290080D01*
X118236285Y-62290080D01*
X118284666Y-62317900D01*
X118308857Y-62345719D01*
X118333047Y-62401357D01*
X118333047Y-62540452D01*
X118308857Y-62596090D01*
X118284666Y-62623909D01*
X118236285Y-62651728D01*
X118139523Y-62651728D01*
X118091142Y-62623909D01*
X118066952Y-62596090D01*
X118042761Y-62540452D01*
X117849238Y-62345719D02*
X117825047Y-62317900D01*
X117776666Y-62290080D01*
X117655714Y-62290080D01*
X117607333Y-62317900D01*
X117583142Y-62345719D01*
X117558952Y-62401357D01*
X117558952Y-62456995D01*
X117583142Y-62540452D01*
X117873428Y-62874280D01*
X117558952Y-62874280D01*
D13*
X118946200Y-61039809D02*
X119207457Y-61039809D01*
X119076828Y-61039809D02*
X119076828Y-60531809D01*
X119120371Y-60604380D01*
X119163914Y-60652761D01*
X119207457Y-60676952D01*
X118554314Y-60701142D02*
X118554314Y-61039809D01*
X118750257Y-60701142D02*
X118750257Y-60967238D01*
X118728485Y-61015619D01*
X118684942Y-61039809D01*
X118619628Y-61039809D01*
X118576085Y-61015619D01*
X118554314Y-60991428D01*
G04 #@! TO.C,C91*
D12*
X106026642Y-66547428D02*
X106054461Y-66523238D01*
X106082280Y-66450666D01*
X106082280Y-66402285D01*
X106054461Y-66329714D01*
X105998823Y-66281333D01*
X105943185Y-66257142D01*
X105831909Y-66232952D01*
X105748452Y-66232952D01*
X105637176Y-66257142D01*
X105581538Y-66281333D01*
X105525900Y-66329714D01*
X105498080Y-66402285D01*
X105498080Y-66450666D01*
X105525900Y-66523238D01*
X105553719Y-66547428D01*
X106082280Y-66789333D02*
X106082280Y-66886095D01*
X106054461Y-66934476D01*
X106026642Y-66958666D01*
X105943185Y-67007047D01*
X105831909Y-67031238D01*
X105609357Y-67031238D01*
X105553719Y-67007047D01*
X105525900Y-66982857D01*
X105498080Y-66934476D01*
X105498080Y-66837714D01*
X105525900Y-66789333D01*
X105553719Y-66765142D01*
X105609357Y-66740952D01*
X105748452Y-66740952D01*
X105804090Y-66765142D01*
X105831909Y-66789333D01*
X105859728Y-66837714D01*
X105859728Y-66934476D01*
X105831909Y-66982857D01*
X105804090Y-67007047D01*
X105748452Y-67031238D01*
X106082280Y-67515047D02*
X106082280Y-67224761D01*
X106082280Y-67369904D02*
X105498080Y-67369904D01*
X105581538Y-67321523D01*
X105637176Y-67273142D01*
X105664995Y-67224761D01*
D13*
X104269809Y-66797800D02*
X104269809Y-66536542D01*
X104269809Y-66667171D02*
X103761809Y-66667171D01*
X103834380Y-66623628D01*
X103882761Y-66580085D01*
X103906952Y-66536542D01*
X103931142Y-67189685D02*
X104269809Y-67189685D01*
X103931142Y-66993742D02*
X104197238Y-66993742D01*
X104245619Y-67015514D01*
X104269809Y-67059057D01*
X104269809Y-67124371D01*
X104245619Y-67167914D01*
X104221428Y-67189685D01*
G04 #@! TO.C,C89*
D12*
X120148642Y-54183428D02*
X120176461Y-54159238D01*
X120204280Y-54086666D01*
X120204280Y-54038285D01*
X120176461Y-53965714D01*
X120120823Y-53917333D01*
X120065185Y-53893142D01*
X119953909Y-53868952D01*
X119870452Y-53868952D01*
X119759176Y-53893142D01*
X119703538Y-53917333D01*
X119647900Y-53965714D01*
X119620080Y-54038285D01*
X119620080Y-54086666D01*
X119647900Y-54159238D01*
X119675719Y-54183428D01*
X119870452Y-54473714D02*
X119842633Y-54425333D01*
X119814814Y-54401142D01*
X119759176Y-54376952D01*
X119731357Y-54376952D01*
X119675719Y-54401142D01*
X119647900Y-54425333D01*
X119620080Y-54473714D01*
X119620080Y-54570476D01*
X119647900Y-54618857D01*
X119675719Y-54643047D01*
X119731357Y-54667238D01*
X119759176Y-54667238D01*
X119814814Y-54643047D01*
X119842633Y-54618857D01*
X119870452Y-54570476D01*
X119870452Y-54473714D01*
X119898271Y-54425333D01*
X119926090Y-54401142D01*
X119981728Y-54376952D01*
X120093004Y-54376952D01*
X120148642Y-54401142D01*
X120176461Y-54425333D01*
X120204280Y-54473714D01*
X120204280Y-54570476D01*
X120176461Y-54618857D01*
X120148642Y-54643047D01*
X120093004Y-54667238D01*
X119981728Y-54667238D01*
X119926090Y-54643047D01*
X119898271Y-54618857D01*
X119870452Y-54570476D01*
X120204280Y-54909142D02*
X120204280Y-55005904D01*
X120176461Y-55054285D01*
X120148642Y-55078476D01*
X120065185Y-55126857D01*
X119953909Y-55151047D01*
X119731357Y-55151047D01*
X119675719Y-55126857D01*
X119647900Y-55102666D01*
X119620080Y-55054285D01*
X119620080Y-54957523D01*
X119647900Y-54909142D01*
X119675719Y-54884952D01*
X119731357Y-54860761D01*
X119870452Y-54860761D01*
X119926090Y-54884952D01*
X119953909Y-54909142D01*
X119981728Y-54957523D01*
X119981728Y-55054285D01*
X119953909Y-55102666D01*
X119926090Y-55126857D01*
X119870452Y-55151047D01*
D13*
X121919809Y-54467800D02*
X121919809Y-54206542D01*
X121919809Y-54337171D02*
X121411809Y-54337171D01*
X121484380Y-54293628D01*
X121532761Y-54250085D01*
X121556952Y-54206542D01*
X121581142Y-54859685D02*
X121919809Y-54859685D01*
X121581142Y-54663742D02*
X121847238Y-54663742D01*
X121895619Y-54685514D01*
X121919809Y-54729057D01*
X121919809Y-54794371D01*
X121895619Y-54837914D01*
X121871428Y-54859685D01*
G04 #@! TO.C,C87*
D12*
X124906571Y-62808642D02*
X124930761Y-62836461D01*
X125003333Y-62864280D01*
X125051714Y-62864280D01*
X125124285Y-62836461D01*
X125172666Y-62780823D01*
X125196857Y-62725185D01*
X125221047Y-62613909D01*
X125221047Y-62530452D01*
X125196857Y-62419176D01*
X125172666Y-62363538D01*
X125124285Y-62307900D01*
X125051714Y-62280080D01*
X125003333Y-62280080D01*
X124930761Y-62307900D01*
X124906571Y-62335719D01*
X124616285Y-62530452D02*
X124664666Y-62502633D01*
X124688857Y-62474814D01*
X124713047Y-62419176D01*
X124713047Y-62391357D01*
X124688857Y-62335719D01*
X124664666Y-62307900D01*
X124616285Y-62280080D01*
X124519523Y-62280080D01*
X124471142Y-62307900D01*
X124446952Y-62335719D01*
X124422761Y-62391357D01*
X124422761Y-62419176D01*
X124446952Y-62474814D01*
X124471142Y-62502633D01*
X124519523Y-62530452D01*
X124616285Y-62530452D01*
X124664666Y-62558271D01*
X124688857Y-62586090D01*
X124713047Y-62641728D01*
X124713047Y-62753004D01*
X124688857Y-62808642D01*
X124664666Y-62836461D01*
X124616285Y-62864280D01*
X124519523Y-62864280D01*
X124471142Y-62836461D01*
X124446952Y-62808642D01*
X124422761Y-62753004D01*
X124422761Y-62641728D01*
X124446952Y-62586090D01*
X124471142Y-62558271D01*
X124519523Y-62530452D01*
X124253428Y-62280080D02*
X123914761Y-62280080D01*
X124132476Y-62864280D01*
D13*
X124156200Y-61069809D02*
X124417457Y-61069809D01*
X124286828Y-61069809D02*
X124286828Y-60561809D01*
X124330371Y-60634380D01*
X124373914Y-60682761D01*
X124417457Y-60706952D01*
X123764314Y-60731142D02*
X123764314Y-61069809D01*
X123960257Y-60731142D02*
X123960257Y-60997238D01*
X123938485Y-61045619D01*
X123894942Y-61069809D01*
X123829628Y-61069809D01*
X123786085Y-61045619D01*
X123764314Y-61021428D01*
G04 #@! TO.C,C86*
D12*
X116196571Y-52988642D02*
X116220761Y-53016461D01*
X116293333Y-53044280D01*
X116341714Y-53044280D01*
X116414285Y-53016461D01*
X116462666Y-52960823D01*
X116486857Y-52905185D01*
X116511047Y-52793909D01*
X116511047Y-52710452D01*
X116486857Y-52599176D01*
X116462666Y-52543538D01*
X116414285Y-52487900D01*
X116341714Y-52460080D01*
X116293333Y-52460080D01*
X116220761Y-52487900D01*
X116196571Y-52515719D01*
X115906285Y-52710452D02*
X115954666Y-52682633D01*
X115978857Y-52654814D01*
X116003047Y-52599176D01*
X116003047Y-52571357D01*
X115978857Y-52515719D01*
X115954666Y-52487900D01*
X115906285Y-52460080D01*
X115809523Y-52460080D01*
X115761142Y-52487900D01*
X115736952Y-52515719D01*
X115712761Y-52571357D01*
X115712761Y-52599176D01*
X115736952Y-52654814D01*
X115761142Y-52682633D01*
X115809523Y-52710452D01*
X115906285Y-52710452D01*
X115954666Y-52738271D01*
X115978857Y-52766090D01*
X116003047Y-52821728D01*
X116003047Y-52933004D01*
X115978857Y-52988642D01*
X115954666Y-53016461D01*
X115906285Y-53044280D01*
X115809523Y-53044280D01*
X115761142Y-53016461D01*
X115736952Y-52988642D01*
X115712761Y-52933004D01*
X115712761Y-52821728D01*
X115736952Y-52766090D01*
X115761142Y-52738271D01*
X115809523Y-52710452D01*
X115277333Y-52460080D02*
X115374095Y-52460080D01*
X115422476Y-52487900D01*
X115446666Y-52515719D01*
X115495047Y-52599176D01*
X115519238Y-52710452D01*
X115519238Y-52933004D01*
X115495047Y-52988642D01*
X115470857Y-53016461D01*
X115422476Y-53044280D01*
X115325714Y-53044280D01*
X115277333Y-53016461D01*
X115253142Y-52988642D01*
X115228952Y-52933004D01*
X115228952Y-52793909D01*
X115253142Y-52738271D01*
X115277333Y-52710452D01*
X115325714Y-52682633D01*
X115422476Y-52682633D01*
X115470857Y-52710452D01*
X115495047Y-52738271D01*
X115519238Y-52793909D01*
D13*
X116405171Y-50711809D02*
X116361628Y-50711809D01*
X116318085Y-50736000D01*
X116296314Y-50760190D01*
X116274542Y-50808571D01*
X116252771Y-50905333D01*
X116252771Y-51026285D01*
X116274542Y-51123047D01*
X116296314Y-51171428D01*
X116318085Y-51195619D01*
X116361628Y-51219809D01*
X116405171Y-51219809D01*
X116448714Y-51195619D01*
X116470485Y-51171428D01*
X116492257Y-51123047D01*
X116514028Y-51026285D01*
X116514028Y-50905333D01*
X116492257Y-50808571D01*
X116470485Y-50760190D01*
X116448714Y-50736000D01*
X116405171Y-50711809D01*
X116056828Y-51171428D02*
X116035057Y-51195619D01*
X116056828Y-51219809D01*
X116078600Y-51195619D01*
X116056828Y-51171428D01*
X116056828Y-51219809D01*
X115599628Y-51219809D02*
X115860885Y-51219809D01*
X115730257Y-51219809D02*
X115730257Y-50711809D01*
X115773800Y-50784380D01*
X115817342Y-50832761D01*
X115860885Y-50856952D01*
X115207742Y-50881142D02*
X115207742Y-51219809D01*
X115403685Y-50881142D02*
X115403685Y-51147238D01*
X115381914Y-51195619D01*
X115338371Y-51219809D01*
X115273057Y-51219809D01*
X115229514Y-51195619D01*
X115207742Y-51171428D01*
G04 #@! TO.C,C85*
D12*
X122836571Y-52866642D02*
X122860761Y-52894461D01*
X122933333Y-52922280D01*
X122981714Y-52922280D01*
X123054285Y-52894461D01*
X123102666Y-52838823D01*
X123126857Y-52783185D01*
X123151047Y-52671909D01*
X123151047Y-52588452D01*
X123126857Y-52477176D01*
X123102666Y-52421538D01*
X123054285Y-52365900D01*
X122981714Y-52338080D01*
X122933333Y-52338080D01*
X122860761Y-52365900D01*
X122836571Y-52393719D01*
X122546285Y-52588452D02*
X122594666Y-52560633D01*
X122618857Y-52532814D01*
X122643047Y-52477176D01*
X122643047Y-52449357D01*
X122618857Y-52393719D01*
X122594666Y-52365900D01*
X122546285Y-52338080D01*
X122449523Y-52338080D01*
X122401142Y-52365900D01*
X122376952Y-52393719D01*
X122352761Y-52449357D01*
X122352761Y-52477176D01*
X122376952Y-52532814D01*
X122401142Y-52560633D01*
X122449523Y-52588452D01*
X122546285Y-52588452D01*
X122594666Y-52616271D01*
X122618857Y-52644090D01*
X122643047Y-52699728D01*
X122643047Y-52811004D01*
X122618857Y-52866642D01*
X122594666Y-52894461D01*
X122546285Y-52922280D01*
X122449523Y-52922280D01*
X122401142Y-52894461D01*
X122376952Y-52866642D01*
X122352761Y-52811004D01*
X122352761Y-52699728D01*
X122376952Y-52644090D01*
X122401142Y-52616271D01*
X122449523Y-52588452D01*
X121893142Y-52338080D02*
X122135047Y-52338080D01*
X122159238Y-52616271D01*
X122135047Y-52588452D01*
X122086666Y-52560633D01*
X121965714Y-52560633D01*
X121917333Y-52588452D01*
X121893142Y-52616271D01*
X121868952Y-52671909D01*
X121868952Y-52811004D01*
X121893142Y-52866642D01*
X121917333Y-52894461D01*
X121965714Y-52922280D01*
X122086666Y-52922280D01*
X122135047Y-52894461D01*
X122159238Y-52866642D01*
D13*
X123065171Y-50601809D02*
X123021628Y-50601809D01*
X122978085Y-50626000D01*
X122956314Y-50650190D01*
X122934542Y-50698571D01*
X122912771Y-50795333D01*
X122912771Y-50916285D01*
X122934542Y-51013047D01*
X122956314Y-51061428D01*
X122978085Y-51085619D01*
X123021628Y-51109809D01*
X123065171Y-51109809D01*
X123108714Y-51085619D01*
X123130485Y-51061428D01*
X123152257Y-51013047D01*
X123174028Y-50916285D01*
X123174028Y-50795333D01*
X123152257Y-50698571D01*
X123130485Y-50650190D01*
X123108714Y-50626000D01*
X123065171Y-50601809D01*
X122716828Y-51061428D02*
X122695057Y-51085619D01*
X122716828Y-51109809D01*
X122738600Y-51085619D01*
X122716828Y-51061428D01*
X122716828Y-51109809D01*
X122259628Y-51109809D02*
X122520885Y-51109809D01*
X122390257Y-51109809D02*
X122390257Y-50601809D01*
X122433800Y-50674380D01*
X122477342Y-50722761D01*
X122520885Y-50746952D01*
X121867742Y-50771142D02*
X121867742Y-51109809D01*
X122063685Y-50771142D02*
X122063685Y-51037238D01*
X122041914Y-51085619D01*
X121998371Y-51109809D01*
X121933057Y-51109809D01*
X121889514Y-51085619D01*
X121867742Y-51061428D01*
G04 #@! TO.C,C84*
D12*
X126288642Y-38797428D02*
X126316461Y-38773238D01*
X126344280Y-38700666D01*
X126344280Y-38652285D01*
X126316461Y-38579714D01*
X126260823Y-38531333D01*
X126205185Y-38507142D01*
X126093909Y-38482952D01*
X126010452Y-38482952D01*
X125899176Y-38507142D01*
X125843538Y-38531333D01*
X125787900Y-38579714D01*
X125760080Y-38652285D01*
X125760080Y-38700666D01*
X125787900Y-38773238D01*
X125815719Y-38797428D01*
X126010452Y-39087714D02*
X125982633Y-39039333D01*
X125954814Y-39015142D01*
X125899176Y-38990952D01*
X125871357Y-38990952D01*
X125815719Y-39015142D01*
X125787900Y-39039333D01*
X125760080Y-39087714D01*
X125760080Y-39184476D01*
X125787900Y-39232857D01*
X125815719Y-39257047D01*
X125871357Y-39281238D01*
X125899176Y-39281238D01*
X125954814Y-39257047D01*
X125982633Y-39232857D01*
X126010452Y-39184476D01*
X126010452Y-39087714D01*
X126038271Y-39039333D01*
X126066090Y-39015142D01*
X126121728Y-38990952D01*
X126233004Y-38990952D01*
X126288642Y-39015142D01*
X126316461Y-39039333D01*
X126344280Y-39087714D01*
X126344280Y-39184476D01*
X126316461Y-39232857D01*
X126288642Y-39257047D01*
X126233004Y-39281238D01*
X126121728Y-39281238D01*
X126066090Y-39257047D01*
X126038271Y-39232857D01*
X126010452Y-39184476D01*
X125954814Y-39716666D02*
X126344280Y-39716666D01*
X125732261Y-39595714D02*
X126149547Y-39474761D01*
X126149547Y-39789238D01*
D13*
X124051809Y-38568828D02*
X124051809Y-38612371D01*
X124076000Y-38655914D01*
X124100190Y-38677685D01*
X124148571Y-38699457D01*
X124245333Y-38721228D01*
X124366285Y-38721228D01*
X124463047Y-38699457D01*
X124511428Y-38677685D01*
X124535619Y-38655914D01*
X124559809Y-38612371D01*
X124559809Y-38568828D01*
X124535619Y-38525285D01*
X124511428Y-38503514D01*
X124463047Y-38481742D01*
X124366285Y-38459971D01*
X124245333Y-38459971D01*
X124148571Y-38481742D01*
X124100190Y-38503514D01*
X124076000Y-38525285D01*
X124051809Y-38568828D01*
X124511428Y-38917171D02*
X124535619Y-38938942D01*
X124559809Y-38917171D01*
X124535619Y-38895400D01*
X124511428Y-38917171D01*
X124559809Y-38917171D01*
X124559809Y-39374371D02*
X124559809Y-39113114D01*
X124559809Y-39243742D02*
X124051809Y-39243742D01*
X124124380Y-39200200D01*
X124172761Y-39156657D01*
X124196952Y-39113114D01*
X124221142Y-39766257D02*
X124559809Y-39766257D01*
X124221142Y-39570314D02*
X124487238Y-39570314D01*
X124535619Y-39592085D01*
X124559809Y-39635628D01*
X124559809Y-39700942D01*
X124535619Y-39744485D01*
X124511428Y-39766257D01*
G04 #@! TO.C,C83*
D12*
X126339642Y-42034428D02*
X126367461Y-42010238D01*
X126395280Y-41937666D01*
X126395280Y-41889285D01*
X126367461Y-41816714D01*
X126311823Y-41768333D01*
X126256185Y-41744142D01*
X126144909Y-41719952D01*
X126061452Y-41719952D01*
X125950176Y-41744142D01*
X125894538Y-41768333D01*
X125838900Y-41816714D01*
X125811080Y-41889285D01*
X125811080Y-41937666D01*
X125838900Y-42010238D01*
X125866719Y-42034428D01*
X126061452Y-42324714D02*
X126033633Y-42276333D01*
X126005814Y-42252142D01*
X125950176Y-42227952D01*
X125922357Y-42227952D01*
X125866719Y-42252142D01*
X125838900Y-42276333D01*
X125811080Y-42324714D01*
X125811080Y-42421476D01*
X125838900Y-42469857D01*
X125866719Y-42494047D01*
X125922357Y-42518238D01*
X125950176Y-42518238D01*
X126005814Y-42494047D01*
X126033633Y-42469857D01*
X126061452Y-42421476D01*
X126061452Y-42324714D01*
X126089271Y-42276333D01*
X126117090Y-42252142D01*
X126172728Y-42227952D01*
X126284004Y-42227952D01*
X126339642Y-42252142D01*
X126367461Y-42276333D01*
X126395280Y-42324714D01*
X126395280Y-42421476D01*
X126367461Y-42469857D01*
X126339642Y-42494047D01*
X126284004Y-42518238D01*
X126172728Y-42518238D01*
X126117090Y-42494047D01*
X126089271Y-42469857D01*
X126061452Y-42421476D01*
X125811080Y-42687571D02*
X125811080Y-43002047D01*
X126033633Y-42832714D01*
X126033633Y-42905285D01*
X126061452Y-42953666D01*
X126089271Y-42977857D01*
X126144909Y-43002047D01*
X126284004Y-43002047D01*
X126339642Y-42977857D01*
X126367461Y-42953666D01*
X126395280Y-42905285D01*
X126395280Y-42760142D01*
X126367461Y-42711761D01*
X126339642Y-42687571D01*
D13*
X124041809Y-41778828D02*
X124041809Y-41822371D01*
X124066000Y-41865914D01*
X124090190Y-41887685D01*
X124138571Y-41909457D01*
X124235333Y-41931228D01*
X124356285Y-41931228D01*
X124453047Y-41909457D01*
X124501428Y-41887685D01*
X124525619Y-41865914D01*
X124549809Y-41822371D01*
X124549809Y-41778828D01*
X124525619Y-41735285D01*
X124501428Y-41713514D01*
X124453047Y-41691742D01*
X124356285Y-41669971D01*
X124235333Y-41669971D01*
X124138571Y-41691742D01*
X124090190Y-41713514D01*
X124066000Y-41735285D01*
X124041809Y-41778828D01*
X124501428Y-42127171D02*
X124525619Y-42148942D01*
X124549809Y-42127171D01*
X124525619Y-42105400D01*
X124501428Y-42127171D01*
X124549809Y-42127171D01*
X124549809Y-42584371D02*
X124549809Y-42323114D01*
X124549809Y-42453742D02*
X124041809Y-42453742D01*
X124114380Y-42410200D01*
X124162761Y-42366657D01*
X124186952Y-42323114D01*
X124211142Y-42976257D02*
X124549809Y-42976257D01*
X124211142Y-42780314D02*
X124477238Y-42780314D01*
X124525619Y-42802085D01*
X124549809Y-42845628D01*
X124549809Y-42910942D01*
X124525619Y-42954485D01*
X124501428Y-42976257D01*
G04 #@! TO.C,C82*
D12*
X126338642Y-36867428D02*
X126366461Y-36843238D01*
X126394280Y-36770666D01*
X126394280Y-36722285D01*
X126366461Y-36649714D01*
X126310823Y-36601333D01*
X126255185Y-36577142D01*
X126143909Y-36552952D01*
X126060452Y-36552952D01*
X125949176Y-36577142D01*
X125893538Y-36601333D01*
X125837900Y-36649714D01*
X125810080Y-36722285D01*
X125810080Y-36770666D01*
X125837900Y-36843238D01*
X125865719Y-36867428D01*
X126060452Y-37157714D02*
X126032633Y-37109333D01*
X126004814Y-37085142D01*
X125949176Y-37060952D01*
X125921357Y-37060952D01*
X125865719Y-37085142D01*
X125837900Y-37109333D01*
X125810080Y-37157714D01*
X125810080Y-37254476D01*
X125837900Y-37302857D01*
X125865719Y-37327047D01*
X125921357Y-37351238D01*
X125949176Y-37351238D01*
X126004814Y-37327047D01*
X126032633Y-37302857D01*
X126060452Y-37254476D01*
X126060452Y-37157714D01*
X126088271Y-37109333D01*
X126116090Y-37085142D01*
X126171728Y-37060952D01*
X126283004Y-37060952D01*
X126338642Y-37085142D01*
X126366461Y-37109333D01*
X126394280Y-37157714D01*
X126394280Y-37254476D01*
X126366461Y-37302857D01*
X126338642Y-37327047D01*
X126283004Y-37351238D01*
X126171728Y-37351238D01*
X126116090Y-37327047D01*
X126088271Y-37302857D01*
X126060452Y-37254476D01*
X125865719Y-37544761D02*
X125837900Y-37568952D01*
X125810080Y-37617333D01*
X125810080Y-37738285D01*
X125837900Y-37786666D01*
X125865719Y-37810857D01*
X125921357Y-37835047D01*
X125976995Y-37835047D01*
X126060452Y-37810857D01*
X126394280Y-37520571D01*
X126394280Y-37835047D01*
D13*
X124061809Y-36668828D02*
X124061809Y-36712371D01*
X124086000Y-36755914D01*
X124110190Y-36777685D01*
X124158571Y-36799457D01*
X124255333Y-36821228D01*
X124376285Y-36821228D01*
X124473047Y-36799457D01*
X124521428Y-36777685D01*
X124545619Y-36755914D01*
X124569809Y-36712371D01*
X124569809Y-36668828D01*
X124545619Y-36625285D01*
X124521428Y-36603514D01*
X124473047Y-36581742D01*
X124376285Y-36559971D01*
X124255333Y-36559971D01*
X124158571Y-36581742D01*
X124110190Y-36603514D01*
X124086000Y-36625285D01*
X124061809Y-36668828D01*
X124521428Y-37017171D02*
X124545619Y-37038942D01*
X124569809Y-37017171D01*
X124545619Y-36995400D01*
X124521428Y-37017171D01*
X124569809Y-37017171D01*
X124569809Y-37474371D02*
X124569809Y-37213114D01*
X124569809Y-37343742D02*
X124061809Y-37343742D01*
X124134380Y-37300200D01*
X124182761Y-37256657D01*
X124206952Y-37213114D01*
X124231142Y-37866257D02*
X124569809Y-37866257D01*
X124231142Y-37670314D02*
X124497238Y-37670314D01*
X124545619Y-37692085D01*
X124569809Y-37735628D01*
X124569809Y-37800942D01*
X124545619Y-37844485D01*
X124521428Y-37866257D01*
G04 #@! TO.C,C81*
D12*
X109918642Y-36423428D02*
X109946461Y-36399238D01*
X109974280Y-36326666D01*
X109974280Y-36278285D01*
X109946461Y-36205714D01*
X109890823Y-36157333D01*
X109835185Y-36133142D01*
X109723909Y-36108952D01*
X109640452Y-36108952D01*
X109529176Y-36133142D01*
X109473538Y-36157333D01*
X109417900Y-36205714D01*
X109390080Y-36278285D01*
X109390080Y-36326666D01*
X109417900Y-36399238D01*
X109445719Y-36423428D01*
X109640452Y-36713714D02*
X109612633Y-36665333D01*
X109584814Y-36641142D01*
X109529176Y-36616952D01*
X109501357Y-36616952D01*
X109445719Y-36641142D01*
X109417900Y-36665333D01*
X109390080Y-36713714D01*
X109390080Y-36810476D01*
X109417900Y-36858857D01*
X109445719Y-36883047D01*
X109501357Y-36907238D01*
X109529176Y-36907238D01*
X109584814Y-36883047D01*
X109612633Y-36858857D01*
X109640452Y-36810476D01*
X109640452Y-36713714D01*
X109668271Y-36665333D01*
X109696090Y-36641142D01*
X109751728Y-36616952D01*
X109863004Y-36616952D01*
X109918642Y-36641142D01*
X109946461Y-36665333D01*
X109974280Y-36713714D01*
X109974280Y-36810476D01*
X109946461Y-36858857D01*
X109918642Y-36883047D01*
X109863004Y-36907238D01*
X109751728Y-36907238D01*
X109696090Y-36883047D01*
X109668271Y-36858857D01*
X109640452Y-36810476D01*
X109974280Y-37391047D02*
X109974280Y-37100761D01*
X109974280Y-37245904D02*
X109390080Y-37245904D01*
X109473538Y-37197523D01*
X109529176Y-37149142D01*
X109556995Y-37100761D01*
D13*
X111201809Y-36214828D02*
X111201809Y-36258371D01*
X111226000Y-36301914D01*
X111250190Y-36323685D01*
X111298571Y-36345457D01*
X111395333Y-36367228D01*
X111516285Y-36367228D01*
X111613047Y-36345457D01*
X111661428Y-36323685D01*
X111685619Y-36301914D01*
X111709809Y-36258371D01*
X111709809Y-36214828D01*
X111685619Y-36171285D01*
X111661428Y-36149514D01*
X111613047Y-36127742D01*
X111516285Y-36105971D01*
X111395333Y-36105971D01*
X111298571Y-36127742D01*
X111250190Y-36149514D01*
X111226000Y-36171285D01*
X111201809Y-36214828D01*
X111661428Y-36563171D02*
X111685619Y-36584942D01*
X111709809Y-36563171D01*
X111685619Y-36541400D01*
X111661428Y-36563171D01*
X111709809Y-36563171D01*
X111709809Y-37020371D02*
X111709809Y-36759114D01*
X111709809Y-36889742D02*
X111201809Y-36889742D01*
X111274380Y-36846200D01*
X111322761Y-36802657D01*
X111346952Y-36759114D01*
X111371142Y-37412257D02*
X111709809Y-37412257D01*
X111371142Y-37216314D02*
X111637238Y-37216314D01*
X111685619Y-37238085D01*
X111709809Y-37281628D01*
X111709809Y-37346942D01*
X111685619Y-37390485D01*
X111661428Y-37412257D01*
G04 #@! TO.C,C80*
D12*
X126308642Y-35213428D02*
X126336461Y-35189238D01*
X126364280Y-35116666D01*
X126364280Y-35068285D01*
X126336461Y-34995714D01*
X126280823Y-34947333D01*
X126225185Y-34923142D01*
X126113909Y-34898952D01*
X126030452Y-34898952D01*
X125919176Y-34923142D01*
X125863538Y-34947333D01*
X125807900Y-34995714D01*
X125780080Y-35068285D01*
X125780080Y-35116666D01*
X125807900Y-35189238D01*
X125835719Y-35213428D01*
X126030452Y-35503714D02*
X126002633Y-35455333D01*
X125974814Y-35431142D01*
X125919176Y-35406952D01*
X125891357Y-35406952D01*
X125835719Y-35431142D01*
X125807900Y-35455333D01*
X125780080Y-35503714D01*
X125780080Y-35600476D01*
X125807900Y-35648857D01*
X125835719Y-35673047D01*
X125891357Y-35697238D01*
X125919176Y-35697238D01*
X125974814Y-35673047D01*
X126002633Y-35648857D01*
X126030452Y-35600476D01*
X126030452Y-35503714D01*
X126058271Y-35455333D01*
X126086090Y-35431142D01*
X126141728Y-35406952D01*
X126253004Y-35406952D01*
X126308642Y-35431142D01*
X126336461Y-35455333D01*
X126364280Y-35503714D01*
X126364280Y-35600476D01*
X126336461Y-35648857D01*
X126308642Y-35673047D01*
X126253004Y-35697238D01*
X126141728Y-35697238D01*
X126086090Y-35673047D01*
X126058271Y-35648857D01*
X126030452Y-35600476D01*
X125780080Y-36011714D02*
X125780080Y-36060095D01*
X125807900Y-36108476D01*
X125835719Y-36132666D01*
X125891357Y-36156857D01*
X126002633Y-36181047D01*
X126141728Y-36181047D01*
X126253004Y-36156857D01*
X126308642Y-36132666D01*
X126336461Y-36108476D01*
X126364280Y-36060095D01*
X126364280Y-36011714D01*
X126336461Y-35963333D01*
X126308642Y-35939142D01*
X126253004Y-35914952D01*
X126141728Y-35890761D01*
X126002633Y-35890761D01*
X125891357Y-35914952D01*
X125835719Y-35939142D01*
X125807900Y-35963333D01*
X125780080Y-36011714D01*
D13*
X124061809Y-34968828D02*
X124061809Y-35012371D01*
X124086000Y-35055914D01*
X124110190Y-35077685D01*
X124158571Y-35099457D01*
X124255333Y-35121228D01*
X124376285Y-35121228D01*
X124473047Y-35099457D01*
X124521428Y-35077685D01*
X124545619Y-35055914D01*
X124569809Y-35012371D01*
X124569809Y-34968828D01*
X124545619Y-34925285D01*
X124521428Y-34903514D01*
X124473047Y-34881742D01*
X124376285Y-34859971D01*
X124255333Y-34859971D01*
X124158571Y-34881742D01*
X124110190Y-34903514D01*
X124086000Y-34925285D01*
X124061809Y-34968828D01*
X124521428Y-35317171D02*
X124545619Y-35338942D01*
X124569809Y-35317171D01*
X124545619Y-35295400D01*
X124521428Y-35317171D01*
X124569809Y-35317171D01*
X124569809Y-35774371D02*
X124569809Y-35513114D01*
X124569809Y-35643742D02*
X124061809Y-35643742D01*
X124134380Y-35600200D01*
X124182761Y-35556657D01*
X124206952Y-35513114D01*
X124231142Y-36166257D02*
X124569809Y-36166257D01*
X124231142Y-35970314D02*
X124497238Y-35970314D01*
X124545619Y-35992085D01*
X124569809Y-36035628D01*
X124569809Y-36100942D01*
X124545619Y-36144485D01*
X124521428Y-36166257D01*
G04 #@! TO.C,C79*
D12*
X123176571Y-48048642D02*
X123200761Y-48076461D01*
X123273333Y-48104280D01*
X123321714Y-48104280D01*
X123394285Y-48076461D01*
X123442666Y-48020823D01*
X123466857Y-47965185D01*
X123491047Y-47853909D01*
X123491047Y-47770452D01*
X123466857Y-47659176D01*
X123442666Y-47603538D01*
X123394285Y-47547900D01*
X123321714Y-47520080D01*
X123273333Y-47520080D01*
X123200761Y-47547900D01*
X123176571Y-47575719D01*
X123007238Y-47520080D02*
X122668571Y-47520080D01*
X122886285Y-48104280D01*
X122450857Y-48104280D02*
X122354095Y-48104280D01*
X122305714Y-48076461D01*
X122281523Y-48048642D01*
X122233142Y-47965185D01*
X122208952Y-47853909D01*
X122208952Y-47631357D01*
X122233142Y-47575719D01*
X122257333Y-47547900D01*
X122305714Y-47520080D01*
X122402476Y-47520080D01*
X122450857Y-47547900D01*
X122475047Y-47575719D01*
X122499238Y-47631357D01*
X122499238Y-47770452D01*
X122475047Y-47826090D01*
X122450857Y-47853909D01*
X122402476Y-47881728D01*
X122305714Y-47881728D01*
X122257333Y-47853909D01*
X122233142Y-47826090D01*
X122208952Y-47770452D01*
D13*
X123385171Y-45731809D02*
X123341628Y-45731809D01*
X123298085Y-45756000D01*
X123276314Y-45780190D01*
X123254542Y-45828571D01*
X123232771Y-45925333D01*
X123232771Y-46046285D01*
X123254542Y-46143047D01*
X123276314Y-46191428D01*
X123298085Y-46215619D01*
X123341628Y-46239809D01*
X123385171Y-46239809D01*
X123428714Y-46215619D01*
X123450485Y-46191428D01*
X123472257Y-46143047D01*
X123494028Y-46046285D01*
X123494028Y-45925333D01*
X123472257Y-45828571D01*
X123450485Y-45780190D01*
X123428714Y-45756000D01*
X123385171Y-45731809D01*
X123036828Y-46191428D02*
X123015057Y-46215619D01*
X123036828Y-46239809D01*
X123058600Y-46215619D01*
X123036828Y-46191428D01*
X123036828Y-46239809D01*
X122579628Y-46239809D02*
X122840885Y-46239809D01*
X122710257Y-46239809D02*
X122710257Y-45731809D01*
X122753800Y-45804380D01*
X122797342Y-45852761D01*
X122840885Y-45876952D01*
X122187742Y-45901142D02*
X122187742Y-46239809D01*
X122383685Y-45901142D02*
X122383685Y-46167238D01*
X122361914Y-46215619D01*
X122318371Y-46239809D01*
X122253057Y-46239809D01*
X122209514Y-46215619D01*
X122187742Y-46191428D01*
G04 #@! TO.C,C78*
D12*
X116806571Y-47978642D02*
X116830761Y-48006461D01*
X116903333Y-48034280D01*
X116951714Y-48034280D01*
X117024285Y-48006461D01*
X117072666Y-47950823D01*
X117096857Y-47895185D01*
X117121047Y-47783909D01*
X117121047Y-47700452D01*
X117096857Y-47589176D01*
X117072666Y-47533538D01*
X117024285Y-47477900D01*
X116951714Y-47450080D01*
X116903333Y-47450080D01*
X116830761Y-47477900D01*
X116806571Y-47505719D01*
X116637238Y-47450080D02*
X116298571Y-47450080D01*
X116516285Y-48034280D01*
X116032476Y-47700452D02*
X116080857Y-47672633D01*
X116105047Y-47644814D01*
X116129238Y-47589176D01*
X116129238Y-47561357D01*
X116105047Y-47505719D01*
X116080857Y-47477900D01*
X116032476Y-47450080D01*
X115935714Y-47450080D01*
X115887333Y-47477900D01*
X115863142Y-47505719D01*
X115838952Y-47561357D01*
X115838952Y-47589176D01*
X115863142Y-47644814D01*
X115887333Y-47672633D01*
X115935714Y-47700452D01*
X116032476Y-47700452D01*
X116080857Y-47728271D01*
X116105047Y-47756090D01*
X116129238Y-47811728D01*
X116129238Y-47923004D01*
X116105047Y-47978642D01*
X116080857Y-48006461D01*
X116032476Y-48034280D01*
X115935714Y-48034280D01*
X115887333Y-48006461D01*
X115863142Y-47978642D01*
X115838952Y-47923004D01*
X115838952Y-47811728D01*
X115863142Y-47756090D01*
X115887333Y-47728271D01*
X115935714Y-47700452D01*
D13*
X117065171Y-45741809D02*
X117021628Y-45741809D01*
X116978085Y-45766000D01*
X116956314Y-45790190D01*
X116934542Y-45838571D01*
X116912771Y-45935333D01*
X116912771Y-46056285D01*
X116934542Y-46153047D01*
X116956314Y-46201428D01*
X116978085Y-46225619D01*
X117021628Y-46249809D01*
X117065171Y-46249809D01*
X117108714Y-46225619D01*
X117130485Y-46201428D01*
X117152257Y-46153047D01*
X117174028Y-46056285D01*
X117174028Y-45935333D01*
X117152257Y-45838571D01*
X117130485Y-45790190D01*
X117108714Y-45766000D01*
X117065171Y-45741809D01*
X116716828Y-46201428D02*
X116695057Y-46225619D01*
X116716828Y-46249809D01*
X116738600Y-46225619D01*
X116716828Y-46201428D01*
X116716828Y-46249809D01*
X116259628Y-46249809D02*
X116520885Y-46249809D01*
X116390257Y-46249809D02*
X116390257Y-45741809D01*
X116433800Y-45814380D01*
X116477342Y-45862761D01*
X116520885Y-45886952D01*
X115867742Y-45911142D02*
X115867742Y-46249809D01*
X116063685Y-45911142D02*
X116063685Y-46177238D01*
X116041914Y-46225619D01*
X115998371Y-46249809D01*
X115933057Y-46249809D01*
X115889514Y-46225619D01*
X115867742Y-46201428D01*
G04 #@! TO.C,C77*
D12*
X115096571Y-48018642D02*
X115120761Y-48046461D01*
X115193333Y-48074280D01*
X115241714Y-48074280D01*
X115314285Y-48046461D01*
X115362666Y-47990823D01*
X115386857Y-47935185D01*
X115411047Y-47823909D01*
X115411047Y-47740452D01*
X115386857Y-47629176D01*
X115362666Y-47573538D01*
X115314285Y-47517900D01*
X115241714Y-47490080D01*
X115193333Y-47490080D01*
X115120761Y-47517900D01*
X115096571Y-47545719D01*
X114927238Y-47490080D02*
X114588571Y-47490080D01*
X114806285Y-48074280D01*
X114443428Y-47490080D02*
X114104761Y-47490080D01*
X114322476Y-48074280D01*
D13*
X115345171Y-45741809D02*
X115301628Y-45741809D01*
X115258085Y-45766000D01*
X115236314Y-45790190D01*
X115214542Y-45838571D01*
X115192771Y-45935333D01*
X115192771Y-46056285D01*
X115214542Y-46153047D01*
X115236314Y-46201428D01*
X115258085Y-46225619D01*
X115301628Y-46249809D01*
X115345171Y-46249809D01*
X115388714Y-46225619D01*
X115410485Y-46201428D01*
X115432257Y-46153047D01*
X115454028Y-46056285D01*
X115454028Y-45935333D01*
X115432257Y-45838571D01*
X115410485Y-45790190D01*
X115388714Y-45766000D01*
X115345171Y-45741809D01*
X114996828Y-46201428D02*
X114975057Y-46225619D01*
X114996828Y-46249809D01*
X115018600Y-46225619D01*
X114996828Y-46201428D01*
X114996828Y-46249809D01*
X114539628Y-46249809D02*
X114800885Y-46249809D01*
X114670257Y-46249809D02*
X114670257Y-45741809D01*
X114713800Y-45814380D01*
X114757342Y-45862761D01*
X114800885Y-45886952D01*
X114147742Y-45911142D02*
X114147742Y-46249809D01*
X114343685Y-45911142D02*
X114343685Y-46177238D01*
X114321914Y-46225619D01*
X114278371Y-46249809D01*
X114213057Y-46249809D01*
X114169514Y-46225619D01*
X114147742Y-46201428D01*
G04 #@! TO.C,C75*
D12*
X124896571Y-54628642D02*
X124920761Y-54656461D01*
X124993333Y-54684280D01*
X125041714Y-54684280D01*
X125114285Y-54656461D01*
X125162666Y-54600823D01*
X125186857Y-54545185D01*
X125211047Y-54433909D01*
X125211047Y-54350452D01*
X125186857Y-54239176D01*
X125162666Y-54183538D01*
X125114285Y-54127900D01*
X125041714Y-54100080D01*
X124993333Y-54100080D01*
X124920761Y-54127900D01*
X124896571Y-54155719D01*
X124727238Y-54100080D02*
X124388571Y-54100080D01*
X124606285Y-54684280D01*
X123953142Y-54100080D02*
X124195047Y-54100080D01*
X124219238Y-54378271D01*
X124195047Y-54350452D01*
X124146666Y-54322633D01*
X124025714Y-54322633D01*
X123977333Y-54350452D01*
X123953142Y-54378271D01*
X123928952Y-54433909D01*
X123928952Y-54573004D01*
X123953142Y-54628642D01*
X123977333Y-54656461D01*
X124025714Y-54684280D01*
X124146666Y-54684280D01*
X124195047Y-54656461D01*
X124219238Y-54628642D01*
D13*
X125115171Y-55931809D02*
X125071628Y-55931809D01*
X125028085Y-55956000D01*
X125006314Y-55980190D01*
X124984542Y-56028571D01*
X124962771Y-56125333D01*
X124962771Y-56246285D01*
X124984542Y-56343047D01*
X125006314Y-56391428D01*
X125028085Y-56415619D01*
X125071628Y-56439809D01*
X125115171Y-56439809D01*
X125158714Y-56415619D01*
X125180485Y-56391428D01*
X125202257Y-56343047D01*
X125224028Y-56246285D01*
X125224028Y-56125333D01*
X125202257Y-56028571D01*
X125180485Y-55980190D01*
X125158714Y-55956000D01*
X125115171Y-55931809D01*
X124766828Y-56391428D02*
X124745057Y-56415619D01*
X124766828Y-56439809D01*
X124788600Y-56415619D01*
X124766828Y-56391428D01*
X124766828Y-56439809D01*
X124309628Y-56439809D02*
X124570885Y-56439809D01*
X124440257Y-56439809D02*
X124440257Y-55931809D01*
X124483800Y-56004380D01*
X124527342Y-56052761D01*
X124570885Y-56076952D01*
X123917742Y-56101142D02*
X123917742Y-56439809D01*
X124113685Y-56101142D02*
X124113685Y-56367238D01*
X124091914Y-56415619D01*
X124048371Y-56439809D01*
X123983057Y-56439809D01*
X123939514Y-56415619D01*
X123917742Y-56391428D01*
G04 #@! TO.C,C74*
D12*
X110046571Y-48088642D02*
X110070761Y-48116461D01*
X110143333Y-48144280D01*
X110191714Y-48144280D01*
X110264285Y-48116461D01*
X110312666Y-48060823D01*
X110336857Y-48005185D01*
X110361047Y-47893909D01*
X110361047Y-47810452D01*
X110336857Y-47699176D01*
X110312666Y-47643538D01*
X110264285Y-47587900D01*
X110191714Y-47560080D01*
X110143333Y-47560080D01*
X110070761Y-47587900D01*
X110046571Y-47615719D01*
X109877238Y-47560080D02*
X109538571Y-47560080D01*
X109756285Y-48144280D01*
X109127333Y-47754814D02*
X109127333Y-48144280D01*
X109248285Y-47532261D02*
X109369238Y-47949547D01*
X109054761Y-47949547D01*
D13*
X110275171Y-45781809D02*
X110231628Y-45781809D01*
X110188085Y-45806000D01*
X110166314Y-45830190D01*
X110144542Y-45878571D01*
X110122771Y-45975333D01*
X110122771Y-46096285D01*
X110144542Y-46193047D01*
X110166314Y-46241428D01*
X110188085Y-46265619D01*
X110231628Y-46289809D01*
X110275171Y-46289809D01*
X110318714Y-46265619D01*
X110340485Y-46241428D01*
X110362257Y-46193047D01*
X110384028Y-46096285D01*
X110384028Y-45975333D01*
X110362257Y-45878571D01*
X110340485Y-45830190D01*
X110318714Y-45806000D01*
X110275171Y-45781809D01*
X109926828Y-46241428D02*
X109905057Y-46265619D01*
X109926828Y-46289809D01*
X109948600Y-46265619D01*
X109926828Y-46241428D01*
X109926828Y-46289809D01*
X109469628Y-46289809D02*
X109730885Y-46289809D01*
X109600257Y-46289809D02*
X109600257Y-45781809D01*
X109643800Y-45854380D01*
X109687342Y-45902761D01*
X109730885Y-45926952D01*
X109077742Y-45951142D02*
X109077742Y-46289809D01*
X109273685Y-45951142D02*
X109273685Y-46217238D01*
X109251914Y-46265619D01*
X109208371Y-46289809D01*
X109143057Y-46289809D01*
X109099514Y-46265619D01*
X109077742Y-46241428D01*
G04 #@! TO.C,C73*
D12*
X120946571Y-48038642D02*
X120970761Y-48066461D01*
X121043333Y-48094280D01*
X121091714Y-48094280D01*
X121164285Y-48066461D01*
X121212666Y-48010823D01*
X121236857Y-47955185D01*
X121261047Y-47843909D01*
X121261047Y-47760452D01*
X121236857Y-47649176D01*
X121212666Y-47593538D01*
X121164285Y-47537900D01*
X121091714Y-47510080D01*
X121043333Y-47510080D01*
X120970761Y-47537900D01*
X120946571Y-47565719D01*
X120777238Y-47510080D02*
X120438571Y-47510080D01*
X120656285Y-48094280D01*
X120293428Y-47510080D02*
X119978952Y-47510080D01*
X120148285Y-47732633D01*
X120075714Y-47732633D01*
X120027333Y-47760452D01*
X120003142Y-47788271D01*
X119978952Y-47843909D01*
X119978952Y-47983004D01*
X120003142Y-48038642D01*
X120027333Y-48066461D01*
X120075714Y-48094280D01*
X120220857Y-48094280D01*
X120269238Y-48066461D01*
X120293428Y-48038642D01*
D13*
X121155171Y-45731809D02*
X121111628Y-45731809D01*
X121068085Y-45756000D01*
X121046314Y-45780190D01*
X121024542Y-45828571D01*
X121002771Y-45925333D01*
X121002771Y-46046285D01*
X121024542Y-46143047D01*
X121046314Y-46191428D01*
X121068085Y-46215619D01*
X121111628Y-46239809D01*
X121155171Y-46239809D01*
X121198714Y-46215619D01*
X121220485Y-46191428D01*
X121242257Y-46143047D01*
X121264028Y-46046285D01*
X121264028Y-45925333D01*
X121242257Y-45828571D01*
X121220485Y-45780190D01*
X121198714Y-45756000D01*
X121155171Y-45731809D01*
X120806828Y-46191428D02*
X120785057Y-46215619D01*
X120806828Y-46239809D01*
X120828600Y-46215619D01*
X120806828Y-46191428D01*
X120806828Y-46239809D01*
X120349628Y-46239809D02*
X120610885Y-46239809D01*
X120480257Y-46239809D02*
X120480257Y-45731809D01*
X120523800Y-45804380D01*
X120567342Y-45852761D01*
X120610885Y-45876952D01*
X119957742Y-45901142D02*
X119957742Y-46239809D01*
X120153685Y-45901142D02*
X120153685Y-46167238D01*
X120131914Y-46215619D01*
X120088371Y-46239809D01*
X120023057Y-46239809D01*
X119979514Y-46215619D01*
X119957742Y-46191428D01*
G04 #@! TO.C,C69*
D12*
X119276571Y-47988642D02*
X119300761Y-48016461D01*
X119373333Y-48044280D01*
X119421714Y-48044280D01*
X119494285Y-48016461D01*
X119542666Y-47960823D01*
X119566857Y-47905185D01*
X119591047Y-47793909D01*
X119591047Y-47710452D01*
X119566857Y-47599176D01*
X119542666Y-47543538D01*
X119494285Y-47487900D01*
X119421714Y-47460080D01*
X119373333Y-47460080D01*
X119300761Y-47487900D01*
X119276571Y-47515719D01*
X118841142Y-47460080D02*
X118937904Y-47460080D01*
X118986285Y-47487900D01*
X119010476Y-47515719D01*
X119058857Y-47599176D01*
X119083047Y-47710452D01*
X119083047Y-47933004D01*
X119058857Y-47988642D01*
X119034666Y-48016461D01*
X118986285Y-48044280D01*
X118889523Y-48044280D01*
X118841142Y-48016461D01*
X118816952Y-47988642D01*
X118792761Y-47933004D01*
X118792761Y-47793909D01*
X118816952Y-47738271D01*
X118841142Y-47710452D01*
X118889523Y-47682633D01*
X118986285Y-47682633D01*
X119034666Y-47710452D01*
X119058857Y-47738271D01*
X119083047Y-47793909D01*
X118550857Y-48044280D02*
X118454095Y-48044280D01*
X118405714Y-48016461D01*
X118381523Y-47988642D01*
X118333142Y-47905185D01*
X118308952Y-47793909D01*
X118308952Y-47571357D01*
X118333142Y-47515719D01*
X118357333Y-47487900D01*
X118405714Y-47460080D01*
X118502476Y-47460080D01*
X118550857Y-47487900D01*
X118575047Y-47515719D01*
X118599238Y-47571357D01*
X118599238Y-47710452D01*
X118575047Y-47766090D01*
X118550857Y-47793909D01*
X118502476Y-47821728D01*
X118405714Y-47821728D01*
X118357333Y-47793909D01*
X118333142Y-47766090D01*
X118308952Y-47710452D01*
D13*
X119495171Y-45731809D02*
X119451628Y-45731809D01*
X119408085Y-45756000D01*
X119386314Y-45780190D01*
X119364542Y-45828571D01*
X119342771Y-45925333D01*
X119342771Y-46046285D01*
X119364542Y-46143047D01*
X119386314Y-46191428D01*
X119408085Y-46215619D01*
X119451628Y-46239809D01*
X119495171Y-46239809D01*
X119538714Y-46215619D01*
X119560485Y-46191428D01*
X119582257Y-46143047D01*
X119604028Y-46046285D01*
X119604028Y-45925333D01*
X119582257Y-45828571D01*
X119560485Y-45780190D01*
X119538714Y-45756000D01*
X119495171Y-45731809D01*
X119146828Y-46191428D02*
X119125057Y-46215619D01*
X119146828Y-46239809D01*
X119168600Y-46215619D01*
X119146828Y-46191428D01*
X119146828Y-46239809D01*
X118689628Y-46239809D02*
X118950885Y-46239809D01*
X118820257Y-46239809D02*
X118820257Y-45731809D01*
X118863800Y-45804380D01*
X118907342Y-45852761D01*
X118950885Y-45876952D01*
X118297742Y-45901142D02*
X118297742Y-46239809D01*
X118493685Y-45901142D02*
X118493685Y-46167238D01*
X118471914Y-46215619D01*
X118428371Y-46239809D01*
X118363057Y-46239809D01*
X118319514Y-46215619D01*
X118297742Y-46191428D01*
G04 #@! TO.C,C68*
D12*
X97066571Y-32492642D02*
X97090761Y-32520461D01*
X97163333Y-32548280D01*
X97211714Y-32548280D01*
X97284285Y-32520461D01*
X97332666Y-32464823D01*
X97356857Y-32409185D01*
X97381047Y-32297909D01*
X97381047Y-32214452D01*
X97356857Y-32103176D01*
X97332666Y-32047538D01*
X97284285Y-31991900D01*
X97211714Y-31964080D01*
X97163333Y-31964080D01*
X97090761Y-31991900D01*
X97066571Y-32019719D01*
X96631142Y-31964080D02*
X96727904Y-31964080D01*
X96776285Y-31991900D01*
X96800476Y-32019719D01*
X96848857Y-32103176D01*
X96873047Y-32214452D01*
X96873047Y-32437004D01*
X96848857Y-32492642D01*
X96824666Y-32520461D01*
X96776285Y-32548280D01*
X96679523Y-32548280D01*
X96631142Y-32520461D01*
X96606952Y-32492642D01*
X96582761Y-32437004D01*
X96582761Y-32297909D01*
X96606952Y-32242271D01*
X96631142Y-32214452D01*
X96679523Y-32186633D01*
X96776285Y-32186633D01*
X96824666Y-32214452D01*
X96848857Y-32242271D01*
X96873047Y-32297909D01*
X96292476Y-32214452D02*
X96340857Y-32186633D01*
X96365047Y-32158814D01*
X96389238Y-32103176D01*
X96389238Y-32075357D01*
X96365047Y-32019719D01*
X96340857Y-31991900D01*
X96292476Y-31964080D01*
X96195714Y-31964080D01*
X96147333Y-31991900D01*
X96123142Y-32019719D01*
X96098952Y-32075357D01*
X96098952Y-32103176D01*
X96123142Y-32158814D01*
X96147333Y-32186633D01*
X96195714Y-32214452D01*
X96292476Y-32214452D01*
X96340857Y-32242271D01*
X96365047Y-32270090D01*
X96389238Y-32325728D01*
X96389238Y-32437004D01*
X96365047Y-32492642D01*
X96340857Y-32520461D01*
X96292476Y-32548280D01*
X96195714Y-32548280D01*
X96147333Y-32520461D01*
X96123142Y-32492642D01*
X96098952Y-32437004D01*
X96098952Y-32325728D01*
X96123142Y-32270090D01*
X96147333Y-32242271D01*
X96195714Y-32214452D01*
D13*
X97295171Y-33755809D02*
X97251628Y-33755809D01*
X97208085Y-33780000D01*
X97186314Y-33804190D01*
X97164542Y-33852571D01*
X97142771Y-33949333D01*
X97142771Y-34070285D01*
X97164542Y-34167047D01*
X97186314Y-34215428D01*
X97208085Y-34239619D01*
X97251628Y-34263809D01*
X97295171Y-34263809D01*
X97338714Y-34239619D01*
X97360485Y-34215428D01*
X97382257Y-34167047D01*
X97404028Y-34070285D01*
X97404028Y-33949333D01*
X97382257Y-33852571D01*
X97360485Y-33804190D01*
X97338714Y-33780000D01*
X97295171Y-33755809D01*
X96946828Y-34215428D02*
X96925057Y-34239619D01*
X96946828Y-34263809D01*
X96968600Y-34239619D01*
X96946828Y-34215428D01*
X96946828Y-34263809D01*
X96489628Y-34263809D02*
X96750885Y-34263809D01*
X96620257Y-34263809D02*
X96620257Y-33755809D01*
X96663800Y-33828380D01*
X96707342Y-33876761D01*
X96750885Y-33900952D01*
X96097742Y-33925142D02*
X96097742Y-34263809D01*
X96293685Y-33925142D02*
X96293685Y-34191238D01*
X96271914Y-34239619D01*
X96228371Y-34263809D01*
X96163057Y-34263809D01*
X96119514Y-34239619D01*
X96097742Y-34215428D01*
G04 #@! TO.C,C67*
D12*
X93626571Y-32482642D02*
X93650761Y-32510461D01*
X93723333Y-32538280D01*
X93771714Y-32538280D01*
X93844285Y-32510461D01*
X93892666Y-32454823D01*
X93916857Y-32399185D01*
X93941047Y-32287909D01*
X93941047Y-32204452D01*
X93916857Y-32093176D01*
X93892666Y-32037538D01*
X93844285Y-31981900D01*
X93771714Y-31954080D01*
X93723333Y-31954080D01*
X93650761Y-31981900D01*
X93626571Y-32009719D01*
X93191142Y-31954080D02*
X93287904Y-31954080D01*
X93336285Y-31981900D01*
X93360476Y-32009719D01*
X93408857Y-32093176D01*
X93433047Y-32204452D01*
X93433047Y-32427004D01*
X93408857Y-32482642D01*
X93384666Y-32510461D01*
X93336285Y-32538280D01*
X93239523Y-32538280D01*
X93191142Y-32510461D01*
X93166952Y-32482642D01*
X93142761Y-32427004D01*
X93142761Y-32287909D01*
X93166952Y-32232271D01*
X93191142Y-32204452D01*
X93239523Y-32176633D01*
X93336285Y-32176633D01*
X93384666Y-32204452D01*
X93408857Y-32232271D01*
X93433047Y-32287909D01*
X92973428Y-31954080D02*
X92634761Y-31954080D01*
X92852476Y-32538280D01*
D13*
X93875171Y-33765809D02*
X93831628Y-33765809D01*
X93788085Y-33790000D01*
X93766314Y-33814190D01*
X93744542Y-33862571D01*
X93722771Y-33959333D01*
X93722771Y-34080285D01*
X93744542Y-34177047D01*
X93766314Y-34225428D01*
X93788085Y-34249619D01*
X93831628Y-34273809D01*
X93875171Y-34273809D01*
X93918714Y-34249619D01*
X93940485Y-34225428D01*
X93962257Y-34177047D01*
X93984028Y-34080285D01*
X93984028Y-33959333D01*
X93962257Y-33862571D01*
X93940485Y-33814190D01*
X93918714Y-33790000D01*
X93875171Y-33765809D01*
X93526828Y-34225428D02*
X93505057Y-34249619D01*
X93526828Y-34273809D01*
X93548600Y-34249619D01*
X93526828Y-34225428D01*
X93526828Y-34273809D01*
X93069628Y-34273809D02*
X93330885Y-34273809D01*
X93200257Y-34273809D02*
X93200257Y-33765809D01*
X93243800Y-33838380D01*
X93287342Y-33886761D01*
X93330885Y-33910952D01*
X92677742Y-33935142D02*
X92677742Y-34273809D01*
X92873685Y-33935142D02*
X92873685Y-34201238D01*
X92851914Y-34249619D01*
X92808371Y-34273809D01*
X92743057Y-34273809D01*
X92699514Y-34249619D01*
X92677742Y-34225428D01*
G04 #@! TO.C,C66*
D12*
X85426571Y-32512642D02*
X85450761Y-32540461D01*
X85523333Y-32568280D01*
X85571714Y-32568280D01*
X85644285Y-32540461D01*
X85692666Y-32484823D01*
X85716857Y-32429185D01*
X85741047Y-32317909D01*
X85741047Y-32234452D01*
X85716857Y-32123176D01*
X85692666Y-32067538D01*
X85644285Y-32011900D01*
X85571714Y-31984080D01*
X85523333Y-31984080D01*
X85450761Y-32011900D01*
X85426571Y-32039719D01*
X84991142Y-31984080D02*
X85087904Y-31984080D01*
X85136285Y-32011900D01*
X85160476Y-32039719D01*
X85208857Y-32123176D01*
X85233047Y-32234452D01*
X85233047Y-32457004D01*
X85208857Y-32512642D01*
X85184666Y-32540461D01*
X85136285Y-32568280D01*
X85039523Y-32568280D01*
X84991142Y-32540461D01*
X84966952Y-32512642D01*
X84942761Y-32457004D01*
X84942761Y-32317909D01*
X84966952Y-32262271D01*
X84991142Y-32234452D01*
X85039523Y-32206633D01*
X85136285Y-32206633D01*
X85184666Y-32234452D01*
X85208857Y-32262271D01*
X85233047Y-32317909D01*
X84507333Y-31984080D02*
X84604095Y-31984080D01*
X84652476Y-32011900D01*
X84676666Y-32039719D01*
X84725047Y-32123176D01*
X84749238Y-32234452D01*
X84749238Y-32457004D01*
X84725047Y-32512642D01*
X84700857Y-32540461D01*
X84652476Y-32568280D01*
X84555714Y-32568280D01*
X84507333Y-32540461D01*
X84483142Y-32512642D01*
X84458952Y-32457004D01*
X84458952Y-32317909D01*
X84483142Y-32262271D01*
X84507333Y-32234452D01*
X84555714Y-32206633D01*
X84652476Y-32206633D01*
X84700857Y-32234452D01*
X84725047Y-32262271D01*
X84749238Y-32317909D01*
D13*
X85685171Y-33755809D02*
X85641628Y-33755809D01*
X85598085Y-33780000D01*
X85576314Y-33804190D01*
X85554542Y-33852571D01*
X85532771Y-33949333D01*
X85532771Y-34070285D01*
X85554542Y-34167047D01*
X85576314Y-34215428D01*
X85598085Y-34239619D01*
X85641628Y-34263809D01*
X85685171Y-34263809D01*
X85728714Y-34239619D01*
X85750485Y-34215428D01*
X85772257Y-34167047D01*
X85794028Y-34070285D01*
X85794028Y-33949333D01*
X85772257Y-33852571D01*
X85750485Y-33804190D01*
X85728714Y-33780000D01*
X85685171Y-33755809D01*
X85336828Y-34215428D02*
X85315057Y-34239619D01*
X85336828Y-34263809D01*
X85358600Y-34239619D01*
X85336828Y-34215428D01*
X85336828Y-34263809D01*
X84879628Y-34263809D02*
X85140885Y-34263809D01*
X85010257Y-34263809D02*
X85010257Y-33755809D01*
X85053800Y-33828380D01*
X85097342Y-33876761D01*
X85140885Y-33900952D01*
X84487742Y-33925142D02*
X84487742Y-34263809D01*
X84683685Y-33925142D02*
X84683685Y-34191238D01*
X84661914Y-34239619D01*
X84618371Y-34263809D01*
X84553057Y-34263809D01*
X84509514Y-34239619D01*
X84487742Y-34215428D01*
G04 #@! TO.C,C64*
D12*
X98784571Y-32497642D02*
X98808761Y-32525461D01*
X98881333Y-32553280D01*
X98929714Y-32553280D01*
X99002285Y-32525461D01*
X99050666Y-32469823D01*
X99074857Y-32414185D01*
X99099047Y-32302909D01*
X99099047Y-32219452D01*
X99074857Y-32108176D01*
X99050666Y-32052538D01*
X99002285Y-31996900D01*
X98929714Y-31969080D01*
X98881333Y-31969080D01*
X98808761Y-31996900D01*
X98784571Y-32024719D01*
X98349142Y-31969080D02*
X98445904Y-31969080D01*
X98494285Y-31996900D01*
X98518476Y-32024719D01*
X98566857Y-32108176D01*
X98591047Y-32219452D01*
X98591047Y-32442004D01*
X98566857Y-32497642D01*
X98542666Y-32525461D01*
X98494285Y-32553280D01*
X98397523Y-32553280D01*
X98349142Y-32525461D01*
X98324952Y-32497642D01*
X98300761Y-32442004D01*
X98300761Y-32302909D01*
X98324952Y-32247271D01*
X98349142Y-32219452D01*
X98397523Y-32191633D01*
X98494285Y-32191633D01*
X98542666Y-32219452D01*
X98566857Y-32247271D01*
X98591047Y-32302909D01*
X97865333Y-32163814D02*
X97865333Y-32553280D01*
X97986285Y-31941261D02*
X98107238Y-32358547D01*
X97792761Y-32358547D01*
D13*
X98995171Y-33755809D02*
X98951628Y-33755809D01*
X98908085Y-33780000D01*
X98886314Y-33804190D01*
X98864542Y-33852571D01*
X98842771Y-33949333D01*
X98842771Y-34070285D01*
X98864542Y-34167047D01*
X98886314Y-34215428D01*
X98908085Y-34239619D01*
X98951628Y-34263809D01*
X98995171Y-34263809D01*
X99038714Y-34239619D01*
X99060485Y-34215428D01*
X99082257Y-34167047D01*
X99104028Y-34070285D01*
X99104028Y-33949333D01*
X99082257Y-33852571D01*
X99060485Y-33804190D01*
X99038714Y-33780000D01*
X98995171Y-33755809D01*
X98646828Y-34215428D02*
X98625057Y-34239619D01*
X98646828Y-34263809D01*
X98668600Y-34239619D01*
X98646828Y-34215428D01*
X98646828Y-34263809D01*
X98189628Y-34263809D02*
X98450885Y-34263809D01*
X98320257Y-34263809D02*
X98320257Y-33755809D01*
X98363800Y-33828380D01*
X98407342Y-33876761D01*
X98450885Y-33900952D01*
X97797742Y-33925142D02*
X97797742Y-34263809D01*
X97993685Y-33925142D02*
X97993685Y-34191238D01*
X97971914Y-34239619D01*
X97928371Y-34263809D01*
X97863057Y-34263809D01*
X97819514Y-34239619D01*
X97797742Y-34215428D01*
G04 #@! TO.C,C63*
D12*
X95406571Y-32482642D02*
X95430761Y-32510461D01*
X95503333Y-32538280D01*
X95551714Y-32538280D01*
X95624285Y-32510461D01*
X95672666Y-32454823D01*
X95696857Y-32399185D01*
X95721047Y-32287909D01*
X95721047Y-32204452D01*
X95696857Y-32093176D01*
X95672666Y-32037538D01*
X95624285Y-31981900D01*
X95551714Y-31954080D01*
X95503333Y-31954080D01*
X95430761Y-31981900D01*
X95406571Y-32009719D01*
X94971142Y-31954080D02*
X95067904Y-31954080D01*
X95116285Y-31981900D01*
X95140476Y-32009719D01*
X95188857Y-32093176D01*
X95213047Y-32204452D01*
X95213047Y-32427004D01*
X95188857Y-32482642D01*
X95164666Y-32510461D01*
X95116285Y-32538280D01*
X95019523Y-32538280D01*
X94971142Y-32510461D01*
X94946952Y-32482642D01*
X94922761Y-32427004D01*
X94922761Y-32287909D01*
X94946952Y-32232271D01*
X94971142Y-32204452D01*
X95019523Y-32176633D01*
X95116285Y-32176633D01*
X95164666Y-32204452D01*
X95188857Y-32232271D01*
X95213047Y-32287909D01*
X94753428Y-31954080D02*
X94438952Y-31954080D01*
X94608285Y-32176633D01*
X94535714Y-32176633D01*
X94487333Y-32204452D01*
X94463142Y-32232271D01*
X94438952Y-32287909D01*
X94438952Y-32427004D01*
X94463142Y-32482642D01*
X94487333Y-32510461D01*
X94535714Y-32538280D01*
X94680857Y-32538280D01*
X94729238Y-32510461D01*
X94753428Y-32482642D01*
D13*
X95605171Y-33755809D02*
X95561628Y-33755809D01*
X95518085Y-33780000D01*
X95496314Y-33804190D01*
X95474542Y-33852571D01*
X95452771Y-33949333D01*
X95452771Y-34070285D01*
X95474542Y-34167047D01*
X95496314Y-34215428D01*
X95518085Y-34239619D01*
X95561628Y-34263809D01*
X95605171Y-34263809D01*
X95648714Y-34239619D01*
X95670485Y-34215428D01*
X95692257Y-34167047D01*
X95714028Y-34070285D01*
X95714028Y-33949333D01*
X95692257Y-33852571D01*
X95670485Y-33804190D01*
X95648714Y-33780000D01*
X95605171Y-33755809D01*
X95256828Y-34215428D02*
X95235057Y-34239619D01*
X95256828Y-34263809D01*
X95278600Y-34239619D01*
X95256828Y-34215428D01*
X95256828Y-34263809D01*
X94799628Y-34263809D02*
X95060885Y-34263809D01*
X94930257Y-34263809D02*
X94930257Y-33755809D01*
X94973800Y-33828380D01*
X95017342Y-33876761D01*
X95060885Y-33900952D01*
X94407742Y-33925142D02*
X94407742Y-34263809D01*
X94603685Y-33925142D02*
X94603685Y-34191238D01*
X94581914Y-34239619D01*
X94538371Y-34263809D01*
X94473057Y-34263809D01*
X94429514Y-34239619D01*
X94407742Y-34215428D01*
G04 #@! TO.C,C62*
D12*
X89386571Y-32472642D02*
X89410761Y-32500461D01*
X89483333Y-32528280D01*
X89531714Y-32528280D01*
X89604285Y-32500461D01*
X89652666Y-32444823D01*
X89676857Y-32389185D01*
X89701047Y-32277909D01*
X89701047Y-32194452D01*
X89676857Y-32083176D01*
X89652666Y-32027538D01*
X89604285Y-31971900D01*
X89531714Y-31944080D01*
X89483333Y-31944080D01*
X89410761Y-31971900D01*
X89386571Y-31999719D01*
X88951142Y-31944080D02*
X89047904Y-31944080D01*
X89096285Y-31971900D01*
X89120476Y-31999719D01*
X89168857Y-32083176D01*
X89193047Y-32194452D01*
X89193047Y-32417004D01*
X89168857Y-32472642D01*
X89144666Y-32500461D01*
X89096285Y-32528280D01*
X88999523Y-32528280D01*
X88951142Y-32500461D01*
X88926952Y-32472642D01*
X88902761Y-32417004D01*
X88902761Y-32277909D01*
X88926952Y-32222271D01*
X88951142Y-32194452D01*
X88999523Y-32166633D01*
X89096285Y-32166633D01*
X89144666Y-32194452D01*
X89168857Y-32222271D01*
X89193047Y-32277909D01*
X88709238Y-31999719D02*
X88685047Y-31971900D01*
X88636666Y-31944080D01*
X88515714Y-31944080D01*
X88467333Y-31971900D01*
X88443142Y-31999719D01*
X88418952Y-32055357D01*
X88418952Y-32110995D01*
X88443142Y-32194452D01*
X88733428Y-32528280D01*
X88418952Y-32528280D01*
D13*
X89635171Y-33755809D02*
X89591628Y-33755809D01*
X89548085Y-33780000D01*
X89526314Y-33804190D01*
X89504542Y-33852571D01*
X89482771Y-33949333D01*
X89482771Y-34070285D01*
X89504542Y-34167047D01*
X89526314Y-34215428D01*
X89548085Y-34239619D01*
X89591628Y-34263809D01*
X89635171Y-34263809D01*
X89678714Y-34239619D01*
X89700485Y-34215428D01*
X89722257Y-34167047D01*
X89744028Y-34070285D01*
X89744028Y-33949333D01*
X89722257Y-33852571D01*
X89700485Y-33804190D01*
X89678714Y-33780000D01*
X89635171Y-33755809D01*
X89286828Y-34215428D02*
X89265057Y-34239619D01*
X89286828Y-34263809D01*
X89308600Y-34239619D01*
X89286828Y-34215428D01*
X89286828Y-34263809D01*
X88829628Y-34263809D02*
X89090885Y-34263809D01*
X88960257Y-34263809D02*
X88960257Y-33755809D01*
X89003800Y-33828380D01*
X89047342Y-33876761D01*
X89090885Y-33900952D01*
X88437742Y-33925142D02*
X88437742Y-34263809D01*
X88633685Y-33925142D02*
X88633685Y-34191238D01*
X88611914Y-34239619D01*
X88568371Y-34263809D01*
X88503057Y-34263809D01*
X88459514Y-34239619D01*
X88437742Y-34215428D01*
G04 #@! TO.C,C61*
D12*
X83476571Y-32502642D02*
X83500761Y-32530461D01*
X83573333Y-32558280D01*
X83621714Y-32558280D01*
X83694285Y-32530461D01*
X83742666Y-32474823D01*
X83766857Y-32419185D01*
X83791047Y-32307909D01*
X83791047Y-32224452D01*
X83766857Y-32113176D01*
X83742666Y-32057538D01*
X83694285Y-32001900D01*
X83621714Y-31974080D01*
X83573333Y-31974080D01*
X83500761Y-32001900D01*
X83476571Y-32029719D01*
X83041142Y-31974080D02*
X83137904Y-31974080D01*
X83186285Y-32001900D01*
X83210476Y-32029719D01*
X83258857Y-32113176D01*
X83283047Y-32224452D01*
X83283047Y-32447004D01*
X83258857Y-32502642D01*
X83234666Y-32530461D01*
X83186285Y-32558280D01*
X83089523Y-32558280D01*
X83041142Y-32530461D01*
X83016952Y-32502642D01*
X82992761Y-32447004D01*
X82992761Y-32307909D01*
X83016952Y-32252271D01*
X83041142Y-32224452D01*
X83089523Y-32196633D01*
X83186285Y-32196633D01*
X83234666Y-32224452D01*
X83258857Y-32252271D01*
X83283047Y-32307909D01*
X82508952Y-32558280D02*
X82799238Y-32558280D01*
X82654095Y-32558280D02*
X82654095Y-31974080D01*
X82702476Y-32057538D01*
X82750857Y-32113176D01*
X82799238Y-32140995D01*
D13*
X83675171Y-33755809D02*
X83631628Y-33755809D01*
X83588085Y-33780000D01*
X83566314Y-33804190D01*
X83544542Y-33852571D01*
X83522771Y-33949333D01*
X83522771Y-34070285D01*
X83544542Y-34167047D01*
X83566314Y-34215428D01*
X83588085Y-34239619D01*
X83631628Y-34263809D01*
X83675171Y-34263809D01*
X83718714Y-34239619D01*
X83740485Y-34215428D01*
X83762257Y-34167047D01*
X83784028Y-34070285D01*
X83784028Y-33949333D01*
X83762257Y-33852571D01*
X83740485Y-33804190D01*
X83718714Y-33780000D01*
X83675171Y-33755809D01*
X83326828Y-34215428D02*
X83305057Y-34239619D01*
X83326828Y-34263809D01*
X83348600Y-34239619D01*
X83326828Y-34215428D01*
X83326828Y-34263809D01*
X82869628Y-34263809D02*
X83130885Y-34263809D01*
X83000257Y-34263809D02*
X83000257Y-33755809D01*
X83043800Y-33828380D01*
X83087342Y-33876761D01*
X83130885Y-33900952D01*
X82477742Y-33925142D02*
X82477742Y-34263809D01*
X82673685Y-33925142D02*
X82673685Y-34191238D01*
X82651914Y-34239619D01*
X82608371Y-34263809D01*
X82543057Y-34263809D01*
X82499514Y-34239619D01*
X82477742Y-34215428D01*
G04 #@! TO.C,C59*
D12*
X103898642Y-37737428D02*
X103926461Y-37713238D01*
X103954280Y-37640666D01*
X103954280Y-37592285D01*
X103926461Y-37519714D01*
X103870823Y-37471333D01*
X103815185Y-37447142D01*
X103703909Y-37422952D01*
X103620452Y-37422952D01*
X103509176Y-37447142D01*
X103453538Y-37471333D01*
X103397900Y-37519714D01*
X103370080Y-37592285D01*
X103370080Y-37640666D01*
X103397900Y-37713238D01*
X103425719Y-37737428D01*
X103370080Y-38197047D02*
X103370080Y-37955142D01*
X103648271Y-37930952D01*
X103620452Y-37955142D01*
X103592633Y-38003523D01*
X103592633Y-38124476D01*
X103620452Y-38172857D01*
X103648271Y-38197047D01*
X103703909Y-38221238D01*
X103843004Y-38221238D01*
X103898642Y-38197047D01*
X103926461Y-38172857D01*
X103954280Y-38124476D01*
X103954280Y-38003523D01*
X103926461Y-37955142D01*
X103898642Y-37930952D01*
X103954280Y-38463142D02*
X103954280Y-38559904D01*
X103926461Y-38608285D01*
X103898642Y-38632476D01*
X103815185Y-38680857D01*
X103703909Y-38705047D01*
X103481357Y-38705047D01*
X103425719Y-38680857D01*
X103397900Y-38656666D01*
X103370080Y-38608285D01*
X103370080Y-38511523D01*
X103397900Y-38463142D01*
X103425719Y-38438952D01*
X103481357Y-38414761D01*
X103620452Y-38414761D01*
X103676090Y-38438952D01*
X103703909Y-38463142D01*
X103731728Y-38511523D01*
X103731728Y-38608285D01*
X103703909Y-38656666D01*
X103676090Y-38680857D01*
X103620452Y-38705047D01*
D13*
X101621809Y-37518828D02*
X101621809Y-37562371D01*
X101646000Y-37605914D01*
X101670190Y-37627685D01*
X101718571Y-37649457D01*
X101815333Y-37671228D01*
X101936285Y-37671228D01*
X102033047Y-37649457D01*
X102081428Y-37627685D01*
X102105619Y-37605914D01*
X102129809Y-37562371D01*
X102129809Y-37518828D01*
X102105619Y-37475285D01*
X102081428Y-37453514D01*
X102033047Y-37431742D01*
X101936285Y-37409971D01*
X101815333Y-37409971D01*
X101718571Y-37431742D01*
X101670190Y-37453514D01*
X101646000Y-37475285D01*
X101621809Y-37518828D01*
X102081428Y-37867171D02*
X102105619Y-37888942D01*
X102129809Y-37867171D01*
X102105619Y-37845400D01*
X102081428Y-37867171D01*
X102129809Y-37867171D01*
X102129809Y-38324371D02*
X102129809Y-38063114D01*
X102129809Y-38193742D02*
X101621809Y-38193742D01*
X101694380Y-38150200D01*
X101742761Y-38106657D01*
X101766952Y-38063114D01*
X101791142Y-38716257D02*
X102129809Y-38716257D01*
X101791142Y-38520314D02*
X102057238Y-38520314D01*
X102105619Y-38542085D01*
X102129809Y-38585628D01*
X102129809Y-38650942D01*
X102105619Y-38694485D01*
X102081428Y-38716257D01*
G04 #@! TO.C,C58*
D12*
X77738642Y-39357428D02*
X77766461Y-39333238D01*
X77794280Y-39260666D01*
X77794280Y-39212285D01*
X77766461Y-39139714D01*
X77710823Y-39091333D01*
X77655185Y-39067142D01*
X77543909Y-39042952D01*
X77460452Y-39042952D01*
X77349176Y-39067142D01*
X77293538Y-39091333D01*
X77237900Y-39139714D01*
X77210080Y-39212285D01*
X77210080Y-39260666D01*
X77237900Y-39333238D01*
X77265719Y-39357428D01*
X77210080Y-39817047D02*
X77210080Y-39575142D01*
X77488271Y-39550952D01*
X77460452Y-39575142D01*
X77432633Y-39623523D01*
X77432633Y-39744476D01*
X77460452Y-39792857D01*
X77488271Y-39817047D01*
X77543909Y-39841238D01*
X77683004Y-39841238D01*
X77738642Y-39817047D01*
X77766461Y-39792857D01*
X77794280Y-39744476D01*
X77794280Y-39623523D01*
X77766461Y-39575142D01*
X77738642Y-39550952D01*
X77460452Y-40131523D02*
X77432633Y-40083142D01*
X77404814Y-40058952D01*
X77349176Y-40034761D01*
X77321357Y-40034761D01*
X77265719Y-40058952D01*
X77237900Y-40083142D01*
X77210080Y-40131523D01*
X77210080Y-40228285D01*
X77237900Y-40276666D01*
X77265719Y-40300857D01*
X77321357Y-40325047D01*
X77349176Y-40325047D01*
X77404814Y-40300857D01*
X77432633Y-40276666D01*
X77460452Y-40228285D01*
X77460452Y-40131523D01*
X77488271Y-40083142D01*
X77516090Y-40058952D01*
X77571728Y-40034761D01*
X77683004Y-40034761D01*
X77738642Y-40058952D01*
X77766461Y-40083142D01*
X77794280Y-40131523D01*
X77794280Y-40228285D01*
X77766461Y-40276666D01*
X77738642Y-40300857D01*
X77683004Y-40325047D01*
X77571728Y-40325047D01*
X77516090Y-40300857D01*
X77488271Y-40276666D01*
X77460452Y-40228285D01*
D13*
X79001809Y-39138828D02*
X79001809Y-39182371D01*
X79026000Y-39225914D01*
X79050190Y-39247685D01*
X79098571Y-39269457D01*
X79195333Y-39291228D01*
X79316285Y-39291228D01*
X79413047Y-39269457D01*
X79461428Y-39247685D01*
X79485619Y-39225914D01*
X79509809Y-39182371D01*
X79509809Y-39138828D01*
X79485619Y-39095285D01*
X79461428Y-39073514D01*
X79413047Y-39051742D01*
X79316285Y-39029971D01*
X79195333Y-39029971D01*
X79098571Y-39051742D01*
X79050190Y-39073514D01*
X79026000Y-39095285D01*
X79001809Y-39138828D01*
X79461428Y-39487171D02*
X79485619Y-39508942D01*
X79509809Y-39487171D01*
X79485619Y-39465400D01*
X79461428Y-39487171D01*
X79509809Y-39487171D01*
X79509809Y-39944371D02*
X79509809Y-39683114D01*
X79509809Y-39813742D02*
X79001809Y-39813742D01*
X79074380Y-39770200D01*
X79122761Y-39726657D01*
X79146952Y-39683114D01*
X79171142Y-40336257D02*
X79509809Y-40336257D01*
X79171142Y-40140314D02*
X79437238Y-40140314D01*
X79485619Y-40162085D01*
X79509809Y-40205628D01*
X79509809Y-40270942D01*
X79485619Y-40314485D01*
X79461428Y-40336257D01*
G04 #@! TO.C,C57*
D12*
X77768642Y-40977428D02*
X77796461Y-40953238D01*
X77824280Y-40880666D01*
X77824280Y-40832285D01*
X77796461Y-40759714D01*
X77740823Y-40711333D01*
X77685185Y-40687142D01*
X77573909Y-40662952D01*
X77490452Y-40662952D01*
X77379176Y-40687142D01*
X77323538Y-40711333D01*
X77267900Y-40759714D01*
X77240080Y-40832285D01*
X77240080Y-40880666D01*
X77267900Y-40953238D01*
X77295719Y-40977428D01*
X77240080Y-41437047D02*
X77240080Y-41195142D01*
X77518271Y-41170952D01*
X77490452Y-41195142D01*
X77462633Y-41243523D01*
X77462633Y-41364476D01*
X77490452Y-41412857D01*
X77518271Y-41437047D01*
X77573909Y-41461238D01*
X77713004Y-41461238D01*
X77768642Y-41437047D01*
X77796461Y-41412857D01*
X77824280Y-41364476D01*
X77824280Y-41243523D01*
X77796461Y-41195142D01*
X77768642Y-41170952D01*
X77240080Y-41630571D02*
X77240080Y-41969238D01*
X77824280Y-41751523D01*
D13*
X79001809Y-40758828D02*
X79001809Y-40802371D01*
X79026000Y-40845914D01*
X79050190Y-40867685D01*
X79098571Y-40889457D01*
X79195333Y-40911228D01*
X79316285Y-40911228D01*
X79413047Y-40889457D01*
X79461428Y-40867685D01*
X79485619Y-40845914D01*
X79509809Y-40802371D01*
X79509809Y-40758828D01*
X79485619Y-40715285D01*
X79461428Y-40693514D01*
X79413047Y-40671742D01*
X79316285Y-40649971D01*
X79195333Y-40649971D01*
X79098571Y-40671742D01*
X79050190Y-40693514D01*
X79026000Y-40715285D01*
X79001809Y-40758828D01*
X79461428Y-41107171D02*
X79485619Y-41128942D01*
X79509809Y-41107171D01*
X79485619Y-41085400D01*
X79461428Y-41107171D01*
X79509809Y-41107171D01*
X79509809Y-41564371D02*
X79509809Y-41303114D01*
X79509809Y-41433742D02*
X79001809Y-41433742D01*
X79074380Y-41390200D01*
X79122761Y-41346657D01*
X79146952Y-41303114D01*
X79171142Y-41956257D02*
X79509809Y-41956257D01*
X79171142Y-41760314D02*
X79437238Y-41760314D01*
X79485619Y-41782085D01*
X79509809Y-41825628D01*
X79509809Y-41890942D01*
X79485619Y-41934485D01*
X79461428Y-41956257D01*
G04 #@! TO.C,C54*
D12*
X77778642Y-44297428D02*
X77806461Y-44273238D01*
X77834280Y-44200666D01*
X77834280Y-44152285D01*
X77806461Y-44079714D01*
X77750823Y-44031333D01*
X77695185Y-44007142D01*
X77583909Y-43982952D01*
X77500452Y-43982952D01*
X77389176Y-44007142D01*
X77333538Y-44031333D01*
X77277900Y-44079714D01*
X77250080Y-44152285D01*
X77250080Y-44200666D01*
X77277900Y-44273238D01*
X77305719Y-44297428D01*
X77250080Y-44757047D02*
X77250080Y-44515142D01*
X77528271Y-44490952D01*
X77500452Y-44515142D01*
X77472633Y-44563523D01*
X77472633Y-44684476D01*
X77500452Y-44732857D01*
X77528271Y-44757047D01*
X77583909Y-44781238D01*
X77723004Y-44781238D01*
X77778642Y-44757047D01*
X77806461Y-44732857D01*
X77834280Y-44684476D01*
X77834280Y-44563523D01*
X77806461Y-44515142D01*
X77778642Y-44490952D01*
X77444814Y-45216666D02*
X77834280Y-45216666D01*
X77222261Y-45095714D02*
X77639547Y-44974761D01*
X77639547Y-45289238D01*
D13*
X79001809Y-44128828D02*
X79001809Y-44172371D01*
X79026000Y-44215914D01*
X79050190Y-44237685D01*
X79098571Y-44259457D01*
X79195333Y-44281228D01*
X79316285Y-44281228D01*
X79413047Y-44259457D01*
X79461428Y-44237685D01*
X79485619Y-44215914D01*
X79509809Y-44172371D01*
X79509809Y-44128828D01*
X79485619Y-44085285D01*
X79461428Y-44063514D01*
X79413047Y-44041742D01*
X79316285Y-44019971D01*
X79195333Y-44019971D01*
X79098571Y-44041742D01*
X79050190Y-44063514D01*
X79026000Y-44085285D01*
X79001809Y-44128828D01*
X79461428Y-44477171D02*
X79485619Y-44498942D01*
X79509809Y-44477171D01*
X79485619Y-44455400D01*
X79461428Y-44477171D01*
X79509809Y-44477171D01*
X79509809Y-44934371D02*
X79509809Y-44673114D01*
X79509809Y-44803742D02*
X79001809Y-44803742D01*
X79074380Y-44760200D01*
X79122761Y-44716657D01*
X79146952Y-44673114D01*
X79171142Y-45326257D02*
X79509809Y-45326257D01*
X79171142Y-45130314D02*
X79437238Y-45130314D01*
X79485619Y-45152085D01*
X79509809Y-45195628D01*
X79509809Y-45260942D01*
X79485619Y-45304485D01*
X79461428Y-45326257D01*
G04 #@! TO.C,C53*
D12*
X103879642Y-44538428D02*
X103907461Y-44514238D01*
X103935280Y-44441666D01*
X103935280Y-44393285D01*
X103907461Y-44320714D01*
X103851823Y-44272333D01*
X103796185Y-44248142D01*
X103684909Y-44223952D01*
X103601452Y-44223952D01*
X103490176Y-44248142D01*
X103434538Y-44272333D01*
X103378900Y-44320714D01*
X103351080Y-44393285D01*
X103351080Y-44441666D01*
X103378900Y-44514238D01*
X103406719Y-44538428D01*
X103351080Y-44998047D02*
X103351080Y-44756142D01*
X103629271Y-44731952D01*
X103601452Y-44756142D01*
X103573633Y-44804523D01*
X103573633Y-44925476D01*
X103601452Y-44973857D01*
X103629271Y-44998047D01*
X103684909Y-45022238D01*
X103824004Y-45022238D01*
X103879642Y-44998047D01*
X103907461Y-44973857D01*
X103935280Y-44925476D01*
X103935280Y-44804523D01*
X103907461Y-44756142D01*
X103879642Y-44731952D01*
X103351080Y-45191571D02*
X103351080Y-45506047D01*
X103573633Y-45336714D01*
X103573633Y-45409285D01*
X103601452Y-45457666D01*
X103629271Y-45481857D01*
X103684909Y-45506047D01*
X103824004Y-45506047D01*
X103879642Y-45481857D01*
X103907461Y-45457666D01*
X103935280Y-45409285D01*
X103935280Y-45264142D01*
X103907461Y-45215761D01*
X103879642Y-45191571D01*
D13*
X101621809Y-44338828D02*
X101621809Y-44382371D01*
X101646000Y-44425914D01*
X101670190Y-44447685D01*
X101718571Y-44469457D01*
X101815333Y-44491228D01*
X101936285Y-44491228D01*
X102033047Y-44469457D01*
X102081428Y-44447685D01*
X102105619Y-44425914D01*
X102129809Y-44382371D01*
X102129809Y-44338828D01*
X102105619Y-44295285D01*
X102081428Y-44273514D01*
X102033047Y-44251742D01*
X101936285Y-44229971D01*
X101815333Y-44229971D01*
X101718571Y-44251742D01*
X101670190Y-44273514D01*
X101646000Y-44295285D01*
X101621809Y-44338828D01*
X102081428Y-44687171D02*
X102105619Y-44708942D01*
X102129809Y-44687171D01*
X102105619Y-44665400D01*
X102081428Y-44687171D01*
X102129809Y-44687171D01*
X102129809Y-45144371D02*
X102129809Y-44883114D01*
X102129809Y-45013742D02*
X101621809Y-45013742D01*
X101694380Y-44970200D01*
X101742761Y-44926657D01*
X101766952Y-44883114D01*
X101791142Y-45536257D02*
X102129809Y-45536257D01*
X101791142Y-45340314D02*
X102057238Y-45340314D01*
X102105619Y-45362085D01*
X102129809Y-45405628D01*
X102129809Y-45470942D01*
X102105619Y-45514485D01*
X102081428Y-45536257D01*
G04 #@! TO.C,C51*
D12*
X103918642Y-48097428D02*
X103946461Y-48073238D01*
X103974280Y-48000666D01*
X103974280Y-47952285D01*
X103946461Y-47879714D01*
X103890823Y-47831333D01*
X103835185Y-47807142D01*
X103723909Y-47782952D01*
X103640452Y-47782952D01*
X103529176Y-47807142D01*
X103473538Y-47831333D01*
X103417900Y-47879714D01*
X103390080Y-47952285D01*
X103390080Y-48000666D01*
X103417900Y-48073238D01*
X103445719Y-48097428D01*
X103390080Y-48557047D02*
X103390080Y-48315142D01*
X103668271Y-48290952D01*
X103640452Y-48315142D01*
X103612633Y-48363523D01*
X103612633Y-48484476D01*
X103640452Y-48532857D01*
X103668271Y-48557047D01*
X103723909Y-48581238D01*
X103863004Y-48581238D01*
X103918642Y-48557047D01*
X103946461Y-48532857D01*
X103974280Y-48484476D01*
X103974280Y-48363523D01*
X103946461Y-48315142D01*
X103918642Y-48290952D01*
X103974280Y-49065047D02*
X103974280Y-48774761D01*
X103974280Y-48919904D02*
X103390080Y-48919904D01*
X103473538Y-48871523D01*
X103529176Y-48823142D01*
X103556995Y-48774761D01*
D13*
X101621809Y-47858828D02*
X101621809Y-47902371D01*
X101646000Y-47945914D01*
X101670190Y-47967685D01*
X101718571Y-47989457D01*
X101815333Y-48011228D01*
X101936285Y-48011228D01*
X102033047Y-47989457D01*
X102081428Y-47967685D01*
X102105619Y-47945914D01*
X102129809Y-47902371D01*
X102129809Y-47858828D01*
X102105619Y-47815285D01*
X102081428Y-47793514D01*
X102033047Y-47771742D01*
X101936285Y-47749971D01*
X101815333Y-47749971D01*
X101718571Y-47771742D01*
X101670190Y-47793514D01*
X101646000Y-47815285D01*
X101621809Y-47858828D01*
X102081428Y-48207171D02*
X102105619Y-48228942D01*
X102129809Y-48207171D01*
X102105619Y-48185400D01*
X102081428Y-48207171D01*
X102129809Y-48207171D01*
X102129809Y-48664371D02*
X102129809Y-48403114D01*
X102129809Y-48533742D02*
X101621809Y-48533742D01*
X101694380Y-48490200D01*
X101742761Y-48446657D01*
X101766952Y-48403114D01*
X101791142Y-49056257D02*
X102129809Y-49056257D01*
X101791142Y-48860314D02*
X102057238Y-48860314D01*
X102105619Y-48882085D01*
X102129809Y-48925628D01*
X102129809Y-48990942D01*
X102105619Y-49034485D01*
X102081428Y-49056257D01*
G04 #@! TO.C,C50*
D12*
X77718642Y-49957428D02*
X77746461Y-49933238D01*
X77774280Y-49860666D01*
X77774280Y-49812285D01*
X77746461Y-49739714D01*
X77690823Y-49691333D01*
X77635185Y-49667142D01*
X77523909Y-49642952D01*
X77440452Y-49642952D01*
X77329176Y-49667142D01*
X77273538Y-49691333D01*
X77217900Y-49739714D01*
X77190080Y-49812285D01*
X77190080Y-49860666D01*
X77217900Y-49933238D01*
X77245719Y-49957428D01*
X77190080Y-50417047D02*
X77190080Y-50175142D01*
X77468271Y-50150952D01*
X77440452Y-50175142D01*
X77412633Y-50223523D01*
X77412633Y-50344476D01*
X77440452Y-50392857D01*
X77468271Y-50417047D01*
X77523909Y-50441238D01*
X77663004Y-50441238D01*
X77718642Y-50417047D01*
X77746461Y-50392857D01*
X77774280Y-50344476D01*
X77774280Y-50223523D01*
X77746461Y-50175142D01*
X77718642Y-50150952D01*
X77190080Y-50755714D02*
X77190080Y-50804095D01*
X77217900Y-50852476D01*
X77245719Y-50876666D01*
X77301357Y-50900857D01*
X77412633Y-50925047D01*
X77551728Y-50925047D01*
X77663004Y-50900857D01*
X77718642Y-50876666D01*
X77746461Y-50852476D01*
X77774280Y-50804095D01*
X77774280Y-50755714D01*
X77746461Y-50707333D01*
X77718642Y-50683142D01*
X77663004Y-50658952D01*
X77551728Y-50634761D01*
X77412633Y-50634761D01*
X77301357Y-50658952D01*
X77245719Y-50683142D01*
X77217900Y-50707333D01*
X77190080Y-50755714D01*
D13*
X79011809Y-49778828D02*
X79011809Y-49822371D01*
X79036000Y-49865914D01*
X79060190Y-49887685D01*
X79108571Y-49909457D01*
X79205333Y-49931228D01*
X79326285Y-49931228D01*
X79423047Y-49909457D01*
X79471428Y-49887685D01*
X79495619Y-49865914D01*
X79519809Y-49822371D01*
X79519809Y-49778828D01*
X79495619Y-49735285D01*
X79471428Y-49713514D01*
X79423047Y-49691742D01*
X79326285Y-49669971D01*
X79205333Y-49669971D01*
X79108571Y-49691742D01*
X79060190Y-49713514D01*
X79036000Y-49735285D01*
X79011809Y-49778828D01*
X79471428Y-50127171D02*
X79495619Y-50148942D01*
X79519809Y-50127171D01*
X79495619Y-50105400D01*
X79471428Y-50127171D01*
X79519809Y-50127171D01*
X79519809Y-50584371D02*
X79519809Y-50323114D01*
X79519809Y-50453742D02*
X79011809Y-50453742D01*
X79084380Y-50410200D01*
X79132761Y-50366657D01*
X79156952Y-50323114D01*
X79181142Y-50976257D02*
X79519809Y-50976257D01*
X79181142Y-50780314D02*
X79447238Y-50780314D01*
X79495619Y-50802085D01*
X79519809Y-50845628D01*
X79519809Y-50910942D01*
X79495619Y-50954485D01*
X79471428Y-50976257D01*
G04 #@! TO.C,C48*
D12*
X103908642Y-52437428D02*
X103936461Y-52413238D01*
X103964280Y-52340666D01*
X103964280Y-52292285D01*
X103936461Y-52219714D01*
X103880823Y-52171333D01*
X103825185Y-52147142D01*
X103713909Y-52122952D01*
X103630452Y-52122952D01*
X103519176Y-52147142D01*
X103463538Y-52171333D01*
X103407900Y-52219714D01*
X103380080Y-52292285D01*
X103380080Y-52340666D01*
X103407900Y-52413238D01*
X103435719Y-52437428D01*
X103574814Y-52872857D02*
X103964280Y-52872857D01*
X103352261Y-52751904D02*
X103769547Y-52630952D01*
X103769547Y-52945428D01*
X103630452Y-53211523D02*
X103602633Y-53163142D01*
X103574814Y-53138952D01*
X103519176Y-53114761D01*
X103491357Y-53114761D01*
X103435719Y-53138952D01*
X103407900Y-53163142D01*
X103380080Y-53211523D01*
X103380080Y-53308285D01*
X103407900Y-53356666D01*
X103435719Y-53380857D01*
X103491357Y-53405047D01*
X103519176Y-53405047D01*
X103574814Y-53380857D01*
X103602633Y-53356666D01*
X103630452Y-53308285D01*
X103630452Y-53211523D01*
X103658271Y-53163142D01*
X103686090Y-53138952D01*
X103741728Y-53114761D01*
X103853004Y-53114761D01*
X103908642Y-53138952D01*
X103936461Y-53163142D01*
X103964280Y-53211523D01*
X103964280Y-53308285D01*
X103936461Y-53356666D01*
X103908642Y-53380857D01*
X103853004Y-53405047D01*
X103741728Y-53405047D01*
X103686090Y-53380857D01*
X103658271Y-53356666D01*
X103630452Y-53308285D01*
D13*
X101611809Y-52178828D02*
X101611809Y-52222371D01*
X101636000Y-52265914D01*
X101660190Y-52287685D01*
X101708571Y-52309457D01*
X101805333Y-52331228D01*
X101926285Y-52331228D01*
X102023047Y-52309457D01*
X102071428Y-52287685D01*
X102095619Y-52265914D01*
X102119809Y-52222371D01*
X102119809Y-52178828D01*
X102095619Y-52135285D01*
X102071428Y-52113514D01*
X102023047Y-52091742D01*
X101926285Y-52069971D01*
X101805333Y-52069971D01*
X101708571Y-52091742D01*
X101660190Y-52113514D01*
X101636000Y-52135285D01*
X101611809Y-52178828D01*
X102071428Y-52527171D02*
X102095619Y-52548942D01*
X102119809Y-52527171D01*
X102095619Y-52505400D01*
X102071428Y-52527171D01*
X102119809Y-52527171D01*
X102119809Y-52984371D02*
X102119809Y-52723114D01*
X102119809Y-52853742D02*
X101611809Y-52853742D01*
X101684380Y-52810200D01*
X101732761Y-52766657D01*
X101756952Y-52723114D01*
X101781142Y-53376257D02*
X102119809Y-53376257D01*
X101781142Y-53180314D02*
X102047238Y-53180314D01*
X102095619Y-53202085D01*
X102119809Y-53245628D01*
X102119809Y-53310942D01*
X102095619Y-53354485D01*
X102071428Y-53376257D01*
G04 #@! TO.C,C46*
D12*
X99796571Y-58598642D02*
X99820761Y-58626461D01*
X99893333Y-58654280D01*
X99941714Y-58654280D01*
X100014285Y-58626461D01*
X100062666Y-58570823D01*
X100086857Y-58515185D01*
X100111047Y-58403909D01*
X100111047Y-58320452D01*
X100086857Y-58209176D01*
X100062666Y-58153538D01*
X100014285Y-58097900D01*
X99941714Y-58070080D01*
X99893333Y-58070080D01*
X99820761Y-58097900D01*
X99796571Y-58125719D01*
X99361142Y-58264814D02*
X99361142Y-58654280D01*
X99482095Y-58042261D02*
X99603047Y-58459547D01*
X99288571Y-58459547D01*
X98877333Y-58070080D02*
X98974095Y-58070080D01*
X99022476Y-58097900D01*
X99046666Y-58125719D01*
X99095047Y-58209176D01*
X99119238Y-58320452D01*
X99119238Y-58543004D01*
X99095047Y-58598642D01*
X99070857Y-58626461D01*
X99022476Y-58654280D01*
X98925714Y-58654280D01*
X98877333Y-58626461D01*
X98853142Y-58598642D01*
X98828952Y-58543004D01*
X98828952Y-58403909D01*
X98853142Y-58348271D01*
X98877333Y-58320452D01*
X98925714Y-58292633D01*
X99022476Y-58292633D01*
X99070857Y-58320452D01*
X99095047Y-58348271D01*
X99119238Y-58403909D01*
D13*
X100015171Y-56351809D02*
X99971628Y-56351809D01*
X99928085Y-56376000D01*
X99906314Y-56400190D01*
X99884542Y-56448571D01*
X99862771Y-56545333D01*
X99862771Y-56666285D01*
X99884542Y-56763047D01*
X99906314Y-56811428D01*
X99928085Y-56835619D01*
X99971628Y-56859809D01*
X100015171Y-56859809D01*
X100058714Y-56835619D01*
X100080485Y-56811428D01*
X100102257Y-56763047D01*
X100124028Y-56666285D01*
X100124028Y-56545333D01*
X100102257Y-56448571D01*
X100080485Y-56400190D01*
X100058714Y-56376000D01*
X100015171Y-56351809D01*
X99666828Y-56811428D02*
X99645057Y-56835619D01*
X99666828Y-56859809D01*
X99688600Y-56835619D01*
X99666828Y-56811428D01*
X99666828Y-56859809D01*
X99209628Y-56859809D02*
X99470885Y-56859809D01*
X99340257Y-56859809D02*
X99340257Y-56351809D01*
X99383800Y-56424380D01*
X99427342Y-56472761D01*
X99470885Y-56496952D01*
X98817742Y-56521142D02*
X98817742Y-56859809D01*
X99013685Y-56521142D02*
X99013685Y-56787238D01*
X98991914Y-56835619D01*
X98948371Y-56859809D01*
X98883057Y-56859809D01*
X98839514Y-56835619D01*
X98817742Y-56811428D01*
G04 #@! TO.C,C45*
D12*
X94416571Y-58658642D02*
X94440761Y-58686461D01*
X94513333Y-58714280D01*
X94561714Y-58714280D01*
X94634285Y-58686461D01*
X94682666Y-58630823D01*
X94706857Y-58575185D01*
X94731047Y-58463909D01*
X94731047Y-58380452D01*
X94706857Y-58269176D01*
X94682666Y-58213538D01*
X94634285Y-58157900D01*
X94561714Y-58130080D01*
X94513333Y-58130080D01*
X94440761Y-58157900D01*
X94416571Y-58185719D01*
X93981142Y-58324814D02*
X93981142Y-58714280D01*
X94102095Y-58102261D02*
X94223047Y-58519547D01*
X93908571Y-58519547D01*
X93473142Y-58130080D02*
X93715047Y-58130080D01*
X93739238Y-58408271D01*
X93715047Y-58380452D01*
X93666666Y-58352633D01*
X93545714Y-58352633D01*
X93497333Y-58380452D01*
X93473142Y-58408271D01*
X93448952Y-58463909D01*
X93448952Y-58603004D01*
X93473142Y-58658642D01*
X93497333Y-58686461D01*
X93545714Y-58714280D01*
X93666666Y-58714280D01*
X93715047Y-58686461D01*
X93739238Y-58658642D01*
D13*
X94545171Y-56351809D02*
X94501628Y-56351809D01*
X94458085Y-56376000D01*
X94436314Y-56400190D01*
X94414542Y-56448571D01*
X94392771Y-56545333D01*
X94392771Y-56666285D01*
X94414542Y-56763047D01*
X94436314Y-56811428D01*
X94458085Y-56835619D01*
X94501628Y-56859809D01*
X94545171Y-56859809D01*
X94588714Y-56835619D01*
X94610485Y-56811428D01*
X94632257Y-56763047D01*
X94654028Y-56666285D01*
X94654028Y-56545333D01*
X94632257Y-56448571D01*
X94610485Y-56400190D01*
X94588714Y-56376000D01*
X94545171Y-56351809D01*
X94196828Y-56811428D02*
X94175057Y-56835619D01*
X94196828Y-56859809D01*
X94218600Y-56835619D01*
X94196828Y-56811428D01*
X94196828Y-56859809D01*
X93739628Y-56859809D02*
X94000885Y-56859809D01*
X93870257Y-56859809D02*
X93870257Y-56351809D01*
X93913800Y-56424380D01*
X93957342Y-56472761D01*
X94000885Y-56496952D01*
X93347742Y-56521142D02*
X93347742Y-56859809D01*
X93543685Y-56521142D02*
X93543685Y-56787238D01*
X93521914Y-56835619D01*
X93478371Y-56859809D01*
X93413057Y-56859809D01*
X93369514Y-56835619D01*
X93347742Y-56811428D01*
G04 #@! TO.C,C44*
D12*
X82666571Y-58572642D02*
X82690761Y-58600461D01*
X82763333Y-58628280D01*
X82811714Y-58628280D01*
X82884285Y-58600461D01*
X82932666Y-58544823D01*
X82956857Y-58489185D01*
X82981047Y-58377909D01*
X82981047Y-58294452D01*
X82956857Y-58183176D01*
X82932666Y-58127538D01*
X82884285Y-58071900D01*
X82811714Y-58044080D01*
X82763333Y-58044080D01*
X82690761Y-58071900D01*
X82666571Y-58099719D01*
X82231142Y-58238814D02*
X82231142Y-58628280D01*
X82352095Y-58016261D02*
X82473047Y-58433547D01*
X82158571Y-58433547D01*
X81747333Y-58238814D02*
X81747333Y-58628280D01*
X81868285Y-58016261D02*
X81989238Y-58433547D01*
X81674761Y-58433547D01*
D13*
X82915171Y-56395809D02*
X82871628Y-56395809D01*
X82828085Y-56420000D01*
X82806314Y-56444190D01*
X82784542Y-56492571D01*
X82762771Y-56589333D01*
X82762771Y-56710285D01*
X82784542Y-56807047D01*
X82806314Y-56855428D01*
X82828085Y-56879619D01*
X82871628Y-56903809D01*
X82915171Y-56903809D01*
X82958714Y-56879619D01*
X82980485Y-56855428D01*
X83002257Y-56807047D01*
X83024028Y-56710285D01*
X83024028Y-56589333D01*
X83002257Y-56492571D01*
X82980485Y-56444190D01*
X82958714Y-56420000D01*
X82915171Y-56395809D01*
X82566828Y-56855428D02*
X82545057Y-56879619D01*
X82566828Y-56903809D01*
X82588600Y-56879619D01*
X82566828Y-56855428D01*
X82566828Y-56903809D01*
X82109628Y-56903809D02*
X82370885Y-56903809D01*
X82240257Y-56903809D02*
X82240257Y-56395809D01*
X82283800Y-56468380D01*
X82327342Y-56516761D01*
X82370885Y-56540952D01*
X81717742Y-56565142D02*
X81717742Y-56903809D01*
X81913685Y-56565142D02*
X81913685Y-56831238D01*
X81891914Y-56879619D01*
X81848371Y-56903809D01*
X81783057Y-56903809D01*
X81739514Y-56879619D01*
X81717742Y-56855428D01*
G04 #@! TO.C,C42*
D12*
X97656571Y-58622642D02*
X97680761Y-58650461D01*
X97753333Y-58678280D01*
X97801714Y-58678280D01*
X97874285Y-58650461D01*
X97922666Y-58594823D01*
X97946857Y-58539185D01*
X97971047Y-58427909D01*
X97971047Y-58344452D01*
X97946857Y-58233176D01*
X97922666Y-58177538D01*
X97874285Y-58121900D01*
X97801714Y-58094080D01*
X97753333Y-58094080D01*
X97680761Y-58121900D01*
X97656571Y-58149719D01*
X97221142Y-58288814D02*
X97221142Y-58678280D01*
X97342095Y-58066261D02*
X97463047Y-58483547D01*
X97148571Y-58483547D01*
X96979238Y-58149719D02*
X96955047Y-58121900D01*
X96906666Y-58094080D01*
X96785714Y-58094080D01*
X96737333Y-58121900D01*
X96713142Y-58149719D01*
X96688952Y-58205357D01*
X96688952Y-58260995D01*
X96713142Y-58344452D01*
X97003428Y-58678280D01*
X96688952Y-58678280D01*
D13*
X97865171Y-56345809D02*
X97821628Y-56345809D01*
X97778085Y-56370000D01*
X97756314Y-56394190D01*
X97734542Y-56442571D01*
X97712771Y-56539333D01*
X97712771Y-56660285D01*
X97734542Y-56757047D01*
X97756314Y-56805428D01*
X97778085Y-56829619D01*
X97821628Y-56853809D01*
X97865171Y-56853809D01*
X97908714Y-56829619D01*
X97930485Y-56805428D01*
X97952257Y-56757047D01*
X97974028Y-56660285D01*
X97974028Y-56539333D01*
X97952257Y-56442571D01*
X97930485Y-56394190D01*
X97908714Y-56370000D01*
X97865171Y-56345809D01*
X97516828Y-56805428D02*
X97495057Y-56829619D01*
X97516828Y-56853809D01*
X97538600Y-56829619D01*
X97516828Y-56805428D01*
X97516828Y-56853809D01*
X97059628Y-56853809D02*
X97320885Y-56853809D01*
X97190257Y-56853809D02*
X97190257Y-56345809D01*
X97233800Y-56418380D01*
X97277342Y-56466761D01*
X97320885Y-56490952D01*
X96667742Y-56515142D02*
X96667742Y-56853809D01*
X96863685Y-56515142D02*
X96863685Y-56781238D01*
X96841914Y-56829619D01*
X96798371Y-56853809D01*
X96733057Y-56853809D01*
X96689514Y-56829619D01*
X96667742Y-56805428D01*
G04 #@! TO.C,C41*
D12*
X95936571Y-58652642D02*
X95960761Y-58680461D01*
X96033333Y-58708280D01*
X96081714Y-58708280D01*
X96154285Y-58680461D01*
X96202666Y-58624823D01*
X96226857Y-58569185D01*
X96251047Y-58457909D01*
X96251047Y-58374452D01*
X96226857Y-58263176D01*
X96202666Y-58207538D01*
X96154285Y-58151900D01*
X96081714Y-58124080D01*
X96033333Y-58124080D01*
X95960761Y-58151900D01*
X95936571Y-58179719D01*
X95501142Y-58318814D02*
X95501142Y-58708280D01*
X95622095Y-58096261D02*
X95743047Y-58513547D01*
X95428571Y-58513547D01*
X94968952Y-58708280D02*
X95259238Y-58708280D01*
X95114095Y-58708280D02*
X95114095Y-58124080D01*
X95162476Y-58207538D01*
X95210857Y-58263176D01*
X95259238Y-58290995D01*
D13*
X96245171Y-56345809D02*
X96201628Y-56345809D01*
X96158085Y-56370000D01*
X96136314Y-56394190D01*
X96114542Y-56442571D01*
X96092771Y-56539333D01*
X96092771Y-56660285D01*
X96114542Y-56757047D01*
X96136314Y-56805428D01*
X96158085Y-56829619D01*
X96201628Y-56853809D01*
X96245171Y-56853809D01*
X96288714Y-56829619D01*
X96310485Y-56805428D01*
X96332257Y-56757047D01*
X96354028Y-56660285D01*
X96354028Y-56539333D01*
X96332257Y-56442571D01*
X96310485Y-56394190D01*
X96288714Y-56370000D01*
X96245171Y-56345809D01*
X95896828Y-56805428D02*
X95875057Y-56829619D01*
X95896828Y-56853809D01*
X95918600Y-56829619D01*
X95896828Y-56805428D01*
X95896828Y-56853809D01*
X95439628Y-56853809D02*
X95700885Y-56853809D01*
X95570257Y-56853809D02*
X95570257Y-56345809D01*
X95613800Y-56418380D01*
X95657342Y-56466761D01*
X95700885Y-56490952D01*
X95047742Y-56515142D02*
X95047742Y-56853809D01*
X95243685Y-56515142D02*
X95243685Y-56781238D01*
X95221914Y-56829619D01*
X95178371Y-56853809D01*
X95113057Y-56853809D01*
X95069514Y-56829619D01*
X95047742Y-56805428D01*
G04 #@! TO.C,C40*
D12*
X92136571Y-58658642D02*
X92160761Y-58686461D01*
X92233333Y-58714280D01*
X92281714Y-58714280D01*
X92354285Y-58686461D01*
X92402666Y-58630823D01*
X92426857Y-58575185D01*
X92451047Y-58463909D01*
X92451047Y-58380452D01*
X92426857Y-58269176D01*
X92402666Y-58213538D01*
X92354285Y-58157900D01*
X92281714Y-58130080D01*
X92233333Y-58130080D01*
X92160761Y-58157900D01*
X92136571Y-58185719D01*
X91701142Y-58324814D02*
X91701142Y-58714280D01*
X91822095Y-58102261D02*
X91943047Y-58519547D01*
X91628571Y-58519547D01*
X91338285Y-58130080D02*
X91289904Y-58130080D01*
X91241523Y-58157900D01*
X91217333Y-58185719D01*
X91193142Y-58241357D01*
X91168952Y-58352633D01*
X91168952Y-58491728D01*
X91193142Y-58603004D01*
X91217333Y-58658642D01*
X91241523Y-58686461D01*
X91289904Y-58714280D01*
X91338285Y-58714280D01*
X91386666Y-58686461D01*
X91410857Y-58658642D01*
X91435047Y-58603004D01*
X91459238Y-58491728D01*
X91459238Y-58352633D01*
X91435047Y-58241357D01*
X91410857Y-58185719D01*
X91386666Y-58157900D01*
X91338285Y-58130080D01*
D13*
X92405171Y-56361809D02*
X92361628Y-56361809D01*
X92318085Y-56386000D01*
X92296314Y-56410190D01*
X92274542Y-56458571D01*
X92252771Y-56555333D01*
X92252771Y-56676285D01*
X92274542Y-56773047D01*
X92296314Y-56821428D01*
X92318085Y-56845619D01*
X92361628Y-56869809D01*
X92405171Y-56869809D01*
X92448714Y-56845619D01*
X92470485Y-56821428D01*
X92492257Y-56773047D01*
X92514028Y-56676285D01*
X92514028Y-56555333D01*
X92492257Y-56458571D01*
X92470485Y-56410190D01*
X92448714Y-56386000D01*
X92405171Y-56361809D01*
X92056828Y-56821428D02*
X92035057Y-56845619D01*
X92056828Y-56869809D01*
X92078600Y-56845619D01*
X92056828Y-56821428D01*
X92056828Y-56869809D01*
X91599628Y-56869809D02*
X91860885Y-56869809D01*
X91730257Y-56869809D02*
X91730257Y-56361809D01*
X91773800Y-56434380D01*
X91817342Y-56482761D01*
X91860885Y-56506952D01*
X91207742Y-56531142D02*
X91207742Y-56869809D01*
X91403685Y-56531142D02*
X91403685Y-56797238D01*
X91381914Y-56845619D01*
X91338371Y-56869809D01*
X91273057Y-56869809D01*
X91229514Y-56845619D01*
X91207742Y-56821428D01*
G04 #@! TO.C,C39*
D12*
X84496571Y-58632642D02*
X84520761Y-58660461D01*
X84593333Y-58688280D01*
X84641714Y-58688280D01*
X84714285Y-58660461D01*
X84762666Y-58604823D01*
X84786857Y-58549185D01*
X84811047Y-58437909D01*
X84811047Y-58354452D01*
X84786857Y-58243176D01*
X84762666Y-58187538D01*
X84714285Y-58131900D01*
X84641714Y-58104080D01*
X84593333Y-58104080D01*
X84520761Y-58131900D01*
X84496571Y-58159719D01*
X84327238Y-58104080D02*
X84012761Y-58104080D01*
X84182095Y-58326633D01*
X84109523Y-58326633D01*
X84061142Y-58354452D01*
X84036952Y-58382271D01*
X84012761Y-58437909D01*
X84012761Y-58577004D01*
X84036952Y-58632642D01*
X84061142Y-58660461D01*
X84109523Y-58688280D01*
X84254666Y-58688280D01*
X84303047Y-58660461D01*
X84327238Y-58632642D01*
X83770857Y-58688280D02*
X83674095Y-58688280D01*
X83625714Y-58660461D01*
X83601523Y-58632642D01*
X83553142Y-58549185D01*
X83528952Y-58437909D01*
X83528952Y-58215357D01*
X83553142Y-58159719D01*
X83577333Y-58131900D01*
X83625714Y-58104080D01*
X83722476Y-58104080D01*
X83770857Y-58131900D01*
X83795047Y-58159719D01*
X83819238Y-58215357D01*
X83819238Y-58354452D01*
X83795047Y-58410090D01*
X83770857Y-58437909D01*
X83722476Y-58465728D01*
X83625714Y-58465728D01*
X83577333Y-58437909D01*
X83553142Y-58410090D01*
X83528952Y-58354452D01*
D13*
X84685171Y-56395809D02*
X84641628Y-56395809D01*
X84598085Y-56420000D01*
X84576314Y-56444190D01*
X84554542Y-56492571D01*
X84532771Y-56589333D01*
X84532771Y-56710285D01*
X84554542Y-56807047D01*
X84576314Y-56855428D01*
X84598085Y-56879619D01*
X84641628Y-56903809D01*
X84685171Y-56903809D01*
X84728714Y-56879619D01*
X84750485Y-56855428D01*
X84772257Y-56807047D01*
X84794028Y-56710285D01*
X84794028Y-56589333D01*
X84772257Y-56492571D01*
X84750485Y-56444190D01*
X84728714Y-56420000D01*
X84685171Y-56395809D01*
X84336828Y-56855428D02*
X84315057Y-56879619D01*
X84336828Y-56903809D01*
X84358600Y-56879619D01*
X84336828Y-56855428D01*
X84336828Y-56903809D01*
X83879628Y-56903809D02*
X84140885Y-56903809D01*
X84010257Y-56903809D02*
X84010257Y-56395809D01*
X84053800Y-56468380D01*
X84097342Y-56516761D01*
X84140885Y-56540952D01*
X83487742Y-56565142D02*
X83487742Y-56903809D01*
X83683685Y-56565142D02*
X83683685Y-56831238D01*
X83661914Y-56879619D01*
X83618371Y-56903809D01*
X83553057Y-56903809D01*
X83509514Y-56879619D01*
X83487742Y-56855428D01*
G04 #@! TO.C,C9*
D12*
X90254666Y-65206642D02*
X90278857Y-65234461D01*
X90351428Y-65262280D01*
X90399809Y-65262280D01*
X90472380Y-65234461D01*
X90520761Y-65178823D01*
X90544952Y-65123185D01*
X90569142Y-65011909D01*
X90569142Y-64928452D01*
X90544952Y-64817176D01*
X90520761Y-64761538D01*
X90472380Y-64705900D01*
X90399809Y-64678080D01*
X90351428Y-64678080D01*
X90278857Y-64705900D01*
X90254666Y-64733719D01*
X90012761Y-65262280D02*
X89916000Y-65262280D01*
X89867619Y-65234461D01*
X89843428Y-65206642D01*
X89795047Y-65123185D01*
X89770857Y-65011909D01*
X89770857Y-64789357D01*
X89795047Y-64733719D01*
X89819238Y-64705900D01*
X89867619Y-64678080D01*
X89964380Y-64678080D01*
X90012761Y-64705900D01*
X90036952Y-64733719D01*
X90061142Y-64789357D01*
X90061142Y-64928452D01*
X90036952Y-64984090D01*
X90012761Y-65011909D01*
X89964380Y-65039728D01*
X89867619Y-65039728D01*
X89819238Y-65011909D01*
X89795047Y-64984090D01*
X89770857Y-64928452D01*
D13*
X90725171Y-62941809D02*
X90681628Y-62941809D01*
X90638085Y-62966000D01*
X90616314Y-62990190D01*
X90594542Y-63038571D01*
X90572771Y-63135333D01*
X90572771Y-63256285D01*
X90594542Y-63353047D01*
X90616314Y-63401428D01*
X90638085Y-63425619D01*
X90681628Y-63449809D01*
X90725171Y-63449809D01*
X90768714Y-63425619D01*
X90790485Y-63401428D01*
X90812257Y-63353047D01*
X90834028Y-63256285D01*
X90834028Y-63135333D01*
X90812257Y-63038571D01*
X90790485Y-62990190D01*
X90768714Y-62966000D01*
X90725171Y-62941809D01*
X90376828Y-63401428D02*
X90355057Y-63425619D01*
X90376828Y-63449809D01*
X90398600Y-63425619D01*
X90376828Y-63401428D01*
X90376828Y-63449809D01*
X89919628Y-63449809D02*
X90180885Y-63449809D01*
X90050257Y-63449809D02*
X90050257Y-62941809D01*
X90093800Y-63014380D01*
X90137342Y-63062761D01*
X90180885Y-63086952D01*
X89527742Y-63111142D02*
X89527742Y-63449809D01*
X89723685Y-63111142D02*
X89723685Y-63377238D01*
X89701914Y-63425619D01*
X89658371Y-63449809D01*
X89593057Y-63449809D01*
X89549514Y-63425619D01*
X89527742Y-63401428D01*
G04 #@! TO.C,C10*
D12*
X113446571Y-47988642D02*
X113470761Y-48016461D01*
X113543333Y-48044280D01*
X113591714Y-48044280D01*
X113664285Y-48016461D01*
X113712666Y-47960823D01*
X113736857Y-47905185D01*
X113761047Y-47793909D01*
X113761047Y-47710452D01*
X113736857Y-47599176D01*
X113712666Y-47543538D01*
X113664285Y-47487900D01*
X113591714Y-47460080D01*
X113543333Y-47460080D01*
X113470761Y-47487900D01*
X113446571Y-47515719D01*
X112962761Y-48044280D02*
X113253047Y-48044280D01*
X113107904Y-48044280D02*
X113107904Y-47460080D01*
X113156285Y-47543538D01*
X113204666Y-47599176D01*
X113253047Y-47626995D01*
X112648285Y-47460080D02*
X112599904Y-47460080D01*
X112551523Y-47487900D01*
X112527333Y-47515719D01*
X112503142Y-47571357D01*
X112478952Y-47682633D01*
X112478952Y-47821728D01*
X112503142Y-47933004D01*
X112527333Y-47988642D01*
X112551523Y-48016461D01*
X112599904Y-48044280D01*
X112648285Y-48044280D01*
X112696666Y-48016461D01*
X112720857Y-47988642D01*
X112745047Y-47933004D01*
X112769238Y-47821728D01*
X112769238Y-47682633D01*
X112745047Y-47571357D01*
X112720857Y-47515719D01*
X112696666Y-47487900D01*
X112648285Y-47460080D01*
D13*
X113393914Y-46279809D02*
X113655171Y-46279809D01*
X113524542Y-46279809D02*
X113524542Y-45771809D01*
X113568085Y-45844380D01*
X113611628Y-45892761D01*
X113655171Y-45916952D01*
X113110885Y-45771809D02*
X113067342Y-45771809D01*
X113023800Y-45796000D01*
X113002028Y-45820190D01*
X112980257Y-45868571D01*
X112958485Y-45965333D01*
X112958485Y-46086285D01*
X112980257Y-46183047D01*
X113002028Y-46231428D01*
X113023800Y-46255619D01*
X113067342Y-46279809D01*
X113110885Y-46279809D01*
X113154428Y-46255619D01*
X113176200Y-46231428D01*
X113197971Y-46183047D01*
X113219742Y-46086285D01*
X113219742Y-45965333D01*
X113197971Y-45868571D01*
X113176200Y-45820190D01*
X113154428Y-45796000D01*
X113110885Y-45771809D01*
X112566600Y-45941142D02*
X112566600Y-46279809D01*
X112762542Y-45941142D02*
X112762542Y-46207238D01*
X112740771Y-46255619D01*
X112697228Y-46279809D01*
X112631914Y-46279809D01*
X112588371Y-46255619D01*
X112566600Y-46231428D01*
G04 #@! TO.C,C11*
D12*
X128246571Y-54640642D02*
X128270761Y-54668461D01*
X128343333Y-54696280D01*
X128391714Y-54696280D01*
X128464285Y-54668461D01*
X128512666Y-54612823D01*
X128536857Y-54557185D01*
X128561047Y-54445909D01*
X128561047Y-54362452D01*
X128536857Y-54251176D01*
X128512666Y-54195538D01*
X128464285Y-54139900D01*
X128391714Y-54112080D01*
X128343333Y-54112080D01*
X128270761Y-54139900D01*
X128246571Y-54167719D01*
X127762761Y-54696280D02*
X128053047Y-54696280D01*
X127907904Y-54696280D02*
X127907904Y-54112080D01*
X127956285Y-54195538D01*
X128004666Y-54251176D01*
X128053047Y-54278995D01*
X127278952Y-54696280D02*
X127569238Y-54696280D01*
X127424095Y-54696280D02*
X127424095Y-54112080D01*
X127472476Y-54195538D01*
X127520857Y-54251176D01*
X127569238Y-54278995D01*
D13*
X128213914Y-56439809D02*
X128475171Y-56439809D01*
X128344542Y-56439809D02*
X128344542Y-55931809D01*
X128388085Y-56004380D01*
X128431628Y-56052761D01*
X128475171Y-56076952D01*
X127930885Y-55931809D02*
X127887342Y-55931809D01*
X127843800Y-55956000D01*
X127822028Y-55980190D01*
X127800257Y-56028571D01*
X127778485Y-56125333D01*
X127778485Y-56246285D01*
X127800257Y-56343047D01*
X127822028Y-56391428D01*
X127843800Y-56415619D01*
X127887342Y-56439809D01*
X127930885Y-56439809D01*
X127974428Y-56415619D01*
X127996200Y-56391428D01*
X128017971Y-56343047D01*
X128039742Y-56246285D01*
X128039742Y-56125333D01*
X128017971Y-56028571D01*
X127996200Y-55980190D01*
X127974428Y-55956000D01*
X127930885Y-55931809D01*
X127386600Y-56101142D02*
X127386600Y-56439809D01*
X127582542Y-56101142D02*
X127582542Y-56367238D01*
X127560771Y-56415619D01*
X127517228Y-56439809D01*
X127451914Y-56439809D01*
X127408371Y-56415619D01*
X127386600Y-56391428D01*
G04 #@! TO.C,C12*
D12*
X119726571Y-53008642D02*
X119750761Y-53036461D01*
X119823333Y-53064280D01*
X119871714Y-53064280D01*
X119944285Y-53036461D01*
X119992666Y-52980823D01*
X120016857Y-52925185D01*
X120041047Y-52813909D01*
X120041047Y-52730452D01*
X120016857Y-52619176D01*
X119992666Y-52563538D01*
X119944285Y-52507900D01*
X119871714Y-52480080D01*
X119823333Y-52480080D01*
X119750761Y-52507900D01*
X119726571Y-52535719D01*
X119242761Y-53064280D02*
X119533047Y-53064280D01*
X119387904Y-53064280D02*
X119387904Y-52480080D01*
X119436285Y-52563538D01*
X119484666Y-52619176D01*
X119533047Y-52646995D01*
X119049238Y-52535719D02*
X119025047Y-52507900D01*
X118976666Y-52480080D01*
X118855714Y-52480080D01*
X118807333Y-52507900D01*
X118783142Y-52535719D01*
X118758952Y-52591357D01*
X118758952Y-52646995D01*
X118783142Y-52730452D01*
X119073428Y-53064280D01*
X118758952Y-53064280D01*
D13*
X119623914Y-51229809D02*
X119885171Y-51229809D01*
X119754542Y-51229809D02*
X119754542Y-50721809D01*
X119798085Y-50794380D01*
X119841628Y-50842761D01*
X119885171Y-50866952D01*
X119340885Y-50721809D02*
X119297342Y-50721809D01*
X119253800Y-50746000D01*
X119232028Y-50770190D01*
X119210257Y-50818571D01*
X119188485Y-50915333D01*
X119188485Y-51036285D01*
X119210257Y-51133047D01*
X119232028Y-51181428D01*
X119253800Y-51205619D01*
X119297342Y-51229809D01*
X119340885Y-51229809D01*
X119384428Y-51205619D01*
X119406200Y-51181428D01*
X119427971Y-51133047D01*
X119449742Y-51036285D01*
X119449742Y-50915333D01*
X119427971Y-50818571D01*
X119406200Y-50770190D01*
X119384428Y-50746000D01*
X119340885Y-50721809D01*
X118796600Y-50891142D02*
X118796600Y-51229809D01*
X118992542Y-50891142D02*
X118992542Y-51157238D01*
X118970771Y-51205619D01*
X118927228Y-51229809D01*
X118861914Y-51229809D01*
X118818371Y-51205619D01*
X118796600Y-51181428D01*
G04 #@! TO.C,C13*
D12*
X126366571Y-52928642D02*
X126390761Y-52956461D01*
X126463333Y-52984280D01*
X126511714Y-52984280D01*
X126584285Y-52956461D01*
X126632666Y-52900823D01*
X126656857Y-52845185D01*
X126681047Y-52733909D01*
X126681047Y-52650452D01*
X126656857Y-52539176D01*
X126632666Y-52483538D01*
X126584285Y-52427900D01*
X126511714Y-52400080D01*
X126463333Y-52400080D01*
X126390761Y-52427900D01*
X126366571Y-52455719D01*
X125882761Y-52984280D02*
X126173047Y-52984280D01*
X126027904Y-52984280D02*
X126027904Y-52400080D01*
X126076285Y-52483538D01*
X126124666Y-52539176D01*
X126173047Y-52566995D01*
X125713428Y-52400080D02*
X125398952Y-52400080D01*
X125568285Y-52622633D01*
X125495714Y-52622633D01*
X125447333Y-52650452D01*
X125423142Y-52678271D01*
X125398952Y-52733909D01*
X125398952Y-52873004D01*
X125423142Y-52928642D01*
X125447333Y-52956461D01*
X125495714Y-52984280D01*
X125640857Y-52984280D01*
X125689238Y-52956461D01*
X125713428Y-52928642D01*
D13*
X126303914Y-51119809D02*
X126565171Y-51119809D01*
X126434542Y-51119809D02*
X126434542Y-50611809D01*
X126478085Y-50684380D01*
X126521628Y-50732761D01*
X126565171Y-50756952D01*
X126020885Y-50611809D02*
X125977342Y-50611809D01*
X125933800Y-50636000D01*
X125912028Y-50660190D01*
X125890257Y-50708571D01*
X125868485Y-50805333D01*
X125868485Y-50926285D01*
X125890257Y-51023047D01*
X125912028Y-51071428D01*
X125933800Y-51095619D01*
X125977342Y-51119809D01*
X126020885Y-51119809D01*
X126064428Y-51095619D01*
X126086200Y-51071428D01*
X126107971Y-51023047D01*
X126129742Y-50926285D01*
X126129742Y-50805333D01*
X126107971Y-50708571D01*
X126086200Y-50660190D01*
X126064428Y-50636000D01*
X126020885Y-50611809D01*
X125476600Y-50781142D02*
X125476600Y-51119809D01*
X125672542Y-50781142D02*
X125672542Y-51047238D01*
X125650771Y-51095619D01*
X125607228Y-51119809D01*
X125541914Y-51119809D01*
X125498371Y-51095619D01*
X125476600Y-51071428D01*
G04 #@! TO.C,FB3*
D12*
X111793333Y-47778271D02*
X111962666Y-47778271D01*
X111962666Y-48084280D02*
X111962666Y-47500080D01*
X111720761Y-47500080D01*
X111357904Y-47778271D02*
X111285333Y-47806090D01*
X111261142Y-47833909D01*
X111236952Y-47889547D01*
X111236952Y-47973004D01*
X111261142Y-48028642D01*
X111285333Y-48056461D01*
X111333714Y-48084280D01*
X111527238Y-48084280D01*
X111527238Y-47500080D01*
X111357904Y-47500080D01*
X111309523Y-47527900D01*
X111285333Y-47555719D01*
X111261142Y-47611357D01*
X111261142Y-47666995D01*
X111285333Y-47722633D01*
X111309523Y-47750452D01*
X111357904Y-47778271D01*
X111527238Y-47778271D01*
X111067619Y-47500080D02*
X110753142Y-47500080D01*
X110922476Y-47722633D01*
X110849904Y-47722633D01*
X110801523Y-47750452D01*
X110777333Y-47778271D01*
X110753142Y-47833909D01*
X110753142Y-47973004D01*
X110777333Y-48028642D01*
X110801523Y-48056461D01*
X110849904Y-48084280D01*
X110995047Y-48084280D01*
X111043428Y-48056461D01*
X111067619Y-48028642D01*
G04 #@! TO.C,C15*
X95836571Y-65110642D02*
X95860761Y-65138461D01*
X95933333Y-65166280D01*
X95981714Y-65166280D01*
X96054285Y-65138461D01*
X96102666Y-65082823D01*
X96126857Y-65027185D01*
X96151047Y-64915909D01*
X96151047Y-64832452D01*
X96126857Y-64721176D01*
X96102666Y-64665538D01*
X96054285Y-64609900D01*
X95981714Y-64582080D01*
X95933333Y-64582080D01*
X95860761Y-64609900D01*
X95836571Y-64637719D01*
X95352761Y-65166280D02*
X95643047Y-65166280D01*
X95497904Y-65166280D02*
X95497904Y-64582080D01*
X95546285Y-64665538D01*
X95594666Y-64721176D01*
X95643047Y-64748995D01*
X94893142Y-64582080D02*
X95135047Y-64582080D01*
X95159238Y-64860271D01*
X95135047Y-64832452D01*
X95086666Y-64804633D01*
X94965714Y-64804633D01*
X94917333Y-64832452D01*
X94893142Y-64860271D01*
X94868952Y-64915909D01*
X94868952Y-65055004D01*
X94893142Y-65110642D01*
X94917333Y-65138461D01*
X94965714Y-65166280D01*
X95086666Y-65166280D01*
X95135047Y-65138461D01*
X95159238Y-65110642D01*
D13*
X96065171Y-62845809D02*
X96021628Y-62845809D01*
X95978085Y-62870000D01*
X95956314Y-62894190D01*
X95934542Y-62942571D01*
X95912771Y-63039333D01*
X95912771Y-63160285D01*
X95934542Y-63257047D01*
X95956314Y-63305428D01*
X95978085Y-63329619D01*
X96021628Y-63353809D01*
X96065171Y-63353809D01*
X96108714Y-63329619D01*
X96130485Y-63305428D01*
X96152257Y-63257047D01*
X96174028Y-63160285D01*
X96174028Y-63039333D01*
X96152257Y-62942571D01*
X96130485Y-62894190D01*
X96108714Y-62870000D01*
X96065171Y-62845809D01*
X95716828Y-63305428D02*
X95695057Y-63329619D01*
X95716828Y-63353809D01*
X95738600Y-63329619D01*
X95716828Y-63305428D01*
X95716828Y-63353809D01*
X95259628Y-63353809D02*
X95520885Y-63353809D01*
X95390257Y-63353809D02*
X95390257Y-62845809D01*
X95433800Y-62918380D01*
X95477342Y-62966761D01*
X95520885Y-62990952D01*
X94867742Y-63015142D02*
X94867742Y-63353809D01*
X95063685Y-63015142D02*
X95063685Y-63281238D01*
X95041914Y-63329619D01*
X94998371Y-63353809D01*
X94933057Y-63353809D01*
X94889514Y-63329619D01*
X94867742Y-63305428D01*
G04 #@! TO.C,C17*
D12*
X77708642Y-51697428D02*
X77736461Y-51673238D01*
X77764280Y-51600666D01*
X77764280Y-51552285D01*
X77736461Y-51479714D01*
X77680823Y-51431333D01*
X77625185Y-51407142D01*
X77513909Y-51382952D01*
X77430452Y-51382952D01*
X77319176Y-51407142D01*
X77263538Y-51431333D01*
X77207900Y-51479714D01*
X77180080Y-51552285D01*
X77180080Y-51600666D01*
X77207900Y-51673238D01*
X77235719Y-51697428D01*
X77764280Y-52181238D02*
X77764280Y-51890952D01*
X77764280Y-52036095D02*
X77180080Y-52036095D01*
X77263538Y-51987714D01*
X77319176Y-51939333D01*
X77346995Y-51890952D01*
X77180080Y-52350571D02*
X77180080Y-52689238D01*
X77764280Y-52471523D01*
D13*
X79001809Y-51448828D02*
X79001809Y-51492371D01*
X79026000Y-51535914D01*
X79050190Y-51557685D01*
X79098571Y-51579457D01*
X79195333Y-51601228D01*
X79316285Y-51601228D01*
X79413047Y-51579457D01*
X79461428Y-51557685D01*
X79485619Y-51535914D01*
X79509809Y-51492371D01*
X79509809Y-51448828D01*
X79485619Y-51405285D01*
X79461428Y-51383514D01*
X79413047Y-51361742D01*
X79316285Y-51339971D01*
X79195333Y-51339971D01*
X79098571Y-51361742D01*
X79050190Y-51383514D01*
X79026000Y-51405285D01*
X79001809Y-51448828D01*
X79461428Y-51797171D02*
X79485619Y-51818942D01*
X79509809Y-51797171D01*
X79485619Y-51775400D01*
X79461428Y-51797171D01*
X79509809Y-51797171D01*
X79509809Y-52254371D02*
X79509809Y-51993114D01*
X79509809Y-52123742D02*
X79001809Y-52123742D01*
X79074380Y-52080200D01*
X79122761Y-52036657D01*
X79146952Y-51993114D01*
X79171142Y-52646257D02*
X79509809Y-52646257D01*
X79171142Y-52450314D02*
X79437238Y-52450314D01*
X79485619Y-52472085D01*
X79509809Y-52515628D01*
X79509809Y-52580942D01*
X79485619Y-52624485D01*
X79461428Y-52646257D01*
G04 #@! TO.C,C18*
D12*
X103848642Y-46357428D02*
X103876461Y-46333238D01*
X103904280Y-46260666D01*
X103904280Y-46212285D01*
X103876461Y-46139714D01*
X103820823Y-46091333D01*
X103765185Y-46067142D01*
X103653909Y-46042952D01*
X103570452Y-46042952D01*
X103459176Y-46067142D01*
X103403538Y-46091333D01*
X103347900Y-46139714D01*
X103320080Y-46212285D01*
X103320080Y-46260666D01*
X103347900Y-46333238D01*
X103375719Y-46357428D01*
X103904280Y-46841238D02*
X103904280Y-46550952D01*
X103904280Y-46696095D02*
X103320080Y-46696095D01*
X103403538Y-46647714D01*
X103459176Y-46599333D01*
X103486995Y-46550952D01*
X103570452Y-47131523D02*
X103542633Y-47083142D01*
X103514814Y-47058952D01*
X103459176Y-47034761D01*
X103431357Y-47034761D01*
X103375719Y-47058952D01*
X103347900Y-47083142D01*
X103320080Y-47131523D01*
X103320080Y-47228285D01*
X103347900Y-47276666D01*
X103375719Y-47300857D01*
X103431357Y-47325047D01*
X103459176Y-47325047D01*
X103514814Y-47300857D01*
X103542633Y-47276666D01*
X103570452Y-47228285D01*
X103570452Y-47131523D01*
X103598271Y-47083142D01*
X103626090Y-47058952D01*
X103681728Y-47034761D01*
X103793004Y-47034761D01*
X103848642Y-47058952D01*
X103876461Y-47083142D01*
X103904280Y-47131523D01*
X103904280Y-47228285D01*
X103876461Y-47276666D01*
X103848642Y-47300857D01*
X103793004Y-47325047D01*
X103681728Y-47325047D01*
X103626090Y-47300857D01*
X103598271Y-47276666D01*
X103570452Y-47228285D01*
D13*
X101621809Y-46098828D02*
X101621809Y-46142371D01*
X101646000Y-46185914D01*
X101670190Y-46207685D01*
X101718571Y-46229457D01*
X101815333Y-46251228D01*
X101936285Y-46251228D01*
X102033047Y-46229457D01*
X102081428Y-46207685D01*
X102105619Y-46185914D01*
X102129809Y-46142371D01*
X102129809Y-46098828D01*
X102105619Y-46055285D01*
X102081428Y-46033514D01*
X102033047Y-46011742D01*
X101936285Y-45989971D01*
X101815333Y-45989971D01*
X101718571Y-46011742D01*
X101670190Y-46033514D01*
X101646000Y-46055285D01*
X101621809Y-46098828D01*
X102081428Y-46447171D02*
X102105619Y-46468942D01*
X102129809Y-46447171D01*
X102105619Y-46425400D01*
X102081428Y-46447171D01*
X102129809Y-46447171D01*
X102129809Y-46904371D02*
X102129809Y-46643114D01*
X102129809Y-46773742D02*
X101621809Y-46773742D01*
X101694380Y-46730200D01*
X101742761Y-46686657D01*
X101766952Y-46643114D01*
X101791142Y-47296257D02*
X102129809Y-47296257D01*
X101791142Y-47100314D02*
X102057238Y-47100314D01*
X102105619Y-47122085D01*
X102129809Y-47165628D01*
X102129809Y-47230942D01*
X102105619Y-47274485D01*
X102081428Y-47296257D01*
G04 #@! TO.C,C19*
D12*
X77748642Y-48157428D02*
X77776461Y-48133238D01*
X77804280Y-48060666D01*
X77804280Y-48012285D01*
X77776461Y-47939714D01*
X77720823Y-47891333D01*
X77665185Y-47867142D01*
X77553909Y-47842952D01*
X77470452Y-47842952D01*
X77359176Y-47867142D01*
X77303538Y-47891333D01*
X77247900Y-47939714D01*
X77220080Y-48012285D01*
X77220080Y-48060666D01*
X77247900Y-48133238D01*
X77275719Y-48157428D01*
X77804280Y-48641238D02*
X77804280Y-48350952D01*
X77804280Y-48496095D02*
X77220080Y-48496095D01*
X77303538Y-48447714D01*
X77359176Y-48399333D01*
X77386995Y-48350952D01*
X77804280Y-48883142D02*
X77804280Y-48979904D01*
X77776461Y-49028285D01*
X77748642Y-49052476D01*
X77665185Y-49100857D01*
X77553909Y-49125047D01*
X77331357Y-49125047D01*
X77275719Y-49100857D01*
X77247900Y-49076666D01*
X77220080Y-49028285D01*
X77220080Y-48931523D01*
X77247900Y-48883142D01*
X77275719Y-48858952D01*
X77331357Y-48834761D01*
X77470452Y-48834761D01*
X77526090Y-48858952D01*
X77553909Y-48883142D01*
X77581728Y-48931523D01*
X77581728Y-49028285D01*
X77553909Y-49076666D01*
X77526090Y-49100857D01*
X77470452Y-49125047D01*
D13*
X79011809Y-48018828D02*
X79011809Y-48062371D01*
X79036000Y-48105914D01*
X79060190Y-48127685D01*
X79108571Y-48149457D01*
X79205333Y-48171228D01*
X79326285Y-48171228D01*
X79423047Y-48149457D01*
X79471428Y-48127685D01*
X79495619Y-48105914D01*
X79519809Y-48062371D01*
X79519809Y-48018828D01*
X79495619Y-47975285D01*
X79471428Y-47953514D01*
X79423047Y-47931742D01*
X79326285Y-47909971D01*
X79205333Y-47909971D01*
X79108571Y-47931742D01*
X79060190Y-47953514D01*
X79036000Y-47975285D01*
X79011809Y-48018828D01*
X79471428Y-48367171D02*
X79495619Y-48388942D01*
X79519809Y-48367171D01*
X79495619Y-48345400D01*
X79471428Y-48367171D01*
X79519809Y-48367171D01*
X79519809Y-48824371D02*
X79519809Y-48563114D01*
X79519809Y-48693742D02*
X79011809Y-48693742D01*
X79084380Y-48650200D01*
X79132761Y-48606657D01*
X79156952Y-48563114D01*
X79181142Y-49216257D02*
X79519809Y-49216257D01*
X79181142Y-49020314D02*
X79447238Y-49020314D01*
X79495619Y-49042085D01*
X79519809Y-49085628D01*
X79519809Y-49150942D01*
X79495619Y-49194485D01*
X79471428Y-49216257D01*
G04 #@! TO.C,C20*
D12*
X77758642Y-42637428D02*
X77786461Y-42613238D01*
X77814280Y-42540666D01*
X77814280Y-42492285D01*
X77786461Y-42419714D01*
X77730823Y-42371333D01*
X77675185Y-42347142D01*
X77563909Y-42322952D01*
X77480452Y-42322952D01*
X77369176Y-42347142D01*
X77313538Y-42371333D01*
X77257900Y-42419714D01*
X77230080Y-42492285D01*
X77230080Y-42540666D01*
X77257900Y-42613238D01*
X77285719Y-42637428D01*
X77285719Y-42830952D02*
X77257900Y-42855142D01*
X77230080Y-42903523D01*
X77230080Y-43024476D01*
X77257900Y-43072857D01*
X77285719Y-43097047D01*
X77341357Y-43121238D01*
X77396995Y-43121238D01*
X77480452Y-43097047D01*
X77814280Y-42806761D01*
X77814280Y-43121238D01*
X77230080Y-43435714D02*
X77230080Y-43484095D01*
X77257900Y-43532476D01*
X77285719Y-43556666D01*
X77341357Y-43580857D01*
X77452633Y-43605047D01*
X77591728Y-43605047D01*
X77703004Y-43580857D01*
X77758642Y-43556666D01*
X77786461Y-43532476D01*
X77814280Y-43484095D01*
X77814280Y-43435714D01*
X77786461Y-43387333D01*
X77758642Y-43363142D01*
X77703004Y-43338952D01*
X77591728Y-43314761D01*
X77452633Y-43314761D01*
X77341357Y-43338952D01*
X77285719Y-43363142D01*
X77257900Y-43387333D01*
X77230080Y-43435714D01*
D13*
X79001809Y-42468828D02*
X79001809Y-42512371D01*
X79026000Y-42555914D01*
X79050190Y-42577685D01*
X79098571Y-42599457D01*
X79195333Y-42621228D01*
X79316285Y-42621228D01*
X79413047Y-42599457D01*
X79461428Y-42577685D01*
X79485619Y-42555914D01*
X79509809Y-42512371D01*
X79509809Y-42468828D01*
X79485619Y-42425285D01*
X79461428Y-42403514D01*
X79413047Y-42381742D01*
X79316285Y-42359971D01*
X79195333Y-42359971D01*
X79098571Y-42381742D01*
X79050190Y-42403514D01*
X79026000Y-42425285D01*
X79001809Y-42468828D01*
X79461428Y-42817171D02*
X79485619Y-42838942D01*
X79509809Y-42817171D01*
X79485619Y-42795400D01*
X79461428Y-42817171D01*
X79509809Y-42817171D01*
X79509809Y-43274371D02*
X79509809Y-43013114D01*
X79509809Y-43143742D02*
X79001809Y-43143742D01*
X79074380Y-43100200D01*
X79122761Y-43056657D01*
X79146952Y-43013114D01*
X79171142Y-43666257D02*
X79509809Y-43666257D01*
X79171142Y-43470314D02*
X79437238Y-43470314D01*
X79485619Y-43492085D01*
X79509809Y-43535628D01*
X79509809Y-43600942D01*
X79485619Y-43644485D01*
X79461428Y-43666257D01*
G04 #@! TO.C,C21*
D12*
X103928642Y-42817428D02*
X103956461Y-42793238D01*
X103984280Y-42720666D01*
X103984280Y-42672285D01*
X103956461Y-42599714D01*
X103900823Y-42551333D01*
X103845185Y-42527142D01*
X103733909Y-42502952D01*
X103650452Y-42502952D01*
X103539176Y-42527142D01*
X103483538Y-42551333D01*
X103427900Y-42599714D01*
X103400080Y-42672285D01*
X103400080Y-42720666D01*
X103427900Y-42793238D01*
X103455719Y-42817428D01*
X103455719Y-43010952D02*
X103427900Y-43035142D01*
X103400080Y-43083523D01*
X103400080Y-43204476D01*
X103427900Y-43252857D01*
X103455719Y-43277047D01*
X103511357Y-43301238D01*
X103566995Y-43301238D01*
X103650452Y-43277047D01*
X103984280Y-42986761D01*
X103984280Y-43301238D01*
X103984280Y-43785047D02*
X103984280Y-43494761D01*
X103984280Y-43639904D02*
X103400080Y-43639904D01*
X103483538Y-43591523D01*
X103539176Y-43543142D01*
X103566995Y-43494761D01*
D13*
X101621809Y-42598828D02*
X101621809Y-42642371D01*
X101646000Y-42685914D01*
X101670190Y-42707685D01*
X101718571Y-42729457D01*
X101815333Y-42751228D01*
X101936285Y-42751228D01*
X102033047Y-42729457D01*
X102081428Y-42707685D01*
X102105619Y-42685914D01*
X102129809Y-42642371D01*
X102129809Y-42598828D01*
X102105619Y-42555285D01*
X102081428Y-42533514D01*
X102033047Y-42511742D01*
X101936285Y-42489971D01*
X101815333Y-42489971D01*
X101718571Y-42511742D01*
X101670190Y-42533514D01*
X101646000Y-42555285D01*
X101621809Y-42598828D01*
X102081428Y-42947171D02*
X102105619Y-42968942D01*
X102129809Y-42947171D01*
X102105619Y-42925400D01*
X102081428Y-42947171D01*
X102129809Y-42947171D01*
X102129809Y-43404371D02*
X102129809Y-43143114D01*
X102129809Y-43273742D02*
X101621809Y-43273742D01*
X101694380Y-43230200D01*
X101742761Y-43186657D01*
X101766952Y-43143114D01*
X101791142Y-43796257D02*
X102129809Y-43796257D01*
X101791142Y-43600314D02*
X102057238Y-43600314D01*
X102105619Y-43622085D01*
X102129809Y-43665628D01*
X102129809Y-43730942D01*
X102105619Y-43774485D01*
X102081428Y-43796257D01*
G04 #@! TO.C,C22*
D12*
X103918642Y-41167428D02*
X103946461Y-41143238D01*
X103974280Y-41070666D01*
X103974280Y-41022285D01*
X103946461Y-40949714D01*
X103890823Y-40901333D01*
X103835185Y-40877142D01*
X103723909Y-40852952D01*
X103640452Y-40852952D01*
X103529176Y-40877142D01*
X103473538Y-40901333D01*
X103417900Y-40949714D01*
X103390080Y-41022285D01*
X103390080Y-41070666D01*
X103417900Y-41143238D01*
X103445719Y-41167428D01*
X103445719Y-41360952D02*
X103417900Y-41385142D01*
X103390080Y-41433523D01*
X103390080Y-41554476D01*
X103417900Y-41602857D01*
X103445719Y-41627047D01*
X103501357Y-41651238D01*
X103556995Y-41651238D01*
X103640452Y-41627047D01*
X103974280Y-41336761D01*
X103974280Y-41651238D01*
X103445719Y-41844761D02*
X103417900Y-41868952D01*
X103390080Y-41917333D01*
X103390080Y-42038285D01*
X103417900Y-42086666D01*
X103445719Y-42110857D01*
X103501357Y-42135047D01*
X103556995Y-42135047D01*
X103640452Y-42110857D01*
X103974280Y-41820571D01*
X103974280Y-42135047D01*
D13*
X101611809Y-40948828D02*
X101611809Y-40992371D01*
X101636000Y-41035914D01*
X101660190Y-41057685D01*
X101708571Y-41079457D01*
X101805333Y-41101228D01*
X101926285Y-41101228D01*
X102023047Y-41079457D01*
X102071428Y-41057685D01*
X102095619Y-41035914D01*
X102119809Y-40992371D01*
X102119809Y-40948828D01*
X102095619Y-40905285D01*
X102071428Y-40883514D01*
X102023047Y-40861742D01*
X101926285Y-40839971D01*
X101805333Y-40839971D01*
X101708571Y-40861742D01*
X101660190Y-40883514D01*
X101636000Y-40905285D01*
X101611809Y-40948828D01*
X102071428Y-41297171D02*
X102095619Y-41318942D01*
X102119809Y-41297171D01*
X102095619Y-41275400D01*
X102071428Y-41297171D01*
X102119809Y-41297171D01*
X102119809Y-41754371D02*
X102119809Y-41493114D01*
X102119809Y-41623742D02*
X101611809Y-41623742D01*
X101684380Y-41580200D01*
X101732761Y-41536657D01*
X101756952Y-41493114D01*
X101781142Y-42146257D02*
X102119809Y-42146257D01*
X101781142Y-41950314D02*
X102047238Y-41950314D01*
X102095619Y-41972085D01*
X102119809Y-42015628D01*
X102119809Y-42080942D01*
X102095619Y-42124485D01*
X102071428Y-42146257D01*
G04 #@! TD*
M02*
